<svg xmlns="http://www.w3.org/2000/svg" viewBox="0 0 106.32 51.75"><defs><style>.cls-1{fill:#167705;}.cls-2{fill:#bdf2d6;}.cls-3{font-size:35px;fill:#fff;font-family:STHeitiSC-Medium, Heiti SC;font-weight:500;}</style></defs><g id="图层_2" data-name="图层 2"><g id="Layer_1" data-name="Layer 1"><path class="cls-1" d="M106.32,25.94c0,7.92-.09,15.53-.12,20.42l-103-.48s17.31-15,19.16-20.18c-1.82-5.18-19-20.29-19-20.29l103,.11V25.94Z"/><path class="cls-1" d="M103.93.12.15,0V3.08l103.78.12V.12Z"/><path class="cls-1" d="M103.78,51.75,0,51.26l0-3.08,103.78.48c0,1.94,0,3.09,0,3.09Z"/><path class="cls-2" d="M103.93,3.2.15,3.08v.14L.92,5.4l103,.11V3.2Z"/><path class="cls-2" d="M103.8,48.66,0,48.18V48L.8,45.87l103,.48c0,.87,0,1.63,0,2.31Z"/><text class="cls-3" transform="translate(36.76 36.67) scale(0.55 1)">自定义</text></g></g></svg>