<svg xmlns="http://www.w3.org/2000/svg" viewBox="0 0 64 64"><defs><style>.cls-1{fill:#f8c460;}.cls-2{fill:#faaf42;}.cls-3{fill:#fcab68;}.cls-4{fill:#ea8e49;}.cls-5{fill:#d6e4e8;}.cls-6{fill:#baced3;}.cls-7{font-size:17.9px;fill:#353436;font-family:FZLTZHK--GBK1-0, Lantinghei SC;}</style></defs><g id="图层_2" data-name="图层 2"><g id="Icon"><polygon class="cls-1" points="53 52.99 32 63 11 52.99 11 3 53 3 53 52.99"/><path class="cls-2" d="M14,39.37V3H11V53L32,63l2.55-1.21L25.4,57.43A20,20,0,0,1,14,39.37Z"/><polygon class="cls-3" points="49 50 32 58 15 50 15 3 49 3 49 50"/><path class="cls-4" d="M15,45.58V50l3.07,1.44A19.78,19.78,0,0,1,15,45.58Z"/><rect class="cls-1" x="9" y="1" width="46" height="8" rx="2"/><path class="cls-2" d="M16,6a4,4,0,0,1-4-4V1H11A2,2,0,0,0,9,3V7a2,2,0,0,0,2,2H53a2,2,0,0,0,2-2V6Z"/><rect class="cls-5" x="1" y="1" width="4" height="8" rx="2"/><rect class="cls-5" x="59" y="1" width="4" height="8" rx="2"/><rect class="cls-6" x="5" y="3" width="4" height="4"/><rect class="cls-6" x="55" y="3" width="4" height="4"/><path d="M61,0a3,3,0,0,0-2.82,2H55.82A3,3,0,0,0,53,0H11A3,3,0,0,0,8.18,2H5.82A3,3,0,0,0,0,3V7A3,3,0,0,0,5.82,8H8.18A3,3,0,0,0,10,9.82V53a1,1,0,0,0,.57.9l21,10a1,1,0,0,0,.86,0l21-10A1,1,0,0,0,54,53V9.82A3,3,0,0,0,55.82,8h2.36A3,3,0,0,0,64,7V3A3,3,0,0,0,61,0ZM3,8A1,1,0,0,1,2,7V3A1,1,0,0,1,4,3V7A1,1,0,0,1,3,8ZM6,4H8V6H6ZM32,61.89,12,52.36V10h2V50a1,1,0,0,0,.57.9l17,8a1,1,0,0,0,.86,0l17-8A1,1,0,0,0,50,50V10h2V52.36ZM16,10H48V49.37L32,56.9,16,49.37ZM53,8H11a1,1,0,0,1-1-1V3a1,1,0,0,1,1-1H53a1,1,0,0,1,1,1V7A1,1,0,0,1,53,8Zm3-4h2V6H56Zm6,3a1,1,0,0,1-2,0V3a1,1,0,0,1,2,0Z"/><text class="cls-7" transform="translate(20.53 26.7) scale(1.33 1)">最<tspan x="0" y="21.48">新</tspan></text></g></g></svg>