<svg xmlns="http://www.w3.org/2000/svg" xmlns:xlink="http://www.w3.org/1999/xlink" viewBox="0 0 28.49 28.98"><defs><style>.cls-1,.cls-44{fill:#fff;}.cls-1{opacity:0;}.cls-2{fill:#fafafd;opacity:0.02;}.cls-3{fill:#f5f6fa;opacity:0.05;}.cls-4{fill:#eff1f8;opacity:0.07;}.cls-5{fill:#eaedf6;opacity:0.1;}.cls-6{fill:#e5e8f4;opacity:0.12;}.cls-7{fill:#e0e3f1;opacity:0.15;}.cls-8{fill:#dadfef;opacity:0.17;}.cls-9{fill:#d5daed;opacity:0.2;}.cls-10{fill:#d0d6eb;opacity:0.22;}.cls-11{fill:#cbd1e8;opacity:0.24;}.cls-12{fill:#c5cce6;opacity:0.27;}.cls-13{fill:#c0c8e4;opacity:0.29;}.cls-14{fill:#bbc3e2;opacity:0.32;}.cls-15{fill:#b6bedf;opacity:0.34;}.cls-16{fill:#b0badd;opacity:0.37;}.cls-17{fill:#abb5db;opacity:0.39;}.cls-18{fill:#a6b1d8;opacity:0.41;}.cls-19{fill:#a1acd6;opacity:0.44;}.cls-20{fill:#9ba7d4;opacity:0.46;}.cls-21{fill:#96a3d2;opacity:0.49;}.cls-22{fill:#919ecf;opacity:0.51;}.cls-23{fill:#8c9acd;opacity:0.54;}.cls-24{fill:#8695cb;opacity:0.56;}.cls-25{fill:#8190c9;opacity:0.59;}.cls-26{fill:#7c8cc6;opacity:0.61;}.cls-27{fill:#7787c4;opacity:0.63;}.cls-28{fill:#7183c2;opacity:0.66;}.cls-29{fill:#6c7ebf;opacity:0.68;}.cls-30{fill:#6779bd;opacity:0.71;}.cls-31{fill:#6275bb;opacity:0.73;}.cls-32{fill:#5c70b9;opacity:0.76;}.cls-33{fill:#576bb6;opacity:0.78;}.cls-34{fill:#5267b4;opacity:0.8;}.cls-35{fill:#4d62b2;opacity:0.83;}.cls-36{fill:#475eb0;opacity:0.85;}.cls-37{fill:#4259ad;opacity:0.88;}.cls-38{fill:#3d54ab;opacity:0.9;}.cls-39{fill:#3850a9;opacity:0.93;}.cls-40{fill:#324ba7;opacity:0.95;}.cls-41{fill:#2d47a4;opacity:0.98;}.cls-42{fill:#2842a2;}.cls-43{fill:#f6f8fb;}.cls-45{fill:#d3daed;}.cls-46{fill:url(#linear-gradient);}.cls-47{fill:url(#linear-gradient-2);}</style><linearGradient id="linear-gradient" x1="7.18" y1="6.23" x2="22.91" y2="6.23" gradientUnits="userSpaceOnUse"><stop offset="0.15" stop-color="#ff9800"/><stop offset="1" stop-color="#ffc107"/></linearGradient><linearGradient id="linear-gradient-2" x1="6.18" y1="16.59" x2="23.94" y2="16.59" xlink:href="#linear-gradient"/></defs><g id="图层_2" data-name="图层 2"><g id="Graphics"><g id="Layer_18" data-name="Layer 18"><ellipse class="cls-1" cx="14.25" cy="20.76" rx="14.26" ry="8.23"/><path class="cls-2" d="M4.35,26.47c5.44,3.14,14.35,3.14,19.79,0s5.44-8.28,0-11.42-14.35-3.14-19.79,0S-1.09,23.33,4.35,26.47Z"/><path class="cls-3" d="M4.55,26.36c5.33,3.08,14.06,3.08,19.39,0s5.33-8.12,0-11.2-14.06-3.08-19.39,0S-.78,23.28,4.55,26.36Z"/><path class="cls-4" d="M4.74,26.24c5.23,3,13.78,3,19,0s5.22-7.95,0-11-13.78-3-19,0S-.48,23.23,4.74,26.24Z"/><ellipse class="cls-5" cx="14.25" cy="20.76" rx="13.16" ry="7.6"/><path class="cls-6" d="M5.13,26c5,2.89,13.22,2.89,18.23,0s5-7.63,0-10.52-13.22-2.9-18.23,0S.12,23.13,5.13,26Z"/><path class="cls-7" d="M5.33,25.91c4.9,2.83,12.93,2.83,17.83,0s4.91-7.47,0-10.3-12.93-2.83-17.83,0S.42,23.08,5.33,25.91Z"/><path class="cls-8" d="M5.52,25.8c4.8,2.77,12.65,2.77,17.45,0s4.8-7.31,0-10.08S10.32,13,5.52,15.72.72,23,5.52,25.8Z"/><path class="cls-9" d="M5.72,25.68c4.69,2.71,12.36,2.71,17.05,0s4.7-7.14,0-9.85-12.36-2.7-17,0S1,23,5.72,25.68Z"/><path class="cls-10" d="M5.91,25.57c4.58,2.65,12.09,2.65,16.67,0s4.58-7,0-9.62S10.49,13.3,5.91,16,1.33,22.92,5.91,25.57Z"/><path class="cls-11" d="M6.1,25.46c4.48,2.58,11.81,2.58,16.29,0s4.47-6.82,0-9.4-11.81-2.59-16.29,0S1.63,22.87,6.1,25.46Z"/><path class="cls-12" d="M6.3,25.35c4.37,2.52,11.52,2.52,15.89,0s4.37-6.66,0-9.18-11.52-2.52-15.89,0S1.93,22.82,6.3,25.35Z"/><path class="cls-13" d="M6.49,25.23a17.16,17.16,0,0,0,15.51,0c4.26-2.46,4.26-6.49,0-8.95a17.22,17.22,0,0,0-15.51,0C2.23,18.74,2.23,22.77,6.49,25.23Z"/><path class="cls-14" d="M6.69,25.12a16.76,16.76,0,0,0,15.11,0c4.16-2.4,4.16-6.32,0-8.72a16.76,16.76,0,0,0-15.11,0C2.53,18.8,2.53,22.72,6.69,25.12Z"/><path class="cls-15" d="M6.88,25a16.33,16.33,0,0,0,14.73,0c4.05-2.34,4.05-6.16,0-8.5a16.33,16.33,0,0,0-14.73,0C2.83,18.85,2.83,22.67,6.88,25Z"/><path class="cls-16" d="M7.08,24.9a15.93,15.93,0,0,0,14.33,0c3.95-2.28,3.95-6,0-8.28a15.87,15.87,0,0,0-14.33,0C3.13,18.9,3.13,22.62,7.08,24.9Z"/><path class="cls-17" d="M7.27,24.78a15.44,15.44,0,0,0,14,0c3.83-2.21,3.83-5.83,0-8a15.5,15.5,0,0,0-13.95,0C3.44,19,3.44,22.57,7.27,24.78Z"/><path class="cls-18" d="M7.47,24.67a15,15,0,0,0,13.55,0c3.73-2.15,3.73-5.67,0-7.83a15,15,0,0,0-13.55,0C3.74,19,3.74,22.52,7.47,24.67Z"/><path class="cls-19" d="M7.66,24.56a14.62,14.62,0,0,0,13.17,0c3.62-2.09,3.62-5.51,0-7.6A14.62,14.62,0,0,0,7.66,17C4,19.05,4,22.47,7.66,24.56Z"/><path class="cls-20" d="M7.85,24.45a14.19,14.19,0,0,0,12.79,0c3.51-2,3.51-5.35,0-7.38a14.19,14.19,0,0,0-12.79,0C4.34,19.1,4.34,22.42,7.85,24.45Z"/><path class="cls-21" d="M8.05,24.34a13.79,13.79,0,0,0,12.39,0c3.41-2,3.41-5.19,0-7.16a13.73,13.73,0,0,0-12.39,0C4.64,19.15,4.64,22.37,8.05,24.34Z"/><path class="cls-22" d="M8.24,24.22a13.3,13.3,0,0,0,12,0c3.3-1.9,3.3-5,0-6.93a13.37,13.37,0,0,0-12,0C4.94,19.2,4.94,22.32,8.24,24.22Z"/><path class="cls-23" d="M8.44,24.11a12.84,12.84,0,0,0,11.61,0c3.2-1.84,3.2-4.86,0-6.7a12.84,12.84,0,0,0-11.61,0C5.24,19.25,5.24,22.27,8.44,24.11Z"/><path class="cls-24" d="M8.63,24a12.48,12.48,0,0,0,11.23,0c3.08-1.78,3.08-4.7,0-6.48a12.48,12.48,0,0,0-11.23,0C5.55,19.3,5.55,22.22,8.63,24Z"/><path class="cls-25" d="M8.83,23.89a12,12,0,0,0,10.83,0c3-1.72,3-4.54,0-6.26a12,12,0,0,0-10.83,0C5.85,19.35,5.85,22.17,8.83,23.89Z"/><path class="cls-26" d="M9,23.77a11.59,11.59,0,0,0,10.45,0c2.87-1.65,2.87-4.37,0-6A11.59,11.59,0,0,0,9,17.74C6.15,19.4,6.15,22.12,9,23.77Z"/><path class="cls-27" d="M9.22,23.66a11.12,11.12,0,0,0,10,0c2.77-1.59,2.77-4.21,0-5.81a11.18,11.18,0,0,0-10,0C6.45,19.45,6.45,22.07,9.22,23.66Z"/><path class="cls-28" d="M9.41,23.55a10.7,10.7,0,0,0,9.67,0c2.66-1.54,2.66-4.05,0-5.58a10.7,10.7,0,0,0-9.67,0C6.75,19.5,6.75,22,9.41,23.55Z"/><path class="cls-29" d="M9.6,23.44a10.34,10.34,0,0,0,9.29,0c2.55-1.48,2.55-3.89,0-5.36a10.34,10.34,0,0,0-9.29,0C7.05,19.55,7.05,22,9.6,23.44Z"/><path class="cls-30" d="M9.8,23.33a9.87,9.87,0,0,0,8.89,0c2.45-1.42,2.45-3.73,0-5.14a9.87,9.87,0,0,0-8.89,0C7.35,19.6,7.35,21.91,9.8,23.33Z"/><path class="cls-31" d="M10,23.21a9.45,9.45,0,0,0,8.51,0c2.34-1.35,2.34-3.56,0-4.91a9.45,9.45,0,0,0-8.51,0C7.65,19.65,7.65,21.86,10,23.21Z"/><path class="cls-32" d="M10.19,23.1a9,9,0,0,0,8.11,0c2.23-1.29,2.23-3.4,0-4.68a9,9,0,0,0-8.11,0C8,19.7,8,21.81,10.19,23.1Z"/><path class="cls-33" d="M10.38,23a8.56,8.56,0,0,0,7.73,0c2.12-1.23,2.12-3.24,0-4.46a8.56,8.56,0,0,0-7.73,0C8.26,19.75,8.26,21.76,10.38,23Z"/><path class="cls-34" d="M10.58,22.88a8.15,8.15,0,0,0,7.33,0c2-1.17,2-3.07,0-4.24a8.15,8.15,0,0,0-7.33,0C8.56,19.81,8.56,21.71,10.58,22.88Z"/><path class="cls-35" d="M10.77,22.76a7.67,7.67,0,0,0,7,0c1.91-1.1,1.91-2.9,0-4a7.73,7.73,0,0,0-6.95,0C8.86,19.86,8.86,21.66,10.77,22.76Z"/><path class="cls-36" d="M11,22.65a7.27,7.27,0,0,0,6.55,0c1.81-1,1.81-2.74,0-3.78a7.2,7.2,0,0,0-6.55,0C9.16,19.91,9.16,21.61,11,22.65Z"/><path class="cls-37" d="M11.16,22.54a6.84,6.84,0,0,0,6.17,0c1.7-1,1.7-2.58,0-3.56a6.84,6.84,0,0,0-6.17,0C9.46,20,9.46,21.56,11.16,22.54Z"/><path class="cls-38" d="M11.35,22.43a6.42,6.42,0,0,0,5.79,0c1.59-.92,1.59-2.42,0-3.34a6.42,6.42,0,0,0-5.79,0C9.76,20,9.76,21.51,11.35,22.43Z"/><path class="cls-39" d="M11.55,22.32a6,6,0,0,0,5.39,0c1.48-.86,1.48-2.26,0-3.12a6,6,0,0,0-5.39,0C10.07,20.06,10.07,21.46,11.55,22.32Z"/><path class="cls-40" d="M11.74,22.2a5.53,5.53,0,0,0,5,0c1.37-.79,1.37-2.09,0-2.89a5.59,5.59,0,0,0-5,0C10.37,20.11,10.37,21.41,11.74,22.2Z"/><path class="cls-41" d="M11.94,22.09a5.13,5.13,0,0,0,4.61,0,1.4,1.4,0,0,0,0-2.66,5.06,5.06,0,0,0-4.61,0A1.4,1.4,0,0,0,11.94,22.09Z"/><path class="cls-42" d="M12.13,22a4.7,4.7,0,0,0,4.23,0,1.29,1.29,0,0,0,0-2.44,4.7,4.7,0,0,0-4.23,0A1.29,1.29,0,0,0,12.13,22Z"/><path class="cls-43" d="M23.94,19.38h0V5.27L6.14,5.14,6.22,20a4.8,4.8,0,0,0,2.52,3,14,14,0,0,0,12.6,0,4.82,4.82,0,0,0,2.53-3Z"/><path class="cls-44" d="M8.74,8.77a14,14,0,0,0,12.6,0c3.47-2,3.47-5.27,0-7.27a14,14,0,0,0-12.6,0C5.28,3.5,5.28,6.77,8.74,8.77Z"/><path class="cls-45" d="M9.41,8.39a12.5,12.5,0,0,0,11.27,0c3.09-1.79,3.09-4.72,0-6.51a12.56,12.56,0,0,0-11.27,0C6.31,3.67,6.31,6.6,9.41,8.39Z"/><path class="cls-46" d="M22.91,5.8A5.78,5.78,0,0,0,21,4.16a13.34,13.34,0,0,0-12,0A5.74,5.74,0,0,0,7.18,5.8,4.34,4.34,0,0,0,9.41,8.39a12.5,12.5,0,0,0,11.27,0A4.41,4.41,0,0,0,22.91,5.8Z"/><path class="cls-47" d="M6.21,17.88a5.8,5.8,0,0,0,2.28,2.18,14.57,14.57,0,0,0,13.12,0,5.68,5.68,0,0,0,2.33-2.28V11.55a5.79,5.79,0,0,1-2.33,2.27,14.57,14.57,0,0,1-13.12,0,5.72,5.72,0,0,1-2.31-2.23Z"/></g></g></g></svg>