<?xml version="1.0" encoding="utf-8"?>
<!-- Generator: Adobe Illustrator 26.2.1, SVG Export Plug-In . SVG Version: 6.00 Build 0)  -->
<svg version="1.1" id="图层_1" xmlns="http://www.w3.org/2000/svg" xmlns:xlink="http://www.w3.org/1999/xlink" x="0px" y="0px"
	 viewBox="0 0 28.5 29" style="enable-background:new 0 0 28.5 29;" xml:space="preserve">
<style type="text/css">
	.st0{fill:#FFFFFF;fill-opacity:0;}
	.st1{opacity:2.000000e-02;fill:#FAFAFD;enable-background:new    ;}
	.st2{opacity:5.000000e-02;fill:#F5F6FA;enable-background:new    ;}
	.st3{opacity:7.000000e-02;fill:#EFF1F8;enable-background:new    ;}
	.st4{opacity:0.1;fill:#EAEDF6;enable-background:new    ;}
	.st5{opacity:0.12;fill:#E5E8F4;enable-background:new    ;}
	.st6{opacity:0.15;fill:#E0E3F1;enable-background:new    ;}
	.st7{opacity:0.17;fill:#DADFEF;enable-background:new    ;}
	.st8{opacity:0.2;fill:#D5DAED;enable-background:new    ;}
	.st9{opacity:0.22;fill:#D0D6EB;enable-background:new    ;}
	.st10{opacity:0.24;fill:#CBD1E8;enable-background:new    ;}
	.st11{opacity:0.27;fill:#C5CCE6;enable-background:new    ;}
	.st12{opacity:0.29;fill:#C0C8E4;enable-background:new    ;}
	.st13{opacity:0.32;fill:#BBC3E2;enable-background:new    ;}
	.st14{opacity:0.34;fill:#B6BEDF;enable-background:new    ;}
	.st15{opacity:0.37;fill:#B0BADD;enable-background:new    ;}
	.st16{opacity:0.39;fill:#ABB5DB;enable-background:new    ;}
	.st17{opacity:0.41;fill:#A6B1D8;enable-background:new    ;}
	.st18{opacity:0.44;fill:#A1ACD6;enable-background:new    ;}
	.st19{opacity:0.46;fill:#9BA7D4;enable-background:new    ;}
	.st20{opacity:0.49;fill:#96A3D2;enable-background:new    ;}
	.st21{opacity:0.51;fill:#919ECF;enable-background:new    ;}
	.st22{opacity:0.54;fill:#8C9ACD;enable-background:new    ;}
	.st23{opacity:0.56;fill:#8695CB;enable-background:new    ;}
	.st24{opacity:0.59;fill:#8190C9;enable-background:new    ;}
	.st25{opacity:0.61;fill:#7C8CC6;enable-background:new    ;}
	.st26{opacity:0.63;fill:#7787C4;enable-background:new    ;}
	.st27{opacity:0.66;fill:#7183C2;enable-background:new    ;}
	.st28{opacity:0.68;fill:#6C7EBF;enable-background:new    ;}
	.st29{opacity:0.71;fill:#6779BD;enable-background:new    ;}
	.st30{opacity:0.73;fill:#6275BB;enable-background:new    ;}
	.st31{opacity:0.76;fill:#5C70B9;enable-background:new    ;}
	.st32{opacity:0.78;fill:#576BB6;enable-background:new    ;}
	.st33{opacity:0.8;fill:#5267B4;enable-background:new    ;}
	.st34{opacity:0.83;fill:#4D62B2;enable-background:new    ;}
	.st35{opacity:0.85;fill:#475EB0;enable-background:new    ;}
	.st36{opacity:0.88;fill:#4259AD;enable-background:new    ;}
	.st37{opacity:0.9;fill:#3D54AB;enable-background:new    ;}
	.st38{opacity:0.93;fill:#3850A9;enable-background:new    ;}
	.st39{opacity:0.95;fill:#324BA7;enable-background:new    ;}
	.st40{opacity:0.98;fill:#2D47A4;enable-background:new    ;}
	.st41{fill:#2842A2;}
	.st42{fill:#F6F8FB;}
	.st43{fill:#FFFFFF;}
	.st44{fill:#D3DAED;}
	.st45{fill:url(#SVGID_1_);}
	.st46{fill:url(#SVGID_00000076566060565903293800000014459736440380949422_);}
	.st47{fill-rule:evenodd;clip-rule:evenodd;fill:#FFFFFF;}
	.st48{enable-background:new    ;}
	.st49{clip-path:url(#SVGID_00000030444515135729852060000004409435566708636544_);}
</style>
<g id="图层_2_00000070804051611378110270000012975732464536383137_">
	<g id="Graphics">
		<g id="Layer_18">
			<ellipse class="st0" cx="14.2" cy="20.8" rx="14.3" ry="8.2"/>
			<path class="st1" d="M4.3,26.5c5.4,3.1,14.4,3.1,19.8,0s5.4-8.3,0-11.4S9.8,11.9,4.4,15S-1.1,23.3,4.3,26.5z"/>
			<path class="st2" d="M4.6,26.4c5.3,3.1,14.1,3.1,19.4,0s5.3-8.1,0-11.2s-14.1-3.1-19.4,0S-0.8,23.3,4.6,26.4z"/>
			<path class="st3" d="M4.7,26.2c5.2,3,13.8,3,19,0s5.2-7.9,0-11s-13.8-3-19,0S-0.5,23.2,4.7,26.2z"/>
			<ellipse class="st4" cx="14.2" cy="20.8" rx="13.2" ry="7.6"/>
			<path class="st5" d="M5.1,26c5,2.9,13.2,2.9,18.2,0s5-7.6,0-10.5s-13.2-2.9-18.2,0S0.1,23.1,5.1,26z"/>
			<path class="st6" d="M5.3,25.9c4.9,2.8,12.9,2.8,17.8,0s4.9-7.5,0-10.3s-12.9-2.8-17.8,0S0.4,23.1,5.3,25.9z"/>
			<path class="st7" d="M5.5,25.8c4.8,2.8,12.6,2.8,17.5,0s4.8-7.3,0-10.1s-12.7-2.7-17.5,0S0.7,23,5.5,25.8z"/>
			<path class="st8" d="M5.7,25.7c4.7,2.7,12.4,2.7,17,0s4.7-7.1,0-9.9s-12.4-2.7-17,0S1,23,5.7,25.7z"/>
			<path class="st9" d="M5.9,25.6c4.6,2.6,12.1,2.6,16.7,0s4.6-7,0-9.6s-12.1-2.7-16.7,0S1.3,22.9,5.9,25.6z"/>
			<path class="st10" d="M6.1,25.5c4.5,2.6,11.8,2.6,16.3,0s4.5-6.8,0-9.4s-11.8-2.6-16.3,0S1.6,22.9,6.1,25.5z"/>
			<path class="st11" d="M6.3,25.4c4.4,2.5,11.5,2.5,15.9,0s4.4-6.7,0-9.2s-11.5-2.5-15.9,0S1.9,22.8,6.3,25.4z"/>
			<path class="st12" d="M6.5,25.2c4.9,2.5,10.6,2.5,15.5,0c4.3-2.5,4.3-6.5,0-9c-4.9-2.5-10.6-2.5-15.5,0
				C2.2,18.7,2.2,22.8,6.5,25.2z"/>
			<path class="st13" d="M6.7,25.1c4.8,2.4,10.4,2.4,15.1,0c4.2-2.4,4.2-6.3,0-8.7C17,14,11.4,14,6.7,16.4
				C2.5,18.8,2.5,22.7,6.7,25.1z"/>
			<path class="st14" d="M6.9,25c4.6,2.3,10.1,2.3,14.7,0c4-2.3,4-6.2,0-8.5c-4.6-2.3-10.1-2.3-14.7,0C2.8,18.9,2.8,22.7,6.9,25z"/>
			<path class="st15" d="M7.1,24.9c4.5,2.3,9.8,2.3,14.3,0c4-2.3,4-6,0-8.3c-4.5-2.3-9.8-2.3-14.3,0C3.1,18.9,3.1,22.6,7.1,24.9z"/>
			<path class="st16" d="M7.3,24.8c4.4,2.2,9.6,2.2,14,0c3.8-2.2,3.8-5.8,0-8c-4.4-2.2-9.6-2.2-13.9,0C3.4,19,3.4,22.6,7.3,24.8z"/>
			<path class="st17" d="M7.5,24.7c4.3,2.2,9.3,2.2,13.6,0c3.7-2.1,3.7-5.7,0-7.8c-4.3-2.2-9.3-2.2-13.6,0C3.7,19,3.7,22.5,7.5,24.7
				z"/>
			<path class="st18" d="M7.7,24.6c4.1,2.1,9,2.1,13.2,0c3.6-2.1,3.6-5.5,0-7.6c-4.1-2.1-9-2.1-13.2,0C4,19,4,22.5,7.7,24.6z"/>
			<path class="st19" d="M7.8,24.5c4,2,8.8,2,12.8,0c3.5-2,3.5-5.4,0-7.4c-4-2-8.8-2-12.8,0C4.3,19.1,4.3,22.4,7.8,24.5z"/>
			<path class="st20" d="M8.1,24.3c3.9,2,8.5,2,12.4,0c3.4-2,3.4-5.2,0-7.2c-3.9-2-8.5-2-12.4,0C4.6,19.1,4.6,22.4,8.1,24.3z"/>
			<path class="st21" d="M8.2,24.2c3.8,1.9,8.2,1.9,12,0c3.3-1.9,3.3-5,0-6.9c-3.8-1.9-8.2-1.9-12,0C4.9,19.2,4.9,22.3,8.2,24.2z"/>
			<path class="st22" d="M8.4,24.1c3.6,1.8,8,1.8,11.6,0c3.2-1.8,3.2-4.9,0-6.7c-3.6-1.8-8-1.8-11.6,0C5.2,19.2,5.2,22.3,8.4,24.1z"
				/>
			<path class="st23" d="M8.6,24c3.5,1.8,7.7,1.8,11.2,0c3.1-1.8,3.1-4.7,0-6.5c-3.5-1.8-7.7-1.8-11.2,0C5.6,19.3,5.6,22.2,8.6,24z"
				/>
			<path class="st24" d="M8.8,23.9c3.4,1.7,7.4,1.7,10.8,0c3-1.7,3-4.5,0-6.3c-3.4-1.7-7.4-1.7-10.8,0C5.8,19.4,5.8,22.2,8.8,23.9z"
				/>
			<path class="st25" d="M9,23.8c3.3,1.7,7.2,1.7,10.5,0c2.9-1.6,2.9-4.4,0-6c-3.3-1.7-7.2-1.7-10.5,0C6.2,19.4,6.2,22.1,9,23.8z"/>
			<path class="st26" d="M9.2,23.7c3.1,1.6,6.9,1.6,10,0c2.8-1.6,2.8-4.2,0-5.8c-3.1-1.6-6.9-1.6-10,0C6.4,19.5,6.4,22.1,9.2,23.7z"
				/>
			<path class="st27" d="M9.4,23.5c3,1.5,6.6,1.5,9.7,0c2.7-1.5,2.7-4,0-5.6c-3-1.5-6.6-1.5-9.7,0C6.8,19.5,6.8,22,9.4,23.5z"/>
			<path class="st28" d="M9.6,23.4c2.9,1.5,6.4,1.5,9.3,0c2.5-1.5,2.5-3.9,0-5.4c-2.9-1.5-6.4-1.5-9.3,0C7.1,19.5,7.1,22,9.6,23.4z"
				/>
			<path class="st29" d="M9.8,23.3c2.8,1.4,6.1,1.4,8.9,0c2.5-1.4,2.5-3.7,0-5.1c-2.8-1.4-6.1-1.4-8.9,0C7.3,19.6,7.3,21.9,9.8,23.3
				z"/>
			<path class="st30" d="M10,23.2c2.7,1.3,5.8,1.3,8.5,0c2.3-1.4,2.3-3.6,0-4.9c-2.7-1.3-5.8-1.3-8.5,0C7.7,19.6,7.7,21.9,10,23.2z"
				/>
			<path class="st31" d="M10.2,23.1c2.6,1.3,5.6,1.3,8.1,0c2.2-1.3,2.2-3.4,0-4.7c-2.6-1.3-5.6-1.3-8.1,0C8,19.7,8,21.8,10.2,23.1z"
				/>
			<path class="st32" d="M10.4,23c2.4,1.2,5.3,1.2,7.7,0c2.1-1.2,2.1-3.2,0-4.5c-2.4-1.2-5.3-1.2-7.7,0C8.3,19.8,8.3,21.8,10.4,23z"
				/>
			<path class="st33" d="M10.6,22.9c2.3,1.2,5,1.2,7.3,0c2-1.2,2-3.1,0-4.2c-2.3-1.2-5-1.2-7.3,0C8.6,19.8,8.6,21.7,10.6,22.9z"/>
			<path class="st34" d="M10.8,22.8c2.2,1.1,4.8,1.1,7,0c1.9-1.1,1.9-2.9,0-4c-2.2-1.1-4.8-1.1-6.9,0C8.9,19.9,8.9,21.7,10.8,22.8z"
				/>
			<path class="st35" d="M11,22.6c2.1,1,4.5,1,6.5,0c1.8-1,1.8-2.7,0-3.8c-2.1-1.1-4.5-1.1-6.6,0C9.2,19.9,9.2,21.6,11,22.6z"/>
			<path class="st36" d="M11.2,22.5c1.9,1,4.2,1,6.2,0c1.7-1,1.7-2.6,0-3.6c-1.9-1-4.2-1-6.2,0C9.5,20,9.5,21.6,11.2,22.5z"/>
			<path class="st37" d="M11.4,22.4c1.8,0.9,4,0.9,5.8,0c1.6-0.9,1.6-2.4,0-3.3c-1.8-0.9-4-0.9-5.8,0C9.8,20,9.8,21.5,11.4,22.4z"/>
			<path class="st38" d="M11.6,22.3c1.7,0.9,3.7,0.9,5.4,0c1.5-0.9,1.5-2.3,0-3.1c-1.7-0.9-3.7-0.9-5.4,0
				C10.1,20.1,10.1,21.5,11.6,22.3z"/>
			<path class="st39" d="M11.7,22.2c1.6,0.8,3.4,0.8,5,0c1.4-0.8,1.4-2.1,0-2.9c-1.6-0.8-3.4-0.8-5,0C10.4,20.1,10.4,21.4,11.7,22.2
				z"/>
			<path class="st40" d="M11.9,22.1c1.5,0.7,3.2,0.7,4.6,0c0.7-0.2,1.1-1,0.9-1.8c-0.1-0.4-0.5-0.8-0.9-0.9c-1.4-0.7-3.2-0.7-4.6,0
				c-1,0-1.8,0.4-1.8,1.3C10.2,21.7,11,22.5,11.9,22.1z"/>
			<path class="st41" d="M12.1,22c1.3,0.7,2.9,0.7,4.2,0c0.7-0.2,1-1,0.8-1.6c-0.1-0.4-0.4-0.7-0.8-0.8c-1.3-0.7-2.9-0.7-4.2,0
				c-0.6,0.3-0.9,1.1-0.6,1.8C11.7,21.6,11.9,21.8,12.1,22z"/>
			<path class="st42" d="M23.9,19.4L23.9,19.4V5.3L6.1,5.1L6.2,20c0.4,1.3,1.3,2.4,2.5,3c4,2,8.6,2,12.6,0c1.2-0.6,2.2-1.7,2.5-3
				L23.9,19.4z"/>
			<path class="st43" d="M8.7,8.8c4,2,8.6,2,12.6,0c3.5-2,3.5-5.3,0-7.3c-4-2-8.6-2-12.6,0C5.3,3.5,5.3,6.8,8.7,8.8z"/>
			<path class="st44" d="M9.4,8.4c3.5,1.8,7.7,1.8,11.3,0c3.1-1.8,3.1-4.7,0-6.5c-3.5-1.8-7.7-1.8-11.3,0C6.3,3.7,6.3,6.6,9.4,8.4z"
				/>
			
				<linearGradient id="SVGID_1_" gradientUnits="userSpaceOnUse" x1="7.18" y1="-44.2625" x2="22.91" y2="-44.2625" gradientTransform="matrix(1 0 0 -1 0 -38)">
				<stop  offset="0.15" style="stop-color:#FF9800"/>
				<stop  offset="1" style="stop-color:#FFC107"/>
			</linearGradient>
			<path class="st45" d="M22.9,5.8c-0.5-0.7-1.2-1.2-1.9-1.6c-3.8-1.9-8.2-1.9-12,0c-0.7,0.4-1.3,1-1.8,1.6c0.4,1.1,1.2,2.1,2.2,2.6
				c3.5,1.8,7.7,1.8,11.3,0C21.7,7.9,22.5,6.9,22.9,5.8z"/>
			
				<linearGradient id="SVGID_00000155129988392902842310000016285412480033179837_" gradientUnits="userSpaceOnUse" x1="6.18" y1="-54.6375" x2="23.94" y2="-54.6375" gradientTransform="matrix(1 0 0 -1 0 -38)">
				<stop  offset="0.15" style="stop-color:#FF9800"/>
				<stop  offset="1" style="stop-color:#FFC107"/>
			</linearGradient>
			<path style="fill:url(#SVGID_00000155129988392902842310000016285412480033179837_);" d="M6.2,17.9c0.5,0.9,1.3,1.7,2.3,2.2
				c4.1,2.1,9,2.1,13.1,0c1-0.5,1.8-1.3,2.3-2.3v-6.2c-0.5,1-1.4,1.8-2.3,2.3c-4.1,2.1-9,2.1-13.1,0c-1-0.5-1.8-1.3-2.3-2.2V17.9z"
				/>
		</g>
	</g>
</g>
<path id="Amazon-Simple-Storage-Service-Glacier_Icon_32_Squid" class="st47" d="M15.5,9.1v0.3h-0.3V9.1l-0.4-0.4l-0.1,0.4l0.2,0.3
	l-0.3,0.1l-0.2-0.2L14,9.4l-0.1-0.2L14.4,9l0.1-0.4l-0.5,0.1L13.8,9l-0.2,0l0.2-0.2l-0.4-0.1l0.1-0.2l0.4,0.2l0.5-0.1l-0.4-0.3h-0.5
	V8.1h0.4V7.8h0.3v0.3l0.4,0.3L14.8,8l-0.2-0.3h0.2L15,7.9l0.4-0.1L15.5,8l-0.4,0.2L15,8.6l0.5-0.1l0.3-0.3l0.2,0.1l-0.2,0.1l0.4,0.1
	l-0.1,0.2l-0.4-0.2l-0.5,0.1l0.4,0.3h0.5v0.2H15.5z M16.8,7.8L17,7.6c0.2,0.4,0.1,0.5,0.1,0.5S17.1,8.1,16.8,7.8L16.8,7.8z
	 M17.5,4.4c1.3,0.9,2,1.8,1.7,2l0,0l0,0c-0.3,0.1-1.6-0.3-2.9-1.2c-1.3-0.9-2-1.7-1.8-1.9l0,0C14.6,3.1,16.1,3.5,17.5,4.4L17.5,4.4z
	 M15.2,5.7C15.2,5.7,15.3,5.7,15.2,5.7C15.3,5.7,15.3,5.8,15.2,5.7C15.3,5.8,15.2,5.8,15.2,5.7L15.2,5.7z M17.4,7.5l1.9-0.9l0,0h0.1
	l0,0c0.5-0.4-0.5-1.6-1.7-2.4s-2.9-1.4-3.5-1.1l0,0l0,0l-3.5,3c-0.5,0.3,0.6,1.2,1.4,1.7c0.3,0.2,0.5,0.3,0.8,0.5L13,8.2
	c-0.3-0.1-0.6-0.3-0.8-0.5c-1.1-0.7-1.5-1.4-1.4-1.5l3.3-2.8l0,0c0,0,0,0,0,0.1c0,0,0,0,0,0.1c0,0,0,0,0,0.1l0,0l0.1,0.1l0,0
	c0,0,0,0.1,0.1,0.1l0,0L14.4,4l0,0c0.1,0.1,0.2,0.2,0.3,0.3l0,0l0.1,0.1l0,0c0.1,0.1,0.3,0.2,0.4,0.3l0,0c0,0,0.1,0.1,0.2,0.1l0,0
	c0.1,0.1,0.2,0.1,0.3,0.2c0.1,0.1,0.2,0.1,0.3,0.2l0,0c0.1,0,0.1,0.1,0.2,0.1l0,0c0.1,0.1,0.3,0.2,0.4,0.2c0,0,0.1,0,0.1,0.1h0.1
	c0.1,0,0.1,0.1,0.2,0.1l0,0c0.5,0.2,1,0.4,1.4,0.5l-2.1,1c-0.4-0.5-0.9-1.3-1.1-1.7l0,0c0.1-0.1,0.1-0.2,0-0.3
	c-0.1-0.1-0.4-0.1-0.5,0s-0.1,0.2,0,0.3C15.1,6,15.2,6,15.2,6c0.2,0.4,0.7,1.2,1.1,1.7l-0.2,0.1l0.2,0.1l0.1-0.1
	c0.2,0.2,0.3,0.3,0.4,0.3c0.1,0.1,0.2,0.1,0.3,0.1c0.1,0,0.2,0,0.2-0.1C17.6,8.1,17.6,7.8,17.4,7.5L17.4,7.5z"/>
<g class="st48">
	<g>
		<defs>
			<path id="SVGID_00000022537129523250373210000009786909122147158164_" d="M6.2,17.3v-7.2c0,0.8,0.3,1.5,0.9,2.3
				c2.3,2.6,7.8,3.6,12.4,2.4c3.3-0.9,5.1-2.7,5.1-4.6v7.2c0,1.9-1.9,3.7-5.1,4.6c-4.6,1.2-10.1,0.2-12.3-2.4
				C6.4,18.9,6.2,18.1,6.2,17.3z"/>
		</defs>
		<clipPath id="SVGID_00000120549458102182952020000013338962136094377349_">
			<use xlink:href="#SVGID_00000022537129523250373210000009786909122147158164_"  style="overflow:visible;"/>
		</clipPath>
		<g style="clip-path:url(#SVGID_00000120549458102182952020000013338962136094377349_);">
			<path class="st43" d="M9.5,19.7c0,0.1-0.1,0.3-0.4,0.2c-0.1-0.1-0.3-0.1-0.4-0.2c-0.1-0.1-0.1-0.1-0.2-0.2c0-0.1-0.1-0.2-0.1-0.3
				c0-0.2,0-0.2,0.1-0.2c0.1,0,0.7,0.3,0.8,0.3l0.2,0.2C9.4,19.6,9.5,19.6,9.5,19.7 M8.8,17.7c-0.2-0.3-0.2-0.3-0.2-0.5
				s0-0.8,0.1-1.1L8.8,16C9,16.3,9,16.3,9,16.5s0.1,0.9,0,1.1L8.8,17.7 M9.8,19.5c0-0.7-0.5-0.9-0.9-1.1c-0.1,0-0.2-0.1-0.3-0.1
				l-0.2-0.2l-0.1-0.2l0.1-0.2h0.1c0.3,0.1,1.2,0.5,1-0.9c0-0.1-0.1-0.2-0.1-0.3c0.1,0,0.3,0.1,0.4,0.1v-0.3
				c-0.2-0.1-0.5-0.2-0.7-0.2c-0.3-0.2-0.3-0.3-0.5-0.3c-0.7-0.2-0.8,0.7-0.5,1.3c0.1,0.2,0.2,0.4,0.3,0.5c-0.3,0.1-0.3,0.1-0.4,0.5
				c0,0.3,0.1,0.4,0.2,0.7c-0.2,0-0.2,0-0.3,0.3c0,0.1,0.1,0.2,0.1,0.3c0,0,0,0,0,0.1c0.4,0.2,0.9,0.4,1.4,0.6l0,0
				C9.7,20,9.8,19.8,9.8,19.5"/>
			<path class="st43" d="M10.9,15.4c-0.3-0.1-0.6-0.2-0.9-0.3v0.1c0.3,0.2,0.3,0.2,0.3,0.5v2.9c0,0.2,0,0.3,0,0.3h-0.2V19
				c0.4,0.1,0.8,0.2,1.2,0.3v-0.1c-0.3-0.2-0.3-0.2-0.3-0.5L10.9,15.4"/>
			<path class="st43" d="M12.5,19.2l-0.2-0.1l-0.1-0.2c0.1-0.3,0.1-0.3,0.1-0.4c0.1-0.2,0.3-0.3,0.4-0.3v0.9L12.5,19.2 M12.6,16.9
				c-0.5-0.1-1.1,0.1-1.1,0.6c0,0.1,0.1,0.2,0.1,0.3l0.3,0.2l0.3-0.1l0.1-0.2l-0.1-0.3l-0.1-0.2l0.1-0.1L12.6,16.9l0.1,0.2
				c0.1,0.2,0.1,0.2,0.1,0.5v0.3c-0.9,0.3-1.1,0.5-1.2,0.6c-0.1,0.2-0.2,0.6,0.1,0.9c0.2,0.2,0.5,0.3,1.1-0.2c0,0.3,0.2,0.5,0.5,0.5
				c0.4-0.1,0.4-0.1,0.6-0.4l-0.1,0.1l-0.1,0.1h-0.1v-0.1v-0.2v-1.1C13.5,17.6,13.5,17,12.6,16.9"/>
			<path class="st43" d="M15.4,17.1c-1.2,0-1.5,1.6-1,2.4c0.5,0.7,1.4,0.7,1.9-0.2l-0.1-0.1c-0.1,0.1-0.2,0.2-0.3,0.3
				c-0.3,0.1-0.6,0.2-0.9-0.4c-0.2-0.5-0.3-1.2-0.1-1.6c0,0,0,0,0-0.1l0.2-0.1l0.2,0.1c0,0.2,0.1,0.3,0.1,0.5c0,0.1,0.1,0.1,0.1,0.2
				l0.3,0.1l0.3-0.1c0.1-0.3,0.1-0.4,0-0.6C16.1,17.2,15.8,17.1,15.4,17.1"/>
			<path class="st43" d="M17.8,17c-0.4,0-0.7,0.1-1.1,0.1v0.1c0.3,0.1,0.3,0.1,0.3,0.4v1.6c0,0.2,0,0.3-0.1,0.4l-0.3,0.1v0.1
				c0.5,0,0.9-0.1,1.4-0.1v-0.1c-0.3-0.1-0.3-0.1-0.3-0.4L17.8,17 M17.4,15.7l-0.3,0.2c0,0.1-0.1,0.2-0.1,0.3c0,0.1,0.1,0.2,0.1,0.3
				l0.3,0.1l0.3-0.2c0-0.1,0.1-0.2,0.1-0.3c0-0.1-0.1-0.2-0.1-0.3L17.4,15.7"/>
			<path class="st43" d="M19.1,17.9v-0.1c0-0.3,0.1-0.5,0.2-0.8l0.2-0.2h0.1c0.1,0.2,0.1,0.2,0.2,0.3c0,0.1,0,0.5,0,0.6
				c-0.1,0-0.2,0-0.3,0.1C19.4,17.9,19.2,17.9,19.1,17.9 M19.6,16.7c-1.2,0.3-1.5,2-0.8,2.7c0.2,0.3,1.2,0.7,1.8-0.8h-0.1
				c-0.1,0.2-0.2,0.3-0.3,0.4c-0.3,0.2-0.4,0.3-0.7,0.1c-0.3-0.2-0.3-0.7-0.3-0.9c0.1,0,0.3-0.1,0.4-0.1c0.3-0.1,0.6-0.1,0.9-0.2
				C20.5,16.6,19.8,16.6,19.6,16.7"/>
			<path class="st43" d="M22.2,15.8c-0.2,0.1-0.4,0.5-0.6,1v-0.6c-0.3,0.1-0.6,0.2-0.9,0.3v0.1H21c0.1,0.1,0.1,0.1,0.1,0.4v1.5
				c0,0.3,0,0.4-0.1,0.5l-0.2,0.2v0.1c0.4-0.1,0.8-0.2,1.1-0.4v-0.1h-0.2l-0.1-0.1v-0.2v-0.2v-0.6c0-0.2,0-0.4,0.1-0.7
				c0-0.1,0.1-0.2,0.1-0.3l0.1-0.1l0,0l0.1,0.1h0.2l0.1-0.2c0-0.1,0-0.2,0.1-0.3C22.4,16.1,22.4,16,22.2,15.8L22.2,15.8"/>
		</g>
	</g>
</g>
</svg>
