<?xml version="1.0" encoding="utf-8"?>
<!-- Generator: Adobe Illustrator 26.2.1, SVG Export Plug-In . SVG Version: 6.00 Build 0)  -->
<svg version="1.1" id="图层_1" xmlns="http://www.w3.org/2000/svg" xmlns:xlink="http://www.w3.org/1999/xlink" x="0px" y="0px"
	 viewBox="0 0 120.4 123.7" style="enable-background:new 0 0 120.4 123.7;" xml:space="preserve">
<style type="text/css">
	.st0{fill:url(#SVGID_1_);}
	.st1{fill:url(#SVGID_00000176745887253044182520000014398332996276976003_);}
	.st2{fill:url(#SVGID_00000001638230357186769430000007942062995347424954_);}
	.st3{fill:url(#SVGID_00000109735176794621371030000009178061153902723496_);}
	.st4{fill:#FFFFFF;}
</style>
<linearGradient id="SVGID_1_" gradientUnits="userSpaceOnUse" x1="11.425" y1="86.92" x2="109.025" y2="86.92" gradientTransform="matrix(1 0 0 -1 0 116.48)">
	<stop  offset="0.4" style="stop-color:#FFF1BF"/>
	<stop  offset="1" style="stop-color:#FFC107"/>
</linearGradient>
<polygon class="st0" points="11.4,29.6 60.2,1.4 109,29.6 60.2,57.7 "/>
<linearGradient id="SVGID_00000095329936316329200760000016272002456821832082_" gradientUnits="userSpaceOnUse" x1="11.425" y1="44.52" x2="60.225" y2="44.52" gradientTransform="matrix(1 0 0 -1 0 116.48)">
	<stop  offset="0.4" style="stop-color:#FFF1BF"/>
	<stop  offset="1" style="stop-color:#FFC107"/>
</linearGradient>
<polygon style="fill:url(#SVGID_00000095329936316329200760000016272002456821832082_);" points="11.4,29.6 11.4,86.1 60.2,114.3 
	60.2,57.7 "/>
<linearGradient id="SVGID_00000151524656459092713340000017964896239008760751_" gradientUnits="userSpaceOnUse" x1="13.695" y1="75.67" x2="25.975" y2="75.67" gradientTransform="matrix(1 0 0 -1 0 116.48)">
	<stop  offset="0" style="stop-color:#FF9800"/>
	<stop  offset="1" style="stop-color:#FFC107"/>
</linearGradient>
<polygon style="fill:url(#SVGID_00000151524656459092713340000017964896239008760751_);" points="13.7,34.6 13.7,39.9 26,47 
	26,41.7 "/>
<linearGradient id="SVGID_00000122704929808226575430000000189090274935984267_" gradientUnits="userSpaceOnUse" x1="60.225" y1="44.52" x2="109.025" y2="44.52" gradientTransform="matrix(1 0 0 -1 0 116.48)">
	<stop  offset="0" style="stop-color:#FF9800"/>
	<stop  offset="1" style="stop-color:#FFC107"/>
</linearGradient>
<polygon style="fill:url(#SVGID_00000122704929808226575430000000189090274935984267_);" points="60.2,114.3 109,86.1 109,29.6 
	60.2,57.7 "/>
<polygon class="st4" points="30.9,97.4 30.9,40.8 40.7,46.5 40.7,103 "/>
<polygon class="st4" points="30.9,40.8 79.7,12.8 89.8,18.3 40.7,46.5 "/>
</svg>
