<?xml version="1.0" encoding="utf-8"?>
<!-- Generator: Adobe Illustrator 26.2.1, SVG Export Plug-In . SVG Version: 6.00 Build 0)  -->
<svg version="1.1" id="图层_1" xmlns="http://www.w3.org/2000/svg" xmlns:xlink="http://www.w3.org/1999/xlink" x="0px" y="0px"
	 viewBox="0 0 56.1 52.9" style="enable-background:new 0 0 56.1 52.9;" xml:space="preserve">
<style type="text/css">
	.st0{opacity:0.52;}
	.st1{fill:#FFFFFF;fill-opacity:0;}
	.st2{opacity:2.000000e-02;fill:#FBFBFB;enable-background:new    ;}
	.st3{opacity:5.000000e-02;fill:#F6F6F8;enable-background:new    ;}
	.st4{opacity:7.000000e-02;fill:#F2F2F4;enable-background:new    ;}
	.st5{opacity:0.1;fill:#EDEDF0;enable-background:new    ;}
	.st6{opacity:0.12;fill:#E9E9ED;enable-background:new    ;}
	.st7{opacity:0.15;fill:#E4E4E9;enable-background:new    ;}
	.st8{opacity:0.17;fill:#E0E0E6;enable-background:new    ;}
	.st9{opacity:0.2;fill:#DBDBE2;enable-background:new    ;}
	.st10{opacity:0.22;fill:#D7D7DE;enable-background:new    ;}
	.st11{opacity:0.24;fill:#D2D2DB;enable-background:new    ;}
	.st12{opacity:0.27;fill:#CECED7;enable-background:new    ;}
	.st13{opacity:0.29;fill:#C9C9D3;enable-background:new    ;}
	.st14{opacity:0.32;fill:#C5C5D0;enable-background:new    ;}
	.st15{opacity:0.34;fill:#C1C1CC;enable-background:new    ;}
	.st16{opacity:0.37;fill:#BCBCC8;enable-background:new    ;}
	.st17{opacity:0.39;fill:#B8B8C5;enable-background:new    ;}
	.st18{opacity:0.41;fill:#B3B3C1;enable-background:new    ;}
	.st19{opacity:0.44;fill:#AFAFBE;enable-background:new    ;}
	.st20{opacity:0.46;fill:#AAAABA;enable-background:new    ;}
	.st21{opacity:0.49;fill:#A6A6B6;enable-background:new    ;}
	.st22{opacity:0.51;fill:#A1A1B3;enable-background:new    ;}
	.st23{opacity:0.54;fill:#9D9DAF;enable-background:new    ;}
	.st24{opacity:0.56;fill:#9898AB;enable-background:new    ;}
	.st25{opacity:0.59;fill:#9494A8;enable-background:new    ;}
	.st26{opacity:0.61;fill:#8F8FA4;enable-background:new    ;}
	.st27{opacity:0.63;fill:#8B8BA1;enable-background:new    ;}
	.st28{opacity:0.66;fill:#86869D;enable-background:new    ;}
	.st29{opacity:0.68;fill:#828299;enable-background:new    ;}
	.st30{opacity:0.71;fill:#7E7E96;enable-background:new    ;}
	.st31{opacity:0.73;fill:#797992;enable-background:new    ;}
	.st32{opacity:0.76;fill:#75758E;enable-background:new    ;}
	.st33{opacity:0.78;fill:#70708B;enable-background:new    ;}
	.st34{opacity:0.8;fill:#6C6C87;enable-background:new    ;}
	.st35{opacity:0.83;fill:#676783;enable-background:new    ;}
	.st36{opacity:0.85;fill:#636380;enable-background:new    ;}
	.st37{opacity:0.88;fill:#5E5E7C;enable-background:new    ;}
	.st38{opacity:0.9;fill:#5A5A79;enable-background:new    ;}
	.st39{opacity:0.93;fill:#555575;enable-background:new    ;}
	.st40{opacity:0.95;fill:#515171;enable-background:new    ;}
	.st41{opacity:0.98;fill:#4C4C6E;enable-background:new    ;}
	.st42{fill:#48486A;}
	.st43{fill:url(#SVGID_1_);}
	.st44{fill:url(#SVGID_00000134949639415031331430000014501591006635209404_);}
	.st45{fill:url(#SVGID_00000093160306204416275860000008640875183795796894_);}
	.st46{fill:url(#SVGID_00000044892024093304338010000001591339590848498842_);}
	.st47{fill:#D3F2B1;}
	.st48{fill:#B8BCFC;}
</style>
<g class="st0">
	<path class="st1" d="M29.2,20.7c-0.7-0.4-1.5-0.4-2.2,0L0.5,36c-0.4,0.1-0.5,0.5-0.4,0.9c0.1,0.2,0.2,0.4,0.4,0.4L27,52.6
		c0.7,0.3,1.5,0.3,2.2,0l26.4-15.3c0.6-0.4,0.6-0.9,0-1.3L29.2,20.7z"/>
	<path class="st2" d="M29.2,20.9c-0.7-0.3-1.5-0.3-2.2,0L0.7,36c-0.4,0.1-0.5,0.5-0.4,0.9c0.1,0.2,0.2,0.4,0.4,0.4L27,52.5
		c0.7,0.4,1.5,0.4,2.2,0l26.2-15.2c0.4-0.1,0.5-0.5,0.4-0.9c-0.1-0.2-0.2-0.3-0.4-0.4L29.2,20.9z"/>
	<path class="st3" d="M29.2,21c-0.7-0.3-1.5-0.3-2.2,0L0.9,36c-0.4,0.1-0.5,0.5-0.4,0.8c0.1,0.2,0.2,0.4,0.4,0.4L27,52.4
		c0.7,0.3,1.5,0.3,2.2,0l26.1-15.1c0.4-0.1,0.5-0.5,0.4-0.8c-0.1-0.2-0.2-0.4-0.4-0.4L29.2,21z"/>
	<path class="st4" d="M29.2,21.1c-0.7-0.3-1.5-0.3-2.2,0L1,36c-0.4,0.1-0.5,0.5-0.4,0.8C0.7,37,0.9,37.2,1,37.3l26,15
		c0.7,0.3,1.5,0.3,2.2,0l25.9-15c0.4-0.1,0.5-0.5,0.4-0.8c-0.1-0.2-0.2-0.4-0.4-0.4L29.2,21.1z"/>
	<path class="st5" d="M29.2,21.2c-0.7-0.3-1.5-0.3-2.2,0L1.2,36c-0.3,0.1-0.5,0.5-0.4,0.8C0.9,37,1,37.1,1.2,37.2l25.8,15
		c0.7,0.4,1.5,0.4,2.2,0l25.7-14.9c0.3-0.1,0.5-0.5,0.4-0.8c-0.1-0.2-0.2-0.3-0.4-0.4L29.2,21.2z"/>
	<path class="st6" d="M29.1,21.3c-0.7-0.4-1.5-0.4-2.1,0L1.5,36c-0.6,0.3-0.6,0.9,0,1.2L27,52c0.7,0.3,1.5,0.3,2.1,0l25.5-14.7
		c0.3-0.1,0.5-0.5,0.4-0.8c-0.1-0.2-0.2-0.3-0.4-0.4L29.1,21.3z"/>
	<path class="st7" d="M29.1,21.4c-0.7-0.3-1.5-0.3-2.1,0L1.6,36c-0.3,0.1-0.5,0.5-0.4,0.8c0.1,0.2,0.2,0.3,0.4,0.4L27,51.9
		c0.7,0.3,1.5,0.3,2.1,0l25.3-14.6c0.3-0.1,0.5-0.5,0.4-0.8c-0.1-0.2-0.2-0.3-0.4-0.4L29.1,21.4z"/>
	<path class="st8" d="M29.1,21.5c-0.7-0.3-1.5-0.3-2.1,0L1.8,36c-0.3,0.1-0.5,0.5-0.4,0.8c0.1,0.2,0.2,0.3,0.4,0.4L27,51.8
		c0.7,0.3,1.5,0.3,2.1,0l25.2-14.5c0.3-0.1,0.5-0.5,0.4-0.8c-0.1-0.2-0.2-0.3-0.4-0.4L29.1,21.5z"/>
	<path class="st9" d="M29.1,21.6c-0.7-0.3-1.4-0.3-2.1,0L2,36.1c-0.3,0.1-0.5,0.5-0.4,0.8c0.1,0.2,0.2,0.3,0.4,0.4l25,14.4
		c0.7,0.3,1.4,0.3,2.1,0l25-14.4c0.3-0.1,0.5-0.5,0.4-0.8c-0.1-0.2-0.2-0.3-0.4-0.4L29.1,21.6z"/>
	<path class="st10" d="M29.1,21.8c-0.7-0.3-1.4-0.3-2.1,0L2.2,36.1c-0.3,0.1-0.5,0.5-0.4,0.8c0.1,0.2,0.2,0.3,0.4,0.4L27,51.6
		c0.7,0.3,1.4,0.3,2.1,0l24.8-14.3c0.3-0.1,0.5-0.5,0.4-0.8c-0.1-0.2-0.2-0.3-0.4-0.4L29.1,21.8z"/>
	<path class="st11" d="M29.1,21.9c-0.7-0.3-1.4-0.3-2.1,0L2.4,36.1c-0.3,0.1-0.5,0.5-0.4,0.8c0.1,0.2,0.2,0.3,0.4,0.4L27,51.5
		c0.7,0.3,1.4,0.3,2.1,0l24.6-14.2c0.3-0.1,0.5-0.5,0.4-0.8c-0.1-0.2-0.2-0.3-0.4-0.4L29.1,21.9z"/>
	<path class="st12" d="M29.1,22c-0.7-0.3-1.4-0.3-2.1,0L2.6,36.1c-0.3,0.1-0.5,0.5-0.4,0.8c0.1,0.2,0.2,0.3,0.4,0.4L27,51.4
		c0.6,0.3,1.4,0.3,2.1,0l24.4-14.1c0.3-0.1,0.5-0.5,0.4-0.8c-0.1-0.2-0.2-0.3-0.4-0.4L29.1,22z"/>
	<path class="st13" d="M29.1,22.1c-0.6-0.3-1.4-0.3-2,0l-24.2,14c-0.3,0.1-0.5,0.5-0.4,0.8c0.1,0.2,0.2,0.3,0.4,0.4l24.2,14
		c0.6,0.3,1.4,0.3,2,0l24.2-14c0.3-0.1,0.5-0.5,0.4-0.8c-0.1-0.2-0.2-0.3-0.4-0.4L29.1,22.1z"/>
	<path class="st14" d="M29.1,22.2c-0.6-0.3-1.4-0.3-2,0L3,36.1c-0.3,0.1-0.5,0.5-0.4,0.8C2.7,37,2.8,37.2,3,37.2l24,13.9
		c0.6,0.3,1.4,0.3,2,0l24-13.9c0.3-0.1,0.5-0.5,0.4-0.8c-0.1-0.2-0.2-0.3-0.4-0.4L29.1,22.2z"/>
	<path class="st15" d="M29.1,22.3c-0.6-0.3-1.4-0.3-2,0L3.2,36.1c-0.3,0.1-0.5,0.4-0.4,0.8C2.9,37,3,37.2,3.2,37.2L27.1,51
		c0.6,0.3,1.4,0.3,2,0l23.8-13.8c0.3-0.1,0.5-0.4,0.4-0.8c-0.1-0.2-0.2-0.3-0.4-0.4L29.1,22.3z"/>
	<path class="st16" d="M29.1,22.5c-0.6-0.3-1.4-0.3-2,0L3.4,36.1c-0.3,0.1-0.5,0.5-0.4,0.8c0.1,0.2,0.2,0.3,0.4,0.4L27,51
		c0.6,0.3,1.4,0.3,2,0l23.7-13.7c0.3-0.1,0.5-0.5,0.4-0.8c-0.1-0.2-0.2-0.3-0.4-0.4L29.1,22.5z"/>
	<path class="st17" d="M29.1,22.6c-0.6-0.3-1.4-0.3-2,0L3.6,36.1c-0.3,0.1-0.5,0.5-0.4,0.8c0.1,0.2,0.2,0.3,0.4,0.4l23.5,13.5
		c0.6,0.3,1.4,0.3,2,0l23.4-13.5c0.3-0.1,0.5-0.5,0.4-0.8c-0.1-0.2-0.2-0.3-0.4-0.4L29.1,22.6z"/>
	<path class="st18" d="M29.1,22.7c-0.6-0.3-1.4-0.3-2,0L3.8,36.1c-0.3,0.1-0.5,0.5-0.4,0.8c0.1,0.2,0.2,0.3,0.4,0.4l23.3,13.4
		c0.6,0.3,1.4,0.3,2,0l23.2-13.4c0.3-0.1,0.5-0.5,0.4-0.8c-0.1-0.2-0.2-0.3-0.4-0.4L29.1,22.7z"/>
	<path class="st19" d="M29,22.8c-0.6-0.3-1.3-0.3-2,0L4,36.1c-0.3,0.1-0.5,0.5-0.4,0.8C3.7,37,3.8,37.2,4,37.2l23.1,13.3
		c0.6,0.3,1.3,0.3,2,0l23.1-13.3c0.3-0.1,0.5-0.5,0.4-0.8c-0.1-0.2-0.2-0.3-0.4-0.4L29,22.8z"/>
	<path class="st20" d="M29,22.9c-0.6-0.3-1.3-0.3-1.9,0L4.2,36.1c-0.3,0.1-0.5,0.4-0.4,0.8C3.9,37,4,37.2,4.2,37.2l22.9,13.2
		c0.6,0.3,1.3,0.3,1.9,0l22.9-13.2c0.3-0.1,0.5-0.4,0.4-0.7c-0.1-0.2-0.2-0.3-0.4-0.4L29,22.9z"/>
	<path class="st21" d="M29,23c-0.6-0.3-1.3-0.3-1.9,0L4.4,36.1c-0.3,0.1-0.5,0.4-0.4,0.8c0.1,0.2,0.2,0.3,0.4,0.4l22.7,13.1
		c0.6,0.3,1.3,0.3,1.9,0l22.7-13.1c0.3-0.1,0.5-0.4,0.4-0.8c-0.1-0.2-0.2-0.3-0.4-0.4L29,23z"/>
	<path class="st22" d="M29,23.1c-0.6-0.3-1.3-0.3-1.9,0l-22.5,13c-0.3,0.1-0.5,0.4-0.4,0.7c0.1,0.2,0.2,0.3,0.4,0.4l22.5,13
		c0.6,0.3,1.3,0.3,1.9,0l22.5-13c0.5-0.3,0.5-0.8,0-1.1L29,23.1z"/>
	<path class="st23" d="M29,23.2c-0.6-0.3-1.3-0.3-1.9,0L4.8,36.1c-0.3,0.1-0.5,0.4-0.3,0.7c0.1,0.2,0.2,0.3,0.3,0.3L27.1,50
		c0.6,0.3,1.3,0.3,1.9,0l22.3-12.9c0.3-0.1,0.5-0.4,0.3-0.7c-0.1-0.2-0.2-0.3-0.3-0.3L29,23.2z"/>
	<path class="st24" d="M29,23.4c-0.6-0.3-1.3-0.3-1.9,0L5,36.1c-0.5,0.3-0.5,0.8,0,1.1L27.1,50c0.6,0.3,1.3,0.3,1.9,0l22.1-12.8
		c0.3-0.1,0.5-0.4,0.4-0.7c-0.1-0.2-0.2-0.3-0.4-0.4L29,23.4z"/>
	<path class="st25" d="M29,23.5c-0.6-0.3-1.3-0.3-1.9,0l-22,12.7c-0.3,0.1-0.4,0.4-0.3,0.7C4.9,37,5,37.1,5.1,37.2l22,12.7
		c0.6,0.3,1.3,0.3,1.9,0l21.9-12.7c0.3-0.1,0.4-0.4,0.3-0.7c-0.1-0.2-0.2-0.3-0.3-0.3L29,23.5z"/>
	<path class="st26" d="M29,23.6c-0.6-0.3-1.3-0.3-1.8,0L5.4,36.1c-0.3,0.1-0.4,0.4-0.3,0.7c0.1,0.2,0.2,0.3,0.3,0.3l21.8,12.6
		c0.6,0.3,1.3,0.3,1.8,0l21.8-12.6c0.3-0.1,0.4-0.4,0.3-0.7c-0.1-0.2-0.2-0.3-0.3-0.3L29,23.6z"/>
	<path class="st27" d="M29,23.7c-0.6-0.3-1.2-0.3-1.8,0L5.6,36.1c-0.3,0.1-0.4,0.5-0.3,0.7c0.1,0.1,0.2,0.2,0.3,0.3l21.6,12.5
		c0.6,0.3,1.2,0.3,1.8,0l21.6-12.5c0.3-0.1,0.4-0.4,0.3-0.7c-0.1-0.2-0.2-0.3-0.3-0.3L29,23.7z"/>
	<path class="st28" d="M29,23.8c-0.6-0.3-1.2-0.3-1.8,0L5.8,36.2c-0.5,0.3-0.5,0.8,0,1l21.4,12.4c0.6,0.3,1.2,0.3,1.8,0l21.4-12.3
		c0.5-0.3,0.5-0.8,0-1L29,23.8z"/>
	<path class="st29" d="M29,23.9c-0.6-0.3-1.2-0.3-1.8,0L6,36.2c-0.3,0.1-0.4,0.4-0.3,0.7C5.8,37,5.9,37.1,6,37.2l21.2,12.2
		c0.6,0.3,1.2,0.3,1.8,0l21.2-12.2c0.3-0.1,0.4-0.4,0.3-0.7c-0.1-0.1-0.2-0.2-0.3-0.3L29,23.9z"/>
	<path class="st30" d="M29,24c-0.6-0.3-1.2-0.3-1.8,0l-21,12.1c-0.3,0.1-0.4,0.4-0.3,0.7C6,37,6.1,37.1,6.2,37.1l21,12.1
		c0.6,0.3,1.2,0.3,1.8,0l21-12.1c0.5-0.3,0.5-0.8,0-1L29,24z"/>
	<path class="st31" d="M29,24.1c-0.6-0.3-1.2-0.3-1.8,0l-20.8,12c-0.5,0.3-0.5,0.7,0,1l20.8,12c0.6,0.3,1.2,0.3,1.8,0l20.8-12
		c0.3-0.1,0.4-0.4,0.3-0.7c-0.1-0.2-0.2-0.3-0.3-0.3L29,24.1z"/>
	<path class="st32" d="M28.9,24.3c-0.5-0.3-1.2-0.3-1.7,0L6.6,36.2c-0.3,0.1-0.4,0.4-0.3,0.7c0.1,0.2,0.2,0.3,0.3,0.3l20.6,11.9
		c0.5,0.3,1.2,0.3,1.7,0l20.6-11.9c0.3-0.1,0.4-0.4,0.3-0.7c-0.1-0.2-0.2-0.3-0.3-0.3L28.9,24.3z"/>
	<path class="st33" d="M28.9,24.4c-0.5-0.3-1.2-0.3-1.7,0L6.8,36.2c-0.3,0.1-0.4,0.4-0.3,0.7c0.1,0.2,0.2,0.3,0.3,0.3L27.2,49
		c0.5,0.3,1.2,0.3,1.7,0l20.4-11.8c0.5-0.3,0.5-0.7,0-1L28.9,24.4z"/>
	<path class="st34" d="M28.9,24.5c-0.5-0.3-1.2-0.3-1.7,0L7,36.2c-0.5,0.3-0.5,0.7,0,1l20.2,11.7c0.5,0.3,1.2,0.3,1.7,0l20.2-11.7
		c0.3-0.1,0.4-0.4,0.4-0.6c0-0.2-0.2-0.3-0.4-0.4L28.9,24.5z"/>
	<path class="st35" d="M28.9,24.6c-0.5-0.3-1.2-0.3-1.7,0l-20,11.6c-0.3,0.1-0.4,0.4-0.4,0.6c0,0.2,0.2,0.3,0.4,0.4l20.1,11.6
		c0.5,0.3,1.2,0.3,1.7,0l20-11.6c0.3-0.1,0.4-0.4,0.4-0.6c0-0.2-0.2-0.3-0.4-0.4L28.9,24.6z"/>
	<path class="st36" d="M28.9,24.7c-0.5-0.3-1.2-0.3-1.7,0L7.4,36.2c-0.3,0.1-0.5,0.3-0.4,0.6c0,0.2,0.2,0.4,0.4,0.4l19.9,11.4
		c0.5,0.3,1.2,0.3,1.7,0l19.9-11.5c0.3-0.1,0.5-0.3,0.4-0.6c0-0.2-0.2-0.4-0.4-0.4L28.9,24.7z"/>
	<path class="st37" d="M28.9,24.8c-0.5-0.3-1.1-0.3-1.7,0L7.6,36.2c-0.5,0.3-0.5,0.7,0,1l19.7,11.3c0.5,0.3,1.1,0.3,1.7,0l19.7-11.4
		c0.5-0.3,0.5-0.7,0-1L28.9,24.8z"/>
	<path class="st38" d="M28.9,25c-0.5-0.3-1.1-0.3-1.6,0L7.8,36.2c-0.3,0-0.5,0.2-0.5,0.5s0.2,0.5,0.5,0.5l19.5,11.2
		c0.5,0.3,1.1,0.3,1.6,0l19.5-11.2c0.3-0.1,0.4-0.4,0.3-0.6c0-0.2-0.2-0.3-0.3-0.3L28.9,25z"/>
	<path class="st39" d="M28.9,25.1c-0.5-0.2-1.1-0.2-1.6,0L8,36.2c-0.3,0.1-0.4,0.4-0.3,0.6C7.8,37,7.9,37.1,8,37.1l19.3,11.1
		c0.5,0.3,1.1,0.3,1.6,0l19.3-11.1c0.3-0.1,0.4-0.4,0.3-0.6c-0.1-0.1-0.2-0.2-0.3-0.3L28.9,25.1z"/>
	<path class="st40" d="M28.9,25.2c-0.5-0.3-1.1-0.3-1.6,0l-19.1,11c-0.3,0.1-0.4,0.4-0.3,0.6c0,0.1,0.2,0.3,0.3,0.3l19.1,11
		c0.5,0.3,1.1,0.3,1.6,0l19.1-11c0.5-0.3,0.5-0.7,0-0.9L28.9,25.2z"/>
	<path class="st41" d="M28.9,25.3c-0.5-0.3-1.1-0.3-1.6,0L8.4,36.2c-0.3,0.1-0.4,0.4-0.3,0.6c0,0.1,0.2,0.2,0.3,0.3L27.3,48
		c0.5,0.3,1.1,0.3,1.6,0l18.9-10.9c0.3-0.1,0.4-0.4,0.3-0.6c0-0.1-0.2-0.2-0.3-0.3L28.9,25.3z"/>
	<path class="st42" d="M28.9,25.4c-0.5-0.3-1.1-0.3-1.6,0L8.6,36.2c-0.3,0.1-0.4,0.4-0.3,0.6c0,0.1,0.2,0.3,0.3,0.3l18.7,10.8
		c0.5,0.2,1.1,0.2,1.6,0l18.7-10.8c0.3-0.1,0.4-0.4,0.3-0.6c0-0.1-0.2-0.3-0.3-0.3L28.9,25.4z"/>
</g>
<linearGradient id="SVGID_1_" gradientUnits="userSpaceOnUse" x1="6.8" y1="2082.5125" x2="49.5" y2="2082.5125" gradientTransform="matrix(1 0 0 1 0 -2052)">
	<stop  offset="0" style="stop-color:#F2F4FA"/>
	<stop  offset="0.92" style="stop-color:#D6DCEE"/>
	<stop  offset="1" style="stop-color:#D3DAED"/>
</linearGradient>
<path class="st43" d="M49.5,12.3H6.8v24.1l0,0c0,0.2,0.2,0.4,0.3,0.5l20.2,11.6c0.5,0.3,1.2,0.3,1.7,0l20.2-11.6
	c0.2-0.1,0.3-0.3,0.3-0.5l0,0C49.5,36.4,49.5,12.3,49.5,12.3z"/>
<linearGradient id="SVGID_00000070093838800252140110000002521255478493817260_" gradientUnits="userSpaceOnUse" x1="6.8" y1="2078.7124" x2="49.5" y2="2078.7124" gradientTransform="matrix(1 0 0 1 0 -2052)">
	<stop  offset="0" style="stop-color:#FFC107"/>
	<stop  offset="0.92" style="stop-color:#7BFF15"/>
</linearGradient>
<path style="fill:url(#SVGID_00000070093838800252140110000002521255478493817260_);" d="M49.1,19.4L29,31c-0.5,0.3-1.2,0.3-1.7,0
	L7.1,19.4c-0.2-0.1-0.3-0.3-0.3-0.5l0,0v3.3l0,0c0,0.2,0.2,0.4,0.3,0.5l20.2,11.6c0.5,0.3,1.2,0.3,1.7,0l20.2-11.6
	c0.2-0.1,0.3-0.3,0.3-0.5v-3.3C49.5,19.1,49.3,19.3,49.1,19.4z"/>
<linearGradient id="SVGID_00000116918310705585315230000018163052007367701910_" gradientUnits="userSpaceOnUse" x1="6.8" y1="2087.6125" x2="49.5" y2="2087.6125" gradientTransform="matrix(1 0 0 1 0 -2052)">
	<stop  offset="0" style="stop-color:#FFC107"/>
	<stop  offset="0.92" style="stop-color:#7BFF15"/>
</linearGradient>
<path style="fill:url(#SVGID_00000116918310705585315230000018163052007367701910_);" d="M49.1,28.3L29,40c-0.5,0.3-1.2,0.3-1.7,0
	L7.1,28.3c-0.2-0.1-0.3-0.3-0.3-0.5l0,0v3.3l0,0c0,0.2,0.2,0.4,0.3,0.5l20.2,11.6c0.5,0.3,1.2,0.3,1.7,0l20.2-11.6
	c0.2-0.1,0.3-0.3,0.3-0.5v-3.3C49.5,28.1,49.3,28.2,49.1,28.3z"/>
<linearGradient id="SVGID_00000016782560252988008950000000547611627715080106_" gradientUnits="userSpaceOnUse" x1="6.7" y1="-984.3" x2="49.4746" y2="-984.3" gradientTransform="matrix(1 0 0 -1 0 -972)">
	<stop  offset="0.4" style="stop-color:#FFC107"/>
	<stop  offset="0.92" style="stop-color:#FF9800"/>
</linearGradient>
<path style="fill:url(#SVGID_00000016782560252988008950000000547611627715080106_);" d="M29,0.2c-0.5-0.3-1.2-0.3-1.7,0L7.1,11.8
	c-0.3,0.1-0.4,0.4-0.4,0.6c0,0.2,0.2,0.3,0.4,0.4l20.2,11.6c0.5,0.3,1.2,0.3,1.7,0l20.2-11.6c0.3-0.1,0.4-0.4,0.4-0.6
	c0-0.2-0.2-0.3-0.4-0.4L29,0.2z"/>
<g>
	<path class="st47" d="M35.5,14.8c-0.1-0.1-0.2-0.1-0.3-0.2c1.6-0.7,1.7-2,0.1-2.8c-0.2-0.1-0.4-0.2-0.6-0.3c0.9-1,0.6-2.2-1.1-3.1
		c-1.9-1.1-4.8-1.3-7-0.8c-2.2-1.1-5.7-1.3-7.9-0.4c-2.3,1-2.4,2.7-0.2,3.9l11.1,6.2c1.6,0.9,4.2,1,5.8,0.3
		C37,16.9,37,15.6,35.5,14.8z"/>
	<path class="st48" d="M33.6,8.3c-1.9-1.1-4.8-1.3-7-0.8c-2.2-1.1-5.7-1.3-7.9-0.4c-1.3,0.5-1.8,1.3-1.8,2.1C17,8.6,17.6,8,18.6,7.6
		c2.2-0.9,5.8-0.8,7.9,0.4c2.2-0.6,5.2-0.2,7,0.8c1,0.5,1.5,1.2,1.6,1.8C35.3,9.9,34.8,9,33.6,8.3z"/>
	<path class="st48" d="M35.3,11.7c-0.1-0.1-0.2-0.1-0.4-0.2c0,0-0.1-0.1-0.3-0.1v0.5c0.2,0.1,0.4,0.2,0.6,0.3c0.7,0.4,1,0.8,1.1,1.3
		C36.6,12.9,36.2,12.2,35.3,11.7z"/>
	<path class="st48" d="M35.6,14.8l-0.4-0.3V15c0.1,0.1,0.2,0.1,0.3,0.2c0.7,0.4,1,0.8,1.1,1.3C36.7,15.9,36.4,15.3,35.6,14.8z"/>
</g>
</svg>
