<?xml version="1.0" standalone="no"?><!DOCTYPE svg PUBLIC "-//W3C//DTD SVG 1.1//EN" "http://www.w3.org/Graphics/SVG/1.1/DTD/svg11.dtd"><svg t="1685700547645" class="icon" viewBox="0 0 1024 1024" version="1.1" xmlns="http://www.w3.org/2000/svg" p-id="2989" xmlns:xlink="http://www.w3.org/1999/xlink" width="200" height="200"><path d="M629.251413 354.358613h26.576214l75.74528-75.74528 3.720533-32.157013a340.456107 340.456107 0 0 0-553.867947 166.106453 41.19552 41.19552 0 0 1 26.576214-1.594026l151.49056-24.9856s7.707307-12.755627 11.69408-11.956907a188.962133 188.962133 0 0 1 258.594133-19.667627z" fill="#F44336" p-id="2990"></path><path d="M839.4752 412.562773a341.251413 341.251413 0 0 0-102.85056-165.843626l-106.31168 106.31168a188.962133 188.962133 0 0 1 69.369173 149.89312v18.87232a94.6176 94.6176 0 1 1 0 189.228373h-189.231786l-18.868907 19.135147v113.486506l18.868907 18.868907h189.231786a246.104747 246.104747 0 0 0 139.79648-449.952427z" fill="#448AFF" p-id="2991"></path><path d="M320.948907 861.453653h189.228373v-151.49056H320.948907a94.08512 94.08512 0 0 1-39.069014-8.506026l-26.579626 8.239786-76.274347 75.741867-6.64576 26.579627a244.77696 244.77696 0 0 0 148.568747 49.435306z" fill="#43A047" p-id="2992"></path><path d="M320.948907 370.039467a246.104747 246.104747 0 0 0-148.568747 441.18016l109.765973-109.76256a94.6176 94.6176 0 1 1 125.177174-125.177174l109.76256-109.765973a245.838507 245.838507 0 0 0-196.13696-96.474453z" fill="#FFC107" p-id="2993"></path></svg>