<?xml version="1.0" encoding="utf-8"?>
<!-- Generator: Adobe Illustrator 26.2.1, SVG Export Plug-In . SVG Version: 6.00 Build 0)  -->
<svg version="1.1" id="图层_1" xmlns="http://www.w3.org/2000/svg" xmlns:xlink="http://www.w3.org/1999/xlink" x="0px" y="0px"
	 viewBox="0 0 50 46" style="enable-background:new 0 0 50 46;" xml:space="preserve">
<style type="text/css">
	.st0{fill:#FFFFFF;fill-opacity:0;}
	.st1{opacity:2.000000e-02;fill:#FAFAFD;enable-background:new    ;}
	.st2{opacity:5.000000e-02;fill:#F5F6FA;enable-background:new    ;}
	.st3{opacity:7.000000e-02;fill:#EFF1F8;enable-background:new    ;}
	.st4{opacity:0.1;fill:#EAEDF6;enable-background:new    ;}
	.st5{opacity:0.12;fill:#E5E8F4;enable-background:new    ;}
	.st6{opacity:0.15;fill:#E0E3F1;enable-background:new    ;}
	.st7{opacity:0.17;fill:#DADFEF;enable-background:new    ;}
	.st8{opacity:0.2;fill:#D5DAED;enable-background:new    ;}
	.st9{opacity:0.22;fill:#D0D6EB;enable-background:new    ;}
	.st10{opacity:0.24;fill:#CBD1E8;enable-background:new    ;}
	.st11{opacity:0.27;fill:#C5CCE6;enable-background:new    ;}
	.st12{opacity:0.29;fill:#C0C8E4;enable-background:new    ;}
	.st13{opacity:0.32;fill:#BBC3E2;enable-background:new    ;}
	.st14{opacity:0.34;fill:#B6BEDF;enable-background:new    ;}
	.st15{opacity:0.37;fill:#B0BADD;enable-background:new    ;}
	.st16{opacity:0.39;fill:#ABB5DB;enable-background:new    ;}
	.st17{opacity:0.41;fill:#A6B1D8;enable-background:new    ;}
	.st18{opacity:0.44;fill:#A1ACD6;enable-background:new    ;}
	.st19{opacity:0.46;fill:#9BA7D4;enable-background:new    ;}
	.st20{opacity:0.49;fill:#96A3D2;enable-background:new    ;}
	.st21{opacity:0.51;fill:#919ECF;enable-background:new    ;}
	.st22{opacity:0.54;fill:#8C9ACD;enable-background:new    ;}
	.st23{opacity:0.56;fill:#8695CB;enable-background:new    ;}
	.st24{opacity:0.59;fill:#8190C9;enable-background:new    ;}
	.st25{opacity:0.61;fill:#7C8CC6;enable-background:new    ;}
	.st26{opacity:0.63;fill:#7787C4;enable-background:new    ;}
	.st27{opacity:0.66;fill:#7183C2;enable-background:new    ;}
	.st28{opacity:0.68;fill:#6C7EBF;enable-background:new    ;}
	.st29{opacity:0.71;fill:#6779BD;enable-background:new    ;}
	.st30{opacity:0.73;fill:#6275BB;enable-background:new    ;}
	.st31{opacity:0.76;fill:#5C70B9;enable-background:new    ;}
	.st32{opacity:0.78;fill:#576BB6;enable-background:new    ;}
	.st33{opacity:0.8;fill:#5267B4;enable-background:new    ;}
	.st34{opacity:0.83;fill:#4D62B2;enable-background:new    ;}
	.st35{opacity:0.85;fill:#475EB0;enable-background:new    ;}
	.st36{opacity:0.88;fill:#4259AD;enable-background:new    ;}
	.st37{opacity:0.9;fill:#3D54AB;enable-background:new    ;}
	.st38{opacity:0.93;fill:#3850A9;enable-background:new    ;}
	.st39{opacity:0.95;fill:#324BA7;enable-background:new    ;}
	.st40{opacity:0.98;fill:#2D47A4;enable-background:new    ;}
	.st41{fill:#2842A2;}
	.st42{fill:url(#SVGID_1_);}
	.st43{fill:url(#SVGID_00000155851290176850683440000015067462896632522382_);}
	.st44{fill:url(#SVGID_00000091003343023766993370000018210748298970672313_);}
	.st45{fill:#7EFF48;}
	.st46{fill:#FFFFFF;}
	.st47{fill:#F78F8F;}
	.st48{fill:#C74343;}
</style>
<path class="st0" d="M28.6,19.5c-1.8-0.9-3.8-0.9-5.6,0L4.6,30c-1.5,0.9-1.5,2.3,0,3.2l18.5,10.7c1.8,0.9,3.8,0.9,5.6,0L47,33.3
	c1.5-0.9,1.5-2.3,0-3.2L28.6,19.5z"/>
<path class="st1" d="M28.5,43.8c-1.7,0.9-3.8,0.9-5.5,0L4.7,33.2c-1.5-0.9-1.1-2.5,0.4-3.4l18-10.3c1.7-0.9,3.8-0.9,5.5,0l18.3,10.6
	c1.5,0.9,1.1,2.5-0.4,3.4L28.5,43.8z"/>
<path class="st2" d="M28.5,43.8c-1.7,0.8-3.7,0.8-5.4,0L4.8,33.2c-1.4-0.9-0.7-2.6,0.8-3.5l17.6-10c1.7-0.8,3.7-0.8,5.4,0l18.2,10.5
	c1.5,0.9,0.7,2.6-0.7,3.5C46,33.7,28.5,43.8,28.5,43.8z"/>
<path class="st3" d="M28.4,43.7c-1.7,0.8-3.6,0.8-5.2,0L4.9,33.1c-1.4-0.8-0.3-2.8,1.1-3.6l17.1-9.8c1.7-0.8,3.6-0.8,5.2,0
	l18.1,10.5c1.4,0.8,0.3,2.8-1.1,3.6C45.5,33.9,28.4,43.7,28.4,43.7z"/>
<path class="st4" d="M28.3,43.6c-1.6,0.8-3.5,0.8-5.1,0L5.1,33.1c-1.4-0.8,0.1-3,1.5-3.8l16.7-9.5c1.6-0.8,3.5-0.8,5.1,0l18,10.4
	c1.4,0.8-0.1,3-1.5,3.8C45,34,28.4,43.6,28.3,43.6z"/>
<path class="st5" d="M28.3,43.5c-1.6,0.8-3.4,0.8-5,0L5.2,33.1c-1.4-0.8,0.5-3.1,1.9-3.9c0,0,16.2-9.3,16.3-9.3c1.6-0.8,3.4-0.8,5,0
	l18,10.4c1.3,0.8-0.5,3.1-1.8,3.9C44.5,34.2,28.3,43.5,28.3,43.5z"/>
<path class="st6" d="M28.2,43.4c-1.5,0.8-3.3,0.8-4.9,0L5.3,33c-1.3-0.8,0.9-3.3,2.2-4c0,0,15.8-9,15.9-9c1.5-0.8,3.4-0.8,4.9,0
	l17.9,10.3c1.3,0.8-0.9,3.3-2.2,4C44,34.4,28.3,43.4,28.2,43.4z"/>
<path class="st7" d="M28.1,43.3c-1.5,0.7-3.3,0.7-4.8,0L5.5,33c-1.3-0.7,1.3-3.4,2.6-4.1l15.4-8.8c1.5-0.7,3.3-0.7,4.8,0l17.8,10.3
	c1.3,0.7-1.3,3.4-2.6,4.2C43.5,34.5,28.2,43.3,28.1,43.3z"/>
<path class="st8" d="M28.1,43.3c-1.5,0.7-3.2,0.7-4.6,0L5.6,32.9c-1.2-0.7,1.7-3.6,3-4.3c0,0,14.9-8.5,15-8.5c1.5-0.7,3.2-0.7,4.7,0
	L46,30.3c1.2,0.7-1.7,3.6-2.9,4.3C43,34.7,28.2,43.3,28.1,43.3z"/>
<path class="st9" d="M28,43.2c-1.4,0.7-3.1,0.7-4.5,0L5.7,32.9c-1.2-0.7,2.1-3.7,3.3-4.4c0,0,14.5-8.3,14.6-8.3
	c1.4-0.7,3.1-0.7,4.6,0l17.6,10.2c1.2,0.7-2.1,3.7-3.3,4.4C42.5,34.9,28.1,43.2,28,43.2z"/>
<path class="st10" d="M27.9,43.1c-1.4,0.7-3,0.7-4.4,0L5.9,32.9c-1.2-0.7,2.5-3.9,3.7-4.6c0,0,14-8,14.1-8c1.4-0.7,3-0.7,4.4,0
	l17.5,10.2c1.2,0.7-2.5,3.9-3.7,4.6C42,35.1,28,43.1,27.9,43.1z"/>
<path class="st11" d="M27.9,43c-1.4,0.6-2.9,0.6-4.3,0L6,32.8c-1.1-0.6,2.9-4,4.1-4.7c0,0,13.6-7.8,13.7-7.8c1.4-0.7,2.9-0.7,4.3,0
	l17.5,10.1c1.1,0.6-2.9,4-4,4.7C41.5,35.2,28,43,27.9,43z"/>
<path class="st12" d="M27.8,42.9c-1.3,0.6-2.9,0.6-4.2,0L6.1,32.8C5,32.2,9.4,28.6,10.5,28c0,0,13.1-7.5,13.3-7.5
	c1.3-0.6,2.9-0.6,4.2,0l17.4,10.1c1.1,0.6-3.3,4.2-4.4,4.8C41,35.4,27.9,42.9,27.8,42.9z"/>
<path class="st13" d="M27.7,42.8c-1.3,0.6-2.8,0.6-4.1,0l-17.4-10c-1.1-0.6,3.8-4.3,4.8-4.9c0,0,12.7-7.2,12.9-7.2
	c1.3-0.6,2.8-0.6,4.1,0l17.3,10c1,0.6-3.7,4.4-4.8,5C40.5,35.6,27.9,42.8,27.7,42.8z"/>
<path class="st14" d="M27.7,42.8c-1.3,0.6-2.7,0.6-4,0L6.4,32.7c-1-0.6,4.2-4.5,5.2-5.1c0,0,12.3-7,12.4-7c1.3-0.6,2.7-0.6,4,0
	l17.1,10.1c1,0.6-4.1,4.5-5.2,5.1C40,35.8,27.8,42.8,27.7,42.8z"/>
<path class="st15" d="M27.6,42.7c-1.2,0.6-2.6,0.6-3.8,0l-17.3-10c-1-0.6,4.6-4.6,5.6-5.2c0,0,11.8-6.7,12-6.7
	c1.2-0.6,2.6-0.6,3.8,0L45,30.7c1,0.6-4.5,4.7-5.5,5.2C39.5,35.9,27.8,42.7,27.6,42.7z"/>
<path class="st16" d="M27.5,42.6c-1.2,0.5-2.5,0.5-3.7,0L6.6,32.7c-0.9-0.5,5-4.8,5.9-5.3c0,0,11.4-6.5,11.6-6.5
	c1.2-0.5,2.6-0.5,3.7,0.1l17.1,9.9c0.9,0.5-5,4.8-5.9,5.4C39,36.1,27.7,42.6,27.5,42.6z"/>
<path class="st17" d="M27.4,42.5c-1.1,0.5-2.5,0.5-3.6-0.1L6.7,32.6c-0.9-0.5,5.4-5,6.3-5.5c0,0,10.9-6.2,11.1-6.2
	c1.2-0.5,2.5-0.5,3.6,0.1l17,9.8c0.9,0.5-5.3,5-6.2,5.5C38.5,36.3,27.6,42.5,27.4,42.5z"/>
<path class="st18" d="M27.4,42.4c-1.1,0.5-2.4,0.5-3.5,0l-17-9.8c-0.9-0.5,5.8-5.1,6.7-5.6c0,0,10.5-6,10.7-6
	c1.1-0.5,2.4-0.5,3.5,0.1l16.9,9.8c0.9,0.5-5.8,5.1-6.6,5.6C38,36.5,27.6,42.4,27.4,42.4z"/>
<path class="st19" d="M27.3,42.4c-1.1,0.5-2.3,0.5-3.4-0.1L7,32.5c-0.8-0.5,6.2-5.3,7-5.7c0,0,10.1-5.7,10.3-5.7
	c1.1-0.5,2.3-0.4,3.4,0.1l16.8,9.7c0.8,0.5-6.2,5.3-7,5.8C37.5,36.7,27.5,42.4,27.3,42.4z"/>
<path class="st20" d="M27.3,42.3c-1,0.4-2.2,0.4-3.2-0.1l-17-9.7c-0.8-0.5,6.6-5.4,7.4-5.9c0,0,9.6-5.5,9.8-5.5
	c1-0.4,2.2-0.4,3.3,0.1l16.8,9.7c0.8,0.5-6.6,5.5-7.4,5.9C37,36.8,27.5,42.3,27.3,42.3z"/>
<path class="st21" d="M27.2,42.2c-1,0.4-2.1,0.4-3.1-0.1L7.3,32.4c-0.8-0.4,7-5.6,7.8-6c0,0,9.2-5.2,9.4-5.2c1-0.4,2.2-0.4,3.1,0.1
	l16.7,9.6c0.8,0.4-7,5.6-7.7,6C36.5,37,27.4,42.2,27.2,42.2z"/>
<path class="st22" d="M27.1,42.1c-1,0.4-2.1,0.4-3-0.1L7.4,32.4c-0.7-0.4,7.4-5.7,8.1-6.1c0,0,8.7-5,9-5c1-0.4,2.1-0.4,3,0.1
	L44.1,31c0.7,0.4-7.4,5.8-8.1,6.2C36,37.2,27.3,42.1,27.1,42.1z"/>
<path class="st23" d="M27,42c-0.9,0.4-2,0.4-2.9-0.1L7.5,32.4c-0.7-0.4,7.8-5.9,8.5-6.3c0,0,8.3-4.7,8.5-4.7c0.9-0.4,2-0.3,2.9,0.1
	L44,31c0.7,0.4-7.8,5.9-8.5,6.3C35.5,37.3,27.3,42,27,42z"/>
<path class="st24" d="M27,41.9c-0.9,0.4-1.9,0.3-2.8-0.1L7.7,32.3c-0.6-0.4,8.2-6,8.9-6.4c0,0,7.8-4.5,8.1-4.5
	c0.9-0.4,1.9-0.3,2.8,0.1L43.8,31c0.6,0.4-8.2,6.1-8.8,6.4C35,37.5,27.2,41.9,27,41.9z"/>
<path class="st25" d="M26.9,41.9c-0.9,0.3-1.8,0.3-2.7-0.1L7.8,32.3c-0.6-0.4,8.6-6.2,9.2-6.5c0,0,7.4-4.2,7.7-4.2
	c0.9-0.3,1.8-0.3,2.7,0.1l16.3,9.4c0.6,0.4-8.6,6.2-9.2,6.6C34.5,37.7,27.2,41.9,26.9,41.9z"/>
<path class="st26" d="M26.8,41.8c-0.8,0.3-1.7,0.3-2.6-0.1L7.9,32.2c-0.6-0.3,9-6.4,9.6-6.7c0,0,7-3.9,7.2-3.9
	c0.8-0.3,1.7-0.3,2.5,0.1l16.3,9.4c0.6,0.3-9,6.4-9.6,6.7C34,37.8,27.1,41.8,26.8,41.8z"/>
<path class="st27" d="M26.8,41.7C26,42,25.1,42,24.4,41.6L8.1,32.2c-0.5-0.3,9.5-6.5,10-6.8c0,0,6.5-3.7,6.8-3.7
	c0.8-0.3,1.7-0.3,2.4,0.1l16.2,9.4c0.5,0.3-9.4,6.5-9.9,6.8C33.5,38,27.1,41.7,26.8,41.7z"/>
<path class="st28" d="M26.7,41.6c-0.7,0.3-1.6,0.2-2.3-0.1L8.2,32.2c-0.5-0.3,9.9-6.6,10.4-6.9c0,0,6.1-3.3,6.4-3.4
	c0.7-0.3,1.6-0.3,2.3,0.1l16.1,9.2c0.5,0.3-9.8,6.7-10.3,7C33,38.2,27,41.6,26.7,41.6z"/>
<path class="st29" d="M26.6,41.5c-0.7,0.3-1.5,0.2-2.2-0.1L8.3,32.1C7.9,31.8,18.6,25.3,19,25l5.9-3.2c0.7-0.3,1.5-0.3,2.2,0.1
	l16,9.3c0.5,0.3-10.2,6.8-10.7,7.1C32.5,38.4,26.9,41.5,26.6,41.5z"/>
<path class="st30" d="M26.6,41.5c-0.7,0.2-1.4,0.2-2.1-0.1L8.4,32.1c-0.4-0.2,10.7-7,11.1-7.2c0,0,5.2-2.8,5.5-2.9
	c0.7-0.3,1.4-0.2,2.1,0.1l16,9.2c0.4,0.2-10.6,7-11,7.2C32,38.5,26.9,41.5,26.6,41.5z"/>
<path class="st31" d="M26.5,41.4c-0.7,0.2-1.4,0.2-2-0.1l-16-9.2c-0.4-0.2,11.1-7.1,11.4-7.3c0,0,4.8-2.5,5.1-2.7
	c0.6-0.3,1.4-0.2,2,0.1l15.9,9.2c0.4,0.2-11,7.2-11.4,7.4C31.5,38.7,26.8,41.4,26.5,41.4z"/>
<path class="st32" d="M26.4,41.3c-0.6,0.2-1.3,0.2-1.8-0.1L8.7,32c-0.3-0.2,11.5-7.3,11.8-7.5c0,0,4.4-2.3,4.7-2.4
	c0.6-0.2,1.3-0.2,1.9,0.1l15.8,9.1c0.3,0.2-11.4,7.3-11.8,7.5C31,38.9,26.8,41.3,26.4,41.3z"/>
<path class="st33" d="M26.4,41.2c-0.6,0.2-1.2,0.1-1.7-0.1L8.8,32c-0.3-0.2,11.9-7.4,12.2-7.6c0,0,3.9-2,4.2-2.2
	c0.6-0.2,1.2-0.2,1.7,0.1l15.7,9.1c0.3,0.2-11.8,7.5-12.1,7.6C29.2,39.8,27.8,40.6,26.4,41.2z"/>
<path class="st34" d="M26.3,41.1c-0.5,0.1-1.1,0.1-1.6-0.1L9,31.9c-0.3-0.1,12.3-7.6,12.6-7.7c0,0,3.5-1.8,3.8-1.9
	c0.5-0.2,1.1-0.1,1.6,0.1l15.6,9c0.3,0.1-12.2,7.6-12.5,7.8C28.8,39.9,27.6,40.6,26.3,41.1z"/>
<path class="st35" d="M26.2,41c-0.5,0.1-1,0.1-1.5-0.1l-15.6-9C8.9,31.8,21.8,24.2,22,24c0,0,3-1.5,3.4-1.6c0.5-0.2,1-0.1,1.5,0.1
	l15.6,9c0.2,0.1-12.6,7.8-12.9,7.9C28.5,40.1,27.4,40.6,26.2,41z"/>
<path class="st36" d="M26.2,41c-0.5,0.1-0.9,0.1-1.4-0.1l-15.6-9c-0.2-0.1,13.1-7.9,13.3-8s2.6-1.3,2.9-1.4c0.5-0.1,0.9-0.1,1.4,0.1
	l15.5,8.9c0.2,0.1-13.1,7.9-13.2,8C28.1,40.1,27.2,40.6,26.2,41z"/>
<path class="st37" d="M26.1,40.9c-0.4,0.1-0.9,0-1.3-0.1l-15.5-9c-0.2-0.1,13.5-8,13.7-8.1s2.1-1,2.5-1.1s0.9-0.1,1.3,0.1l15.4,8.9
	c0.2,0.1-13.5,8.1-13.6,8.2C27.8,40.2,27,40.6,26.1,40.9z"/>
<path class="st38" d="M26,40.8c-0.4,0.1-0.8,0-1.1-0.1L9.5,31.8c-0.1-0.1,13.9-8.2,14-8.3c0.7-0.3,1.4-0.6,2.1-0.8
	c0.4-0.1,0.8,0,1.1,0.1L42,31.6c0.1,0.1-13.9,8.2-14,8.3C27.4,40.3,26.7,40.6,26,40.8z"/>
<path class="st39" d="M25.9,40.7c-0.3,0-0.7,0-1-0.1L9.6,31.7c-0.1,0,14.3-8.4,14.4-8.4c0.5-0.3,1.1-0.5,1.6-0.7c0.3,0,0.7,0,1,0.1
	l15.3,8.9c0.1,0-14.3,8.4-14.4,8.4C27.1,40.4,26.5,40.6,25.9,40.7z"/>
<path class="st40" d="M25.9,40.7c-0.3,0-0.6,0-0.9-0.1L9.7,31.7l14.8-8.5c0.4-0.2,0.8-0.3,1.2-0.4c0.3,0,0.6,0,0.9,0.1l15.2,8.8
	c0,0-14.7,8.5-14.7,8.6C26.7,40.5,26.3,40.6,25.9,40.7z"/>
<path class="st41" d="M25.8,40.5c-0.3,0-0.5,0-0.8-0.1L9.9,31.7L25,23c0.3-0.1,0.5-0.1,0.8-0.1s0.5,0,0.8,0.1l15.1,8.7l-15.1,8.8
	C26.3,40.5,26.1,40.6,25.8,40.5z"/>
<linearGradient id="SVGID_1_" gradientUnits="userSpaceOnUse" x1="7.2" y1="62.65" x2="44.6" y2="62.65" gradientTransform="matrix(1 0 0 1 0 -32)">
	<stop  offset="0" style="stop-color:#5C629E"/>
	<stop  offset="1" style="stop-color:#48486A"/>
</linearGradient>
<path class="st42" d="M44.6,28.6c0-0.1,0-0.1,0-0.2l-0.1-6.6l-14-0.1l-0.6-0.4c-1.5-0.7-3.2-0.7-4.7,0l-0.7,0.3L7.2,21.5l0.1,7.9
	c0,0.7,0.4,1.4,1,1.7L23.6,40c1.5,0.7,3.2,0.7,4.7,0L44,31.1c0.4-0.2,0.7-0.6,0.7-1.1v-1.4H44.6z"/>
<linearGradient id="SVGID_00000127730790417360692840000011535768571658590900_" gradientUnits="userSpaceOnUse" x1="7.2" y1="54.2" x2="44.5" y2="54.2" gradientTransform="matrix(1 0 0 1 0 -32)">
	<stop  offset="0" style="stop-color:#5C629E"/>
	<stop  offset="1" style="stop-color:#48486A"/>
</linearGradient>
<path style="fill:url(#SVGID_00000127730790417360692840000011535768571658590900_);" d="M44.5,20.1c0-0.1,0-0.1,0-0.2l-0.1-6.6
	l-13.9-0.1l-0.6-0.4c-1.5-0.7-3.2-0.7-4.6,0l-0.7,0.3H7.2V21c0,0.7,0.4,1.4,1,1.7l15.3,8.9c1.5,0.7,3.2,0.7,4.6,0l15.7-8.9
	c0.4-0.2,0.6-0.6,0.7-1.1V20.1z"/>
<linearGradient id="SVGID_00000103986688636191369800000014826415132238171054_" gradientUnits="userSpaceOnUse" x1="4.4746" y1="1067.5126" x2="39.202" y2="1087.8821" gradientTransform="matrix(1 0 0 1 0 -1066.6459)">
	<stop  offset="0" style="stop-color:#4B4B71"/>
	<stop  offset="1" style="stop-color:#5C629E"/>
</linearGradient>
<path style="fill:url(#SVGID_00000103986688636191369800000014826415132238171054_);" d="M28.1,3.2c-1.5-0.7-3.2-0.7-4.6,0L8.2,12
	c-1.3,0.7-1.3,1.9,0,2.7l15.3,8.8c1.5,0.7,3.2,0.7,4.6,0l15.2-8.8c0.7-0.3,1.1-1.1,0.9-1.8c-0.1-0.4-0.5-0.7-0.9-0.9L28.1,3.2z"/>
<g>
	<ellipse class="st45" cx="25.7" cy="13.4" rx="12.6" ry="7.5"/>
	<ellipse class="st46" cx="25.7" cy="13.4" rx="12.4" ry="7.4"/>
	<path class="st47" d="M17.9,17.6c0.2-1.2,1.2-7.1,3.8-8.7c2.9-1.8,7.7-1.8,10.7,0s2.9,4.6,0,6.4C29.8,17,19.9,17.5,17.9,17.6z"/>
	<path class="st48" d="M32.2,9.1c2.8,1.7,2.8,4.5,0,6.2c-2.5,1.5-11.5,2.1-14,2.2c0.2-1.5,1.3-6.9,3.7-8.4
		C24.8,7.4,29.4,7.4,32.2,9.1 M32.7,8.9c-3.1-1.8-8-1.8-11.1,0s-4,9-4,9s12-0.5,15-2.4C35.6,13.6,35.7,10.6,32.7,8.9L32.7,8.9z"/>
	<path class="st46" d="M23,13.1l-0.9-0.6l4.1-2.5l0.9,0.6L23,13.1z M26.4,13.4L25,14.2l-0.9-0.6l4.1-2.5l1.5,0.9
		c1,0.6,1.1,1.2,0.2,1.7c-0.4,0.2-0.9,0.4-1.5,0.3c-0.6,0-1.1-0.2-1.6-0.5L26.4,13.4z M28.4,12.1l-1.3,0.8l0.4,0.2
		c0.5,0.3,1,0.3,1.4,0.1c0.4-0.3,0.4-0.5-0.1-0.8C28.8,12.4,28.4,12.1,28.4,12.1z"/>
</g>
</svg>
