<?xml version="1.0" encoding="utf-8"?>
<!-- Generator: Adobe Illustrator 26.2.1, SVG Export Plug-In . SVG Version: 6.00 Build 0)  -->
<svg version="1.1" id="图层_1" xmlns="http://www.w3.org/2000/svg" xmlns:xlink="http://www.w3.org/1999/xlink" x="0px" y="0px"
	 viewBox="0 0 50 46" style="enable-background:new 0 0 50 46;" xml:space="preserve">
<style type="text/css">
	.st0{fill:#FFFFFF;fill-opacity:0;}
	.st1{opacity:2.000000e-02;fill:#FAFAFD;enable-background:new    ;}
	.st2{opacity:5.000000e-02;fill:#F5F6FA;enable-background:new    ;}
	.st3{opacity:7.000000e-02;fill:#EFF1F8;enable-background:new    ;}
	.st4{opacity:0.1;fill:#EAEDF6;enable-background:new    ;}
	.st5{opacity:0.12;fill:#E5E8F4;enable-background:new    ;}
	.st6{opacity:0.15;fill:#E0E3F1;enable-background:new    ;}
	.st7{opacity:0.17;fill:#DADFEF;enable-background:new    ;}
	.st8{opacity:0.2;fill:#D5DAED;enable-background:new    ;}
	.st9{opacity:0.22;fill:#D0D6EB;enable-background:new    ;}
	.st10{opacity:0.24;fill:#CBD1E8;enable-background:new    ;}
	.st11{opacity:0.27;fill:#C5CCE6;enable-background:new    ;}
	.st12{opacity:0.29;fill:#C0C8E4;enable-background:new    ;}
	.st13{opacity:0.32;fill:#BBC3E2;enable-background:new    ;}
	.st14{opacity:0.34;fill:#B6BEDF;enable-background:new    ;}
	.st15{opacity:0.37;fill:#B0BADD;enable-background:new    ;}
	.st16{opacity:0.39;fill:#ABB5DB;enable-background:new    ;}
	.st17{opacity:0.41;fill:#A6B1D8;enable-background:new    ;}
	.st18{opacity:0.44;fill:#A1ACD6;enable-background:new    ;}
	.st19{opacity:0.46;fill:#9BA7D4;enable-background:new    ;}
	.st20{opacity:0.49;fill:#96A3D2;enable-background:new    ;}
	.st21{opacity:0.51;fill:#919ECF;enable-background:new    ;}
	.st22{opacity:0.54;fill:#8C9ACD;enable-background:new    ;}
	.st23{opacity:0.56;fill:#8695CB;enable-background:new    ;}
	.st24{opacity:0.59;fill:#8190C9;enable-background:new    ;}
	.st25{opacity:0.61;fill:#7C8CC6;enable-background:new    ;}
	.st26{opacity:0.63;fill:#7787C4;enable-background:new    ;}
	.st27{opacity:0.66;fill:#7183C2;enable-background:new    ;}
	.st28{opacity:0.68;fill:#6C7EBF;enable-background:new    ;}
	.st29{opacity:0.71;fill:#6779BD;enable-background:new    ;}
	.st30{opacity:0.73;fill:#6275BB;enable-background:new    ;}
	.st31{opacity:0.76;fill:#5C70B9;enable-background:new    ;}
	.st32{opacity:0.78;fill:#576BB6;enable-background:new    ;}
	.st33{opacity:0.8;fill:#5267B4;enable-background:new    ;}
	.st34{opacity:0.83;fill:#4D62B2;enable-background:new    ;}
	.st35{opacity:0.85;fill:#475EB0;enable-background:new    ;}
	.st36{opacity:0.88;fill:#4259AD;enable-background:new    ;}
	.st37{opacity:0.9;fill:#3D54AB;enable-background:new    ;}
	.st38{opacity:0.93;fill:#3850A9;enable-background:new    ;}
	.st39{opacity:0.95;fill:#324BA7;enable-background:new    ;}
	.st40{opacity:0.98;fill:#2D47A4;enable-background:new    ;}
	.st41{fill:#2842A2;}
	.st42{fill:url(#SVGID_1_);}
	.st43{fill:url(#SVGID_00000044871714141087869860000013923025757138164869_);}
</style>
<g id="图层_2_00000086667815767904590410000017869858494671776128_">
	<g id="Graphics">
		<g id="Layer_14">
			<path class="st0" d="M28.6,17.5c-1.8-0.9-3.8-0.9-5.6,0L4.6,28c-1.5,0.9-1.5,2.3,0,3.2l18.5,10.7c1.8,0.9,3.8,0.9,5.6,0L47,31.3
				c1.5-0.9,1.5-2.3,0-3.2L28.6,17.5z"/>
			<path class="st1" d="M28.5,41.8c-1.7,0.9-3.8,0.9-5.5,0L4.7,31.2c-1.5-0.9-1.1-2.5,0.4-3.4l18-10.3c1.7-0.9,3.8-0.9,5.5,0
				l18.3,10.6c1.5,0.9,1.1,2.5-0.4,3.4L28.5,41.8z"/>
			<path class="st2" d="M28.5,41.8c-1.7,0.8-3.7,0.8-5.4,0L4.8,31.2c-1.4-0.9-0.7-2.6,0.8-3.5l17.6-10c1.7-0.8,3.7-0.8,5.4,0
				l18.2,10.5c1.5,0.9,0.7,2.6-0.7,3.5C46,31.7,28.5,41.8,28.5,41.8z"/>
			<path class="st3" d="M28.4,41.7c-1.7,0.8-3.6,0.8-5.2,0L4.9,31.1c-1.4-0.8-0.3-2.8,1.1-3.6l17.1-9.8c1.7-0.8,3.6-0.8,5.2,0
				l18.1,10.5c1.4,0.8,0.3,2.8-1.1,3.6C45.5,31.9,28.4,41.7,28.4,41.7z"/>
			<path class="st4" d="M28.3,41.6c-1.6,0.8-3.5,0.8-5.1,0L5.1,31.1c-1.4-0.8,0.1-3,1.5-3.8l16.7-9.5c1.6-0.8,3.5-0.8,5.1,0l18,10.4
				c1.4,0.8-0.1,3-1.5,3.8C45,32,28.4,41.6,28.3,41.6z"/>
			<path class="st5" d="M28.3,41.5c-1.6,0.8-3.4,0.8-5,0L5.2,31.1c-1.4-0.8,0.5-3.1,1.9-3.9c0,0,16.2-9.3,16.3-9.3
				c1.6-0.8,3.4-0.8,5,0l18,10.4c1.3,0.8-0.5,3.1-1.8,3.9C44.5,32.2,28.3,41.5,28.3,41.5z"/>
			<path class="st6" d="M28.2,41.4c-1.5,0.8-3.3,0.8-4.9,0L5.3,31c-1.3-0.8,0.9-3.3,2.2-4c0,0,15.8-9,15.9-9c1.5-0.8,3.4-0.8,4.9,0
				l17.9,10.3c1.3,0.8-0.9,3.3-2.2,4C44,32.4,28.3,41.4,28.2,41.4z"/>
			<path class="st7" d="M28.1,41.3c-1.5,0.7-3.3,0.7-4.8,0L5.5,31c-1.3-0.7,1.3-3.4,2.6-4.1l15.4-8.8c1.5-0.7,3.3-0.7,4.8,0
				l17.8,10.3c1.3,0.7-1.3,3.4-2.6,4.2C43.5,32.5,28.2,41.3,28.1,41.3z"/>
			<path class="st8" d="M28.1,41.3c-1.5,0.7-3.2,0.7-4.6,0L5.6,30.9c-1.2-0.7,1.7-3.6,3-4.3c0,0,14.9-8.5,15-8.5
				c1.5-0.7,3.2-0.7,4.7,0L46,28.3c1.2,0.7-1.7,3.6-2.9,4.3C43,32.7,28.2,41.3,28.1,41.3z"/>
			<path class="st9" d="M28,41.2c-1.4,0.7-3.1,0.7-4.5,0L5.7,30.9c-1.2-0.7,2.1-3.7,3.3-4.4c0,0,14.5-8.3,14.6-8.3
				c1.4-0.7,3.1-0.7,4.6,0l17.6,10.2c1.2,0.7-2.1,3.7-3.3,4.4C42.5,32.9,28.1,41.2,28,41.2z"/>
			<path class="st10" d="M27.9,41.1c-1.4,0.7-3,0.7-4.4,0L5.9,30.9c-1.2-0.7,2.5-3.9,3.7-4.6c0,0,14-8,14.1-8c1.4-0.7,3-0.7,4.4,0
				l17.5,10.2c1.2,0.7-2.5,3.9-3.7,4.6C42,33.1,28,41.1,27.9,41.1z"/>
			<path class="st11" d="M27.9,41c-1.4,0.6-2.9,0.6-4.3,0L6,30.8c-1.1-0.6,2.9-4,4.1-4.7c0,0,13.6-7.8,13.7-7.8
				c1.4-0.7,2.9-0.7,4.3,0l17.5,10.1c1.1,0.6-2.9,4-4,4.7C41.5,33.2,28,41,27.9,41z"/>
			<path class="st12" d="M27.8,40.9c-1.3,0.6-2.9,0.6-4.2,0L6.1,30.8C5,30.2,9.4,26.6,10.5,26c0,0,13.1-7.5,13.3-7.5
				c1.3-0.6,2.9-0.6,4.2,0l17.4,10.1c1.1,0.6-3.3,4.2-4.4,4.8C41,33.4,27.9,40.9,27.8,40.9z"/>
			<path class="st13" d="M27.7,40.8c-1.3,0.6-2.8,0.6-4.1,0l-17.4-10c-1.1-0.6,3.8-4.3,4.8-4.9c0,0,12.7-7.2,12.9-7.2
				c1.3-0.6,2.8-0.6,4.1,0l17.3,10c1,0.6-3.7,4.4-4.8,5C40.5,33.6,27.9,40.8,27.7,40.8z"/>
			<path class="st14" d="M27.7,40.8c-1.3,0.6-2.7,0.6-4,0L6.4,30.7c-1-0.6,4.2-4.5,5.2-5.1c0,0,12.3-7,12.4-7c1.3-0.6,2.7-0.6,4,0
				l17.1,10.1c1,0.6-4.1,4.5-5.2,5.1C40,33.8,27.8,40.8,27.7,40.8z"/>
			<path class="st15" d="M27.6,40.7c-1.2,0.6-2.6,0.6-3.8,0l-17.3-10c-1-0.6,4.6-4.6,5.6-5.2c0,0,11.8-6.7,12-6.7
				c1.2-0.6,2.6-0.6,3.8,0L45,28.7c1,0.6-4.5,4.7-5.5,5.2C39.5,33.9,27.8,40.7,27.6,40.7z"/>
			<path class="st16" d="M27.5,40.6c-1.2,0.5-2.5,0.5-3.7,0L6.6,30.7c-0.9-0.5,5-4.8,5.9-5.3c0,0,11.4-6.5,11.6-6.5
				c1.2-0.5,2.6-0.5,3.7,0.1l17.1,9.9c0.9,0.5-5,4.8-5.9,5.4C39,34.1,27.7,40.6,27.5,40.6z"/>
			<path class="st17" d="M27.4,40.5c-1.1,0.5-2.5,0.5-3.6-0.1L6.7,30.6c-0.9-0.5,5.4-5,6.3-5.5c0,0,10.9-6.2,11.1-6.2
				c1.2-0.5,2.5-0.5,3.6,0.1l17,9.8c0.9,0.5-5.3,5-6.2,5.5C38.5,34.3,27.6,40.5,27.4,40.5z"/>
			<path class="st18" d="M27.4,40.4c-1.1,0.5-2.4,0.5-3.5,0l-17-9.8c-0.9-0.5,5.8-5.1,6.7-5.6c0,0,10.5-6,10.7-6
				c1.1-0.5,2.4-0.5,3.5,0.1l16.9,9.8c0.9,0.5-5.8,5.1-6.6,5.6C38,34.5,27.6,40.4,27.4,40.4z"/>
			<path class="st19" d="M27.3,40.4c-1.1,0.5-2.3,0.5-3.4-0.1L7,30.5c-0.8-0.5,6.2-5.3,7-5.7c0,0,10.1-5.7,10.3-5.7
				c1.1-0.5,2.3-0.4,3.4,0.1l16.8,9.7c0.8,0.5-6.2,5.3-7,5.8C37.5,34.7,27.5,40.4,27.3,40.4z"/>
			<path class="st20" d="M27.3,40.3c-1,0.4-2.2,0.4-3.2-0.1l-17-9.7c-0.8-0.5,6.6-5.4,7.4-5.9c0,0,9.6-5.5,9.8-5.5
				c1-0.4,2.2-0.4,3.3,0.1l16.8,9.7c0.8,0.5-6.6,5.5-7.4,5.9C37,34.8,27.5,40.3,27.3,40.3z"/>
			<path class="st21" d="M27.2,40.2c-1,0.4-2.1,0.4-3.1-0.1L7.3,30.4c-0.8-0.4,7-5.6,7.8-6c0,0,9.2-5.2,9.4-5.2
				c1-0.4,2.2-0.4,3.1,0.1l16.7,9.6c0.8,0.4-7,5.6-7.7,6C36.5,35,27.4,40.2,27.2,40.2z"/>
			<path class="st22" d="M27.1,40.1c-1,0.4-2.1,0.4-3-0.1L7.4,30.4c-0.7-0.4,7.4-5.7,8.1-6.1c0,0,8.7-5,9-5c1-0.4,2.1-0.4,3,0.1
				L44.1,29c0.7,0.4-7.4,5.8-8.1,6.2C36,35.2,27.3,40.1,27.1,40.1z"/>
			<path class="st23" d="M27,40c-0.9,0.4-2,0.4-2.9-0.1L7.5,30.4c-0.7-0.4,7.8-5.9,8.5-6.3c0,0,8.3-4.7,8.5-4.7
				c0.9-0.4,2-0.3,2.9,0.1L44,29c0.7,0.4-7.8,5.9-8.5,6.3C35.5,35.3,27.3,40,27,40z"/>
			<path class="st24" d="M27,39.9c-0.9,0.4-1.9,0.3-2.8-0.1L7.7,30.3c-0.6-0.4,8.2-6,8.9-6.4c0,0,7.8-4.5,8.1-4.5
				c0.9-0.4,1.9-0.3,2.8,0.1L43.8,29c0.6,0.4-8.2,6.1-8.8,6.4C35,35.5,27.2,39.9,27,39.9z"/>
			<path class="st25" d="M26.9,39.9c-0.9,0.3-1.8,0.3-2.7-0.1L7.8,30.3c-0.6-0.4,8.6-6.2,9.2-6.5c0,0,7.4-4.2,7.7-4.2
				c0.9-0.3,1.8-0.3,2.7,0.1l16.3,9.4c0.6,0.4-8.6,6.2-9.2,6.6C34.5,35.7,27.2,39.9,26.9,39.9z"/>
			<path class="st26" d="M26.8,39.8c-0.8,0.3-1.7,0.3-2.6-0.1L7.9,30.2c-0.6-0.3,9-6.4,9.6-6.7c0,0,7-3.9,7.2-3.9
				c0.8-0.3,1.7-0.3,2.5,0.1l16.3,9.4c0.6,0.3-9,6.4-9.6,6.7C34,35.8,27.1,39.8,26.8,39.8z"/>
			<path class="st27" d="M26.8,39.7C26,40,25.1,40,24.4,39.6L8.1,30.2c-0.5-0.3,9.5-6.5,10-6.8c0,0,6.5-3.7,6.8-3.7
				c0.8-0.3,1.7-0.3,2.4,0.1l16.2,9.4c0.5,0.3-9.4,6.5-9.9,6.8C33.5,36,27.1,39.7,26.8,39.7z"/>
			<path class="st28" d="M26.7,39.6c-0.7,0.3-1.6,0.2-2.3-0.1L8.2,30.2c-0.5-0.3,9.9-6.6,10.4-6.9c0,0,6.1-3.3,6.4-3.4
				c0.7-0.3,1.6-0.3,2.3,0.1l16.1,9.2c0.5,0.3-9.8,6.7-10.3,7C33,36.2,27,39.6,26.7,39.6z"/>
			<path class="st29" d="M26.6,39.5c-0.7,0.3-1.5,0.2-2.2-0.1L8.3,30.1C7.9,29.8,18.6,23.3,19,23l5.9-3.2c0.7-0.3,1.5-0.3,2.2,0.1
				l16,9.3c0.5,0.3-10.2,6.8-10.7,7.1C32.5,36.4,26.9,39.5,26.6,39.5z"/>
			<path class="st30" d="M26.6,39.5c-0.7,0.2-1.4,0.2-2.1-0.1L8.4,30.1c-0.4-0.2,10.7-7,11.1-7.2c0,0,5.2-2.8,5.5-2.9
				c0.7-0.3,1.4-0.2,2.1,0.1l16,9.2c0.4,0.2-10.6,7-11,7.2C32,36.5,26.9,39.5,26.6,39.5z"/>
			<path class="st31" d="M26.5,39.4c-0.7,0.2-1.4,0.2-2-0.1l-16-9.2c-0.4-0.2,11.1-7.1,11.4-7.3c0,0,4.8-2.5,5.1-2.7
				c0.6-0.3,1.4-0.2,2,0.1l15.9,9.2c0.4,0.2-11,7.2-11.4,7.4C31.5,36.7,26.8,39.4,26.5,39.4z"/>
			<path class="st32" d="M26.4,39.3c-0.6,0.2-1.3,0.2-1.8-0.1L8.7,30c-0.3-0.2,11.5-7.3,11.8-7.5c0,0,4.4-2.3,4.7-2.4
				c0.6-0.2,1.3-0.2,1.9,0.1l15.8,9.1c0.3,0.2-11.4,7.3-11.8,7.5C31,36.9,26.8,39.3,26.4,39.3z"/>
			<path class="st33" d="M26.4,39.2c-0.6,0.2-1.2,0.1-1.7-0.1L8.8,30c-0.3-0.2,11.9-7.4,12.2-7.6c0,0,3.9-2,4.2-2.2
				c0.6-0.2,1.2-0.2,1.7,0.1l15.7,9.1c0.3,0.2-11.8,7.5-12.1,7.6C29.2,37.8,27.8,38.6,26.4,39.2z"/>
			<path class="st34" d="M26.3,39.1c-0.5,0.1-1.1,0.1-1.6-0.1L9,29.9c-0.3-0.1,12.3-7.6,12.6-7.7c0,0,3.5-1.8,3.8-1.9
				c0.5-0.2,1.1-0.1,1.6,0.1l15.6,9c0.3,0.1-12.2,7.6-12.5,7.8C28.8,37.9,27.6,38.6,26.3,39.1z"/>
			<path class="st35" d="M26.2,39c-0.5,0.1-1,0.1-1.5-0.1l-15.6-9C8.9,29.8,21.8,22.2,22,22c0,0,3-1.5,3.4-1.6
				c0.5-0.2,1-0.1,1.5,0.1l15.6,9c0.2,0.1-12.6,7.8-12.9,7.9C28.5,38.1,27.4,38.6,26.2,39z"/>
			<path class="st36" d="M26.2,39c-0.5,0.1-0.9,0.1-1.4-0.1l-15.6-9c-0.2-0.1,13.1-7.9,13.3-8s2.6-1.3,2.9-1.4
				c0.5-0.1,0.9-0.1,1.4,0.1l15.5,8.9c0.2,0.1-13.1,7.9-13.2,8C28.1,38.1,27.2,38.6,26.2,39z"/>
			<path class="st37" d="M26.1,38.9c-0.4,0.1-0.9,0-1.3-0.1l-15.5-9c-0.2-0.1,13.5-8,13.7-8.1s2.1-1,2.5-1.1s0.9-0.1,1.3,0.1
				l15.4,8.9c0.2,0.1-13.5,8.1-13.6,8.2C27.8,38.2,27,38.6,26.1,38.9z"/>
			<path class="st38" d="M26,38.8c-0.4,0.1-0.8,0-1.1-0.1L9.5,29.8c-0.1-0.1,13.9-8.2,14-8.3c0.7-0.3,1.4-0.6,2.1-0.8
				c0.4-0.1,0.8,0,1.1,0.1L42,29.6c0.1,0.1-13.9,8.2-14,8.3C27.4,38.3,26.7,38.6,26,38.8z"/>
			<path class="st39" d="M25.9,38.7c-0.3,0-0.7,0-1-0.1L9.6,29.7c-0.1,0,14.3-8.4,14.4-8.4c0.5-0.3,1.1-0.5,1.6-0.7
				c0.3,0,0.7,0,1,0.1l15.3,8.9c0.1,0-14.3,8.4-14.4,8.4C27.1,38.4,26.5,38.6,25.9,38.7z"/>
			<path class="st40" d="M25.9,38.7c-0.3,0-0.6,0-0.9-0.1L9.7,29.7l14.8-8.5c0.4-0.2,0.8-0.3,1.2-0.4c0.3,0,0.6,0,0.9,0.1l15.2,8.8
				c0,0-14.7,8.5-14.7,8.6C26.7,38.5,26.3,38.6,25.9,38.7z"/>
			<path class="st41" d="M25.8,38.5c-0.3,0-0.5,0-0.8-0.1L9.9,29.7L25,21c0.3-0.1,0.5-0.1,0.8-0.1s0.5,0,0.8,0.1l15.1,8.7l-15.1,8.8
				C26.3,38.5,26.1,38.6,25.8,38.5z"/>
			
				<linearGradient id="SVGID_1_" gradientUnits="userSpaceOnUse" x1="7.1022" y1="1063.8959" x2="44.4164" y2="1063.8959" gradientTransform="matrix(1 0 0 1 0 -1034.6459)">
				<stop  offset="0" style="stop-color:#5C629E"/>
				<stop  offset="1" style="stop-color:#48486A"/>
			</linearGradient>
			<path class="st42" d="M44.5,27.2c0-0.1,0-0.1,0-0.2l-0.1-6.6l-14-0.1l-0.6-0.4c-1.5-0.7-3.2-0.7-4.6,0l-0.7,0.3L7.2,20.1L7.3,28
				c0,0.7,0.4,1.4,1,1.7l15.3,8.9c1.5,0.7,3.2,0.7,4.6,0l15.7-8.9c0.4-0.2,0.7-0.6,0.7-1.1v-1.4H44.5z"/>
			
				<linearGradient id="SVGID_00000152944620939650604490000012348737812048016270_" gradientUnits="userSpaceOnUse" x1="4.5036" y1="1042.5576" x2="39.1636" y2="1062.8876" gradientTransform="matrix(1 0 0 1 0 -1034.6459)">
				<stop  offset="0" style="stop-color:#4B4B71"/>
				<stop  offset="1" style="stop-color:#5C629E"/>
			</linearGradient>
			<path style="fill:url(#SVGID_00000152944620939650604490000012348737812048016270_);" d="M28.1,10.2c-1.5-0.7-3.2-0.7-4.6,0
				L8.2,19c-1.3,0.7-1.3,1.9,0,2.7l15.3,8.8c1.5,0.7,3.2,0.7,4.6,0l15.2-8.8c0.7-0.3,1.1-1.1,0.9-1.8c-0.1-0.4-0.5-0.7-0.9-0.9
				L28.1,10.2z"/>
		</g>
	</g>
</g>
</svg>
