<svg width="78" height="18" viewBox="0 0 78 18" fill="none" xmlns="http://www.w3.org/2000/svg"><path fill-rule="evenodd" clip-rule="evenodd" d="M51.401 1.7h9.274v13.7h1.223v1.3h-2.752V9.1h-3.465V17h-1.528V9.1h-3.261V7.8h3.26V3h-2.75V1.7zM55.58 3v4.6h.102v.2h3.465V3H55.58z" fill="#253554"/><path d="M35.197 13.3h7.236v1.3h-7.236v-1.3z" fill="#253554"/><path fill-rule="evenodd" clip-rule="evenodd" d="M30.204 10.9c0 2.3-.102 4.2-.612 5.7 0 .05 0 .075.013.087.012.013.038.013.09.013h1.324c.51-2.2.51-4 .51-5.3h1.834v4H32.14c-.051 0-.077 0-.09.013-.012.012-.012.037-.012.087l.408 1.2h2.344v-15h-4.484l-.102 9.2zm1.427-.6v-3h1.834v3.2H31.63v-.2zm1.834-4.2V3H31.63v3.1h1.835zm11.21.9h-1.732c.815 1.1 1.732 1.6 2.343 1.8v1.3c0 .1-.102.1-.203 0-.612-.2-1.223-.7-1.835-1.2v2.4h1.63v5.6h-4.28l-.407-1.2c0-.05 0-.075.012-.087.013-.013.038-.013.09-.013h2.955v-3.2h-6.726c-.051 0-.077 0-.09-.013-.012-.012-.012-.037-.012-.087l.102-2.2h1.223c.051 0 .077 0 .09.013.012.012.012.037.012.087l-.102 1.1h3.873V9.5h-4.994c-.306.4-.815.8-1.223.9-.102.1-.204.1-.204 0V9.1l.17-.122a8.345 8.345 0 001.97-1.878h-2.14V5.9h2.752c.278-.273.388-.712.482-1.09l.027-.11h-2.853V3.5h1.223c-.306-.7-.51-1.5-.51-1.6 0-.05 0-.075.013-.087.012-.013.038-.013.09-.013h1.12l.51 1.7h.917c.306-.7.408-1.5.51-2.4H40.7c.052 0 .077 0 .09.013.012.012.012.037.012.087-.181.623-.282 1.326-.374 1.966-.01.08-.022.157-.033.234h1.63l.51-1.7h1.12c.052 0 .078 0 .09.013.013.012.013.037.013.087 0 0-.408.9-.51 1.6h1.223v1.2h-4.484c-.278.273-.388.712-.482 1.09l-.028.11h5.198V7zM42.33 8.3c-.408-.3-.815-.8-1.02-1.3h-2.343c-.204.2-.357.425-.51.65-.152.225-.305.45-.51.65h4.383z" fill="#253554"/><path d="M52.216 12.4l-2.446 1.8V5.8h-3.26v1.5h1.834v8.1c-.51.4-.918.5-.918.5l.918 1.1 3.974-2.9-.102-1.7c.204-.1.306 0 0 0zm-3.669-7.9h1.427c.204 0 .204-.1.204-.1L48.14 1.3h-1.53l-.102.1c.102.1 2.038 3.1 2.038 3.1zM64.853 2h11.414v1.5H64.853zm4.179 6.9H78V7.4H63.223v1.5h4.076c-.917 2.2-2.853 7.6-2.955 7.7 0 .1 0 .1.102.1h12.738c.102 0 .102-.1.102-.1l-1.834-4.9h-1.529c-.102 0-.102.1-.102.1 0 .1 1.325 3.5 1.325 3.5H66.79l2.242-6.4z" fill="#253554"/><path fill-rule="evenodd" clip-rule="evenodd" d="M19.503 6.4c1.631 0 3.16.7 4.179 1.8 2.242 2.2 2.242 5.9-.102 8.1a6.323 6.323 0 01-3.77 1.6c-.612.1-1.224.1-2.039.1H6.663c-.51 0-1.121 0-1.63-.1 0 0 8.764-8.4 9.171-8.8.32-.377.68-.674 1.005-.943.192-.16.372-.308.524-.457 1.12-.8 2.344-1.3 3.77-1.3zm-.203 9.3c1.427 0 2.242-.6 2.65-1 1.426-1.3 1.426-3.6 0-4.9-.714-.6-1.53-1-2.548-1-.714 0-1.529.1-2.548 1-.51.4-1.02.9-1.223 1.1-.102.1-.713.675-1.63 1.537-.918.863-2.14 2.013-3.466 3.263H19.3z" fill="#00A4FF"/><path d="M9.414 7.6c-1.12-.8-2.242-1.2-3.567-1.2-1.63 0-3.159.7-4.178 1.8-2.242 2.3-2.242 5.9.102 8.2 1.019.9 2.038 1.4 3.261 1.5l2.344-2.2H6.051c-1.325-.1-2.14-.5-2.65-1a3.546 3.546 0 01-.101-5c.713-.7 1.528-1 2.547-1 .612 0 1.529.1 2.446 1 .408.4 1.529 1.2 1.937 1.6h.101l1.53-1.5v-.1c-.714-.7-1.835-1.6-2.447-2.1z" fill="#00C7D9"/><path d="M20.115 5.1c-1.121-3-4.077-5.1-7.44-5.1A7.848 7.848 0 004.93 6.5c.306 0 .612-.1 1.02-.1.407 0 .916.1 1.324.1.51-2.5 2.752-4.3 5.401-4.3a5.65 5.65 0 015.096 3.2s.102.1.102 0c.713-.1 1.528-.3 2.242-.3 0 .1 0 .1 0 0z" fill="#006EFF"/></svg>