<?xml version="1.0" encoding="utf-8"?>
<!-- Generator: Adobe Illustrator 26.2.1, SVG Export Plug-In . SVG Version: 6.00 Build 0)  -->
<svg version="1.1" id="图层_1" xmlns="http://www.w3.org/2000/svg" xmlns:xlink="http://www.w3.org/1999/xlink" x="0px" y="0px"
	 viewBox="0 0 28.5 29" style="enable-background:new 0 0 28.5 29;" xml:space="preserve">
<style type="text/css">
	.st0{fill:#FFFFFF;fill-opacity:0;}
	.st1{opacity:2.000000e-02;fill:#FAFAFD;enable-background:new    ;}
	.st2{opacity:5.000000e-02;fill:#F5F6FA;enable-background:new    ;}
	.st3{opacity:7.000000e-02;fill:#EFF1F8;enable-background:new    ;}
	.st4{opacity:0.1;fill:#EAEDF6;enable-background:new    ;}
	.st5{opacity:0.12;fill:#E5E8F4;enable-background:new    ;}
	.st6{opacity:0.15;fill:#E0E3F1;enable-background:new    ;}
	.st7{opacity:0.17;fill:#DADFEF;enable-background:new    ;}
	.st8{opacity:0.2;fill:#D5DAED;enable-background:new    ;}
	.st9{opacity:0.22;fill:#D0D6EB;enable-background:new    ;}
	.st10{opacity:0.24;fill:#CBD1E8;enable-background:new    ;}
	.st11{opacity:0.27;fill:#C5CCE6;enable-background:new    ;}
	.st12{opacity:0.29;fill:#C0C8E4;enable-background:new    ;}
	.st13{opacity:0.32;fill:#BBC3E2;enable-background:new    ;}
	.st14{opacity:0.34;fill:#B6BEDF;enable-background:new    ;}
	.st15{opacity:0.37;fill:#B0BADD;enable-background:new    ;}
	.st16{opacity:0.39;fill:#ABB5DB;enable-background:new    ;}
	.st17{opacity:0.41;fill:#A6B1D8;enable-background:new    ;}
	.st18{opacity:0.44;fill:#A1ACD6;enable-background:new    ;}
	.st19{opacity:0.46;fill:#9BA7D4;enable-background:new    ;}
	.st20{opacity:0.49;fill:#96A3D2;enable-background:new    ;}
	.st21{opacity:0.51;fill:#919ECF;enable-background:new    ;}
	.st22{opacity:0.54;fill:#8C9ACD;enable-background:new    ;}
	.st23{opacity:0.56;fill:#8695CB;enable-background:new    ;}
	.st24{opacity:0.59;fill:#8190C9;enable-background:new    ;}
	.st25{opacity:0.61;fill:#7C8CC6;enable-background:new    ;}
	.st26{opacity:0.63;fill:#7787C4;enable-background:new    ;}
	.st27{opacity:0.66;fill:#7183C2;enable-background:new    ;}
	.st28{opacity:0.68;fill:#6C7EBF;enable-background:new    ;}
	.st29{opacity:0.71;fill:#6779BD;enable-background:new    ;}
	.st30{opacity:0.73;fill:#6275BB;enable-background:new    ;}
	.st31{opacity:0.76;fill:#5C70B9;enable-background:new    ;}
	.st32{opacity:0.78;fill:#576BB6;enable-background:new    ;}
	.st33{opacity:0.8;fill:#5267B4;enable-background:new    ;}
	.st34{opacity:0.83;fill:#4D62B2;enable-background:new    ;}
	.st35{opacity:0.85;fill:#475EB0;enable-background:new    ;}
	.st36{opacity:0.88;fill:#4259AD;enable-background:new    ;}
	.st37{opacity:0.9;fill:#3D54AB;enable-background:new    ;}
	.st38{opacity:0.93;fill:#3850A9;enable-background:new    ;}
	.st39{opacity:0.95;fill:#324BA7;enable-background:new    ;}
	.st40{opacity:0.98;fill:#2D47A4;enable-background:new    ;}
	.st41{fill:#2842A2;}
	.st42{fill:#F6F8FB;}
	.st43{fill:#FFFFFF;}
	.st44{fill:#D3DAED;}
	.st45{fill:url(#SVGID_1_);}
	.st46{fill:url(#SVGID_00000101788205922751626180000006649001873721908361_);}
	.st47{fill-rule:evenodd;clip-rule:evenodd;fill:#7AA116;}
	.st48{enable-background:new    ;}
	.st49{clip-path:url(#SVGID_00000133528164852483599040000008478649735914670268_);}
	.st50{fill:#7AA116;}
</style>
<g id="图层_2_00000046330348558547762740000008679355811068883877_">
	<g id="Graphics">
		<g id="Layer_18">
			<path class="st0" d="M4.2,26.6c5.6,3.2,14.6,3.2,20.2,0s5.6-8.4,0-11.6S9.8,11.8,4.2,15S-1.4,23.4,4.2,26.6z"/>
			<ellipse class="st1" cx="14.2" cy="20.8" rx="14" ry="8.1"/>
			<ellipse class="st2" cx="14.2" cy="20.8" rx="13.7" ry="7.9"/>
			<path class="st3" d="M4.7,26.2c5.2,3,13.8,3,19,0s5.2-7.9,0-11s-13.8-3-19,0S-0.5,23.2,4.7,26.2z"/>
			<path class="st4" d="M4.9,26.1c5.1,3,13.5,3,18.6,0s5.1-7.8,0-10.8s-13.5-3-18.6,0S-0.2,23.2,4.9,26.1z"/>
			<path class="st5" d="M5.1,26c5,2.9,13.2,2.9,18.2,0s5-7.6,0-10.5s-13.2-2.9-18.2,0S0.1,23.1,5.1,26z"/>
			<path class="st6" d="M5.3,25.9c4.9,2.8,12.9,2.8,17.8,0s4.9-7.5,0-10.3s-12.9-2.8-17.8,0S0.4,23.1,5.3,25.9z"/>
			<path class="st7" d="M5.5,25.8c4.8,2.8,12.6,2.8,17.5,0s4.8-7.3,0-10.1s-12.7-2.7-17.5,0S0.7,23,5.5,25.8z"/>
			<path class="st8" d="M5.7,25.7c4.7,2.7,12.4,2.7,17,0s4.7-7.1,0-9.9s-12.4-2.7-17,0S1,23,5.7,25.7z"/>
			<ellipse class="st9" cx="14.2" cy="20.8" rx="11.8" ry="6.8"/>
			<path class="st10" d="M6.1,25.5c4.5,2.6,11.8,2.6,16.3,0s4.5-6.8,0-9.4s-11.8-2.6-16.3,0S1.6,22.9,6.1,25.5z"/>
			<path class="st11" d="M6.3,25.4c4.4,2.5,11.5,2.5,15.9,0s4.4-6.7,0-9.2s-11.5-2.5-15.9,0S1.9,22.8,6.3,25.4z"/>
			<path class="st12" d="M6.5,25.2c4.9,2.5,10.6,2.5,15.5,0c4.3-2.5,4.3-6.5,0-9c-4.9-2.5-10.6-2.5-15.5,0
				C2.2,18.7,2.2,22.8,6.5,25.2z"/>
			<path class="st13" d="M6.7,25.1c4.8,2.4,10.4,2.4,15.1,0c4.2-2.4,4.2-6.3,0-8.7C17,14,11.4,14,6.7,16.4
				C2.5,18.8,2.5,22.7,6.7,25.1z"/>
			<path class="st14" d="M6.9,25c4.6,2.3,10.1,2.3,14.7,0c4-2.3,4-6.2,0-8.5c-4.6-2.3-10.1-2.3-14.7,0C2.8,18.9,2.8,22.7,6.9,25z"/>
			<path class="st15" d="M7.1,24.9c4.5,2.3,9.8,2.3,14.3,0c4-2.3,4-6,0-8.3c-4.5-2.3-9.8-2.3-14.3,0C3.1,18.9,3.1,22.6,7.1,24.9z"/>
			<path class="st16" d="M7.3,24.8c4.4,2.2,9.6,2.2,14,0c3.8-2.2,3.8-5.8,0-8c-4.4-2.2-9.6-2.2-13.9,0C3.4,19,3.4,22.6,7.3,24.8z"/>
			<path class="st17" d="M7.5,24.7c4.3,2.2,9.3,2.2,13.6,0c3.7-2.1,3.7-5.7,0-7.8c-4.3-2.2-9.3-2.2-13.6,0C3.7,19,3.7,22.5,7.5,24.7
				z"/>
			<path class="st18" d="M7.7,24.6c4.1,2.1,9,2.1,13.2,0c3.6-2.1,3.6-5.5,0-7.6c-4.1-2.1-9-2.1-13.2,0C4,19,4,22.5,7.7,24.6z"/>
			<path class="st19" d="M7.8,24.5c4,2,8.8,2,12.8,0c3.5-2,3.5-5.4,0-7.4c-4-2-8.8-2-12.8,0C4.3,19.1,4.3,22.4,7.8,24.5z"/>
			<ellipse class="st20" cx="14.2" cy="20.8" rx="8.8" ry="5.1"/>
			<path class="st21" d="M8.2,24.2c3.8,1.9,8.2,1.9,12,0c3.3-1.9,3.3-5,0-6.9c-3.8-1.9-8.2-1.9-12,0C4.9,19.2,4.9,22.3,8.2,24.2z"/>
			<path class="st22" d="M8.4,24.1c3.6,1.8,8,1.8,11.6,0c3.2-1.8,3.2-4.9,0-6.7c-3.6-1.8-8-1.8-11.6,0C5.2,19.2,5.2,22.3,8.4,24.1z"
				/>
			<ellipse class="st23" cx="14.2" cy="20.8" rx="7.9" ry="4.6"/>
			<path class="st24" d="M8.8,23.9c3.4,1.7,7.4,1.7,10.8,0c3-1.7,3-4.5,0-6.3c-3.4-1.7-7.4-1.7-10.8,0C5.8,19.4,5.8,22.2,8.8,23.9z"
				/>
			<ellipse class="st25" cx="14.2" cy="20.8" rx="7.4" ry="4.3"/>
			<path class="st26" d="M9.2,23.7c3.1,1.6,6.9,1.6,10,0c2.8-1.6,2.8-4.2,0-5.8c-3.1-1.6-6.9-1.6-10,0C6.4,19.5,6.4,22.1,9.2,23.7z"
				/>
			<path class="st27" d="M9.4,23.5c3,1.5,6.6,1.5,9.7,0c2.7-1.5,2.7-4,0-5.6c-3-1.5-6.6-1.5-9.7,0C6.8,19.5,6.8,22,9.4,23.5z"/>
			<path class="st28" d="M9.6,23.4c2.9,1.5,6.4,1.5,9.3,0c2.5-1.5,2.5-3.9,0-5.4c-2.9-1.5-6.4-1.5-9.3,0C7.1,19.5,7.1,22,9.6,23.4z"
				/>
			<path class="st29" d="M9.8,23.3c2.8,1.4,6.1,1.4,8.9,0c2.5-1.4,2.5-3.7,0-5.1c-2.8-1.4-6.1-1.4-8.9,0C7.3,19.6,7.3,21.9,9.8,23.3
				z"/>
			<path class="st30" d="M10,23.2c2.7,1.3,5.8,1.3,8.5,0c2.3-1.4,2.3-3.6,0-4.9c-2.7-1.3-5.8-1.3-8.5,0C7.7,19.6,7.7,21.9,10,23.2z"
				/>
			<path class="st31" d="M10.2,23.1c2.6,1.3,5.6,1.3,8.1,0c2.2-1.3,2.2-3.4,0-4.7c-2.6-1.3-5.6-1.3-8.1,0C8,19.7,8,21.8,10.2,23.1z"
				/>
			<path class="st32" d="M10.4,23c2.4,1.2,5.3,1.2,7.7,0c2.1-1.2,2.1-3.2,0-4.5c-2.4-1.2-5.3-1.2-7.7,0C8.3,19.8,8.3,21.8,10.4,23z"
				/>
			<path class="st33" d="M10.6,22.9c2.3,1.2,5,1.2,7.3,0c2-1.2,2-3.1,0-4.2c-2.3-1.2-5-1.2-7.3,0C8.6,19.8,8.6,21.7,10.6,22.9z"/>
			<path class="st34" d="M10.8,22.8c2.2,1.1,4.8,1.1,7,0c1.9-1.1,1.9-2.9,0-4c-2.2-1.1-4.8-1.1-6.9,0C8.9,19.9,8.9,21.7,10.8,22.8z"
				/>
			<path class="st35" d="M11,22.6c2.1,1,4.5,1,6.5,0c1.8-1,1.8-2.7,0-3.8c-2.1-1-4.5-1-6.6,0C9.2,19.9,9.2,21.6,11,22.6z"/>
			<path class="st36" d="M11.2,22.5c1.9,1,4.2,1,6.2,0c1.7-1,1.7-2.6,0-3.6c-1.9-1-4.2-1-6.2,0C9.5,20,9.5,21.6,11.2,22.5z"/>
			<path class="st37" d="M11.4,22.4c1.8,0.9,4,0.9,5.8,0c1.6-0.9,1.6-2.4,0-3.3c-1.8-0.9-4-0.9-5.8,0C9.8,20,9.8,21.5,11.4,22.4z"/>
			<path class="st38" d="M11.6,22.3c1.7,0.9,3.7,0.9,5.4,0c1.5-0.9,1.5-2.2,0-3.1c-1.7-0.9-3.7-0.9-5.4,0
				C10.1,20.1,10.1,21.5,11.6,22.3z"/>
			<path class="st39" d="M11.7,22.2c1.6,0.8,3.4,0.8,5,0c1.4-0.8,1.4-2.1,0-2.9c-1.6-0.8-3.4-0.8-5,0C10.4,20.1,10.4,21.4,11.7,22.2
				z"/>
			<ellipse class="st40" cx="14.2" cy="20.8" rx="3.3" ry="1.9"/>
			<path class="st41" d="M12.1,22c1.3,0.7,2.9,0.7,4.2,0c0.7-0.2,1-1,0.8-1.6c-0.1-0.4-0.4-0.7-0.8-0.8c-1.3-0.7-2.9-0.7-4.2,0
				c-0.6,0.3-0.9,1.1-0.6,1.8C11.7,21.6,11.9,21.8,12.1,22z"/>
			<path class="st42" d="M23.9,19.4L23.9,19.4V5.3L6.1,5.1L6.2,20c0.4,1.3,1.3,2.4,2.5,3c4,2,8.6,2,12.6,0c1.2-0.6,2.2-1.7,2.5-3
				L23.9,19.4z"/>
			<ellipse class="st43" cx="15" cy="5.1" rx="8.9" ry="5.1"/>
			<path class="st44" d="M9.4,8.4c3.5,1.8,7.7,1.8,11.3,0c3.1-1.8,3.1-4.7,0-6.5c-3.5-1.8-7.7-1.8-11.3,0C6.3,3.7,6.3,6.6,9.4,8.4z"
				/>
			
				<linearGradient id="SVGID_1_" gradientUnits="userSpaceOnUse" x1="7.18" y1="-44.2625" x2="22.91" y2="-44.2625" gradientTransform="matrix(1 0 0 -1 0 -38)">
				<stop  offset="0" style="stop-color:#D3DAED"/>
				<stop  offset="1" style="stop-color:#99A7D8"/>
			</linearGradient>
			<path class="st45" d="M22.9,5.8c-0.5-0.7-1.2-1.2-1.9-1.6c-3.8-1.9-8.2-1.9-12,0c-0.7,0.4-1.3,1-1.8,1.6c0.4,1.1,1.2,2.1,2.2,2.6
				c3.5,1.8,7.7,1.8,11.3,0C21.7,7.9,22.5,6.9,22.9,5.8z"/>
			
				<linearGradient id="SVGID_00000026875713275182354040000002180990235706900409_" gradientUnits="userSpaceOnUse" x1="6.18" y1="-54.6375" x2="23.94" y2="-54.6375" gradientTransform="matrix(1 0 0 -1 0 -38)">
				<stop  offset="0" style="stop-color:#D3DAED"/>
				<stop  offset="1" style="stop-color:#99A7D8"/>
			</linearGradient>
			<path style="fill:url(#SVGID_00000026875713275182354040000002180990235706900409_);" d="M6.2,17.9c0.5,0.9,1.3,1.7,2.3,2.2
				c4.1,2.1,9,2.1,13.1,0c1-0.5,1.8-1.3,2.3-2.3v-6.2c-0.5,1-1.4,1.8-2.3,2.3c-4.1,2.1-9,2.1-13.1,0c-1-0.5-1.8-1.3-2.3-2.2V17.9z"
				/>
		</g>
	</g>
</g>
<path id="Amazon-Simple-Storage-Service-Glacier_Icon_32_Squid" class="st47" d="M15.6,9v0.3h-0.3V9l-0.4-0.4L14.8,9L15,9.3
	l-0.3,0.1l-0.2-0.2l-0.4,0.1L14,9.1l0.5-0.2l0.1-0.4l-0.5,0.1l-0.3,0.3l-0.2,0l0.2-0.2l-0.4-0.1l0.1-0.2l0.4,0.2l0.5-0.1L14,8.2
	h-0.5V8h0.4V7.7h0.3V8l0.4,0.3l0.3-0.4l-0.2-0.3h0.2l0.2,0.2l0.4-0.1l0.1,0.2l-0.4,0.2l-0.1,0.4l0.5-0.1l0.3-0.3l0.2,0.1l-0.2,0.1
	l0.4,0.1l-0.1,0.2l-0.4-0.2l-0.5,0.1l0.4,0.3h0.5V9H15.6z M16.8,7.7l0.3-0.2C17.3,7.9,17.2,8,17.2,8S17.1,8,16.8,7.7L16.8,7.7z
	 M17.5,4.3c1.3,0.9,2,1.8,1.7,2l0,0l0,0c-0.3,0.1-1.6-0.3-2.9-1.2s-2-1.7-1.8-1.9l0,0C14.7,3,16.1,3.4,17.5,4.3L17.5,4.3z M15.3,5.6
	C15.3,5.6,15.4,5.6,15.3,5.6C15.4,5.6,15.4,5.7,15.3,5.6C15.4,5.7,15.3,5.7,15.3,5.6L15.3,5.6z M17.4,7.4l1.9-0.9l0,0h0.1l0,0
	c0.5-0.4-0.5-1.6-1.7-2.4S14.8,2.7,14.2,3l0,0l0,0l-3.5,3c-0.5,0.3,0.6,1.2,1.4,1.7c0.3,0.2,0.5,0.3,0.8,0.5l0.2-0.1
	c-0.3-0.1-0.6-0.3-0.8-0.5c-1.1-0.7-1.5-1.4-1.4-1.5l3.3-2.8l0,0c0,0,0,0,0,0.1c0,0,0,0,0,0.1c0,0,0,0,0,0.1l0,0l0.1,0.1l0,0
	c0,0,0,0.1,0.1,0.1l0,0l0.1,0.1l0,0c0.1,0.1,0.2,0.2,0.3,0.3l0,0l0.1,0.1l0,0c0.1,0.1,0.3,0.2,0.4,0.3l0,0c0,0,0.1,0.1,0.2,0.1l0,0
	c0.1,0.1,0.2,0.1,0.3,0.2C15.9,5,16,5,16.1,5.1l0,0c0.1,0,0.1,0.1,0.2,0.1l0,0c0.1,0.1,0.3,0.2,0.4,0.2c0,0,0.1,0,0.1,0.1h0.1
	c0.1,0,0.1,0.1,0.2,0.1l0,0c0.5,0.2,1,0.4,1.4,0.5l-2.1,1c-0.4-0.5-0.9-1.3-1.1-1.7l0,0c0.1-0.1,0.1-0.2,0-0.3
	c-0.1-0.1-0.4-0.1-0.5,0s-0.1,0.2,0,0.3c0.4,0.5,0.5,0.5,0.5,0.5c0.2,0.4,0.7,1.2,1.1,1.7l-0.2,0.1l0.2,0.1l0.1-0.1
	C16.7,7.9,16.8,8,16.9,8c0.1,0.1,0.2,0.1,0.3,0.1c0.1,0,0.2,0,0.2-0.1C17.6,8,17.6,7.7,17.4,7.4L17.4,7.4z"/>
<g class="st48">
	<g>
		<defs>
			<path id="SVGID_00000126322468240771628720000012803166466961138590_" d="M6.2,17.2V10c0,0.8,0.3,1.5,0.9,2.3
				c2.3,2.6,7.8,3.6,12.4,2.4c3.3-0.9,5.1-2.7,5.1-4.6v7.2c0,1.9-1.9,3.7-5.1,4.6c-4.6,1.2-10.1,0.2-12.3-2.4
				C6.5,18.8,6.2,18,6.2,17.2z"/>
		</defs>
		<clipPath id="SVGID_00000015345751722202060170000013071933604796250784_">
			<use xlink:href="#SVGID_00000126322468240771628720000012803166466961138590_"  style="overflow:visible;"/>
		</clipPath>
		<g style="clip-path:url(#SVGID_00000015345751722202060170000013071933604796250784_);">
			<path class="st50" d="M9.6,19.6c0,0.1-0.1,0.3-0.4,0.2c-0.1-0.1-0.3-0.1-0.4-0.2c-0.1-0.1-0.1-0.1-0.2-0.2c0-0.1-0.1-0.2-0.1-0.3
				c0-0.2,0-0.2,0.1-0.2c0.1,0,0.7,0.3,0.8,0.3l0.2,0.2C9.5,19.5,9.6,19.5,9.6,19.6 M8.9,17.6c-0.2-0.3-0.2-0.3-0.2-0.5
				s0-0.8,0.1-1.1l0.1-0.1c0.2,0.3,0.2,0.3,0.2,0.5s0.1,0.9,0,1.1L8.9,17.6 M9.9,19.4c0-0.7-0.5-0.9-0.9-1.1c-0.1,0-0.2-0.1-0.3-0.1
				L8.5,18l-0.1-0.2l0.1-0.2h0.1c0.3,0.1,1.2,0.5,1-0.9c0-0.1-0.1-0.2-0.1-0.3c0.1,0,0.3,0.1,0.4,0.1v-0.3C9.7,16.1,9.4,16,9.2,16
				c-0.3-0.2-0.3-0.3-0.5-0.3C8,15.5,7.9,16.4,8.2,17c0.1,0.2,0.2,0.4,0.3,0.5c-0.3,0.1-0.3,0.1-0.4,0.5c0,0.3,0.1,0.4,0.2,0.7
				c-0.2,0-0.2,0-0.3,0.3c0,0.1,0.1,0.2,0.1,0.3c0,0,0,0,0,0.1C8.5,19.6,9,19.8,9.5,20l0,0C9.8,19.9,9.9,19.7,9.9,19.4"/>
			<path class="st50" d="M11,15.3c-0.3-0.1-0.6-0.2-0.9-0.3v0.1c0.3,0.2,0.3,0.2,0.3,0.5v2.9c0,0.2,0,0.3,0,0.3h-0.2v0.1
				c0.4,0.1,0.8,0.2,1.2,0.3v-0.1c-0.3-0.2-0.3-0.2-0.3-0.5L11,15.3"/>
			<path class="st50" d="M12.6,19.1L12.4,19l-0.1-0.2c0.1-0.3,0.1-0.3,0.1-0.4c0.1-0.2,0.3-0.3,0.4-0.3V19L12.6,19.1 M12.7,16.8
				c-0.5-0.1-1.1,0.1-1.1,0.6c0,0.1,0.1,0.2,0.1,0.3l0.3,0.2l0.3-0.1l0.1-0.2l-0.1-0.3l-0.1-0.2l0.1-0.1L12.7,16.8l0.1,0.2
				c0.1,0.2,0.1,0.2,0.1,0.5v0.3c-0.9,0.3-1.1,0.5-1.2,0.6c-0.1,0.2-0.2,0.6,0.1,0.9c0.2,0.2,0.5,0.3,1.1-0.2c0,0.3,0.2,0.5,0.5,0.5
				c0.4-0.1,0.4-0.1,0.6-0.4l-0.1,0.1l-0.1,0.1h-0.1v-0.1v-0.2V18C13.6,17.5,13.6,16.9,12.7,16.8"/>
			<path class="st50" d="M15.5,17c-1.2,0-1.5,1.6-1,2.4c0.5,0.7,1.4,0.7,1.9-0.2l-0.1-0.1c-0.1,0.1-0.2,0.2-0.3,0.3
				c-0.3,0.1-0.6,0.2-0.9-0.4c-0.2-0.5-0.3-1.2-0.1-1.6c0,0,0,0,0-0.1l0.2-0.1l0.2,0.1c0,0.2,0.1,0.3,0.1,0.5c0,0.1,0.1,0.1,0.1,0.2
				l0.3,0.1l0.3-0.1c0.1-0.3,0.1-0.4,0-0.6C16.1,17.1,15.9,17,15.5,17"/>
			<path class="st50" d="M17.8,16.9c-0.4,0-0.7,0.1-1.1,0.1v0.1c0.3,0.1,0.3,0.1,0.3,0.4v1.6c0,0.2,0,0.3-0.1,0.4l-0.3,0.1v0.1
				c0.5,0,0.9-0.1,1.4-0.1v-0.1c-0.3-0.1-0.3-0.1-0.3-0.4L17.8,16.9 M17.4,15.6l-0.3,0.2c0,0.1-0.1,0.2-0.1,0.3
				c0,0.1,0.1,0.2,0.1,0.3l0.3,0.1l0.3-0.2c0-0.1,0.1-0.2,0.1-0.3c0-0.1-0.1-0.2-0.1-0.3L17.4,15.6"/>
			<path class="st50" d="M19.1,17.8v-0.1c0-0.3,0.1-0.5,0.2-0.8l0.2-0.2h0.1c0.1,0.2,0.1,0.2,0.2,0.3c0,0.1,0,0.5,0,0.6
				c-0.1,0-0.2,0-0.3,0.1C19.4,17.8,19.3,17.8,19.1,17.8 M19.6,16.6c-1.2,0.3-1.5,2-0.8,2.7c0.2,0.3,1.2,0.7,1.8-0.8h-0.1
				c-0.1,0.2-0.2,0.3-0.3,0.4c-0.3,0.2-0.4,0.3-0.7,0.1c-0.3-0.2-0.3-0.7-0.3-0.9c0.1,0,0.3-0.1,0.4-0.1c0.3-0.1,0.6-0.1,0.9-0.2
				C20.5,16.5,19.8,16.5,19.6,16.6"/>
			<path class="st50" d="M22.3,15.7c-0.2,0.1-0.4,0.5-0.6,1v-0.6c-0.3,0.1-0.6,0.2-0.9,0.3v0.1H21c0.1,0.1,0.1,0.1,0.1,0.4v1.5
				c0,0.3,0,0.4-0.1,0.5l-0.2,0.2v0.1c0.4-0.1,0.8-0.2,1.1-0.4v-0.1h-0.2l-0.1-0.1v-0.2v-0.2v-0.6c0-0.2,0-0.4,0.1-0.7
				c0-0.1,0.1-0.2,0.1-0.3l0.1-0.1l0,0l0.1,0.1h0.2l0.1-0.2c0-0.1,0-0.2,0.1-0.3C22.4,16,22.4,15.9,22.3,15.7L22.3,15.7"/>
		</g>
	</g>
</g>
</svg>
