<?xml version="1.0" encoding="utf-8"?>
<!-- Generator: Adobe Illustrator 26.2.1, SVG Export Plug-In . SVG Version: 6.00 Build 0)  -->
<svg version="1.1" id="图层_1" xmlns="http://www.w3.org/2000/svg" xmlns:xlink="http://www.w3.org/1999/xlink" x="0px" y="0px"
	 viewBox="0 0 50 46" style="enable-background:new 0 0 50 46;" xml:space="preserve">
<style type="text/css">
	.st0{fill:#FFFFFF;fill-opacity:0;}
	.st1{opacity:2.000000e-02;fill:#FAFAFD;enable-background:new    ;}
	.st2{opacity:5.000000e-02;fill:#F5F6FA;enable-background:new    ;}
	.st3{opacity:7.000000e-02;fill:#EFF1F8;enable-background:new    ;}
	.st4{opacity:0.1;fill:#EAEDF6;enable-background:new    ;}
	.st5{opacity:0.12;fill:#E5E8F4;enable-background:new    ;}
	.st6{opacity:0.15;fill:#E0E3F1;enable-background:new    ;}
	.st7{opacity:0.17;fill:#DADFEF;enable-background:new    ;}
	.st8{opacity:0.2;fill:#D5DAED;enable-background:new    ;}
	.st9{opacity:0.22;fill:#D0D6EB;enable-background:new    ;}
	.st10{opacity:0.24;fill:#CBD1E8;enable-background:new    ;}
	.st11{opacity:0.27;fill:#C5CCE6;enable-background:new    ;}
	.st12{opacity:0.29;fill:#C0C8E4;enable-background:new    ;}
	.st13{opacity:0.32;fill:#BBC3E2;enable-background:new    ;}
	.st14{opacity:0.34;fill:#B6BEDF;enable-background:new    ;}
	.st15{opacity:0.37;fill:#B0BADD;enable-background:new    ;}
	.st16{opacity:0.39;fill:#ABB5DB;enable-background:new    ;}
	.st17{opacity:0.41;fill:#A6B1D8;enable-background:new    ;}
	.st18{opacity:0.44;fill:#A1ACD6;enable-background:new    ;}
	.st19{opacity:0.46;fill:#9BA7D4;enable-background:new    ;}
	.st20{opacity:0.49;fill:#96A3D2;enable-background:new    ;}
	.st21{opacity:0.51;fill:#919ECF;enable-background:new    ;}
	.st22{opacity:0.54;fill:#8C9ACD;enable-background:new    ;}
	.st23{opacity:0.56;fill:#8695CB;enable-background:new    ;}
	.st24{opacity:0.59;fill:#8190C9;enable-background:new    ;}
	.st25{opacity:0.61;fill:#7C8CC6;enable-background:new    ;}
	.st26{opacity:0.63;fill:#7787C4;enable-background:new    ;}
	.st27{opacity:0.66;fill:#7183C2;enable-background:new    ;}
	.st28{opacity:0.68;fill:#6C7EBF;enable-background:new    ;}
	.st29{opacity:0.71;fill:#6779BD;enable-background:new    ;}
	.st30{opacity:0.73;fill:#6275BB;enable-background:new    ;}
	.st31{opacity:0.76;fill:#5C70B9;enable-background:new    ;}
	.st32{opacity:0.78;fill:#576BB6;enable-background:new    ;}
	.st33{opacity:0.8;fill:#5267B4;enable-background:new    ;}
	.st34{opacity:0.83;fill:#4D62B2;enable-background:new    ;}
	.st35{opacity:0.85;fill:#475EB0;enable-background:new    ;}
	.st36{opacity:0.88;fill:#4259AD;enable-background:new    ;}
	.st37{opacity:0.9;fill:#3D54AB;enable-background:new    ;}
	.st38{opacity:0.93;fill:#3850A9;enable-background:new    ;}
	.st39{opacity:0.95;fill:#324BA7;enable-background:new    ;}
	.st40{opacity:0.98;fill:#2D47A4;enable-background:new    ;}
	.st41{fill:#2842A2;}
	.st42{fill:url(#SVGID_1_);}
	.st43{fill:url(#SVGID_00000144295844299720138420000015457259111004552110_);}
</style>
<path class="st0" d="M27.9,16.4c-1.8-0.9-3.8-0.9-5.6,0L3.8,26.9c-1.5,0.9-1.5,2.3,0,3.2l18.5,10.7c1.8,0.9,3.8,0.9,5.6,0l18.3-10.6
	c1.5-0.9,1.5-2.3,0-3.2L27.9,16.4z"/>
<path class="st1" d="M27.8,40.7c-1.7,0.9-3.8,0.9-5.5,0L3.9,30.1c-1.5-0.9-1.1-2.5,0.4-3.4l18-10.3c1.7-0.9,3.8-0.9,5.5,0L46.1,27
	c1.5,0.9,1.1,2.5-0.4,3.4L27.8,40.7z"/>
<path class="st2" d="M27.7,40.6c-1.7,0.8-3.7,0.8-5.4,0L4.1,30.1c-1.4-0.9-0.7-2.6,0.8-3.5l17.6-10c1.7-0.8,3.7-0.8,5.4,0l18,10.4
	c1.5,0.9,0.7,2.6-0.7,3.5L27.7,40.6z"/>
<path class="st3" d="M27.6,40.5c-1.7,0.8-3.6,0.8-5.2,0L4.2,30c-1.4-0.8-0.3-2.8,1.1-3.6l17.1-9.8c1.7-0.8,3.6-0.8,5.2,0l18.1,10.5
	c1.4,0.8,0.3,2.8-1.1,3.6C44.7,30.7,27.6,40.5,27.6,40.5z"/>
<path class="st4" d="M27.6,40.5c-1.6,0.8-3.5,0.8-5.1,0L4.3,30c-1.4-0.8,0.1-3,1.5-3.8l16.7-9.5c1.6-0.8,3.5-0.8,5.1,0l18,10.4
	c1.4,0.8-0.1,3-1.5,3.8C44.2,30.9,27.6,40.5,27.6,40.5z"/>
<path class="st5" d="M27.5,40.4c-1.6,0.8-3.4,0.8-5,0L4.4,29.9C3,29.1,4.9,26.8,6.2,26c0,0,16.2-9.3,16.3-9.3c1.6-0.8,3.4-0.8,5,0
	l18,10.4c1.3,0.8-0.5,3.1-1.8,3.9C43.7,31.1,27.6,40.4,27.5,40.4z"/>
<path class="st6" d="M27.4,40.3c-1.5,0.8-3.3,0.8-4.9,0l-18-10.4c-1.3-0.8,0.9-3.3,2.2-4c0,0,15.8-9,15.9-9c1.5-0.8,3.4-0.8,4.9,0
	l17.9,10.3c1.3,0.8-0.9,3.3-2.2,4C43.2,31.2,27.5,40.3,27.4,40.3z"/>
<path class="st7" d="M27.4,40.2c-1.5,0.7-3.3,0.7-4.8,0L4.7,29.9c-1.3-0.7,1.3-3.4,2.6-4.1L22.7,17c1.5-0.7,3.3-0.7,4.8,0l17.8,10.3
	c1.3,0.7-1.3,3.4-2.6,4.2C42.7,31.4,27.5,40.2,27.4,40.2z"/>
<path class="st8" d="M27.3,40.1c-1.5,0.7-3.2,0.7-4.6,0L4.8,29.8c-1.2-0.7,1.7-3.6,3-4.3c0,0,14.9-8.5,15-8.5c1.5-0.7,3.2-0.7,4.7,0
	l17.7,10.2c1.2,0.7-1.7,3.6-2.9,4.3C42.2,31.5,27.4,40.1,27.3,40.1z"/>
<path class="st9" d="M27.2,40c-1.4,0.7-3.1,0.7-4.5,0L5,29.8c-1.2-0.7,2.1-3.7,3.3-4.4c0,0,14.5-8.3,14.6-8.3c1.4-0.7,3.1-0.7,4.6,0
	L45,27.3c1.2,0.7-2.1,3.7-3.3,4.4C41.7,31.8,27.3,40,27.2,40z"/>
<path class="st10" d="M27.2,40c-1.4,0.7-3,0.7-4.4,0L5.1,29.7c-1.2-0.7,2.5-3.9,3.7-4.5c0,0,14-8,14.1-8c1.4-0.7,3-0.7,4.4,0
	l17.5,10.2c1.2,0.7-2.5,3.9-3.7,4.6C41.2,31.9,27.3,40,27.2,40z"/>
<path class="st11" d="M27.1,39.9c-1.4,0.6-2.9,0.6-4.3,0L5.2,29.7c-1.1-0.6,2.9-4,4.1-4.7c0,0,13.6-7.8,13.7-7.8
	c1.4-0.7,2.9-0.7,4.3,0l17.5,10.1c1.1,0.6-2.9,4-4,4.7C40.7,32.1,27.2,39.9,27.1,39.9z"/>
<path class="st12" d="M27,39.8c-1.3,0.6-2.9,0.6-4.2,0L5.4,29.7c-1.1-0.6,3.3-4.2,4.4-4.8c0,0,13.1-7.5,13.3-7.5
	c1.3-0.6,2.9-0.6,4.2,0l17.4,10.1c1.1,0.6-3.3,4.2-4.4,4.8C40.2,32.3,27.2,39.8,27,39.8z"/>
<path class="st13" d="M27,39.7c-1.3,0.6-2.8,0.6-4.1,0l-17.4-10c-1.1-0.6,3.8-4.3,4.8-4.9c0,0,12.7-7.2,12.9-7.2
	c1.3-0.6,2.8-0.6,4.1,0l17.3,10c1,0.6-3.7,4.4-4.8,5C39.7,32.5,27.1,39.7,27,39.7z"/>
<path class="st14" d="M26.9,39.6c-1.3,0.6-2.7,0.6-4,0L5.6,29.5c-1-0.6,4.2-4.5,5.2-5.1c0,0,12.3-7,12.4-7c1.3-0.6,2.7-0.6,4,0
	l17.1,10.1c1,0.6-4.1,4.5-5.2,5.1C39.2,32.6,27,39.6,26.9,39.6z"/>
<path class="st15" d="M26.8,39.5c-1.2,0.6-2.6,0.6-3.8,0l-17.3-10c-1-0.6,4.6-4.6,5.6-5.2c0,0,11.8-6.7,12-6.7
	c1.2-0.6,2.6-0.6,3.8,0l17.1,9.9c1,0.6-4.5,4.7-5.5,5.2C38.7,32.8,27,39.5,26.8,39.5z"/>
<path class="st16" d="M26.8,39.5c-1.2,0.5-2.5,0.5-3.7,0l-17.2-10c-0.9-0.5,5-4.8,5.9-5.3c0,0,11.4-6.5,11.6-6.5
	c1.2-0.5,2.6-0.5,3.7,0.1l17.1,9.9c0.9,0.5-5,4.8-5.9,5.4C38.2,33,26.9,39.5,26.8,39.5z"/>
<path class="st17" d="M26.7,39.4c-1.1,0.5-2.5,0.5-3.6-0.1L6,29.5c-0.9-0.5,5.4-5,6.3-5.5c0,0,10.9-6.2,11.1-6.2
	c1.2-0.5,2.5-0.5,3.6,0.1l17,9.8c0.9,0.5-5.3,5-6.2,5.5C37.7,33.2,26.9,39.4,26.7,39.4z"/>
<path class="st18" d="M26.6,39.3c-1.1,0.5-2.4,0.5-3.5,0l-17-9.8c-0.9-0.5,5.8-5.1,6.7-5.6c0,0,10.5-6,10.7-6
	c1.1-0.5,2.4-0.5,3.5,0.1l16.9,9.8c0.9,0.5-5.8,5.1-6.6,5.6C37.2,33.3,26.8,39.3,26.6,39.3z"/>
<path class="st19" d="M26.6,39.2c-1.1,0.5-2.3,0.5-3.4-0.1L6.3,29.4c-0.8-0.5,6.2-5.3,7-5.7c0,0,10.1-5.7,10.3-5.7
	c1.1-0.5,2.3-0.4,3.4,0.1l16.8,9.7c0.8,0.5-6.2,5.3-7,5.8C36.7,33.5,26.8,39.2,26.6,39.2z"/>
<path class="st20" d="M26.5,39.1c-1,0.4-2.2,0.4-3.2-0.1L6.4,29.3c-0.8-0.5,6.6-5.4,7.4-5.9c0,0,9.6-5.5,9.8-5.5
	c1-0.4,2.2-0.4,3.3,0.1l16.8,9.7c0.8,0.5-6.6,5.5-7.4,5.9C36.2,33.7,26.7,39.1,26.5,39.1z"/>
<path class="st21" d="M26.4,39.1c-1,0.4-2.1,0.4-3.1-0.1L6.5,29.3c-0.8-0.4,7-5.6,7.8-6c0,0,9.2-5.2,9.4-5.2c1-0.4,2.2-0.4,3.1,0.1
	l16.7,9.6c0.8,0.4-7,5.6-7.7,6C35.7,33.8,26.6,39.1,26.4,39.1z"/>
<path class="st22" d="M26.4,39c-1,0.4-2.1,0.4-3-0.1L6.6,29.3c-0.7-0.4,7.4-5.7,8.1-6.1c0,0,8.7-4.9,9-4.9c1-0.4,2.1-0.4,3,0.1
	L43.3,28c0.7,0.4-7.4,5.8-8.1,6.2C35.2,34,26.6,39,26.4,39z"/>
<path class="st23" d="M26.3,38.9c-0.9,0.4-2,0.4-2.9-0.1L6.8,29.2c-0.7-0.4,7.8-5.9,8.5-6.3c0,0,8.3-4.7,8.5-4.7
	c0.9-0.4,2-0.3,2.9,0.1l16.5,9.5c0.7,0.4-7.8,5.9-8.5,6.3C34.7,34.2,26.5,38.9,26.3,38.9z"/>
<path class="st24" d="M26.2,38.8c-0.9,0.4-1.9,0.3-2.8-0.1L6.9,29.2c-0.6-0.4,8.2-6,8.9-6.4c0,0,7.8-4.4,8.1-4.4
	c0.9-0.4,1.9-0.3,2.8,0.1L43.1,28c0.6,0.4-8.2,6.1-8.8,6.4C34.2,34.4,26.5,38.8,26.2,38.8z"/>
<path class="st25" d="M26.1,38.7c-0.9,0.3-1.8,0.3-2.7-0.1L7,29.2c-0.6-0.4,8.6-6.2,9.2-6.5c0,0,7.4-4.2,7.7-4.2
	c0.9-0.3,1.8-0.3,2.7,0.1L43,28c0.6,0.4-8.6,6.2-9.2,6.6C33.7,34.5,26.4,38.7,26.1,38.7z"/>
<path class="st26" d="M26.1,38.7c-0.8,0.3-1.7,0.3-2.6-0.1L7.2,29.1c-0.6-0.3,9-6.4,9.6-6.7c0,0,7-3.9,7.2-3.9
	c0.8-0.3,1.7-0.3,2.5,0.1L42.9,28c0.6,0.3-9,6.4-9.6,6.7C33.2,34.7,26.4,38.7,26.1,38.7z"/>
<path class="st27" d="M26,38.5c-0.8,0.3-1.7,0.3-2.4-0.1L7.3,29.1c-0.5-0.3,9.5-6.5,10-6.8c0,0,6.5-3.7,6.8-3.7
	c0.8-0.3,1.7-0.3,2.4,0.1L42.7,28c0.5,0.3-9.4,6.5-9.9,6.8C32.8,34.9,26.3,38.5,26,38.5z"/>
<path class="st28" d="M25.9,38.5c-0.7,0.3-1.6,0.2-2.3-0.1L7.4,29c-0.5-0.3,9.9-6.6,10.4-6.9c0,0,6.1-3.3,6.4-3.4
	c0.7-0.3,1.6-0.3,2.3,0.1l16.2,9.3c0.5,0.3-9.8,6.7-10.3,7C32.3,35.1,26.2,38.5,25.9,38.5z"/>
<path class="st29" d="M25.9,38.4c-0.7,0.3-1.5,0.2-2.2-0.1L7.6,29c-0.4-0.3,10.3-6.8,10.7-7.1l5.9-3.2c0.7-0.3,1.5-0.3,2.2,0.1
	l16,9.3c0.5,0.3-10.2,6.8-10.7,7.1C31.8,35.2,26.2,38.4,25.9,38.4z"/>
<path class="st30" d="M25.8,38.3c-0.7,0.2-1.4,0.2-2.1-0.1L7.6,29c-0.4-0.2,10.7-7,11.1-7.2c0,0,5.2-2.8,5.5-2.9
	c0.7-0.3,1.4-0.2,2.1,0.1l16,9.2c0.4,0.2-10.6,7-11,7.2C31.3,35.4,26.1,38.3,25.8,38.3z"/>
<path class="st31" d="M25.7,38.2c-0.7,0.2-1.4,0.2-2-0.1l-16-9.2c-0.4-0.2,11.1-7.1,11.4-7.3c0,0,4.8-2.5,5.1-2.7
	c0.6-0.3,1.4-0.2,2,0.1l15.9,9.2c0.4,0.2-11,7.2-11.4,7.4C30.8,35.5,26.1,38.2,25.7,38.2z"/>
<path class="st32" d="M25.6,38.2c-0.6,0.2-1.3,0.2-1.8-0.1L7.9,28.9c-0.3-0.2,11.5-7.3,11.8-7.5c0,0,4.4-2.3,4.7-2.4
	c0.6-0.2,1.3-0.2,1.9,0.1l15.8,9.1c0.3,0.2-11.4,7.3-11.8,7.5C30.3,35.8,26,38.2,25.6,38.2z"/>
<path class="st33" d="M25.6,38.1c-0.6,0.2-1.2,0.1-1.7-0.1L8.1,28.8c-0.3-0.2,11.9-7.4,12.2-7.6c0,0,3.9-2,4.2-2.2
	c0.6-0.2,1.2-0.2,1.7,0.1l15.7,9.1c0.3,0.2-11.8,7.5-12.1,7.6C28.5,36.7,27.1,37.4,25.6,38.1z"/>
<path class="st34" d="M25.5,38c-0.5,0.1-1.1,0.1-1.6-0.1L8.2,28.8c-0.3-0.1,12.3-7.6,12.6-7.7c0,0,3.5-1.8,3.8-1.9
	c0.5-0.2,1.1-0.1,1.6,0.1l15.6,9c0.3,0.1-12.2,7.6-12.5,7.8C28.1,36.8,26.8,37.4,25.5,38z"/>
<path class="st35" d="M25.5,37.9C25,38,24.4,38,24,37.8l-15.6-9c-0.2-0.1,12.7-7.7,12.9-7.9c0,0,3-1.5,3.4-1.6
	c0.5-0.2,1-0.1,1.5,0.1l15.6,9c0.2,0.1-12.6,7.8-12.9,7.9C27.7,36.9,26.6,37.5,25.5,37.9z"/>
<path class="st36" d="M25.4,37.8c-0.5,0.1-0.9,0.1-1.4-0.1l-15.6-9c-0.2-0.1,13.1-7.9,13.3-8s2.6-1.3,2.9-1.4
	c0.5-0.1,0.9-0.1,1.4,0.1l15.5,8.9c0.2,0.1-13.1,7.9-13.2,8C27.4,36.9,26.4,37.4,25.4,37.8z"/>
<path class="st37" d="M25.3,37.7c-0.4,0.1-0.9,0-1.3-0.1l-15.5-9c-0.2-0.1,13.5-8,13.7-8.1s2.1-1,2.5-1.1s0.9-0.1,1.3,0.1l15.4,8.9
	c0.2,0.1-13.5,8.1-13.6,8.2C27,37.1,26.2,37.4,25.3,37.7z"/>
<path class="st38" d="M25.3,37.7c-0.4,0.1-0.8,0-1.1-0.1l-15.5-9c-0.1-0.1,13.9-8.2,14.1-8.3c0.7-0.3,1.4-0.6,2.1-0.8
	c0.4-0.1,0.8,0,1.1,0.1l15.3,8.8c0.1,0.1-13.9,8.2-14,8.3C26.7,37.2,26,37.5,25.3,37.7z"/>
<path class="st39" d="M25.2,37.5c-0.3,0-0.7,0-1-0.1L8.8,28.6c-0.1,0,14.3-8.4,14.4-8.4c0.5-0.3,1.1-0.5,1.6-0.7c0.3,0,0.7,0,1,0.1
	l15.3,8.9c0.1,0-14.3,8.4-14.4,8.4C26.3,37.2,25.8,37.4,25.2,37.5z"/>
<path class="st40" d="M25.1,37.5c-0.3,0-0.6,0-0.9-0.1L9,28.5L23.8,20c0.4-0.2,0.8-0.3,1.2-0.4c0.3,0,0.6,0,0.9,0.1L41,28.5
	l-14.7,8.6C26,37.3,25.6,37.5,25.1,37.5z"/>
<path class="st41" d="M25.1,37.4c-0.3,0-0.5,0-0.8-0.1L9.1,28.5l15.2-8.7c0.3-0.1,0.5-0.1,0.8-0.1s0.5,0,0.8,0.1L41,28.5l-15.1,8.7
	C25.6,37.4,25.3,37.4,25.1,37.4z"/>
<linearGradient id="SVGID_1_" gradientUnits="userSpaceOnUse" x1="6.4" y1="1061.0601" x2="43.7" y2="1061.0601" gradientTransform="matrix(1 0 0 1 0 -1032.91)">
	<stop  offset="0" style="stop-color:#F9F7F9"/>
	<stop  offset="1" style="stop-color:#2AFF4A"/>
</linearGradient>
<path class="st42" d="M43.7,26c0-0.1,0-0.1,0-0.2l-0.1-6.6l-13.9-0.1L29,18.8c-1.5-0.7-3.2-0.7-4.6,0l-0.7,0.3L6.4,19l0.1,7.9
	c0,0.7,0.4,1.4,1,1.7l15.3,8.9c1.5,0.7,3.2,0.7,4.6,0L43,28.6c0.4-0.2,0.7-0.6,0.7-1.1V26z"/>
<linearGradient id="SVGID_00000069380744965574881730000012701144150873158297_" gradientUnits="userSpaceOnUse" x1="6.425" y1="19.2" x2="43.4515" y2="19.2">
	<stop  offset="0" style="stop-color:#F9F7F9"/>
	<stop  offset="1" style="stop-color:#E6FFAA"/>
</linearGradient>
<path style="fill:url(#SVGID_00000069380744965574881730000012701144150873158297_);" d="M27.4,9.1c-1.5-0.7-3.2-0.7-4.6,0L7.4,17.8
	c-1.3,0.7-1.3,1.9,0,2.7l15.3,8.8c1.5,0.7,3.2,0.7,4.6,0l15.2-8.8c0.7-0.3,1.1-1.1,0.9-1.8c-0.1-0.4-0.5-0.7-0.9-0.9L27.4,9.1z"/>
</svg>
