<?xml version="1.0" encoding="utf-8"?>
<!-- Generator: Adobe Illustrator 22.1.0, SVG Export Plug-In . SVG Version: 6.00 Build 0)  -->
<svg version="1.1" id="Icon_Set" xmlns="http://www.w3.org/2000/svg" xmlns:xlink="http://www.w3.org/1999/xlink" x="0px" y="0px"
	 viewBox="0 0 512 512" style="enable-background:new 0 0 512 512;" xml:space="preserve">
<style type="text/css">
	.st0{fill:#F0C48A;}
	.st1{fill:#D3E6F8;}
	.st2{fill:#4C4372;}
	.st3{fill:#FD919E;}
	.st4{fill:#E8677D;}
	.st5{fill:#FFFFFF;}
	.st6{fill:#A4CFF2;}
	.st7{fill:#7BABF1;}
</style>
<g id="Access_Control">
	<g>
		<g>
			<circle class="st0" cx="256" cy="256" r="207"/>
		</g>
	</g>
	<g>
		<g>
			<path class="st1" d="M233.35,409.289L233.35,409.289c-65.293,0-118.224-52.931-118.224-118.224v-70.132
				c0-65.293,52.931-118.224,118.224-118.224h0c65.293,0,118.224,52.931,118.224,118.224v70.132
				C351.574,356.359,298.643,409.289,233.35,409.289z"/>
		</g>
		<g>
			<path class="st6" d="M233.35,362.098L233.35,362.098c-45.192,0-81.828-36.635-81.828-81.828v-48.541
				c0-45.192,36.635-81.828,81.828-81.828h0c45.192,0,81.828,36.636,81.828,81.828v48.541
				C315.178,325.463,278.543,362.098,233.35,362.098z"/>
		</g>
		<g>
			<path class="st7" d="M233.35,313.162L233.35,313.162c-24.348,0-44.086-19.738-44.086-44.086v-26.152
				c0-24.348,19.738-44.086,44.086-44.086h0c24.348,0,44.086,19.738,44.086,44.086v26.152
				C277.436,293.424,257.698,313.162,233.35,313.162z"/>
		</g>
		<g>
			<path class="st2" d="M233.351,415.289c-68.498,0-124.224-55.727-124.224-124.224v-70.131
				c0-68.497,55.727-124.224,124.224-124.224c68.498,0,124.224,55.727,124.224,124.224v70.131
				C357.574,359.562,301.848,415.289,233.351,415.289z M233.351,108.711c-61.88,0-112.224,50.344-112.224,112.224v70.131
				c0,61.88,50.343,112.224,112.224,112.224h0c61.88,0,112.224-50.344,112.224-112.224v-70.131
				C345.574,159.055,295.231,108.711,233.351,108.711z"/>
		</g>
		<g>
			<path class="st2" d="M233.351,368.099c-48.429,0-87.828-39.399-87.828-87.828v-48.541c0-48.429,39.399-87.828,87.828-87.828
				c48.429,0,87.828,39.399,87.828,87.828v48.541C321.178,328.699,281.779,368.099,233.351,368.099z M233.351,155.901
				c-41.812,0-75.828,34.017-75.828,75.828v48.541c0,41.812,34.016,75.828,75.828,75.828h0c41.812,0,75.828-34.017,75.828-75.828
				v-48.541C309.178,189.918,275.162,155.901,233.351,155.901z"/>
		</g>
		<g>
			<path class="st2" d="M233.35,319.162c-27.618,0-50.086-22.469-50.086-50.086v-26.152c0-27.617,22.468-50.086,50.086-50.086
				s50.086,22.469,50.086,50.086v26.152C283.436,296.693,260.968,319.162,233.35,319.162z M233.35,204.838
				c-21,0-38.086,17.085-38.086,38.086v26.152c0,21.001,17.085,38.086,38.086,38.086s38.086-17.085,38.086-38.086v-26.152
				C271.436,221.923,254.351,204.838,233.35,204.838z"/>
		</g>
		<g>
			<g>
				<path class="st3" d="M386.694,329.453h-70.24c-5.622,0-10.179-4.557-10.179-10.179v-70.24c0-5.622,4.557-10.179,10.179-10.179
					h70.24c5.622,0,10.179,4.557,10.179,10.179v70.24C396.873,324.895,392.316,329.453,386.694,329.453z"/>
			</g>
			<g>
				<path class="st2" d="M364.451,276.093c0-7.813-6.542-14.098-14.447-13.675c-7.012,0.375-12.704,6.195-12.935,13.213
					c-0.169,5.112,2.474,9.608,6.492,12.098v10.983c0,3.974,3.222,7.196,7.196,7.196l0,0c3.974,0,7.196-3.222,7.196-7.196V287.73
					C361.848,285.315,364.451,281.014,364.451,276.093z"/>
			</g>
			<g>
				<path class="st2" d="M386.694,335.452h-70.24c-8.921,0-16.18-7.258-16.18-16.179v-70.24c0-8.922,7.258-16.18,16.18-16.18h70.24
					c8.921,0,16.18,7.258,16.18,16.18v70.24C402.874,328.194,395.615,335.452,386.694,335.452z M316.454,244.854
					c-2.305,0-4.18,1.875-4.18,4.18v70.24c0,2.304,1.875,4.179,4.18,4.179h70.24c2.305,0,4.18-1.875,4.18-4.179v-70.24
					c0-2.305-1.875-4.18-4.18-4.18H316.454z"/>
			</g>
			<g>
				<path class="st2" d="M385.059,244.854c-3.313,0-6-2.687-6-6V216.85c0-15.605-12.696-28.302-28.302-28.302
					s-28.302,12.696-28.302,28.302v22.004c0,3.313-2.687,6-6,6s-6-2.687-6-6V216.85c0-22.223,18.08-40.302,40.302-40.302
					s40.302,18.079,40.302,40.302v22.004C391.059,242.167,388.372,244.854,385.059,244.854z"/>
			</g>
		</g>
	</g>
</g>
</svg>
