<?xml version="1.0" encoding="utf-8"?>
<!-- Generator: Adobe Illustrator 22.1.0, SVG Export Plug-In . SVG Version: 6.00 Build 0)  -->
<svg version="1.1" id="Icon_Set" xmlns="http://www.w3.org/2000/svg" xmlns:xlink="http://www.w3.org/1999/xlink" x="0px" y="0px"
	 viewBox="0 0 512 512" style="enable-background:new 0 0 512 512;" xml:space="preserve">
<style type="text/css">
	.st0{fill:#F0C48A;}
	.st1{fill:#D3E6F8;}
	.st2{fill:#4C4372;}
	.st3{fill:#FD919E;}
	.st4{fill:#E8677D;}
	.st5{fill:#FFFFFF;}
	.st6{fill:#A4CFF2;}
	.st7{fill:#7BABF1;}
</style>
<g id="Authentication">
	<g>
		<g>
			<circle class="st0" cx="256" cy="256" r="207"/>
		</g>
	</g>
	<g>
		<g>
			<g>
				<path class="st1" d="M256,415.072L256,415.072c82.431-65.051,130.526-164.274,130.526-269.281v-0.392L258.111,96.928
					l-132.638,48.471v0.392C125.474,250.798,173.569,350.021,256,415.072L256,415.072z"/>
			</g>
			<g>
				<path class="st3" d="M373.944,237.822H258.111v175.56C314.735,367.968,354.862,306.314,373.944,237.822z"/>
			</g>
			<g>
				<path class="st3" d="M125.474,145.791c0,31.451,4.319,62.381,12.578,92.031h120.059V96.928l-132.637,48.471V145.791z"/>
			</g>
			<g>
				<path class="st2" d="M255.999,421.072c-1.313,0-2.627-0.431-3.716-1.29c-41.152-32.477-74.991-74.577-97.857-121.75
					c-22.866-47.174-34.952-99.818-34.952-152.241v-0.393c0-2.52,1.574-4.771,3.94-5.636l132.638-48.471
					c1.35-0.495,2.833-0.486,4.179,0.022l128.415,48.471c2.335,0.882,3.881,3.117,3.881,5.613v0.393
					c0,52.423-12.086,105.067-34.952,152.241c-22.866,47.173-56.705,89.273-97.857,121.749
					C258.627,420.642,257.312,421.072,255.999,421.072z M131.495,149.586c0.567,49.364,12.2,98.797,33.729,143.212
					c21.387,44.122,52.718,83.65,90.776,114.587c38.058-30.937,69.388-70.465,90.774-114.587
					c21.536-44.429,33.169-93.88,33.729-143.259l-122.428-46.211L131.495,149.586z"/>
			</g>
			<g>
				<path class="st2" d="M258.111,243.822h-120.06c-2.693,0-5.058-1.795-5.78-4.39c-8.492-30.489-12.798-61.994-12.798-93.642
					v-0.393c0-2.52,1.574-4.771,3.94-5.636l132.638-48.471c1.844-0.672,3.894-0.403,5.498,0.719
					c1.605,1.122,2.562,2.958,2.562,4.917v140.895C264.111,241.136,261.425,243.822,258.111,243.822z M142.641,231.822h109.471
					V105.509l-120.616,44.077C131.808,177.353,135.552,204.975,142.641,231.822z"/>
			</g>
			<g>
				<path class="st2" d="M258.11,419.381c-0.882,0-1.769-0.194-2.595-0.591c-2.081-0.998-3.404-3.102-3.404-5.409V237.822
					c0-3.313,2.687-6,6-6h115.832c1.876,0,3.644,0.877,4.778,2.371s1.505,3.433,1.002,5.239
					c-9.713,34.864-24.72,67.876-44.604,98.12c-20.081,30.543-44.728,57.631-73.254,80.509
					C260.779,418.933,259.45,419.381,258.11,419.381z M264.111,243.822v156.756c48.275-41.738,83.267-95.57,101.838-156.756H264.111
					z"/>
			</g>
		</g>
		<g>
			<circle class="st5" cx="258.111" cy="238.461" r="71.086"/>
		</g>
		<g>
			<path class="st2" d="M258.111,315.548c-42.506,0-77.087-34.581-77.087-77.087c0-42.505,34.581-77.086,77.087-77.086
				c42.505,0,77.086,34.581,77.086,77.086C335.197,280.967,300.616,315.548,258.111,315.548z M258.111,173.375
				c-35.889,0-65.087,29.197-65.087,65.086s29.198,65.087,65.087,65.087s65.086-29.198,65.086-65.087S294,173.375,258.111,173.375z"
				/>
		</g>
		<g>
			<path class="st2" d="M254.569,272.399c-1.535,0-3.071-0.586-4.242-1.758l-34.05-34.05c-2.344-2.343-2.344-6.142,0-8.484
				c2.342-2.344,6.143-2.344,8.484,0l29.808,29.807l43.004-43.003c2.342-2.344,6.143-2.344,8.484,0c2.344,2.343,2.344,6.142,0,8.484
				l-47.246,47.246C257.641,271.813,256.104,272.399,254.569,272.399z"/>
		</g>
	</g>
</g>
</svg>
