<?xml version="1.0" encoding="utf-8"?>
<!-- Generator: Adobe Illustrator 22.1.0, SVG Export Plug-In . SVG Version: 6.00 Build 0)  -->
<svg version="1.1" id="Icon_Set" xmlns="http://www.w3.org/2000/svg" xmlns:xlink="http://www.w3.org/1999/xlink" x="0px" y="0px"
	 viewBox="0 0 512 512" style="enable-background:new 0 0 512 512;" xml:space="preserve">
<style type="text/css">
	.st0{fill:#F0C48A;}
	.st1{fill:#D3E6F8;}
	.st2{fill:#4C4372;}
	.st3{fill:#FD919E;}
	.st4{fill:#E8677D;}
	.st5{fill:#FFFFFF;}
	.st6{fill:#A4CFF2;}
	.st7{fill:#7BABF1;}
</style>
<g id="Authorization_Manager">
	<g>
		<g>
			<circle class="st0" cx="256" cy="256" r="207"/>
		</g>
	</g>
	<g>
		<g>
			<path class="st1" d="M338.958,385.82H96.206v-71.749c0-21.654,17.554-39.208,39.208-39.208h164.337
				c21.654,0,39.208,17.554,39.208,39.208V385.82z"/>
		</g>
		<g>
			<path class="st7" d="M217.582,274.864h-69.085l1.482,3.335c15.147,34.092,38.347,63.996,67.604,87.142l0,0l0,0
				c29.257-23.146,52.456-53.05,67.604-87.142l1.482-3.335H217.582z"/>
		</g>
		<g>
			<path class="st2" d="M338.958,391.82H96.206c-3.313,0-6-2.686-6-6v-71.749c0-24.928,20.28-45.208,45.208-45.208H299.75
				c24.928,0,45.208,20.28,45.208,45.208v71.749C344.958,389.134,342.272,391.82,338.958,391.82z M102.206,379.82h230.752v-65.749
				c0-18.311-14.897-33.208-33.208-33.208H135.414c-18.311,0-33.208,14.897-33.208,33.208V379.82z"/>
		</g>
		<g>
			<path class="st2" d="M217.582,371.341c-1.316,0-2.632-0.431-3.723-1.294c-29.899-23.654-53.884-54.572-69.364-89.411
				l-1.482-3.334c-0.825-1.856-0.655-4.003,0.452-5.706c1.106-1.703,3-2.73,5.031-2.73h138.171c2.031,0,3.924,1.027,5.031,2.73
				c1.107,1.703,1.277,3.85,0.453,5.706l-1.481,3.335c-15.48,34.84-39.466,65.758-69.365,89.412
				C220.214,370.909,218.898,371.341,217.582,371.341z M157.806,280.864c14.035,29.544,34.568,55.916,59.776,76.76
				c25.209-20.846,45.742-47.214,59.776-76.76H157.806z"/>
		</g>
		<g>
			<path class="st5" d="M217.582,301.275L217.582,301.275c-15.724,0-28.47-12.746-28.47-28.47v-40.641h56.94v40.641
				C246.052,288.528,233.306,301.275,217.582,301.275z"/>
		</g>
		<g>
			<path class="st2" d="M217.583,307.275c-19.007,0-34.47-15.463-34.47-34.47v-40.64c0-3.314,2.687-6,6-6h56.94c3.313,0,6,2.686,6,6
				v40.64C252.052,291.812,236.589,307.275,217.583,307.275z M195.112,238.164v34.64c0,12.39,10.08,22.47,22.47,22.47
				c12.39,0,22.47-10.08,22.47-22.47v-34.64H195.112z"/>
		</g>
		<g>
			<path class="st5" d="M253.106,330.334c12.915-15.821,23.727-33.337,32.08-52.136l1.482-3.335h-40.693l-28.392,26.411
				L253.106,330.334z"/>
		</g>
		<g>
			<path class="st5" d="M149.978,278.198c8.352,18.799,19.165,36.315,32.08,52.136l35.524-29.06l-28.392-26.411h-40.693
				L149.978,278.198z"/>
		</g>
		<g>
			<path class="st6" d="M217.582,301.275l-19.306,15.793l8.49,16.631l-6.942,16.014c5.64,5.491,11.553,10.72,17.757,15.628h0h0
				c6.013-4.757,11.755-9.815,17.239-15.121l-0.012-0.486l-6.951-16.036l8.49-16.631L217.582,301.275z"/>
		</g>
		<g>
			<g>
				<path class="st2" d="M140.344,391.82c-3.313,0-6-2.686-6-6v-40.959c0-3.314,2.687-6,6-6s6,2.686,6,6v40.959
					C146.344,389.134,143.657,391.82,140.344,391.82z"/>
			</g>
			<g>
				<path class="st2" d="M294.821,391.82c-3.313,0-6-2.686-6-6v-40.959c0-3.314,2.687-6,6-6s6,2.686,6,6v40.959
					C300.821,389.134,298.134,391.82,294.821,391.82z"/>
			</g>
		</g>
		<g>
			<path class="st2" d="M217.583,371.341c-1.316,0-2.632-0.431-3.723-1.294c-6.197-4.903-12.328-10.298-18.221-16.035
				c-1.785-1.738-2.311-4.399-1.319-6.685l5.817-13.419l-7.204-14.112c-1.284-2.515-0.641-5.584,1.545-7.372l19.306-15.793
				c2.234-1.828,5.454-1.806,7.662,0.053l18.767,15.793c2.136,1.798,2.75,4.832,1.48,7.319l-7.204,14.112l5.826,13.44
				c0.307,0.707,0.474,1.466,0.493,2.236l0.012,0.486c0.042,1.677-0.62,3.296-1.826,4.463c-5.72,5.534-11.671,10.754-17.688,15.514
				C220.214,370.909,218.898,371.341,217.583,371.341z M206.992,348.265c3.471,3.262,7.014,6.392,10.591,9.355
				c3.448-2.856,6.863-5.864,10.208-8.993l-5.437-12.543c-0.712-1.643-0.653-3.519,0.161-5.115l6.321-12.383l-11.308-9.516
				l-11.708,9.577l6.29,12.322c0.814,1.595,0.874,3.471,0.161,5.115L206.992,348.265z"/>
		</g>
		<g>
			<path class="st2" d="M227.859,339.698h-21.092c-3.313,0-6-2.686-6-6s2.687-6,6-6h21.092c3.313,0,6,2.686,6,6
				S231.172,339.698,227.859,339.698z"/>
		</g>
		<g>
			<path class="st2" d="M253.106,336.334c-1.379,0-2.723-0.475-3.799-1.356l-35.524-29.06c-1.342-1.097-2.143-2.721-2.198-4.453
				s0.642-3.404,1.911-4.584l28.392-26.411c1.11-1.033,2.57-1.607,4.086-1.607h40.693c2.031,0,3.924,1.027,5.031,2.73
				c1.107,1.703,1.277,3.85,0.453,5.706l-1.481,3.335c-8.522,19.18-19.596,37.178-32.915,53.494
				c-1.007,1.234-2.463,2.016-4.047,2.176C253.507,336.324,253.306,336.334,253.106,336.334z M226.704,300.985l25.491,20.852
				c9.843-12.736,18.282-26.476,25.165-40.973h-29.025L226.704,300.985z"/>
		</g>
		<g>
			<path class="st2" d="M182.058,336.335c-0.2,0-0.4-0.01-0.601-0.03c-1.584-0.159-3.041-0.942-4.047-2.176
				c-13.319-16.317-24.394-34.315-32.915-53.494l-1.481-3.334c-0.825-1.856-0.655-4.003,0.452-5.706c1.106-1.703,3-2.73,5.031-2.73
				h40.693c1.516,0,2.977,0.574,4.086,1.607l28.393,26.411c1.269,1.18,1.966,2.852,1.911,4.584s-0.856,3.356-2.198,4.453
				l-35.524,29.06C184.781,335.859,183.437,336.335,182.058,336.335z M157.806,280.864c6.882,14.495,15.322,28.238,25.165,40.973
				l25.491-20.852l-21.63-20.121H157.806z"/>
		</g>
		<g>
			<path class="st5" d="M217.582,252.813L217.582,252.813c-32.75,0-59.299-26.549-59.299-59.299v-32.452
				c0-32.75,26.549-59.299,59.299-59.299h0c32.75,0,59.299,26.549,59.299,59.299v32.452
				C276.881,226.264,250.332,252.813,217.582,252.813z"/>
		</g>
		<g>
			<path class="st7" d="M246.052,109.039c-8.451-4.635-18.151-7.275-28.47-7.275h0c-32.75,0-59.299,26.549-59.299,59.299
				C242.98,161.063,246.044,109.177,246.052,109.039z"/>
		</g>
		<g>
			<path class="st2" d="M217.583,258.813c-36.006,0-65.299-29.293-65.299-65.299v-32.452c0-36.006,29.293-65.299,65.299-65.299
				c36.005,0,65.298,29.293,65.298,65.299v32.452C282.881,229.52,253.588,258.813,217.583,258.813z M217.583,107.764
				c-29.389,0-53.299,23.91-53.299,53.299v32.452c0,29.389,23.91,53.299,53.299,53.299c29.389,0,53.298-23.91,53.298-53.299v-32.452
				C270.881,131.674,246.971,107.764,217.583,107.764z"/>
		</g>
		<g>
			<path class="st2" d="M158.284,167.063c-3.313,0-6-2.686-6-6c0-36.006,29.293-65.299,65.299-65.299
				c10.952,0,21.794,2.771,31.355,8.014c2.027,1.112,3.236,3.291,3.105,5.6c-0.035,0.616-0.998,15.259-13.599,29.674
				C222.196,157.638,195.226,167.063,158.284,167.063z M217.583,107.764c-27.326,0-49.915,20.669-52.952,47.196
				c59.805-1.972,72.25-31.759,74.796-42.521C232.595,109.371,225.122,107.764,217.583,107.764z"/>
		</g>
		<g>
			<g>
				<circle class="st1" cx="338.958" cy="333.401" r="76.835"/>
			</g>
			<g>
				<g>
					<path class="st3" d="M363.659,385.062h-49.402c-3.954,0-7.16-3.205-7.16-7.16v-49.402c0-3.954,3.205-7.159,7.16-7.159h49.402
						c3.954,0,7.159,3.205,7.159,7.159v49.402C370.819,381.857,367.613,385.062,363.659,385.062z"/>
				</g>
				<g>
					<path class="st2" d="M348.015,347.533c0-5.495-4.601-9.915-10.161-9.618c-4.932,0.264-8.935,4.357-9.098,9.293
						c-0.119,3.596,1.74,6.758,4.566,8.509v7.725c0,2.795,2.266,5.061,5.061,5.061l0,0c2.795,0,5.061-2.266,5.061-5.061v-7.725
						C346.184,354.019,348.015,350.993,348.015,347.533z"/>
				</g>
				<g>
					<path class="st2" d="M363.659,391.062h-49.402c-7.256,0-13.159-5.903-13.159-13.159v-49.402c0-7.256,5.903-13.16,13.159-13.16
						h49.402c7.256,0,13.16,5.903,13.16,13.16v49.402C376.819,385.159,370.916,391.062,363.659,391.062z M314.257,327.341
						c-0.639,0-1.159,0.52-1.159,1.16v49.402c0,0.639,0.52,1.159,1.159,1.159h49.402c0.64,0,1.16-0.52,1.16-1.159v-49.402
						c0-0.639-0.52-1.16-1.16-1.16H314.257z"/>
				</g>
				<g>
					<path class="st2" d="M362.509,327.341c-3.313,0-6-2.686-6-6v-15.476c0-9.995-8.131-18.126-18.125-18.126
						s-18.126,8.131-18.126,18.126v15.476c0,3.314-2.687,6-6,6s-6-2.686-6-6v-15.476c0-16.611,13.515-30.126,30.126-30.126
						s30.125,13.514,30.125,30.126v15.476C368.509,324.655,365.822,327.341,362.509,327.341z"/>
				</g>
			</g>
			<g>
				<path class="st2" d="M338.958,416.236c-45.676,0-82.835-37.16-82.835-82.835s37.16-82.835,82.835-82.835
					s82.835,37.16,82.835,82.835S384.634,416.236,338.958,416.236z M338.958,262.565c-39.059,0-70.835,31.777-70.835,70.835
					s31.777,70.835,70.835,70.835s70.835-31.777,70.835-70.835S378.017,262.565,338.958,262.565z"/>
			</g>
		</g>
	</g>
</g>
</svg>
