<?xml version="1.0" encoding="utf-8"?>
<!-- Generator: Adobe Illustrator 22.1.0, SVG Export Plug-In . SVG Version: 6.00 Build 0)  -->
<svg version="1.1" id="Icon_Set" xmlns="http://www.w3.org/2000/svg" xmlns:xlink="http://www.w3.org/1999/xlink" x="0px" y="0px"
	 viewBox="0 0 512 512" style="enable-background:new 0 0 512 512;" xml:space="preserve">
<style type="text/css">
	.st0{fill:#F0C48A;}
	.st1{fill:#D3E6F8;}
	.st2{fill:#4C4372;}
	.st3{fill:#FD919E;}
	.st4{fill:#E8677D;}
	.st5{fill:#FFFFFF;}
	.st6{fill:#A4CFF2;}
	.st7{fill:#7BABF1;}
</style>
<g id="Backup">
	<g>
		<g>
			<circle class="st0" cx="256" cy="256" r="207"/>
		</g>
	</g>
	<g>
		<g>
			<g>
				<path class="st3" d="M329.403,315.538H113.657c-7.174,0-12.99-5.816-12.99-12.99v-49.226c0-7.174,5.816-12.99,12.99-12.99
					h215.747c7.174,0,12.99,5.816,12.99,12.99v49.226C342.394,309.722,336.578,315.538,329.403,315.538z"/>
			</g>
			<g>
				<path class="st3" d="M329.403,240.332H113.657c-7.174,0-12.99-5.816-12.99-12.99v-49.226c0-7.174,5.816-12.99,12.99-12.99
					h215.747c7.174,0,12.99,5.816,12.99,12.99v49.226C342.394,234.516,336.578,240.332,329.403,240.332z"/>
			</g>
			<g>
				<path class="st4" d="M329.403,165.125h-21.981v75.206h21.981c7.174,0,12.99-5.816,12.99-12.99v-49.226
					C342.394,170.941,336.578,165.125,329.403,165.125z"/>
			</g>
			<g>
				<path class="st4" d="M329.403,240.332h-21.981v75.206h21.981c7.174,0,12.99-5.816,12.99-12.99v-49.226
					C342.394,246.148,336.578,240.332,329.403,240.332z"/>
			</g>
			<g>
				<path class="st2" d="M329.403,321.538H113.657c-10.472,0-18.991-8.519-18.991-18.99v-49.226c0-10.471,8.519-18.99,18.991-18.99
					h215.747c10.472,0,18.99,8.519,18.99,18.99v49.226C348.394,313.019,339.875,321.538,329.403,321.538z M113.657,246.332
					c-3.854,0-6.991,3.136-6.991,6.99v49.226c0,3.854,3.136,6.99,6.991,6.99h215.747c3.854,0,6.99-3.136,6.99-6.99v-49.226
					c0-3.854-3.136-6.99-6.99-6.99H113.657z"/>
			</g>
			<g>
				<path class="st2" d="M329.403,246.332H113.657c-10.472,0-18.991-8.519-18.991-18.99v-49.226c0-10.471,8.519-18.99,18.991-18.99
					h215.747c10.472,0,18.99,8.519,18.99,18.99v49.226C348.394,237.812,339.875,246.332,329.403,246.332z M113.657,171.125
					c-3.854,0-6.991,3.136-6.991,6.99v49.226c0,3.854,3.136,6.99,6.991,6.99h215.747c3.854,0,6.99-3.136,6.99-6.99v-49.226
					c0-3.854-3.136-6.99-6.99-6.99H113.657z"/>
			</g>
			<g>
				<circle class="st7" cx="141.843" cy="277.935" r="15.699"/>
			</g>
			<g>
				<circle class="st7" cx="141.843" cy="202.728" r="15.699"/>
			</g>
			<g>
				<path class="st5" d="M301.217,262.236H197.856c-8.67,0-15.699,7.028-15.699,15.699v0c0,8.67,7.028,15.699,15.699,15.699h103.361
					c8.67,0,15.699-7.028,15.699-15.699v0C316.915,269.265,309.887,262.236,301.217,262.236z"/>
			</g>
			<g>
				<path class="st5" d="M301.217,187.03H197.856c-8.67,0-15.699,7.028-15.699,15.699v0c0,8.67,7.028,15.699,15.699,15.699h103.361
					c8.67,0,15.699-7.028,15.699-15.699v0C316.915,194.058,309.887,187.03,301.217,187.03z"/>
			</g>
			<g>
				<path class="st2" d="M301.217,299.633h-103.36c-11.965,0-21.699-9.734-21.699-21.698s9.734-21.698,21.699-21.698h103.36
					c11.965,0,21.698,9.734,21.698,21.698S313.182,299.633,301.217,299.633z M197.856,268.236c-5.348,0-9.699,4.351-9.699,9.698
					s4.351,9.698,9.699,9.698h103.36c5.348,0,9.698-4.351,9.698-9.698s-4.351-9.698-9.698-9.698H197.856z"/>
			</g>
			<g>
				<path class="st2" d="M301.217,224.427h-103.36c-11.965,0-21.699-9.734-21.699-21.698s9.734-21.698,21.699-21.698h103.36
					c11.965,0,21.698,9.734,21.698,21.698S313.182,224.427,301.217,224.427z M197.856,193.03c-5.348,0-9.699,4.351-9.699,9.698
					s4.351,9.698,9.699,9.698h103.36c5.348,0,9.698-4.351,9.698-9.698s-4.351-9.698-9.698-9.698H197.856z"/>
			</g>
			<g>
				<path class="st2" d="M141.843,299.633c-11.964,0-21.698-9.734-21.698-21.698s9.734-21.698,21.698-21.698
					c11.965,0,21.699,9.734,21.699,21.698S153.808,299.633,141.843,299.633z M141.843,268.236c-5.348,0-9.698,4.351-9.698,9.698
					s4.351,9.698,9.698,9.698s9.699-4.351,9.699-9.698S147.19,268.236,141.843,268.236z"/>
			</g>
			<g>
				<path class="st2" d="M141.843,224.427c-11.964,0-21.698-9.734-21.698-21.698s9.734-21.698,21.698-21.698
					c11.965,0,21.699,9.734,21.699,21.698S153.808,224.427,141.843,224.427z M141.843,193.03c-5.348,0-9.698,4.351-9.698,9.698
					s4.351,9.698,9.698,9.698s9.699-4.351,9.699-9.698S147.19,193.03,141.843,193.03z"/>
			</g>
		</g>
		<g>
			<circle class="st1" cx="342.394" cy="277.935" r="68.94"/>
		</g>
		<g>
			<path class="st2" d="M342.394,352.875c-41.322,0-74.94-33.618-74.94-74.94s33.618-74.94,74.94-74.94s74.94,33.618,74.94,74.94
				S383.716,352.875,342.394,352.875z M342.394,214.995c-34.705,0-62.94,28.235-62.94,62.94s28.235,62.94,62.94,62.94
				s62.94-28.235,62.94-62.94S377.099,214.995,342.394,214.995z"/>
		</g>
		<g>
			<path class="st2" d="M344.631,320.471c-3.313,0-6-2.686-6-6s2.687-6,6-6c16.838,0,30.536-13.699,30.536-30.537
				s-13.698-30.537-30.536-30.537s-30.537,13.699-30.537,30.537c0,3.314-2.687,6-6,6s-6-2.686-6-6
				c0-23.455,19.082-42.537,42.537-42.537c23.454,0,42.536,19.082,42.536,42.537S368.085,320.471,344.631,320.471z"/>
		</g>
		<g>
			<path class="st2" d="M308.094,309.517c-2.144,0-4.124-1.144-5.196-3l-14.77-25.582c-1.071-1.856-1.071-4.144,0-6
				c1.072-1.856,3.053-3,5.196-3h29.539c2.144,0,4.124,1.144,5.196,3c1.071,1.856,1.071,4.144,0,6l-14.77,25.582
				C312.218,308.373,310.237,309.517,308.094,309.517z M303.717,283.935l4.377,7.582l4.377-7.582H303.717z"/>
		</g>
		<g>
			<polygon class="st2" points="308.094,277.935 322.864,277.935 315.479,290.726 308.094,303.517 300.709,290.726 293.324,277.935 
							"/>
		</g>
	</g>
</g>
</svg>
