<?xml version="1.0" encoding="utf-8"?>
<!-- Generator: Adobe Illustrator 22.1.0, SVG Export Plug-In . SVG Version: 6.00 Build 0)  -->
<svg version="1.1" id="Icon_Set" xmlns="http://www.w3.org/2000/svg" xmlns:xlink="http://www.w3.org/1999/xlink" x="0px" y="0px"
	 viewBox="0 0 512 512" style="enable-background:new 0 0 512 512;" xml:space="preserve">
<style type="text/css">
	.st0{fill:#F0C48A;}
	.st1{fill:#D3E6F8;}
	.st2{fill:#4C4372;}
	.st3{fill:#FD919E;}
	.st4{fill:#E8677D;}
	.st5{fill:#FFFFFF;}
	.st6{fill:#A4CFF2;}
	.st7{fill:#7BABF1;}
</style>
<g id="Bug_Fixing">
	<g>
		<g>
			<circle class="st0" cx="256" cy="256" r="207"/>
		</g>
	</g>
	<g>
		<g>
			<circle class="st7" cx="256" cy="192.91" r="68.554"/>
		</g>
		<g>
			<path class="st2" d="M256,267.464c-41.109,0-74.555-33.445-74.555-74.555s33.445-74.554,74.555-74.554
				s74.555,33.444,74.555,74.554S297.109,267.464,256,267.464z M256,130.355c-34.493,0-62.555,28.062-62.555,62.554
				c0,34.493,28.062,62.555,62.555,62.555s62.555-28.062,62.555-62.555C318.555,158.417,290.493,130.355,256,130.355z"/>
		</g>
		<g>
			<g>
				<path class="st2" d="M208.024,147.796c-1.536,0-3.071-0.586-4.243-1.758l-29.016-29.017c-2.343-2.343-2.343-6.142,0.001-8.485
					c2.343-2.343,6.143-2.342,8.485,0.001l29.016,29.017c2.343,2.343,2.343,6.142-0.001,8.485
					C211.096,147.21,209.56,147.796,208.024,147.796z"/>
			</g>
			<g>
				<path class="st2" d="M303.976,147.796c-1.535,0-3.071-0.586-4.242-1.757c-2.344-2.344-2.344-6.143-0.001-8.485l29.016-29.017
					c2.344-2.344,6.144-2.343,8.485-0.001c2.344,2.344,2.344,6.143,0.001,8.485l-29.016,29.017
					C307.047,147.21,305.511,147.796,303.976,147.796z"/>
			</g>
		</g>
		<g>
			<circle class="st1" cx="256" cy="294.836" r="104.385"/>
		</g>
		<g>
			<g>
				<path class="st3" d="M333.172,306.782v-23.894h-23.935c-1.367-6.037-3.743-11.688-6.948-16.768l16.926-16.926l-16.895-16.895
					l-16.926,16.926c-5.08-3.205-10.731-5.582-16.768-6.948v-23.935h-23.894v23.935c-6.037,1.367-11.688,3.743-16.768,6.948
					l-16.926-16.926l-16.895,16.895l16.926,16.926c-3.205,5.08-5.582,10.731-6.948,16.768h-23.935v23.894h23.935
					c1.367,6.037,3.743,11.688,6.948,16.768l-16.926,16.926l16.895,16.895l16.926-16.926c5.08,3.205,10.731,5.582,16.768,6.948
					v23.935h23.894v-23.935c6.037-1.367,11.688-3.743,16.768-6.948l16.926,16.926l16.895-16.895l-16.926-16.926
					c3.205-5.08,5.582-10.731,6.948-16.768H333.172z M256.679,326.668c-17.581,0-31.833-14.252-31.833-31.832
					c0-17.581,14.252-31.833,31.833-31.833c17.581,0,31.832,14.252,31.832,31.833C288.512,312.416,274.26,326.668,256.679,326.668z"
					/>
			</g>
			<g>
				<path class="st2" d="M268.626,377.329h-23.894c-3.313,0-6-2.687-6-6v-19.342c-3.374-1.057-6.641-2.411-9.774-4.05
					l-13.678,13.677c-2.342,2.344-6.143,2.344-8.484,0L189.9,344.719c-2.344-2.343-2.344-6.142,0-8.484l13.677-13.678
					c-1.64-3.135-2.992-6.4-4.05-9.774h-19.342c-3.313,0-6-2.687-6-6v-23.894c0-3.313,2.687-6,6-6h19.342
					c1.058-3.374,2.411-6.64,4.051-9.774L189.9,253.437c-2.344-2.343-2.344-6.142,0-8.484l16.896-16.896
					c1.125-1.126,2.651-1.758,4.242-1.758l0,0c1.592,0,3.117,0.632,4.243,1.758l13.677,13.678c3.134-1.64,6.4-2.993,9.774-4.051
					v-19.342c0-3.313,2.687-6,6-6h23.894c3.313,0,6,2.687,6,6v19.342c3.374,1.058,6.64,2.411,9.773,4.051l13.679-13.678
					c2.342-2.344,6.143-2.344,8.484,0l16.896,16.896c1.126,1.125,1.758,2.651,1.758,4.242c0,1.592-0.632,3.117-1.758,4.243
					l-13.678,13.677c1.64,3.134,2.993,6.4,4.051,9.774h19.342c3.313,0,6,2.687,6,6v23.894c0,3.313-2.687,6-6,6h-19.342
					c-1.058,3.374-2.411,6.641-4.051,9.774l13.678,13.677c1.126,1.126,1.758,2.651,1.758,4.243c0,1.591-0.632,3.117-1.758,4.242
					l-16.896,16.896c-2.342,2.344-6.143,2.344-8.484,0L284.4,347.937c-3.135,1.64-6.4,2.993-9.774,4.051v19.342
					C274.626,374.643,271.939,377.329,268.626,377.329z M250.732,365.329h11.894v-17.935c0-2.803,1.94-5.232,4.675-5.852
					c5.289-1.198,10.3-3.274,14.893-6.172c2.369-1.494,5.46-1.151,7.443,0.833l12.684,12.683l8.41-8.41l-12.684-12.683
					c-1.983-1.983-2.328-5.074-0.832-7.445c2.897-4.59,4.974-9.601,6.172-14.892c0.619-2.734,3.049-4.675,5.852-4.675h17.935
					v-11.894h-17.935c-2.803,0-5.232-1.94-5.852-4.675c-1.198-5.29-3.274-10.301-6.172-14.892c-1.496-2.371-1.15-5.463,0.832-7.445
					l12.684-12.683l-8.41-8.41l-12.685,12.684c-1.981,1.982-5.073,2.327-7.444,0.832c-4.591-2.897-9.601-4.974-14.891-6.172
					c-2.734-0.619-4.675-3.049-4.675-5.852v-17.935h-11.894v17.935c0,2.803-1.94,5.232-4.675,5.852
					c-5.291,1.198-10.302,3.275-14.892,6.172c-2.372,1.495-5.463,1.15-7.445-0.832l-12.683-12.684l-8.41,8.41l12.683,12.684
					c1.982,1.981,2.328,5.072,0.833,7.443c-2.897,4.593-4.974,9.604-6.172,14.893c-0.619,2.734-3.049,4.675-5.852,4.675h-17.935
					v11.894h17.935c2.803,0,5.232,1.94,5.852,4.675c1.198,5.291,3.274,10.301,6.171,14.893c1.496,2.371,1.15,5.462-0.832,7.443
					l-12.683,12.684l8.41,8.41l12.684-12.683c1.981-1.984,5.074-2.329,7.443-0.832c4.592,2.896,9.603,4.973,14.893,6.171
					c2.733,0.619,4.675,3.049,4.675,5.852V365.329z M256.679,332.668c-20.86,0-37.832-16.972-37.832-37.832
					c0-20.861,16.972-37.833,37.832-37.833c20.861,0,37.833,16.972,37.833,37.833C294.512,315.696,277.54,332.668,256.679,332.668z
					 M256.679,269.003c-14.244,0-25.832,11.589-25.832,25.833s11.588,25.832,25.832,25.832s25.833-11.588,25.833-25.832
					S270.923,269.003,256.679,269.003z"/>
			</g>
		</g>
		<g>
			<path class="st2" d="M256,405.221c-60.866,0-110.385-49.519-110.385-110.385S195.134,184.451,256,184.451
				s110.385,49.519,110.385,110.385S316.866,405.221,256,405.221z M256,196.451c-54.25,0-98.385,44.135-98.385,98.385
				S201.75,393.221,256,393.221s98.385-44.135,98.385-98.385S310.25,196.451,256,196.451z"/>
		</g>
		<g>
			<g>
				<path class="st2" d="M161.636,256.299c-1.938,0-3.84-0.938-4.996-2.67l-20.214-30.278h-27.24c-3.313,0-6-2.687-6-6s2.687-6,6-6
					h30.449c2.005,0,3.877,1.001,4.99,2.669l21.995,32.947c1.84,2.756,1.097,6.481-1.659,8.321
					C163.938,255.972,162.78,256.299,161.636,256.299z"/>
			</g>
			<g>
				<path class="st2" d="M139.635,385.551h-30.449c-3.313,0-6-2.687-6-6s2.687-6,6-6h27.24l20.214-30.278
					c1.839-2.756,5.566-3.5,8.321-1.659c2.756,1.84,3.499,5.565,1.659,8.321l-21.995,32.947
					C143.512,384.55,141.64,385.551,139.635,385.551z"/>
			</g>
			<g>
				<path class="st2" d="M352.451,256.299c-1.145,0-2.302-0.327-3.325-1.011c-2.756-1.84-3.499-5.565-1.659-8.321l21.994-32.947
					c1.113-1.668,2.985-2.669,4.99-2.669h30.45c3.313,0,6,2.687,6,6s-2.687,6-6,6H377.66l-20.213,30.278
					C356.291,255.361,354.389,256.299,352.451,256.299z"/>
			</g>
			<g>
				<path class="st2" d="M404.901,385.551h-30.45c-2.005,0-3.877-1.001-4.99-2.669l-21.994-32.947
					c-1.84-2.756-1.097-6.481,1.659-8.321c2.755-1.842,6.481-1.098,8.321,1.659l20.213,30.278h27.241c3.313,0,6,2.687,6,6
					S408.215,385.551,404.901,385.551z"/>
			</g>
			<g>
				<path class="st2" d="M151.672,300.836H99.637c-3.313,0-6-2.687-6-6s2.687-6,6-6h52.035c3.313,0,6,2.687,6,6
					S154.985,300.836,151.672,300.836z"/>
			</g>
			<g>
				<path class="st2" d="M412.363,300.836h-52.035c-3.313,0-6-2.687-6-6s2.687-6,6-6h52.035c3.313,0,6,2.687,6,6
					S415.677,300.836,412.363,300.836z"/>
			</g>
		</g>
	</g>
</g>
</svg>
