<?xml version="1.0" encoding="utf-8"?>
<!-- Generator: Adobe Illustrator 22.1.0, SVG Export Plug-In . SVG Version: 6.00 Build 0)  -->
<svg version="1.1" id="Icon_Set" xmlns="http://www.w3.org/2000/svg" xmlns:xlink="http://www.w3.org/1999/xlink" x="0px" y="0px"
	 viewBox="0 0 512 512" style="enable-background:new 0 0 512 512;" xml:space="preserve">
<style type="text/css">
	.st0{fill:#F0C48A;}
	.st1{fill:#D3E6F8;}
	.st2{fill:#4C4372;}
	.st3{fill:#FD919E;}
	.st4{fill:#E8677D;}
	.st5{fill:#FFFFFF;}
	.st6{fill:#A4CFF2;}
	.st7{fill:#7BABF1;}
</style>
<g id="Cloud_Client">
	<g>
		<g>
			<circle class="st0" cx="256" cy="256" r="207"/>
		</g>
	</g>
	<g>
		<g>
			<g>
				<path class="st1" d="M370.401,342.942c33.761,0,61.13-27.369,61.13-61.13c0-33.711-27.289-61.046-60.982-61.126
					c-5.54-56.245-52.975-100.188-110.677-100.188c-49.427,0-91.315,32.245-105.798,76.843c-0.266-0.003-0.529-0.02-0.795-0.02
					c-40.212,0-72.81,32.598-72.81,72.81c0,40.212,32.598,72.81,72.81,72.81H370.401z"/>
			</g>
			<g>
				<path class="st2" d="M370.401,348.941H153.279c-43.456,0-78.811-35.354-78.811-78.81c0-42.284,33.471-76.897,75.31-78.733
					c16.872-46.174,60.58-76.899,110.094-76.899c29.282,0,57.317,10.855,78.941,30.567c20.182,18.396,33.224,43.037,37.078,69.843
					c34.444,2.807,61.64,31.771,61.64,66.902C437.531,318.827,407.417,348.941,370.401,348.941z M153.279,203.321
					c-36.84,0-66.811,29.971-66.811,66.811c0,36.839,29.971,66.81,66.811,66.81h217.122c30.398,0,55.13-24.731,55.13-55.13
					c0-30.324-24.672-55.053-54.997-55.125c-3.08-0.008-5.654-2.347-5.956-5.412c-2.546-25.848-14.566-49.764-33.849-67.34
					c-19.408-17.692-44.573-27.436-70.857-27.436c-45.748,0-85.972,29.214-100.091,72.696c-0.812,2.495-3.153,4.148-5.773,4.146
					c-0.171-0.002-0.342-0.008-0.512-0.014L153.279,203.321z"/>
			</g>
		</g>
		<g>
			<g>
				<path class="st3" d="M338.082,391.501H173.918v-49.996c0-17.533,14.213-31.745,31.745-31.745h100.672
					c17.533,0,31.745,14.213,31.745,31.745V391.501z"/>
			</g>
			<g>
				<path class="st2" d="M338.081,397.501H173.919c-3.313,0-6-2.687-6-6v-49.996c0-20.812,16.933-37.745,37.745-37.745h100.672
					c20.812,0,37.745,16.933,37.745,37.745v49.996C344.081,394.814,341.395,397.501,338.081,397.501z M179.919,385.501h152.162
					v-43.996c0-14.196-11.549-25.745-25.745-25.745H205.664c-14.196,0-25.745,11.549-25.745,25.745V385.501z"/>
			</g>
			<g>
				<path class="st5" d="M256,331.144L256,331.144c-10.842,0-19.63-8.789-19.63-19.63v-28.022h39.261v28.022
					C275.63,322.355,266.842,331.144,256,331.144z"/>
			</g>
			<g>
				<path class="st2" d="M256,337.144c-14.133,0-25.63-11.497-25.63-25.63v-28.021c0-3.313,2.687-6,6-6h39.26c3.313,0,6,2.687,6,6
					v28.021C281.63,325.646,270.133,337.144,256,337.144z M242.37,289.492v22.021c0,7.516,6.114,13.63,13.63,13.63
					s13.63-6.114,13.63-13.63v-22.021H242.37z"/>
			</g>
			<g>
				<g>
					<path class="st2" d="M209.655,397.501c-3.313,0-6-2.687-6-6v-33.163c0-3.313,2.687-6,6-6s6,2.687,6,6v33.163
						C215.655,394.814,212.969,397.501,209.655,397.501z"/>
				</g>
				<g>
					<path class="st2" d="M302.345,397.501c-3.313,0-6-2.687-6-6v-33.163c0-3.313,2.687-6,6-6s6,2.687,6,6v33.163
						C308.345,394.814,305.658,397.501,302.345,397.501z"/>
				</g>
			</g>
			<g>
				<path class="st5" d="M256,300.002L256,300.002c-23.806,0-43.105-19.299-43.105-43.105v-23.59
					c0-23.806,19.299-43.105,43.105-43.105h0c23.806,0,43.105,19.299,43.105,43.105v23.59
					C299.105,280.704,279.806,300.002,256,300.002z"/>
			</g>
			<g>
				<path class="st2" d="M256,306.003c-27.077,0-49.105-22.028-49.105-49.105v-23.59c0-27.077,22.028-49.105,49.105-49.105
					s49.105,22.028,49.105,49.105v23.59C305.105,283.975,283.077,306.003,256,306.003z M256,196.202
					c-20.46,0-37.105,16.646-37.105,37.105v23.59c0,20.46,16.646,37.105,37.105,37.105s37.105-16.646,37.105-37.105v-23.59
					C293.105,212.848,276.46,196.202,256,196.202z"/>
			</g>
		</g>
	</g>
</g>
</svg>
