<?xml version="1.0" encoding="utf-8"?>
<!-- Generator: Adobe Illustrator 22.1.0, SVG Export Plug-In . SVG Version: 6.00 Build 0)  -->
<svg version="1.1" id="Icon_Set" xmlns="http://www.w3.org/2000/svg" xmlns:xlink="http://www.w3.org/1999/xlink" x="0px" y="0px"
	 viewBox="0 0 512 512" style="enable-background:new 0 0 512 512;" xml:space="preserve">
<style type="text/css">
	.st0{fill:#F0C48A;}
	.st1{fill:#D3E6F8;}
	.st2{fill:#4C4372;}
	.st3{fill:#FD919E;}
	.st4{fill:#E8677D;}
	.st5{fill:#FFFFFF;}
	.st6{fill:#A4CFF2;}
	.st7{fill:#7BABF1;}
</style>
<g id="Cloud_Server">
	<g>
		<g>
			<circle class="st0" cx="256" cy="256" r="207"/>
		</g>
	</g>
	<g>
		<g>
			<g>
				<path class="st1" d="M359.706,283.126c30.605,0,55.415-24.81,55.415-55.415c0-30.56-24.738-55.339-55.281-55.411
					c-5.022-50.987-48.023-90.821-100.331-90.821c-44.806,0-82.779,29.23-95.907,69.659c-0.241-0.003-0.479-0.018-0.721-0.018
					c-36.453,0-66.003,29.551-66.003,66.003s29.551,66.003,66.003,66.003H359.706z"/>
			</g>
			<g>
				<path class="st2" d="M359.706,289.126H162.882c-39.702,0-72.003-32.301-72.003-72.003c0-38.506,30.381-70.049,68.432-71.916
					c15.468-41.883,55.202-69.729,100.199-69.729c26.685,0,52.233,9.893,71.939,27.856c18.282,16.665,30.134,38.948,33.726,63.207
					c31.302,2.779,55.946,29.18,55.946,61.17C421.121,261.576,393.57,289.126,359.706,289.126z M162.881,157.12
					c-33.085,0-60.002,26.917-60.002,60.003s26.917,60.003,60.003,60.003h196.824c27.247,0,49.415-22.167,49.415-49.415
					c0-27.181-22.113-49.347-49.295-49.412c-3.08-0.007-5.654-2.346-5.956-5.412c-2.295-23.293-13.128-44.845-30.505-60.685
					c-17.491-15.944-40.169-24.725-63.855-24.725c-41.227,0-77.476,26.327-90.2,65.512c-0.804,2.475-3.109,4.147-5.707,4.147
					c-0.02,0-0.04,0-0.061,0c-0.161-0.001-0.321-0.006-0.481-0.012L162.881,157.12z"/>
			</g>
		</g>
		<g>
			<g>
				<path class="st3" d="M330.078,430.522H181.922c-4.551,0-8.241-3.689-8.241-8.241V196.03c0-4.551,3.689-8.241,8.241-8.241
					h148.156c4.551,0,8.241,3.689,8.241,8.241v226.251C338.319,426.832,334.629,430.522,330.078,430.522z"/>
			</g>
			<g>
				<circle class="st7" cx="256" cy="390.258" r="15.437"/>
			</g>
			<g>
				<path class="st4" d="M330.078,187.789h-20.982v242.733h20.982c4.551,0,8.241-3.69,8.241-8.241V196.03
					C338.319,191.478,334.629,187.789,330.078,187.789z"/>
			</g>
			<g>
				<rect x="197.661" y="218.439" class="st5" width="116.679" height="29.272"/>
			</g>
			<g>
				<rect x="197.661" y="277.674" class="st5" width="116.679" height="29.272"/>
			</g>
			<g>
				<rect x="284.084" y="218.439" class="st1" width="30.256" height="29.272"/>
			</g>
			<g>
				<rect x="284.084" y="277.674" class="st1" width="30.256" height="29.272"/>
			</g>
			<g>
				<path class="st2" d="M330.078,436.521H181.922c-7.853,0-14.24-6.388-14.24-14.241V196.03c0-7.853,6.388-14.241,14.24-14.241
					h148.156c7.853,0,14.24,6.388,14.24,14.241v226.251C344.318,430.133,337.931,436.521,330.078,436.521z M181.922,193.789
					c-1.235,0-2.24,1.005-2.24,2.241v226.251c0,1.235,1.005,2.241,2.24,2.241h148.156c1.235,0,2.24-1.005,2.24-2.241V196.03
					c0-1.235-1.005-2.241-2.24-2.241H181.922z"/>
			</g>
			<g>
				<path class="st2" d="M314.34,253.711H197.66c-3.313,0-6-2.687-6-6v-29.272c0-3.313,2.687-6,6-6h116.68c3.313,0,6,2.687,6,6
					v29.272C320.34,251.025,317.653,253.711,314.34,253.711z M203.66,241.711h104.68v-17.272H203.66V241.711z"/>
			</g>
			<g>
				<path class="st2" d="M314.34,312.946H197.66c-3.313,0-6-2.687-6-6v-29.272c0-3.313,2.687-6,6-6h116.68c3.313,0,6,2.687,6,6
					v29.272C320.34,310.26,317.653,312.946,314.34,312.946z M203.66,300.946h104.68v-17.272H203.66V300.946z"/>
			</g>
			<g>
				<path class="st2" d="M256,411.695c-11.82,0-21.437-9.617-21.437-21.437s9.616-21.437,21.437-21.437s21.437,9.616,21.437,21.437
					S267.82,411.695,256,411.695z M256,380.821c-5.203,0-9.437,4.233-9.437,9.437c0,5.204,4.233,9.437,9.437,9.437
					s9.437-4.233,9.437-9.437C265.437,385.055,261.203,380.821,256,380.821z"/>
			</g>
		</g>
	</g>
</g>
</svg>
