<?xml version="1.0" encoding="utf-8"?>
<!-- Generator: Adobe Illustrator 22.1.0, SVG Export Plug-In . SVG Version: 6.00 Build 0)  -->
<svg version="1.1" id="Icon_Set" xmlns="http://www.w3.org/2000/svg" xmlns:xlink="http://www.w3.org/1999/xlink" x="0px" y="0px"
	 viewBox="0 0 512 512" style="enable-background:new 0 0 512 512;" xml:space="preserve">
<style type="text/css">
	.st0{fill:#F0C48A;}
	.st1{fill:#D3E6F8;}
	.st2{fill:#4C4372;}
	.st3{fill:#FD919E;}
	.st4{fill:#E8677D;}
	.st5{fill:#FFFFFF;}
	.st6{fill:#A4CFF2;}
	.st7{fill:#7BABF1;}
</style>
<g id="Cloud_Service">
	<g>
		<g>
			<circle class="st0" cx="256" cy="256" r="207"/>
		</g>
	</g>
	<g>
		<g>
			<g>
				<path class="st1" d="M359.706,321.24c30.605,0,55.415-24.81,55.415-55.415c0-30.56-24.738-55.339-55.281-55.412
					c-5.022-50.987-48.023-90.821-100.331-90.821c-44.806,0-82.779,29.23-95.907,69.659c-0.241-0.003-0.479-0.018-0.721-0.018
					c-36.453,0-66.003,29.551-66.003,66.003s29.551,66.003,66.003,66.003H359.706z"/>
			</g>
			<g>
				<path class="st2" d="M359.706,327.24H162.882c-39.703,0-72.003-32.301-72.003-72.003c0-38.506,30.381-70.049,68.432-71.916
					c15.468-41.883,55.202-69.729,100.199-69.729c26.685,0,52.233,9.893,71.939,27.856c18.282,16.665,30.134,38.948,33.726,63.207
					c31.302,2.779,55.946,29.18,55.946,61.17C421.121,299.689,393.57,327.24,359.706,327.24z M162.881,195.233
					c-33.085,0-60.002,26.917-60.002,60.003s26.917,60.003,60.003,60.003h196.824c27.247,0,49.415-22.167,49.415-49.415
					c0-27.181-22.113-49.347-49.295-49.412c-3.08-0.007-5.654-2.346-5.956-5.412c-2.295-23.293-13.128-44.845-30.505-60.685
					c-17.491-15.944-40.169-24.725-63.855-24.725c-41.227,0-77.476,26.327-90.2,65.512c-0.803,2.475-3.109,4.147-5.706,4.147
					c-0.021,0-0.041,0-0.061,0c-0.161-0.001-0.321-0.006-0.481-0.012L162.881,195.233z"/>
			</g>
		</g>
		<g>
			<g>
				<path class="st3" d="M327.169,332.355v-22.231H304.9c-1.272-5.617-3.483-10.874-6.465-15.601l15.748-15.748l-15.719-15.719
					l-15.748,15.748c-4.727-2.982-9.984-5.193-15.601-6.465v-22.269h-22.231v22.269c-5.617,1.272-10.874,3.483-15.601,6.465
					l-15.748-15.748l-15.719,15.719l15.748,15.748c-2.982,4.727-5.193,9.984-6.465,15.601h-22.269v22.231H207.1
					c1.272,5.617,3.483,10.874,6.465,15.601l-15.748,15.748l15.719,15.719l15.748-15.748c4.727,2.982,9.984,5.193,15.601,6.465
					v22.269h22.231V370.14c5.617-1.272,10.874-3.483,15.601-6.465l15.748,15.748l15.719-15.719l-15.748-15.748
					c2.982-4.727,5.193-9.984,6.465-15.601H327.169z M256,350.856c-16.357,0-29.617-13.26-29.617-29.617
					c0-16.357,13.26-29.617,29.617-29.617c16.357,0,29.617,13.26,29.617,29.617C285.617,337.596,272.357,350.856,256,350.856z"/>
			</g>
			<g>
				<path class="st2" d="M267.115,398.408h-22.23c-3.313,0-6-2.686-6-6v-17.689c-2.961-0.946-5.833-2.136-8.597-3.562l-12.509,12.51
					c-1.125,1.125-2.651,1.757-4.243,1.757l0,0c-1.591,0-3.118-0.632-4.243-1.757l-15.719-15.72c-2.343-2.343-2.343-6.142,0-8.485
					l12.51-12.509c-1.427-2.764-2.617-5.636-3.563-8.597h-17.689c-3.314,0-6-2.687-6-6v-22.23c0-3.313,2.686-6,6-6h17.689
					c0.946-2.961,2.136-5.833,3.563-8.597l-12.51-12.509c-2.343-2.343-2.343-6.142,0-8.485l15.719-15.719
					c2.343-2.343,6.143-2.343,8.485,0l12.509,12.509c2.764-1.427,5.636-2.617,8.597-3.562v-17.689c0-3.313,2.687-6,6-6h22.23
					c3.313,0,6,2.687,6,6v17.689c2.961,0.946,5.833,2.136,8.597,3.562l12.51-12.509c2.342-2.343,6.143-2.343,8.484,0l15.72,15.719
					c1.126,1.125,1.758,2.651,1.758,4.243s-0.632,3.117-1.758,4.243l-12.509,12.509c1.427,2.764,2.617,5.636,3.562,8.597h17.689
					c3.313,0,6,2.687,6,6v22.23c0,3.313-2.687,6-6,6h-17.689c-0.945,2.961-2.136,5.833-3.562,8.597l12.509,12.509
					c2.344,2.343,2.344,6.142,0,8.485l-15.72,15.72c-2.342,2.343-6.143,2.343-8.484,0l-12.51-12.51
					c-2.764,1.427-5.636,2.617-8.597,3.562v17.689C273.115,395.722,270.429,398.408,267.115,398.408z M250.885,386.408h10.23V370.14
					c0-2.803,1.941-5.233,4.676-5.852c4.873-1.103,9.49-3.017,13.724-5.687c2.368-1.495,5.461-1.151,7.443,0.832l11.506,11.505
					l7.234-7.234l-11.505-11.505c-1.982-1.982-2.328-5.073-0.832-7.444c2.67-4.232,4.584-8.85,5.688-13.724
					c0.618-2.734,3.048-4.675,5.852-4.675h16.269v-10.23H304.9c-2.804,0-5.233-1.941-5.852-4.675
					c-1.104-4.875-3.018-9.492-5.688-13.724c-1.496-2.371-1.15-5.462,0.832-7.444l11.505-11.505l-7.234-7.234l-11.506,11.505
					c-1.982,1.982-5.074,2.327-7.444,0.832c-4.231-2.67-8.849-4.584-13.723-5.687c-2.734-0.619-4.676-3.049-4.676-5.852v-16.269
					h-10.23v16.269c0,2.803-1.941,5.233-4.675,5.852c-4.875,1.104-9.492,3.017-13.724,5.687c-2.371,1.497-5.461,1.151-7.444-0.832
					l-11.505-11.505l-7.234,7.234l11.505,11.505c1.982,1.982,2.328,5.073,0.832,7.444c-2.67,4.232-4.584,8.85-5.688,13.725
					c-0.619,2.734-3.049,4.675-5.852,4.675h-16.269v10.23H207.1c2.803,0,5.233,1.941,5.852,4.675
					c1.104,4.875,3.017,9.492,5.688,13.724c1.496,2.371,1.15,5.462-0.832,7.444l-11.505,11.505l7.234,7.234l11.505-11.505
					c1.982-1.983,5.072-2.328,7.444-0.832c4.232,2.67,8.85,4.584,13.724,5.687c2.734,0.619,4.675,3.049,4.675,5.852V386.408z
					 M256,356.856c-19.639,0-35.617-15.978-35.617-35.617s15.978-35.617,35.617-35.617c19.639,0,35.616,15.978,35.616,35.617
					S275.639,356.856,256,356.856z M256,297.623c-13.022,0-23.617,10.594-23.617,23.617s10.594,23.617,23.617,23.617
					s23.616-10.594,23.616-23.617S269.022,297.623,256,297.623z"/>
			</g>
		</g>
	</g>
</g>
</svg>
