<?xml version="1.0" encoding="utf-8"?>
<!-- Generator: Adobe Illustrator 22.1.0, SVG Export Plug-In . SVG Version: 6.00 Build 0)  -->
<svg version="1.1" id="Icon_Set" xmlns="http://www.w3.org/2000/svg" xmlns:xlink="http://www.w3.org/1999/xlink" x="0px" y="0px"
	 viewBox="0 0 512 512" style="enable-background:new 0 0 512 512;" xml:space="preserve">
<style type="text/css">
	.st0{fill:#F0C48A;}
	.st1{fill:#D3E6F8;}
	.st2{fill:#4C4372;}
	.st3{fill:#FD919E;}
	.st4{fill:#E8677D;}
	.st5{fill:#FFFFFF;}
	.st6{fill:#A4CFF2;}
	.st7{fill:#7BABF1;}
</style>
<g id="Cloud_Computing">
	<g>
		<g>
			<circle class="st0" cx="256" cy="256" r="207"/>
		</g>
	</g>
	<g>
		<g>
			<path class="st3" d="M381.927,405.742H130.073c-4.232,0-7.663-3.431-7.663-7.663V382.07c0-4.232,3.431-7.663,7.663-7.663h251.853
				c4.232,0,7.663,3.431,7.663,7.663v16.009C389.59,402.311,386.159,405.742,381.927,405.742z"/>
		</g>
		<g>
			<path class="st4" d="M381.927,374.407h-41.637v31.335h41.637c4.232,0,7.663-3.431,7.663-7.663V382.07
				C389.59,377.838,386.159,374.407,381.927,374.407z"/>
		</g>
		<g>
			<path class="st1" d="M305.147,202.438c14.598,0,26.431-11.834,26.431-26.431c0-14.576-11.799-26.395-26.367-26.43
				c-2.395-24.319-22.906-43.319-47.855-43.319c-21.371,0-39.483,13.942-45.745,33.225c-0.115-0.001-0.229-0.009-0.344-0.009
				c-17.387,0-31.482,14.095-31.482,31.482s14.095,31.482,31.482,31.482H305.147z"/>
		</g>
		<g>
			<path class="st2" d="M305.147,208.438h-93.879c-20.667,0-37.482-16.814-37.482-37.482c0-19.348,14.734-35.319,33.572-37.279
				c8.304-20.152,27.897-33.419,49.998-33.419c26.254,0,48.265,18.487,53.106,43.755c15.358,2.547,27.116,15.937,27.116,31.994
				C337.579,193.89,323.03,208.438,305.147,208.438z M211.246,145.476c-14.028-0.001-25.459,11.43-25.459,25.481
				s11.431,25.482,25.482,25.482h93.879c11.266,0,20.431-9.165,20.431-20.431c0-11.238-9.143-20.403-20.381-20.43
				c-3.081-0.007-5.655-2.346-5.957-5.412c-2.128-21.611-20.135-37.907-41.884-37.907c-18.3,0-34.39,11.686-40.038,29.078
				c-0.81,2.495-3.168,4.193-5.77,4.147L211.246,145.476z"/>
		</g>
		<g>
			<g>
				<path class="st3" d="M364.541,374.407H147.459v-130.04c0-11.144,9.034-20.177,20.177-20.177h176.728
					c11.144,0,20.177,9.034,20.177,20.177V374.407z"/>
			</g>
			<g>
				<path class="st4" d="M344.364,224.19h-4.074v150.217h24.252v-130.04C364.541,233.223,355.507,224.19,344.364,224.19z"/>
			</g>
			<g>
				<rect x="170.914" y="244.885" class="st5" width="170.172" height="108.827"/>
			</g>
			<g>
				<path class="st2" d="M364.541,380.407H147.459c-3.313,0-6-2.686-6-6v-130.04c0-14.434,11.743-26.177,26.177-26.177h176.728
					c14.434,0,26.177,11.743,26.177,26.177v130.04C370.541,377.72,367.854,380.407,364.541,380.407z M153.459,368.407h205.082
					v-124.04c0-7.818-6.36-14.177-14.177-14.177H167.636c-7.817,0-14.177,6.36-14.177,14.177V368.407z"/>
			</g>
			<g>
				<path class="st2" d="M341.086,359.712H170.914c-3.313,0-6-2.686-6-6V244.885c0-3.314,2.687-6,6-6h170.172c3.313,0,6,2.686,6,6
					v108.827C347.086,357.025,344.399,359.712,341.086,359.712z M176.914,347.712h158.172v-96.827H176.914V347.712z"/>
			</g>
		</g>
		<g>
			<path class="st2" d="M381.927,411.742H130.073c-7.534,0-13.663-6.129-13.663-13.663V382.07c0-7.534,6.129-13.663,13.663-13.663
				h251.854c7.534,0,13.663,6.129,13.663,13.663v16.009C395.59,405.613,389.46,411.742,381.927,411.742z M130.073,380.407
				c-0.917,0-1.663,0.746-1.663,1.663v16.009c0,0.917,0.746,1.663,1.663,1.663h251.854c0.917,0,1.663-0.746,1.663-1.663V382.07
				c0-0.917-0.746-1.663-1.663-1.663H130.073z"/>
		</g>
		<g>
			<path class="st2" d="M229.569,374.407l3.213,9.581c1.219,3.636,4.625,6.086,8.46,6.086h29.516c3.835,0,7.241-2.45,8.46-6.086
				l3.213-9.581H229.569z"/>
		</g>
		<g>
			<g>
				<path class="st2" d="M255.683,278.95c-3.314,0-6-2.686-6-6v-99.802c0-3.314,2.686-6,6-6s6,2.686,6,6v99.802
					C261.683,276.264,258.997,278.95,255.683,278.95z"/>
			</g>
			<g>
				<g>
					<path class="st2" d="M272.648,184.961h-33.932c-2.289,0-4.379-1.302-5.387-3.358c-1.008-2.055-0.759-4.505,0.642-6.315
						l16.966-21.915c1.136-1.468,2.888-2.327,4.744-2.327c1.856,0,3.608,0.859,4.744,2.327l16.967,21.915
						c1.401,1.81,1.65,4.26,0.642,6.315C277.027,183.658,274.938,184.961,272.648,184.961z M250.949,172.961h9.466l-4.733-6.114
						L250.949,172.961z"/>
				</g>
				<g>
					<polygon class="st2" points="238.716,178.961 247.199,168.003 255.682,157.046 264.165,168.003 272.648,178.961 					"/>
				</g>
				<g>
					<path class="st2" d="M255.683,295.052c-1.856,0-3.608-0.859-4.744-2.327l-16.967-21.915c-1.401-1.81-1.65-4.26-0.642-6.315
						c1.008-2.055,3.098-3.358,5.387-3.358h33.932c2.289,0,4.379,1.302,5.387,3.358c1.008,2.055,0.759,4.505-0.642,6.315
						l-16.966,21.915C259.291,294.193,257.539,295.052,255.683,295.052z M250.949,273.137l4.733,6.114l4.733-6.114H250.949z"/>
				</g>
				<g>
					<polygon class="st2" points="272.648,267.137 264.165,278.094 255.682,289.052 247.199,278.094 238.716,267.137 					"/>
				</g>
			</g>
		</g>
	</g>
</g>
</svg>
