<?xml version="1.0" encoding="utf-8"?>
<!-- Generator: Adobe Illustrator 22.1.0, SVG Export Plug-In . SVG Version: 6.00 Build 0)  -->
<svg version="1.1" id="Icon_Set" xmlns="http://www.w3.org/2000/svg" xmlns:xlink="http://www.w3.org/1999/xlink" x="0px" y="0px"
	 viewBox="0 0 512 512" style="enable-background:new 0 0 512 512;" xml:space="preserve">
<style type="text/css">
	.st0{fill:#F0C48A;}
	.st1{fill:#D3E6F8;}
	.st2{fill:#4C4372;}
	.st3{fill:#FD919E;}
	.st4{fill:#E8677D;}
	.st5{fill:#FFFFFF;}
	.st6{fill:#A4CFF2;}
	.st7{fill:#7BABF1;}
</style>
<g id="Cloud_Database">
	<g>
		<g>
			<circle class="st0" cx="256" cy="256" r="207"/>
		</g>
	</g>
	<g>
		<g>
			<g>
				<path class="st1" d="M370.401,310.631c33.761,0,61.13-27.369,61.13-61.13c0-33.711-27.289-61.046-60.982-61.126
					c-5.54-56.245-52.975-100.188-110.677-100.188c-49.427,0-91.315,32.245-105.798,76.843c-0.266-0.003-0.529-0.02-0.795-0.02
					c-40.212,0-72.81,32.598-72.81,72.81s32.598,72.81,72.81,72.81H370.401z"/>
			</g>
			<g>
				<path class="st2" d="M370.401,316.631H153.279c-43.456,0-78.81-35.354-78.81-78.81c0-42.284,33.47-76.897,75.309-78.733
					c16.873-46.174,60.58-76.9,110.094-76.9c29.282,0,57.317,10.855,78.941,30.567c20.183,18.398,33.225,43.035,37.079,69.843
					c34.443,2.808,61.639,31.772,61.639,66.903C437.531,286.517,407.417,316.631,370.401,316.631z M153.279,171.011
					c-36.839,0-66.81,29.971-66.81,66.811c0,36.839,29.971,66.81,66.81,66.81h217.122c30.398,0,55.129-24.731,55.129-55.13
					c0-30.323-24.671-55.053-54.996-55.126c-3.08-0.008-5.654-2.347-5.957-5.412c-2.546-25.848-14.567-49.763-33.849-67.34
					c-19.409-17.692-44.573-27.436-70.857-27.436c-45.748,0-85.971,29.215-100.091,72.697c-0.81,2.496-3.162,4.201-5.772,4.146
					c-0.172-0.002-0.342-0.008-0.513-0.014L153.279,171.011z"/>
			</g>
		</g>
		<g>
			<g>
				<path class="st1" d="M256,181.192c-51.003,0-92.349,16.611-92.349,37.103v168.414c0,20.491,41.346,37.103,92.349,37.103
					s92.349-16.612,92.349-37.103V218.295C348.349,197.803,307.003,181.192,256,181.192z"/>
			</g>
			<g>
				<path class="st6" d="M318.952,413.852c18.083-6.773,29.396-16.427,29.396-27.143V218.295c0-8.028-6.347-15.46-17.133-21.531
					h-12.263V413.852z"/>
			</g>
			<g>
				<path class="st3" d="M256,181.192c-51.003,0-92.349,16.611-92.349,37.103v56.137c0,20.492,41.346,37.103,92.349,37.103
					s92.349-16.611,92.349-37.103v-56.137C348.349,197.803,307.003,181.192,256,181.192z"/>
			</g>
			<g>
				<path class="st4" d="M318.952,301.576c18.083-6.773,29.396-16.426,29.396-27.143v-56.137c0-8.028-6.347-15.46-17.133-21.531
					h-12.263V301.576z"/>
			</g>
			<g>
				<path class="st3" d="M256,423.812c51.003,0,92.349-16.612,92.349-37.103v-56.138c0,20.491-41.346,37.103-92.349,37.103
					s-92.349-16.612-92.349-37.103v56.138C163.651,407.2,204.997,423.812,256,423.812z"/>
			</g>
			<g>
				<path class="st4" d="M318.952,357.714v56.138c18.083-6.773,29.396-16.427,29.396-27.143v-56.138
					C348.349,341.287,337.036,350.941,318.952,357.714z"/>
			</g>
			<g>
				<ellipse class="st7" cx="256" cy="213.778" rx="91.643" ry="32.586"/>
			</g>
			<g>
				<circle class="st2" cx="200.96" cy="270.444" r="11.516"/>
			</g>
			<g>
				<circle class="st2" cx="200.96" cy="331.402" r="11.516"/>
			</g>
			<g>
				<circle class="st2" cx="200.96" cy="388.123" r="11.516"/>
			</g>
			<g>
				<path class="st2" d="M256,429.812c-25.416,0-49.4-4.013-67.537-11.3c-19.869-7.983-30.812-19.278-30.812-31.804V218.295
					c0-12.525,10.942-23.82,30.812-31.803c18.136-7.287,42.122-11.3,67.537-11.3s49.401,4.013,67.537,11.3
					c19.869,7.982,30.812,19.277,30.812,31.803v168.414c0,12.525-10.942,23.82-30.812,31.804
					C305.4,425.8,281.416,429.812,256,429.812z M256,187.192c-50.887,0-86.349,16.392-86.349,31.103v168.414
					c0,14.712,35.462,31.104,86.349,31.104s86.349-16.392,86.349-31.104V218.295C342.349,203.584,306.887,187.192,256,187.192z"/>
			</g>
			<g>
				<path class="st2" d="M256,429.812c-25.416,0-49.4-4.013-67.537-11.3c-19.869-7.983-30.812-19.278-30.812-31.804v-56.138
					c0-3.313,2.687-6,6-6s6,2.687,6,6c0,14.711,35.462,31.103,86.349,31.103s86.349-16.392,86.349-31.103c0-3.313,2.687-6,6-6
					s6,2.687,6,6v56.138c0,12.525-10.942,23.82-30.812,31.804C305.4,425.8,281.416,429.812,256,429.812z M169.651,351.843v34.866
					c0,14.712,35.462,31.104,86.349,31.104s86.349-16.392,86.349-31.104v-34.866c-4.881,3.919-11.189,7.469-18.812,10.531
					c-18.136,7.287-42.122,11.3-67.537,11.3s-49.401-4.013-67.537-11.3C180.841,359.312,174.532,355.762,169.651,351.843z"/>
			</g>
			<g>
				<path class="st2" d="M256,252.363c-23.373,0-45.912-3.466-63.463-9.76c-18.882-6.771-30.612-16.138-33.923-27.089
					c-0.342-1.132-0.342-2.341,0-3.473c3.311-10.951,15.041-20.318,33.923-27.089c17.552-6.295,40.09-9.761,63.463-9.761
					s45.911,3.466,63.463,9.761c18.882,6.771,30.612,16.138,33.923,27.089c0.342,1.132,0.342,2.341,0,3.473
					c-3.311,10.951-15.041,20.318-33.923,27.089C301.912,248.897,279.373,252.363,256,252.363z M170.782,213.774
					c6.338,13.105,39.469,26.589,85.218,26.589c22.028,0,43.127-3.216,59.412-9.056c13.501-4.841,22.739-11.146,25.806-17.525
					c-6.338-13.105-39.469-26.59-85.218-26.59c-22.027,0-43.127,3.216-59.412,9.056C183.087,201.09,173.849,207.395,170.782,213.774
					z"/>
			</g>
			<g>
				<path class="st2" d="M256,317.536c-25.416,0-49.401-4.013-67.537-11.3c-19.869-7.982-30.812-19.277-30.812-31.804v-56.138
					c0-12.525,10.942-23.82,30.812-31.803c18.136-7.287,42.122-11.3,67.537-11.3s49.401,4.013,67.537,11.3
					c19.869,7.982,30.812,19.277,30.812,31.803v56.138c0,12.526-10.942,23.821-30.812,31.804
					C305.401,313.523,281.416,317.536,256,317.536z M256,187.192c-50.887,0-86.349,16.392-86.349,31.103v56.138
					c0,14.712,35.462,31.104,86.349,31.104s86.349-16.392,86.349-31.104v-56.138C342.349,203.584,306.887,187.192,256,187.192z"/>
			</g>
		</g>
	</g>
</g>
</svg>
