<?xml version="1.0" encoding="utf-8"?>
<!-- Generator: Adobe Illustrator 22.1.0, SVG Export Plug-In . SVG Version: 6.00 Build 0)  -->
<svg version="1.1" id="Icon_Set" xmlns="http://www.w3.org/2000/svg" xmlns:xlink="http://www.w3.org/1999/xlink" x="0px" y="0px"
	 viewBox="0 0 512 512" style="enable-background:new 0 0 512 512;" xml:space="preserve">
<style type="text/css">
	.st0{fill:#F0C48A;}
	.st1{fill:#D3E6F8;}
	.st2{fill:#4C4372;}
	.st3{fill:#FD919E;}
	.st4{fill:#E8677D;}
	.st5{fill:#FFFFFF;}
	.st6{fill:#A4CFF2;}
	.st7{fill:#7BABF1;}
</style>
<g id="Cloud_Security">
	<g>
		<g>
			<circle class="st0" cx="256" cy="256" r="207"/>
		</g>
	</g>
	<g>
		<g>
			<path class="st1" d="M370.401,367.221c33.761,0,61.13-27.369,61.13-61.13c0-33.711-27.289-61.046-60.982-61.126
				c-5.54-56.245-52.975-100.188-110.677-100.188c-49.427,0-91.315,32.245-105.798,76.843c-0.266-0.003-0.529-0.02-0.795-0.02
				c-40.212,0-72.81,32.598-72.81,72.81s32.598,72.81,72.81,72.81H370.401z"/>
		</g>
		<g>
			<path class="st2" d="M370.401,373.222H153.279c-43.456,0-78.81-35.354-78.81-78.81c0-42.284,33.47-76.896,75.309-78.733
				c16.87-46.178,60.577-76.9,110.094-76.9c29.282,0,57.317,10.856,78.941,30.568c20.182,18.397,33.224,43.037,37.078,69.843
				c34.444,2.807,61.64,31.772,61.64,66.903C437.531,343.107,407.417,373.222,370.401,373.222z M153.279,227.602
				c-36.839,0-66.81,29.971-66.81,66.81c0,36.839,29.971,66.81,66.81,66.81h217.122c30.398,0,55.13-24.731,55.13-55.13
				c0-30.324-24.672-55.054-54.997-55.126c-3.08-0.007-5.654-2.346-5.956-5.412c-2.546-25.848-14.566-49.763-33.849-67.34
				c-19.408-17.692-44.573-27.436-70.857-27.436c-45.748,0-85.971,29.214-100.091,72.696c-0.81,2.495-3.132,4.177-5.77,4.146
				c-0.171-0.002-0.341-0.007-0.511-0.013L153.279,227.602z"/>
		</g>
		<g>
			<g>
				<path class="st3" d="M290.709,328.594h-69.419c-5.556,0-10.06-4.504-10.06-10.06v-69.419c0-5.556,4.504-10.06,10.06-10.06
					h69.419c5.556,0,10.06,4.504,10.06,10.06v69.419C300.77,324.09,296.266,328.594,290.709,328.594z"/>
			</g>
			<g>
				<path class="st2" d="M268.727,275.858c0-7.721-6.466-13.933-14.278-13.515c-6.93,0.37-12.555,6.122-12.784,13.059
					c-0.167,5.052,2.446,9.496,6.416,11.957v10.854c0,3.928,3.184,7.112,7.112,7.112h0c3.928,0,7.112-3.184,7.112-7.112v-10.854
					C266.154,284.972,268.727,280.721,268.727,275.858z"/>
			</g>
			<g>
				<path class="st2" d="M290.709,334.594h-69.418c-8.856,0-16.061-7.205-16.061-16.06v-69.419c0-8.856,7.205-16.06,16.061-16.06
					h69.418c8.855,0,16.061,7.205,16.061,16.06v69.419C306.77,327.389,299.564,334.594,290.709,334.594z M221.291,245.054
					c-2.239,0-4.061,1.822-4.061,4.06v69.419c0,2.239,1.822,4.06,4.061,4.06h69.418c2.239,0,4.061-1.822,4.061-4.06v-69.419
					c0-2.239-1.821-4.06-4.061-4.06H221.291z"/>
			</g>
			<g>
				<path class="st2" d="M289.093,245.054c-3.313,0-6-2.686-6-6v-21.747c0-15.385-12.517-27.901-27.901-27.901
					c-15.385,0-27.901,12.516-27.901,27.901v21.747c0,3.314-2.687,6-6,6s-6-2.686-6-6v-21.747c0-22.002,17.9-39.901,39.901-39.901
					s39.901,17.9,39.901,39.901v21.747C295.093,242.368,292.406,245.054,289.093,245.054z"/>
			</g>
		</g>
	</g>
</g>
</svg>
