<?xml version="1.0" encoding="utf-8"?>
<!-- Generator: Adobe Illustrator 22.1.0, SVG Export Plug-In . SVG Version: 6.00 Build 0)  -->
<svg version="1.1" id="Icon_Set" xmlns="http://www.w3.org/2000/svg" xmlns:xlink="http://www.w3.org/1999/xlink" x="0px" y="0px"
	 viewBox="0 0 512 512" style="enable-background:new 0 0 512 512;" xml:space="preserve">
<style type="text/css">
	.st0{fill:#F0C48A;}
	.st1{fill:#D3E6F8;}
	.st2{fill:#4C4372;}
	.st3{fill:#FD919E;}
	.st4{fill:#E8677D;}
	.st5{fill:#FFFFFF;}
	.st6{fill:#A4CFF2;}
	.st7{fill:#7BABF1;}
</style>
<g id="Cloud_Drive">
	<g>
		<g>
			<circle class="st0" cx="256" cy="256" r="207"/>
		</g>
	</g>
	<g>
		<g>
			<g>
				<path class="st1" d="M359.706,338.022c30.605,0,55.415-24.81,55.415-55.415c0-30.56-24.738-55.339-55.281-55.411
					c-5.022-50.987-48.023-90.821-100.331-90.821c-44.806,0-82.779,29.23-95.907,69.659c-0.241-0.003-0.479-0.018-0.721-0.018
					c-36.453,0-66.003,29.551-66.003,66.003s29.551,66.003,66.003,66.003H359.706z"/>
			</g>
			<g>
				<path class="st2" d="M359.707,344.022H162.882c-39.703,0-72.003-32.301-72.003-72.003c0-38.506,30.381-70.049,68.432-71.916
					c15.468-41.883,55.202-69.729,100.2-69.729c26.685,0,52.233,9.893,71.939,27.856c18.281,16.665,30.134,38.948,33.725,63.207
					c31.301,2.779,55.946,29.18,55.946,61.17C421.121,316.472,393.571,344.022,359.707,344.022z M162.881,212.016
					c-33.085,0-60.002,26.917-60.002,60.003s26.917,60.003,60.003,60.003h196.824c27.247,0,49.415-22.167,49.415-49.415
					c0-27.181-22.113-49.347-49.294-49.412c-3.081-0.007-5.655-2.346-5.957-5.412c-2.294-23.293-13.127-44.845-30.504-60.685
					c-17.491-15.944-40.168-24.725-63.855-24.725c-41.228,0-77.476,26.327-90.201,65.512c-0.81,2.494-3.123,4.197-5.767,4.146
					c-0.161-0.001-0.321-0.006-0.481-0.012L162.881,212.016z"/>
			</g>
		</g>
		<g>
			<g>
				<path class="st3" d="M363.873,375.626H148.127c-7.174,0-12.99-5.816-12.99-12.99v-49.226c0-7.174,5.816-12.99,12.99-12.99
					h215.747c7.174,0,12.99,5.816,12.99,12.99v49.226C376.864,369.81,371.048,375.626,363.873,375.626z"/>
			</g>
			<g>
				<path class="st4" d="M363.873,300.419h-21.981v75.206h21.981c7.174,0,12.99-5.816,12.99-12.99v-49.226
					C376.864,306.235,371.048,300.419,363.873,300.419z"/>
			</g>
			<g>
				<path class="st2" d="M363.874,381.625H148.126c-10.471,0-18.99-8.519-18.99-18.99v-49.226c0-10.471,8.519-18.99,18.99-18.99
					h215.747c10.471,0,18.99,8.519,18.99,18.99v49.226C382.864,373.106,374.345,381.625,363.874,381.625z M148.126,306.419
					c-3.854,0-6.99,3.136-6.99,6.99v49.226c0,3.854,3.136,6.99,6.99,6.99h215.747c3.854,0,6.99-3.136,6.99-6.99v-49.226
					c0-3.854-3.136-6.99-6.99-6.99H148.126z"/>
			</g>
			<g>
				<circle class="st7" cx="176.313" cy="338.022" r="15.699"/>
			</g>
			<g>
				<path class="st5" d="M335.687,322.324H232.326c-8.67,0-15.699,7.028-15.699,15.699v0c0,8.67,7.028,15.699,15.699,15.699h103.361
					c8.67,0,15.699-7.028,15.699-15.699v0C351.385,329.352,344.357,322.324,335.687,322.324z"/>
			</g>
			<g>
				<path class="st2" d="M335.687,359.721H232.326c-11.964,0-21.698-9.734-21.698-21.698c0-11.965,9.734-21.699,21.698-21.699
					h103.361c11.964,0,21.698,9.734,21.698,21.699C357.385,349.987,347.651,359.721,335.687,359.721z M232.326,328.324
					c-5.348,0-9.698,4.351-9.698,9.699c0,5.348,4.351,9.698,9.698,9.698h103.361c5.348,0,9.698-4.351,9.698-9.698
					c0-5.348-4.351-9.699-9.698-9.699H232.326z"/>
			</g>
			<g>
				<path class="st2" d="M176.313,359.721c-11.964,0-21.698-9.734-21.698-21.698c0-11.965,9.734-21.699,21.698-21.699
					c11.965,0,21.699,9.734,21.699,21.699C198.012,349.987,188.278,359.721,176.313,359.721z M176.313,328.324
					c-5.348,0-9.698,4.351-9.698,9.699s4.351,9.698,9.698,9.698s9.699-4.351,9.699-9.698S181.661,328.324,176.313,328.324z"/>
			</g>
		</g>
	</g>
</g>
</svg>
