<?xml version="1.0" encoding="utf-8"?>
<!-- Generator: Adobe Illustrator 22.1.0, SVG Export Plug-In . SVG Version: 6.00 Build 0)  -->
<svg version="1.1" id="Icon_Set" xmlns="http://www.w3.org/2000/svg" xmlns:xlink="http://www.w3.org/1999/xlink" x="0px" y="0px"
	 viewBox="0 0 512 512" style="enable-background:new 0 0 512 512;" xml:space="preserve">
<style type="text/css">
	.st0{fill:#F0C48A;}
	.st1{fill:#D3E6F8;}
	.st2{fill:#4C4372;}
	.st3{fill:#FD919E;}
	.st4{fill:#E8677D;}
	.st5{fill:#FFFFFF;}
	.st6{fill:#A4CFF2;}
	.st7{fill:#7BABF1;}
</style>
<g id="Connect">
	<g>
		<g>
			<circle class="st0" cx="256" cy="256" r="207"/>
		</g>
	</g>
	<g>
		<g>
			<g>
				<circle class="st3" cx="218.964" cy="256" r="128.902"/>
			</g>
			<g>
				<path class="st4" d="M218.964,127.098c-4.542,0-9.028,0.238-13.449,0.696c64.87,6.726,115.454,61.557,115.454,128.206
					c0,66.649-50.583,121.48-115.454,128.206c4.421,0.458,8.907,0.696,13.449,0.696c71.191,0,128.902-57.712,128.902-128.902
					C347.866,184.809,290.155,127.098,218.964,127.098z"/>
			</g>
			<g>
				<path class="st2" d="M218.964,390.902c-19.607,0-37.698-14.586-50.94-41.071c-12.582-25.164-19.511-58.487-19.511-93.831
					c0-35.345,6.929-68.667,19.511-93.831c13.242-26.485,31.333-41.071,50.94-41.071s37.698,14.586,50.94,41.071
					c12.582,25.163,19.511,58.486,19.511,93.831c0,35.344-6.929,68.667-19.511,93.831
					C256.662,376.316,238.571,390.902,218.964,390.902z M218.964,133.098c-31.684,0-58.451,56.282-58.451,122.902
					s26.767,122.902,58.451,122.902S277.415,322.62,277.415,256S250.647,133.098,218.964,133.098z"/>
			</g>
			<g>
				<path class="st2" d="M218.964,390.902c-3.313,0-6-2.687-6-6V127.098c0-3.313,2.687-6,6-6s6,2.687,6,6v257.805
					C224.964,388.216,222.277,390.902,218.964,390.902z"/>
			</g>
			<g>
				<path class="st2" d="M347.866,262H90.062c-3.313,0-6-2.687-6-6s2.687-6,6-6h257.804c3.313,0,6,2.687,6,6S351.18,262,347.866,262
					z"/>
			</g>
			<g>
				<path class="st2" d="M218.964,204.875c-38.332,0-74.938-10.566-100.433-28.989c-1.37-0.99-2.258-2.511-2.448-4.19
					c-0.19-1.679,0.337-3.36,1.452-4.63c25.635-29.213,62.604-45.967,101.428-45.967c38.824,0,75.794,16.754,101.429,45.967
					c1.114,1.27,1.642,2.951,1.452,4.63s-1.078,3.201-2.447,4.19C293.901,194.309,257.295,204.875,218.964,204.875z
					 M131.202,169.971c23.135,14.617,54.673,22.904,87.762,22.904c33.088,0,64.626-8.287,87.762-22.904
					c-23.062-23.514-54.673-36.874-87.762-36.874S154.265,146.457,131.202,169.971z"/>
			</g>
			<g>
				<path class="st2" d="M218.964,390.902c-38.825,0-75.794-16.755-101.428-45.968c-1.115-1.27-1.642-2.952-1.452-4.63
					c0.189-1.679,1.078-3.201,2.448-4.19c25.495-18.423,62.102-28.989,100.433-28.989s74.938,10.566,100.433,28.989
					c1.37,0.99,2.259,2.511,2.448,4.19c0.189,1.679-0.338,3.36-1.452,4.63C294.758,374.148,257.788,390.902,218.964,390.902z
					 M131.202,342.028c23.062,23.515,54.673,36.874,87.762,36.874c33.088,0,64.699-13.359,87.762-36.874
					c-23.136-14.616-54.673-22.903-87.762-22.903S154.338,327.412,131.202,342.028z"/>
			</g>
			<g>
				<path class="st2" d="M218.964,390.902c-74.385,0-134.902-60.517-134.902-134.902s60.517-134.902,134.902-134.902
					c74.386,0,134.902,60.517,134.902,134.902S293.35,390.902,218.964,390.902z M218.964,133.098
					c-67.768,0-122.902,55.134-122.902,122.902s55.134,122.902,122.902,122.902c67.769,0,122.902-55.134,122.902-122.902
					S286.732,133.098,218.964,133.098z"/>
			</g>
		</g>
		<g>
			<circle class="st6" cx="347.866" cy="310.83" r="74.072"/>
		</g>
		<g>
			<path class="st2" d="M347.866,390.902c-44.152,0-80.072-35.92-80.072-80.072s35.92-80.072,80.072-80.072
				s80.072,35.92,80.072,80.072S392.019,390.902,347.866,390.902z M347.866,242.758c-37.535,0-68.072,30.537-68.072,68.072
				c0,37.535,30.537,68.072,68.072,68.072s68.072-30.537,68.072-68.072C415.938,273.295,385.401,242.758,347.866,242.758z"/>
		</g>
		<g>
			<path class="st2" d="M335.705,342.587c-0.015,0-0.029,0-0.044,0c-1.605-0.012-3.138-0.666-4.257-1.816l-27.296-28.06
				c-2.311-2.375-2.258-6.174,0.117-8.484c2.375-2.312,6.173-2.258,8.484,0.117l23.059,23.703l47.316-47.221
				c2.345-2.34,6.145-2.337,8.485,0.009c2.341,2.345,2.337,6.145-0.009,8.485l-51.618,51.514
				C338.818,341.958,337.294,342.587,335.705,342.587z"/>
		</g>
	</g>
</g>
</svg>
