<?xml version="1.0" encoding="utf-8"?>
<!-- Generator: Adobe Illustrator 22.1.0, SVG Export Plug-In . SVG Version: 6.00 Build 0)  -->
<svg version="1.1" id="Icon_Set" xmlns="http://www.w3.org/2000/svg" xmlns:xlink="http://www.w3.org/1999/xlink" x="0px" y="0px"
	 viewBox="0 0 512 512" style="enable-background:new 0 0 512 512;" xml:space="preserve">
<style type="text/css">
	.st0{fill:#F0C48A;}
	.st1{fill:#D3E6F8;}
	.st2{fill:#4C4372;}
	.st3{fill:#FD919E;}
	.st4{fill:#E8677D;}
	.st5{fill:#FFFFFF;}
	.st6{fill:#A4CFF2;}
	.st7{fill:#7BABF1;}
</style>
<g id="Customer_Support">
	<g>
		<g>
			<circle class="st0" cx="256" cy="256" r="207"/>
		</g>
	</g>
	<g>
		<g>
			<g>
				<path class="st2" d="M333.229,405.763H256c-3.313,0-6-2.687-6-6s2.687-6,6-6h77.229c15.792,0,28.64-12.848,28.64-28.64v-48.176
					c0-3.313,2.687-6,6-6s6,2.687,6,6v48.176C373.868,387.532,355.638,405.763,333.229,405.763z"/>
			</g>
			<g>
				<path class="st3" d="M144.132,321.405h-22.95c-10.337,0-18.717-8.38-18.717-18.717v-30.863c0-10.337,8.38-18.717,18.717-18.717
					h22.95V321.405z"/>
			</g>
			<g>
				<path class="st3" d="M367.868,321.405h22.95c10.337,0,18.717-8.38,18.717-18.717v-30.863c0-10.337-8.38-18.717-18.717-18.717
					h-22.95V321.405z"/>
			</g>
			<g>
				<path class="st7" d="M271.801,420.443h-28.919c-11.421,0-20.68-9.259-20.68-20.68v0c0-11.421,9.259-20.68,20.68-20.68h28.919
					c11.421,0,20.68,9.259,20.68,20.68v0C292.482,411.184,283.223,420.443,271.801,420.443z"/>
			</g>
			<g>
				<path class="st1" d="M170.793,337.425h-6.184c-11.309,0-20.477-9.168-20.477-20.477v-59.381
					c0-11.309,9.168-20.477,20.477-20.477h6.184c11.309,0,20.477,9.168,20.477,20.477v59.381
					C191.271,328.257,182.103,337.425,170.793,337.425z"/>
			</g>
			<g>
				<path class="st1" d="M341.207,337.425h6.184c11.309,0,20.477-9.168,20.477-20.477v-59.381c0-11.309-9.168-20.477-20.477-20.477
					h-6.184c-11.309,0-20.477,9.168-20.477,20.477v59.381C320.729,328.257,329.897,337.425,341.207,337.425z"/>
			</g>
			<g>
				<path class="st2" d="M144.132,327.405h-22.95c-13.629,0-24.717-11.088-24.717-24.717v-30.863
					c0-13.629,11.088-24.717,24.717-24.717h22.95c3.313,0,6,2.687,6,6v68.297C150.132,324.719,147.445,327.405,144.132,327.405z
					 M121.182,259.108c-7.012,0-12.717,5.705-12.717,12.717v30.863c0,7.012,5.705,12.717,12.717,12.717h16.95v-56.297H121.182z"/>
			</g>
			<g>
				<path class="st2" d="M170.793,343.425h-6.184c-14.6,0-26.478-11.878-26.478-26.478v-59.381c0-14.6,11.878-26.478,26.478-26.478
					h6.184c14.6,0,26.478,11.878,26.478,26.478v59.381C197.271,331.547,185.393,343.425,170.793,343.425z M164.609,243.089
					c-7.983,0-14.478,6.494-14.478,14.478v59.381c0,7.983,6.494,14.478,14.478,14.478h6.184c7.983,0,14.478-6.494,14.478-14.478
					v-59.381c0-7.983-6.494-14.478-14.478-14.478H164.609z"/>
			</g>
			<g>
				<path class="st2" d="M390.818,327.405h-22.95c-3.313,0-6-2.687-6-6v-68.297c0-3.313,2.687-6,6-6h22.95
					c13.629,0,24.717,11.088,24.717,24.717v30.863C415.535,316.317,404.447,327.405,390.818,327.405z M373.868,315.405h16.95
					c7.012,0,12.717-5.705,12.717-12.717v-30.863c0-7.012-5.705-12.717-12.717-12.717h-16.95V315.405z"/>
			</g>
			<g>
				<path class="st2" d="M347.391,343.425h-6.184c-14.6,0-26.478-11.878-26.478-26.478v-59.381c0-14.6,11.878-26.478,26.478-26.478
					h6.184c14.6,0,26.478,11.878,26.478,26.478v59.381C373.868,331.547,361.99,343.425,347.391,343.425z M341.207,243.089
					c-7.983,0-14.478,6.494-14.478,14.478v59.381c0,7.983,6.494,14.478,14.478,14.478h6.184c7.983,0,14.478-6.494,14.478-14.478
					v-59.381c0-7.983-6.494-14.478-14.478-14.478H341.207z"/>
			</g>
			<g>
				<path class="st2" d="M271.801,426.442h-28.919c-14.711,0-26.68-11.969-26.68-26.68c0-14.712,11.969-26.681,26.68-26.681h28.919
					c14.712,0,26.681,11.969,26.681,26.681C298.481,414.474,286.513,426.442,271.801,426.442z M242.882,385.082
					c-8.095,0-14.68,6.586-14.68,14.681s6.585,14.68,14.68,14.68h28.919c8.095,0,14.681-6.585,14.681-14.68
					s-6.586-14.681-14.681-14.681H242.882z"/>
			</g>
			<g>
				<path class="st2" d="M367.868,263.566c-3.313,0-6-2.687-6-6v-54.141c0-58.376-47.492-105.868-105.868-105.868
					S150.132,145.05,150.132,203.426v54.141c0,3.313-2.687,6-6,6s-6-2.687-6-6v-54.141c0-64.993,52.875-117.868,117.868-117.868
					s117.868,52.875,117.868,117.868v54.141C373.868,260.88,371.182,263.566,367.868,263.566z"/>
			</g>
		</g>
		<g>
			<g>
				<path class="st3" d="M327.311,196.826v-22.275h-22.313c-1.274-5.628-3.49-10.896-6.478-15.632l15.78-15.78l-15.751-15.751
					l-15.78,15.78c-4.736-2.988-10.004-5.203-15.632-6.478v-22.313h-22.275v22.313c-5.628,1.274-10.896,3.49-15.632,6.478
					l-15.78-15.78L197.7,143.139l15.78,15.78c-2.988,4.736-5.203,10.004-6.478,15.632h-22.313v22.275h22.313
					c1.274,5.628,3.49,10.896,6.478,15.632l-15.78,15.78l15.751,15.751l15.78-15.78c4.736,2.988,10.004,5.203,15.632,6.478V257
					h22.275v-22.313c5.628-1.274,10.896-3.49,15.632-6.478l15.78,15.78l15.751-15.751l-15.78-15.78
					c2.988-4.736,5.203-10.004,6.478-15.632H327.311z M256,215.365c-16.39,0-29.676-13.286-29.676-29.676
					c0-16.39,13.286-29.676,29.676-29.676c16.39,0,29.676,13.286,29.676,29.676C285.676,202.078,272.39,215.365,256,215.365z"/>
			</g>
			<g>
				<path class="st2" d="M267.138,263h-22.275c-3.313,0-6-2.687-6-6v-17.734c-2.973-0.948-5.855-2.143-8.628-3.575l-12.542,12.541
					c-1.125,1.126-2.651,1.758-4.242,1.758l0,0c-1.592,0-3.117-0.632-4.243-1.758l-15.75-15.751c-2.343-2.343-2.343-6.142,0-8.484
					l12.541-12.542c-1.433-2.772-2.627-5.655-3.575-8.628h-17.734c-3.313,0-6-2.687-6-6v-22.275c0-3.313,2.687-6,6-6h17.734
					c0.948-2.973,2.144-5.854,3.575-8.628l-12.541-12.542c-2.343-2.343-2.343-6.142,0.001-8.484l15.75-15.75
					c2.342-2.344,6.143-2.343,8.484-0.001l12.542,12.541c2.773-1.432,5.655-2.627,8.628-3.575v-17.734c0-3.313,2.687-6,6-6h22.275
					c3.313,0,6,2.687,6,6v17.734c2.973,0.948,5.854,2.144,8.628,3.575l12.542-12.541c2.343-2.342,6.144-2.343,8.484,0.001
					l15.75,15.75c2.344,2.343,2.344,6.142,0.001,8.484l-12.541,12.542c1.432,2.773,2.627,5.655,3.575,8.628h17.734
					c3.313,0,6,2.687,6,6v22.275c0,3.313-2.687,6-6,6h-17.734c-0.948,2.973-2.143,5.855-3.575,8.628l12.541,12.542
					c2.343,2.343,2.343,6.142,0,8.484l-15.75,15.751c-1.126,1.126-2.651,1.758-4.243,1.758c-1.591,0-3.117-0.632-4.242-1.758
					l-12.542-12.541c-2.772,1.433-5.655,2.627-8.628,3.575V257C273.138,260.313,270.451,263,267.138,263z M250.862,251h10.275
					v-16.313c0-2.803,1.941-5.232,4.675-5.852c4.888-1.107,9.516-3.024,13.755-5.7c2.371-1.496,5.462-1.151,7.444,0.832
					l11.538,11.537l7.265-7.266L294.277,216.7c-1.982-1.982-2.327-5.073-0.831-7.444c2.676-4.239,4.593-8.867,5.7-13.755
					c0.619-2.733,3.049-4.675,5.852-4.675h16.313v-10.275h-16.313c-2.803,0-5.232-1.941-5.852-4.675
					c-1.106-4.887-3.024-9.515-5.7-13.756c-1.496-2.37-1.15-5.461,0.831-7.443l11.537-11.538l-7.265-7.265l-11.538,11.537
					c-1.983,1.98-5.074,2.326-7.443,0.831c-4.241-2.676-8.869-4.594-13.756-5.7c-2.733-0.619-4.675-3.049-4.675-5.852v-16.313
					h-10.275v16.313c0,2.803-1.941,5.232-4.675,5.852c-4.887,1.106-9.515,3.024-13.756,5.7c-2.369,1.495-5.461,1.149-7.443-0.831
					l-11.538-11.537l-7.265,7.265l11.537,11.538c1.981,1.982,2.327,5.073,0.831,7.443c-2.676,4.241-4.594,8.869-5.7,13.756
					c-0.619,2.733-3.049,4.675-5.852,4.675h-16.313v10.275h16.313c2.803,0,5.232,1.941,5.852,4.675
					c1.107,4.888,3.024,9.516,5.7,13.755c1.496,2.371,1.151,5.462-0.831,7.444l-11.537,11.538l7.265,7.266l11.538-11.537
					c1.98-1.983,5.071-2.328,7.444-0.832c4.239,2.676,8.867,4.593,13.755,5.7c2.733,0.619,4.675,3.049,4.675,5.852V251z
					 M256,221.364c-19.672,0-35.676-16.004-35.676-35.676s16.004-35.676,35.676-35.676s35.676,16.004,35.676,35.676
					S275.672,221.364,256,221.364z M256,162.013c-13.055,0-23.676,10.621-23.676,23.676s10.621,23.676,23.676,23.676
					s23.676-10.621,23.676-23.676S269.055,162.013,256,162.013z"/>
			</g>
		</g>
	</g>
</g>
</svg>
