<?xml version="1.0" encoding="utf-8"?>
<!-- Generator: Adobe Illustrator 22.1.0, SVG Export Plug-In . SVG Version: 6.00 Build 0)  -->
<svg version="1.1" id="Icon_Set" xmlns="http://www.w3.org/2000/svg" xmlns:xlink="http://www.w3.org/1999/xlink" x="0px" y="0px"
	 viewBox="0 0 512 512" style="enable-background:new 0 0 512 512;" xml:space="preserve">
<style type="text/css">
	.st0{fill:#F0C48A;}
	.st1{fill:#D3E6F8;}
	.st2{fill:#4C4372;}
	.st3{fill:#FD919E;}
	.st4{fill:#E8677D;}
	.st5{fill:#FFFFFF;}
	.st6{fill:#A4CFF2;}
	.st7{fill:#7BABF1;}
</style>
<g id="Cyber_Security">
	<g>
		<g>
			<circle class="st0" cx="256" cy="256" r="207"/>
		</g>
	</g>
	<g>
		<g>
			<g>
				<circle class="st7" cx="414.01" cy="256.605" r="15.52"/>
			</g>
			<g>
				<circle class="st7" cx="97.99" cy="256.605" r="15.52"/>
			</g>
			<g>
				<g>
					<circle class="st7" cx="131.722" cy="183.685" r="15.52"/>
				</g>
				<g>
					<circle class="st7" cx="380.278" cy="183.685" r="15.52"/>
				</g>
				<g>
					<circle class="st7" cx="131.722" cy="328.315" r="15.52"/>
				</g>
				<g>
					<circle class="st7" cx="380.278" cy="328.315" r="15.52"/>
				</g>
			</g>
			<g>
				<circle class="st7" cx="256.605" cy="97.99" r="15.52"/>
			</g>
			<g>
				<circle class="st7" cx="256.605" cy="414.01" r="15.52"/>
			</g>
			<g>
				<g>
					<circle class="st7" cx="183.685" cy="380.278" r="15.52"/>
				</g>
				<g>
					<circle class="st7" cx="183.685" cy="131.722" r="15.52"/>
				</g>
				<g>
					<circle class="st7" cx="328.315" cy="380.278" r="15.52"/>
				</g>
				<g>
					<circle class="st7" cx="328.315" cy="131.722" r="15.52"/>
				</g>
			</g>
		</g>
		<g>
			<path class="st2" d="M380.278,318.795c-3.314,0-6-2.686-6-6v-18.339H137.722v18.339c0,3.314-2.686,6-6,6s-6-2.686-6-6v-24.339
				c0-3.314,2.686-6,6-6h248.557c3.314,0,6,2.686,6,6v24.339C386.278,316.109,383.592,318.795,380.278,318.795z"/>
		</g>
		<g>
			<path class="st2" d="M380.278,230.754H131.722c-3.314,0-6-2.686-6-6v-24.339c0-3.314,2.686-6,6-6s6,2.686,6,6v18.339h236.557
				v-18.339c0-3.314,2.686-6,6-6s6,2.686,6,6v24.339C386.278,228.068,383.592,230.754,380.278,230.754z"/>
		</g>
		<g>
			<path class="st2" d="M398.49,262.606H113.51c-3.313,0-6-2.686-6-6s2.687-6,6-6H398.49c3.313,0,6,2.686,6,6
				S401.803,262.606,398.49,262.606z"/>
		</g>
		<g>
			<path class="st2" d="M312.795,386.278h-24.339c-3.313,0-6-2.686-6-6V131.722c0-3.314,2.687-6,6-6h24.339c3.313,0,6,2.686,6,6
				s-2.687,6-6,6h-18.339v236.557h18.339c3.313,0,6,2.686,6,6S316.109,386.278,312.795,386.278z"/>
		</g>
		<g>
			<path class="st2" d="M224.754,386.278h-24.339c-3.313,0-6-2.686-6-6s2.687-6,6-6h18.339V137.722h-18.339c-3.313,0-6-2.686-6-6
				s2.687-6,6-6h24.339c3.313,0,6,2.686,6,6v248.557C230.754,383.592,228.068,386.278,224.754,386.278z"/>
		</g>
		<g>
			<path class="st2" d="M256.605,404.49c-3.313,0-6-2.686-6-6V113.51c0-3.314,2.687-6,6-6s6,2.686,6,6V398.49
				C262.605,401.803,259.919,404.49,256.605,404.49z"/>
		</g>
		<g>
			<circle class="st1" cx="256.605" cy="256" r="98.899"/>
		</g>
		<g>
			<g>
				<path class="st3" d="M288.4,322.496h-63.588c-5.09,0-9.215-4.126-9.215-9.215v-63.588c0-5.09,4.126-9.215,9.215-9.215H288.4
					c5.09,0,9.215,4.126,9.215,9.215v63.588C297.615,318.371,293.489,322.496,288.4,322.496z"/>
			</g>
			<g>
				<path class="st2" d="M268.263,274.19c0-7.073-5.923-12.762-13.079-12.38c-6.348,0.339-11.501,5.608-11.71,11.962
					c-0.153,4.628,2.24,8.698,5.877,10.952v9.943c0,3.598,2.917,6.514,6.514,6.514h0c3.598,0,6.514-2.917,6.514-6.514v-9.943
					C265.906,282.539,268.263,278.645,268.263,274.19z"/>
			</g>
			<g>
				<path class="st2" d="M288.399,328.496h-63.588c-8.39,0-15.215-6.826-15.215-15.215v-63.588c0-8.39,6.826-15.215,15.215-15.215
					h63.588c8.39,0,15.215,6.826,15.215,15.215v63.588C303.615,321.671,296.789,328.496,288.399,328.496z M224.812,246.477
					c-1.773,0-3.215,1.442-3.215,3.215v63.588c0,1.773,1.442,3.215,3.215,3.215h63.588c1.773,0,3.215-1.442,3.215-3.215v-63.588
					c0-1.773-1.442-3.215-3.215-3.215H224.812z"/>
			</g>
			<g>
				<path class="st2" d="M286.919,246.477c-3.313,0-6-2.686-6-6v-19.92c0-13.815-11.239-25.054-25.054-25.054
					s-25.054,11.239-25.054,25.054v19.92c0,3.314-2.687,6-6,6s-6-2.686-6-6v-19.92c0-20.431,16.622-37.054,37.054-37.054
					s37.054,16.622,37.054,37.054v19.92C292.919,243.791,290.232,246.477,286.919,246.477z"/>
			</g>
		</g>
		<g>
			<path class="st2" d="M256.605,360.899c-57.842,0-104.899-47.058-104.899-104.899s47.058-104.899,104.899-104.899
				S361.505,198.158,361.505,256S314.447,360.899,256.605,360.899z M256.605,163.101c-51.225,0-92.899,41.674-92.899,92.899
				s41.674,92.899,92.899,92.899s92.899-41.674,92.899-92.899S307.831,163.101,256.605,163.101z"/>
		</g>
		<g>
			<g>
				<path class="st2" d="M414.01,278.126c-11.866,0-21.52-9.654-21.52-21.52c0-11.866,9.654-21.52,21.52-21.52
					s21.52,9.654,21.52,21.52C435.53,268.472,425.876,278.126,414.01,278.126z M414.01,247.085c-5.25,0-9.52,4.271-9.52,9.52
					c0,5.249,4.271,9.52,9.52,9.52s9.52-4.271,9.52-9.52C423.53,251.356,419.259,247.085,414.01,247.085z"/>
			</g>
			<g>
				<path class="st2" d="M97.99,278.126c-11.866,0-21.52-9.654-21.52-21.52c0-11.866,9.654-21.52,21.52-21.52
					s21.52,9.654,21.52,21.52C119.51,268.472,109.856,278.126,97.99,278.126z M97.99,247.085c-5.25,0-9.52,4.271-9.52,9.52
					c0,5.249,4.271,9.52,9.52,9.52s9.52-4.271,9.52-9.52C107.51,251.356,103.24,247.085,97.99,247.085z"/>
			</g>
			<g>
				<g>
					<path class="st2" d="M131.722,205.205c-11.866,0-21.52-9.654-21.52-21.52s9.654-21.52,21.52-21.52s21.52,9.654,21.52,21.52
						S143.588,205.205,131.722,205.205z M131.722,174.165c-5.25,0-9.52,4.271-9.52,9.52s4.271,9.52,9.52,9.52s9.52-4.271,9.52-9.52
						S136.971,174.165,131.722,174.165z"/>
				</g>
				<g>
					<path class="st2" d="M380.278,205.205c-11.866,0-21.52-9.654-21.52-21.52s9.654-21.52,21.52-21.52s21.52,9.654,21.52,21.52
						S392.145,205.205,380.278,205.205z M380.278,174.165c-5.25,0-9.52,4.271-9.52,9.52s4.271,9.52,9.52,9.52s9.52-4.271,9.52-9.52
						S385.528,174.165,380.278,174.165z"/>
				</g>
				<g>
					<path class="st2" d="M131.722,349.835c-11.866,0-21.52-9.654-21.52-21.52s9.654-21.52,21.52-21.52s21.52,9.654,21.52,21.52
						S143.588,349.835,131.722,349.835z M131.722,318.795c-5.25,0-9.52,4.271-9.52,9.52s4.271,9.52,9.52,9.52s9.52-4.271,9.52-9.52
						S136.971,318.795,131.722,318.795z"/>
				</g>
				<g>
					<path class="st2" d="M380.278,349.835c-11.866,0-21.52-9.654-21.52-21.52s9.654-21.52,21.52-21.52s21.52,9.654,21.52,21.52
						S392.145,349.835,380.278,349.835z M380.278,318.795c-5.25,0-9.52,4.271-9.52,9.52s4.271,9.52,9.52,9.52s9.52-4.271,9.52-9.52
						S385.528,318.795,380.278,318.795z"/>
				</g>
			</g>
			<g>
				<path class="st2" d="M256.605,119.51c-11.866,0-21.52-9.654-21.52-21.52c0-11.866,9.654-21.52,21.52-21.52
					s21.52,9.654,21.52,21.52C278.125,109.856,268.472,119.51,256.605,119.51z M256.605,88.47c-5.25,0-9.52,4.271-9.52,9.52
					s4.271,9.52,9.52,9.52s9.52-4.271,9.52-9.52S261.855,88.47,256.605,88.47z"/>
			</g>
			<g>
				<path class="st2" d="M256.605,435.53c-11.866,0-21.52-9.654-21.52-21.52s9.654-21.52,21.52-21.52s21.52,9.654,21.52,21.52
					S268.472,435.53,256.605,435.53z M256.605,404.49c-5.25,0-9.52,4.271-9.52,9.52s4.271,9.52,9.52,9.52s9.52-4.271,9.52-9.52
					S261.855,404.49,256.605,404.49z"/>
			</g>
			<g>
				<g>
					<path class="st2" d="M183.685,401.798c-11.866,0-21.52-9.654-21.52-21.52c0-11.866,9.654-21.52,21.52-21.52
						s21.52,9.654,21.52,21.52C205.205,392.145,195.551,401.798,183.685,401.798z M183.685,370.758c-5.25,0-9.52,4.271-9.52,9.52
						s4.271,9.52,9.52,9.52s9.52-4.271,9.52-9.52S188.934,370.758,183.685,370.758z"/>
				</g>
				<g>
					<path class="st2" d="M183.685,153.242c-11.866,0-21.52-9.654-21.52-21.52s9.654-21.52,21.52-21.52s21.52,9.654,21.52,21.52
						S195.551,153.242,183.685,153.242z M183.685,122.202c-5.25,0-9.52,4.271-9.52,9.52s4.271,9.52,9.52,9.52s9.52-4.271,9.52-9.52
						S188.934,122.202,183.685,122.202z"/>
				</g>
				<g>
					<path class="st2" d="M328.315,401.798c-11.866,0-21.52-9.654-21.52-21.52c0-11.866,9.654-21.52,21.52-21.52
						s21.52,9.654,21.52,21.52C349.835,392.145,340.182,401.798,328.315,401.798z M328.315,370.758c-5.25,0-9.52,4.271-9.52,9.52
						s4.271,9.52,9.52,9.52s9.52-4.271,9.52-9.52S333.565,370.758,328.315,370.758z"/>
				</g>
				<g>
					<path class="st2" d="M328.315,153.242c-11.866,0-21.52-9.654-21.52-21.52s9.654-21.52,21.52-21.52s21.52,9.654,21.52,21.52
						S340.182,153.242,328.315,153.242z M328.315,122.202c-5.25,0-9.52,4.271-9.52,9.52s4.271,9.52,9.52,9.52s9.52-4.271,9.52-9.52
						S333.565,122.202,328.315,122.202z"/>
				</g>
			</g>
		</g>
	</g>
</g>
</svg>
