<?xml version="1.0" encoding="utf-8"?>
<!-- Generator: Adobe Illustrator 22.1.0, SVG Export Plug-In . SVG Version: 6.00 Build 0)  -->
<svg version="1.1" id="Icon_Set" xmlns="http://www.w3.org/2000/svg" xmlns:xlink="http://www.w3.org/1999/xlink" x="0px" y="0px"
	 viewBox="0 0 512 512" style="enable-background:new 0 0 512 512;" xml:space="preserve">
<style type="text/css">
	.st0{fill:#F0C48A;}
	.st1{fill:#D3E6F8;}
	.st2{fill:#4C4372;}
	.st3{fill:#FD919E;}
	.st4{fill:#E8677D;}
	.st5{fill:#FFFFFF;}
	.st6{fill:#A4CFF2;}
	.st7{fill:#7BABF1;}
</style>
<g id="Cyber_Security_1_">
	<g>
		<g>
			<circle class="st0" cx="256" cy="256" r="207"/>
		</g>
	</g>
	<g>
		<g>
			<g>
				<rect x="127.661" y="184.745" class="st7" width="169.296" height="115.806"/>
			</g>
			<g>
				<rect x="127.661" y="367.292" class="st7" width="36.746" height="26.704"/>
			</g>
			<g>
				<rect x="260.21" y="367.292" class="st7" width="36.746" height="26.704"/>
			</g>
			<g>
				<path class="st2" d="M296.957,306.551H127.66c-3.313,0-6-2.687-6-6V184.746c0-3.313,2.687-6,6-6h169.297c3.313,0,6,2.687,6,6
					v115.805C302.957,303.864,300.271,306.551,296.957,306.551z M133.66,294.551h157.297V190.746H133.66V294.551z"/>
			</g>
			<g>
				<path class="st2" d="M164.407,399.995H127.66c-3.313,0-6-2.687-6-6v-26.704c0-3.313,2.687-6,6-6h36.747c3.313,0,6,2.687,6,6
					v26.704C170.407,397.309,167.721,399.995,164.407,399.995z M133.66,387.995h24.747v-14.704H133.66V387.995z"/>
			</g>
			<g>
				<path class="st2" d="M296.957,399.995H260.21c-3.313,0-6-2.687-6-6v-26.704c0-3.313,2.687-6,6-6h36.747c3.313,0,6,2.687,6,6
					v26.704C302.957,397.309,300.271,399.995,296.957,399.995z M266.21,387.995h24.747v-14.704H266.21V387.995z"/>
			</g>
			<g>
				<g>
					<path class="st1" d="M308.039,276.018h-191.46c-6.367,0-11.528-5.161-11.528-11.528v-43.685
						c0-6.367,5.161-11.528,11.528-11.528h191.46c6.367,0,11.528,5.161,11.528,11.528v43.685
						C319.567,270.857,314.405,276.018,308.039,276.018z"/>
				</g>
				<g>
					<path class="st6" d="M308.039,209.278h-19.506v66.741h19.506c6.367,0,11.528-5.161,11.528-11.528v-43.685
						C319.567,214.439,314.405,209.278,308.039,209.278z"/>
				</g>
				<g>
					<path class="st2" d="M308.039,282.019H116.578c-9.665,0-17.527-7.863-17.527-17.528v-43.685
						c0-9.665,7.862-17.528,17.527-17.528h191.461c9.665,0,17.527,7.863,17.527,17.528v43.685
						C325.566,274.155,317.704,282.019,308.039,282.019z M116.578,215.278c-3.048,0-5.527,2.48-5.527,5.528v43.685
						c0,3.048,2.479,5.528,5.527,5.528h191.461c3.048,0,5.527-2.48,5.527-5.528v-43.685c0-3.048-2.479-5.528-5.527-5.528H116.578z"
						/>
				</g>
				<g>
					<circle class="st3" cx="141.592" cy="242.648" r="13.931"/>
				</g>
				<g>
					<path class="st5" d="M283.025,228.717H191.3c-7.694,0-13.931,6.237-13.931,13.931v0c0,7.694,6.237,13.931,13.931,13.931h91.725
						c7.694,0,13.931-6.237,13.931-13.931v0C296.957,234.954,290.719,228.717,283.025,228.717z"/>
				</g>
				<g>
					<path class="st2" d="M283.025,262.58H191.3c-10.99,0-19.932-8.941-19.932-19.932s8.941-19.931,19.932-19.931h91.726
						c10.99,0,19.932,8.941,19.932,19.931S294.016,262.58,283.025,262.58z M191.3,234.717c-4.373,0-7.932,3.558-7.932,7.931
						c0,4.374,3.559,7.932,7.932,7.932h91.726c4.373,0,7.932-3.558,7.932-7.932c0-4.373-3.559-7.931-7.932-7.931H191.3z"/>
				</g>
				<g>
					<path class="st2" d="M141.592,262.58c-10.99,0-19.932-8.941-19.932-19.932s8.941-19.931,19.932-19.931
						s19.932,8.941,19.932,19.931S152.582,262.58,141.592,262.58z M141.592,234.717c-4.373,0-7.932,3.558-7.932,7.931
						c0,4.374,3.559,7.932,7.932,7.932s7.932-3.558,7.932-7.932C149.523,238.275,145.965,234.717,141.592,234.717z"/>
				</g>
			</g>
			<g>
				<g>
					<path class="st3" d="M308.039,367.292h-191.46c-6.367,0-11.528-5.161-11.528-11.528v-43.685
						c0-6.367,5.161-11.528,11.528-11.528h191.46c6.367,0,11.528,5.161,11.528,11.528v43.685
						C319.567,362.13,314.405,367.292,308.039,367.292z"/>
				</g>
				<g>
					<path class="st4" d="M308.039,300.551h-19.506v66.741h19.506c6.367,0,11.528-5.161,11.528-11.528v-43.685
						C319.567,305.712,314.405,300.551,308.039,300.551z"/>
				</g>
				<g>
					<path class="st2" d="M308.039,373.292H116.578c-9.665,0-17.527-7.863-17.527-17.528v-43.685
						c0-9.665,7.862-17.528,17.527-17.528h191.461c9.665,0,17.527,7.863,17.527,17.528v43.685
						C325.566,365.429,317.704,373.292,308.039,373.292z M116.578,306.551c-3.048,0-5.527,2.48-5.527,5.528v43.685
						c0,3.048,2.479,5.528,5.527,5.528h191.461c3.048,0,5.527-2.48,5.527-5.528v-43.685c0-3.048-2.479-5.528-5.527-5.528H116.578z"
						/>
				</g>
				<g>
					<circle class="st7" cx="141.592" cy="333.921" r="13.931"/>
				</g>
				<g>
					<path class="st5" d="M283.025,319.99H191.3c-7.694,0-13.931,6.237-13.931,13.931v0c0,7.694,6.237,13.931,13.931,13.931h91.725
						c7.694,0,13.931-6.237,13.931-13.931v0C296.957,326.227,290.719,319.99,283.025,319.99z"/>
				</g>
				<g>
					<path class="st2" d="M283.025,353.853H191.3c-10.99,0-19.932-8.941-19.932-19.931s8.941-19.932,19.932-19.932h91.726
						c10.99,0,19.932,8.941,19.932,19.932S294.016,353.853,283.025,353.853z M191.3,325.99c-4.373,0-7.932,3.558-7.932,7.932
						c0,4.373,3.559,7.931,7.932,7.931h91.726c4.373,0,7.932-3.558,7.932-7.931c0-4.374-3.559-7.932-7.932-7.932H191.3z"/>
				</g>
				<g>
					<path class="st2" d="M141.592,353.853c-10.99,0-19.932-8.941-19.932-19.931s8.941-19.932,19.932-19.932
						s19.932,8.941,19.932,19.932S152.582,353.853,141.592,353.853z M141.592,325.99c-4.373,0-7.932,3.558-7.932,7.932
						c0,4.373,3.559,7.931,7.932,7.931s7.932-3.558,7.932-7.931C149.523,329.548,145.965,325.99,141.592,325.99z"/>
				</g>
			</g>
			<g>
				<g>
					<path class="st3" d="M308.039,184.745h-191.46c-6.367,0-11.528-5.161-11.528-11.528v-43.685
						c0-6.367,5.161-11.528,11.528-11.528h191.46c6.367,0,11.528,5.161,11.528,11.528v43.685
						C319.567,179.584,314.405,184.745,308.039,184.745z"/>
				</g>
				<g>
					<path class="st4" d="M308.039,118.005h-19.506v66.741h19.506c6.367,0,11.528-5.161,11.528-11.528v-43.685
						C319.567,123.166,314.405,118.005,308.039,118.005z"/>
				</g>
				<g>
					<path class="st2" d="M308.039,190.746H116.578c-9.665,0-17.527-7.863-17.527-17.528v-43.685
						c0-9.665,7.862-17.528,17.527-17.528h191.461c9.665,0,17.527,7.863,17.527,17.528v43.685
						C325.566,182.882,317.704,190.746,308.039,190.746z M116.578,124.005c-3.048,0-5.527,2.48-5.527,5.528v43.685
						c0,3.048,2.479,5.528,5.527,5.528h191.461c3.048,0,5.527-2.48,5.527-5.528v-43.685c0-3.048-2.479-5.528-5.527-5.528H116.578z"
						/>
				</g>
				<g>
					<circle class="st7" cx="141.592" cy="151.375" r="13.931"/>
				</g>
				<g>
					<path class="st5" d="M283.025,137.444H191.3c-7.694,0-13.931,6.237-13.931,13.931v0c0,7.694,6.237,13.931,13.931,13.931h91.725
						c7.694,0,13.931-6.237,13.931-13.931v0C296.957,143.681,290.719,137.444,283.025,137.444z"/>
				</g>
				<g>
					<path class="st2" d="M283.025,171.307H191.3c-10.99,0-19.932-8.941-19.932-19.932s8.941-19.931,19.932-19.931h91.726
						c10.99,0,19.932,8.941,19.932,19.931S294.016,171.307,283.025,171.307z M191.3,143.444c-4.373,0-7.932,3.558-7.932,7.931
						c0,4.374,3.559,7.932,7.932,7.932h91.726c4.373,0,7.932-3.558,7.932-7.932c0-4.373-3.559-7.931-7.932-7.931H191.3z"/>
				</g>
				<g>
					<path class="st2" d="M141.592,171.307c-10.99,0-19.932-8.941-19.932-19.932s8.941-19.931,19.932-19.931
						s19.932,8.941,19.932,19.931S152.582,171.307,141.592,171.307z M141.592,143.444c-4.373,0-7.932,3.558-7.932,7.931
						c0,4.374,3.559,7.932,7.932,7.932s7.932-3.558,7.932-7.932C149.523,147.002,145.965,143.444,141.592,143.444z"/>
				</g>
			</g>
		</g>
		<g>
			<g>
				<circle class="st1" cx="319.567" cy="246.538" r="87.383"/>
			</g>
			<g>
				<g>
					<path class="st3" d="M347.947,305.153l-56.183,0.276c-4.497,0.022-8.16-3.605-8.182-8.102l-0.276-56.183
						c-0.022-4.497,3.605-8.16,8.102-8.182l56.183-0.276c4.497-0.022,8.16,3.605,8.182,8.102l0.276,56.183
						C356.071,301.467,352.443,305.131,347.947,305.153z"/>
				</g>
				<g>
					<path class="st2" d="M329.946,262.56c-0.031-6.249-5.288-11.251-11.61-10.881c-5.607,0.327-10.137,5.005-10.295,10.62
						c-0.115,4.09,2.017,7.676,5.24,9.651l0.043,8.785c0.016,3.179,2.605,5.743,5.784,5.727l0,0
						c3.179-0.016,5.743-2.605,5.727-5.784l-0.043-8.785C327.9,269.946,329.965,266.495,329.946,262.56z"/>
				</g>
				<g>
					<path class="st2" d="M291.722,311.429c-3.751,0-7.282-1.452-9.949-4.093c-2.685-2.658-4.172-6.203-4.19-9.98l-0.276-56.182
						c-0.037-7.798,6.276-14.173,14.073-14.211l56.183-0.276c0.023,0,0.047,0,0.07,0c7.766,0,14.103,6.298,14.142,14.073
						l0.275,56.183c0.019,3.777-1.435,7.336-4.093,10.02c-2.658,2.685-6.203,4.173-9.98,4.191l-56.183,0.276
						C291.77,311.429,291.745,311.429,291.722,311.429z M347.631,238.686c-0.004,0-0.007,0-0.011,0l-56.183,0.276
						c-1.182,0.006-2.138,0.972-2.132,2.153l0.276,56.182c0.004,0.772,0.399,1.279,0.635,1.512c0.234,0.232,0.74,0.62,1.507,0.62
						c0.003,0,0.007,0,0.011,0l56.183-0.276l0,0c0.772-0.004,1.279-0.399,1.512-0.635c0.233-0.236,0.624-0.746,0.62-1.518
						l-0.275-56.183C349.768,239.64,348.808,238.686,347.631,238.686z"/>
				</g>
				<g>
					<path class="st2" d="M291.407,238.961c-3.3,0-5.982-2.667-5.999-5.97l-0.087-17.601c-0.044-8.932,3.394-17.346,9.678-23.692
						c6.284-6.347,14.664-9.866,23.596-9.91c0.055,0,0.111,0,0.166,0c18.362,0,33.346,14.892,33.436,33.274l0.086,17.6
						c0.017,3.313-2.657,6.013-5.971,6.029c-0.01,0-0.02,0-0.03,0c-3.3,0-5.982-2.667-5.999-5.971l-0.086-17.6
						c-0.028-5.726-2.284-11.099-6.354-15.127c-4.068-4.029-9.457-6.225-15.189-6.205c-5.726,0.028-11.099,2.284-15.128,6.353
						c-4.028,4.069-6.232,9.463-6.204,15.189l0.087,17.6c0.017,3.314-2.656,6.013-5.971,6.03
						C291.428,238.961,291.417,238.961,291.407,238.961z"/>
				</g>
			</g>
			<g>
				<path class="st2" d="M319.554,339.921c-24.769,0-48.081-9.587-65.693-27.027c-17.725-17.551-27.553-40.954-27.676-65.897
					c-0.252-51.491,41.434-93.587,92.924-93.84c0.156,0,0.315-0.001,0.472-0.001c24.769,0,48.081,9.587,65.693,27.027
					c17.725,17.551,27.553,40.954,27.675,65.897l0,0c0.123,24.943-9.476,48.441-27.026,66.165s-40.953,27.552-65.896,27.675
					C319.869,339.92,319.71,339.921,319.554,339.921z M319.579,165.156c-0.139,0-0.273,0-0.412,0.001
					c-44.874,0.22-81.202,36.907-80.982,81.781c0.106,21.738,8.673,42.133,24.119,57.429c15.349,15.198,35.668,23.554,57.251,23.554
					c0.139,0,0.273,0,0.412-0.001c21.737-0.106,42.133-8.672,57.429-24.118c15.295-15.447,23.66-35.925,23.553-57.663l0,0
					c-0.106-21.738-8.672-42.133-24.118-57.429C361.481,173.512,341.163,165.156,319.579,165.156z"/>
			</g>
		</g>
	</g>
</g>
</svg>
