<?xml version="1.0" encoding="utf-8"?>
<!-- Generator: Adobe Illustrator 22.1.0, SVG Export Plug-In . SVG Version: 6.00 Build 0)  -->
<svg version="1.1" id="Icon_Set" xmlns="http://www.w3.org/2000/svg" xmlns:xlink="http://www.w3.org/1999/xlink" x="0px" y="0px"
	 viewBox="0 0 512 512" style="enable-background:new 0 0 512 512;" xml:space="preserve">
<style type="text/css">
	.st0{fill:#F0C48A;}
	.st1{fill:#D3E6F8;}
	.st2{fill:#4C4372;}
	.st3{fill:#FD919E;}
	.st4{fill:#E8677D;}
	.st5{fill:#FFFFFF;}
	.st6{fill:#A4CFF2;}
	.st7{fill:#7BABF1;}
</style>
<g id="Database_Connection">
	<g>
		<g>
			<circle class="st0" cx="256" cy="256" r="207"/>
		</g>
	</g>
	<g>
		<g>
			<g>
				<rect x="127.661" y="184.745" class="st7" width="169.296" height="115.806"/>
			</g>
			<g>
				<rect x="127.661" y="367.292" class="st7" width="36.746" height="26.704"/>
			</g>
			<g>
				<rect x="260.21" y="367.292" class="st7" width="36.746" height="26.704"/>
			</g>
			<g>
				<path class="st2" d="M296.957,306.551H127.66c-3.313,0-6-2.687-6-6V184.745c0-3.313,2.687-6,6-6h169.297c3.313,0,6,2.687,6,6
					v115.806C302.957,303.864,300.271,306.551,296.957,306.551z M133.66,294.551h157.297V190.745H133.66V294.551z"/>
			</g>
			<g>
				<path class="st2" d="M164.407,399.995H127.66c-3.313,0-6-2.687-6-6v-26.704c0-3.313,2.687-6,6-6h36.747c3.313,0,6,2.687,6,6
					v26.704C170.407,397.309,167.721,399.995,164.407,399.995z M133.66,387.995h24.747v-14.704H133.66V387.995z"/>
			</g>
			<g>
				<path class="st2" d="M296.957,399.995H260.21c-3.313,0-6-2.687-6-6v-26.704c0-3.313,2.687-6,6-6h36.747c3.313,0,6,2.687,6,6
					v26.704C302.957,397.309,300.271,399.995,296.957,399.995z M266.21,387.995h24.747v-14.704H266.21V387.995z"/>
			</g>
			<g>
				<g>
					<path class="st1" d="M308.039,276.018h-191.46c-6.367,0-11.528-5.161-11.528-11.528v-43.685
						c0-6.367,5.161-11.528,11.528-11.528h191.46c6.367,0,11.528,5.161,11.528,11.528v43.685
						C319.567,270.857,314.405,276.018,308.039,276.018z"/>
				</g>
				<g>
					<path class="st6" d="M308.039,209.278h-19.506v66.741h19.506c6.367,0,11.528-5.161,11.528-11.528v-43.685
						C319.567,214.439,314.405,209.278,308.039,209.278z"/>
				</g>
				<g>
					<path class="st2" d="M308.039,282.019H116.578c-9.665,0-17.527-7.863-17.527-17.528v-43.685
						c0-9.665,7.862-17.528,17.527-17.528h191.461c9.665,0,17.527,7.863,17.527,17.528v43.685
						C325.566,274.155,317.704,282.019,308.039,282.019z M116.578,215.277c-3.048,0-5.527,2.48-5.527,5.528v43.685
						c0,3.048,2.479,5.528,5.527,5.528h191.461c3.048,0,5.527-2.48,5.527-5.528v-43.685c0-3.048-2.479-5.528-5.527-5.528H116.578z"
						/>
				</g>
				<g>
					<circle class="st3" cx="141.592" cy="242.648" r="13.931"/>
				</g>
				<g>
					<path class="st5" d="M283.025,228.717H191.3c-7.694,0-13.931,6.237-13.931,13.931v0c0,7.694,6.237,13.931,13.931,13.931h91.725
						c7.694,0,13.931-6.237,13.931-13.931v0C296.957,234.954,290.719,228.717,283.025,228.717z"/>
				</g>
				<g>
					<path class="st2" d="M283.025,262.579H191.3c-10.99,0-19.932-8.94-19.932-19.931s8.941-19.932,19.932-19.932h91.726
						c10.99,0,19.932,8.941,19.932,19.932S294.016,262.579,283.025,262.579z M191.3,234.717c-4.373,0-7.932,3.559-7.932,7.932
						s3.559,7.931,7.932,7.931h91.726c4.373,0,7.932-3.558,7.932-7.931s-3.559-7.932-7.932-7.932H191.3z"/>
				</g>
				<g>
					<path class="st2" d="M141.592,262.579c-10.99,0-19.932-8.94-19.932-19.931s8.941-19.932,19.932-19.932
						s19.932,8.941,19.932,19.932S152.582,262.579,141.592,262.579z M141.592,234.717c-4.373,0-7.932,3.559-7.932,7.932
						s3.559,7.931,7.932,7.931s7.932-3.558,7.932-7.931S145.965,234.717,141.592,234.717z"/>
				</g>
			</g>
			<g>
				<g>
					<path class="st3" d="M308.039,367.292h-191.46c-6.367,0-11.528-5.161-11.528-11.528v-43.685
						c0-6.367,5.161-11.528,11.528-11.528h191.46c6.367,0,11.528,5.161,11.528,11.528v43.685
						C319.567,362.13,314.405,367.292,308.039,367.292z"/>
				</g>
				<g>
					<path class="st4" d="M308.039,300.551h-19.506v66.741h19.506c6.367,0,11.528-5.161,11.528-11.528v-43.685
						C319.567,305.712,314.405,300.551,308.039,300.551z"/>
				</g>
				<g>
					<path class="st2" d="M308.039,373.291H116.578c-9.665,0-17.527-7.862-17.527-17.527v-43.685
						c0-9.665,7.862-17.528,17.527-17.528h191.461c9.665,0,17.527,7.863,17.527,17.528v43.685
						C325.566,365.429,317.704,373.291,308.039,373.291z M116.578,306.551c-3.048,0-5.527,2.48-5.527,5.528v43.685
						c0,3.048,2.479,5.527,5.527,5.527h191.461c3.048,0,5.527-2.479,5.527-5.527v-43.685c0-3.048-2.479-5.528-5.527-5.528H116.578z"
						/>
				</g>
				<g>
					<circle class="st7" cx="141.592" cy="333.921" r="13.931"/>
				</g>
				<g>
					<path class="st5" d="M283.025,319.99H191.3c-7.694,0-13.931,6.237-13.931,13.931v0c0,7.694,6.237,13.931,13.931,13.931h91.725
						c7.694,0,13.931-6.237,13.931-13.931v0C296.957,326.227,290.719,319.99,283.025,319.99z"/>
				</g>
				<g>
					<path class="st2" d="M283.025,353.853H191.3c-10.99,0-19.932-8.941-19.932-19.932s8.941-19.931,19.932-19.931h91.726
						c10.99,0,19.932,8.94,19.932,19.931S294.016,353.853,283.025,353.853z M191.3,325.99c-4.373,0-7.932,3.558-7.932,7.931
						c0,4.374,3.559,7.932,7.932,7.932h91.726c4.373,0,7.932-3.558,7.932-7.932c0-4.373-3.559-7.931-7.932-7.931H191.3z"/>
				</g>
				<g>
					<path class="st2" d="M141.592,353.853c-10.99,0-19.932-8.941-19.932-19.932s8.941-19.931,19.932-19.931
						s19.932,8.94,19.932,19.931S152.582,353.853,141.592,353.853z M141.592,325.99c-4.373,0-7.932,3.558-7.932,7.931
						s3.559,7.932,7.932,7.932s7.932-3.559,7.932-7.932S145.965,325.99,141.592,325.99z"/>
				</g>
			</g>
			<g>
				<g>
					<path class="st3" d="M308.039,184.745h-191.46c-6.367,0-11.528-5.161-11.528-11.528v-43.685
						c0-6.367,5.161-11.528,11.528-11.528h191.46c6.367,0,11.528,5.161,11.528,11.528v43.685
						C319.567,179.584,314.405,184.745,308.039,184.745z"/>
				</g>
				<g>
					<path class="st4" d="M308.039,118.005h-19.506v66.741h19.506c6.367,0,11.528-5.161,11.528-11.528v-43.685
						C319.567,123.166,314.405,118.005,308.039,118.005z"/>
				</g>
				<g>
					<path class="st2" d="M308.039,190.745H116.578c-9.665,0-17.527-7.862-17.527-17.527v-43.685
						c0-9.665,7.862-17.528,17.527-17.528h191.461c9.665,0,17.527,7.863,17.527,17.528v43.685
						C325.566,182.883,317.704,190.745,308.039,190.745z M116.578,124.005c-3.048,0-5.527,2.48-5.527,5.528v43.685
						c0,3.048,2.479,5.527,5.527,5.527h191.461c3.048,0,5.527-2.479,5.527-5.527v-43.685c0-3.048-2.479-5.528-5.527-5.528H116.578z"
						/>
				</g>
				<g>
					<circle class="st7" cx="141.592" cy="151.375" r="13.931"/>
				</g>
				<g>
					<path class="st5" d="M283.025,137.444H191.3c-7.694,0-13.931,6.237-13.931,13.931v0c0,7.694,6.237,13.931,13.931,13.931h91.725
						c7.694,0,13.931-6.237,13.931-13.931v0C296.957,143.681,290.719,137.444,283.025,137.444z"/>
				</g>
				<g>
					<path class="st2" d="M283.025,171.307H191.3c-10.99,0-19.932-8.941-19.932-19.932s8.941-19.932,19.932-19.932h91.726
						c10.99,0,19.932,8.941,19.932,19.932S294.016,171.307,283.025,171.307z M191.3,143.443c-4.373,0-7.932,3.559-7.932,7.932
						s3.559,7.932,7.932,7.932h91.726c4.373,0,7.932-3.559,7.932-7.932s-3.559-7.932-7.932-7.932H191.3z"/>
				</g>
				<g>
					<path class="st2" d="M141.592,171.307c-10.99,0-19.932-8.941-19.932-19.932s8.941-19.932,19.932-19.932
						s19.932,8.941,19.932,19.932S152.582,171.307,141.592,171.307z M141.592,143.443c-4.373,0-7.932,3.559-7.932,7.932
						s3.559,7.932,7.932,7.932s7.932-3.559,7.932-7.932S145.965,143.443,141.592,143.443z"/>
				</g>
			</g>
		</g>
		<g>
			<circle class="st1" cx="319.567" cy="246.538" r="87.383"/>
		</g>
		<g>
			<path class="st2" d="M319.559,339.921c-51.28,0.003-93.121-41.587-93.374-92.924c-0.252-51.49,41.434-93.588,92.924-93.841
				c0.153-0.001,0.311-0.001,0.465-0.001c51.28,0,93.123,41.588,93.375,92.925l0,0c0.123,24.943-9.476,48.441-27.026,66.165
				c-17.551,17.725-40.953,27.553-65.896,27.675C319.871,339.921,319.713,339.921,319.559,339.921z M319.572,165.155
				c-0.137,0-0.269,0-0.405,0.001c-44.874,0.221-81.202,36.908-80.982,81.782c0.22,44.737,36.688,80.98,81.375,80.982
				c0.138,0,0.271,0,0.407-0.001c21.737-0.106,42.133-8.672,57.429-24.118c15.295-15.446,23.66-35.925,23.553-57.663l0,0
				C400.729,201.402,364.26,165.155,319.572,165.155z"/>
		</g>
		<g>
			<g>
				<path class="st3" d="M317.589,262.302L317.589,262.302c-7.957-7.957-7.957-20.858,0-28.816l24.424-24.424
					c7.957-7.957,20.858-7.957,28.815,0l0,0c7.957,7.957,7.957,20.858,0,28.815l-24.424,24.424
					C338.447,270.26,325.546,270.26,317.589,262.302z"/>
			</g>
			<g>
				<path class="st3" d="M269.973,284.014L269.973,284.014c-7.957-7.957-7.957-20.858,0-28.816l24.424-24.424
					c7.957-7.957,20.858-7.957,28.815,0v0c7.957,7.957,7.957,20.858,0,28.815l-24.424,24.424
					C290.831,291.971,277.93,291.971,269.973,284.014z"/>
			</g>
		</g>
		<g>
			<g>
				<path class="st2" d="M331.996,274.258c-6.754,0-13.508-2.57-18.649-7.713c-0.001,0-0.001,0-0.001,0
					c-10.283-10.284-10.282-27.017,0.001-37.3l24.423-24.425c10.285-10.283,27.018-10.285,37.301,0
					c4.982,4.98,7.727,11.604,7.727,18.649c0,7.046-2.744,13.67-7.727,18.651l-24.423,24.424
					C345.505,271.688,338.751,274.258,331.996,274.258z M321.831,258.061c5.606,5.604,14.727,5.603,20.331,0l24.423-24.425
					c2.716-2.716,4.212-6.326,4.212-10.166c0-3.839-1.496-7.449-4.211-10.164c-2.716-2.716-6.325-4.211-10.165-4.211
					c-3.841,0-7.45,1.495-10.166,4.21l-24.423,24.425C316.227,243.335,316.227,252.455,321.831,258.061L321.831,258.061z"/>
			</g>
			<g>
				<path class="st2" d="M284.38,295.97c-6.754,0-13.508-2.57-18.649-7.713c-0.001,0-0.001,0-0.001,0
					c-10.282-10.284-10.282-27.017,0-37.301l24.426-24.425c10.284-10.283,27.02-10.281,37.3,0.001
					c10.284,10.283,10.284,27.017,0,37.3l-24.425,24.425C297.889,293.399,291.135,295.97,284.38,295.97z M308.806,230.813
					c-3.682,0-7.363,1.401-10.166,4.203l-24.425,24.425c-5.604,5.604-5.604,14.725,0,20.33v0.001c5.605,5.604,14.726,5.603,20.331,0
					l24.425-24.425c5.604-5.605,5.604-14.726,0-20.331C316.168,232.215,312.486,230.813,308.806,230.813z"/>
			</g>
		</g>
	</g>
</g>
</svg>
