<?xml version="1.0" encoding="utf-8"?>
<!-- Generator: Adobe Illustrator 22.1.0, SVG Export Plug-In . SVG Version: 6.00 Build 0)  -->
<svg version="1.1" id="Icon_Set" xmlns="http://www.w3.org/2000/svg" xmlns:xlink="http://www.w3.org/1999/xlink" x="0px" y="0px"
	 viewBox="0 0 512 512" style="enable-background:new 0 0 512 512;" xml:space="preserve">
<style type="text/css">
	.st0{fill:#F0C48A;}
	.st1{fill:#D3E6F8;}
	.st2{fill:#4C4372;}
	.st3{fill:#FD919E;}
	.st4{fill:#E8677D;}
	.st5{fill:#FFFFFF;}
	.st6{fill:#A4CFF2;}
	.st7{fill:#7BABF1;}
</style>
<g id="Data_Protection">
	<g>
		<g>
			<circle class="st0" cx="256" cy="256" r="207"/>
		</g>
	</g>
	<g>
		<g>
			<g>
				<path class="st7" d="M311.637,383.979h-187.35c-9.326,0-16.885-7.56-16.885-16.885V144.906c0-9.326,7.56-16.885,16.885-16.885
					h187.35c9.326,0,16.885,7.56,16.885,16.885v222.187C328.523,376.419,320.963,383.979,311.637,383.979z"/>
			</g>
			<g>
				<g>
					<g>
						<path class="st3" d="M298.421,205.703H137.503c-4.626,0-8.377-3.75-8.377-8.377v-31.742c0-4.626,3.75-8.377,8.377-8.377
							h160.918c4.626,0,8.376,3.75,8.376,8.377v31.742C306.798,201.953,303.048,205.703,298.421,205.703z"/>
					</g>
					<g>
						<path class="st2" d="M298.421,211.703H137.503c-7.927,0-14.376-6.449-14.376-14.377v-31.742
							c0-7.927,6.449-14.376,14.376-14.376h160.918c7.928,0,14.377,6.449,14.377,14.376v31.742
							C312.798,205.254,306.349,211.703,298.421,211.703z M137.503,163.208c-1.311,0-2.376,1.065-2.376,2.376v31.742
							c0,1.311,1.065,2.377,2.376,2.377h160.918c1.311,0,2.377-1.066,2.377-2.377v-31.742c0-1.311-1.066-2.376-2.377-2.376H137.503z
							"/>
					</g>
					<g>
						<circle class="st2" cx="155.679" cy="181.455" r="10.123"/>
					</g>
				</g>
				<g>
					<g>
						<path class="st3" d="M298.421,280.248H137.503c-4.626,0-8.377-3.75-8.377-8.377v-31.742c0-4.626,3.75-8.377,8.377-8.377
							h160.918c4.626,0,8.376,3.75,8.376,8.377v31.742C306.798,276.497,303.048,280.248,298.421,280.248z"/>
					</g>
					<g>
						<path class="st2" d="M298.421,286.248H137.503c-7.927,0-14.376-6.449-14.376-14.377v-31.742
							c0-7.928,6.449-14.377,14.376-14.377h160.918c7.928,0,14.377,6.449,14.377,14.377v31.742
							C312.798,279.799,306.349,286.248,298.421,286.248z M137.503,237.752c-1.311,0-2.376,1.066-2.376,2.377v31.742
							c0,1.311,1.065,2.377,2.376,2.377h160.918c1.311,0,2.377-1.066,2.377-2.377v-31.742c0-1.311-1.066-2.377-2.377-2.377H137.503z
							"/>
					</g>
					<g>
						<circle class="st2" cx="155.679" cy="256" r="10.123"/>
					</g>
				</g>
				<g>
					<g>
						<path class="st3" d="M298.421,354.792H137.503c-4.626,0-8.377-3.75-8.377-8.376v-31.742c0-4.626,3.75-8.377,8.377-8.377
							h160.918c4.626,0,8.376,3.75,8.376,8.377v31.742C306.798,351.042,303.048,354.792,298.421,354.792z"/>
					</g>
					<g>
						<path class="st2" d="M298.421,360.792H137.503c-7.927,0-14.376-6.449-14.376-14.376v-31.742
							c0-7.928,6.449-14.377,14.376-14.377h160.918c7.928,0,14.377,6.449,14.377,14.377v31.742
							C312.798,354.343,306.349,360.792,298.421,360.792z M137.503,312.297c-1.311,0-2.376,1.066-2.376,2.377v31.742
							c0,1.311,1.065,2.376,2.376,2.376h160.918c1.311,0,2.377-1.065,2.377-2.376v-31.742c0-1.311-1.066-2.377-2.377-2.377H137.503z
							"/>
					</g>
					<g>
						<circle class="st2" cx="155.679" cy="330.545" r="10.123"/>
					</g>
				</g>
			</g>
			<g>
				<path class="st2" d="M311.638,389.979H124.287c-12.619,0-22.886-10.266-22.886-22.885V144.906
					c0-12.619,10.267-22.885,22.886-22.885h187.351c12.619,0,22.885,10.266,22.885,22.885v222.188
					C334.522,379.713,324.257,389.979,311.638,389.979z M124.287,134.021c-6.002,0-10.886,4.883-10.886,10.885v222.188
					c0,6.002,4.884,10.885,10.886,10.885h187.351c6.002,0,10.885-4.883,10.885-10.885V144.906c0-6.002-4.883-10.885-10.885-10.885
					H124.287z"/>
			</g>
		</g>
		<g>
			<path class="st2" d="M280.369,187.455h-88.694c-3.313,0-6-2.687-6-6s2.687-6,6-6h88.694c3.313,0,6,2.687,6,6
				S283.683,187.455,280.369,187.455z"/>
		</g>
		<g>
			<path class="st2" d="M280.369,262h-88.694c-3.313,0-6-2.687-6-6s2.687-6,6-6h88.694c3.313,0,6,2.687,6,6S283.683,262,280.369,262
				z"/>
		</g>
		<g>
			<path class="st2" d="M280.369,336.545h-88.694c-3.313,0-6-2.687-6-6s2.687-6,6-6h88.694c3.313,0,6,2.687,6,6
				S283.683,336.545,280.369,336.545z"/>
		</g>
		<g>
			<g>
				<g>
					<path class="st1" d="M328.523,348.713L328.523,348.713c48.044-37.914,76.076-95.745,76.076-156.947v-0.229l-74.845-28.25
						l-77.306,28.25v0.229C252.447,252.968,280.479,310.799,328.523,348.713L328.523,348.713z"/>
				</g>
				<g>
					<path class="st2" d="M328.522,354.713c-1.313,0-2.627-0.43-3.717-1.29c-24.28-19.161-44.245-44-57.736-71.833
						s-20.622-58.894-20.622-89.823v-0.229c0-2.52,1.574-4.771,3.94-5.636l77.306-28.251c1.35-0.494,2.833-0.485,4.179,0.022
						l74.846,28.251c2.335,0.882,3.881,3.117,3.881,5.613v0.229c0,30.93-7.131,61.99-20.622,89.823
						c-13.492,27.833-33.457,52.672-57.737,71.833C331.149,354.283,329.836,354.713,328.522,354.713z M258.488,195.719
						c0.579,27.814,7.249,55.611,19.379,80.637c12.01,24.776,29.468,47.035,50.655,64.638
						c21.188-17.604,38.646-39.862,50.655-64.638c12.138-25.04,18.809-52.854,19.381-80.685l-68.84-25.983L258.488,195.719z"/>
				</g>
			</g>
			<g>
				<circle class="st5" cx="329.753" cy="245.778" r="41.432"/>
			</g>
			<g>
				<path class="st2" d="M329.753,293.209c-26.154,0-47.432-21.277-47.432-47.432s21.277-47.432,47.432-47.432
					s47.432,21.277,47.432,47.432S355.907,293.209,329.753,293.209z M329.753,210.346c-19.537,0-35.432,15.895-35.432,35.432
					s15.895,35.432,35.432,35.432s35.432-15.895,35.432-35.432S349.29,210.346,329.753,210.346z"/>
			</g>
			<g>
				<path class="st2" d="M327.688,268.062c-1.535,0-3.071-0.586-4.242-1.758l-19.846-19.846c-2.344-2.343-2.344-6.142,0-8.484
					c2.342-2.344,6.143-2.344,8.484,0l15.604,15.603l23.295-23.294c2.342-2.344,6.143-2.344,8.484,0
					c2.344,2.343,2.344,6.142,0,8.484l-27.537,27.537C330.76,267.476,329.224,268.062,327.688,268.062z"/>
			</g>
		</g>
	</g>
</g>
</svg>
