<?xml version="1.0" encoding="utf-8"?>
<!-- Generator: Adobe Illustrator 22.1.0, SVG Export Plug-In . SVG Version: 6.00 Build 0)  -->
<svg version="1.1" id="Icon_Set" xmlns="http://www.w3.org/2000/svg" xmlns:xlink="http://www.w3.org/1999/xlink" x="0px" y="0px"
	 viewBox="0 0 512 512" style="enable-background:new 0 0 512 512;" xml:space="preserve">
<style type="text/css">
	.st0{fill:#F0C48A;}
	.st1{fill:#D3E6F8;}
	.st2{fill:#4C4372;}
	.st3{fill:#FD919E;}
	.st4{fill:#E8677D;}
	.st5{fill:#FFFFFF;}
	.st6{fill:#A4CFF2;}
	.st7{fill:#7BABF1;}
</style>
<g id="Data_Transfer">
	<g>
		<g>
			<circle class="st0" cx="256" cy="256" r="207"/>
		</g>
	</g>
	<g>
		<g>
			<g>
				<path class="st1" d="M333.389,311.666H124.515c-13.171,0-23.847-10.677-23.847-23.847V157.973
					c0-13.171,10.677-23.847,23.847-23.847h208.873c13.171,0,23.847,10.677,23.847,23.847v129.846
					C357.236,300.989,346.559,311.666,333.389,311.666z"/>
			</g>
			<g>
				<path class="st5" d="M333.388,134.126H124.515c-13.171,0-23.847,10.677-23.847,23.847v129.846h256.568V157.973
					C357.236,144.802,346.559,134.126,333.388,134.126z"/>
			</g>
			<g>
				<path class="st6" d="M333.388,134.126h-4.815v177.541h4.815c13.171,0,23.847-10.677,23.847-23.847V157.973
					C357.236,144.802,346.559,134.126,333.388,134.126z"/>
			</g>
			<g>
				<path class="st1" d="M333.388,134.126h-4.815v153.693h28.663V157.973C357.236,144.802,346.559,134.126,333.388,134.126z"/>
			</g>
			<g>
				<path class="st2" d="M333.389,317.666H124.516c-16.458,0-29.848-13.389-29.848-29.847V157.973
					c0-16.458,13.39-29.847,29.848-29.847h208.873c16.458,0,29.848,13.389,29.848,29.847v129.846
					C363.236,304.277,349.847,317.666,333.389,317.666z M124.516,140.125c-9.841,0-17.848,8.006-17.848,17.847v129.846
					c0,9.841,8.007,17.847,17.848,17.847h208.873c9.841,0,17.848-8.006,17.848-17.847V157.973c0-9.841-8.007-17.847-17.848-17.847
					H124.516z"/>
			</g>
			<g>
				<path class="st2" d="M357.236,293.819H100.668c-3.313,0-6-2.686-6-6V157.973c0-16.458,13.39-29.847,29.848-29.847h208.873
					c16.458,0,29.848,13.389,29.848,29.847v129.846C363.236,291.133,360.55,293.819,357.236,293.819z M106.668,281.819h244.568
					V157.973c0-9.841-8.007-17.847-17.848-17.847H124.516c-9.841,0-17.848,8.006-17.848,17.847V281.819z"/>
			</g>
			<g>
				<path class="st1" d="M275.663,374.53h-93.421v-17.547c0-4.653,3.772-8.426,8.426-8.426h76.569c4.654,0,8.426,3.772,8.426,8.426
					V374.53z"/>
			</g>
			<g>
				<rect x="210.506" y="311.666" class="st6" width="36.891" height="36.891"/>
			</g>
			<g>
				<path class="st2" d="M247.397,354.558h-36.892c-3.313,0-6-2.686-6-6v-36.891c0-3.314,2.687-6,6-6h36.892c3.313,0,6,2.686,6,6
					v36.891C253.397,351.871,250.711,354.558,247.397,354.558z M216.506,342.558h24.892v-24.891h-24.892V342.558z"/>
			</g>
			<g>
				<path class="st2" d="M275.662,380.53h-93.421c-3.313,0-6-2.686-6-6v-17.546c0-7.955,6.472-14.426,14.426-14.426h76.569
					c7.954,0,14.426,6.471,14.426,14.426v17.546C281.662,377.844,278.976,380.53,275.662,380.53z M188.241,368.53h81.421v-11.546
					c0-1.338-1.088-2.426-2.426-2.426h-76.569c-1.338,0-2.426,1.088-2.426,2.426V368.53z"/>
			</g>
		</g>
		<g>
			<g>
				<path class="st3" d="M399.493,377.874h-84.514c-6.538,0-11.839-5.3-11.839-11.839V222.811c0-6.538,5.3-11.839,11.839-11.839
					h84.514c6.538,0,11.839,5.3,11.839,11.839v143.224C411.332,372.574,406.032,377.874,399.493,377.874z"/>
			</g>
			<g>
				<circle class="st2" cx="357.236" cy="363.047" r="6.976"/>
			</g>
			<g>
				<rect x="303.14" y="233.246" class="st5" width="108.192" height="114.99"/>
			</g>
			<g>
				<path class="st2" d="M399.493,383.875h-84.515c-9.836,0-17.839-8.002-17.839-17.839V222.811c0-9.836,8.003-17.839,17.839-17.839
					h84.515c9.836,0,17.839,8.002,17.839,17.839v143.225C417.332,375.872,409.329,383.875,399.493,383.875z M314.979,216.972
					c-3.22,0-5.839,2.619-5.839,5.839v143.225c0,3.219,2.619,5.839,5.839,5.839h84.515c3.22,0,5.839-2.619,5.839-5.839V222.811
					c0-3.219-2.619-5.839-5.839-5.839H314.979z"/>
			</g>
			<g>
				<path class="st2" d="M411.332,354.236H303.14c-3.313,0-6-2.686-6-6v-114.99c0-3.314,2.687-6,6-6h108.192c3.313,0,6,2.686,6,6
					v114.99C417.332,351.55,414.646,354.236,411.332,354.236z M309.14,342.236h96.192v-102.99H309.14V342.236z"/>
			</g>
		</g>
		<g>
			<polygon class="st7" points="214.982,188.408 201.031,174.457 220.088,169.35 239.146,164.244 234.039,183.301 228.933,202.359 
							"/>
		</g>
		<g>
			<polygon class="st3" points="242.922,233.537 256.873,247.488 237.816,252.594 218.758,257.701 223.865,238.643 228.971,219.586 
							"/>
		</g>
		<g>
			<path class="st2" d="M182.224,227.166c-1.535,0-3.071-0.586-4.242-1.757c-2.344-2.343-2.344-6.142,0-8.485l32.758-32.758
				c2.342-2.343,6.143-2.343,8.484,0c2.344,2.343,2.344,6.142,0,8.485l-32.758,32.758
				C185.295,226.58,183.759,227.166,182.224,227.166z"/>
		</g>
		<g>
			<path class="st2" d="M228.933,208.359c-1.57,0-3.103-0.617-4.242-1.758l-13.951-13.951l0,0l-13.951-13.951
				c-1.517-1.516-2.108-3.725-1.554-5.796s2.173-3.688,4.243-4.243l38.115-10.213c2.069-0.554,4.28,0.037,5.795,1.553
				c1.517,1.516,2.108,3.725,1.554,5.796l-10.213,38.115c-0.555,2.071-2.173,3.688-4.243,4.243
				C229.973,208.292,229.45,208.359,228.933,208.359z M219.224,184.165l6.604,6.603l4.833-18.038l-18.039,4.833L219.224,184.165z"/>
		</g>
		<g>
			<path class="st2" d="M242.922,239.537c-1.536,0-3.071-0.586-4.243-1.757c-2.343-2.343-2.343-6.142,0.001-8.485l32.759-32.758
				c2.342-2.344,6.142-2.343,8.485,0c2.343,2.343,2.343,6.142-0.001,8.485l-32.759,32.758
				C245.993,238.951,244.457,239.537,242.922,239.537z"/>
		</g>
		<g>
			<path class="st2" d="M218.759,263.701c-1.57,0-3.103-0.617-4.242-1.758c-1.517-1.516-2.108-3.725-1.554-5.796l10.213-38.115
				c0.555-2.071,2.173-3.688,4.243-4.243c2.069-0.554,4.279,0.037,5.796,1.553l27.9,27.902c1.517,1.516,2.108,3.725,1.554,5.796
				s-2.173,3.688-4.243,4.243l-38.114,10.213C219.799,263.634,219.276,263.701,218.759,263.701z M232.077,231.177l-4.833,18.038
				l18.038-4.833l-6.603-6.603c0,0-0.001,0-0.001,0L232.077,231.177z"/>
		</g>
		<g>
			<path class="st2" d="M355.738,310.647c-0.015,0-0.029,0-0.044,0c-1.605-0.012-3.138-0.666-4.257-1.816l-16.773-17.243
				c-2.311-2.375-2.258-6.174,0.117-8.484c2.376-2.311,6.173-2.258,8.484,0.117l12.536,12.887l27.418-27.363
				c2.345-2.341,6.145-2.337,8.485,0.009c2.341,2.345,2.337,6.144-0.009,8.485l-31.72,31.656
				C358.852,310.017,357.327,310.647,355.738,310.647z"/>
		</g>
	</g>
</g>
</svg>
