<?xml version="1.0" encoding="utf-8"?>
<!-- Generator: Adobe Illustrator 22.1.0, SVG Export Plug-In . SVG Version: 6.00 Build 0)  -->
<svg version="1.1" id="Icon_Set" xmlns="http://www.w3.org/2000/svg" xmlns:xlink="http://www.w3.org/1999/xlink" x="0px" y="0px"
	 viewBox="0 0 512 512" style="enable-background:new 0 0 512 512;" xml:space="preserve">
<style type="text/css">
	.st0{fill:#F0C48A;}
	.st1{fill:#D3E6F8;}
	.st2{fill:#4C4372;}
	.st3{fill:#FD919E;}
	.st4{fill:#E8677D;}
	.st5{fill:#FFFFFF;}
	.st6{fill:#A4CFF2;}
	.st7{fill:#7BABF1;}
</style>
<g id="Data_Cable">
	<g>
		<g>
			<circle class="st0" cx="256" cy="256" r="207"/>
		</g>
	</g>
	<g>
		<g>
			<g>
				<path class="st6" d="M180.889,284.486L180.889,284.486c-7.301,0-13.219-5.919-13.219-13.219v-26.151h26.439v26.151
					C194.108,278.568,188.19,284.486,180.889,284.486z"/>
			</g>
			<g>
				<path class="st2" d="M180.889,290.486c-10.598,0-19.22-8.622-19.22-19.219v-26.152c0-3.313,2.687-6,6-6h26.439
					c3.313,0,6,2.687,6,6v26.152C200.108,281.865,191.486,290.486,180.889,290.486z M173.669,251.115v20.152
					c0,3.98,3.239,7.219,7.22,7.219c3.98,0,7.219-3.239,7.219-7.219v-20.152H173.669z"/>
			</g>
			<g>
				<path class="st1" d="M180.889,251.068L180.889,251.068c-24.831,0-44.961-20.13-44.961-44.961v-51.973h89.922v51.973
					C225.85,230.938,205.72,251.068,180.889,251.068z"/>
			</g>
			<g>
				<rect x="150.252" y="99.917" class="st5" width="61.273" height="54.217"/>
			</g>
			<g>
				
					<rect x="325.5" y="364.944" transform="matrix(-1 -1.224647e-16 1.224647e-16 -1 691.9902 777.027)" class="st5" width="40.989" height="47.14"/>
			</g>
			<g>
				<path class="st3" d="M345.995,300.098L345.995,300.098c16.611,0,30.077,13.466,30.077,30.077v34.768h-60.155v-34.768
					C315.918,313.564,329.384,300.098,345.995,300.098z"/>
			</g>
			<g>
				<path class="st2" d="M180.889,257.068c-28.1,0-50.961-22.861-50.961-50.961v-51.973c0-3.313,2.687-6,6-6h89.922
					c3.313,0,6,2.687,6,6v51.973C231.85,234.207,208.989,257.068,180.889,257.068z M141.927,160.134v45.973
					c0,21.483,17.478,38.961,38.961,38.961c21.483,0,38.961-17.478,38.961-38.961v-45.973H141.927z"/>
			</g>
			<g>
				<path class="st2" d="M211.525,160.134h-61.272c-3.313,0-6-2.687-6-6V99.917c0-3.313,2.687-6,6-6h61.272c3.313,0,6,2.687,6,6
					v54.217C217.525,157.447,214.838,160.134,211.525,160.134z M156.252,148.134h49.272v-42.217h-49.272V148.134z"/>
			</g>
			<g>
				<path class="st2" d="M376.073,370.944h-60.155c-3.313,0-6-2.687-6-6v-34.769c0-19.893,16.185-36.077,36.078-36.077
					s36.078,16.184,36.078,36.077v34.769C382.073,368.257,379.386,370.944,376.073,370.944z M321.917,358.944h48.155v-28.769
					c0-13.276-10.801-24.077-24.078-24.077s-24.078,10.801-24.078,24.077V358.944z"/>
			</g>
			<g>
				<path class="st2" d="M366.49,418.083H325.5c-3.313,0-6-2.687-6-6v-47.14c0-3.313,2.687-6,6-6h40.989c3.313,0,6,2.687,6,6v47.14
					C372.49,415.397,369.803,418.083,366.49,418.083z M331.5,406.083h28.989v-35.14H331.5V406.083z"/>
			</g>
			<g>
				<g>
					<path class="st2" d="M169.313,140.738c-3.313,0-6-2.687-6-6v-15.904c0-3.313,2.687-6,6-6s6,2.687,6,6v15.904
						C175.313,138.051,172.626,140.738,169.313,140.738z"/>
				</g>
				<g>
					<path class="st2" d="M192.464,140.738c-3.313,0-6-2.687-6-6v-15.904c0-3.313,2.687-6,6-6s6,2.687,6,6v15.904
						C198.464,138.051,195.778,140.738,192.464,140.738z"/>
				</g>
			</g>
			<g>
				<path class="st2" d="M224.426,418.083h-3.015c-25.653,0-46.523-20.87-46.523-46.523v-87.074c0-3.313,2.686-6,6-6
					c3.313,0,6,2.687,6,6v87.074c0,19.036,15.487,34.523,34.523,34.523h3.015c19.036,0,34.523-15.487,34.523-34.523V140.439
					c0-25.653,20.87-46.523,46.523-46.523s46.523,20.87,46.523,46.523v159.659c0,3.313-2.686,6-6,6c-3.313,0-6-2.687-6-6V140.439
					c0-19.036-15.487-34.523-34.523-34.523s-34.523,15.487-34.523,34.523v231.121C270.949,397.213,250.079,418.083,224.426,418.083z
					"/>
			</g>
		</g>
		<g>
			<g>
				<path class="st2" d="M197.932,183.482h-35.264c-3.313,0-6-2.687-6-6s2.687-6,6-6h35.264c3.313,0,6,2.687,6,6
					S201.246,183.482,197.932,183.482z"/>
			</g>
			<g>
				<path class="st2" d="M197.932,202.717h-35.264c-3.313,0-6-2.687-6-6s2.687-6,6-6h35.264c3.313,0,6,2.687,6,6
					S201.246,202.717,197.932,202.717z"/>
			</g>
			<g>
				<path class="st2" d="M197.932,221.951h-35.264c-3.313,0-6-2.687-6-6s2.687-6,6-6h35.264c3.313,0,6,2.687,6,6
					S201.246,221.951,197.932,221.951z"/>
			</g>
		</g>
		<g>
			<g>
				<path class="st2" d="M354.205,329.95h-16.42c-3.313,0-6-2.687-6-6s2.687-6,6-6h16.42c3.313,0,6,2.687,6,6
					S357.519,329.95,354.205,329.95z"/>
			</g>
			<g>
				<path class="st2" d="M354.205,349.998h-16.42c-3.313,0-6-2.687-6-6s2.687-6,6-6h16.42c3.313,0,6,2.687,6,6
					S357.519,349.998,354.205,349.998z"/>
			</g>
		</g>
	</g>
</g>
</svg>
