<?xml version="1.0" encoding="utf-8"?>
<!-- Generator: Adobe Illustrator 22.1.0, SVG Export Plug-In . SVG Version: 6.00 Build 0)  -->
<svg version="1.1" id="Icon_Set" xmlns="http://www.w3.org/2000/svg" xmlns:xlink="http://www.w3.org/1999/xlink" x="0px" y="0px"
	 viewBox="0 0 512 512" style="enable-background:new 0 0 512 512;" xml:space="preserve">
<style type="text/css">
	.st0{fill:#F0C48A;}
	.st1{fill:#D3E6F8;}
	.st2{fill:#4C4372;}
	.st3{fill:#FD919E;}
	.st4{fill:#E8677D;}
	.st5{fill:#FFFFFF;}
	.st6{fill:#A4CFF2;}
	.st7{fill:#7BABF1;}
</style>
<g id="Database_Management">
	<g>
		<g>
			<circle class="st0" cx="256" cy="256" r="207"/>
		</g>
	</g>
	<g>
		<g>
			<g>
				<path class="st6" d="M212.309,110.051c-61.362,0-111.105,19.985-111.105,44.639v202.62c0,24.653,49.743,44.639,111.105,44.639
					s111.105-19.986,111.105-44.639V154.69C323.414,130.036,273.671,110.051,212.309,110.051z"/>
			</g>
			<g>
				<path class="st7" d="M288.047,389.966c21.756-8.149,35.367-19.763,35.367-32.656V154.69c0-9.659-7.636-18.6-20.613-25.904
					h-14.754V389.966z"/>
			</g>
			<g>
				<path class="st1" d="M212.309,110.051c-61.362,0-111.105,19.985-111.105,44.639v67.54c0,24.654,49.743,44.639,111.105,44.639
					s111.105-19.985,111.105-44.639v-67.54C323.414,130.036,273.671,110.051,212.309,110.051z"/>
			</g>
			<g>
				<path class="st6" d="M288.047,254.886c21.756-8.149,35.367-19.763,35.367-32.656v-67.54c0-9.659-7.636-18.6-20.613-25.904
					h-14.754V254.886z"/>
			</g>
			<g>
				<path class="st1" d="M212.309,401.949c61.362,0,111.105-19.986,111.105-44.639v-67.54c0,24.653-49.743,44.639-111.105,44.639
					s-111.105-19.986-111.105-44.639v67.54C101.203,381.964,150.947,401.949,212.309,401.949z"/>
			</g>
			<g>
				<path class="st6" d="M288.047,322.426v67.541c21.756-8.149,35.367-19.763,35.367-32.656V289.77
					C323.414,302.663,309.804,314.277,288.047,322.426z"/>
			</g>
			<g>
				<ellipse class="st7" cx="212.309" cy="149.255" rx="110.256" ry="39.204"/>
			</g>
			<g>
				<circle class="st3" cx="146.089" cy="217.431" r="13.855"/>
			</g>
			<g>
				<circle class="st3" cx="146.089" cy="290.77" r="13.855"/>
			</g>
			<g>
				<circle class="st3" cx="146.089" cy="359.011" r="13.855"/>
			</g>
			<g>
				<path class="st2" d="M212.309,407.949c-30.426,0-59.121-4.797-80.8-13.507c-23.412-9.406-36.305-22.593-36.305-37.132V154.689
					c0-14.539,12.894-27.726,36.305-37.132c21.679-8.71,50.375-13.507,80.8-13.507s59.121,4.797,80.8,13.507
					c23.412,9.406,36.305,22.593,36.305,37.132v202.621c0,14.539-12.894,27.726-36.305,37.132
					C271.43,403.152,242.734,407.949,212.309,407.949z M212.309,116.051c-28.929,0-56.036,4.489-76.327,12.642
					c-18.289,7.349-28.779,16.824-28.779,25.997v202.621c0,18.275,43.165,38.639,105.105,38.639
					c28.929,0,56.036-4.489,76.327-12.642c18.289-7.349,28.779-16.824,28.779-25.997V154.689
					C317.414,136.414,274.249,116.051,212.309,116.051z"/>
			</g>
			<g>
				<path class="st2" d="M212.309,407.949c-30.426,0-59.121-4.797-80.8-13.507c-23.412-9.406-36.305-22.593-36.305-37.132V289.77
					c0-3.313,2.687-6,6-6s6,2.687,6,6c0,18.276,43.165,38.64,105.105,38.64c28.929,0,56.036-4.49,76.327-12.643
					c9.364-3.762,16.942-8.248,21.916-12.972c4.554-4.326,6.863-8.709,6.863-13.025c0-3.313,2.687-6,6-6s6,2.687,6,6v67.541
					c0,14.539-12.894,27.726-36.305,37.132C271.43,403.152,242.734,407.949,212.309,407.949z M107.203,312.752v44.559
					c0,18.275,43.165,38.639,105.105,38.639c28.929,0,56.036-4.489,76.327-12.642c9.364-3.763,16.942-8.248,21.916-12.972
					c4.554-4.326,6.863-8.709,6.863-13.025v-44.559c-6,5.294-14.167,10.076-24.305,14.149c-21.68,8.711-50.375,13.508-80.8,13.508
					s-59.121-4.797-80.8-13.508C121.37,322.828,113.204,318.046,107.203,312.752z"/>
			</g>
			<g>
				<path class="st2" d="M212.309,194.459c-59.601,0-108.385-18.281-116-43.468c-0.342-1.132-0.342-2.341,0-3.473
					c7.615-25.187,56.399-43.468,116-43.468s108.385,18.281,116,43.468c0.342,1.132,0.342,2.341,0,3.473
					C320.694,176.178,271.909,194.459,212.309,194.459z M108.441,149.255c3.6,8.16,15.086,16.181,31.976,22.237
					c19.721,7.072,45.252,10.967,71.891,10.967s52.17-3.895,71.891-10.967c16.89-6.057,28.376-14.077,31.976-22.237
					c-3.6-8.16-15.086-16.181-31.976-22.237c-19.722-7.072-45.253-10.967-71.891-10.967s-52.169,3.895-71.891,10.967
					C123.528,133.074,112.042,141.095,108.441,149.255z"/>
			</g>
			<g>
				<path class="st2" d="M212.309,272.869c-30.426,0-59.121-4.797-80.8-13.507c-23.412-9.406-36.305-22.594-36.305-37.133v-67.54
					c0-14.539,12.894-27.726,36.305-37.132c21.679-8.71,50.375-13.507,80.8-13.507s59.121,4.797,80.8,13.507
					c23.412,9.406,36.305,22.593,36.305,37.132v67.54c0,14.539-12.894,27.727-36.305,37.133
					C271.43,268.072,242.734,272.869,212.309,272.869z M212.309,116.051c-28.929,0-56.036,4.489-76.327,12.642
					c-9.364,3.763-16.942,8.248-21.916,12.972c-4.554,4.326-6.863,8.709-6.863,13.025v67.54c0,18.276,43.165,38.64,105.105,38.64
					c28.929,0,56.036-4.489,76.327-12.642c9.364-3.763,16.942-8.248,21.916-12.973c4.554-4.326,6.863-8.708,6.863-13.025v-67.54
					C317.414,136.414,274.249,116.051,212.309,116.051z"/>
			</g>
			<g>
				<path class="st2" d="M146.089,237.285c-10.948,0-19.854-8.906-19.854-19.854s8.907-19.854,19.854-19.854
					s19.854,8.906,19.854,19.854S157.037,237.285,146.089,237.285z M146.089,209.576c-4.331,0-7.854,3.523-7.854,7.854
					s3.523,7.854,7.854,7.854s7.854-3.523,7.854-7.854S150.42,209.576,146.089,209.576z"/>
			</g>
			<g>
				<path class="st2" d="M146.089,310.624c-10.948,0-19.854-8.906-19.854-19.854s8.907-19.854,19.854-19.854
					s19.854,8.906,19.854,19.854S157.037,310.624,146.089,310.624z M146.089,282.915c-4.331,0-7.854,3.523-7.854,7.854
					s3.523,7.854,7.854,7.854s7.854-3.523,7.854-7.854S150.42,282.915,146.089,282.915z"/>
			</g>
			<g>
				<path class="st2" d="M146.089,378.865c-10.948,0-19.854-8.906-19.854-19.854s8.907-19.854,19.854-19.854
					s19.854,8.906,19.854,19.854S157.037,378.865,146.089,378.865z M146.089,351.156c-4.331,0-7.854,3.523-7.854,7.854
					s3.523,7.854,7.854,7.854s7.854-3.523,7.854-7.854S150.42,351.156,146.089,351.156z"/>
			</g>
		</g>
		<g>
			<g>
				<circle class="st5" cx="323.414" cy="271" r="87.383"/>
			</g>
			<g>
				<g>
					<path class="st3" d="M385.207,280.651v-19.302h-19.335c-1.104-4.877-3.024-9.442-5.613-13.546l13.673-13.673l-13.648-13.648
						l-13.673,13.673c-4.104-2.589-8.669-4.509-13.546-5.613v-19.335h-19.302v19.335c-4.877,1.104-9.442,3.024-13.546,5.613
						l-13.673-13.673l-13.648,13.648l13.673,13.673c-2.589,4.104-4.509,8.669-5.613,13.546h-19.335v19.302h19.335
						c1.104,4.877,3.024,9.442,5.613,13.546l-13.673,13.673l13.648,13.648l13.673-13.673c4.104,2.589,8.669,4.509,13.546,5.613
						v19.335h19.302v-19.335c4.877-1.104,9.442-3.024,13.546-5.613l13.673,13.673l13.648-13.648l-13.673-13.673
						c2.589-4.104,4.509-8.668,5.613-13.546H385.207z M323.414,296.715c-14.202,0-25.715-11.513-25.715-25.715
						c0-14.202,11.513-25.715,25.715-25.715c14.202,0,25.715,11.513,25.715,25.715C349.129,285.202,337.616,296.715,323.414,296.715
						z"/>
				</g>
				<g>
					<path class="st2" d="M333.065,338.793h-19.302c-3.313,0-6-2.687-6-6v-14.785c-2.236-0.744-4.414-1.646-6.521-2.702
						l-10.456,10.455c-1.125,1.126-2.651,1.758-4.243,1.758s-3.117-0.632-4.243-1.758l-13.648-13.648
						c-2.343-2.343-2.343-6.142,0-8.484l10.456-10.456c-1.057-2.107-1.958-4.284-2.702-6.521h-14.785c-3.313,0-6-2.687-6-6v-19.303
						c0-3.313,2.687-6,6-6h14.785c0.744-2.236,1.646-4.413,2.702-6.521l-10.456-10.456c-2.343-2.343-2.343-6.142,0-8.484
						l13.648-13.648c2.343-2.344,6.143-2.344,8.485,0l10.456,10.455c2.107-1.057,4.284-1.958,6.521-2.702v-14.785
						c0-3.313,2.687-6,6-6h19.302c3.313,0,6,2.687,6,6v14.785c2.236,0.744,4.414,1.646,6.521,2.702l10.456-10.455
						c1.125-1.126,2.651-1.758,4.243-1.758s3.117,0.632,4.243,1.758l13.648,13.648c2.343,2.343,2.343,6.142,0,8.484l-10.456,10.456
						c1.057,2.107,1.958,4.284,2.702,6.521h14.785c3.313,0,6,2.687,6,6v19.303c0,3.313-2.687,6-6,6h-14.785
						c-0.744,2.236-1.646,4.413-2.702,6.521l10.456,10.456c2.343,2.343,2.343,6.142,0,8.484l-13.648,13.648
						c-1.125,1.126-2.651,1.758-4.243,1.758s-3.118-0.632-4.243-1.758l-10.456-10.455c-2.107,1.057-4.285,1.959-6.521,2.702v14.785
						C339.065,336.106,336.378,338.793,333.065,338.793z M319.763,326.793h7.302v-13.335c0-2.803,1.941-5.232,4.675-5.852
						c4.146-0.939,8.072-2.566,11.669-4.836c2.372-1.495,5.463-1.15,7.445,0.832l9.431,9.431l5.163-5.163l-9.431-9.432
						c-1.982-1.982-2.328-5.072-0.832-7.443c2.271-3.6,3.897-7.525,4.835-11.669c0.619-2.733,3.049-4.675,5.852-4.675h13.335v-7.303
						h-13.335c-2.803,0-5.233-1.941-5.852-4.675c-0.938-4.144-2.564-8.069-4.835-11.669c-1.496-2.371-1.15-5.461,0.832-7.443
						l9.431-9.432l-5.163-5.163l-9.431,9.431c-1.982,1.982-5.074,2.327-7.445,0.832c-3.597-2.27-7.522-3.896-11.669-4.836
						c-2.734-0.619-4.675-3.049-4.675-5.852v-13.335h-7.302v13.335c0,2.803-1.941,5.232-4.675,5.852
						c-4.146,0.939-8.072,2.566-11.668,4.836c-2.37,1.496-5.462,1.151-7.445-0.832l-9.431-9.431l-5.163,5.163l9.431,9.432
						c1.982,1.982,2.328,5.072,0.832,7.443c-2.271,3.6-3.897,7.525-4.835,11.669c-0.619,2.733-3.049,4.675-5.852,4.675h-13.335
						v7.303h13.335c2.803,0,5.233,1.941,5.852,4.675c0.938,4.144,2.564,8.069,4.835,11.669c1.496,2.371,1.15,5.461-0.832,7.443
						l-9.431,9.432l5.163,5.163l9.431-9.431c1.982-1.983,5.072-2.329,7.445-0.832c3.597,2.27,7.522,3.896,11.669,4.836
						c2.734,0.619,4.675,3.049,4.675,5.852V326.793z M323.414,302.715c-17.488,0-31.715-14.228-31.715-31.715
						s14.227-31.715,31.715-31.715s31.715,14.228,31.715,31.715S340.902,302.715,323.414,302.715z M323.414,251.285
						c-10.871,0-19.715,8.844-19.715,19.715s8.844,19.715,19.715,19.715s19.715-8.844,19.715-19.715
						S334.285,251.285,323.414,251.285z"/>
				</g>
			</g>
			<g>
				<path class="st2" d="M323.414,364.383c-51.492,0-93.383-41.892-93.383-93.383s41.891-93.383,93.383-93.383
					s93.383,41.892,93.383,93.383S374.906,364.383,323.414,364.383z M323.414,189.617c-44.875,0-81.383,36.508-81.383,81.383
					s36.508,81.383,81.383,81.383s81.383-36.508,81.383-81.383S368.289,189.617,323.414,189.617z"/>
			</g>
		</g>
	</g>
</g>
</svg>
