<?xml version="1.0" encoding="utf-8"?>
<!-- Generator: Adobe Illustrator 22.1.0, SVG Export Plug-In . SVG Version: 6.00 Build 0)  -->
<svg version="1.1" id="Icon_Set" xmlns="http://www.w3.org/2000/svg" xmlns:xlink="http://www.w3.org/1999/xlink" x="0px" y="0px"
	 viewBox="0 0 512 512" style="enable-background:new 0 0 512 512;" xml:space="preserve">
<style type="text/css">
	.st0{fill:#F0C48A;}
	.st1{fill:#D3E6F8;}
	.st2{fill:#4C4372;}
	.st3{fill:#FD919E;}
	.st4{fill:#E8677D;}
	.st5{fill:#FFFFFF;}
	.st6{fill:#A4CFF2;}
	.st7{fill:#7BABF1;}
</style>
<g id="Database_Network">
	<g>
		<g>
			<circle class="st0" cx="256" cy="256" r="207"/>
		</g>
	</g>
	<g>
		<g>
			<g>
				<circle class="st3" cx="256" cy="198.252" r="118.518"/>
			</g>
			<g>
				<path class="st4" d="M256,79.734c-4.176,0-8.301,0.219-12.365,0.64c59.644,6.184,106.153,56.598,106.153,117.878
					c0,61.279-46.508,111.694-106.153,117.878c4.065,0.421,8.189,0.64,12.365,0.64c65.456,0,118.518-53.062,118.518-118.518
					C374.518,132.796,321.456,79.734,256,79.734z"/>
			</g>
			<g>
				<path class="st2" d="M256,322.77c-36.594,0-65.259-54.694-65.259-124.518S219.406,73.734,256,73.734
					s65.259,54.694,65.259,124.518S292.594,322.77,256,322.77z M256,85.734c-28.869,0-53.259,51.526-53.259,112.518
					S227.131,310.77,256,310.77s53.259-51.526,53.259-112.518S284.869,85.734,256,85.734z"/>
			</g>
			<g>
				<path class="st2" d="M256,322.77c-3.314,0-6-2.687-6-6V79.734c0-3.313,2.686-6,6-6s6,2.687,6,6V316.77
					C262,320.083,259.314,322.77,256,322.77z"/>
			</g>
			<g>
				<path class="st2" d="M374.518,204.252H137.482c-3.313,0-6-2.687-6-6s2.687-6,6-6h237.035c3.313,0,6,2.687,6,6
					S377.831,204.252,374.518,204.252z"/>
			</g>
			<g>
				<path class="st2" d="M256,151.729c-35.344,0-69.104-9.748-92.625-26.745c-1.37-0.99-2.258-2.512-2.448-4.19
					c-0.189-1.679,0.338-3.36,1.453-4.63C186.041,89.199,220.164,73.734,256,73.734s69.959,15.465,93.621,42.429
					c1.115,1.27,1.642,2.951,1.453,4.63c-0.19,1.679-1.079,3.2-2.448,4.19C325.104,141.98,291.344,151.729,256,151.729z
					 M176.075,119.064c21.146,13.19,49.833,20.664,79.925,20.664s58.779-7.474,79.925-20.664
					c-21.077-21.261-49.833-33.33-79.925-33.33S197.152,97.804,176.075,119.064z"/>
			</g>
			<g>
				<path class="st2" d="M256,322.77c-35.836,0-69.959-15.465-93.621-42.429c-1.115-1.27-1.642-2.951-1.453-4.63
					c0.19-1.679,1.079-3.2,2.448-4.19c23.521-16.997,57.281-26.745,92.625-26.745s69.104,9.748,92.625,26.745
					c1.37,0.99,2.258,2.512,2.448,4.19c0.189,1.679-0.338,3.36-1.453,4.63C325.959,307.305,291.836,322.77,256,322.77z
					 M176.075,277.439c21.077,21.261,49.833,33.33,79.925,33.33s58.848-12.069,79.925-33.33
					c-21.146-13.19-49.833-20.664-79.925-20.664S197.221,264.249,176.075,277.439z"/>
			</g>
			<g>
				<path class="st2" d="M256,322.77c-68.659,0-124.518-55.858-124.518-124.518S187.341,73.734,256,73.734
					s124.518,55.858,124.518,124.518S324.659,322.77,256,322.77z M256,85.734c-62.042,0-112.518,50.476-112.518,112.518
					S193.958,310.77,256,310.77s112.518-50.476,112.518-112.518S318.042,85.734,256,85.734z"/>
			</g>
		</g>
		<g>
			<g>
				<path class="st1" d="M355.183,432.266H156.817c-6.596,0-11.944-5.347-11.944-11.944v-45.26c0-6.596,5.347-11.944,11.944-11.944
					h198.366c6.596,0,11.944,5.347,11.944,11.944v45.26C367.127,426.918,361.779,432.266,355.183,432.266z"/>
			</g>
			<g>
				<path class="st1" d="M355.183,363.118H156.817c-6.596,0-11.944-5.347-11.944-11.944v-45.26c0-6.596,5.347-11.944,11.944-11.944
					h198.366c6.596,0,11.944,5.347,11.944,11.944v45.26C367.127,357.771,361.779,363.118,355.183,363.118z"/>
			</g>
			<g>
				<path class="st6" d="M355.183,293.97h-20.21v69.148h20.21c6.596,0,11.944-5.347,11.944-11.944v-45.26
					C367.127,299.318,361.779,293.97,355.183,293.97z"/>
			</g>
			<g>
				<path class="st6" d="M355.183,363.118h-20.21v69.148h20.21c6.596,0,11.944-5.347,11.944-11.944v-45.26
					C367.127,368.465,361.779,363.118,355.183,363.118z"/>
			</g>
			<g>
				<path class="st2" d="M355.183,438.266H156.817c-9.894,0-17.944-8.05-17.944-17.943v-45.261c0-9.894,8.05-17.943,17.944-17.943
					h198.366c9.894,0,17.944,8.05,17.944,17.943v45.261C373.127,430.216,365.077,438.266,355.183,438.266z M156.817,369.118
					c-3.277,0-5.944,2.666-5.944,5.943v45.261c0,3.277,2.667,5.943,5.944,5.943h198.366c3.277,0,5.944-2.666,5.944-5.943v-45.261
					c0-3.277-2.667-5.943-5.944-5.943H156.817z"/>
			</g>
			<g>
				<path class="st2" d="M355.183,369.118H156.817c-9.894,0-17.944-8.05-17.944-17.944v-45.26c0-9.895,8.05-17.944,17.944-17.944
					h198.366c9.894,0,17.944,8.05,17.944,17.944v45.26C373.127,361.068,365.077,369.118,355.183,369.118z M156.817,299.97
					c-3.277,0-5.944,2.667-5.944,5.944v45.26c0,3.277,2.667,5.944,5.944,5.944h198.366c3.277,0,5.944-2.667,5.944-5.944v-45.26
					c0-3.277-2.667-5.944-5.944-5.944H156.817z"/>
			</g>
			<g>
				<circle class="st3" cx="182.733" cy="397.692" r="14.434"/>
			</g>
			<g>
				<circle class="st3" cx="182.733" cy="328.544" r="14.434"/>
			</g>
			<g>
				<path class="st5" d="M329.267,383.258h-95.034c-7.972,0-14.434,6.462-14.434,14.434v0c0,7.972,6.462,14.434,14.434,14.434
					h95.034c7.972,0,14.434-6.462,14.434-14.434v0C343.701,389.72,337.239,383.258,329.267,383.258z"/>
			</g>
			<g>
				<path class="st5" d="M329.267,314.11h-95.034c-7.972,0-14.434,6.462-14.434,14.434v0c0,7.972,6.462,14.434,14.434,14.434h95.034
					c7.972,0,14.434-6.462,14.434-14.434v0C343.701,320.572,337.239,314.11,329.267,314.11z"/>
			</g>
			<g>
				<path class="st2" d="M329.268,418.126h-95.034c-11.267,0-20.434-9.166-20.434-20.434s9.167-20.435,20.434-20.435h95.034
					c11.267,0,20.434,9.166,20.434,20.434S340.535,418.126,329.268,418.126z M234.233,389.258c-4.65,0-8.434,3.783-8.434,8.434
					s3.783,8.435,8.434,8.435h95.034c4.65,0,8.434-3.783,8.434-8.434s-3.783-8.435-8.434-8.435H234.233z"/>
			</g>
			<g>
				<path class="st2" d="M329.268,348.978h-95.034c-11.267,0-20.434-9.166-20.434-20.434s9.167-20.434,20.434-20.434h95.034
					c11.267,0,20.434,9.166,20.434,20.434S340.535,348.978,329.268,348.978z M234.233,320.11c-4.65,0-8.434,3.783-8.434,8.434
					s3.783,8.434,8.434,8.434h95.034c4.65,0,8.434-3.783,8.434-8.434s-3.783-8.434-8.434-8.434H234.233z"/>
			</g>
			<g>
				<path class="st2" d="M182.733,418.126c-11.268,0-20.434-9.166-20.434-20.434s9.167-20.435,20.434-20.435
					c11.267,0,20.434,9.167,20.434,20.435S194,418.126,182.733,418.126z M182.733,389.258c-4.65,0-8.434,3.784-8.434,8.435
					s3.784,8.434,8.434,8.434s8.434-3.783,8.434-8.434S187.383,389.258,182.733,389.258z"/>
			</g>
			<g>
				<path class="st2" d="M182.733,348.978c-11.268,0-20.434-9.166-20.434-20.434s9.167-20.434,20.434-20.434
					c11.267,0,20.434,9.166,20.434,20.434S194,348.978,182.733,348.978z M182.733,320.11c-4.65,0-8.434,3.783-8.434,8.434
					s3.784,8.434,8.434,8.434s8.434-3.783,8.434-8.434S187.383,320.11,182.733,320.11z"/>
			</g>
		</g>
	</g>
</g>
</svg>
