<?xml version="1.0" encoding="utf-8"?>
<!-- Generator: Adobe Illustrator 22.1.0, SVG Export Plug-In . SVG Version: 6.00 Build 0)  -->
<svg version="1.1" id="Icon_Set" xmlns="http://www.w3.org/2000/svg" xmlns:xlink="http://www.w3.org/1999/xlink" x="0px" y="0px"
	 viewBox="0 0 512 512" style="enable-background:new 0 0 512 512;" xml:space="preserve">
<style type="text/css">
	.st0{fill:#F0C48A;}
	.st1{fill:#D3E6F8;}
	.st2{fill:#4C4372;}
	.st3{fill:#FD919E;}
	.st4{fill:#E8677D;}
	.st5{fill:#FFFFFF;}
	.st6{fill:#A4CFF2;}
	.st7{fill:#7BABF1;}
</style>
<g id="Database">
	<g>
		<g>
			<circle class="st0" cx="256" cy="256" r="207"/>
		</g>
	</g>
	<g>
		<g>
			<path class="st1" d="M375.605,297.693H136.395c-7.955,0-14.403-6.448-14.403-14.403V228.71c0-7.955,6.448-14.403,14.403-14.403
				h239.209c7.955,0,14.403,6.448,14.403,14.403v54.579C390.008,291.244,383.559,297.693,375.605,297.693z"/>
		</g>
		<g>
			<path class="st3" d="M375.605,214.307H136.395c-7.955,0-14.403-6.448-14.403-14.403v-54.579c0-7.955,6.448-14.403,14.403-14.403
				h239.209c7.955,0,14.403,6.448,14.403,14.403v54.579C390.008,207.859,383.559,214.307,375.605,214.307z"/>
		</g>
		<g>
			<path class="st4" d="M375.604,130.922h-24.371v83.385h24.371c7.955,0,14.403-6.448,14.403-14.403v-54.579
				C390.007,137.371,383.559,130.922,375.604,130.922z"/>
		</g>
		<g>
			<path class="st6" d="M375.604,214.307h-24.371v83.385h24.371c7.955,0,14.403-6.448,14.403-14.403V228.71
				C390.007,220.756,383.559,214.307,375.604,214.307z"/>
		</g>
		<g>
			<path class="st2" d="M375.604,303.692H136.396c-11.25,0-20.403-9.152-20.403-20.402v-54.58c0-11.25,9.153-20.402,20.403-20.402
				h239.209c11.25,0,20.403,9.152,20.403,20.402v54.58C396.008,294.54,386.854,303.692,375.604,303.692z M136.396,220.308
				c-4.633,0-8.403,3.77-8.403,8.402v54.58c0,4.633,3.77,8.402,8.403,8.402h239.209c4.634,0,8.403-3.77,8.403-8.402v-54.58
				c0-4.633-3.77-8.402-8.403-8.402H136.396z"/>
		</g>
		<g>
			<path class="st2" d="M375.604,220.308H136.396c-11.25,0-20.403-9.153-20.403-20.403v-54.579c0-11.25,9.153-20.403,20.403-20.403
				h239.209c11.25,0,20.403,9.153,20.403,20.403v54.579C396.008,211.154,386.854,220.308,375.604,220.308z M136.396,136.922
				c-4.633,0-8.403,3.77-8.403,8.403v54.579c0,4.634,3.77,8.403,8.403,8.403h239.209c4.634,0,8.403-3.77,8.403-8.403v-54.579
				c0-4.634-3.77-8.403-8.403-8.403H136.396z"/>
		</g>
		<g>
			<circle class="st3" cx="167.647" cy="256" r="17.406"/>
		</g>
		<g>
			<circle class="st7" cx="167.647" cy="172.615" r="17.406"/>
		</g>
		<g>
			<path class="st5" d="M344.353,238.594H229.752c-9.613,0-17.406,7.793-17.406,17.406v0c0,9.613,7.793,17.406,17.406,17.406
				h114.601c9.613,0,17.406-7.793,17.406-17.406v0C361.759,246.387,353.966,238.594,344.353,238.594z"/>
		</g>
		<g>
			<path class="st5" d="M344.353,155.209H229.752c-9.613,0-17.406,7.793-17.406,17.406v0c0,9.613,7.793,17.406,17.406,17.406
				h114.601c9.613,0,17.406-7.793,17.406-17.406v0C361.759,163.002,353.966,155.209,344.353,155.209z"/>
		</g>
		<g>
			<path class="st2" d="M344.353,279.405H229.752c-12.906,0-23.406-10.5-23.406-23.405s10.5-23.405,23.406-23.405h114.601
				c12.906,0,23.406,10.5,23.406,23.405S357.259,279.405,344.353,279.405z M229.752,244.595c-6.289,0-11.406,5.116-11.406,11.405
				s5.117,11.405,11.406,11.405h114.601c6.289,0,11.406-5.116,11.406-11.405s-5.117-11.405-11.406-11.405H229.752z"/>
		</g>
		<g>
			<path class="st2" d="M344.353,196.021H229.752c-12.906,0-23.406-10.5-23.406-23.405c0-12.906,10.5-23.406,23.406-23.406h114.601
				c12.906,0,23.406,10.5,23.406,23.406C367.759,185.521,357.259,196.021,344.353,196.021z M229.752,161.209
				c-6.289,0-11.406,5.117-11.406,11.406s5.117,11.405,11.406,11.405h114.601c6.289,0,11.406-5.116,11.406-11.405
				s-5.117-11.406-11.406-11.406H229.752z"/>
		</g>
		<g>
			<path class="st2" d="M167.647,279.405c-12.906,0-23.405-10.5-23.405-23.405s10.5-23.405,23.405-23.405s23.406,10.5,23.406,23.405
				S180.553,279.405,167.647,279.405z M167.647,244.595c-6.289,0-11.405,5.116-11.405,11.405s5.116,11.405,11.405,11.405
				s11.406-5.116,11.406-11.405S173.936,244.595,167.647,244.595z"/>
		</g>
		<g>
			<path class="st3" d="M375.605,381.078H136.395c-7.955,0-14.403-6.448-14.403-14.403v-54.579c0-7.955,6.448-14.403,14.403-14.403
				h239.209c7.955,0,14.403,6.448,14.403,14.403v54.579C390.008,374.629,383.559,381.078,375.605,381.078z"/>
		</g>
		<g>
			<path class="st4" d="M375.604,297.693h-24.371v83.385h24.371c7.955,0,14.403-6.448,14.403-14.403v-54.579
				C390.007,304.141,383.559,297.693,375.604,297.693z"/>
		</g>
		<g>
			<path class="st2" d="M375.604,387.078H136.396c-11.25,0-20.403-9.153-20.403-20.403v-54.579c0-11.25,9.153-20.403,20.403-20.403
				h239.209c11.25,0,20.403,9.153,20.403,20.403v54.579C396.008,377.925,386.854,387.078,375.604,387.078z M136.396,303.692
				c-4.633,0-8.403,3.77-8.403,8.403v54.579c0,4.634,3.77,8.403,8.403,8.403h239.209c4.634,0,8.403-3.77,8.403-8.403v-54.579
				c0-4.634-3.77-8.403-8.403-8.403H136.396z"/>
		</g>
		<g>
			<circle class="st7" cx="167.647" cy="339.385" r="17.406"/>
		</g>
		<g>
			<path class="st5" d="M344.353,321.979H229.752c-9.613,0-17.406,7.793-17.406,17.406v0c0,9.613,7.793,17.406,17.406,17.406
				h114.601c9.613,0,17.406-7.793,17.406-17.406v0C361.759,329.772,353.966,321.979,344.353,321.979z"/>
		</g>
		<g>
			<path class="st2" d="M344.353,362.791H229.752c-12.906,0-23.406-10.5-23.406-23.406c0-12.905,10.5-23.405,23.406-23.405h114.601
				c12.906,0,23.406,10.5,23.406,23.405C367.759,352.291,357.259,362.791,344.353,362.791z M229.752,327.979
				c-6.289,0-11.406,5.116-11.406,11.405s5.117,11.406,11.406,11.406h114.601c6.289,0,11.406-5.117,11.406-11.406
				s-5.117-11.405-11.406-11.405H229.752z"/>
		</g>
		<g>
			<path class="st2" d="M167.647,362.791c-12.906,0-23.405-10.5-23.405-23.406c0-12.905,10.5-23.405,23.405-23.405
				s23.406,10.5,23.406,23.405C191.053,352.291,180.553,362.791,167.647,362.791z M167.647,327.979
				c-6.289,0-11.405,5.116-11.405,11.405s5.116,11.406,11.405,11.406s11.406-5.117,11.406-11.406S173.936,327.979,167.647,327.979z"
				/>
		</g>
		<g>
			<path class="st2" d="M167.647,196.021c-12.906,0-23.405-10.5-23.405-23.405c0-12.906,10.5-23.406,23.405-23.406
				s23.406,10.5,23.406,23.406C191.053,185.521,180.553,196.021,167.647,196.021z M167.647,161.209
				c-6.289,0-11.405,5.117-11.405,11.406s5.116,11.405,11.405,11.405s11.406-5.116,11.406-11.405S173.936,161.209,167.647,161.209z"
				/>
		</g>
	</g>
</g>
</svg>
