<?xml version="1.0" encoding="utf-8"?>
<!-- Generator: Adobe Illustrator 22.1.0, SVG Export Plug-In . SVG Version: 6.00 Build 0)  -->
<svg version="1.1" id="Icon_Set" xmlns="http://www.w3.org/2000/svg" xmlns:xlink="http://www.w3.org/1999/xlink" x="0px" y="0px"
	 viewBox="0 0 512 512" style="enable-background:new 0 0 512 512;" xml:space="preserve">
<style type="text/css">
	.st0{fill:#F0C48A;}
	.st1{fill:#D3E6F8;}
	.st2{fill:#4C4372;}
	.st3{fill:#FD919E;}
	.st4{fill:#E8677D;}
	.st5{fill:#FFFFFF;}
	.st6{fill:#A4CFF2;}
	.st7{fill:#7BABF1;}
</style>
<g id="Data_Encryption">
	<g>
		<g>
			<circle class="st0" cx="256" cy="256" r="207"/>
		</g>
	</g>
	<g>
		<g>
			<g>
				<path class="st6" d="M233.526,110.051c-61.362,0-111.105,19.985-111.105,44.639v202.62c0,24.653,49.743,44.639,111.105,44.639
					s111.105-19.986,111.105-44.639V154.69C344.631,130.036,294.888,110.051,233.526,110.051z"/>
			</g>
			<g>
				<path class="st7" d="M309.265,389.966c21.756-8.149,35.367-19.763,35.367-32.656V154.69c0-9.659-7.636-18.6-20.613-25.904
					h-14.754V389.966z"/>
			</g>
			<g>
				<path class="st1" d="M233.526,110.051c-61.362,0-111.105,19.985-111.105,44.639v67.54c0,24.654,49.743,44.639,111.105,44.639
					s111.105-19.985,111.105-44.639v-67.54C344.631,130.036,294.888,110.051,233.526,110.051z"/>
			</g>
			<g>
				<path class="st6" d="M309.265,254.886c21.756-8.149,35.367-19.763,35.367-32.656v-67.54c0-9.659-7.636-18.6-20.613-25.904
					h-14.754V254.886z"/>
			</g>
			<g>
				<path class="st1" d="M233.526,401.949c61.362,0,111.105-19.986,111.105-44.639v-67.54c0,24.653-49.744,44.639-111.105,44.639
					S122.42,314.423,122.42,289.77v67.54C122.42,381.964,172.164,401.949,233.526,401.949z"/>
			</g>
			<g>
				<path class="st6" d="M309.265,322.426v67.541c21.756-8.149,35.367-19.763,35.367-32.656V289.77
					C344.631,302.663,331.021,314.277,309.265,322.426z"/>
			</g>
			<g>
				<ellipse class="st7" cx="233.526" cy="149.255" rx="110.256" ry="39.204"/>
			</g>
			<g>
				<circle class="st3" cx="167.306" cy="217.431" r="13.855"/>
			</g>
			<g>
				<circle class="st3" cx="167.306" cy="290.77" r="13.855"/>
			</g>
			<g>
				<circle class="st3" cx="167.306" cy="359.011" r="13.855"/>
			</g>
			<g>
				<path class="st2" d="M233.526,407.949c-30.426,0-59.121-4.797-80.8-13.507c-23.412-9.406-36.305-22.593-36.305-37.132V154.689
					c0-14.539,12.894-27.726,36.305-37.132c21.679-8.71,50.375-13.507,80.8-13.507s59.121,4.797,80.8,13.507
					c23.412,9.406,36.305,22.593,36.305,37.132v202.621c0,14.539-12.894,27.726-36.305,37.132
					C292.647,403.152,263.952,407.949,233.526,407.949z M233.526,116.051c-28.929,0-56.036,4.489-76.327,12.642
					c-18.289,7.349-28.779,16.824-28.779,25.997v202.621c0,18.275,43.165,38.639,105.105,38.639
					c28.929,0,56.036-4.489,76.327-12.642c18.289-7.349,28.779-16.824,28.779-25.997V154.689
					C338.631,136.414,295.466,116.051,233.526,116.051z"/>
			</g>
			<g>
				<path class="st2" d="M233.526,407.949c-30.426,0-59.121-4.797-80.8-13.507c-23.412-9.406-36.305-22.593-36.305-37.132V289.77
					c0-3.313,2.687-6,6-6s6,2.687,6,6c0,18.276,43.165,38.64,105.105,38.64c28.929,0,56.036-4.49,76.327-12.643
					c9.364-3.762,16.942-8.248,21.916-12.972c4.554-4.326,6.863-8.709,6.863-13.025c0-3.313,2.687-6,6-6s6,2.687,6,6v67.541
					c0,14.539-12.894,27.726-36.305,37.132C292.647,403.152,263.952,407.949,233.526,407.949z M128.42,312.752v44.559
					c0,18.275,43.165,38.639,105.105,38.639c28.929,0,56.036-4.489,76.327-12.642c9.364-3.763,16.942-8.248,21.916-12.972
					c4.554-4.326,6.863-8.709,6.863-13.025v-44.559c-6,5.294-14.167,10.076-24.305,14.149c-21.68,8.711-50.375,13.508-80.8,13.508
					s-59.121-4.797-80.8-13.508C142.587,322.828,134.421,318.046,128.42,312.752z"/>
			</g>
			<g>
				<path class="st2" d="M233.526,194.459c-59.601,0-108.385-18.281-116-43.468c-0.342-1.132-0.342-2.341,0-3.473
					c7.615-25.187,56.399-43.468,116-43.468s108.385,18.281,116,43.468c0.342,1.132,0.342,2.341,0,3.473
					C341.911,176.178,293.126,194.459,233.526,194.459z M129.659,149.255c3.6,8.16,15.086,16.181,31.976,22.237
					c19.721,7.072,45.252,10.967,71.891,10.967s52.17-3.895,71.891-10.967c16.89-6.057,28.376-14.077,31.976-22.237
					c-3.6-8.16-15.086-16.181-31.976-22.237c-19.722-7.072-45.253-10.967-71.891-10.967s-52.169,3.895-71.891,10.967
					C144.745,133.074,133.259,141.095,129.659,149.255z"/>
			</g>
			<g>
				<path class="st2" d="M233.526,272.869c-30.426,0-59.121-4.797-80.8-13.507c-23.412-9.406-36.305-22.594-36.305-37.133v-67.54
					c0-14.539,12.894-27.726,36.305-37.132c21.679-8.71,50.375-13.507,80.8-13.507s59.121,4.797,80.8,13.507
					c23.412,9.406,36.305,22.593,36.305,37.132v67.54c0,14.539-12.894,27.727-36.305,37.133
					C292.647,268.072,263.952,272.869,233.526,272.869z M233.526,116.051c-28.929,0-56.036,4.489-76.327,12.642
					c-9.364,3.763-16.942,8.248-21.916,12.972c-4.554,4.326-6.863,8.709-6.863,13.025v67.54c0,18.276,43.165,38.64,105.105,38.64
					c28.929,0,56.036-4.489,76.327-12.642c9.364-3.763,16.942-8.248,21.916-12.973c4.554-4.326,6.863-8.708,6.863-13.025v-67.54
					C338.631,136.414,295.466,116.051,233.526,116.051z"/>
			</g>
			<g>
				<path class="st2" d="M167.306,237.285c-10.948,0-19.854-8.906-19.854-19.854s8.907-19.854,19.854-19.854
					c10.948,0,19.855,8.906,19.855,19.854S178.254,237.285,167.306,237.285z M167.306,209.576c-4.331,0-7.854,3.523-7.854,7.854
					s3.523,7.854,7.854,7.854s7.855-3.523,7.855-7.854S171.637,209.576,167.306,209.576z"/>
			</g>
			<g>
				<path class="st2" d="M167.306,310.624c-10.948,0-19.854-8.906-19.854-19.854s8.907-19.854,19.854-19.854
					c10.948,0,19.855,8.906,19.855,19.854S178.254,310.624,167.306,310.624z M167.306,282.915c-4.331,0-7.854,3.523-7.854,7.854
					s3.523,7.854,7.854,7.854s7.855-3.523,7.855-7.854S171.637,282.915,167.306,282.915z"/>
			</g>
			<g>
				<path class="st2" d="M167.306,378.865c-10.948,0-19.854-8.906-19.854-19.854s8.907-19.854,19.854-19.854
					c10.948,0,19.855,8.906,19.855,19.854S178.254,378.865,167.306,378.865z M167.306,351.156c-4.331,0-7.854,3.523-7.854,7.854
					s3.523,7.854,7.854,7.854s7.855-3.523,7.855-7.854S171.637,351.156,167.306,351.156z"/>
			</g>
		</g>
		<g>
			<g>
				<path class="st3" d="M389.58,195.052c0-25.293-20.504-45.797-45.797-45.797c-25.293,0-45.797,20.505-45.797,45.797
					c0,18.713,11.228,34.793,27.31,41.9v110.162l18.487,15.631l18.487-15.631V236.952
					C378.351,229.846,389.58,213.765,389.58,195.052z"/>
			</g>
			<g>
				<path class="st2" d="M343.782,368.745c-1.378,0-2.755-0.473-3.874-1.418l-18.487-15.631c-1.348-1.141-2.126-2.816-2.126-4.582
					v-106.42c-16.712-8.973-27.31-26.479-27.31-45.642c0-28.562,23.236-51.798,51.797-51.798s51.797,23.236,51.797,51.798
					c0,19.162-10.598,36.669-27.31,45.642v106.42c0,1.766-0.778,3.441-2.126,4.582l-18.487,15.631
					C346.538,368.272,345.16,368.745,343.782,368.745z M331.295,344.33l12.487,10.558l12.487-10.558V236.952
					c0-2.376,1.402-4.527,3.575-5.488c14.419-6.371,23.735-20.664,23.735-36.411c0-21.944-17.853-39.798-39.797-39.798
					c-21.944,0-39.797,17.854-39.797,39.798c0,15.748,9.316,30.04,23.735,36.411c2.173,0.961,3.575,3.112,3.575,5.488V344.33z
					 M362.27,347.114h0.01H362.27z"/>
			</g>
			<g>
				<path class="st2" d="M343.782,368.745c-3.313,0-6-2.687-6-6V240.85c0-3.313,2.687-6,6-6s6,2.687,6,6v121.896
					C349.782,366.059,347.096,368.745,343.782,368.745z"/>
			</g>
			<g>
				<path class="st2" d="M362.27,334.484h-18.487c-3.313,0-6-2.687-6-6s2.687-6,6-6h18.487c3.313,0,6,2.687,6,6
					S365.583,334.484,362.27,334.484z"/>
			</g>
			<g>
				<path class="st2" d="M362.27,304.777h-18.487c-3.313,0-6-2.687-6-6s2.687-6,6-6h18.487c3.313,0,6,2.687,6,6
					S365.583,304.777,362.27,304.777z"/>
			</g>
			<g>
				<path class="st2" d="M362.27,275.07h-18.487c-3.313,0-6-2.687-6-6s2.687-6,6-6h18.487c3.313,0,6,2.687,6,6
					S365.583,275.07,362.27,275.07z"/>
			</g>
			<g>
				<circle class="st2" cx="343.782" cy="174.903" r="12.776"/>
			</g>
		</g>
	</g>
</g>
</svg>
