<?xml version="1.0" encoding="utf-8"?>
<!-- Generator: Adobe Illustrator 22.1.0, SVG Export Plug-In . SVG Version: 6.00 Build 0)  -->
<svg version="1.1" id="Icon_Set" xmlns="http://www.w3.org/2000/svg" xmlns:xlink="http://www.w3.org/1999/xlink" x="0px" y="0px"
	 viewBox="0 0 512 512" style="enable-background:new 0 0 512 512;" xml:space="preserve">
<style type="text/css">
	.st0{fill:#F0C48A;}
	.st1{fill:#D3E6F8;}
	.st2{fill:#4C4372;}
	.st3{fill:#FD919E;}
	.st4{fill:#E8677D;}
	.st5{fill:#FFFFFF;}
	.st6{fill:#A4CFF2;}
	.st7{fill:#7BABF1;}
</style>
<g id="Database_Scanning">
	<g>
		<g>
			<circle class="st0" cx="256" cy="256" r="207"/>
		</g>
	</g>
	<g>
		<g>
			<g>
				<rect x="113.2" y="184.745" class="st7" width="169.296" height="115.806"/>
			</g>
			<g>
				<rect x="113.2" y="367.292" class="st7" width="36.746" height="26.704"/>
			</g>
			<g>
				<rect x="245.749" y="367.292" class="st7" width="36.746" height="26.704"/>
			</g>
			<g>
				<path class="st2" d="M282.496,306.551H113.2c-3.313,0-6-2.687-6-6V184.745c0-3.313,2.687-6,6-6h169.296c3.313,0,6,2.687,6,6
					v115.806C288.496,303.864,285.81,306.551,282.496,306.551z M119.2,294.551h157.296V190.745H119.2V294.551z"/>
			</g>
			<g>
				<path class="st2" d="M149.946,399.995H113.2c-3.313,0-6-2.687-6-6v-26.704c0-3.313,2.687-6,6-6h36.747c3.313,0,6,2.687,6,6
					v26.704C155.946,397.309,153.26,399.995,149.946,399.995z M119.2,387.995h24.747v-14.704H119.2V387.995z"/>
			</g>
			<g>
				<path class="st2" d="M282.496,399.995H245.75c-3.313,0-6-2.687-6-6v-26.704c0-3.313,2.687-6,6-6h36.747c3.313,0,6,2.687,6,6
					v26.704C288.496,397.309,285.81,399.995,282.496,399.995z M251.75,387.995h24.747v-14.704H251.75V387.995z"/>
			</g>
			<g>
				<g>
					<path class="st1" d="M293.578,276.018h-191.46c-6.367,0-11.528-5.161-11.528-11.528v-43.685
						c0-6.367,5.161-11.528,11.528-11.528h191.46c6.367,0,11.528,5.161,11.528,11.528v43.685
						C305.106,270.857,299.945,276.018,293.578,276.018z"/>
				</g>
				<g>
					<path class="st6" d="M293.578,209.278h-19.506v66.741h19.506c6.367,0,11.528-5.161,11.528-11.528v-43.685
						C305.106,214.439,299.945,209.278,293.578,209.278z"/>
				</g>
				<g>
					<path class="st2" d="M293.578,282.019h-191.46c-9.665,0-17.528-7.863-17.528-17.528v-43.685
						c0-9.665,7.863-17.528,17.528-17.528h191.46c9.665,0,17.528,7.863,17.528,17.528v43.685
						C311.106,274.155,303.243,282.019,293.578,282.019z M102.118,215.277c-3.048,0-5.528,2.48-5.528,5.528v43.685
						c0,3.048,2.48,5.528,5.528,5.528h191.46c3.048,0,5.528-2.48,5.528-5.528v-43.685c0-3.048-2.48-5.528-5.528-5.528H102.118z"/>
				</g>
				<g>
					<circle class="st3" cx="127.131" cy="242.648" r="13.931"/>
				</g>
				<g>
					<path class="st5" d="M268.564,228.717h-91.725c-7.694,0-13.931,6.237-13.931,13.931v0c0,7.694,6.237,13.931,13.931,13.931
						h91.725c7.694,0,13.931-6.237,13.931-13.931v0C282.496,234.954,276.259,228.717,268.564,228.717z"/>
				</g>
				<g>
					<path class="st2" d="M268.564,262.579h-91.726c-10.99,0-19.931-8.94-19.931-19.931s8.941-19.932,19.931-19.932h91.726
						c10.99,0,19.932,8.941,19.932,19.932S279.555,262.579,268.564,262.579z M176.839,234.717c-4.373,0-7.931,3.559-7.931,7.932
						s3.558,7.931,7.931,7.931h91.726c4.373,0,7.932-3.558,7.932-7.931s-3.559-7.932-7.932-7.932H176.839z"/>
				</g>
				<g>
					<path class="st2" d="M127.131,262.579c-10.99,0-19.932-8.94-19.932-19.931s8.941-19.932,19.932-19.932
						s19.931,8.941,19.931,19.932S138.122,262.579,127.131,262.579z M127.131,234.717c-4.374,0-7.932,3.559-7.932,7.932
						s3.558,7.931,7.932,7.931c4.373,0,7.931-3.558,7.931-7.931S131.504,234.717,127.131,234.717z"/>
				</g>
			</g>
			<g>
				<g>
					<path class="st3" d="M293.578,367.292h-191.46c-6.367,0-11.528-5.161-11.528-11.528v-43.685
						c0-6.367,5.161-11.528,11.528-11.528h191.46c6.367,0,11.528,5.161,11.528,11.528v43.685
						C305.106,362.13,299.945,367.292,293.578,367.292z"/>
				</g>
				<g>
					<path class="st4" d="M293.578,300.551h-19.506v66.741h19.506c6.367,0,11.528-5.161,11.528-11.528v-43.685
						C305.106,305.712,299.945,300.551,293.578,300.551z"/>
				</g>
				<g>
					<path class="st2" d="M293.578,373.291h-191.46c-9.665,0-17.528-7.862-17.528-17.527v-43.685
						c0-9.665,7.863-17.528,17.528-17.528h191.46c9.665,0,17.528,7.863,17.528,17.528v43.685
						C311.106,365.429,303.243,373.291,293.578,373.291z M102.118,306.551c-3.048,0-5.528,2.48-5.528,5.528v43.685
						c0,3.048,2.48,5.527,5.528,5.527h191.46c3.048,0,5.528-2.479,5.528-5.527v-43.685c0-3.048-2.48-5.528-5.528-5.528H102.118z"/>
				</g>
				<g>
					<circle class="st7" cx="127.131" cy="333.921" r="13.931"/>
				</g>
				<g>
					<path class="st5" d="M268.564,319.99h-91.725c-7.694,0-13.931,6.237-13.931,13.931v0c0,7.694,6.237,13.931,13.931,13.931
						h91.725c7.694,0,13.931-6.237,13.931-13.931v0C282.496,326.227,276.259,319.99,268.564,319.99z"/>
				</g>
				<g>
					<path class="st2" d="M268.564,353.853h-91.726c-10.99,0-19.931-8.941-19.931-19.932s8.941-19.931,19.931-19.931h91.726
						c10.99,0,19.932,8.94,19.932,19.931S279.555,353.853,268.564,353.853z M176.839,325.99c-4.373,0-7.931,3.558-7.931,7.931
						c0,4.374,3.558,7.932,7.931,7.932h91.726c4.373,0,7.932-3.558,7.932-7.932c0-4.373-3.559-7.931-7.932-7.931H176.839z"/>
				</g>
				<g>
					<path class="st2" d="M127.131,353.853c-10.99,0-19.932-8.941-19.932-19.932s8.941-19.931,19.932-19.931
						s19.931,8.94,19.931,19.931S138.122,353.853,127.131,353.853z M127.131,325.99c-4.374,0-7.932,3.558-7.932,7.931
						s3.558,7.932,7.932,7.932c4.373,0,7.931-3.559,7.931-7.932S131.504,325.99,127.131,325.99z"/>
				</g>
			</g>
			<g>
				<g>
					<path class="st3" d="M293.578,184.745h-191.46c-6.367,0-11.528-5.161-11.528-11.528v-43.685
						c0-6.367,5.161-11.528,11.528-11.528h191.46c6.367,0,11.528,5.161,11.528,11.528v43.685
						C305.106,179.584,299.945,184.745,293.578,184.745z"/>
				</g>
				<g>
					<path class="st4" d="M293.578,118.005h-19.506v66.741h19.506c6.367,0,11.528-5.161,11.528-11.528v-43.685
						C305.106,123.166,299.945,118.005,293.578,118.005z"/>
				</g>
				<g>
					<path class="st2" d="M293.578,190.745h-191.46c-9.665,0-17.528-7.862-17.528-17.527v-43.685
						c0-9.665,7.863-17.528,17.528-17.528h191.46c9.665,0,17.528,7.863,17.528,17.528v43.685
						C311.106,182.883,303.243,190.745,293.578,190.745z M102.118,124.005c-3.048,0-5.528,2.48-5.528,5.528v43.685
						c0,3.048,2.48,5.527,5.528,5.527h191.46c3.048,0,5.528-2.479,5.528-5.527v-43.685c0-3.048-2.48-5.528-5.528-5.528H102.118z"/>
				</g>
				<g>
					<circle class="st7" cx="127.131" cy="151.375" r="13.931"/>
				</g>
				<g>
					<path class="st5" d="M268.564,137.444h-91.725c-7.694,0-13.931,6.237-13.931,13.931v0c0,7.694,6.237,13.931,13.931,13.931
						h91.725c7.694,0,13.931-6.237,13.931-13.931v0C282.496,143.681,276.259,137.444,268.564,137.444z"/>
				</g>
				<g>
					<path class="st2" d="M268.564,171.307h-91.726c-10.99,0-19.931-8.941-19.931-19.932s8.941-19.932,19.931-19.932h91.726
						c10.99,0,19.932,8.941,19.932,19.932S279.555,171.307,268.564,171.307z M176.839,143.443c-4.373,0-7.931,3.559-7.931,7.932
						s3.558,7.932,7.931,7.932h91.726c4.373,0,7.932-3.559,7.932-7.932s-3.559-7.932-7.932-7.932H176.839z"/>
				</g>
				<g>
					<path class="st2" d="M127.131,171.307c-10.99,0-19.932-8.941-19.932-19.932s8.941-19.932,19.932-19.932
						s19.931,8.941,19.931,19.932S138.122,171.307,127.131,171.307z M127.131,143.443c-4.374,0-7.932,3.559-7.932,7.932
						s3.558,7.932,7.932,7.932c4.373,0,7.931-3.559,7.931-7.932S131.504,143.443,127.131,143.443z"/>
				</g>
			</g>
		</g>
		<g>
			<g>
				<path class="st6" d="M416.534,359.604L416.534,359.604c-6.502,6.502-17.044,6.502-23.546,0l-68.684-68.684l23.546-23.546
					l68.684,68.684C423.036,342.56,423.036,353.102,416.534,359.604z"/>
			</g>
			<g>
				<path class="st2" d="M404.761,370.469c-5.801,0-11.601-2.207-16.016-6.623l-68.684-68.684c-2.344-2.343-2.344-6.142-0.001-8.484
					l23.546-23.547c1.126-1.126,2.651-1.758,4.243-1.758c1.591,0,3.117,0.632,4.242,1.758l68.685,68.685
					c8.831,8.831,8.831,23.199,0,32.03c0,0.001,0,0.001,0,0.001C416.361,368.261,410.56,370.469,404.761,370.469z M416.534,359.604
					h0.01H416.534z M332.789,290.92l64.44,64.441c4.152,4.15,10.908,4.151,15.062-0.001v0.001c4.151-4.152,4.151-10.909,0-15.062
					l-64.442-64.441L332.789,290.92z"/>
			</g>
			<g>
				<circle class="st1" cx="306.864" cy="249.934" r="79.743"/>
			</g>
			<g>
				<circle class="st5" cx="306.864" cy="249.934" r="57.499"/>
			</g>
			<g>
				<path class="st2" d="M306.864,335.637c-21.96,0.003-43.912-8.355-60.63-25.073c-16.195-16.194-25.113-37.727-25.113-60.629
					c0-22.903,8.918-44.436,25.113-60.63c33.432-33.433,87.829-33.431,121.259,0v-0.001c0,0.001,0,0.001,0,0.001
					c16.195,16.194,25.114,37.727,25.114,60.63c0,22.902-8.919,44.435-25.114,60.63C350.78,327.277,328.818,335.635,306.864,335.637
					z M306.864,176.226c-18.887,0-37.767,7.187-52.145,21.564c-13.928,13.928-21.599,32.446-21.599,52.145
					c0,19.697,7.67,38.216,21.599,52.145c28.752,28.752,75.535,28.752,104.289,0c13.929-13.929,21.599-32.447,21.599-52.145
					c0-19.698-7.67-38.217-21.599-52.145v-0.001C344.634,183.415,325.746,176.226,306.864,176.226z"/>
			</g>
			<g>
				<path class="st2" d="M306.864,313.433c-16.961,0-32.907-6.604-44.9-18.599c-24.757-24.758-24.757-65.042-0.001-89.8
					c11.994-11.994,27.94-18.599,44.901-18.599s32.907,6.604,44.9,18.599h-0.001c0.001,0,0.001,0,0.001,0
					c24.758,24.758,24.758,65.042-0.001,89.8C339.771,306.828,323.825,313.433,306.864,313.433z M306.864,198.436
					c-13.756,0-26.688,5.356-36.416,15.083c-20.078,20.08-20.078,52.751,0.001,72.831c9.727,9.727,22.659,15.083,36.415,15.083
					s26.688-5.356,36.414-15.083c20.08-20.08,20.08-52.751,0.001-72.831h-0.001C333.552,203.792,320.62,198.436,306.864,198.436z"/>
			</g>
		</g>
	</g>
</g>
</svg>
