<?xml version="1.0" encoding="utf-8"?>
<!-- Generator: Adobe Illustrator 22.1.0, SVG Export Plug-In . SVG Version: 6.00 Build 0)  -->
<svg version="1.1" id="Icon_Set" xmlns="http://www.w3.org/2000/svg" xmlns:xlink="http://www.w3.org/1999/xlink" x="0px" y="0px"
	 viewBox="0 0 512 512" style="enable-background:new 0 0 512 512;" xml:space="preserve">
<style type="text/css">
	.st0{fill:#F0C48A;}
	.st1{fill:#D3E6F8;}
	.st2{fill:#4C4372;}
	.st3{fill:#FD919E;}
	.st4{fill:#E8677D;}
	.st5{fill:#FFFFFF;}
	.st6{fill:#A4CFF2;}
	.st7{fill:#7BABF1;}
</style>
<g id="Data_Storage">
	<g>
		<g>
			<circle class="st0" cx="256" cy="256" r="207"/>
		</g>
	</g>
	<g>
		<g>
			<g>
				<path class="st7" d="M349.659,137.602c-51.727-51.727-135.592-51.727-187.319,0c-51.727,51.726-51.727,135.592,0,187.319
					c51.727,51.727,135.592,51.727,187.319,0C401.386,273.194,401.386,189.328,349.659,137.602z M282.609,257.87
					c-14.696,14.696-38.522,14.696-53.218,0c-14.696-14.696-14.696-38.522,0-53.218c14.696-14.696,38.522-14.696,53.218,0
					C297.305,219.348,297.305,243.174,282.609,257.87z"/>
			</g>
			<g>
				<path class="st1" d="M304.272,182.99c7.915,7.915,13.461,17.296,16.676,27.264l53.92-37.505
					c-6.248-12.69-14.649-24.588-25.208-35.147c-10.559-10.559-22.457-18.96-35.147-25.208l-37.505,53.92
					C286.976,169.529,296.357,175.075,304.272,182.99z"/>
			</g>
			<g>
				<path class="st1" d="M207.728,279.533c-7.915-7.915-13.461-17.296-16.676-27.264l-53.92,37.505
					c6.248,12.69,14.649,24.588,25.208,35.147c10.559,10.559,22.457,18.96,35.147,25.208l37.505-53.92
					C225.024,292.994,215.644,287.448,207.728,279.533z"/>
			</g>
			<g>
				<path class="st2" d="M256,369.716c-36.982,0-71.751-14.402-97.901-40.553c-26.151-26.15-40.554-60.919-40.554-97.902
					c0-36.982,14.402-71.751,40.554-97.902c26.15-26.151,60.919-40.553,97.901-40.553s71.751,14.402,97.901,40.553
					c26.151,26.15,40.554,60.919,40.554,97.902c0,36.983-14.402,71.752-40.554,97.902l0,0l0,0
					C327.751,355.314,292.982,369.716,256,369.716z M256,104.807c-33.777,0-65.532,13.154-89.416,37.038
					c-23.885,23.884-37.039,55.64-37.039,89.417c0,33.777,13.154,65.533,37.038,89.417c23.885,23.884,55.64,37.038,89.417,37.038
					s65.532-13.154,89.416-37.038c0.001,0,0.001,0,0.001,0c23.884-23.884,37.038-55.64,37.038-89.417
					c0-33.777-13.154-65.532-37.038-89.417C321.532,117.96,289.777,104.807,256,104.807z"/>
			</g>
			<g>
				<path class="st6" d="M304.272,182.99c-26.66-26.659-69.883-26.659-96.543,0c-26.66,26.66-26.66,69.884,0,96.543
					c26.66,26.66,69.883,26.66,96.543,0C330.931,252.874,330.931,209.65,304.272,182.99z M282.609,257.87
					c-14.696,14.696-38.522,14.696-53.218,0c-14.696-14.696-14.696-38.522,0-53.218c14.696-14.696,38.522-14.696,53.218,0
					C297.305,219.348,297.305,243.174,282.609,257.87z"/>
			</g>
			<g>
				<path class="st2" d="M256,274.872c-11.173,0-22.346-4.253-30.852-12.758c-17.012-17.012-17.012-44.692-0.001-61.704
					c17.014-17.011,44.692-17.011,61.704,0c17.012,17.012,17.012,44.692,0.001,61.704c-0.001,0-0.001,0-0.001,0
					C278.346,270.619,267.173,274.872,256,274.872z M256,199.646c-8.101,0-16.199,3.082-22.367,9.249
					c-12.332,12.333-12.332,32.4,0.001,44.733c12.331,12.332,32.398,12.333,44.733,0c12.332-12.333,12.332-32.4-0.001-44.733
					C272.201,202.729,264.1,199.646,256,199.646z M282.609,257.871h0.01H282.609z"/>
			</g>
			<g>
				<path class="st2" d="M320.947,216.254c-0.645,0-1.293-0.104-1.919-0.315c-1.802-0.608-3.208-2.034-3.791-3.843
					c-3.05-9.457-8.167-17.822-15.208-24.863c-7.041-7.041-15.406-12.158-24.863-15.208c-1.81-0.584-3.235-1.99-3.843-3.792
					c-0.608-1.801-0.326-3.784,0.759-5.345l37.505-53.92c1.695-2.436,4.914-3.268,7.576-1.957
					c13.583,6.688,25.944,15.552,36.739,26.348c10.795,10.795,19.66,23.156,26.348,36.74c1.311,2.662,0.479,5.882-1.957,7.576
					l-53.92,37.505C323.355,215.888,322.157,216.254,320.947,216.254z M286.308,163.452c8.263,3.672,15.708,8.797,22.206,15.295
					c6.499,6.499,11.624,13.944,15.296,22.207l43.308-30.124c-5.777-10.615-13.062-20.348-21.699-28.986
					c-8.64-8.639-18.372-15.923-28.987-21.701L286.308,163.452z"/>
			</g>
			<g>
				<path class="st2" d="M197.484,356.129c-0.895,0-1.799-0.2-2.647-0.618c-13.581-6.686-25.941-15.55-36.738-26.348
					c-10.797-10.796-19.662-23.157-26.349-36.739c-1.311-2.662-0.479-5.882,1.957-7.576l53.92-37.505
					c1.56-1.085,3.544-1.366,5.345-0.759c1.802,0.608,3.208,2.034,3.791,3.843c3.05,9.457,8.167,17.822,15.208,24.863
					c7.042,7.042,15.407,12.159,24.863,15.208c1.81,0.583,3.235,1.99,3.843,3.792c0.608,1.801,0.327,3.784-0.759,5.345
					l-37.505,53.919C201.259,355.214,199.396,356.129,197.484,356.129z M144.883,291.692c5.777,10.614,13.061,20.346,21.7,28.986
					c8.641,8.64,18.372,15.924,28.986,21.701l30.123-43.307c-8.263-3.672-15.707-8.797-22.206-15.296s-11.624-13.944-15.296-22.207
					L144.883,291.692z"/>
			</g>
			<g>
				<path class="st2" d="M256,305.528c-19.838,0-38.487-7.725-52.515-21.752c-14.026-14.027-21.752-32.677-21.752-52.514
					c0-19.837,7.726-38.488,21.753-52.515c14.026-14.027,32.676-21.752,52.514-21.752s38.487,7.725,52.515,21.752
					c14.026,14.027,21.752,32.677,21.752,52.515c0,19.837-7.726,38.487-21.753,52.514h0.001c-0.001,0-0.001,0-0.001,0
					C294.487,297.803,275.838,305.528,256,305.528z M256,168.995c-16.632,0-32.269,6.477-44.028,18.237
					c-11.762,11.761-18.238,27.397-18.238,44.029c0,16.632,6.477,32.268,18.237,44.029s27.397,18.237,44.029,18.237
					s32.269-6.477,44.028-18.237c0.001,0,0.001,0,0.001,0c11.761-11.761,18.237-27.397,18.237-44.029
					c0-16.632-6.477-32.269-18.237-44.029S272.632,168.995,256,168.995z"/>
			</g>
		</g>
		<g>
			<g>
				<path class="st3" d="M132.997,391.668v-46.287c0-11.888,9.637-21.525,21.525-21.525h167.704v89.337H154.522
					C142.634,413.193,132.997,403.556,132.997,391.668z"/>
			</g>
			<g>
				
					<rect x="319.82" y="340.137" transform="matrix(-1.836970e-16 1 -1 -1.836970e-16 719.139 17.9103)" class="st5" width="61.588" height="56.776"/>
			</g>
			<g>
				<path class="st2" d="M379.003,405.319h-56.776c-3.313,0-6-2.687-6-6V337.73c0-3.313,2.687-6,6-6h56.776c3.313,0,6,2.687,6,6
					v61.588C385.003,402.632,382.316,405.319,379.003,405.319z M328.227,393.319h44.776V343.73h-44.776V393.319z"/>
			</g>
			<g>
				<g>
					<path class="st2" d="M356.33,363.898h-10.144c-3.313,0-6-2.687-6-6s2.687-6,6-6h10.144c3.313,0,6,2.687,6,6
						S359.644,363.898,356.33,363.898z"/>
				</g>
				<g>
					<path class="st2" d="M356.33,385.151h-10.144c-3.313,0-6-2.687-6-6s2.687-6,6-6h10.144c3.313,0,6,2.687,6,6
						S359.644,385.151,356.33,385.151z"/>
				</g>
			</g>
			<g>
				<rect x="285.097" y="323.856" class="st4" width="37.129" height="89.337"/>
			</g>
			<g>
				<path class="st2" d="M322.227,419.193H154.522c-15.178,0-27.525-12.348-27.525-27.525v-46.287
					c0-15.178,12.348-27.525,27.525-27.525h167.704c3.313,0,6,2.687,6,6v89.337C328.227,416.507,325.54,419.193,322.227,419.193z
					 M154.522,329.856c-8.561,0-15.525,6.965-15.525,15.525v46.287c0,8.561,6.965,15.525,15.525,15.525h161.704v-77.337H154.522z"/>
			</g>
		</g>
	</g>
</g>
</svg>
