<?xml version="1.0" encoding="utf-8"?>
<!-- Generator: Adobe Illustrator 22.1.0, SVG Export Plug-In . SVG Version: 6.00 Build 0)  -->
<svg version="1.1" id="Icon_Set" xmlns="http://www.w3.org/2000/svg" xmlns:xlink="http://www.w3.org/1999/xlink" x="0px" y="0px"
	 viewBox="0 0 512 512" style="enable-background:new 0 0 512 512;" xml:space="preserve">
<style type="text/css">
	.st0{fill:#F0C48A;}
	.st1{fill:#D3E6F8;}
	.st2{fill:#4C4372;}
	.st3{fill:#FD919E;}
	.st4{fill:#E8677D;}
	.st5{fill:#FFFFFF;}
	.st6{fill:#A4CFF2;}
	.st7{fill:#7BABF1;}
</style>
<g id="Data_Center">
	<g>
		<g>
			<circle class="st0" cx="256" cy="256" r="207"/>
		</g>
	</g>
	<g>
		<g>
			<path class="st7" d="M363.413,402.748H148.587c-10.693,0-19.362-8.669-19.362-19.362V128.614
				c0-10.693,8.669-19.362,19.362-19.362h214.826c10.693,0,19.362,8.669,19.362,19.362v254.772
				C382.775,394.079,374.106,402.748,363.413,402.748z"/>
		</g>
		<g>
			<g>
				<g>
					<path class="st3" d="M348.259,198.327H163.741c-5.305,0-9.605-4.3-9.605-9.605v-36.397c0-5.305,4.3-9.605,9.605-9.605h184.517
						c5.305,0,9.605,4.3,9.605,9.605v36.397C357.864,194.026,353.563,198.327,348.259,198.327z"/>
				</g>
				<g>
					<path class="st4" d="M348.259,142.719h-25.105v55.607h25.105c5.305,0,9.605-4.3,9.605-9.605v-36.397
						C357.864,147.02,353.563,142.719,348.259,142.719z"/>
				</g>
				<g>
					<path class="st2" d="M348.259,204.327H163.741c-8.604,0-15.604-7-15.604-15.605v-36.397c0-8.604,7-15.605,15.604-15.605
						h184.518c8.604,0,15.604,7,15.604,15.605v36.397C363.863,197.326,356.863,204.327,348.259,204.327z M163.741,148.719
						c-1.987,0-3.604,1.617-3.604,3.605v36.397c0,1.988,1.617,3.605,3.604,3.605h184.518c1.987,0,3.604-1.617,3.604-3.605v-36.397
						c0-1.988-1.617-3.605-3.604-3.605H163.741z"/>
				</g>
				<g>
					<circle class="st7" cx="184.582" cy="170.523" r="11.607"/>
				</g>
				<g>
					<path class="st5" d="M327.418,158.916h-101.42c-6.411,0-11.607,5.197-11.607,11.607v0c0,6.411,5.197,11.607,11.607,11.607
						h101.42c6.411,0,11.607-5.197,11.607-11.607v0C339.025,164.112,333.828,158.916,327.418,158.916z"/>
				</g>
				<g>
					<path class="st2" d="M327.418,188.13h-101.42c-9.709,0-17.607-7.898-17.607-17.607s7.898-17.607,17.607-17.607h101.42
						c9.709,0,17.607,7.898,17.607,17.607S337.127,188.13,327.418,188.13z M225.998,164.916c-3.092,0-5.607,2.516-5.607,5.607
						s2.516,5.607,5.607,5.607h101.42c3.092,0,5.607-2.516,5.607-5.607s-2.516-5.607-5.607-5.607H225.998z"/>
				</g>
				<g>
					<path class="st2" d="M184.582,188.13c-9.709,0-17.607-7.898-17.607-17.607s7.898-17.607,17.607-17.607
						s17.607,7.898,17.607,17.607S194.291,188.13,184.582,188.13z M184.582,164.916c-3.092,0-5.607,2.516-5.607,5.607
						s2.516,5.607,5.607,5.607s5.607-2.516,5.607-5.607S187.674,164.916,184.582,164.916z"/>
				</g>
			</g>
			<g>
				<g>
					<path class="st3" d="M348.259,283.804H163.741c-5.305,0-9.605-4.3-9.605-9.605v-36.397c0-5.305,4.3-9.605,9.605-9.605h184.517
						c5.305,0,9.605,4.3,9.605,9.605v36.397C357.864,279.503,353.563,283.804,348.259,283.804z"/>
				</g>
				<g>
					<path class="st4" d="M348.259,228.196h-25.105v55.607h25.105c5.305,0,9.605-4.3,9.605-9.605v-36.397
						C357.864,232.497,353.563,228.196,348.259,228.196z"/>
				</g>
				<g>
					<path class="st2" d="M348.259,289.804H163.741c-8.604,0-15.604-7-15.604-15.605v-36.397c0-8.604,7-15.605,15.604-15.605
						h184.518c8.604,0,15.604,7,15.604,15.605v36.397C363.863,282.803,356.863,289.804,348.259,289.804z M163.741,234.196
						c-1.987,0-3.604,1.617-3.604,3.605v36.397c0,1.988,1.617,3.605,3.604,3.605h184.518c1.987,0,3.604-1.617,3.604-3.605v-36.397
						c0-1.988-1.617-3.605-3.604-3.605H163.741z"/>
				</g>
				<g>
					<circle class="st7" cx="184.582" cy="256" r="11.607"/>
				</g>
				<g>
					<path class="st5" d="M327.418,244.393h-101.42c-6.411,0-11.607,5.197-11.607,11.607v0c0,6.411,5.197,11.607,11.607,11.607
						h101.42c6.411,0,11.607-5.197,11.607-11.607v0C339.025,249.589,333.828,244.393,327.418,244.393z"/>
				</g>
				<g>
					<path class="st2" d="M327.418,273.607h-101.42c-9.709,0-17.607-7.898-17.607-17.607s7.898-17.607,17.607-17.607h101.42
						c9.709,0,17.607,7.898,17.607,17.607S337.127,273.607,327.418,273.607z M225.998,250.393c-3.092,0-5.607,2.516-5.607,5.607
						s2.516,5.607,5.607,5.607h101.42c3.092,0,5.607-2.516,5.607-5.607s-2.516-5.607-5.607-5.607H225.998z"/>
				</g>
				<g>
					<path class="st2" d="M184.582,273.607c-9.709,0-17.607-7.898-17.607-17.607s7.898-17.607,17.607-17.607
						s17.607,7.898,17.607,17.607S194.291,273.607,184.582,273.607z M184.582,250.393c-3.092,0-5.607,2.516-5.607,5.607
						s2.516,5.607,5.607,5.607s5.607-2.516,5.607-5.607S187.674,250.393,184.582,250.393z"/>
				</g>
			</g>
			<g>
				<g>
					<path class="st3" d="M348.259,369.281H163.741c-5.305,0-9.605-4.3-9.605-9.605v-36.397c0-5.305,4.3-9.605,9.605-9.605h184.517
						c5.305,0,9.605,4.3,9.605,9.605v36.397C357.864,364.98,353.563,369.281,348.259,369.281z"/>
				</g>
				<g>
					<path class="st4" d="M348.259,313.673h-25.105v55.607h25.105c5.305,0,9.605-4.3,9.605-9.605v-36.397
						C357.864,317.974,353.563,313.673,348.259,313.673z"/>
				</g>
				<g>
					<path class="st2" d="M348.259,375.281H163.741c-8.604,0-15.604-7-15.604-15.605v-36.397c0-8.604,7-15.605,15.604-15.605
						h184.518c8.604,0,15.604,7,15.604,15.605v36.397C363.863,368.28,356.863,375.281,348.259,375.281z M163.741,319.673
						c-1.987,0-3.604,1.617-3.604,3.605v36.397c0,1.988,1.617,3.605,3.604,3.605h184.518c1.987,0,3.604-1.617,3.604-3.605v-36.397
						c0-1.988-1.617-3.605-3.604-3.605H163.741z"/>
				</g>
				<g>
					<circle class="st7" cx="184.582" cy="341.477" r="11.607"/>
				</g>
				<g>
					<path class="st5" d="M327.418,329.87h-101.42c-6.411,0-11.607,5.197-11.607,11.607v0c0,6.411,5.197,11.607,11.607,11.607
						h101.42c6.411,0,11.607-5.197,11.607-11.607v0C339.025,335.066,333.828,329.87,327.418,329.87z"/>
				</g>
				<g>
					<path class="st2" d="M327.418,359.084h-101.42c-9.709,0-17.607-7.898-17.607-17.607s7.898-17.607,17.607-17.607h101.42
						c9.709,0,17.607,7.898,17.607,17.607S337.127,359.084,327.418,359.084z M225.998,335.87c-3.092,0-5.607,2.516-5.607,5.607
						s2.516,5.607,5.607,5.607h101.42c3.092,0,5.607-2.516,5.607-5.607s-2.516-5.607-5.607-5.607H225.998z"/>
				</g>
				<g>
					<path class="st2" d="M184.582,359.084c-9.709,0-17.607-7.898-17.607-17.607s7.898-17.607,17.607-17.607
						s17.607,7.898,17.607,17.607S194.291,359.084,184.582,359.084z M184.582,335.87c-3.092,0-5.607,2.516-5.607,5.607
						s2.516,5.607,5.607,5.607s5.607-2.516,5.607-5.607S187.674,335.87,184.582,335.87z"/>
				</g>
			</g>
		</g>
		<g>
			<path class="st2" d="M363.413,408.748H148.587c-13.984,0-25.361-11.377-25.361-25.362V128.614
				c0-13.984,11.377-25.362,25.361-25.362h214.826c13.984,0,25.361,11.377,25.361,25.362v254.771
				C388.774,397.37,377.397,408.748,363.413,408.748z M148.587,115.252c-7.367,0-13.361,5.994-13.361,13.362v254.771
				c0,7.368,5.994,13.362,13.361,13.362h214.826c7.367,0,13.361-5.994,13.361-13.362V128.614c0-7.368-5.994-13.362-13.361-13.362
				H148.587z"/>
		</g>
	</g>
</g>
</svg>
