<?xml version="1.0" encoding="utf-8"?>
<!-- Generator: Adobe Illustrator 22.1.0, SVG Export Plug-In . SVG Version: 6.00 Build 0)  -->
<svg version="1.1" id="Icon_Set" xmlns="http://www.w3.org/2000/svg" xmlns:xlink="http://www.w3.org/1999/xlink" x="0px" y="0px"
	 viewBox="0 0 512 512" style="enable-background:new 0 0 512 512;" xml:space="preserve">
<style type="text/css">
	.st0{fill:#F0C48A;}
	.st1{fill:#D3E6F8;}
	.st2{fill:#4C4372;}
	.st3{fill:#FD919E;}
	.st4{fill:#E8677D;}
	.st5{fill:#FFFFFF;}
	.st6{fill:#A4CFF2;}
	.st7{fill:#7BABF1;}
</style>
<g id="Data_Sharing">
	<g>
		<g>
			<circle class="st0" cx="256" cy="256" r="207"/>
		</g>
	</g>
	<g>
		<g>
			<g>
				<path class="st1" d="M373.554,320.54H138.446c-14.825,0-26.843-12.018-26.843-26.843V147.543
					c0-14.825,12.018-26.843,26.843-26.843h235.107c14.825,0,26.843,12.018,26.843,26.843v146.154
					C400.396,308.522,388.378,320.54,373.554,320.54z"/>
			</g>
			<g>
				<path class="st5" d="M373.554,120.701H138.446c-14.825,0-26.843,12.018-26.843,26.843v146.154h288.792V147.543
					C400.396,132.718,388.378,120.701,373.554,120.701z"/>
			</g>
			<g>
				<path class="st6" d="M373.554,120.701h-5.42v199.84h5.42c14.825,0,26.843-12.018,26.843-26.843V147.543
					C400.396,132.718,388.378,120.701,373.554,120.701z"/>
			</g>
			<g>
				<path class="st1" d="M373.554,120.701h-5.42v172.997h32.263V147.543C400.396,132.718,388.378,120.701,373.554,120.701z"/>
			</g>
			<g>
				<path class="st2" d="M373.554,326.54H138.446c-18.109,0-32.843-14.733-32.843-32.843V147.543
					c0-18.109,14.733-32.843,32.843-32.843h235.107c18.109,0,32.843,14.733,32.843,32.843v146.154
					C406.396,311.807,391.663,326.54,373.554,326.54z M138.446,126.7c-11.493,0-20.843,9.35-20.843,20.843v146.154
					c0,11.493,9.35,20.843,20.843,20.843h235.107c11.493,0,20.843-9.35,20.843-20.843V147.543c0-11.493-9.35-20.843-20.843-20.843
					H138.446z"/>
			</g>
			<g>
				<path class="st2" d="M400.396,299.697H111.604c-3.313,0-6-2.687-6-6V147.543c0-18.109,14.733-32.843,32.843-32.843h235.107
					c18.109,0,32.842,14.733,32.842,32.843v146.154C406.396,297.011,403.709,299.697,400.396,299.697z M117.604,287.697h276.792
					V147.543c0-11.493-9.35-20.843-20.842-20.843H138.446c-11.493,0-20.843,9.35-20.843,20.843V287.697z"/>
			</g>
			<g>
				<path class="st1" d="M308.577,391.299H203.423v-19.75c0-5.238,4.246-9.484,9.484-9.484h86.186c5.238,0,9.484,4.246,9.484,9.484
					V391.299z"/>
			</g>
			<g>
				<rect x="235.238" y="320.54" class="st6" width="41.525" height="41.525"/>
			</g>
			<g>
				<path class="st2" d="M276.762,368.065h-41.524c-3.313,0-6-2.687-6-6V320.54c0-3.313,2.687-6,6-6h41.524c3.313,0,6,2.687,6,6
					v41.525C282.762,365.379,280.076,368.065,276.762,368.065z M241.238,356.065h29.524V326.54h-29.524V356.065z"/>
			</g>
			<g>
				<path class="st2" d="M308.577,397.3H203.423c-3.313,0-6-2.687-6-6v-19.751c0-8.537,6.946-15.483,15.484-15.483h86.187
					c8.538,0,15.484,6.946,15.484,15.483V391.3C314.577,394.613,311.891,397.3,308.577,397.3z M209.423,385.3h93.154v-13.751
					c0-1.921-1.563-3.483-3.484-3.483h-86.187c-1.921,0-3.484,1.562-3.484,3.483V385.3z"/>
			</g>
		</g>
		<g>
			<g>
				<path class="st2" d="M282.837,255.217c-1.012,0-2.038-0.256-2.979-0.796l-70.314-40.314c-1.859-1.066-3.009-3.043-3.016-5.187
					c-0.007-2.143,1.13-4.127,2.983-5.205l71.719-41.72c2.866-1.665,6.538-0.695,8.204,2.17c1.666,2.864,0.695,6.537-2.169,8.203
					l-62.739,36.495l61.302,35.147c2.875,1.648,3.869,5.314,2.221,8.189C286.939,254.134,284.917,255.217,282.837,255.217z"/>
			</g>
			<g>
				<circle class="st3" cx="212.528" cy="208.901" r="25.354"/>
			</g>
			<g>
				<circle class="st3" cx="285.868" cy="167.182" r="19.106"/>
			</g>
			<g>
				<circle class="st3" cx="285.868" cy="249.216" r="19.106"/>
			</g>
			<g>
				<path class="st2" d="M212.528,240.255c-17.289,0-31.354-14.065-31.354-31.354s14.065-31.354,31.354-31.354
					s31.354,14.065,31.354,31.354S229.817,240.255,212.528,240.255z M212.528,189.548c-10.671,0-19.354,8.682-19.354,19.354
					s8.682,19.354,19.354,19.354s19.354-8.682,19.354-19.354S223.2,189.548,212.528,189.548z"/>
			</g>
			<g>
				<path class="st2" d="M285.868,192.288c-13.843,0-25.106-11.263-25.106-25.106c0-13.843,11.263-25.105,25.106-25.105
					s25.105,11.263,25.105,25.105C310.974,181.025,299.711,192.288,285.868,192.288z M285.868,154.076
					c-7.227,0-13.106,5.879-13.106,13.105s5.879,13.106,13.106,13.106s13.105-5.88,13.105-13.106S293.095,154.076,285.868,154.076z"
					/>
			</g>
			<g>
				<path class="st2" d="M285.868,274.321c-13.843,0-25.106-11.263-25.106-25.105s11.263-25.105,25.106-25.105
					s25.105,11.263,25.105,25.105S299.711,274.321,285.868,274.321z M285.868,236.11c-7.227,0-13.106,5.879-13.106,13.105
					s5.879,13.105,13.106,13.105s13.105-5.879,13.105-13.105S293.095,236.11,285.868,236.11z"/>
			</g>
		</g>
	</g>
</g>
</svg>
