<?xml version="1.0" encoding="utf-8"?>
<!-- Generator: Adobe Illustrator 22.1.0, SVG Export Plug-In . SVG Version: 6.00 Build 0)  -->
<svg version="1.1" id="Icon_Set" xmlns="http://www.w3.org/2000/svg" xmlns:xlink="http://www.w3.org/1999/xlink" x="0px" y="0px"
	 viewBox="0 0 512 512" style="enable-background:new 0 0 512 512;" xml:space="preserve">
<style type="text/css">
	.st0{fill:#F0C48A;}
	.st1{fill:#D3E6F8;}
	.st2{fill:#4C4372;}
	.st3{fill:#FD919E;}
	.st4{fill:#E8677D;}
	.st5{fill:#FFFFFF;}
	.st6{fill:#A4CFF2;}
	.st7{fill:#7BABF1;}
</style>
<g id="Data_Backup">
	<g>
		<g>
			<circle class="st0" cx="256" cy="256" r="207"/>
		</g>
	</g>
	<g>
		<g>
			<g>
				<path class="st1" d="M370.401,323.788c33.761,0,61.13-27.369,61.13-61.13c0-33.711-27.289-61.046-60.982-61.126
					c-5.54-56.245-52.975-100.188-110.677-100.188c-49.427,0-91.315,32.245-105.798,76.843c-0.266-0.003-0.529-0.02-0.795-0.02
					c-40.212,0-72.81,32.598-72.81,72.81s32.598,72.81,72.81,72.81H370.401z"/>
			</g>
			<g>
				<path class="st2" d="M370.401,329.788H153.279c-43.456,0-78.811-35.354-78.811-78.81c0-42.284,33.471-76.896,75.31-78.733
					c16.872-46.173,60.58-76.9,110.094-76.9c29.282,0,57.317,10.856,78.941,30.568c20.182,18.397,33.224,43.037,37.078,69.843
					c34.444,2.807,61.64,31.772,61.64,66.903C437.531,299.674,407.417,329.788,370.401,329.788z M153.279,184.168
					c-36.84,0-66.811,29.971-66.811,66.81s29.971,66.81,66.811,66.81h217.122c30.398,0,55.13-24.731,55.13-55.13
					c0-30.324-24.672-55.054-54.997-55.126c-3.08-0.007-5.654-2.346-5.956-5.412c-2.546-25.848-14.566-49.763-33.849-67.34
					c-19.408-17.692-44.573-27.436-70.857-27.436c-45.748,0-85.972,29.214-100.091,72.696c-0.812,2.496-3.153,4.156-5.773,4.147
					c-0.17-0.002-0.339-0.008-0.509-0.013L153.279,184.168z"/>
			</g>
		</g>
		<g>
			<g>
				<path class="st4" d="M227.929,236.32l-9.044-22.406h-60.059c-9.989,0-18.086,8.098-18.086,18.086v108.824H371.26v-86.418
					c0-9.989-8.098-18.086-18.086-18.086H227.929z"/>
			</g>
			<g>
				<path class="st2" d="M371.26,346.825H140.74c-3.313,0-6-2.686-6-6V232.001c0-13.281,10.806-24.086,24.087-24.086h60.059
					c2.446,0,4.648,1.486,5.563,3.754l7.528,18.651h121.195c13.281,0,24.087,10.805,24.087,24.086v86.418
					C377.26,344.139,374.573,346.825,371.26,346.825z M146.74,334.825h218.52v-80.418c0-6.665-5.422-12.086-12.087-12.086H227.929
					c-2.446,0-4.648-1.486-5.563-3.754l-7.528-18.651h-56.01c-6.665,0-12.087,5.422-12.087,12.086V334.825z"/>
			</g>
			<g>
				<path class="st3" d="M353.173,410.655H158.827c-9.989,0-18.086-8.098-18.086-18.086V289.082c0-9.989,8.098-18.086,18.086-18.086
					h194.346c9.989,0,18.086,8.098,18.086,18.086v103.487C371.26,402.557,363.162,410.655,353.173,410.655z"/>
			</g>
			<g>
				<path class="st4" d="M353.173,270.995H342.2v139.66h10.973c9.989,0,18.086-8.098,18.086-18.087V289.082
					C371.26,279.093,363.162,270.995,353.173,270.995z"/>
			</g>
			<g>
				<path class="st2" d="M353.173,416.655H158.827c-13.281,0-24.087-10.805-24.087-24.086V289.082
					c0-13.281,10.806-24.086,24.087-24.086h194.346c13.281,0,24.087,10.805,24.087,24.086v103.487
					C377.26,405.85,366.454,416.655,353.173,416.655z M158.827,276.995c-6.665,0-12.087,5.422-12.087,12.086v103.487
					c0,6.665,5.422,12.086,12.087,12.086h194.346c6.665,0,12.087-5.422,12.087-12.086V289.082c0-6.665-5.422-12.086-12.087-12.086
					H158.827z"/>
			</g>
		</g>
		<g>
			<path class="st2" d="M258.237,383.362c-3.313,0-6-2.686-6-6s2.687-6,6-6c16.838,0,30.536-13.699,30.536-30.537
				c0-16.838-13.698-30.537-30.536-30.537S227.7,323.987,227.7,340.825c0,3.314-2.687,6-6,6s-6-2.686-6-6
				c0-23.455,19.082-42.537,42.537-42.537c23.454,0,42.536,19.082,42.536,42.537S281.691,383.362,258.237,383.362z"/>
		</g>
		<g>
			<path class="st2" d="M221.7,372.407c-2.144,0-4.124-1.144-5.196-3l-14.77-25.582c-1.071-1.856-1.071-4.144,0-6
				c1.072-1.856,3.053-3,5.196-3h29.539c2.144,0,4.124,1.144,5.196,3c1.071,1.856,1.071,4.144,0,6l-14.77,25.582
				C225.824,371.263,223.844,372.407,221.7,372.407z M217.323,346.825l4.377,7.582l4.377-7.582H217.323z"/>
		</g>
		<g>
			<polygon class="st2" points="221.7,340.825 236.47,340.825 229.085,353.616 221.7,366.407 214.316,353.616 206.931,340.825 			
				"/>
		</g>
	</g>
</g>
</svg>
