<?xml version="1.0" encoding="utf-8"?>
<!-- Generator: Adobe Illustrator 22.1.0, SVG Export Plug-In . SVG Version: 6.00 Build 0)  -->
<svg version="1.1" id="Icon_Set" xmlns="http://www.w3.org/2000/svg" xmlns:xlink="http://www.w3.org/1999/xlink" x="0px" y="0px"
	 viewBox="0 0 512 512" style="enable-background:new 0 0 512 512;" xml:space="preserve">
<style type="text/css">
	.st0{fill:#F0C48A;}
	.st1{fill:#D3E6F8;}
	.st2{fill:#4C4372;}
	.st3{fill:#FD919E;}
	.st4{fill:#E8677D;}
	.st5{fill:#FFFFFF;}
	.st6{fill:#A4CFF2;}
	.st7{fill:#7BABF1;}
</style>
<g id="DB_Architecture">
	<g>
		<g>
			<circle class="st0" cx="256" cy="256" r="207"/>
		</g>
	</g>
	<g>
		<g>
			<g>
				<g>
					<path class="st1" d="M332.235,201.355H179.765c-5.07,0-9.18-4.11-9.18-9.18v-34.788c0-5.07,4.11-9.18,9.18-9.18h152.471
						c5.07,0,9.18,4.11,9.18,9.18v34.788C341.416,197.244,337.305,201.355,332.235,201.355z"/>
				</g>
				<g>
					<path class="st6" d="M332.235,148.205h-15.534v53.149h15.534c5.07,0,9.18-4.11,9.18-9.18v-34.788
						C341.416,152.316,337.305,148.205,332.235,148.205z"/>
				</g>
				<g>
					<path class="st2" d="M332.235,207.354H179.765c-8.371,0-15.181-6.81-15.181-15.18v-34.789c0-8.371,6.81-15.18,15.181-15.18
						h152.471c8.371,0,15.181,6.81,15.181,15.18v34.789C347.416,200.545,340.606,207.354,332.235,207.354z M179.765,154.206
						c-1.754,0-3.181,1.427-3.181,3.18v34.789c0,1.753,1.427,3.18,3.181,3.18h152.471c1.754,0,3.181-1.427,3.181-3.18v-34.789
						c0-1.753-1.427-3.18-3.181-3.18H179.765z"/>
				</g>
				<g>
					<circle class="st2" cx="199.684" cy="174.78" r="11.094"/>
				</g>
				<g>
					<path class="st5" d="M312.316,163.686H239.27c-6.127,0-11.094,4.967-11.094,11.094v0c0,6.127,4.967,11.094,11.094,11.094
						h73.046c6.127,0,11.094-4.967,11.094-11.094v0C323.41,168.653,318.443,163.686,312.316,163.686z"/>
				</g>
				<g>
					<path class="st2" d="M312.315,191.875H239.27c-9.426,0-17.095-7.668-17.095-17.094c0-9.426,7.669-17.095,17.095-17.095h73.046
						c9.426,0,17.095,7.668,17.095,17.094C329.41,184.206,321.741,191.875,312.315,191.875z M239.27,169.686
						c-2.81,0-5.095,2.285-5.095,5.094s2.285,5.095,5.095,5.095h73.046c2.81,0,5.095-2.285,5.095-5.094s-2.285-5.095-5.095-5.095
						H239.27z"/>
				</g>
			</g>
			<g>
				<g>
					<path class="st1" d="M332.235,254.504H179.765c-5.07,0-9.18-4.11-9.18-9.18v-34.788c0-5.07,4.11-9.18,9.18-9.18h152.471
						c5.07,0,9.18,4.11,9.18,9.18v34.788C341.416,250.394,337.305,254.504,332.235,254.504z"/>
				</g>
				<g>
					<path class="st6" d="M332.235,201.355h-15.534v53.149h15.534c5.07,0,9.18-4.11,9.18-9.18v-34.788
						C341.416,205.465,337.305,201.355,332.235,201.355z"/>
				</g>
				<g>
					<path class="st2" d="M332.235,260.504H179.765c-8.371,0-15.181-6.81-15.181-15.18v-34.789c0-8.371,6.81-15.181,15.181-15.181
						h152.471c8.371,0,15.181,6.81,15.181,15.181v34.789C347.416,253.694,340.606,260.504,332.235,260.504z M179.765,207.354
						c-1.754,0-3.181,1.427-3.181,3.181v34.789c0,1.753,1.427,3.18,3.181,3.18h152.471c1.754,0,3.181-1.427,3.181-3.18v-34.789
						c0-1.754-1.427-3.181-3.181-3.181H179.765z"/>
				</g>
				<g>
					<circle class="st2" cx="199.684" cy="227.929" r="11.094"/>
				</g>
				<g>
					<path class="st5" d="M312.316,216.835H239.27c-6.127,0-11.094,4.967-11.094,11.094v0c0,6.127,4.967,11.094,11.094,11.094
						h73.046c6.127,0,11.094-4.967,11.094-11.094v0C323.41,221.802,318.443,216.835,312.316,216.835z"/>
				</g>
				<g>
					<path class="st2" d="M312.315,245.023H239.27c-9.426,0-17.095-7.668-17.095-17.094s7.669-17.094,17.095-17.094h73.046
						c9.426,0,17.095,7.668,17.095,17.094S321.741,245.023,312.315,245.023z M239.27,222.835c-2.81,0-5.095,2.285-5.095,5.094
						s2.285,5.094,5.095,5.094h73.046c2.81,0,5.095-2.285,5.095-5.094s-2.285-5.094-5.095-5.094H239.27z"/>
				</g>
			</g>
		</g>
		<g>
			<g>
				<g>
					<path class="st3" d="M219.722,363.795H84.287c-5.07,0-9.18-4.11-9.18-9.18v-34.788c0-5.07,4.11-9.18,9.18-9.18h135.434
						c5.07,0,9.18,4.11,9.18,9.18v34.788C228.902,359.684,224.792,363.795,219.722,363.795z"/>
				</g>
				<g>
					<path class="st4" d="M219.722,310.645h-15.534v53.149h15.534c5.07,0,9.18-4.11,9.18-9.18v-34.788
						C228.902,314.756,224.792,310.645,219.722,310.645z"/>
				</g>
				<g>
					<path class="st2" d="M219.722,369.794H84.287c-8.37,0-15.18-6.81-15.18-15.18v-34.789c0-8.371,6.81-15.18,15.18-15.18h135.435
						c8.371,0,15.181,6.81,15.181,15.18v34.789C234.902,362.985,228.093,369.794,219.722,369.794z M84.287,316.646
						c-1.753,0-3.18,1.427-3.18,3.18v34.789c0,1.753,1.427,3.18,3.18,3.18h135.435c1.754,0,3.181-1.427,3.181-3.18v-34.789
						c0-1.753-1.427-3.18-3.181-3.18H84.287z"/>
				</g>
				<g>
					<circle class="st2" cx="104.207" cy="337.22" r="11.094"/>
				</g>
				<g>
					<path class="st5" d="M199.802,326.126h-56.01c-6.127,0-11.094,4.967-11.094,11.094v0c0,6.127,4.967,11.094,11.094,11.094h56.01
						c6.127,0,11.094-4.967,11.094-11.094v0C210.896,331.093,205.929,326.126,199.802,326.126z"/>
				</g>
				<g>
					<path class="st2" d="M199.802,354.314h-56.01c-9.426,0-17.094-7.668-17.094-17.094c0-9.426,7.668-17.095,17.094-17.095h56.01
						c9.426,0,17.095,7.668,17.095,17.094C216.896,346.646,209.228,354.314,199.802,354.314z M143.792,332.125
						c-2.809,0-5.094,2.285-5.094,5.094s2.285,5.095,5.094,5.095h56.01c2.81,0,5.095-2.285,5.095-5.094s-2.285-5.095-5.095-5.095
						H143.792z"/>
				</g>
			</g>
			<g>
				<g>
					<path class="st3" d="M427.713,363.795H292.278c-5.07,0-9.18-4.11-9.18-9.18v-34.788c0-5.07,4.11-9.18,9.18-9.18h135.434
						c5.07,0,9.18,4.11,9.18,9.18v34.788C436.893,359.684,432.783,363.795,427.713,363.795z"/>
				</g>
				<g>
					<path class="st4" d="M427.712,310.645h-15.534v53.149h15.534c5.07,0,9.18-4.11,9.18-9.18v-34.788
						C436.893,314.756,432.783,310.645,427.712,310.645z"/>
				</g>
				<g>
					<path class="st2" d="M427.713,369.794H292.278c-8.371,0-15.181-6.81-15.181-15.18v-34.789c0-8.371,6.81-15.18,15.181-15.18
						h135.435c8.37,0,15.18,6.81,15.18,15.18v34.789C442.893,362.985,436.083,369.794,427.713,369.794z M292.278,316.646
						c-1.754,0-3.181,1.427-3.181,3.18v34.789c0,1.753,1.427,3.18,3.181,3.18h135.435c1.753,0,3.18-1.427,3.18-3.18v-34.789
						c0-1.753-1.427-3.18-3.18-3.18H292.278z"/>
				</g>
				<g>
					<circle class="st2" cx="312.198" cy="337.22" r="11.094"/>
				</g>
				<g>
					<path class="st5" d="M407.793,326.126h-56.01c-6.127,0-11.094,4.967-11.094,11.094v0c0,6.127,4.967,11.094,11.094,11.094h56.01
						c6.127,0,11.094-4.967,11.094-11.094v0C418.887,331.093,413.92,326.126,407.793,326.126z"/>
				</g>
				<g>
					<path class="st2" d="M407.793,354.314h-56.01c-9.426,0-17.095-7.668-17.095-17.094c0-9.426,7.669-17.095,17.095-17.095h56.01
						c9.426,0,17.094,7.668,17.094,17.094C424.887,346.646,417.219,354.314,407.793,354.314z M351.783,332.125
						c-2.81,0-5.095,2.285-5.095,5.094s2.285,5.095,5.095,5.095h56.01c2.809,0,5.094-2.285,5.094-5.094s-2.285-5.095-5.094-5.095
						H351.783z"/>
				</g>
			</g>
		</g>
		<g>
			<path class="st2" d="M369.892,316.646c-3.313,0-6-2.687-6-6v-10.415c0-7.168-5.831-13-12.999-13H161.107
				c-7.168,0-12.999,5.832-12.999,13v10.415c0,3.313-2.687,6-6,6s-6-2.687-6-6v-10.415c0-13.785,11.215-25,24.999-25h189.785
				c13.784,0,24.999,11.215,24.999,25v10.415C375.892,313.959,373.205,316.646,369.892,316.646z"/>
		</g>
		<g>
			<path class="st2" d="M256,287.231c-3.313,0-6-2.687-6-6v-26.728c0-3.313,2.687-6,6-6s6,2.687,6,6v26.728
				C262,284.545,259.313,287.231,256,287.231z"/>
		</g>
	</g>
</g>
</svg>
