<?xml version="1.0" encoding="utf-8"?>
<!-- Generator: Adobe Illustrator 22.1.0, SVG Export Plug-In . SVG Version: 6.00 Build 0)  -->
<svg version="1.1" id="Icon_Set" xmlns="http://www.w3.org/2000/svg" xmlns:xlink="http://www.w3.org/1999/xlink" x="0px" y="0px"
	 viewBox="0 0 512 512" style="enable-background:new 0 0 512 512;" xml:space="preserve">
<style type="text/css">
	.st0{fill:#F0C48A;}
	.st1{fill:#D3E6F8;}
	.st2{fill:#4C4372;}
	.st3{fill:#FD919E;}
	.st4{fill:#E8677D;}
	.st5{fill:#FFFFFF;}
	.st6{fill:#A4CFF2;}
	.st7{fill:#7BABF1;}
</style>
<g id="Dedicated_Server">
	<g>
		<g>
			<circle class="st0" cx="256" cy="256" r="207"/>
		</g>
	</g>
	<g>
		<g>
			<g>
				<rect x="127.661" y="184.745" class="st7" width="169.296" height="115.806"/>
			</g>
			<g>
				<rect x="127.661" y="367.292" class="st7" width="36.746" height="26.704"/>
			</g>
			<g>
				<rect x="260.21" y="367.292" class="st7" width="36.746" height="26.704"/>
			</g>
			<g>
				<path class="st2" d="M296.957,306.551H127.661c-3.313,0-6-2.686-6-6V184.745c0-3.314,2.687-6,6-6h169.296c3.313,0,6,2.686,6,6
					v115.805C302.957,303.865,300.271,306.551,296.957,306.551z M133.661,294.551h157.296V190.745H133.661V294.551z"/>
			</g>
			<g>
				<path class="st2" d="M164.407,399.995h-36.747c-3.313,0-6-2.687-6-6v-26.704c0-3.314,2.687-6,6-6h36.747c3.313,0,6,2.686,6,6
					v26.704C170.407,397.309,167.721,399.995,164.407,399.995z M133.661,387.995h24.747v-14.704h-24.747V387.995z"/>
			</g>
			<g>
				<path class="st2" d="M296.957,399.995H260.21c-3.313,0-6-2.687-6-6v-26.704c0-3.314,2.687-6,6-6h36.747c3.313,0,6,2.686,6,6
					v26.704C302.957,397.309,300.271,399.995,296.957,399.995z M266.21,387.995h24.747v-14.704H266.21V387.995z"/>
			</g>
			<g>
				<g>
					<path class="st1" d="M308.039,276.018h-191.46c-6.367,0-11.528-5.161-11.528-11.528v-43.685
						c0-6.367,5.161-11.528,11.528-11.528h191.46c6.367,0,11.528,5.161,11.528,11.528v43.685
						C319.567,270.857,314.406,276.018,308.039,276.018z"/>
				</g>
				<g>
					<path class="st6" d="M308.039,209.278h-19.506v66.741h19.506c6.367,0,11.528-5.161,11.528-11.528v-43.685
						C319.567,214.439,314.405,209.278,308.039,209.278z"/>
				</g>
				<g>
					<path class="st2" d="M308.039,282.018h-191.46c-9.665,0-17.528-7.863-17.528-17.528v-43.685
						c0-9.665,7.863-17.528,17.528-17.528h191.46c9.665,0,17.527,7.863,17.527,17.528v43.685
						C325.566,274.155,317.704,282.018,308.039,282.018z M116.579,215.278c-3.048,0-5.528,2.48-5.528,5.528v43.685
						c0,3.048,2.48,5.528,5.528,5.528h191.46c3.048,0,5.527-2.48,5.527-5.528v-43.685c0-3.048-2.479-5.528-5.527-5.528H116.579z"/>
				</g>
				<g>
					<circle class="st3" cx="141.592" cy="242.648" r="13.931"/>
				</g>
				<g>
					<path class="st5" d="M283.025,228.717H191.3c-7.694,0-13.931,6.237-13.931,13.931v0c0,7.694,6.237,13.931,13.931,13.931h91.725
						c7.694,0,13.931-6.237,13.931-13.931v0C296.957,234.954,290.719,228.717,283.025,228.717z"/>
				</g>
				<g>
					<path class="st2" d="M283.025,262.58H191.3c-10.99,0-19.931-8.941-19.931-19.931s8.941-19.931,19.931-19.931h91.726
						c10.99,0,19.932,8.941,19.932,19.931S294.016,262.58,283.025,262.58z M191.3,234.717c-4.373,0-7.931,3.558-7.931,7.931
						s3.558,7.931,7.931,7.931h91.726c4.373,0,7.932-3.558,7.932-7.931s-3.559-7.931-7.932-7.931H191.3z"/>
				</g>
				<g>
					<path class="st2" d="M141.592,262.58c-10.99,0-19.931-8.941-19.931-19.931s8.941-19.931,19.931-19.931
						s19.932,8.941,19.932,19.931S152.582,262.58,141.592,262.58z M141.592,234.717c-4.373,0-7.931,3.558-7.931,7.931
						s3.558,7.931,7.931,7.931c4.374,0,7.932-3.558,7.932-7.931S145.965,234.717,141.592,234.717z"/>
				</g>
			</g>
			<g>
				<g>
					<path class="st3" d="M308.039,367.292h-191.46c-6.367,0-11.528-5.161-11.528-11.528v-43.685
						c0-6.367,5.161-11.528,11.528-11.528h191.46c6.367,0,11.528,5.161,11.528,11.528v43.685
						C319.567,362.13,314.406,367.292,308.039,367.292z"/>
				</g>
				<g>
					<path class="st4" d="M308.039,300.551h-19.506v66.741h19.506c6.367,0,11.528-5.161,11.528-11.528v-43.685
						C319.567,305.712,314.405,300.551,308.039,300.551z"/>
				</g>
				<g>
					<path class="st2" d="M308.039,373.292h-191.46c-9.665,0-17.528-7.863-17.528-17.528v-43.685
						c0-9.665,7.863-17.528,17.528-17.528h191.46c9.665,0,17.527,7.863,17.527,17.528v43.685
						C325.566,365.428,317.704,373.292,308.039,373.292z M116.579,306.551c-3.048,0-5.528,2.48-5.528,5.528v43.685
						c0,3.048,2.48,5.528,5.528,5.528h191.46c3.048,0,5.527-2.48,5.527-5.528v-43.685c0-3.048-2.479-5.528-5.527-5.528H116.579z"/>
				</g>
				<g>
					<circle class="st7" cx="141.592" cy="333.921" r="13.931"/>
				</g>
				<g>
					<path class="st5" d="M283.025,319.99H191.3c-7.694,0-13.931,6.237-13.931,13.931v0c0,7.694,6.237,13.931,13.931,13.931h91.725
						c7.694,0,13.931-6.237,13.931-13.931v0C296.957,326.227,290.719,319.99,283.025,319.99z"/>
				</g>
				<g>
					<path class="st2" d="M283.025,353.853H191.3c-10.99,0-19.931-8.941-19.931-19.931s8.941-19.931,19.931-19.931h91.726
						c10.99,0,19.932,8.941,19.932,19.931S294.016,353.853,283.025,353.853z M191.3,325.99c-4.373,0-7.931,3.558-7.931,7.931
						s3.558,7.931,7.931,7.931h91.726c4.373,0,7.932-3.558,7.932-7.931s-3.559-7.931-7.932-7.931H191.3z"/>
				</g>
				<g>
					<path class="st2" d="M141.592,353.853c-10.99,0-19.931-8.941-19.931-19.931s8.941-19.931,19.931-19.931
						s19.932,8.941,19.932,19.931S152.582,353.853,141.592,353.853z M141.592,325.99c-4.373,0-7.931,3.558-7.931,7.931
						s3.558,7.931,7.931,7.931c4.374,0,7.932-3.558,7.932-7.931S145.965,325.99,141.592,325.99z"/>
				</g>
			</g>
			<g>
				<g>
					<path class="st3" d="M308.039,184.745h-191.46c-6.367,0-11.528-5.161-11.528-11.528v-43.685
						c0-6.367,5.161-11.528,11.528-11.528h191.46c6.367,0,11.528,5.161,11.528,11.528v43.685
						C319.567,179.584,314.406,184.745,308.039,184.745z"/>
				</g>
				<g>
					<path class="st4" d="M308.039,118.005h-19.506v66.741h19.506c6.367,0,11.528-5.161,11.528-11.528v-43.685
						C319.567,123.166,314.405,118.005,308.039,118.005z"/>
				</g>
				<g>
					<path class="st2" d="M308.039,190.745h-191.46c-9.665,0-17.528-7.863-17.528-17.528v-43.685
						c0-9.665,7.863-17.528,17.528-17.528h191.46c9.665,0,17.527,7.863,17.527,17.528v43.685
						C325.566,182.882,317.704,190.745,308.039,190.745z M116.579,124.005c-3.048,0-5.528,2.48-5.528,5.528v43.685
						c0,3.048,2.48,5.528,5.528,5.528h191.46c3.048,0,5.527-2.48,5.527-5.528v-43.685c0-3.048-2.479-5.528-5.527-5.528H116.579z"/>
				</g>
				<g>
					<circle class="st7" cx="141.592" cy="151.375" r="13.931"/>
				</g>
				<g>
					<path class="st5" d="M283.025,137.444H191.3c-7.694,0-13.931,6.237-13.931,13.931v0c0,7.694,6.237,13.931,13.931,13.931h91.725
						c7.694,0,13.931-6.237,13.931-13.931v0C296.957,143.681,290.719,137.444,283.025,137.444z"/>
				</g>
				<g>
					<path class="st2" d="M283.025,171.306H191.3c-10.99,0-19.931-8.941-19.931-19.931s8.941-19.931,19.931-19.931h91.726
						c10.99,0,19.932,8.941,19.932,19.931S294.016,171.306,283.025,171.306z M191.3,143.444c-4.373,0-7.931,3.558-7.931,7.931
						s3.558,7.931,7.931,7.931h91.726c4.373,0,7.932-3.558,7.932-7.931s-3.559-7.931-7.932-7.931H191.3z"/>
				</g>
				<g>
					<path class="st2" d="M141.592,171.306c-10.99,0-19.931-8.941-19.931-19.931s8.941-19.931,19.931-19.931
						s19.932,8.941,19.932,19.931S152.582,171.306,141.592,171.306z M141.592,143.444c-4.373,0-7.931,3.558-7.931,7.931
						s3.558,7.931,7.931,7.931c4.374,0,7.932-3.558,7.932-7.931S145.965,143.444,141.592,143.444z"/>
				</g>
			</g>
		</g>
		<g>
			<g>
				<circle class="st5" cx="319.567" cy="246.538" r="87.383"/>
			</g>
			<g>
				<g>
					<path class="st3" d="M381.36,256.189v-19.302h-19.335c-1.104-4.877-3.024-9.442-5.613-13.546l13.673-13.673l-13.648-13.649
						l-13.673,13.673c-4.104-2.589-8.669-4.509-13.546-5.613v-19.335h-19.302v19.335c-4.877,1.104-9.442,3.024-13.546,5.613
						l-13.673-13.673l-13.648,13.649l13.673,13.673c-2.589,4.104-4.509,8.669-5.613,13.546h-19.335v19.302h19.335
						c1.104,4.877,3.024,9.442,5.613,13.546l-13.673,13.673l13.648,13.648l13.673-13.673c4.104,2.589,8.669,4.509,13.546,5.613
						v19.335h19.302v-19.335c4.877-1.104,9.442-3.024,13.546-5.613l13.673,13.673l13.648-13.648l-13.673-13.673
						c2.589-4.104,4.509-8.669,5.613-13.546H381.36z M319.567,272.253c-14.202,0-25.715-11.513-25.715-25.715
						c0-14.202,11.513-25.715,25.715-25.715c14.202,0,25.715,11.513,25.715,25.715C345.282,260.74,333.769,272.253,319.567,272.253z
						"/>
				</g>
				<g>
					<path class="st2" d="M329.218,314.331h-19.302c-3.313,0-6-2.686-6-6v-14.785c-2.236-0.743-4.414-1.646-6.521-2.702
						l-10.455,10.456c-2.344,2.343-6.144,2.344-8.485,0l-13.649-13.649c-1.126-1.125-1.758-2.651-1.758-4.243
						s0.632-3.117,1.758-4.243l10.456-10.456c-1.057-2.107-1.959-4.284-2.703-6.521h-14.785c-3.313,0-6-2.686-6-6v-19.302
						c0-3.314,2.687-6,6-6h14.785c0.744-2.236,1.646-4.413,2.703-6.521l-10.456-10.456c-1.126-1.125-1.758-2.651-1.758-4.243
						s0.632-3.117,1.758-4.243l13.649-13.649c2.343-2.344,6.143-2.343,8.485,0l10.455,10.456c2.107-1.057,4.284-1.959,6.521-2.702
						v-14.785c0-3.314,2.687-6,6-6h19.302c3.313,0,6,2.686,6,6v14.785c2.236,0.743,4.413,1.646,6.521,2.702l10.455-10.456
						c1.126-1.125,2.651-1.758,4.243-1.758c1.591,0,3.117,0.632,4.243,1.757l13.648,13.649c2.343,2.343,2.343,6.142,0,8.485
						l-10.456,10.456c1.057,2.108,1.959,4.285,2.702,6.521h14.785c3.313,0,6,2.686,6,6v19.302c0,3.314-2.687,6-6,6h-14.785
						c-0.743,2.236-1.646,4.413-2.702,6.521l10.456,10.456c2.343,2.343,2.343,6.142,0,8.485L360.68,301.3
						c-1.126,1.125-2.652,1.757-4.243,1.757c-1.592,0-3.117-0.632-4.243-1.758l-10.455-10.456c-2.107,1.057-4.284,1.959-6.521,2.702
						v14.785C335.218,311.645,332.531,314.331,329.218,314.331z M315.916,302.331h7.302v-13.335c0-2.803,1.941-5.233,4.675-5.852
						c4.145-0.938,8.07-2.565,11.67-4.836c2.369-1.496,5.461-1.151,7.444,0.832l9.43,9.431l5.163-5.163l-9.431-9.431
						c-1.981-1.982-2.327-5.073-0.831-7.444c2.271-3.599,3.897-7.525,4.834-11.668c0.619-2.735,3.049-4.676,5.853-4.676h13.335
						v-7.302h-13.335c-2.804,0-5.233-1.941-5.853-4.676c-0.937-4.143-2.563-8.069-4.834-11.668c-1.496-2.371-1.15-5.462,0.831-7.444
						l9.431-9.431l-5.163-5.163l-9.43,9.431c-1.983,1.983-5.075,2.327-7.444,0.832c-3.6-2.271-7.525-3.898-11.67-4.836
						c-2.733-0.619-4.675-3.049-4.675-5.852v-13.335h-7.302v13.335c0,2.803-1.941,5.233-4.675,5.852
						c-4.145,0.938-8.07,2.565-11.67,4.836c-2.369,1.495-5.462,1.15-7.444-0.832l-9.43-9.431l-5.164,5.163l9.431,9.431
						c1.982,1.982,2.328,5.073,0.832,7.444c-2.271,3.599-3.897,7.525-4.836,11.669c-0.619,2.734-3.049,4.675-5.852,4.675h-13.335
						v7.302h13.335c2.803,0,5.232,1.941,5.852,4.675c0.938,4.144,2.565,8.071,4.836,11.669c1.496,2.371,1.15,5.462-0.832,7.444
						l-9.431,9.431l5.164,5.163l9.43-9.431c1.982-1.983,5.072-2.328,7.445-0.832c3.598,2.27,7.523,3.897,11.669,4.835
						c2.733,0.619,4.675,3.049,4.675,5.852V302.331z M319.566,278.253c-17.487,0-31.715-14.227-31.715-31.715
						c0-17.488,14.228-31.715,31.715-31.715s31.715,14.227,31.715,31.715C351.281,264.026,337.054,278.253,319.566,278.253z
						 M319.566,226.823c-10.871,0-19.715,8.844-19.715,19.715s8.844,19.715,19.715,19.715s19.715-8.844,19.715-19.715
						S330.438,226.823,319.566,226.823z"/>
				</g>
			</g>
			<g>
				<path class="st2" d="M319.566,339.921c-51.491,0-93.382-41.891-93.382-93.383s41.891-93.383,93.382-93.383
					s93.383,41.891,93.383,93.383S371.058,339.921,319.566,339.921z M319.566,165.156c-44.874,0-81.382,36.508-81.382,81.383
					s36.508,81.383,81.382,81.383c44.875,0,81.383-36.508,81.383-81.383S364.441,165.156,319.566,165.156z"/>
			</g>
		</g>
	</g>
</g>
</svg>
