<?xml version="1.0" encoding="utf-8"?>
<!-- Generator: Adobe Illustrator 22.1.0, SVG Export Plug-In . SVG Version: 6.00 Build 0)  -->
<svg version="1.1" id="Icon_Set" xmlns="http://www.w3.org/2000/svg" xmlns:xlink="http://www.w3.org/1999/xlink" x="0px" y="0px"
	 viewBox="0 0 512 512" style="enable-background:new 0 0 512 512;" xml:space="preserve">
<style type="text/css">
	.st0{fill:#F0C48A;}
	.st1{fill:#D3E6F8;}
	.st2{fill:#4C4372;}
	.st3{fill:#FD919E;}
	.st4{fill:#E8677D;}
	.st5{fill:#FFFFFF;}
	.st6{fill:#A4CFF2;}
	.st7{fill:#7BABF1;}
</style>
<g id="Desktop">
	<g>
		<g>
			<circle class="st0" cx="256" cy="256" r="207"/>
		</g>
	</g>
	<g>
		<g>
			<path class="st1" d="M373.554,320.54H138.446c-14.825,0-26.843-12.018-26.843-26.843V147.543
				c0-14.825,12.018-26.843,26.843-26.843h235.107c14.825,0,26.843,12.018,26.843,26.843v146.154
				C400.396,308.522,388.378,320.54,373.554,320.54z"/>
		</g>
		<g>
			<path class="st6" d="M373.554,120.701h-5.42v199.84h5.42c14.825,0,26.843-12.018,26.843-26.843V147.543
				C400.396,132.718,388.378,120.701,373.554,120.701z"/>
		</g>
		<g>
			<path class="st5" d="M373.554,120.701H138.446c-14.825,0-26.843,12.018-26.843,26.843v146.154h288.792V147.543
				C400.396,132.718,388.378,120.701,373.554,120.701z"/>
		</g>
		<g>
			<path class="st1" d="M373.554,120.701h-5.42v172.997h32.263V147.543C400.396,132.718,388.378,120.701,373.554,120.701z"/>
		</g>
		<g>
			<path class="st2" d="M373.554,326.54H138.446c-18.109,0-32.843-14.733-32.843-32.843V147.543
				c0-18.109,14.733-32.843,32.843-32.843h235.107c18.109,0,32.843,14.733,32.843,32.843v146.154
				C406.396,311.807,391.663,326.54,373.554,326.54z M138.446,126.701c-11.493,0-20.843,9.35-20.843,20.843v146.154
				c0,11.493,9.35,20.843,20.843,20.843h235.107c11.493,0,20.843-9.35,20.843-20.843V147.543c0-11.493-9.35-20.843-20.843-20.843
				H138.446z"/>
		</g>
		<g>
			<path class="st2" d="M400.396,299.697H111.604c-3.313,0-6-2.686-6-6V147.543c0-18.109,14.733-32.843,32.843-32.843h235.107
				c18.109,0,32.843,14.733,32.843,32.843v146.154C406.396,297.011,403.71,299.697,400.396,299.697z M117.604,287.697h276.793
				V147.543c0-11.493-9.35-20.843-20.843-20.843H138.446c-11.493,0-20.843,9.35-20.843,20.843V287.697z"/>
		</g>
		<g>
			<path class="st6" d="M224.973,240.963l92.895-37.189c12.918-5.171,27.449-4.45,39.791,1.976L400.396,228v65.697H296.292
				L224.973,240.963z"/>
		</g>
		<g>
			<polygon class="st7" points="368.133,211.203 368.133,293.698 400.396,293.698 400.396,228 			"/>
		</g>
		<g>
			<path class="st6" d="M111.604,248l55.122-21.992c15.354-6.126,32.785-3.873,46.077,5.956l83.489,61.733H111.604V248z"/>
		</g>
		<g>
			<path class="st1" d="M308.577,391.299H203.423v-19.75c0-5.238,4.246-9.484,9.484-9.484h86.186c5.238,0,9.484,4.246,9.484,9.484
				V391.299z"/>
		</g>
		<g>
			<rect x="235.238" y="320.54" class="st6" width="41.525" height="41.525"/>
		</g>
		<g>
			<path class="st2" d="M276.763,368.065h-41.525c-3.313,0-6-2.686-6-6V320.54c0-3.314,2.687-6,6-6h41.525c3.313,0,6,2.686,6,6
				v41.525C282.763,365.379,280.076,368.065,276.763,368.065z M241.237,356.065h29.525V326.54h-29.525V356.065z"/>
		</g>
		<g>
			<path class="st2" d="M308.577,397.299H203.423c-3.313,0-6-2.686-6-6v-19.75c0-8.538,6.946-15.484,15.484-15.484h86.186
				c8.538,0,15.484,6.946,15.484,15.484v19.75C314.577,394.613,311.891,397.299,308.577,397.299z M209.423,385.299h93.154v-13.75
				c0-1.921-1.563-3.484-3.484-3.484h-86.186c-1.921,0-3.484,1.563-3.484,3.484V385.299z"/>
		</g>
		<g>
			<path class="st2" d="M296.292,299.697H111.604c-3.313,0-6-2.686-6-6V248c0-2.455,1.496-4.663,3.776-5.573l55.122-21.992
				c17.409-6.945,36.799-4.439,51.868,6.704l83.489,61.733c2.082,1.54,2.941,4.242,2.131,6.702
				C301.18,298.035,298.882,299.697,296.292,299.697z M117.604,287.697h160.482l-68.851-50.909
				c-11.705-8.655-26.766-10.601-40.286-5.207l-51.346,20.485V287.697z"/>
		</g>
		<g>
			<path class="st2" d="M400.396,299.697H296.292c-1.284,0-2.534-0.412-3.567-1.176l-71.318-52.734
				c-1.749-1.293-2.661-3.432-2.384-5.59s1.701-3.996,3.722-4.805l92.895-37.189c14.559-5.828,30.884-5.017,44.792,2.224
				l42.736,22.25c1.984,1.033,3.229,3.085,3.229,5.322v65.697C406.396,297.011,403.71,299.697,400.396,299.697z M298.27,287.697
				h96.127v-56.057l-39.507-20.569c-10.805-5.625-23.486-6.253-34.792-1.727l-82.906,33.19L298.27,287.697z"/>
		</g>
		<g>
			<circle class="st3" cx="232.021" cy="171.65" r="23.979"/>
		</g>
		<g>
			<path class="st2" d="M232.021,201.628c-16.53,0-29.979-13.448-29.979-29.979s13.448-29.979,29.979-29.979S262,155.12,262,171.65
				S248.552,201.628,232.021,201.628z M232.021,153.671c-9.913,0-17.979,8.065-17.979,17.979s8.065,17.979,17.979,17.979
				S250,181.563,250,171.65S241.935,153.671,232.021,153.671z"/>
		</g>
	</g>
</g>
</svg>
