<?xml version="1.0" encoding="utf-8"?>
<!-- Generator: Adobe Illustrator 22.1.0, SVG Export Plug-In . SVG Version: 6.00 Build 0)  -->
<svg version="1.1" id="Icon_Set" xmlns="http://www.w3.org/2000/svg" xmlns:xlink="http://www.w3.org/1999/xlink" x="0px" y="0px"
	 viewBox="0 0 512 512" style="enable-background:new 0 0 512 512;" xml:space="preserve">
<style type="text/css">
	.st0{fill:#F0C48A;}
	.st1{fill:#D3E6F8;}
	.st2{fill:#4C4372;}
	.st3{fill:#FD919E;}
	.st4{fill:#E8677D;}
	.st5{fill:#FFFFFF;}
	.st6{fill:#A4CFF2;}
	.st7{fill:#7BABF1;}
</style>
<g id="Desktop_And_Mobile_Connection">
	<g>
		<g>
			<circle class="st0" cx="256" cy="256" r="207"/>
		</g>
	</g>
	<g>
		<g>
			<g>
				<path class="st1" d="M333.389,311.666H124.515c-13.171,0-23.847-10.677-23.847-23.847V157.973
					c0-13.171,10.677-23.847,23.847-23.847h208.873c13.171,0,23.847,10.677,23.847,23.847v129.846
					C357.236,300.989,346.559,311.666,333.389,311.666z"/>
			</g>
			<g>
				<path class="st5" d="M333.388,134.126H124.515c-13.171,0-23.847,10.677-23.847,23.847v129.846h256.568V157.973
					C357.236,144.802,346.559,134.126,333.388,134.126z"/>
			</g>
			<g>
				<path class="st6" d="M333.388,134.126h-4.815v177.541h4.815c13.171,0,23.847-10.677,23.847-23.847V157.973
					C357.236,144.802,346.559,134.126,333.388,134.126z"/>
			</g>
			<g>
				<path class="st1" d="M333.388,134.126h-4.815v153.693h28.663V157.973C357.236,144.802,346.559,134.126,333.388,134.126z"/>
			</g>
			<g>
				<path class="st2" d="M333.389,317.666H124.516c-16.458,0-29.848-13.39-29.848-29.848V157.973
					c0-16.458,13.39-29.847,29.848-29.847h208.873c16.458,0,29.847,13.389,29.847,29.847v129.846
					C363.236,304.276,349.847,317.666,333.389,317.666z M124.516,140.126c-9.841,0-17.848,8.006-17.848,17.847v129.846
					c0,9.841,8.006,17.848,17.848,17.848h208.873c9.841,0,17.847-8.007,17.847-17.848V157.973c0-9.841-8.006-17.847-17.847-17.847
					H124.516z"/>
			</g>
			<g>
				<path class="st2" d="M357.236,293.818H100.668c-3.314,0-6-2.687-6-6V157.973c0-16.457,13.39-29.847,29.848-29.847h208.873
					c16.458,0,29.847,13.39,29.847,29.847v129.846C363.236,291.132,360.549,293.818,357.236,293.818z M106.668,281.818h244.568
					V157.973c0-9.841-8.006-17.847-17.847-17.847H124.516c-9.841,0-17.848,8.006-17.848,17.847V281.818z"/>
			</g>
			<g>
				<path class="st1" d="M275.663,374.53h-93.421v-17.547c0-4.653,3.772-8.426,8.426-8.426h76.569c4.654,0,8.426,3.772,8.426,8.426
					V374.53z"/>
			</g>
			<g>
				<rect x="210.506" y="311.666" class="st6" width="36.891" height="36.891"/>
			</g>
			<g>
				<path class="st2" d="M247.397,354.558h-36.891c-3.313,0-6-2.687-6-6v-36.892c0-3.313,2.687-6,6-6h36.891c3.313,0,6,2.687,6,6
					v36.892C253.397,351.871,250.711,354.558,247.397,354.558z M216.506,342.558h24.891v-24.892h-24.891V342.558z"/>
			</g>
			<g>
				<path class="st2" d="M275.663,380.53h-93.421c-3.313,0-6-2.687-6-6v-17.547c0-7.954,6.471-14.426,14.426-14.426h76.569
					c7.955,0,14.426,6.472,14.426,14.426v17.547C281.663,377.844,278.976,380.53,275.663,380.53z M188.242,368.53h81.421v-11.547
					c0-1.338-1.088-2.426-2.426-2.426h-76.569c-1.337,0-2.426,1.088-2.426,2.426V368.53z"/>
			</g>
		</g>
		<g>
			<g>
				<path class="st3" d="M399.493,377.874h-84.514c-6.538,0-11.839-5.3-11.839-11.839V222.811c0-6.538,5.3-11.839,11.839-11.839
					h84.514c6.538,0,11.839,5.3,11.839,11.839v143.224C411.332,372.574,406.032,377.874,399.493,377.874z"/>
			</g>
			<g>
				<circle class="st2" cx="357.236" cy="363.047" r="6.976"/>
			</g>
			<g>
				<rect x="303.14" y="233.246" class="st5" width="108.192" height="114.99"/>
			</g>
			<g>
				<path class="st2" d="M399.493,383.874h-84.515c-9.836,0-17.839-8.003-17.839-17.839V222.812c0-9.836,8.002-17.839,17.839-17.839
					h84.515c9.836,0,17.839,8.003,17.839,17.839v143.224C417.332,375.871,409.33,383.874,399.493,383.874z M314.979,216.973
					c-3.22,0-5.839,2.619-5.839,5.839v143.224c0,3.22,2.619,5.839,5.839,5.839h84.515c3.22,0,5.839-2.619,5.839-5.839V222.812
					c0-3.22-2.619-5.839-5.839-5.839H314.979z"/>
			</g>
			<g>
				<path class="st2" d="M411.332,354.236H303.14c-3.313,0-6-2.687-6-6v-114.99c0-3.313,2.687-6,6-6h108.192c3.313,0,6,2.687,6,6
					v114.99C417.332,351.55,414.646,354.236,411.332,354.236z M309.14,342.236h96.192v-102.99H309.14V342.236z"/>
			</g>
		</g>
		<g>
			<polygon class="st7" points="185.653,215.343 205.792,215.343 195.723,229.432 185.653,243.52 175.583,229.432 165.514,215.343 
							"/>
		</g>
		<g>
			<polygon class="st3" points="272.251,215.343 252.112,215.343 262.181,201.255 272.251,187.166 282.321,201.255 292.39,215.343 
							"/>
		</g>
		<g>
			<path class="st2" d="M185.653,221.343c-3.313,0-6-2.687-6-6c0-27.184,22.116-49.299,49.299-49.299c3.313,0,6,2.687,6,6
				s-2.687,6-6,6c-20.567,0-37.299,16.732-37.299,37.299C191.653,218.656,188.966,221.343,185.653,221.343z"/>
		</g>
		<g>
			<path class="st2" d="M228.952,264.643c-3.313,0-6-2.687-6-6s2.687-6,6-6c20.566,0,37.299-16.732,37.299-37.3c0-3.313,2.687-6,6-6
				s6,2.687,6,6C278.251,242.526,256.136,264.643,228.952,264.643z"/>
		</g>
		<g>
			<path class="st2" d="M185.653,249.521L185.653,249.521c-1.937,0-3.755-0.936-4.881-2.511l-20.139-28.178
				c-1.307-1.829-1.482-4.235-0.454-6.234c1.028-1.998,3.087-3.255,5.335-3.255h40.279c2.248,0,4.307,1.257,5.335,3.255
				c1.028,1.999,0.853,4.405-0.454,6.234l-20.14,28.178C189.408,248.585,187.59,249.521,185.653,249.521z M177.177,221.343
				l8.476,11.859l8.476-11.859H177.177z"/>
		</g>
		<g>
			<path class="st2" d="M292.39,221.343h-40.278c-2.248,0-4.307-1.257-5.335-3.255c-1.028-1.999-0.853-4.405,0.454-6.234
				l20.139-28.177c1.126-1.575,2.944-2.511,4.881-2.511s3.755,0.936,4.881,2.511l20.139,28.177c1.307,1.829,1.482,4.235,0.454,6.234
				C296.697,220.086,294.638,221.343,292.39,221.343z M263.775,209.343h16.951l-8.476-11.858L263.775,209.343z"/>
		</g>
	</g>
</g>
</svg>
