<?xml version="1.0" encoding="utf-8"?>
<!-- Generator: Adobe Illustrator 22.1.0, SVG Export Plug-In . SVG Version: 6.00 Build 0)  -->
<svg version="1.1" id="Icon_Set" xmlns="http://www.w3.org/2000/svg" xmlns:xlink="http://www.w3.org/1999/xlink" x="0px" y="0px"
	 viewBox="0 0 512 512" style="enable-background:new 0 0 512 512;" xml:space="preserve">
<style type="text/css">
	.st0{fill:#F0C48A;}
	.st1{fill:#D3E6F8;}
	.st2{fill:#4C4372;}
	.st3{fill:#FD919E;}
	.st4{fill:#E8677D;}
	.st5{fill:#FFFFFF;}
	.st6{fill:#A4CFF2;}
	.st7{fill:#7BABF1;}
</style>
<g id="Domain_Registration">
	<g>
		<g>
			<circle class="st0" cx="256" cy="256" r="207"/>
		</g>
	</g>
	<g>
		<g>
			<path class="st5" d="M396.618,363.123H115.382c-8.37,0-15.154-6.785-15.154-15.154V164.031c0-8.37,6.785-15.154,15.154-15.154
				h281.236c8.37,0,15.154,6.785,15.154,15.154v183.937C411.772,356.338,404.987,363.123,396.618,363.123z"/>
		</g>
		<g>
			<path class="st1" d="M396.618,148.877h-16.832v214.246h16.832c8.37,0,15.155-6.785,15.155-15.154V164.031
				C411.772,155.662,404.988,148.877,396.618,148.877z"/>
		</g>
		<g>
			<path class="st6" d="M396.618,148.877H115.382c-8.37,0-15.155,6.785-15.155,15.154v35.239h311.545v-35.239
				C411.772,155.662,404.988,148.877,396.618,148.877z"/>
		</g>
		<g>
			<path class="st7" d="M396.618,148.877h-16.832v50.393h31.987v-35.239C411.772,155.662,404.988,148.877,396.618,148.877z"/>
		</g>
		<g>
			<rect x="147.174" y="222.761" class="st3" width="45.481" height="45.481"/>
		</g>
		<g>
			<path class="st2" d="M396.618,369.123H115.382c-11.664,0-21.154-9.49-21.154-21.154V164.031c0-11.665,9.49-21.154,21.154-21.154
				h281.236c11.664,0,21.154,9.49,21.154,21.154v183.938C417.772,359.633,408.282,369.123,396.618,369.123z M115.382,154.877
				c-5.048,0-9.154,4.106-9.154,9.154v183.938c0,5.048,4.106,9.154,9.154,9.154h281.236c5.048,0,9.154-4.106,9.154-9.154V164.031
				c0-5.048-4.106-9.154-9.154-9.154H115.382z"/>
		</g>
		<g>
			<path class="st2" d="M411.772,205.271H100.228c-3.313,0-6-2.687-6-6v-35.239c0-11.665,9.49-21.154,21.154-21.154h281.236
				c11.664,0,21.154,9.49,21.154,21.154v35.239C417.772,202.584,415.086,205.271,411.772,205.271z M106.228,193.271h299.545v-29.239
				c0-5.048-4.106-9.154-9.154-9.154H115.382c-5.048,0-9.154,4.106-9.154,9.154V193.271z"/>
		</g>
		<g>
			<path class="st2" d="M242.509,256.078c2.294,0,4.197,1.902,4.197,4.196c0,2.294-1.903,4.141-4.197,4.141
				s-4.141-1.846-4.141-4.141C238.368,257.98,240.215,256.078,242.509,256.078z"/>
			<path class="st2" d="M248.776,250.091c0-7.777,6.491-13.988,14.213-14.044c3.356,0,6.49,1.231,8.896,3.078
				c1.287,1.007,1.511,2.91,0.615,4.141c-1.119,1.343-2.909,1.566-4.196,0.56c-1.455-1.063-3.245-1.791-5.315-1.791
				c-4.532,0-8.281,3.749-8.281,8.057s3.749,8.001,8.281,8.001c2.014,0,3.86-0.728,5.315-1.791c1.23-0.951,3.077-0.728,4.196,0.616
				c0.896,1.231,0.672,3.021-0.615,4.141c-2.406,1.734-5.54,2.965-8.896,2.965C255.268,264.023,248.776,257.757,248.776,250.091z"/>
			<path class="st2" d="M284.42,259.939c-2.406-2.462-3.86-5.931-3.86-9.848c0-3.805,1.454-7.106,3.86-9.792
				c2.519-2.63,5.764-4.252,9.624-4.252c3.693,0,7.051,1.623,9.345,4.252c2.518,2.686,3.917,5.987,3.917,9.792
				c0,3.917-1.399,7.386-3.917,9.848c-2.294,2.63-5.651,4.252-9.345,4.252C290.184,264.191,286.938,262.569,284.42,259.939z
				 M286.658,250.091c0,2.406,0.728,4.364,2.015,5.931c1.398,1.343,3.245,2.07,5.371,2.07c1.959,0,3.749-0.728,5.148-2.07
				c1.398-1.567,2.182-3.525,2.182-5.931c0-2.294-0.783-4.309-2.182-5.819c-1.399-1.231-3.189-2.126-5.148-2.126
				c-2.126,0-3.973,0.895-5.371,2.126C287.386,245.782,286.658,247.797,286.658,250.091z"/>
			<path class="st2" d="M340.207,247.629c0,0.056,0,0.112,0,0.168v13.261c0,1.623-1.343,2.965-2.966,2.965
				c-1.566,0-3.021-1.343-3.021-2.965v-13.261c0-0.056,0-0.112,0-0.168c-0.056-3.078-2.63-5.595-5.764-5.595
				c-3.077,0-5.651,2.574-5.651,5.763v13.261c0,0.112-0.056,0.28-0.056,0.392c0,0.056,0,0.167,0,0.167
				c-0.056,0.112-0.056,0.224-0.168,0.336c0,0.056,0,0.168,0,0.28c-0.503,1.007-1.622,1.791-2.798,1.791
				c-0.224,0-0.392-0.056-0.56-0.056c-1.343-0.335-2.405-1.455-2.405-2.909v-13.261c0-0.056,0-0.056,0-0.056v-8.673
				c0-1.734,1.343-3.021,2.965-3.021c1.176,0,2.238,0.616,2.687,1.679c1.79-1.063,3.86-1.679,5.986-1.679
				c3.525,0,6.659,1.455,8.785,3.861c2.07-2.406,5.26-3.861,8.785-3.861c6.435,0,11.638,5.26,11.638,11.75v13.261
				c0,1.623-1.343,2.965-2.965,2.965c-1.623,0-3.021-1.343-3.021-2.965v-13.261c0-3.189-2.574-5.763-5.651-5.763
				C342.837,242.034,340.318,244.551,340.207,247.629z"/>
		</g>
		<g>
			<path class="st2" d="M242.51,323.712c2.294,0,4.197,1.902,4.197,4.196c0,2.294-1.903,4.141-4.197,4.141s-4.141-1.846-4.141-4.141
				C238.369,325.615,240.216,323.712,242.51,323.712z"/>
			<path class="st2" d="M275.187,315.319v13.373c0,1.623-1.286,2.965-2.909,2.965c-1.566,0-2.966-1.343-2.966-2.965v-13.373
				c0-3.134-2.63-5.651-5.819-5.651c-3.133,0-5.595,2.518-5.595,5.651v13.373c0,0.167,0,0.335-0.112,0.559
				c-0.279,1.343-1.511,2.406-2.966,2.406c-1.679,0-2.965-1.343-2.965-2.965v-13.373v-8.673c0-1.623,1.286-2.966,2.965-2.966
				c1.176,0,2.238,0.671,2.742,1.735c1.679-1.063,3.749-1.735,5.931-1.735C269.983,303.681,275.187,308.997,275.187,315.319z"/>
			<path class="st2" d="M284.196,317.669c0.057-7.61,5.987-13.989,13.653-13.989c7.273,0,13.037,5.428,13.484,12.981
				c0,0.056,0,0.168,0,0.28s0,0.392-0.056,0.503c-0.168,1.343-1.343,2.238-2.91,2.238h-17.793c0.28,1.287,0.896,2.742,1.902,3.693
				c1.175,1.343,3.413,2.35,5.372,2.518c2.014,0.168,4.42-0.336,5.819-1.399c1.175-1.231,3.469-1.063,4.196-0.168
				c0.728,0.784,1.287,2.462,0,3.637c-2.742,2.518-6.043,3.693-10.016,3.693C290.184,331.602,284.253,325.279,284.196,317.669z
				 M290.296,314.927h15.835c-0.56-2.238-3.414-5.539-8.281-5.931C293.093,309.22,290.743,312.633,290.296,314.927z"/>
			<path class="st2" d="M330.582,306.758c0,1.679-1.454,3.077-3.133,3.077h-1.399v15.611c1.735,0,3.078,1.399,3.078,3.133
				c0,1.735-1.343,3.078-3.078,3.078c-3.413,0-6.211-2.798-6.211-6.211v-15.611h-1.622c-1.734,0-3.078-1.398-3.078-3.077
				c0-1.735,1.344-3.078,3.078-3.078h1.622v-8.113c0-1.734,1.399-3.078,3.134-3.078s3.077,1.343,3.077,3.078v8.113h1.399
				C329.128,303.681,330.582,305.023,330.582,306.758z"/>
		</g>
		<g>
			<path class="st2" d="M192.654,274.242h-45.48c-3.313,0-6-2.687-6-6v-45.481c0-3.313,2.687-6,6-6h45.48c3.313,0,6,2.687,6,6
				v45.481C198.654,271.556,195.968,274.242,192.654,274.242z M153.174,262.242h33.48v-33.481h-33.48V262.242z"/>
		</g>
		<g>
			<path class="st2" d="M192.654,341.877h-45.48c-3.313,0-6-2.687-6-6v-45.481c0-3.313,2.687-6,6-6h45.48c3.313,0,6,2.687,6,6
				v45.481C198.654,339.19,195.968,341.877,192.654,341.877z M153.174,329.877h33.48v-33.481h-33.48V329.877z"/>
		</g>
		<g>
			<circle class="st2" cx="130.735" cy="173.986" r="8.644"/>
		</g>
		<g>
			<circle class="st2" cx="155.818" cy="173.986" r="8.644"/>
		</g>
		<g>
			<circle class="st2" cx="180.901" cy="173.986" r="8.644"/>
		</g>
	</g>
</g>
</svg>
