<?xml version="1.0" encoding="utf-8"?>
<!-- Generator: Adobe Illustrator 22.1.0, SVG Export Plug-In . SVG Version: 6.00 Build 0)  -->
<svg version="1.1" id="Icon_Set" xmlns="http://www.w3.org/2000/svg" xmlns:xlink="http://www.w3.org/1999/xlink" x="0px" y="0px"
	 viewBox="0 0 512 512" style="enable-background:new 0 0 512 512;" xml:space="preserve">
<style type="text/css">
	.st0{fill:#F0C48A;}
	.st1{fill:#D3E6F8;}
	.st2{fill:#4C4372;}
	.st3{fill:#FD919E;}
	.st4{fill:#E8677D;}
	.st5{fill:#FFFFFF;}
	.st6{fill:#A4CFF2;}
	.st7{fill:#7BABF1;}
</style>
<g id="Domain">
	<g>
		<g>
			<circle class="st0" cx="256" cy="256" r="207"/>
		</g>
	</g>
	<g>
		<g>
			<path class="st5" d="M396.618,383.123H115.382c-8.37,0-15.154-6.785-15.154-15.154V144.031c0-8.37,6.785-15.154,15.154-15.154
				h281.236c8.37,0,15.154,6.785,15.154,15.154v223.937C411.772,376.338,404.987,383.123,396.618,383.123z"/>
		</g>
		<g>
			<path class="st1" d="M396.618,128.877h-16.832v254.246h16.832c8.37,0,15.155-6.785,15.155-15.154V144.031
				C411.772,135.662,404.988,128.877,396.618,128.877z"/>
		</g>
		<g>
			<path class="st6" d="M396.618,128.877H115.382c-8.37,0-15.155,6.785-15.155,15.154v35.239h311.545v-35.239
				C411.772,135.662,404.988,128.877,396.618,128.877z"/>
		</g>
		<g>
			<path class="st7" d="M396.618,128.877h-16.832v50.393h31.987v-35.239C411.772,135.662,404.988,128.877,396.618,128.877z"/>
		</g>
		<g>
			<path class="st2" d="M396.618,389.123H115.382c-11.665,0-21.154-9.49-21.154-21.154V144.031c0-11.664,9.49-21.154,21.154-21.154
				h281.236c11.665,0,21.154,9.49,21.154,21.154v223.938C417.772,379.633,408.283,389.123,396.618,389.123z M115.382,134.877
				c-5.048,0-9.154,4.106-9.154,9.154v223.938c0,5.048,4.106,9.154,9.154,9.154h281.236c5.048,0,9.154-4.106,9.154-9.154V144.031
				c0-5.048-4.106-9.154-9.154-9.154H115.382z"/>
		</g>
		<g>
			<path class="st2" d="M411.772,185.271H100.228c-3.313,0-6-2.687-6-6v-35.239c0-11.664,9.49-21.154,21.155-21.154h281.235
				c11.665,0,21.155,9.49,21.155,21.154v35.239C417.772,182.584,415.086,185.271,411.772,185.271z M106.228,173.271h299.545v-29.239
				c0-5.048-4.107-9.154-9.155-9.154H115.382c-5.048,0-9.155,4.106-9.155,9.154V173.271z"/>
		</g>
		<g>
			<circle class="st2" cx="130.735" cy="153.986" r="8.644"/>
		</g>
		<g>
			<circle class="st2" cx="155.818" cy="153.986" r="8.644"/>
		</g>
		<g>
			<circle class="st2" cx="180.901" cy="153.986" r="8.644"/>
		</g>
		<g>
			<g>
				<circle class="st3" cx="256" cy="280.96" r="75.539"/>
			</g>
			<g>
				<path class="st4" d="M256,205.421c-2.662,0-5.291,0.139-7.881,0.408c38.015,3.941,67.658,36.073,67.658,75.131
					c0,39.057-29.643,71.19-67.658,75.131c2.591,0.269,5.22,0.408,7.881,0.408c41.719,0,75.539-33.82,75.539-75.539
					C331.539,239.241,297.719,205.421,256,205.421z"/>
			</g>
			<g>
				<path class="st2" d="M256,362.498c-24.543,0-43.77-35.815-43.77-81.538s19.226-81.539,43.77-81.539s43.77,35.816,43.77,81.539
					S280.543,362.498,256,362.498z M256,211.421c-7.586,0-15.364,6.855-21.34,18.808c-6.726,13.451-10.429,31.468-10.429,50.731
					s3.704,37.28,10.429,50.73c5.976,11.952,13.754,18.808,21.34,18.808s15.364-6.855,21.34-18.808
					c6.726-13.45,10.429-31.467,10.429-50.73s-3.704-37.28-10.429-50.731C271.364,218.276,263.586,211.421,256,211.421z"/>
			</g>
			<g>
				<path class="st2" d="M256,362.498c-3.313,0-6-2.687-6-6V205.421c0-3.313,2.687-6,6-6s6,2.687,6,6v151.077
					C262,359.812,259.313,362.498,256,362.498z"/>
			</g>
			<g>
				<path class="st2" d="M331.539,286.96H180.461c-3.313,0-6-2.687-6-6s2.687-6,6-6h151.078c3.313,0,6,2.687,6,6
					S334.853,286.96,331.539,286.96z"/>
			</g>
			<g>
				<path class="st2" d="M256,253.483c-22.974,0-44.956-6.363-60.31-17.459c-1.37-0.99-2.258-2.512-2.448-4.19
					c-0.19-1.679,0.337-3.36,1.452-4.63c15.494-17.657,37.838-27.783,61.306-27.783s45.812,10.126,61.306,27.783
					c1.115,1.27,1.642,2.951,1.452,4.63c-0.189,1.679-1.078,3.2-2.448,4.19C300.956,247.12,278.974,253.483,256,253.483z
					 M208.613,230.073c12.869,7.305,29.725,11.41,47.387,11.41s34.518-4.105,47.387-11.41
					c-12.814-11.928-29.729-18.652-47.387-18.652S221.427,218.146,208.613,230.073z"/>
			</g>
			<g>
				<path class="st2" d="M256,362.498c-23.467,0-45.812-10.126-61.306-27.783c-1.115-1.27-1.642-2.951-1.452-4.63
					c0.189-1.679,1.078-3.2,2.448-4.19c15.353-11.095,37.337-17.459,60.31-17.459c0.001,0-0.001,0,0,0
					c22.974,0,44.956,6.363,60.31,17.459c1.37,0.99,2.258,2.512,2.448,4.19c0.19,1.679-0.337,3.36-1.452,4.63
					C301.812,352.372,279.467,362.498,256,362.498z M208.613,331.846c12.814,11.928,29.729,18.652,47.387,18.652
					s34.573-6.725,47.387-18.652c-12.869-7.305-29.725-11.41-47.387-11.41S221.482,324.541,208.613,331.846z"/>
			</g>
			<g>
				<path class="st2" d="M256,362.498c-44.961,0-81.539-36.578-81.539-81.538c0-44.961,36.578-81.539,81.539-81.539
					s81.539,36.578,81.539,81.539C337.539,325.92,300.961,362.498,256,362.498z M256,211.421c-38.344,0-69.539,31.195-69.539,69.539
					s31.195,69.538,69.539,69.538s69.539-31.194,69.539-69.538S294.344,211.421,256,211.421z"/>
			</g>
		</g>
	</g>
</g>
</svg>
