<?xml version="1.0" encoding="utf-8"?>
<!-- Generator: Adobe Illustrator 22.1.0, SVG Export Plug-In . SVG Version: 6.00 Build 0)  -->
<svg version="1.1" id="Icon_Set" xmlns="http://www.w3.org/2000/svg" xmlns:xlink="http://www.w3.org/1999/xlink" x="0px" y="0px"
	 viewBox="0 0 512 512" style="enable-background:new 0 0 512 512;" xml:space="preserve">
<style type="text/css">
	.st0{fill:#F0C48A;}
	.st1{fill:#D3E6F8;}
	.st2{fill:#4C4372;}
	.st3{fill:#FD919E;}
	.st4{fill:#E8677D;}
	.st5{fill:#FFFFFF;}
	.st6{fill:#A4CFF2;}
	.st7{fill:#7BABF1;}
</style>
<g id="Fast_Access">
	<g>
		<g>
			<circle class="st0" cx="256" cy="256" r="207"/>
		</g>
	</g>
	<g>
		<g>
			<g>
				<path class="st5" d="M386.618,378.123H125.382c-8.37,0-15.154-6.785-15.154-15.154V149.031c0-8.37,6.785-15.154,15.154-15.154
					h261.236c8.37,0,15.154,6.785,15.154,15.154v213.937C401.772,371.338,394.987,378.123,386.618,378.123z"/>
			</g>
			<g>
				<path class="st1" d="M386.618,133.877h-16.832v244.246h16.832c8.37,0,15.155-6.785,15.155-15.154V149.031
					C401.772,140.662,394.988,133.877,386.618,133.877z"/>
			</g>
			<g>
				<path class="st6" d="M386.618,133.877H125.382c-8.37,0-15.155,6.785-15.155,15.154v35.239h291.545v-35.239
					C401.772,140.662,394.988,133.877,386.618,133.877z"/>
			</g>
			<g>
				<path class="st7" d="M386.618,133.877h-16.832v50.393h31.987v-35.239C401.772,140.662,394.988,133.877,386.618,133.877z"/>
			</g>
			<g>
				<path class="st2" d="M386.618,384.123H125.382c-11.664,0-21.154-9.49-21.154-21.154V149.031c0-11.664,9.49-21.154,21.154-21.154
					h261.236c11.664,0,21.154,9.49,21.154,21.154v213.938C407.772,374.633,398.282,384.123,386.618,384.123z M125.382,139.877
					c-5.048,0-9.154,4.106-9.154,9.154v213.938c0,5.048,4.106,9.154,9.154,9.154h261.236c5.048,0,9.154-4.106,9.154-9.154V149.031
					c0-5.048-4.106-9.154-9.154-9.154H125.382z"/>
			</g>
			<g>
				<path class="st2" d="M401.772,190.271H110.228c-3.313,0-6-2.687-6-6v-35.239c0-11.664,9.49-21.154,21.154-21.154h261.236
					c11.664,0,21.154,9.49,21.154,21.154v35.239C407.772,187.584,405.086,190.271,401.772,190.271z M116.228,178.271h279.545
					v-29.239c0-5.048-4.106-9.154-9.154-9.154H125.382c-5.048,0-9.154,4.106-9.154,9.154V178.271z"/>
			</g>
			<g>
				<circle class="st2" cx="140.735" cy="158.986" r="8.644"/>
			</g>
			<g>
				<circle class="st2" cx="165.818" cy="158.986" r="8.644"/>
			</g>
			<g>
				<circle class="st2" cx="190.901" cy="158.986" r="8.644"/>
			</g>
		</g>
		<g>
			<circle class="st3" cx="256" cy="280.967" r="67.058"/>
		</g>
		<g>
			<path class="st2" d="M256,354.024c-40.284,0-73.058-32.773-73.058-73.058s32.773-73.058,73.058-73.058
				s73.058,32.773,73.058,73.058S296.284,354.024,256,354.024z M256,219.909c-33.667,0-61.058,27.391-61.058,61.058
				s27.391,61.058,61.058,61.058s61.058-27.391,61.058-61.058S289.667,219.909,256,219.909z"/>
		</g>
		<g>
			<path class="st2" d="M256,286.967c-1.535,0-3.071-0.586-4.242-1.758c-2.344-2.343-2.344-6.142,0-8.484l26.722-26.722
				c2.342-2.344,6.143-2.344,8.484,0c2.344,2.343,2.344,6.142,0,8.484l-26.722,26.722C259.071,286.381,257.535,286.967,256,286.967z
				"/>
		</g>
		<g>
			<g>
				<path class="st2" d="M256,234.765c-3.313,0-6-2.687-6-6v-14.855c0-3.313,2.687-6,6-6s6,2.687,6,6v14.855
					C262,232.078,259.313,234.765,256,234.765z"/>
			</g>
		</g>
		<g>
			<g>
				<path class="st2" d="M292.912,250.054c-1.536,0-3.071-0.586-4.243-1.758c-2.343-2.343-2.343-6.142,0.001-8.485l10.505-10.504
					c2.343-2.343,6.143-2.342,8.485,0.001s2.343,6.142-0.001,8.485l-10.505,10.504C295.983,249.468,294.447,250.054,292.912,250.054
					z"/>
			</g>
		</g>
		<g>
			<g>
				<path class="st2" d="M219.088,250.054c-1.535,0-3.071-0.586-4.242-1.757l-10.505-10.504c-2.344-2.344-2.344-6.143-0.001-8.485
					c2.344-2.344,6.144-2.343,8.485-0.001l10.505,10.504c2.344,2.344,2.344,6.143,0.001,8.485
					C222.159,249.468,220.623,250.054,219.088,250.054z"/>
			</g>
		</g>
		<g>
			<g>
				<path class="st2" d="M203.798,286.967h-14.855c-3.313,0-6-2.687-6-6s2.687-6,6-6h14.855c3.313,0,6,2.687,6,6
					S207.111,286.967,203.798,286.967z"/>
			</g>
			<g>
				<path class="st2" d="M323.058,286.967h-14.855c-3.313,0-6-2.687-6-6s2.687-6,6-6h14.855c3.313,0,6,2.687,6,6
					S326.371,286.967,323.058,286.967z"/>
			</g>
		</g>
		<g>
			<circle class="st7" cx="256" cy="280.967" r="15.539"/>
		</g>
		<g>
			<path class="st2" d="M256,302.505c-11.876,0-21.538-9.662-21.538-21.538c0-11.877,9.662-21.539,21.538-21.539
				s21.538,9.662,21.538,21.539C277.538,292.843,267.876,302.505,256,302.505z M256,271.428c-5.26,0-9.538,4.279-9.538,9.539
				s4.278,9.538,9.538,9.538s9.538-4.278,9.538-9.538S261.26,271.428,256,271.428z"/>
		</g>
	</g>
</g>
</svg>
