<?xml version="1.0" encoding="utf-8"?>
<!-- Generator: Adobe Illustrator 22.1.0, SVG Export Plug-In . SVG Version: 6.00 Build 0)  -->
<svg version="1.1" id="Icon_Set" xmlns="http://www.w3.org/2000/svg" xmlns:xlink="http://www.w3.org/1999/xlink" x="0px" y="0px"
	 viewBox="0 0 512 512" style="enable-background:new 0 0 512 512;" xml:space="preserve">
<style type="text/css">
	.st0{fill:#F0C48A;}
	.st1{fill:#D3E6F8;}
	.st2{fill:#4C4372;}
	.st3{fill:#FD919E;}
	.st4{fill:#E8677D;}
	.st5{fill:#FFFFFF;}
	.st6{fill:#A4CFF2;}
	.st7{fill:#7BABF1;}
</style>
<g id="Fast_Processing">
	<g>
		<g>
			<circle class="st0" cx="256" cy="256" r="207"/>
		</g>
	</g>
	<g>
		<g>
			<g>
				<path class="st3" d="M409.799,274.224v-36.449h-36.511c-2.085-9.21-5.71-17.829-10.599-25.579l25.82-25.82l-25.773-25.773
					l-25.82,25.82c-7.75-4.889-16.369-8.514-25.579-10.599v-36.511h-36.449v36.511c-9.21,2.085-17.829,5.71-25.579,10.599
					l-25.82-25.82l-25.773,25.773l25.82,25.82c-4.889,7.75-8.514,16.369-10.599,25.579h-36.511v36.449h36.511
					c2.085,9.21,5.71,17.829,10.599,25.579l-25.82,25.82l25.773,25.773l25.82-25.82c7.75,4.889,16.369,8.514,25.579,10.599v36.511
					h36.449v-36.511c9.21-2.085,17.829-5.71,25.579-10.599l25.82,25.82l25.773-25.773l-25.82-25.82
					c4.889-7.75,8.514-16.369,10.599-25.579H409.799z M293.113,304.559c-26.818,0-48.559-21.741-48.559-48.559
					c0-26.818,21.741-48.559,48.559-48.559c26.818,0,48.559,21.741,48.559,48.559C341.671,282.818,319.931,304.559,293.113,304.559z
					"/>
			</g>
			<g>
				<path class="st2" d="M311.337,378.687h-36.449c-3.313,0-6-2.687-6-6v-31.853c-6.492-1.848-12.729-4.433-18.63-7.72
					l-22.526,22.526c-1.125,1.125-2.651,1.757-4.243,1.757l0,0c-1.591,0-3.118-0.632-4.243-1.757l-25.773-25.773
					c-2.343-2.343-2.343-6.142,0-8.485l22.526-22.526c-3.288-5.901-5.873-12.138-7.721-18.63h-31.853c-3.313,0-6-2.687-6-6v-36.449
					c0-3.313,2.687-6,6-6h31.853c1.848-6.493,4.433-12.729,7.721-18.63l-22.526-22.526c-2.343-2.343-2.343-6.142,0-8.485
					l25.773-25.773c1.125-1.125,2.651-1.757,4.243-1.757s3.117,0.632,4.243,1.757l22.526,22.526
					c5.901-3.288,12.138-5.872,18.63-7.72v-31.853c0-3.313,2.687-6,6-6h36.449c3.313,0,6,2.687,6,6v31.853
					c6.492,1.848,12.729,4.433,18.631,7.72l22.526-22.526c1.125-1.125,2.65-1.757,4.242-1.757l0,0c1.592,0,3.117,0.632,4.243,1.757
					l25.772,25.773c2.343,2.343,2.343,6.142,0,8.485l-22.525,22.526c3.287,5.902,5.872,12.138,7.72,18.63H409.8c3.313,0,6,2.687,6,6
					v36.449c0,3.313-2.687,6-6,6h-31.854c-1.848,6.492-4.433,12.729-7.72,18.63l22.525,22.526c2.343,2.343,2.343,6.142,0,8.485
					l-25.772,25.773c-1.126,1.125-2.651,1.757-4.243,1.757c-1.591,0-3.117-0.632-4.242-1.757l-22.526-22.526
					c-5.902,3.288-12.139,5.872-18.631,7.72v31.853C317.337,376,314.65,378.687,311.337,378.687z M280.888,366.687h24.449v-30.511
					c0-2.803,1.941-5.233,4.675-5.852c8.418-1.905,16.393-5.21,23.703-9.822c2.369-1.495,5.461-1.151,7.443,0.832l21.578,21.578
					l17.287-17.288l-21.577-21.578c-1.981-1.982-2.327-5.073-0.831-7.444c4.61-7.31,7.915-15.284,9.821-23.702
					c0.618-2.734,3.048-4.675,5.852-4.675H403.8v-24.449h-30.512c-2.804,0-5.233-1.941-5.852-4.675
					c-1.906-8.418-5.211-16.393-9.821-23.702c-1.496-2.371-1.15-5.461,0.831-7.444l21.577-21.578l-17.287-17.288l-21.578,21.578
					c-1.982,1.983-5.074,2.327-7.443,0.832c-7.311-4.612-15.285-7.917-23.703-9.822c-2.733-0.619-4.675-3.049-4.675-5.852v-30.511
					h-24.449v30.511c0,2.803-1.941,5.233-4.675,5.852c-8.419,1.906-16.394,5.21-23.702,9.822c-2.371,1.496-5.461,1.151-7.444-0.832
					l-21.578-21.578l-17.288,17.288l21.578,21.578c1.982,1.982,2.328,5.073,0.832,7.444c-4.611,7.309-7.916,15.283-9.822,23.702
					c-0.619,2.734-3.049,4.675-5.852,4.675h-30.511v24.449h30.511c2.803,0,5.233,1.941,5.852,4.675
					c1.906,8.418,5.21,16.393,9.822,23.702c1.496,2.371,1.151,5.462-0.832,7.444l-21.578,21.578l17.288,17.288l21.578-21.578
					c1.982-1.983,5.072-2.327,7.444-0.832c7.309,4.611,15.283,7.916,23.702,9.822c2.733,0.619,4.675,3.049,4.675,5.852V366.687z
					 M293.112,310.559c-30.084,0-54.559-24.475-54.559-54.559s24.475-54.559,54.559-54.559s54.56,24.475,54.56,54.559
					S323.196,310.559,293.112,310.559z M293.112,213.441c-23.467,0-42.559,19.092-42.559,42.559s19.092,42.559,42.559,42.559
					c23.468,0,42.56-19.092,42.56-42.559S316.58,213.441,293.112,213.441z"/>
			</g>
		</g>
		<g>
			<path class="st2" d="M176.425,262h-32.119c-3.313,0-6-2.687-6-6s2.687-6,6-6h32.119c3.313,0,6,2.687,6,6S179.739,262,176.425,262
				z"/>
		</g>
		<g>
			<path class="st2" d="M167.523,213.441h-42.651c-3.313,0-6-2.687-6-6s2.687-6,6-6h42.651c3.313,0,6,2.687,6,6
				S170.837,213.441,167.523,213.441z"/>
		</g>
		<g>
			<path class="st2" d="M216.541,213.441h-25.115c-3.313,0-6-2.687-6-6s2.687-6,6-6h25.115c3.313,0,6,2.687,6,6
				S219.854,213.441,216.541,213.441z"/>
		</g>
		<g>
			<path class="st2" d="M216.541,297.286h-40.116c-3.313,0-6-2.687-6-6s2.687-6,6-6h40.116c3.313,0,6,2.687,6,6
				S219.854,297.286,216.541,297.286z"/>
		</g>
		<g>
			<path class="st2" d="M153.753,297.286h-21.15c-3.313,0-6-2.687-6-6s2.687-6,6-6h21.15c3.313,0,6,2.687,6,6
				S157.066,297.286,153.753,297.286z"/>
		</g>
		<g>
			<path class="st2" d="M197.716,331.624h-41.319c-3.313,0-6-2.687-6-6s2.687-6,6-6h41.319c3.313,0,6,2.687,6,6
				S201.029,331.624,197.716,331.624z"/>
		</g>
		<g>
			<path class="st2" d="M274.888,363.379h-22.656c-3.313,0-6-2.687-6-6s2.687-6,6-6h22.656c3.313,0,6,2.687,6,6
				S278.201,363.379,274.888,363.379z"/>
		</g>
		<g>
			<path class="st2" d="M223.489,166.603h-38.672c-3.313,0-6-2.687-6-6s2.687-6,6-6h38.672c3.313,0,6,2.687,6,6
				S226.802,166.603,223.489,166.603z"/>
		</g>
		<g>
			<path class="st2" d="M120.045,262h-17.845c-3.313,0-6-2.687-6-6s2.687-6,6-6h17.845c3.313,0,6,2.687,6,6S123.359,262,120.045,262
				z"/>
		</g>
	</g>
</g>
</svg>
