<?xml version="1.0" encoding="utf-8"?>
<!-- Generator: Adobe Illustrator 22.1.0, SVG Export Plug-In . SVG Version: 6.00 Build 0)  -->
<svg version="1.1" id="Icon_Set" xmlns="http://www.w3.org/2000/svg" xmlns:xlink="http://www.w3.org/1999/xlink" x="0px" y="0px"
	 viewBox="0 0 512 512" style="enable-background:new 0 0 512 512;" xml:space="preserve">
<style type="text/css">
	.st0{fill:#F0C48A;}
	.st1{fill:#D3E6F8;}
	.st2{fill:#4C4372;}
	.st3{fill:#FD919E;}
	.st4{fill:#E8677D;}
	.st5{fill:#FFFFFF;}
	.st6{fill:#A4CFF2;}
	.st7{fill:#7BABF1;}
</style>
<g id="Feedback_Form">
	<g>
		<g>
			<circle class="st0" cx="256" cy="256" r="207"/>
		</g>
	</g>
	<g>
		<g>
			<g>
				<path class="st5" d="M270.34,119.373H139.027c-9.93,0-17.98,8.05-17.98,17.98v237.294c0,9.93,8.05,17.98,17.98,17.98h167.624
					c9.93,0,17.98-8.05,17.98-17.98V173.663L270.34,119.373z"/>
			</g>
			<g>
				<path class="st1" d="M297.485,392.627h9.165c9.93,0,17.98-8.05,17.98-17.98V173.663l-27.145-27.145V392.627z"/>
			</g>
			<g>
				<polygon class="st7" points="324.63,173.663 270.34,173.663 270.34,119.373 				"/>
			</g>
			<g>
				<path class="st2" d="M324.63,179.663h-54.29c-3.313,0-6-2.687-6-6v-54.29c0-2.427,1.462-4.614,3.704-5.543
					c2.24-0.929,4.822-0.417,6.538,1.301l54.29,54.29c1.717,1.716,2.229,4.296,1.301,6.538S327.057,179.663,324.63,179.663z
					 M276.34,167.663h33.805l-33.805-33.805V167.663z"/>
			</g>
			<g>
				<path class="st2" d="M306.65,398.627H139.026c-13.222,0-23.979-10.758-23.979-23.98V137.354c0-13.223,10.757-23.98,23.979-23.98
					H270.34c1.591,0,3.117,0.632,4.242,1.758l54.29,54.29c1.126,1.125,1.758,2.651,1.758,4.242v200.983
					C330.63,387.869,319.873,398.627,306.65,398.627z M139.026,125.373c-6.605,0-11.979,5.374-11.979,11.98v237.293
					c0,6.606,5.374,11.98,11.979,11.98H306.65c6.605,0,11.979-5.374,11.979-11.98V176.148l-50.775-50.775H139.026z"/>
			</g>
		</g>
		<g>
			<g>
				<path class="st2" d="M294.653,206.192h-75.385c-3.313,0-6-2.687-6-6s2.687-6,6-6h75.385c3.313,0,6,2.687,6,6
					S297.967,206.192,294.653,206.192z"/>
			</g>
			<g>
				<path class="st2" d="M294.653,232.656h-75.385c-3.313,0-6-2.687-6-6s2.687-6,6-6h75.385c3.313,0,6,2.687,6,6
					S297.967,232.656,294.653,232.656z"/>
			</g>
		</g>
		<g>
			<g>
				<path class="st2" d="M294.653,297.554h-75.385c-3.313,0-6-2.687-6-6s2.687-6,6-6h75.385c3.313,0,6,2.687,6,6
					S297.967,297.554,294.653,297.554z"/>
			</g>
			<g>
				<path class="st2" d="M294.653,324.017h-75.385c-3.313,0-6-2.687-6-6s2.687-6,6-6h75.385c3.313,0,6,2.687,6,6
					S297.967,324.017,294.653,324.017z"/>
			</g>
		</g>
		<g>
			<path class="st2" d="M164.216,229.031c-1.468,0-2.893-0.539-3.997-1.525l-18.254-16.31c-2.471-2.208-2.685-6.001-0.477-8.473
				c2.208-2.47,6.001-2.684,8.472-0.477l13.513,12.074l17.777-22.38c2.061-2.596,5.835-3.025,8.43-0.966
				c2.595,2.062,3.027,5.836,0.966,8.431l-21.731,27.357c-1.027,1.293-2.542,2.105-4.188,2.246
				C164.557,229.024,164.386,229.031,164.216,229.031z"/>
		</g>
		<g>
			<path class="st2" d="M164.216,324.911c-1.468,0-2.893-0.539-3.997-1.525l-18.254-16.31c-2.471-2.208-2.685-6.001-0.477-8.473
				c2.208-2.47,6.001-2.684,8.472-0.477l13.513,12.074l17.777-22.38c2.061-2.595,5.835-3.024,8.43-0.966
				c2.595,2.062,3.027,5.836,0.966,8.431l-21.731,27.357c-1.027,1.293-2.542,2.105-4.188,2.246
				C164.557,324.904,164.386,324.911,164.216,324.911z"/>
		</g>
		<g>
			<g>
				<path class="st3" d="M270.681,356.457l-35.989,11.414l11.414-35.989L361.289,216.7c6.786-6.786,17.789-6.786,24.575,0l0,0
					c6.786,6.786,6.786,17.789,0,24.575L270.681,356.457z"/>
			</g>
			<g>
				<path class="st2" d="M234.692,373.871c-1.567,0-3.101-0.614-4.243-1.758c-1.584-1.584-2.154-3.92-1.477-6.057l11.415-35.988
					c0.291-0.916,0.797-1.749,1.477-2.428l115.184-115.184c4.415-4.416,10.285-6.848,16.529-6.848s12.114,2.432,16.529,6.848
					c4.416,4.415,6.848,10.285,6.848,16.53c0,6.244-2.432,12.114-6.848,16.529L274.923,360.699c-0.679,0.68-1.512,1.187-2.429,1.478
					l-35.989,11.414C235.91,373.779,235.298,373.871,234.692,373.871z M251.383,335.091l-7.473,23.562l23.563-7.474l114.148-114.147
					c4.436-4.437,4.436-11.654,0-16.091c-4.438-4.436-11.652-4.436-16.09,0L251.383,335.091z M270.681,356.457h0.01H270.681z"/>
			</g>
			<g>
				<path class="st2" d="M378.434,254.704c-1.536,0-3.071-0.586-4.243-1.758l-33.438-33.439L308.9,251.359
					c-2.344,2.344-6.144,2.343-8.485,0.001c-2.344-2.344-2.344-6.143-0.001-8.485l36.095-36.096
					c1.126-1.126,2.651-1.758,4.243-1.758c1.591,0,3.117,0.632,4.242,1.758l37.683,37.683c2.343,2.343,2.343,6.142-0.001,8.485
					C381.505,254.118,379.969,254.704,378.434,254.704z"/>
			</g>
			<g>
				<path class="st2" d="M342.339,290.799c-1.536,0-3.071-0.586-4.243-1.758l-24.574-24.575c-2.343-2.343-2.343-6.142,0.001-8.485
					c2.343-2.343,6.143-2.342,8.485,0.001l24.574,24.575c2.343,2.343,2.343,6.142-0.001,8.485
					C345.41,290.213,343.874,290.799,342.339,290.799z"/>
			</g>
			<g>
				<path class="st2" d="M270.681,362.457c-1.535,0-3.071-0.586-4.242-1.757l-24.575-24.574c-2.343-2.344-2.343-6.143,0-8.485
					c2.343-2.344,6.142-2.343,8.485-0.001l24.574,24.574c2.344,2.344,2.344,6.143,0.001,8.485
					C273.752,361.871,272.216,362.457,270.681,362.457z"/>
			</g>
		</g>
	</g>
</g>
</svg>
