<?xml version="1.0" encoding="utf-8"?>
<!-- Generator: Adobe Illustrator 22.1.0, SVG Export Plug-In . SVG Version: 6.00 Build 0)  -->
<svg version="1.1" id="Icon_Set" xmlns="http://www.w3.org/2000/svg" xmlns:xlink="http://www.w3.org/1999/xlink" x="0px" y="0px"
	 viewBox="0 0 512 512" style="enable-background:new 0 0 512 512;" xml:space="preserve">
<style type="text/css">
	.st0{fill:#F0C48A;}
	.st1{fill:#D3E6F8;}
	.st2{fill:#4C4372;}
	.st3{fill:#FD919E;}
	.st4{fill:#E8677D;}
	.st5{fill:#FFFFFF;}
	.st6{fill:#A4CFF2;}
	.st7{fill:#7BABF1;}
</style>
<g id="File_Access">
	<g>
		<g>
			<circle class="st0" cx="256" cy="256" r="207"/>
		</g>
	</g>
	<g>
		<g>
			<path class="st5" d="M365.441,159.88v227.098c0,8.775-7.114,15.889-15.889,15.889H162.448c-8.775,0-15.889-7.114-15.889-15.889
				V125.022c0-8.775,7.114-15.889,15.889-15.889h152.246L365.441,159.88z"/>
		</g>
		<g>
			<path class="st1" d="M349.552,402.867h-9.484V159.88h25.373v227.098C365.441,395.753,358.327,402.867,349.552,402.867z"/>
		</g>
		<g>
			<polygon class="st7" points="314.694,109.133 314.694,159.88 365.441,159.88 			"/>
		</g>
		<g>
			<path class="st3" d="M300.874,322.014c-11.639,0-21.654,6.922-26.173,16.871h-80.445c-6.555,0-11.87,5.314-11.87,11.87v0
				c0,6.555,5.314,11.87,11.87,11.87H274.7c4.519,9.949,14.535,16.871,26.173,16.871c15.873,0,28.741-12.868,28.741-28.741
				C329.615,334.882,316.747,322.014,300.874,322.014z"/>
		</g>
		<g>
			<path class="st2" d="M349.552,408.867H162.448c-12.069,0-21.889-9.819-21.889-21.889V125.022c0-12.07,9.819-21.889,21.889-21.889
				h152.246c1.592,0,3.117,0.632,4.242,1.757l50.746,50.747c1.126,1.125,1.758,2.651,1.758,4.243v227.098
				C371.44,399.048,361.621,408.867,349.552,408.867z M162.448,115.133c-5.453,0-9.889,4.436-9.889,9.889v261.956
				c0,5.453,4.436,9.889,9.889,9.889h187.104c5.453,0,9.889-4.436,9.889-9.889V162.365l-47.231-47.232H162.448z"/>
		</g>
		<g>
			<path class="st2" d="M365.44,165.88h-50.746c-3.313,0-6-2.686-6-6v-50.747c0-2.427,1.462-4.615,3.704-5.543
				c2.239-0.928,4.822-0.416,6.538,1.301l50.746,50.747c1.717,1.716,2.229,4.297,1.301,6.539
				C370.055,164.418,367.867,165.88,365.44,165.88z M320.694,153.88h30.261l-30.261-30.261V153.88z"/>
		</g>
		<g>
			<path class="st2" d="M306.188,186.482H205.812c-3.313,0-6-2.686-6-6s2.687-6,6-6h100.377c3.313,0,6,2.686,6,6
				S309.502,186.482,306.188,186.482z"/>
		</g>
		<g>
			<path class="st2" d="M322.086,225.442H189.914c-3.313,0-6-2.686-6-6s2.687-6,6-6h132.172c3.313,0,6,2.686,6,6
				S325.399,225.442,322.086,225.442z"/>
		</g>
		<g>
			<path class="st2" d="M322.086,264.402H189.914c-3.313,0-6-2.686-6-6s2.687-6,6-6h132.172c3.313,0,6,2.686,6,6
				S325.399,264.402,322.086,264.402z"/>
		</g>
		<g>
			<path class="st2" d="M322.086,303.363H189.914c-3.313,0-6-2.686-6-6s2.687-6,6-6h132.172c3.313,0,6,2.686,6,6
				S325.399,303.363,322.086,303.363z"/>
		</g>
		<g>
			<path class="st2" d="M300.874,385.496c-12.257,0-23.56-6.509-29.788-16.871h-76.831c-9.854,0-17.869-8.016-17.869-17.87
				c0-9.853,8.016-17.87,17.869-17.87h76.831c6.229-10.362,17.531-16.871,29.788-16.871c19.156,0,34.74,15.585,34.74,34.741
				S320.03,385.496,300.874,385.496z M194.255,344.885c-3.236,0-5.869,2.633-5.869,5.87s2.633,5.87,5.869,5.87H274.7
				c2.354,0,4.489,1.376,5.463,3.518c3.685,8.111,11.814,13.353,20.711,13.353c12.539,0,22.74-10.201,22.74-22.741
				s-10.201-22.741-22.74-22.741c-8.896,0-17.026,5.241-20.711,13.353c-0.974,2.143-3.109,3.518-5.463,3.518H194.255z"/>
		</g>
		<g>
			<path class="st2" d="M200.094,380.994c-3.313,0-6-2.686-6-6v-12.369c0-3.314,2.687-6,6-6s6,2.686,6,6v12.369
				C206.094,378.308,203.407,380.994,200.094,380.994z"/>
		</g>
		<g>
			<path class="st2" d="M221.584,380.994c-3.313,0-6-2.686-6-6v-12.369c0-3.314,2.687-6,6-6s6,2.686,6,6v12.369
				C227.584,378.308,224.897,380.994,221.584,380.994z"/>
		</g>
		<g>
			<circle class="st2" cx="301.217" cy="350.755" r="9.987"/>
		</g>
	</g>
</g>
</svg>
