<?xml version="1.0" encoding="utf-8"?>
<!-- Generator: Adobe Illustrator 22.1.0, SVG Export Plug-In . SVG Version: 6.00 Build 0)  -->
<svg version="1.1" id="Icon_Set" xmlns="http://www.w3.org/2000/svg" xmlns:xlink="http://www.w3.org/1999/xlink" x="0px" y="0px"
	 viewBox="0 0 512 512" style="enable-background:new 0 0 512 512;" xml:space="preserve">
<style type="text/css">
	.st0{fill:#F0C48A;}
	.st1{fill:#D3E6F8;}
	.st2{fill:#4C4372;}
	.st3{fill:#FD919E;}
	.st4{fill:#E8677D;}
	.st5{fill:#FFFFFF;}
	.st6{fill:#A4CFF2;}
	.st7{fill:#7BABF1;}
</style>
<g id="File_System">
	<g>
		<g>
			<circle class="st0" cx="256" cy="256" r="207"/>
		</g>
	</g>
	<g>
		<g>
			<path class="st7" d="M193.014,145.12l-9.044-22.406h-60.059c-9.989,0-18.086,8.098-18.086,18.086v108.824h230.519v-86.418
				c0-9.989-8.098-18.086-18.086-18.086H193.014z"/>
		</g>
		<g>
			<path class="st2" d="M336.345,255.625h-230.52c-3.313,0-6-2.686-6-6V140.801c0-13.281,10.805-24.086,24.086-24.086h60.059
				c2.447,0,4.648,1.486,5.564,3.754l7.528,18.651h121.196c13.281,0,24.086,10.805,24.086,24.086v86.418
				C342.345,252.939,339.658,255.625,336.345,255.625z M111.825,243.625h218.52v-80.418c0-6.665-5.422-12.086-12.086-12.086H193.014
				c-2.447,0-4.648-1.486-5.564-3.754l-7.528-18.651h-56.011c-6.665,0-12.086,5.422-12.086,12.086V243.625z"/>
		</g>
		<g>
			<path class="st1" d="M318.258,319.455H123.912c-9.989,0-18.086-8.098-18.086-18.086V197.882c0-9.989,8.098-18.086,18.086-18.086
				h194.346c9.989,0,18.086,8.098,18.086,18.086v103.487C336.345,311.358,328.247,319.455,318.258,319.455z"/>
		</g>
		<g>
			<path class="st6" d="M318.258,179.795h-10.973v139.66h10.973c9.989,0,18.086-8.098,18.086-18.087V197.882
				C336.345,187.893,328.247,179.795,318.258,179.795z"/>
		</g>
		<g>
			<path class="st2" d="M318.258,325.455H123.912c-13.281,0-24.086-10.805-24.086-24.087V197.882
				c0-13.281,10.805-24.086,24.086-24.086h194.347c13.281,0,24.086,10.805,24.086,24.086v103.487
				C342.345,314.65,331.54,325.455,318.258,325.455z M123.912,185.795c-6.665,0-12.086,5.422-12.086,12.086v103.487
				c0,6.665,5.422,12.087,12.086,12.087h194.347c6.665,0,12.086-5.422,12.086-12.087V197.882c0-6.665-5.422-12.086-12.086-12.086
				H123.912z"/>
		</g>
		<g>
			<path class="st3" d="M406.175,330.361v-21.812h-21.85c-1.248-5.511-3.417-10.67-6.343-15.307l15.452-15.452l-15.424-15.424
				l-15.452,15.452c-4.638-2.926-9.796-5.095-15.307-6.343v-21.85h-21.812v21.85c-5.511,1.248-10.67,3.417-15.307,6.343
				l-15.452-15.452l-15.424,15.424l15.452,15.452c-2.926,4.638-5.095,9.796-6.343,15.307h-21.85v21.812h21.85
				c1.248,5.511,3.417,10.67,6.343,15.307l-15.452,15.452l15.424,15.424l15.452-15.452c4.638,2.926,9.796,5.095,15.307,6.343v21.85
				h21.812v-21.85c5.511-1.248,10.67-3.417,15.307-6.343l15.452,15.452l15.424-15.424l-15.452-15.452
				c2.926-4.638,5.095-9.796,6.343-15.307H406.175z M336.345,348.515c-16.049,0-29.06-13.01-29.06-29.06
				c0-16.049,13.01-29.06,29.06-29.06c16.049,0,29.059,13.01,29.059,29.06C365.404,335.504,352.394,348.515,336.345,348.515z"/>
		</g>
		<g>
			<path class="st2" d="M347.251,395.285h-21.812c-3.313,0-6-2.686-6-6v-17.274c-2.857-0.917-5.63-2.066-8.3-3.44l-12.216,12.216
				c-2.343,2.343-6.142,2.343-8.485,0l-15.423-15.424c-2.343-2.343-2.343-6.142,0-8.485l12.216-12.216
				c-1.374-2.67-2.522-5.443-3.44-8.301h-17.274c-3.314,0-6-2.686-6-6v-21.812c0-3.314,2.686-6,6-6h17.274
				c0.917-2.858,2.066-5.63,3.44-8.301l-12.216-12.216c-2.343-2.343-2.343-6.142,0-8.485l15.423-15.424
				c1.125-1.125,2.651-1.757,4.243-1.757s3.117,0.632,4.243,1.757l12.216,12.216c2.67-1.373,5.443-2.522,8.3-3.44v-17.274
				c0-3.314,2.687-6,6-6h21.812c3.313,0,6,2.686,6,6V266.9c2.857,0.917,5.63,2.067,8.3,3.44l12.216-12.216
				c1.125-1.125,2.651-1.757,4.243-1.757s3.118,0.632,4.243,1.757l15.423,15.424c2.343,2.343,2.343,6.142,0,8.485l-12.216,12.216
				c1.374,2.67,2.522,5.443,3.44,8.301h17.274c3.314,0,6,2.686,6,6v21.812c0,3.314-2.686,6-6,6H388.9
				c-0.917,2.858-2.066,5.63-3.44,8.301l12.216,12.216c2.343,2.343,2.343,6.142,0,8.485l-15.423,15.424
				c-2.343,2.343-6.142,2.343-8.485,0l-12.216-12.216c-2.67,1.373-5.442,2.522-8.3,3.44v17.274
				C353.251,392.599,350.564,395.285,347.251,395.285z M331.438,383.285h9.812v-15.85c0-2.803,1.941-5.233,4.675-5.852
				c4.771-1.08,9.289-2.953,13.43-5.565c2.372-1.496,5.462-1.15,7.444,0.832l11.209,11.209l6.938-6.938l-11.209-11.209
				c-1.982-1.982-2.328-5.073-0.832-7.444c2.613-4.142,4.486-8.661,5.566-13.431c0.619-2.734,3.049-4.675,5.852-4.675h15.85v-9.812
				h-15.85c-2.803,0-5.233-1.941-5.852-4.675c-1.08-4.77-2.953-9.289-5.566-13.431c-1.496-2.371-1.15-5.462,0.832-7.444
				l11.209-11.209l-6.938-6.938l-11.209,11.209c-1.983,1.982-5.074,2.327-7.444,0.832c-4.142-2.613-8.661-4.486-13.43-5.566
				c-2.734-0.619-4.675-3.049-4.675-5.852v-15.85h-9.812v15.85c0,2.803-1.941,5.233-4.675,5.852c-4.77,1.08-9.288,2.953-13.43,5.566
				c-2.37,1.496-5.461,1.151-7.444-0.832l-11.209-11.209l-6.938,6.938l11.209,11.209c1.982,1.982,2.328,5.073,0.832,7.444
				c-2.613,4.142-4.486,8.661-5.566,13.431c-0.619,2.734-3.049,4.675-5.852,4.675h-15.85v9.812h15.85
				c2.803,0,5.233,1.941,5.852,4.675c1.08,4.77,2.953,9.289,5.566,13.431c1.496,2.371,1.15,5.462-0.832,7.444l-11.209,11.209
				l6.938,6.938l11.209-11.209c1.982-1.982,5.073-2.328,7.444-0.832c4.142,2.613,8.66,4.486,13.43,5.566
				c2.734,0.619,4.675,3.049,4.675,5.852V383.285z M336.345,354.515c-19.332,0-35.06-15.728-35.06-35.059
				c0-19.332,15.728-35.06,35.06-35.06s35.06,15.728,35.06,35.06C371.404,338.787,355.677,354.515,336.345,354.515z
				 M336.345,296.396c-12.715,0-23.06,10.344-23.06,23.06c0,12.715,10.344,23.059,23.06,23.059s23.06-10.344,23.06-23.059
				C359.404,306.74,349.06,296.396,336.345,296.396z"/>
		</g>
	</g>
</g>
</svg>
