<?xml version="1.0" encoding="utf-8"?>
<!-- Generator: Adobe Illustrator 22.1.0, SVG Export Plug-In . SVG Version: 6.00 Build 0)  -->
<svg version="1.1" id="Icon_Set" xmlns="http://www.w3.org/2000/svg" xmlns:xlink="http://www.w3.org/1999/xlink" x="0px" y="0px"
	 viewBox="0 0 512 512" style="enable-background:new 0 0 512 512;" xml:space="preserve">
<style type="text/css">
	.st0{fill:#F0C48A;}
	.st1{fill:#D3E6F8;}
	.st2{fill:#4C4372;}
	.st3{fill:#FD919E;}
	.st4{fill:#E8677D;}
	.st5{fill:#FFFFFF;}
	.st6{fill:#A4CFF2;}
	.st7{fill:#7BABF1;}
</style>
<g id="Firewall">
	<g>
		<g>
			<circle class="st0" cx="256" cy="256" r="207"/>
		</g>
	</g>
	<g>
		<g>
			<rect x="130.409" y="242.672" class="st1" width="251.182" height="157.035"/>
		</g>
		<g>
			<rect x="349.414" y="242.672" class="st6" width="32.177" height="157.035"/>
		</g>
		<g>
			<path class="st2" d="M214.137,405.707h-83.728c-3.313,0-6-2.686-6-6v-51.992c0-3.314,2.687-6,6-6h83.728c3.313,0,6,2.686,6,6
				v51.992C220.137,403.021,217.45,405.707,214.137,405.707z M136.409,393.707h71.728v-39.992h-71.728V393.707z"/>
		</g>
		<g>
			<path class="st2" d="M214.137,300.664h-83.728c-3.313,0-6-2.686-6-6v-51.992c0-3.314,2.687-6,6-6h83.728c3.313,0,6,2.686,6,6
				v51.992C220.137,297.978,217.45,300.664,214.137,300.664z M136.409,288.664h71.728v-39.992h-71.728V288.664z"/>
		</g>
		<g>
			<path class="st2" d="M256,353.185H130.409c-3.313,0-6-2.686-6-6v-51.992c0-3.314,2.687-6,6-6H256c3.313,0,6,2.686,6,6v51.992
				C262,350.499,259.313,353.185,256,353.185z M136.409,341.185H250v-39.992H136.409V341.185z"/>
		</g>
		<g>
			<path class="st2" d="M297.863,405.707h-83.727c-3.313,0-6-2.686-6-6v-51.992c0-3.314,2.687-6,6-6h83.727c3.313,0,6,2.686,6,6
				v51.992C303.863,403.021,301.177,405.707,297.863,405.707z M220.137,393.707h71.727v-39.992h-71.727V393.707z"/>
		</g>
		<g>
			<path class="st2" d="M381.591,353.185H256c-3.313,0-6-2.686-6-6v-51.992c0-3.314,2.687-6,6-6h125.591c3.313,0,6,2.686,6,6v51.992
				C387.591,350.499,384.904,353.185,381.591,353.185z M262,341.185h113.591v-39.992H262V341.185z"/>
		</g>
		<g>
			<path class="st2" d="M297.863,300.664h-83.727c-3.313,0-6-2.686-6-6v-51.992c0-3.314,2.687-6,6-6h83.727c3.313,0,6,2.686,6,6
				v51.992C303.863,297.978,301.177,300.664,297.863,300.664z M220.137,288.664h71.727v-39.992h-71.727V288.664z"/>
		</g>
		<g>
			<path class="st2" d="M381.591,405.707h-83.728c-3.313,0-6-2.686-6-6v-51.992c0-3.314,2.687-6,6-6h83.728c3.313,0,6,2.686,6,6
				v51.992C387.591,403.021,384.904,405.707,381.591,405.707z M303.863,393.707h71.728v-39.992h-71.728V393.707z"/>
		</g>
		<g>
			<path class="st2" d="M381.591,300.664h-83.728c-3.313,0-6-2.686-6-6v-51.992c0-3.314,2.687-6,6-6h83.728c3.313,0,6,2.686,6,6
				v51.992C387.591,297.978,384.904,300.664,381.591,300.664z M303.863,288.664h71.728v-39.992h-71.728V288.664z"/>
		</g>
		<g>
			<g>
				<path class="st3" d="M293.656,177.515L293.656,177.515L256,112.293v65.221l-23.873-23.873l-13.783,23.873l0,0
					c-16.736,28.987,4.184,65.221,37.656,65.221l0,0l0,0C289.472,242.736,310.391,206.502,293.656,177.515z"/>
			</g>
			<g>
				<path class="st4" d="M243.097,217.443L256,197.905l13.852,18.877c7.903,10.771,0.212,25.954-13.147,25.954h0
					C243.712,242.736,235.937,228.284,243.097,217.443z"/>
			</g>
			<g>
				<path class="st2" d="M256,248.736c-17.889,0-33.908-9.249-42.852-24.741c-8.944-15.491-8.944-33.989,0-49.48l13.782-23.873
					c0.933-1.615,2.563-2.705,4.413-2.949c1.853-0.244,3.707,0.387,5.025,1.706L250,163.03v-50.736c0-2.716,1.824-5.093,4.447-5.796
					c2.625-0.704,5.392,0.445,6.749,2.796l37.655,65.221c8.944,15.491,8.944,33.989,0,49.48
					C289.908,239.487,273.889,248.736,256,248.736z M233.413,163.414l-9.872,17.101c-6.775,11.735-6.775,25.746-0.001,37.481
					c6.775,11.735,18.91,18.74,32.46,18.74s25.685-7.006,32.46-18.74c6.774-11.735,6.774-25.746-0.001-37.481l0,0L262,134.686
					v42.829c0,2.427-1.462,4.615-3.704,5.543c-2.241,0.928-4.822,0.416-6.538-1.301L233.413,163.414z"/>
			</g>
			<g>
				<path class="st2" d="M256.704,248.736c-8.347,0-15.689-4.388-19.645-11.738c-3.954-7.35-3.569-15.896,1.03-22.861c0,0,0,0,0,0
					l12.903-19.538c1.082-1.638,2.896-2.643,4.858-2.692c1.981-0.053,3.824,0.866,4.986,2.449l13.852,18.877
					c5.001,6.816,5.734,15.735,1.914,23.277C272.783,244.051,265.158,248.736,256.704,248.736z M248.104,220.749
					c-2.125,3.218-2.303,7.167-0.476,10.563s5.22,5.424,9.076,5.424c3.966,0,7.403-2.112,9.195-5.649
					c1.791-3.537,1.461-7.558-0.885-10.755l-8.756-11.932L248.104,220.749L248.104,220.749z"/>
			</g>
		</g>
	</g>
</g>
</svg>
