<?xml version="1.0" encoding="utf-8"?>
<!-- Generator: Adobe Illustrator 22.1.0, SVG Export Plug-In . SVG Version: 6.00 Build 0)  -->
<svg version="1.1" id="Icon_Set" xmlns="http://www.w3.org/2000/svg" xmlns:xlink="http://www.w3.org/1999/xlink" x="0px" y="0px"
	 viewBox="0 0 512 512" style="enable-background:new 0 0 512 512;" xml:space="preserve">
<style type="text/css">
	.st0{fill:#F0C48A;}
	.st1{fill:#D3E6F8;}
	.st2{fill:#4C4372;}
	.st3{fill:#FD919E;}
	.st4{fill:#E8677D;}
	.st5{fill:#FFFFFF;}
	.st6{fill:#A4CFF2;}
	.st7{fill:#7BABF1;}
</style>
<g id="Folders_Network_Structure">
	<g>
		<g>
			<circle class="st0" cx="256" cy="256" r="207"/>
		</g>
	</g>
	<g>
		<g>
			<path class="st2" d="M361.961,375.154c-3.313,0-6-2.687-6-6v-89.086c0-2.796-2.274-5.07-5.07-5.07H161.109
				c-2.796,0-5.07,2.274-5.07,5.07v89.086c0,3.313-2.687,6-6,6s-6-2.687-6-6v-89.086c0-9.413,7.658-17.07,17.07-17.07h189.781
				c9.412,0,17.07,7.657,17.07,17.07v89.086C367.961,372.468,365.274,375.154,361.961,375.154z"/>
		</g>
		<g>
			<g>
				<path class="st7" d="M238.731,120.303l-5.563-13.783h-36.947c-6.145,0-11.126,4.981-11.126,11.126v66.946h141.81V131.43
					c0-6.145-4.981-11.126-11.126-11.126H238.731z"/>
			</g>
			<g>
				<path class="st2" d="M326.905,190.593H185.095c-3.313,0-6-2.687-6-6v-66.946c0-9.443,7.683-17.127,17.126-17.127h36.947
					c2.446,0,4.648,1.485,5.563,3.754l4.049,10.03h72.999c9.443,0,17.126,7.683,17.126,17.126v53.163
					C332.905,187.906,330.219,190.593,326.905,190.593z M191.095,178.593h129.811V131.43c0-2.826-2.3-5.126-5.126-5.126h-77.048
					c-2.446,0-4.648-1.485-5.563-3.754l-4.049-10.03h-32.898c-2.826,0-5.126,2.3-5.126,5.127V178.593z"/>
			</g>
			<g>
				<path class="st1" d="M315.779,227.55H196.221c-6.145,0-11.126-4.981-11.126-11.126v-63.663c0-6.145,4.981-11.126,11.126-11.126
					h119.558c6.145,0,11.126,4.981,11.126,11.126v63.663C326.905,222.569,321.924,227.55,315.779,227.55z"/>
			</g>
			<g>
				<path class="st2" d="M315.779,233.55H196.221c-9.443,0-17.126-7.683-17.126-17.126v-63.663c0-9.443,7.683-17.126,17.126-17.126
					h119.559c9.443,0,17.126,7.683,17.126,17.126v63.663C332.905,225.867,325.223,233.55,315.779,233.55z M196.221,147.635
					c-2.826,0-5.126,2.3-5.126,5.126v63.663c0,2.826,2.3,5.126,5.126,5.126h119.559c2.826,0,5.126-2.3,5.126-5.126v-63.663
					c0-2.826-2.3-5.126-5.126-5.126H196.221z"/>
			</g>
		</g>
		<g>
			<g>
				<g>
					<path class="st4" d="M135.436,314.791l-4.704-11.655H99.489c-5.196,0-9.409,4.212-9.409,9.409v56.61h119.916V324.2
						c0-5.196-4.212-9.409-9.409-9.409H135.436z"/>
				</g>
				<g>
					<path class="st2" d="M209.997,375.154H90.08c-3.313,0-6-2.687-6-6v-56.61c0-8.496,6.912-15.408,15.409-15.408h31.242
						c2.446,0,4.647,1.485,5.563,3.754l3.189,7.901h61.104c8.497,0,15.409,6.912,15.409,15.408v44.955
						C215.997,372.468,213.311,375.154,209.997,375.154z M96.08,363.154h107.917v-38.955c0-1.879-1.529-3.408-3.409-3.408h-65.151
						c-2.446,0-4.648-1.485-5.563-3.754l-3.189-7.901H99.489c-1.88,0-3.409,1.529-3.409,3.408V363.154z"/>
				</g>
				<g>
					<path class="st3" d="M200.588,405.48H99.489c-5.196,0-9.409-4.212-9.409-9.409v-53.834c0-5.196,4.212-9.409,9.409-9.409
						h101.099c5.196,0,9.409,4.212,9.409,9.409v53.834C209.997,401.268,205.785,405.48,200.588,405.48z"/>
				</g>
				<g>
					<path class="st2" d="M200.588,411.48H99.489c-8.497,0-15.409-6.912-15.409-15.409v-53.834c0-8.496,6.912-15.408,15.409-15.408
						h101.099c8.497,0,15.409,6.912,15.409,15.408v53.834C215.997,404.568,209.085,411.48,200.588,411.48z M99.489,338.829
						c-1.88,0-3.409,1.529-3.409,3.408v53.834c0,1.88,1.529,3.409,3.409,3.409h101.099c1.88,0,3.409-1.529,3.409-3.409v-53.834
						c0-1.879-1.529-3.408-3.409-3.408H99.489z"/>
				</g>
			</g>
			<g>
				<g>
					<path class="st4" d="M347.359,314.791l-4.704-11.655h-31.243c-5.196,0-9.409,4.212-9.409,9.409v56.61H421.92V324.2
						c0-5.196-4.212-9.409-9.409-9.409H347.359z"/>
				</g>
				<g>
					<path class="st2" d="M421.92,375.154H302.003c-3.313,0-6-2.687-6-6v-56.61c0-8.496,6.912-15.408,15.409-15.408h31.242
						c2.446,0,4.648,1.485,5.563,3.754l3.189,7.901h61.104c8.497,0,15.409,6.912,15.409,15.408v44.955
						C427.92,372.468,425.233,375.154,421.92,375.154z M308.003,363.154H415.92v-38.955c0-1.879-1.529-3.408-3.409-3.408h-65.152
						c-2.446,0-4.648-1.485-5.563-3.755l-3.189-7.9h-27.193c-1.88,0-3.409,1.529-3.409,3.408V363.154z"/>
				</g>
				<g>
					<path class="st3" d="M412.511,405.48H311.412c-5.196,0-9.409-4.212-9.409-9.409v-53.834c0-5.196,4.212-9.409,9.409-9.409
						h101.099c5.196,0,9.409,4.212,9.409,9.409v53.834C421.92,401.268,417.707,405.48,412.511,405.48z"/>
				</g>
				<g>
					<path class="st2" d="M412.511,411.48H311.412c-8.497,0-15.409-6.912-15.409-15.409v-53.834c0-8.496,6.912-15.408,15.409-15.408
						h101.099c8.497,0,15.409,6.912,15.409,15.408v53.834C427.92,404.568,421.008,411.48,412.511,411.48z M311.412,338.829
						c-1.88,0-3.409,1.529-3.409,3.408v53.834c0,1.88,1.529,3.409,3.409,3.409h101.099c1.88,0,3.409-1.529,3.409-3.409v-53.834
						c0-1.879-1.529-3.408-3.409-3.408H311.412z"/>
				</g>
			</g>
		</g>
		<g>
			<path class="st2" d="M256,274.998c-3.313,0-6-2.687-6-6V227.55c0-3.313,2.687-6,6-6s6,2.687,6,6v41.448
				C262,272.312,259.313,274.998,256,274.998z"/>
		</g>
	</g>
</g>
</svg>
