<?xml version="1.0" encoding="utf-8"?>
<!-- Generator: Adobe Illustrator 22.1.0, SVG Export Plug-In . SVG Version: 6.00 Build 0)  -->
<svg version="1.1" id="Icon_Set" xmlns="http://www.w3.org/2000/svg" xmlns:xlink="http://www.w3.org/1999/xlink" x="0px" y="0px"
	 viewBox="0 0 512 512" style="enable-background:new 0 0 512 512;" xml:space="preserve">
<style type="text/css">
	.st0{fill:#F0C48A;}
	.st1{fill:#D3E6F8;}
	.st2{fill:#4C4372;}
	.st3{fill:#FD919E;}
	.st4{fill:#E8677D;}
	.st5{fill:#FFFFFF;}
	.st6{fill:#A4CFF2;}
	.st7{fill:#7BABF1;}
</style>
<g id="Global_Network">
	<g>
		<g>
			<circle class="st0" cx="256" cy="256" r="207"/>
		</g>
	</g>
	<g>
		<g>
			<g>
				<circle class="st3" cx="373.51" cy="138.49" r="16.309"/>
			</g>
			<g>
				<circle class="st3" cx="138.49" cy="373.51" r="16.309"/>
			</g>
			<g>
				<circle class="st3" cx="373.51" cy="373.51" r="16.309"/>
			</g>
			<g>
				<circle class="st3" cx="138.49" cy="138.49" r="16.309"/>
			</g>
			<g>
				<g>
					<path class="st2" d="M150.212,367.788c-1.536,0-3.071-0.586-4.243-1.757c-2.343-2.343-2.343-6.142,0-8.485l211.576-211.576
						c2.343-2.343,6.143-2.343,8.485,0c2.343,2.343,2.343,6.142,0,8.485L154.455,366.031
						C153.283,367.203,151.748,367.788,150.212,367.788z"/>
				</g>
				<g>
					<path class="st2" d="M361.788,367.788c-1.536,0-3.071-0.586-4.243-1.757L145.969,154.455c-2.343-2.343-2.343-6.142,0-8.485
						c2.343-2.343,6.143-2.343,8.485,0l211.576,211.576c2.343,2.343,2.343,6.142,0,8.485
						C364.859,367.203,363.324,367.788,361.788,367.788z"/>
				</g>
			</g>
			<g>
				<path class="st2" d="M373.51,160.799c-5.959,0-11.561-2.321-15.774-6.534c-4.213-4.214-6.534-9.816-6.534-15.775
					c0-5.959,2.321-11.561,6.534-15.775s9.815-6.534,15.774-6.534s11.561,2.32,15.775,6.534c4.213,4.214,6.534,9.816,6.534,15.775
					c0,5.959-2.321,11.561-6.534,15.775l0,0C385.071,158.478,379.469,160.799,373.51,160.799z M385.042,150.022h0.01H385.042z
					 M373.51,128.181c-2.753,0-5.342,1.072-7.289,3.019c-1.947,1.947-3.02,4.536-3.02,7.289s1.072,5.342,3.02,7.289
					c1.947,1.947,4.536,3.019,7.289,3.019c2.754,0,5.342-1.072,7.29-3.019c1.947-1.947,3.02-4.536,3.02-7.289
					s-1.072-5.342-3.02-7.289C378.852,129.254,376.263,128.181,373.51,128.181z"/>
			</g>
			<g>
				<path class="st2" d="M138.49,395.819c-5.959,0-11.561-2.32-15.775-6.534c-4.213-4.214-6.534-9.816-6.534-15.775
					c0-5.959,2.321-11.561,6.534-15.775c4.214-4.214,9.816-6.534,15.775-6.534s11.561,2.321,15.774,6.534
					c4.213,4.214,6.534,9.816,6.534,15.775c0,5.959-2.321,11.561-6.534,15.775v0c0,0,0,0,0,0
					C150.051,393.498,144.449,395.819,138.49,395.819z M138.49,363.201c-2.754,0-5.342,1.072-7.29,3.019
					c-1.947,1.947-3.02,4.536-3.02,7.289s1.072,5.342,3.02,7.289c1.947,1.947,4.536,3.019,7.29,3.019s5.342-1.072,7.289-3.019v0
					c1.947-1.947,3.02-4.536,3.02-7.289s-1.072-5.342-3.02-7.289C143.833,364.273,141.244,363.201,138.49,363.201z"/>
			</g>
			<g>
				<path class="st2" d="M373.51,395.819c-5.959,0-11.561-2.321-15.774-6.534v0c0,0,0,0,0,0c-4.213-4.213-6.534-9.816-6.534-15.775
					c0-5.959,2.321-11.561,6.534-15.775c4.213-4.214,9.815-6.534,15.774-6.534s11.561,2.321,15.775,6.534
					c4.213,4.214,6.534,9.816,6.534,15.775c0,5.959-2.321,11.561-6.534,15.775C385.071,393.498,379.469,395.819,373.51,395.819z
					 M373.51,363.201c-2.753,0-5.342,1.072-7.289,3.019c-1.947,1.947-3.02,4.536-3.02,7.29s1.072,5.342,3.02,7.289v0
					c1.947,1.947,4.536,3.019,7.289,3.019s5.342-1.072,7.29-3.019c1.947-1.947,3.02-4.536,3.02-7.289s-1.072-5.342-3.02-7.289
					C378.852,364.274,376.264,363.201,373.51,363.201z"/>
			</g>
			<g>
				<path class="st2" d="M138.49,160.799c-5.959,0-11.561-2.321-15.775-6.534l0,0c-4.213-4.214-6.534-9.816-6.534-15.775
					c0-5.959,2.321-11.561,6.534-15.775c4.214-4.214,9.816-6.534,15.775-6.534s11.561,2.321,15.774,6.534
					c4.213,4.213,6.534,9.816,6.534,15.775c0,5.959-2.321,11.561-6.534,15.775C150.051,158.478,144.449,160.799,138.49,160.799z
					 M131.201,145.779c1.947,1.947,4.536,3.019,7.29,3.019c2.753,0,5.342-1.072,7.289-3.019c1.947-1.947,3.02-4.536,3.02-7.29
					s-1.072-5.342-3.02-7.289c-1.947-1.947-4.536-3.019-7.289-3.019s-5.342,1.072-7.29,3.019c-1.947,1.947-3.02,4.536-3.02,7.289
					S129.253,143.832,131.201,145.779L131.201,145.779z"/>
			</g>
		</g>
		<g>
			<g>
				<circle class="st1" cx="256" cy="256" r="115.247"/>
			</g>
			<g>
				<path class="st6" d="M256,140.753c-4.061,0-8.072,0.213-12.024,0.623c57.998,6.013,103.223,55.036,103.223,114.624
					c0,59.588-45.225,108.611-103.223,114.624c3.952,0.41,7.963,0.623,12.024,0.623c63.649,0,115.247-51.598,115.247-115.247
					C371.247,192.351,319.649,140.753,256,140.753z"/>
			</g>
			<g>
				<path class="st2" d="M256,377.246c-35.677,0-63.624-53.258-63.624-121.246c0-67.989,27.947-121.247,63.624-121.247
					c35.676,0,63.623,53.258,63.623,121.247C319.624,323.989,291.677,377.246,256,377.246z M256,146.753
					c-27.983,0-51.624,50.029-51.624,109.247S228.018,365.246,256,365.246c27.982,0,51.623-50.029,51.623-109.246
					S283.983,146.753,256,146.753z"/>
			</g>
			<g>
				<path class="st2" d="M256,377.246c-3.314,0-6-2.686-6-6V140.753c0-3.314,2.686-6,6-6s6,2.686,6,6v230.493
					C262,374.56,259.314,377.246,256,377.246z"/>
			</g>
			<g>
				<path class="st2" d="M371.247,262H140.754c-3.314,0-6-2.686-6-6s2.686-6,6-6h230.493c3.313,0,6,2.686,6,6
					S374.56,262,371.247,262z"/>
			</g>
			<g>
				<path class="st2" d="M256,210.927c-34.401,0-67.266-9.491-90.166-26.038c-1.37-0.99-2.258-2.511-2.448-4.19
					c-0.19-1.679,0.337-3.36,1.452-4.63c23.04-26.256,56.266-41.314,91.161-41.314c34.895,0,68.121,15.058,91.161,41.314
					c1.115,1.27,1.642,2.951,1.452,4.63c-0.189,1.679-1.078,3.201-2.448,4.19C323.266,201.436,290.402,210.927,256,210.927z
					 M178.545,178.968c20.52,12.743,48.308,19.959,77.455,19.959s56.935-7.216,77.455-19.959
					c-20.45-20.552-48.307-32.214-77.455-32.214S198.996,158.415,178.545,178.968z"/>
			</g>
			<g>
				<path class="st2" d="M256,377.246c-34.895,0-68.122-15.058-91.161-41.314c-1.115-1.27-1.642-2.951-1.452-4.63
					c0.189-1.679,1.078-3.201,2.448-4.19c22.9-16.548,55.764-26.038,90.166-26.038s67.265,9.491,90.165,26.038
					c1.37,0.99,2.258,2.511,2.448,4.19c0.19,1.679-0.337,3.36-1.452,4.63C324.122,362.188,290.895,377.246,256,377.246z
					 M178.545,333.032c20.451,20.552,48.308,32.214,77.455,32.214s57.004-11.662,77.455-32.214
					c-20.52-12.743-48.308-19.959-77.455-19.959S199.065,320.289,178.545,333.032z"/>
			</g>
			<g>
				<path class="st2" d="M256,377.246c-66.855,0-121.247-54.391-121.247-121.246S189.145,134.753,256,134.753
					S377.247,189.144,377.247,256S322.856,377.246,256,377.246z M256,146.753c-60.239,0-109.247,49.008-109.247,109.247
					c0,60.239,49.008,109.246,109.247,109.246c60.238,0,109.246-49.008,109.246-109.246
					C365.247,195.761,316.239,146.753,256,146.753z"/>
			</g>
		</g>
	</g>
</g>
</svg>
