<?xml version="1.0" encoding="utf-8"?>
<!-- Generator: Adobe Illustrator 22.1.0, SVG Export Plug-In . SVG Version: 6.00 Build 0)  -->
<svg version="1.1" id="Icon_Set" xmlns="http://www.w3.org/2000/svg" xmlns:xlink="http://www.w3.org/1999/xlink" x="0px" y="0px"
	 viewBox="0 0 512 512" style="enable-background:new 0 0 512 512;" xml:space="preserve">
<style type="text/css">
	.st0{fill:#F0C48A;}
	.st1{fill:#D3E6F8;}
	.st2{fill:#4C4372;}
	.st3{fill:#FD919E;}
	.st4{fill:#E8677D;}
	.st5{fill:#FFFFFF;}
	.st6{fill:#A4CFF2;}
	.st7{fill:#7BABF1;}
</style>
<g id="Growing_Data">
	<g>
		<g>
			<circle class="st0" cx="256" cy="256" r="207"/>
		</g>
	</g>
	<g>
		<g>
			<rect x="138.258" y="318.955" class="st3" width="78.494" height="81.025"/>
		</g>
		<g>
			<rect x="216.753" y="255.767" class="st1" width="78.494" height="144.213"/>
		</g>
		<g>
			<rect x="295.247" y="192.579" class="st6" width="78.494" height="207.4"/>
		</g>
		<g>
			<path class="st2" d="M138.262,293.258c-1.752,0-3.489-0.764-4.674-2.233c-2.08-2.58-1.675-6.357,0.904-8.438l196.237-158.244
				c2.58-2.08,6.357-1.674,8.437,0.904c2.08,2.58,1.675,6.357-0.904,8.438L142.024,291.929
				C140.916,292.823,139.584,293.258,138.262,293.258z"/>
		</g>
		<g>
			<polygon class="st7" points="354.684,112.021 296.982,116.801 340.691,168.204 			"/>
		</g>
		<g>
			<path class="st2" d="M216.753,405.979h-78.495c-3.313,0-6-2.687-6-6v-81.024c0-3.313,2.687-6,6-6h78.495c3.313,0,6,2.687,6,6
				v81.024C222.753,403.293,220.066,405.979,216.753,405.979z M144.258,393.979h66.495v-69.024h-66.495V393.979z"/>
		</g>
		<g>
			<path class="st2" d="M295.247,405.979h-78.494c-3.313,0-6-2.687-6-6V255.767c0-3.313,2.687-6,6-6h78.494c3.313,0,6,2.687,6,6
				v144.213C301.247,403.293,298.561,405.979,295.247,405.979z M222.753,393.979h66.494V261.767h-66.494V393.979z"/>
		</g>
		<g>
			<path class="st2" d="M373.742,405.979h-78.495c-3.314,0-6-2.687-6-6v-207.4c0-3.313,2.686-6,6-6h78.495c3.313,0,6,2.687,6,6
				v207.4C379.742,403.293,377.055,405.979,373.742,405.979z M301.247,393.979h66.495v-195.4h-66.495V393.979z"/>
		</g>
		<g>
			<path class="st2" d="M340.691,174.204c-1.737,0-3.417-0.756-4.571-2.113l-43.71-51.403c-1.457-1.714-1.833-4.099-0.975-6.178
				s2.808-3.503,5.05-3.688l57.703-4.78c1.926-0.161,3.813,0.62,5.066,2.093c1.253,1.474,1.719,3.46,1.251,5.337l-13.993,56.184
				c-0.544,2.183-2.263,3.878-4.453,4.392C341.606,174.152,341.147,174.204,340.691,174.204z M309.122,121.815l28.571,33.601
				l9.146-36.725L309.122,121.815z"/>
		</g>
	</g>
</g>
</svg>
