<?xml version="1.0" encoding="utf-8"?>
<!-- Generator: Adobe Illustrator 22.1.0, SVG Export Plug-In . SVG Version: 6.00 Build 0)  -->
<svg version="1.1" id="Icon_Set" xmlns="http://www.w3.org/2000/svg" xmlns:xlink="http://www.w3.org/1999/xlink" x="0px" y="0px"
	 viewBox="0 0 512 512" style="enable-background:new 0 0 512 512;" xml:space="preserve">
<style type="text/css">
	.st0{fill:#F0C48A;}
	.st1{fill:#D3E6F8;}
	.st2{fill:#4C4372;}
	.st3{fill:#FD919E;}
	.st4{fill:#E8677D;}
	.st5{fill:#FFFFFF;}
	.st6{fill:#A4CFF2;}
	.st7{fill:#7BABF1;}
</style>
<g id="High_Speed_Communication">
	<g>
		<g>
			<circle class="st0" cx="256" cy="256" r="207"/>
		</g>
	</g>
	<g>
		<g>
			<path class="st1" d="M336.206,414.394H175.794c-12.41,0-22.471-10.06-22.471-22.471V120.077c0-12.41,10.06-22.471,22.471-22.471
				h160.412c12.41,0,22.471,10.06,22.471,22.471v271.846C358.677,404.333,348.616,414.394,336.206,414.394z"/>
		</g>
		<g>
			<path class="st6" d="M336.206,97.606h-7.357v316.787h7.357c12.41,0,22.471-10.06,22.471-22.471V120.077
				C358.677,107.667,348.616,97.606,336.206,97.606z"/>
		</g>
		<g>
			<circle class="st7" cx="256" cy="386.251" r="13.24"/>
		</g>
		<g>
			<rect x="153.323" y="139.883" class="st5" width="205.353" height="218.255"/>
		</g>
		<g>
			<rect x="328.849" y="139.883" class="st1" width="29.828" height="218.255"/>
		</g>
		<g>
			<path class="st2" d="M336.206,420.394H175.794c-15.699,0-28.471-12.772-28.471-28.471V120.077
				c0-15.699,12.772-28.471,28.471-28.471h160.412c15.699,0,28.471,12.772,28.471,28.471v271.846
				C364.677,407.622,351.905,420.394,336.206,420.394z M175.794,103.606c-9.082,0-16.471,7.389-16.471,16.471v271.846
				c0,9.082,7.389,16.471,16.471,16.471h160.412c9.082,0,16.471-7.389,16.471-16.471V120.077c0-9.082-7.389-16.471-16.471-16.471
				H175.794z"/>
		</g>
		<g>
			<path class="st2" d="M358.677,364.138H153.323c-3.313,0-6-2.686-6-6V139.884c0-3.314,2.687-6,6-6h205.354c3.313,0,6,2.686,6,6
				v218.255C364.677,361.452,361.99,364.138,358.677,364.138z M159.323,352.138h193.354V145.884H159.323V352.138z"/>
		</g>
		<g>
			<path class="st2" d="M256,405.49c-10.609,0-19.24-8.631-19.24-19.24s8.631-19.24,19.24-19.24s19.24,8.631,19.24,19.24
				S266.609,405.49,256,405.49z M256,379.011c-3.992,0-7.24,3.248-7.24,7.24s3.248,7.24,7.24,7.24s7.24-3.248,7.24-7.24
				S259.992,379.011,256,379.011z"/>
		</g>
		<g>
			<g>
				<path class="st2" d="M284.594,125.495h-41.621c-3.313,0-6-2.686-6-6s2.687-6,6-6h41.621c3.313,0,6,2.686,6,6
					S287.908,125.495,284.594,125.495z"/>
			</g>
			<g>
				<path class="st2" d="M227.448,125.495h-0.042c-3.313,0-6-2.686-6-6s2.687-6,6-6s6.021,2.686,6.021,6
					S230.761,125.495,227.448,125.495z"/>
			</g>
		</g>
		<g>
			<circle class="st3" cx="256" cy="249.099" r="72.986"/>
		</g>
		<g>
			<g>
				<path class="st2" d="M239.111,242.771c4.19,4.105,6.243,9.577,6.243,15.05c0,5.388-2.138,10.861-6.243,14.965
					c-4.105,4.19-9.578,6.243-14.965,6.243c-0.171,0-0.171,0-0.171,0c-5.302,0-10.861-2.052-14.88-6.243
					c-1.967-1.796-1.967-4.874,0-6.841c1.796-1.881,4.96-1.881,6.841,0c2.223,2.309,5.131,3.421,8.209,3.421
					c2.907,0,5.901-1.112,8.124-3.421c2.224-2.223,3.421-5.216,3.421-8.124c0-3.078-1.112-5.986-3.421-8.209
					c-2.223-2.309-5.131-3.335-8.124-3.335c-2.908,0-5.986,1.026-8.209,3.335c-1.881,1.881-4.96,1.881-6.841,0
					c-0.342-0.342-0.598-0.769-0.94-1.112c0-0.171,0-0.256-0.085-0.256c0-0.171-0.086-0.342-0.171-0.428
					c0-0.256-0.085-0.428-0.085-0.599c0-0.085-0.085-0.085-0.085-0.171c-0.086-0.513-0.086-1.026,0-1.454l2.565-22.148
					c0.257-1.454,1.026-2.651,2.138-3.421c0.171-0.085,0.256-0.085,0.342-0.171c0.085-0.085,0.171-0.085,0.256-0.171
					c0.684-0.342,1.368-0.513,2.224-0.513h25.227c2.736,0,4.875,2.138,4.875,4.874c0,2.565-2.138,4.789-4.875,4.789h-21.036
					l-1.026,8.466c1.881-0.513,3.848-0.77,5.73-0.77C229.533,236.528,235.006,238.581,239.111,242.771z"/>
			</g>
			<g>
				<path class="st2" d="M251.36,248.329c0-17.189,14.195-30.871,31.555-30.871c7.269,0,14.195,2.48,19.498,6.67
					c2.223,1.625,2.565,4.789,0.94,6.927c-1.625,2.052-4.789,2.48-6.927,0.77c-3.677-2.822-8.38-4.618-13.511-4.618
					c-6.157,0-11.545,2.309-15.393,6.243c-4.019,3.848-6.413,9.065-6.413,14.88c0,5.644,2.394,10.861,6.413,14.709
					c3.848,3.934,9.236,6.243,15.393,6.243c4.276,0,8.295-1.283,11.716-3.25v-11.715h-12.229c-2.651,0-4.874-2.224-4.874-4.874
					c0-2.736,2.224-4.789,4.874-4.789h16.846c0.086,0,0.086,0,0.086,0c0.085,0,0.085,0,0.085,0c2.736,0,4.96,2.052,4.96,4.789
					v18.899c0,0.599-0.171,0.941-0.257,1.454c-0.085,0.171-0.085,0.256-0.171,0.428v0.085c-0.256,0.77-0.769,1.454-1.625,2.052
					c-5.387,4.19-12.143,6.67-19.412,6.67C265.555,279.029,251.36,265.432,251.36,248.329z"/>
			</g>
		</g>
		<g>
			<path class="st2" d="M256,328.085c-43.553,0-78.986-35.433-78.986-78.986s35.433-78.986,78.986-78.986
				s78.986,35.433,78.986,78.986S299.553,328.085,256,328.085z M256,182.113c-36.937,0-66.986,30.05-66.986,66.986
				s30.05,66.986,66.986,66.986s66.986-30.05,66.986-66.986S292.937,182.113,256,182.113z"/>
		</g>
	</g>
</g>
</svg>
