<?xml version="1.0" encoding="utf-8"?>
<!-- Generator: Adobe Illustrator 22.1.0, SVG Export Plug-In . SVG Version: 6.00 Build 0)  -->
<svg version="1.1" id="Icon_Set" xmlns="http://www.w3.org/2000/svg" xmlns:xlink="http://www.w3.org/1999/xlink" x="0px" y="0px"
	 viewBox="0 0 512 512" style="enable-background:new 0 0 512 512;" xml:space="preserve">
<style type="text/css">
	.st0{fill:#F0C48A;}
	.st1{fill:#D3E6F8;}
	.st2{fill:#4C4372;}
	.st3{fill:#FD919E;}
	.st4{fill:#E8677D;}
	.st5{fill:#FFFFFF;}
	.st6{fill:#A4CFF2;}
	.st7{fill:#7BABF1;}
</style>
<g id="Hosting_Services">
	<g>
		<g>
			<circle class="st0" cx="256" cy="256" r="207"/>
		</g>
	</g>
	<g>
		<g>
			<g>
				<rect x="135.725" y="184.745" class="st7" width="169.296" height="115.806"/>
			</g>
			<g>
				<rect x="135.725" y="367.292" class="st7" width="36.746" height="26.704"/>
			</g>
			<g>
				<rect x="268.274" y="367.292" class="st7" width="36.746" height="26.704"/>
			</g>
			<g>
				<path class="st2" d="M305.021,306.551H135.725c-3.313,0-6-2.687-6-6V184.745c0-3.313,2.687-6,6-6h169.296c3.313,0,6,2.687,6,6
					v115.806C311.021,303.864,308.334,306.551,305.021,306.551z M141.725,294.551h157.296V190.745H141.725V294.551z"/>
			</g>
			<g>
				<path class="st2" d="M172.471,399.995h-36.747c-3.313,0-6-2.687-6-6v-26.704c0-3.313,2.687-6,6-6h36.747c3.313,0,6,2.687,6,6
					v26.704C178.471,397.309,175.785,399.995,172.471,399.995z M141.725,387.995h24.747v-14.704h-24.747V387.995z"/>
			</g>
			<g>
				<path class="st2" d="M305.021,399.995h-36.746c-3.313,0-6-2.687-6-6v-26.704c0-3.313,2.687-6,6-6h36.746c3.313,0,6,2.687,6,6
					v26.704C311.021,397.309,308.334,399.995,305.021,399.995z M274.274,387.995h24.746v-14.704h-24.746V387.995z"/>
			</g>
			<g>
				<g>
					<path class="st1" d="M316.103,276.018h-191.46c-6.367,0-11.528-5.161-11.528-11.528v-43.685
						c0-6.367,5.161-11.528,11.528-11.528h191.46c6.367,0,11.528,5.161,11.528,11.528v43.685
						C327.631,270.857,322.47,276.018,316.103,276.018z"/>
				</g>
				<g>
					<path class="st6" d="M316.103,209.278h-19.506v66.741h19.506c6.367,0,11.528-5.161,11.528-11.528v-43.685
						C327.631,214.439,322.47,209.278,316.103,209.278z"/>
				</g>
				<g>
					<path class="st2" d="M316.103,282.019h-191.46c-9.665,0-17.528-7.863-17.528-17.528v-43.685
						c0-9.665,7.863-17.528,17.528-17.528h191.46c9.665,0,17.528,7.863,17.528,17.528v43.685
						C333.631,274.155,325.768,282.019,316.103,282.019z M124.643,215.277c-3.048,0-5.528,2.48-5.528,5.528v43.685
						c0,3.048,2.48,5.528,5.528,5.528h191.46c3.048,0,5.528-2.48,5.528-5.528v-43.685c0-3.048-2.48-5.528-5.528-5.528H124.643z"/>
				</g>
				<g>
					<circle class="st3" cx="149.656" cy="242.648" r="13.931"/>
				</g>
				<g>
					<path class="st5" d="M291.089,228.717h-91.725c-7.694,0-13.931,6.237-13.931,13.931v0c0,7.694,6.237,13.931,13.931,13.931
						h91.725c7.694,0,13.931-6.237,13.931-13.931v0C305.021,234.954,298.783,228.717,291.089,228.717z"/>
				</g>
				<g>
					<path class="st2" d="M291.089,262.579h-91.725c-10.99,0-19.931-8.94-19.931-19.931s8.941-19.932,19.931-19.932h91.725
						c10.99,0,19.932,8.941,19.932,19.932S302.079,262.579,291.089,262.579z M199.364,234.717c-4.373,0-7.931,3.559-7.931,7.932
						s3.558,7.931,7.931,7.931h91.725c4.373,0,7.932-3.558,7.932-7.931s-3.559-7.932-7.932-7.932H199.364z"/>
				</g>
				<g>
					<path class="st2" d="M149.656,262.579c-10.99,0-19.932-8.94-19.932-19.931s8.941-19.932,19.932-19.932
						s19.931,8.941,19.931,19.932S160.646,262.579,149.656,262.579z M149.656,234.717c-4.374,0-7.932,3.559-7.932,7.932
						s3.558,7.931,7.932,7.931c4.373,0,7.931-3.558,7.931-7.931S154.029,234.717,149.656,234.717z"/>
				</g>
			</g>
			<g>
				<g>
					<path class="st3" d="M316.103,367.292h-191.46c-6.367,0-11.528-5.161-11.528-11.528v-43.685
						c0-6.367,5.161-11.528,11.528-11.528h191.46c6.367,0,11.528,5.161,11.528,11.528v43.685
						C327.631,362.13,322.47,367.292,316.103,367.292z"/>
				</g>
				<g>
					<path class="st4" d="M316.103,300.551h-19.506v66.741h19.506c6.367,0,11.528-5.161,11.528-11.528v-43.685
						C327.631,305.712,322.47,300.551,316.103,300.551z"/>
				</g>
				<g>
					<path class="st2" d="M316.103,373.291h-191.46c-9.665,0-17.528-7.862-17.528-17.527v-43.685
						c0-9.665,7.863-17.528,17.528-17.528h191.46c9.665,0,17.528,7.863,17.528,17.528v43.685
						C333.631,365.429,325.768,373.291,316.103,373.291z M124.643,306.551c-3.048,0-5.528,2.48-5.528,5.528v43.685
						c0,3.048,2.48,5.527,5.528,5.527h191.46c3.048,0,5.528-2.479,5.528-5.527v-43.685c0-3.048-2.48-5.528-5.528-5.528H124.643z"/>
				</g>
				<g>
					<circle class="st7" cx="149.656" cy="333.921" r="13.931"/>
				</g>
				<g>
					<path class="st5" d="M291.089,319.99h-91.725c-7.694,0-13.931,6.237-13.931,13.931v0c0,7.694,6.237,13.931,13.931,13.931
						h91.725c7.694,0,13.931-6.237,13.931-13.931v0C305.021,326.227,298.783,319.99,291.089,319.99z"/>
				</g>
				<g>
					<path class="st2" d="M291.089,353.853h-91.725c-10.99,0-19.931-8.941-19.931-19.932s8.941-19.931,19.931-19.931h91.725
						c10.99,0,19.932,8.94,19.932,19.931S302.079,353.853,291.089,353.853z M199.364,325.99c-4.373,0-7.931,3.558-7.931,7.931
						c0,4.374,3.558,7.932,7.931,7.932h91.725c4.373,0,7.932-3.558,7.932-7.932c0-4.373-3.559-7.931-7.932-7.931H199.364z"/>
				</g>
				<g>
					<path class="st2" d="M149.656,353.853c-10.99,0-19.932-8.941-19.932-19.932s8.941-19.931,19.932-19.931
						s19.931,8.94,19.931,19.931S160.646,353.853,149.656,353.853z M149.656,325.99c-4.374,0-7.932,3.558-7.932,7.931
						s3.558,7.932,7.932,7.932c4.373,0,7.931-3.559,7.931-7.932S154.029,325.99,149.656,325.99z"/>
				</g>
			</g>
			<g>
				<g>
					<path class="st3" d="M316.103,184.745h-191.46c-6.367,0-11.528-5.161-11.528-11.528v-43.685
						c0-6.367,5.161-11.528,11.528-11.528h191.46c6.367,0,11.528,5.161,11.528,11.528v43.685
						C327.631,179.584,322.47,184.745,316.103,184.745z"/>
				</g>
				<g>
					<path class="st4" d="M316.103,118.005h-19.506v66.741h19.506c6.367,0,11.528-5.161,11.528-11.528v-43.685
						C327.631,123.166,322.47,118.005,316.103,118.005z"/>
				</g>
				<g>
					<path class="st2" d="M316.103,190.745h-191.46c-9.665,0-17.528-7.862-17.528-17.527v-43.685
						c0-9.665,7.863-17.528,17.528-17.528h191.46c9.665,0,17.528,7.863,17.528,17.528v43.685
						C333.631,182.883,325.768,190.745,316.103,190.745z M124.643,124.005c-3.048,0-5.528,2.48-5.528,5.528v43.685
						c0,3.048,2.48,5.527,5.528,5.527h191.46c3.048,0,5.528-2.479,5.528-5.527v-43.685c0-3.048-2.48-5.528-5.528-5.528H124.643z"/>
				</g>
				<g>
					<circle class="st7" cx="149.656" cy="151.375" r="13.931"/>
				</g>
				<g>
					<path class="st5" d="M291.089,137.444h-91.725c-7.694,0-13.931,6.237-13.931,13.931v0c0,7.694,6.237,13.931,13.931,13.931
						h91.725c7.694,0,13.931-6.237,13.931-13.931v0C305.021,143.681,298.783,137.444,291.089,137.444z"/>
				</g>
				<g>
					<path class="st2" d="M291.089,171.307h-91.725c-10.99,0-19.931-8.941-19.931-19.932s8.941-19.932,19.931-19.932h91.725
						c10.99,0,19.932,8.941,19.932,19.932S302.079,171.307,291.089,171.307z M199.364,143.443c-4.373,0-7.931,3.559-7.931,7.932
						s3.558,7.932,7.931,7.932h91.725c4.373,0,7.932-3.559,7.932-7.932s-3.559-7.932-7.932-7.932H199.364z"/>
				</g>
				<g>
					<path class="st2" d="M149.656,171.307c-10.99,0-19.932-8.941-19.932-19.932s8.941-19.932,19.932-19.932
						s19.931,8.941,19.931,19.932S160.646,171.307,149.656,171.307z M149.656,143.443c-4.374,0-7.932,3.559-7.932,7.932
						s3.558,7.932,7.932,7.932c4.373,0,7.931-3.559,7.931-7.932S154.029,143.443,149.656,143.443z"/>
				</g>
			</g>
		</g>
		<g>
			<g>
				<circle class="st1" cx="327.631" cy="256" r="71.255"/>
			</g>
			<g>
				<path class="st6" d="M351.866,188.98c15.485,13.07,25.329,32.613,25.329,54.462c0,39.353-31.902,71.255-71.255,71.255
					c-8.51,0-16.669-1.497-24.235-4.234c12.404,10.47,28.423,16.791,45.925,16.791c39.353,0,71.255-31.902,71.255-71.255
					C398.886,225.157,379.287,198.897,351.866,188.98z"/>
			</g>
			<g>
				<path class="st2" d="M327.631,333.255c-42.599,0-77.255-34.656-77.255-77.255s34.656-77.255,77.255-77.255
					s77.255,34.656,77.255,77.255S370.229,333.255,327.631,333.255z M327.631,190.745c-35.981,0-65.255,29.273-65.255,65.255
					s29.273,65.255,65.255,65.255s65.255-29.273,65.255-65.255S363.612,190.745,327.631,190.745z"/>
			</g>
			<g>
				<path class="st2" d="M328.21,214.688c2.308,0,4.134,1.827,4.134,4.134v2.115c5.672,0.673,10.479,2.499,14.9,5.287
					c1.538,0.865,2.884,2.307,2.884,4.614c0,2.979-2.403,5.287-5.383,5.287c-0.962,0-1.923-0.289-2.884-0.865
					c-3.365-2.019-6.634-3.461-9.902-4.229v18.457c14.612,3.652,20.86,9.517,20.86,19.803c0,10.574-8.267,17.592-20.476,18.745
					v5.768c0,2.308-1.826,4.134-4.134,4.134c-2.307,0-4.229-1.826-4.229-4.134v-5.96c-7.21-0.769-13.843-3.364-19.707-7.498
					c-1.634-1.058-2.595-2.596-2.595-4.614c0-2.98,2.307-5.287,5.287-5.287c1.153,0,2.307,0.385,3.172,1.058
					c4.519,3.269,8.94,5.479,14.228,6.44v-18.938c-14.035-3.653-20.572-8.94-20.572-19.803c0-10.286,8.172-17.399,20.188-18.361
					v-2.019C323.98,216.516,325.903,214.688,328.21,214.688z M324.365,247.469v-17.015c-6.152,0.577-9.229,3.845-9.229,8.075
					C315.137,242.566,316.963,245.065,324.365,247.469z M331.959,260.831v17.496c6.152-0.673,9.518-3.749,9.518-8.363
					C341.477,265.734,339.361,263.139,331.959,260.831z"/>
			</g>
		</g>
	</g>
</g>
</svg>
