<?xml version="1.0" encoding="utf-8"?>
<!-- Generator: Adobe Illustrator 22.1.0, SVG Export Plug-In . SVG Version: 6.00 Build 0)  -->
<svg version="1.1" id="Icon_Set" xmlns="http://www.w3.org/2000/svg" xmlns:xlink="http://www.w3.org/1999/xlink" x="0px" y="0px"
	 viewBox="0 0 512 512" style="enable-background:new 0 0 512 512;" xml:space="preserve">
<style type="text/css">
	.st0{fill:#F0C48A;}
	.st1{fill:#D3E6F8;}
	.st2{fill:#4C4372;}
	.st3{fill:#FD919E;}
	.st4{fill:#E8677D;}
	.st5{fill:#FFFFFF;}
	.st6{fill:#A4CFF2;}
	.st7{fill:#7BABF1;}
</style>
<g id="Hosted_Application">
	<g>
		<g>
			<circle class="st0" cx="256" cy="256" r="207"/>
		</g>
	</g>
	<g>
		<g>
			<g>
				<path class="st1" d="M370.401,304.382c33.761,0,61.13-27.369,61.13-61.13c0-33.711-27.289-61.046-60.982-61.126
					c-5.54-56.245-52.975-100.188-110.677-100.188c-49.427,0-91.315,32.245-105.798,76.843c-0.266-0.003-0.529-0.02-0.795-0.02
					c-40.212,0-72.81,32.598-72.81,72.81s32.598,72.81,72.81,72.81H370.401z"/>
			</g>
			<g>
				<path class="st2" d="M370.401,310.383H153.279c-43.456,0-78.811-35.354-78.811-78.811c0-42.283,33.47-76.896,75.31-78.732
					c16.87-46.179,60.576-76.9,110.094-76.9c29.282,0,57.317,10.855,78.941,30.567c20.182,18.397,33.224,43.037,37.078,69.843
					c34.444,2.807,61.64,31.771,61.64,66.903C437.531,280.269,407.417,310.383,370.401,310.383z M153.279,164.763
					c-36.84,0-66.811,29.971-66.811,66.81c0,36.84,29.971,66.811,66.811,66.811h217.122c30.398,0,55.13-24.731,55.13-55.13
					c0-30.324-24.672-55.054-54.997-55.126c-3.08-0.008-5.654-2.347-5.956-5.412c-2.546-25.848-14.566-49.763-33.849-67.34
					c-19.408-17.692-44.573-27.436-70.857-27.436c-45.748,0-85.972,29.214-100.091,72.696c-0.804,2.475-3.109,4.146-5.706,4.146
					c-0.022,0-0.045,0-0.067,0c-0.167-0.002-0.333-0.008-0.499-0.013L153.279,164.763z"/>
			</g>
		</g>
		<g>
			<g>
				<g>
					<path class="st3" d="M317.405,430.061h-122.81c-9.501,0-17.203-7.702-17.203-17.203V204.734
						c0-9.501,7.702-17.203,17.203-17.203h122.81c9.501,0,17.203,7.702,17.203,17.203v208.123
						C334.608,422.358,326.906,430.061,317.405,430.061z"/>
				</g>
				<g>
					<path class="st4" d="M317.405,187.531h-5.632v242.53h5.632c9.501,0,17.203-7.702,17.203-17.203V204.734
						C334.608,195.233,326.906,187.531,317.405,187.531z"/>
				</g>
				<g>
					<circle class="st2" cx="256" cy="408.514" r="10.136"/>
				</g>
				<g>
					<rect x="177.392" y="219.898" class="st5" width="157.217" height="167.095"/>
				</g>
				<g>
					<rect x="311.773" y="219.898" class="st1" width="22.836" height="167.095"/>
				</g>
				<g>
					<path class="st2" d="M317.405,436.061H194.595c-12.794,0-23.203-10.409-23.203-23.203V204.734
						c0-12.795,10.409-23.204,23.203-23.204h122.811c12.794,0,23.203,10.409,23.203,23.204v208.123
						C340.608,425.651,330.199,436.061,317.405,436.061z M194.595,193.53c-6.178,0-11.203,5.026-11.203,11.204v208.123
						c0,6.178,5.025,11.203,11.203,11.203h122.811c6.178,0,11.203-5.025,11.203-11.203V204.734c0-6.178-5.025-11.204-11.203-11.204
						H194.595z"/>
				</g>
				<g>
					<path class="st2" d="M334.608,392.992H177.392c-3.313,0-6-2.687-6-6V219.897c0-3.313,2.687-6,6-6h157.217c3.313,0,6,2.687,6,6
						v167.095C340.608,390.306,337.922,392.992,334.608,392.992z M183.392,380.992h145.217V225.897H183.392V380.992z"/>
				</g>
				<g>
					<g>
						<path class="st2" d="M277.892,210.289h-26.865c-3.313,0-6-2.687-6-6s2.687-6,6-6h26.865c3.313,0,6,2.687,6,6
							S281.205,210.289,277.892,210.289z"/>
					</g>
					<g>
						<path class="st2" d="M234.141,210.289h-0.032c-3.313,0-6-2.687-6-6s2.687-6,6-6s6.016,2.687,6.016,6
							S237.454,210.289,234.141,210.289z"/>
					</g>
				</g>
			</g>
			<g>
				<g>
					<g>
						<rect x="213.429" y="349.135" class="st2" width="18.481" height="13.43"/>
					</g>
					<g>
						<rect x="280.091" y="349.135" class="st2" width="18.481" height="13.43"/>
					</g>
					<g>
						<path class="st2" d="M231.909,368.565h-18.48c-3.313,0-6-2.687-6-6v-13.43c0-3.313,2.687-6,6-6h18.48c3.313,0,6,2.687,6,6
							v13.43C237.909,365.879,235.223,368.565,231.909,368.565z M219.429,356.565h6.48v-1.43h-6.48V356.565z"/>
					</g>
					<g>
						<path class="st2" d="M298.571,368.565h-18.48c-3.313,0-6-2.687-6-6v-13.43c0-3.313,2.687-6,6-6h18.48c3.313,0,6,2.687,6,6
							v13.43C304.571,365.879,301.885,368.565,298.571,368.565z M286.091,356.565h6.48v-1.43h-6.48V356.565z"/>
					</g>
				</g>
				<g>
					<g>
						<path class="st1" d="M304.145,315.57h-96.289c-3.202,0-5.798-2.596-5.798-5.798v-21.97c0-3.202,2.596-5.798,5.798-5.798
							h96.289c3.202,0,5.798,2.596,5.798,5.798v21.97C309.942,312.974,307.347,315.57,304.145,315.57z"/>
					</g>
					<g>
						<path class="st6" d="M304.145,282.005h-9.81v33.565h9.81c3.202,0,5.798-2.596,5.798-5.798v-21.97
							C309.942,284.601,307.347,282.005,304.145,282.005z"/>
					</g>
					<g>
						<path class="st2" d="M304.145,321.57h-96.289c-6.505,0-11.798-5.293-11.798-11.798v-21.97c0-6.505,5.293-11.798,11.798-11.798
							h96.289c6.505,0,11.798,5.293,11.798,11.798v21.97C315.942,316.277,310.649,321.57,304.145,321.57z M208.058,309.57h95.885
							v-21.565h-95.885V309.57z"/>
					</g>
					<g>
						<circle class="st2" cx="220.435" cy="298.788" r="7.006"/>
					</g>
				</g>
				<g>
					<g>
						<path class="st3" d="M304.145,349.135h-96.289c-3.202,0-5.798-2.596-5.798-5.798v-21.97c0-3.202,2.596-5.798,5.798-5.798
							h96.289c3.202,0,5.798,2.596,5.798,5.798v21.97C309.942,346.54,307.347,349.135,304.145,349.135z"/>
					</g>
					<g>
						<path class="st4" d="M304.145,315.57h-9.81v33.565h9.81c3.202,0,5.798-2.596,5.798-5.798v-21.97
							C309.942,318.166,307.347,315.57,304.145,315.57z"/>
					</g>
					<g>
						<path class="st2" d="M304.145,355.136h-96.289c-6.505,0-11.798-5.293-11.798-11.798v-21.97
							c0-6.505,5.293-11.798,11.798-11.798h96.289c6.505,0,11.798,5.293,11.798,11.798v21.97
							C315.942,349.843,310.649,355.136,304.145,355.136z M208.058,343.136h95.885V321.57h-95.885V343.136z"/>
					</g>
					<g>
						<circle class="st2" cx="220.435" cy="332.353" r="7.006"/>
					</g>
				</g>
				<g>
					<g>
						<path class="st3" d="M304.145,282.005h-96.289c-3.202,0-5.798-2.596-5.798-5.798v-21.97c0-3.202,2.596-5.798,5.798-5.798
							h96.289c3.202,0,5.798,2.596,5.798,5.798v21.97C309.942,279.409,307.347,282.005,304.145,282.005z"/>
					</g>
					<g>
						<path class="st4" d="M304.145,248.44h-9.81v33.565h9.81c3.202,0,5.798-2.596,5.798-5.798v-21.97
							C309.942,251.035,307.347,248.44,304.145,248.44z"/>
					</g>
					<g>
						<path class="st2" d="M304.145,288.005h-96.289c-6.505,0-11.798-5.293-11.798-11.798v-21.97
							c0-6.505,5.293-11.798,11.798-11.798h96.289c6.505,0,11.798,5.293,11.798,11.798v21.97
							C315.942,282.712,310.649,288.005,304.145,288.005z M208.058,276.005h95.885v-21.565h-95.885V276.005z"/>
					</g>
					<g>
						<circle class="st2" cx="220.435" cy="265.222" r="7.006"/>
					</g>
				</g>
				<g>
					<path class="st2" d="M290.915,271.223h-44.831c-3.313,0-6-2.687-6-6s2.687-6,6-6h44.831c3.313,0,6,2.687,6,6
						S294.229,271.223,290.915,271.223z"/>
				</g>
				<g>
					<path class="st2" d="M290.915,304.787h-44.831c-3.313,0-6-2.687-6-6s2.687-6,6-6h44.831c3.313,0,6,2.687,6,6
						S294.229,304.787,290.915,304.787z"/>
				</g>
				<g>
					<path class="st2" d="M290.915,338.353h-44.831c-3.313,0-6-2.687-6-6s2.687-6,6-6h44.831c3.313,0,6,2.687,6,6
						S294.229,338.353,290.915,338.353z"/>
				</g>
			</g>
		</g>
	</g>
</g>
</svg>
