<?xml version="1.0" encoding="utf-8"?>
<!-- Generator: Adobe Illustrator 22.1.0, SVG Export Plug-In . SVG Version: 6.00 Build 0)  -->
<svg version="1.1" id="Icon_Set" xmlns="http://www.w3.org/2000/svg" xmlns:xlink="http://www.w3.org/1999/xlink" x="0px" y="0px"
	 viewBox="0 0 512 512" style="enable-background:new 0 0 512 512;" xml:space="preserve">
<style type="text/css">
	.st0{fill:#F0C48A;}
	.st1{fill:#D3E6F8;}
	.st2{fill:#4C4372;}
	.st3{fill:#FD919E;}
	.st4{fill:#E8677D;}
	.st5{fill:#FFFFFF;}
	.st6{fill:#A4CFF2;}
	.st7{fill:#7BABF1;}
</style>
<g id="HTTP_Cookie">
	<g>
		<g>
			<circle class="st0" cx="256" cy="256" r="207"/>
		</g>
	</g>
	<g>
		<g>
			<path class="st1" d="M373.554,320.54H138.446c-14.825,0-26.843-12.018-26.843-26.843V147.543
				c0-14.825,12.018-26.843,26.843-26.843h235.107c14.825,0,26.843,12.018,26.843,26.843v146.154
				C400.396,308.522,388.378,320.54,373.554,320.54z"/>
		</g>
		<g>
			<path class="st5" d="M373.554,120.701H138.446c-14.825,0-26.843,12.018-26.843,26.843v146.154h288.792V147.543
				C400.396,132.718,388.378,120.701,373.554,120.701z"/>
		</g>
		<g>
			<path class="st6" d="M373.554,120.701h-5.42v199.84h5.42c14.825,0,26.843-12.018,26.843-26.843V147.543
				C400.396,132.718,388.378,120.701,373.554,120.701z"/>
		</g>
		<g>
			<path class="st1" d="M373.554,120.701h-5.42v172.997h32.263V147.543C400.396,132.718,388.378,120.701,373.554,120.701z"/>
		</g>
		<g>
			<path class="st2" d="M373.554,326.54H138.446c-18.109,0-32.843-14.733-32.843-32.843V147.543
				c0-18.109,14.733-32.842,32.843-32.842h235.107c18.109,0,32.843,14.733,32.843,32.842v146.154
				C406.396,311.807,391.663,326.54,373.554,326.54z M138.446,126.701c-11.493,0-20.843,9.35-20.843,20.842v146.154
				c0,11.493,9.35,20.843,20.843,20.843h235.107c11.493,0,20.843-9.35,20.843-20.843V147.543c0-11.493-9.35-20.842-20.843-20.842
				H138.446z"/>
		</g>
		<g>
			<path class="st2" d="M400.396,299.697H111.604c-3.313,0-6-2.687-6-6V147.543c0-18.109,14.733-32.842,32.843-32.842h235.107
				c18.109,0,32.843,14.733,32.843,32.842v146.154C406.396,297.011,403.71,299.697,400.396,299.697z M117.604,287.697h276.793
				V147.543c0-11.493-9.35-20.842-20.843-20.842H138.446c-11.493,0-20.843,9.35-20.843,20.842V287.697z"/>
		</g>
		<g>
			<path class="st1" d="M308.577,391.299H203.423v-19.75c0-5.238,4.246-9.484,9.484-9.484h86.186c5.238,0,9.484,4.246,9.484,9.484
				V391.299z"/>
		</g>
		<g>
			<rect x="235.238" y="320.54" class="st6" width="41.525" height="41.525"/>
		</g>
		<g>
			<path class="st2" d="M276.763,368.065h-41.525c-3.313,0-6-2.687-6-6V320.54c0-3.313,2.687-6,6-6h41.525c3.313,0,6,2.687,6,6
				v41.525C282.763,365.378,280.076,368.065,276.763,368.065z M241.237,356.065h29.525V326.54h-29.525V356.065z"/>
		</g>
		<g>
			<path class="st2" d="M308.577,397.299H203.423c-3.313,0-6-2.687-6-6v-19.75c0-8.538,6.946-15.484,15.484-15.484h86.186
				c8.538,0,15.484,6.946,15.484,15.484v19.75C314.577,394.613,311.891,397.299,308.577,397.299z M209.423,385.299h93.154v-13.75
				c0-1.921-1.563-3.484-3.484-3.484h-86.186c-1.921,0-3.484,1.563-3.484,3.484V385.299z"/>
		</g>
		<g>
			<g>
				<circle class="st4" cx="275.5" cy="198.737" r="51.687"/>
			</g>
			<g>
				<path class="st2" d="M275.5,256.424c-31.809,0-57.687-25.878-57.687-57.687s25.878-57.687,57.687-57.687
					s57.687,25.878,57.687,57.687S307.309,256.424,275.5,256.424z M275.5,153.05c-25.191,0-45.687,20.495-45.687,45.687
					s20.495,45.687,45.687,45.687s45.687-20.495,45.687-45.687S300.691,153.05,275.5,153.05z"/>
			</g>
			<g>
				<circle class="st3" cx="236.5" cy="218.737" r="51.687"/>
			</g>
			<g>
				<path class="st2" d="M236.5,276.424c-31.809,0-57.687-25.878-57.687-57.687s25.878-57.687,57.687-57.687
					s57.687,25.878,57.687,57.687S268.309,276.424,236.5,276.424z M236.5,173.05c-25.191,0-45.687,20.495-45.687,45.687
					s20.495,45.687,45.687,45.687s45.687-20.495,45.687-45.687S261.691,173.05,236.5,173.05z"/>
			</g>
			<g>
				<circle class="st2" cx="214.818" cy="208.673" r="6.379"/>
			</g>
			<g>
				<circle class="st2" cx="262.379" cy="214.242" r="6.379"/>
			</g>
			<g>
				<circle class="st2" cx="306.333" cy="212.358" r="6.379"/>
			</g>
			<g>
				<circle class="st2" cx="288.187" cy="171.677" r="6.379"/>
			</g>
			<g>
				<circle class="st2" cx="230.192" cy="244.045" r="6.379"/>
			</g>
			<g>
				<circle class="st2" cx="242.949" cy="200.05" r="4.134"/>
			</g>
			<g>
				<circle class="st2" cx="306.333" cy="185.861" r="4.134"/>
			</g>
			<g>
				<circle class="st2" cx="258.244" cy="244.045" r="4.134"/>
			</g>
		</g>
	</g>
</g>
</svg>
