<?xml version="1.0" encoding="utf-8"?>
<!-- Generator: Adobe Illustrator 22.1.0, SVG Export Plug-In . SVG Version: 6.00 Build 0)  -->
<svg version="1.1" id="Icon_Set" xmlns="http://www.w3.org/2000/svg" xmlns:xlink="http://www.w3.org/1999/xlink" x="0px" y="0px"
	 viewBox="0 0 512 512" style="enable-background:new 0 0 512 512;" xml:space="preserve">
<style type="text/css">
	.st0{fill:#F0C48A;}
	.st1{fill:#D3E6F8;}
	.st2{fill:#4C4372;}
	.st3{fill:#FD919E;}
	.st4{fill:#E8677D;}
	.st5{fill:#FFFFFF;}
	.st6{fill:#A4CFF2;}
	.st7{fill:#7BABF1;}
</style>
<g id="Increase_Traffic">
	<g>
		<g>
			<circle class="st0" cx="256" cy="256" r="207"/>
		</g>
	</g>
	<g>
		<g>
			<g>
				<path class="st1" d="M373.554,320.54H138.446c-14.825,0-26.843-12.018-26.843-26.843V147.543
					c0-14.825,12.018-26.843,26.843-26.843h235.107c14.825,0,26.843,12.018,26.843,26.843v146.154
					C400.396,308.522,388.378,320.54,373.554,320.54z"/>
			</g>
			<g>
				<path class="st5" d="M373.554,120.701H138.446c-14.825,0-26.843,12.018-26.843,26.843v146.154h288.792V147.543
					C400.396,132.718,388.378,120.701,373.554,120.701z"/>
			</g>
			<g>
				<path class="st6" d="M373.554,120.701h-5.42v199.84h5.42c14.825,0,26.843-12.018,26.843-26.843V147.543
					C400.396,132.718,388.378,120.701,373.554,120.701z"/>
			</g>
			<g>
				<path class="st1" d="M373.554,120.701h-5.42v172.997h32.263V147.543C400.396,132.718,388.378,120.701,373.554,120.701z"/>
			</g>
			<g>
				<path class="st2" d="M373.554,326.54H138.446c-18.109,0-32.843-14.733-32.843-32.843V147.543
					c0-18.109,14.733-32.843,32.843-32.843h235.107c18.109,0,32.843,14.733,32.843,32.843v146.154
					C406.396,311.807,391.663,326.54,373.554,326.54z M138.446,126.7c-11.493,0-20.843,9.35-20.843,20.843v146.154
					c0,11.493,9.35,20.843,20.843,20.843h235.107c11.493,0,20.843-9.35,20.843-20.843V147.543c0-11.493-9.35-20.843-20.843-20.843
					H138.446z"/>
			</g>
			<g>
				<path class="st2" d="M400.396,299.697H111.604c-3.313,0-6-2.687-6-6V147.543c0-18.109,14.733-32.843,32.843-32.843h235.107
					c18.109,0,32.842,14.733,32.842,32.843v146.154C406.396,297.011,403.709,299.697,400.396,299.697z M117.604,287.697h276.792
					V147.543c0-11.493-9.35-20.843-20.842-20.843H138.446c-11.493,0-20.843,9.35-20.843,20.843V287.697z"/>
			</g>
			<g>
				<path class="st1" d="M308.577,391.299H203.423v-19.75c0-5.238,4.246-9.484,9.484-9.484h86.186c5.238,0,9.484,4.246,9.484,9.484
					V391.299z"/>
			</g>
			<g>
				<rect x="235.238" y="320.54" class="st6" width="41.525" height="41.525"/>
			</g>
			<g>
				<path class="st2" d="M276.762,368.065h-41.524c-3.313,0-6-2.687-6-6V320.54c0-3.313,2.687-6,6-6h41.524c3.313,0,6,2.687,6,6
					v41.525C282.762,365.379,280.076,368.065,276.762,368.065z M241.238,356.065h29.524V326.54h-29.524V356.065z"/>
			</g>
			<g>
				<path class="st2" d="M308.577,397.3H203.423c-3.313,0-6-2.687-6-6v-19.751c0-8.537,6.946-15.483,15.484-15.483h86.187
					c8.538,0,15.484,6.946,15.484,15.483V391.3C314.577,394.613,311.891,397.3,308.577,397.3z M209.423,385.3h93.154v-13.751
					c0-1.921-1.563-3.483-3.484-3.483h-86.187c-1.921,0-3.484,1.562-3.484,3.483V385.3z"/>
			</g>
		</g>
		<g>
			<g>
				<g>
					<rect x="135.524" y="260.08" class="st3" width="50.492" height="33.617"/>
				</g>
				<g>
					<rect x="186.015" y="237.937" class="st1" width="50.492" height="55.761"/>
				</g>
				<g>
					<rect x="236.507" y="215.793" class="st6" width="50.492" height="77.905"/>
				</g>
				<g>
					<path class="st2" d="M186.015,299.697h-50.492c-3.313,0-6-2.687-6-6V260.08c0-3.313,2.687-6,6-6h50.492c3.313,0,6,2.687,6,6
						v33.617C192.015,297.011,189.329,299.697,186.015,299.697z M141.523,287.697h38.492V266.08h-38.492V287.697z"/>
				</g>
				<g>
					<path class="st2" d="M236.507,299.697h-50.492c-3.313,0-6-2.687-6-6v-55.761c0-3.313,2.687-6,6-6h50.492c3.313,0,6,2.687,6,6
						v55.761C242.507,297.011,239.82,299.697,236.507,299.697z M192.015,287.697h38.492v-43.761h-38.492V287.697z"/>
				</g>
				<g>
					<path class="st2" d="M286.998,299.697h-50.491c-3.313,0-6-2.687-6-6v-77.904c0-3.313,2.687-6,6-6h50.491c3.313,0,6,2.687,6,6
						v77.904C292.998,297.011,290.312,299.697,286.998,299.697z M242.507,287.697h38.491v-65.904h-38.491V287.697z"/>
				</g>
			</g>
			<g>
				<g>
					<polygon class="st7" points="317.486,196.724 317.486,293.697 355.351,293.697 355.351,196.724 376.476,196.724 
						356.447,169.861 336.419,142.998 316.39,169.861 296.361,196.724 					"/>
				</g>
				<g>
					<path class="st2" d="M355.351,299.697h-37.864c-3.313,0-6-2.687-6-6v-90.973h-15.125c-2.27,0-4.345-1.28-5.363-3.31
						c-1.018-2.028-0.804-4.457,0.553-6.276l40.058-53.727c1.132-1.52,2.916-2.414,4.81-2.414s3.678,0.895,4.81,2.414l40.058,53.726
						c1.357,1.82,1.571,4.249,0.553,6.277c-1.018,2.029-3.093,3.31-5.363,3.31h-15.126v90.973
						C361.351,297.011,358.664,299.697,355.351,299.697z M323.486,287.697h25.864v-90.973c0-3.313,2.687-6,6-6h9.168l-28.1-37.688
						l-28.1,37.688h9.168c3.313,0,6,2.687,6,6V287.697z"/>
				</g>
			</g>
		</g>
	</g>
</g>
</svg>
