<?xml version="1.0" encoding="utf-8"?>
<!-- Generator: Adobe Illustrator 22.1.0, SVG Export Plug-In . SVG Version: 6.00 Build 0)  -->
<svg version="1.1" id="Icon_Set" xmlns="http://www.w3.org/2000/svg" xmlns:xlink="http://www.w3.org/1999/xlink" x="0px" y="0px"
	 viewBox="0 0 512 512" style="enable-background:new 0 0 512 512;" xml:space="preserve">
<style type="text/css">
	.st0{fill:#F0C48A;}
	.st1{fill:#D3E6F8;}
	.st2{fill:#4C4372;}
	.st3{fill:#FD919E;}
	.st4{fill:#E8677D;}
	.st5{fill:#FFFFFF;}
	.st6{fill:#A4CFF2;}
	.st7{fill:#7BABF1;}
</style>
<g id="Information_Download">
	<g>
		<g>
			<circle class="st0" cx="256" cy="256" r="207"/>
		</g>
	</g>
	<g>
		<g>
			<g>
				<path class="st7" d="M199.794,150.348L188.7,122.863h-73.676c-12.254,0-22.187,9.934-22.187,22.187v133.498h282.786V172.536
					c0-12.254-9.934-22.187-22.187-22.187H199.794z"/>
			</g>
			<g>
				<path class="st2" d="M375.623,284.548H92.836c-3.313,0-6-2.686-6-6V145.05c0-15.542,12.645-28.187,28.188-28.187H188.7
					c2.447,0,4.648,1.485,5.564,3.754l9.579,23.731h149.593c15.542,0,28.188,12.645,28.188,28.187v106.013
					C381.623,281.862,378.936,284.548,375.623,284.548z M98.836,272.548h270.786V172.536c0-8.925-7.262-16.187-16.188-16.187
					H199.794c-2.447,0-4.648-1.485-5.564-3.754l-9.579-23.731h-69.627c-8.926,0-16.188,7.261-16.188,16.187V272.548z"/>
			</g>
			<g>
				<path class="st1" d="M353.435,364.211H115.024c-12.254,0-22.187-9.934-22.187-22.187V215.073
					c0-12.254,9.934-22.187,22.187-22.187h238.412c12.254,0,22.187,9.934,22.187,22.187v126.951
					C375.623,354.277,365.689,364.211,353.435,364.211z"/>
			</g>
			<g>
				<path class="st6" d="M353.435,192.885h-13.461v171.326h13.461c12.254,0,22.187-9.934,22.187-22.187V215.073
					C375.623,202.819,365.689,192.885,353.435,192.885z"/>
			</g>
			<g>
				<path class="st2" d="M353.435,370.211H115.024c-15.542,0-28.188-12.645-28.188-28.188V215.073
					c0-15.542,12.645-28.188,28.188-28.188h238.411c15.542,0,28.188,12.645,28.188,28.188v126.951
					C381.623,357.566,368.978,370.211,353.435,370.211z M115.024,198.885c-8.926,0-16.188,7.262-16.188,16.188v126.951
					c0,8.926,7.262,16.188,16.188,16.188h238.411c8.926,0,16.188-7.262,16.188-16.188V215.073c0-8.926-7.262-16.188-16.188-16.188
					H115.024z"/>
			</g>
		</g>
		<g>
			<circle class="st5" cx="234.229" cy="279.285" r="58.586"/>
		</g>
		<g>
			<path class="st2" d="M239.36,254.763c0,2.502-1.918,4.587-4.504,4.587c-2.502,0-4.504-2.085-4.504-4.587v-1.751
				c0-2.502,2.002-4.504,4.504-4.504c2.585,0,4.504,2.002,4.504,4.504V254.763z M239.36,269.859v32.528
				c0,2.502-1.918,4.504-4.504,4.504c-2.502,0-4.504-2.002-4.504-4.504v-32.528c0-2.669,2.002-4.587,4.504-4.587
				C237.441,265.272,239.36,267.19,239.36,269.859z"/>
		</g>
		<g>
			<path class="st2" d="M234.229,343.871c-35.613,0-64.586-28.973-64.586-64.586s28.973-64.586,64.586-64.586
				s64.586,28.973,64.586,64.586S269.842,343.871,234.229,343.871z M234.229,226.699c-28.996,0-52.586,23.59-52.586,52.586
				s23.59,52.586,52.586,52.586s52.586-23.59,52.586-52.586S263.226,226.699,234.229,226.699z"/>
		</g>
		<g>
			<g>
				<polygon class="st3" points="396.327,331.061 396.327,263.969 355.397,263.969 355.397,331.061 332.561,331.061 
					354.212,360.099 375.862,389.137 397.513,360.099 419.164,331.061 				"/>
			</g>
			<g>
				<path class="st2" d="M375.862,395.137L375.862,395.137c-1.895,0-3.678-0.895-4.81-2.414l-43.301-58.076
					c-1.357-1.819-1.571-4.249-0.553-6.277c1.018-2.028,3.093-3.309,5.363-3.309h16.836v-61.092c0-3.313,2.687-6,6-6h40.93
					c3.313,0,6,2.687,6,6v61.092h16.836c2.27,0,4.345,1.281,5.363,3.309c1.018,2.029,0.804,4.458-0.553,6.277l-43.301,58.076
					C379.54,394.242,377.757,395.137,375.862,395.137z M344.519,337.061l31.343,42.038l31.344-42.038h-10.878c-3.313,0-6-2.687-6-6
					v-61.092h-28.93v61.092c0,3.313-2.687,6-6,6H344.519z"/>
			</g>
		</g>
	</g>
</g>
</svg>
