<?xml version="1.0" encoding="utf-8"?>
<!-- Generator: Adobe Illustrator 22.1.0, SVG Export Plug-In . SVG Version: 6.00 Build 0)  -->
<svg version="1.1" id="Icon_Set" xmlns="http://www.w3.org/2000/svg" xmlns:xlink="http://www.w3.org/1999/xlink" x="0px" y="0px"
	 viewBox="0 0 512 512" style="enable-background:new 0 0 512 512;" xml:space="preserve">
<style type="text/css">
	.st0{fill:#F0C48A;}
	.st1{fill:#D3E6F8;}
	.st2{fill:#4C4372;}
	.st3{fill:#FD919E;}
	.st4{fill:#E8677D;}
	.st5{fill:#FFFFFF;}
	.st6{fill:#A4CFF2;}
	.st7{fill:#7BABF1;}
</style>
<g id="Internet_Connection">
	<g>
		<g>
			<circle class="st0" cx="256" cy="256" r="207"/>
		</g>
	</g>
	<g>
		<g>
			<path class="st1" d="M373.554,320.54H138.446c-14.825,0-26.843-12.018-26.843-26.843V147.543
				c0-14.825,12.018-26.843,26.843-26.843h235.107c14.825,0,26.843,12.018,26.843,26.843v146.154
				C400.396,308.522,388.378,320.54,373.554,320.54z"/>
		</g>
		<g>
			<path class="st5" d="M373.554,120.701H138.446c-14.825,0-26.843,12.018-26.843,26.843v146.154h288.792V147.543
				C400.396,132.718,388.378,120.701,373.554,120.701z"/>
		</g>
		<g>
			<path class="st6" d="M373.554,120.701h-5.42v199.84h5.42c14.825,0,26.843-12.018,26.843-26.843V147.543
				C400.396,132.718,388.378,120.701,373.554,120.701z"/>
		</g>
		<g>
			<path class="st1" d="M373.554,120.701h-5.42v172.997h32.263V147.543C400.396,132.718,388.378,120.701,373.554,120.701z"/>
		</g>
		<g>
			<path class="st2" d="M373.554,326.54H138.446c-18.109,0-32.843-14.733-32.843-32.843V147.543
				c0-18.11,14.733-32.843,32.843-32.843h235.107c18.109,0,32.843,14.733,32.843,32.843v146.154
				C406.396,311.807,391.663,326.54,373.554,326.54z M138.446,126.7c-11.493,0-20.843,9.35-20.843,20.843v146.154
				c0,11.493,9.35,20.843,20.843,20.843h235.107c11.493,0,20.843-9.35,20.843-20.843V147.543c0-11.493-9.35-20.843-20.843-20.843
				H138.446z"/>
		</g>
		<g>
			<path class="st2" d="M400.396,299.698H111.604c-3.313,0-6-2.686-6-6V147.543c0-18.11,14.733-32.843,32.843-32.843h235.107
				c18.109,0,32.843,14.733,32.843,32.843v146.154C406.396,297.011,403.71,299.698,400.396,299.698z M117.604,287.698h276.793
				V147.543c0-11.493-9.35-20.843-20.843-20.843H138.446c-11.493,0-20.843,9.35-20.843,20.843V287.698z"/>
		</g>
		<g>
			<path class="st1" d="M308.577,391.299H203.423v-19.75c0-5.238,4.246-9.484,9.484-9.484h86.186c5.238,0,9.484,4.246,9.484,9.484
				V391.299z"/>
		</g>
		<g>
			<rect x="235.238" y="320.54" class="st6" width="41.525" height="41.525"/>
		</g>
		<g>
			<path class="st2" d="M276.763,368.065h-41.525c-3.313,0-6-2.686-6-6V320.54c0-3.314,2.687-6,6-6h41.525c3.313,0,6,2.686,6,6
				v41.525C282.763,365.379,280.076,368.065,276.763,368.065z M241.237,356.065h29.525V326.54h-29.525V356.065z"/>
		</g>
		<g>
			<path class="st2" d="M308.577,397.299H203.423c-3.313,0-6-2.687-6-6v-19.75c0-8.538,6.946-15.484,15.484-15.484h86.186
				c8.538,0,15.484,6.946,15.484,15.484v19.75C314.577,394.613,311.891,397.299,308.577,397.299z M209.423,385.299h93.154v-13.75
				c0-1.921-1.563-3.484-3.484-3.484h-86.186c-1.921,0-3.484,1.563-3.484,3.484V385.299z"/>
		</g>
		<g>
			<g>
				<path class="st2" d="M297.683,219.174c-1.536,0-3.071-0.586-4.243-1.757c-10-10.001-23.297-15.509-37.439-15.509
					s-27.439,5.508-37.439,15.509c-2.344,2.343-6.144,2.343-8.485,0c-2.344-2.343-2.344-6.142-0.001-8.485
					c12.268-12.267,28.577-19.023,45.926-19.023s33.658,6.756,45.926,19.023c2.343,2.343,2.343,6.142-0.001,8.485
					C300.754,218.588,299.218,219.173,297.683,219.174z"/>
			</g>
			<g>
				<path class="st2" d="M281.361,235.495c-1.535,0-3.071-0.586-4.242-1.757c-5.642-5.641-13.142-8.748-21.119-8.748
					s-15.478,3.107-21.119,8.748c-2.342,2.343-6.143,2.343-8.484,0c-2.344-2.343-2.344-6.142,0-8.485
					c7.907-7.907,18.421-12.262,29.604-12.262s21.696,4.355,29.604,12.262c2.344,2.343,2.344,6.142,0,8.485
					C284.433,234.909,282.896,235.495,281.361,235.495z"/>
			</g>
			<g>
				<circle class="st2" cx="256" cy="248.717" r="9.997"/>
			</g>
			<g>
				<path class="st2" d="M313.992,202.864c-1.535,0-3.071-0.586-4.242-1.757c-29.639-29.638-77.861-29.638-107.5,0
					c-2.342,2.343-6.143,2.343-8.484,0c-2.344-2.343-2.344-6.142,0-8.485c34.316-34.316,90.152-34.316,124.469,0
					c2.344,2.343,2.344,6.142,0,8.485C317.063,202.278,315.527,202.864,313.992,202.864z"/>
			</g>
		</g>
	</g>
</g>
</svg>
