<?xml version="1.0" encoding="utf-8"?>
<!-- Generator: Adobe Illustrator 22.1.0, SVG Export Plug-In . SVG Version: 6.00 Build 0)  -->
<svg version="1.1" id="Icon_Set" xmlns="http://www.w3.org/2000/svg" xmlns:xlink="http://www.w3.org/1999/xlink" x="0px" y="0px"
	 viewBox="0 0 512 512" style="enable-background:new 0 0 512 512;" xml:space="preserve">
<style type="text/css">
	.st0{fill:#F0C48A;}
	.st1{fill:#D3E6F8;}
	.st2{fill:#4C4372;}
	.st3{fill:#FD919E;}
	.st4{fill:#E8677D;}
	.st5{fill:#FFFFFF;}
	.st6{fill:#A4CFF2;}
	.st7{fill:#7BABF1;}
</style>
<g id="LAN_Unplugged">
	<g>
		<g>
			<circle class="st0" cx="256" cy="256" r="207"/>
		</g>
	</g>
	<g>
		<g>
			<path class="st1" d="M373.554,320.54H138.446c-14.825,0-26.843-12.018-26.843-26.843V147.543
				c0-14.825,12.018-26.843,26.843-26.843h235.107c14.825,0,26.843,12.018,26.843,26.843v146.154
				C400.396,308.522,388.378,320.54,373.554,320.54z"/>
		</g>
		<g>
			<path class="st5" d="M373.554,120.701H138.446c-14.825,0-26.843,12.018-26.843,26.843v146.154h288.792V147.543
				C400.396,132.718,388.378,120.701,373.554,120.701z"/>
		</g>
		<g>
			<path class="st6" d="M373.554,120.701h-5.42v199.84h5.42c14.825,0,26.843-12.018,26.843-26.843V147.543
				C400.396,132.718,388.378,120.701,373.554,120.701z"/>
		</g>
		<g>
			<path class="st1" d="M373.554,120.701h-5.42v172.997h32.263V147.543C400.396,132.718,388.378,120.701,373.554,120.701z"/>
		</g>
		<g>
			<path class="st2" d="M373.554,326.54H138.446c-18.109,0-32.843-14.733-32.843-32.843V147.543
				c0-18.11,14.733-32.843,32.843-32.843h235.107c18.109,0,32.843,14.733,32.843,32.843v146.154
				C406.396,311.807,391.663,326.54,373.554,326.54z M138.446,126.7c-11.493,0-20.843,9.35-20.843,20.843v146.154
				c0,11.493,9.35,20.843,20.843,20.843h235.107c11.493,0,20.843-9.35,20.843-20.843V147.543c0-11.493-9.35-20.843-20.843-20.843
				H138.446z"/>
		</g>
		<g>
			<path class="st2" d="M400.396,299.698H111.604c-3.313,0-6-2.686-6-6V147.543c0-18.11,14.733-32.843,32.843-32.843h235.107
				c18.109,0,32.843,14.733,32.843,32.843v146.154C406.396,297.011,403.71,299.698,400.396,299.698z M117.604,287.698h276.793
				V147.543c0-11.493-9.35-20.843-20.843-20.843H138.446c-11.493,0-20.843,9.35-20.843,20.843V287.698z"/>
		</g>
		<g>
			<path class="st1" d="M308.577,391.299H203.423v-19.75c0-5.238,4.246-9.484,9.484-9.484h86.186c5.238,0,9.484,4.246,9.484,9.484
				V391.299z"/>
		</g>
		<g>
			<rect x="235.238" y="320.54" class="st6" width="41.525" height="41.525"/>
		</g>
		<g>
			<path class="st2" d="M276.763,368.065h-41.525c-3.313,0-6-2.686-6-6V320.54c0-3.314,2.687-6,6-6h41.525c3.313,0,6,2.686,6,6
				v41.525C282.763,365.379,280.076,368.065,276.763,368.065z M241.238,356.065h29.525V326.54h-29.525V356.065z"/>
		</g>
		<g>
			<path class="st2" d="M308.577,397.3H203.423c-3.313,0-6-2.686-6-6v-19.75c0-8.538,6.946-15.484,15.484-15.484h86.186
				c8.538,0,15.484,6.946,15.484,15.484v19.75C314.577,394.613,311.891,397.3,308.577,397.3z M209.423,385.3h93.154v-13.75
				c0-1.921-1.563-3.484-3.484-3.484h-86.186c-1.921,0-3.484,1.563-3.484,3.484V385.3z"/>
		</g>
		<g>
			<path class="st3" d="M290.941,256.791h-69.881c-8.288,0-15.007-6.719-15.007-15.007v-69.881c0-8.288,6.719-15.007,15.007-15.007
				h69.881c8.288,0,15.007,6.719,15.007,15.007v69.881C305.948,250.072,299.229,256.791,290.941,256.791z"/>
		</g>
		<g>
			<path class="st2" d="M290.94,262.791H221.06c-11.583,0-21.007-9.424-21.007-21.007v-69.881c0-11.583,9.424-21.007,21.007-21.007
				h69.881c11.583,0,21.007,9.424,21.007,21.007v69.881C311.947,253.367,302.523,262.791,290.94,262.791z M221.06,162.896
				c-4.967,0-9.007,4.041-9.007,9.007v69.881c0,4.967,4.041,9.007,9.007,9.007h69.881c4.967,0,9.007-4.041,9.007-9.007v-69.881
				c0-4.967-4.04-9.007-9.007-9.007H221.06z"/>
		</g>
		<g>
			<polygon class="st4" points="239.684,218.792 239.684,236.286 272.316,236.286 272.316,218.792 284.863,218.792 284.863,177.401 
				227.137,177.401 227.137,218.792 			"/>
		</g>
		<g>
			<path class="st2" d="M272.315,242.286h-32.631c-3.313,0-6-2.686-6-6v-11.494h-6.547c-3.313,0-6-2.686-6-6v-41.392
				c0-3.314,2.687-6,6-6h57.726c3.313,0,6,2.686,6,6v41.392c0,3.314-2.687,6-6,6h-6.548v11.494
				C278.315,239.6,275.629,242.286,272.315,242.286z M245.684,230.286h20.631v-11.494c0-3.314,2.687-6,6-6h6.548v-29.392h-45.726
				v29.392h6.547c3.313,0,6,2.686,6,6V230.286z"/>
		</g>
		<g>
			<g>
				<path class="st2" d="M328.55,238.41c-1.536,0-3.071-0.586-4.242-1.757c-2.344-2.343-2.344-6.142,0-8.485l51.482-51.482
					c2.342-2.344,6.143-2.343,8.484,0c2.344,2.343,2.344,6.142,0,8.485l-51.482,51.482
					C331.621,237.824,330.085,238.41,328.55,238.41z"/>
			</g>
			<g>
				<path class="st2" d="M380.032,238.41c-1.535,0-3.071-0.586-4.242-1.757l-51.482-51.482c-2.344-2.343-2.344-6.142,0-8.485
					c2.342-2.343,6.143-2.343,8.484,0l51.482,51.482c2.344,2.343,2.344,6.142,0,8.485
					C383.104,237.825,381.567,238.41,380.032,238.41z"/>
			</g>
			<g>
				<path class="st2" d="M131.968,238.41c-1.536,0-3.071-0.586-4.243-1.757c-2.343-2.343-2.343-6.142,0-8.485l51.482-51.482
					c2.343-2.343,6.142-2.343,8.485,0c2.343,2.343,2.343,6.142,0,8.485l-51.482,51.482
					C135.039,237.824,133.503,238.41,131.968,238.41z"/>
			</g>
			<g>
				<path class="st2" d="M183.45,238.41c-1.536,0-3.071-0.586-4.243-1.757l-51.482-51.482c-2.343-2.343-2.343-6.142,0-8.485
					c2.343-2.343,6.143-2.343,8.485,0l51.482,51.482c2.343,2.343,2.343,6.142,0,8.485C186.521,237.825,184.986,238.41,183.45,238.41
					z"/>
			</g>
		</g>
		<g>
			<g>
				<path class="st2" d="M245.406,196.702c-3.313,0-6-2.686-6-6v-13.302c0-3.314,2.687-6,6-6s6,2.686,6,6v13.302
					C251.406,194.016,248.719,196.702,245.406,196.702z"/>
			</g>
			<g>
				<path class="st2" d="M266.594,196.702c-3.313,0-6-2.686-6-6v-13.302c0-3.314,2.687-6,6-6s6,2.686,6,6v13.302
					C272.594,194.016,269.907,196.702,266.594,196.702z"/>
			</g>
		</g>
	</g>
</g>
</svg>
