<?xml version="1.0" encoding="utf-8"?>
<!-- Generator: Adobe Illustrator 22.1.0, SVG Export Plug-In . SVG Version: 6.00 Build 0)  -->
<svg version="1.1" id="Icon_Set" xmlns="http://www.w3.org/2000/svg" xmlns:xlink="http://www.w3.org/1999/xlink" x="0px" y="0px"
	 viewBox="0 0 512 512" style="enable-background:new 0 0 512 512;" xml:space="preserve">
<style type="text/css">
	.st0{fill:#F0C48A;}
	.st1{fill:#D3E6F8;}
	.st2{fill:#4C4372;}
	.st3{fill:#FD919E;}
	.st4{fill:#E8677D;}
	.st5{fill:#FFFFFF;}
	.st6{fill:#A4CFF2;}
	.st7{fill:#7BABF1;}
</style>
<g id="Login">
	<g>
		<g>
			<circle class="st0" cx="256" cy="256" r="207"/>
		</g>
	</g>
	<g>
		<g>
			<path class="st1" d="M367.163,367.564H221.86c-21.491,0-38.913-17.422-38.913-38.913V183.349
				c0-21.491,17.422-38.913,38.913-38.913h145.303c21.491,0,38.913,17.422,38.913,38.913v145.303
				C406.076,350.142,388.654,367.564,367.163,367.564z"/>
		</g>
		<g>
			<path class="st3" d="M337.268,321.657h-85.513c-12.648,0-22.901-10.253-22.901-22.901v-85.513
				c0-12.648,10.253-22.901,22.901-22.901h85.513c12.648,0,22.901,10.253,22.901,22.901v85.513
				C360.169,311.404,349.916,321.657,337.268,321.657z"/>
		</g>
		<g>
			<path class="st2" d="M367.163,373.564H221.86c-24.765,0-44.913-20.147-44.913-44.913V183.349
				c0-24.766,20.148-44.913,44.913-44.913h145.303c24.765,0,44.913,20.147,44.913,44.913v145.303
				C412.076,353.417,391.928,373.564,367.163,373.564z M221.86,150.436c-18.148,0-32.913,14.765-32.913,32.913v145.303
				c0,18.148,14.765,32.913,32.913,32.913h145.303c18.148,0,32.913-14.765,32.913-32.913V183.349
				c0-18.148-14.765-32.913-32.913-32.913H221.86z"/>
		</g>
		<g>
			<path class="st2" d="M337.268,327.657h-85.512c-15.936,0-28.901-12.965-28.901-28.901v-85.512
				c0-15.937,12.965-28.901,28.901-28.901h85.512c15.936,0,28.901,12.965,28.901,28.901v85.512
				C366.168,314.692,353.204,327.657,337.268,327.657z M251.755,196.343c-9.319,0-16.901,7.582-16.901,16.901v85.512
				c0,9.319,7.582,16.901,16.901,16.901h85.512c9.319,0,16.901-7.582,16.901-16.901v-85.512c0-9.319-7.582-16.901-16.901-16.901
				H251.755z"/>
		</g>
		<g>
			<g>
				<polygon class="st7" points="212.259,232.264 105.924,232.264 105.924,279.736 212.259,279.736 212.259,306.223 
					245.939,281.111 279.618,256 245.939,230.889 212.259,205.777 				"/>
			</g>
			<g>
				<path class="st2" d="M212.258,312.223c-0.918,0-1.839-0.21-2.69-0.638c-2.028-1.018-3.309-3.093-3.309-5.362v-20.486H105.924
					c-3.314,0-6-2.687-6-6v-47.473c0-3.313,2.686-6,6-6h100.335v-20.486c0-2.27,1.281-4.345,3.309-5.362
					c2.029-1.021,4.458-0.804,6.277,0.552l67.359,50.223c1.519,1.133,2.414,2.916,2.414,4.811s-0.895,3.678-2.414,4.811
					l-67.359,50.223C214.789,311.82,213.527,312.223,212.258,312.223z M111.924,273.736h100.335c3.313,0,6,2.687,6,6v14.528
					L269.58,256l-51.321-38.265v14.528c0,3.313-2.687,6-6,6H111.924V273.736z"/>
			</g>
		</g>
	</g>
</g>
</svg>
