<?xml version="1.0" encoding="utf-8"?>
<!-- Generator: Adobe Illustrator 22.1.0, SVG Export Plug-In . SVG Version: 6.00 Build 0)  -->
<svg version="1.1" id="Icon_Set" xmlns="http://www.w3.org/2000/svg" xmlns:xlink="http://www.w3.org/1999/xlink" x="0px" y="0px"
	 viewBox="0 0 512 512" style="enable-background:new 0 0 512 512;" xml:space="preserve">
<style type="text/css">
	.st0{fill:#F0C48A;}
	.st1{fill:#D3E6F8;}
	.st2{fill:#4C4372;}
	.st3{fill:#FD919E;}
	.st4{fill:#E8677D;}
	.st5{fill:#FFFFFF;}
	.st6{fill:#A4CFF2;}
	.st7{fill:#7BABF1;}
</style>
<g id="Logout">
	<g>
		<g>
			<circle class="st0" cx="256" cy="256" r="207"/>
		</g>
	</g>
	<g>
		<g>
			<path class="st1" d="M373.663,367.564H228.36c-21.491,0-38.913-17.422-38.913-38.913V183.349
				c0-21.491,17.422-38.913,38.913-38.913h145.303c21.491,0,38.913,17.422,38.913,38.913v145.303
				C412.576,350.142,395.154,367.564,373.663,367.564z"/>
		</g>
		<g>
			<path class="st7" d="M343.768,321.657h-85.513c-12.648,0-22.901-10.253-22.901-22.901v-85.513
				c0-12.648,10.253-22.901,22.901-22.901h85.513c12.648,0,22.901,10.253,22.901,22.901v85.513
				C366.669,311.404,356.416,321.657,343.768,321.657z"/>
		</g>
		<g>
			<path class="st2" d="M373.663,373.564H228.36c-24.766,0-44.913-20.147-44.913-44.913V183.349
				c0-24.766,20.147-44.913,44.913-44.913h145.303c24.766,0,44.913,20.147,44.913,44.913v145.303
				C418.576,353.417,398.429,373.564,373.663,373.564z M228.36,150.436c-18.148,0-32.913,14.765-32.913,32.913v145.303
				c0,18.148,14.765,32.913,32.913,32.913h145.303c18.148,0,32.913-14.765,32.913-32.913V183.349
				c0-18.148-14.765-32.913-32.913-32.913H228.36z"/>
		</g>
		<g>
			<path class="st2" d="M343.768,327.657h-85.513c-15.936,0-28.9-12.965-28.9-28.901v-85.512c0-15.937,12.965-28.901,28.9-28.901
				h85.513c15.937,0,28.901,12.965,28.901,28.901v85.512C372.669,314.692,359.704,327.657,343.768,327.657z M258.255,196.343
				c-9.319,0-16.9,7.582-16.9,16.901v85.512c0,9.319,7.581,16.901,16.9,16.901h85.513c9.319,0,16.901-7.582,16.901-16.901v-85.512
				c0-9.319-7.582-16.901-16.901-16.901H258.255z"/>
		</g>
		<g>
			<g>
				<polygon class="st3" points="166.783,279.736 273.118,279.736 273.118,232.264 166.783,232.264 166.783,205.777 
					133.104,230.889 99.424,256 133.104,281.111 166.783,306.223 				"/>
			</g>
			<g>
				<path class="st2" d="M166.784,312.223c-1.27,0-2.531-0.402-3.588-1.189l-67.358-50.223c-1.52-1.133-2.414-2.916-2.414-4.811
					s0.895-3.678,2.414-4.811l67.358-50.223c1.82-1.356,4.25-1.571,6.277-0.552c2.029,1.018,3.31,3.093,3.31,5.362v20.486h100.335
					c3.313,0,6,2.687,6,6v47.473c0,3.313-2.687,6-6,6H172.783v20.486c0,2.27-1.28,4.345-3.31,5.362
					C168.623,312.013,167.701,312.223,166.784,312.223z M109.462,256l51.321,38.265v-14.528c0-3.313,2.687-6,6-6h100.335v-35.473
					H166.783c-3.313,0-6-2.687-6-6v-14.528L109.462,256z"/>
			</g>
		</g>
	</g>
</g>
</svg>
