<?xml version="1.0" encoding="utf-8"?>
<!-- Generator: Adobe Illustrator 22.1.0, SVG Export Plug-In . SVG Version: 6.00 Build 0)  -->
<svg version="1.1" id="Icon_Set" xmlns="http://www.w3.org/2000/svg" xmlns:xlink="http://www.w3.org/1999/xlink" x="0px" y="0px"
	 viewBox="0 0 512 512" style="enable-background:new 0 0 512 512;" xml:space="preserve">
<style type="text/css">
	.st0{fill:#F0C48A;}
	.st1{fill:#D3E6F8;}
	.st2{fill:#4C4372;}
	.st3{fill:#FD919E;}
	.st4{fill:#E8677D;}
	.st5{fill:#FFFFFF;}
	.st6{fill:#A4CFF2;}
	.st7{fill:#7BABF1;}
</style>
<g id="Mobile_Database">
	<g>
		<g>
			<circle class="st0" cx="256" cy="256" r="207"/>
		</g>
	</g>
	<g>
		<g>
			<g>
				<path class="st1" d="M336.206,414.394H175.794c-12.41,0-22.471-10.06-22.471-22.471V120.077c0-12.41,10.06-22.471,22.471-22.471
					h160.412c12.41,0,22.471,10.06,22.471,22.471v271.846C358.677,404.333,348.616,414.394,336.206,414.394z"/>
			</g>
			<g>
				<path class="st6" d="M336.206,97.606h-7.357v316.787h7.357c12.41,0,22.471-10.06,22.471-22.471V120.077
					C358.677,107.667,348.616,97.606,336.206,97.606z"/>
			</g>
			<g>
				<circle class="st7" cx="256" cy="386.251" r="13.24"/>
			</g>
			<g>
				<rect x="153.323" y="139.883" class="st5" width="205.353" height="218.255"/>
			</g>
			<g>
				<rect x="328.849" y="139.883" class="st1" width="29.828" height="218.255"/>
			</g>
			<g>
				<path class="st2" d="M336.206,420.394H175.794c-15.699,0-28.471-12.771-28.471-28.471V120.077
					c0-15.699,12.772-28.471,28.471-28.471h160.412c15.699,0,28.471,12.771,28.471,28.471v271.846
					C364.677,407.622,351.905,420.394,336.206,420.394z M175.794,103.606c-9.082,0-16.471,7.389-16.471,16.471v271.846
					c0,9.082,7.389,16.471,16.471,16.471h160.412c9.082,0,16.471-7.389,16.471-16.471V120.077c0-9.082-7.389-16.471-16.471-16.471
					H175.794z"/>
			</g>
			<g>
				<path class="st2" d="M358.677,364.139H153.323c-3.313,0-6-2.687-6-6V139.884c0-3.313,2.687-6,6-6h205.354c3.313,0,6,2.687,6,6
					v218.255C364.677,361.452,361.99,364.139,358.677,364.139z M159.323,352.139h193.354V145.884H159.323V352.139z"/>
			</g>
			<g>
				<path class="st2" d="M256,405.49c-10.609,0-19.24-8.631-19.24-19.239c0-10.609,8.631-19.24,19.24-19.24s19.24,8.631,19.24,19.24
					C275.24,396.859,266.609,405.49,256,405.49z M256,379.011c-3.992,0-7.24,3.248-7.24,7.24s3.248,7.239,7.24,7.239
					s7.24-3.247,7.24-7.239S259.992,379.011,256,379.011z"/>
			</g>
			<g>
				<g>
					<path class="st2" d="M284.594,125.495h-41.621c-3.313,0-6-2.687-6-6s2.687-6,6-6h41.621c3.313,0,6,2.687,6,6
						S287.908,125.495,284.594,125.495z"/>
				</g>
				<g>
					<path class="st2" d="M227.448,125.495h-0.042c-3.313,0-6-2.687-6-6s2.687-6,6-6s6.021,2.687,6.021,6
						S230.761,125.495,227.448,125.495z"/>
				</g>
			</g>
		</g>
		<g>
			<g>
				<path class="st3" d="M256,163.58c-36.105,0-65.373,11.759-65.373,26.265v119.22c0,14.506,29.269,26.265,65.373,26.265
					s65.373-11.76,65.373-26.265v-119.22C321.373,175.339,292.105,163.58,256,163.58z"/>
			</g>
			<g>
				<path class="st4" d="M300.564,328.279c12.801-4.795,20.809-11.628,20.809-19.215v-119.22c0-5.683-4.493-10.944-12.128-15.242
					h-8.681V328.279z"/>
			</g>
			<g>
				<path class="st3" d="M256,163.58c-36.105,0-65.373,11.759-65.373,26.265v39.74c0,14.506,29.269,26.265,65.373,26.265
					s65.373-11.759,65.373-26.265v-39.74C321.373,175.339,292.105,163.58,256,163.58z"/>
			</g>
			<g>
				<path class="st4" d="M300.564,248.799c12.801-4.795,20.809-11.628,20.809-19.215v-39.74c0-5.683-4.493-10.944-12.128-15.242
					h-8.681V248.799z"/>
			</g>
			<g>
				<path class="st3" d="M256,335.33c36.105,0,65.373-11.76,65.373-26.265v-39.74c0,14.506-29.269,26.265-65.373,26.265
					s-65.373-11.76-65.373-26.265v39.74C190.627,323.57,219.895,335.33,256,335.33z"/>
			</g>
			<g>
				<path class="st4" d="M300.564,288.539v39.74c12.801-4.795,20.809-11.628,20.809-19.215v-39.74
					C321.373,276.911,313.365,283.744,300.564,288.539z"/>
			</g>
			<g>
				<ellipse class="st7" cx="256" cy="186.647" rx="64.874" ry="23.067"/>
			</g>
			<g>
				<circle class="st2" cx="217.037" cy="226.761" r="8.152"/>
			</g>
			<g>
				<circle class="st2" cx="217.037" cy="269.913" r="8.152"/>
			</g>
			<g>
				<circle class="st2" cx="217.037" cy="310.065" r="8.152"/>
			</g>
			<g>
				<path class="st2" d="M256,341.33c-34.6,0-71.374-11.309-71.374-32.266v-119.22c0-20.957,36.773-32.266,71.374-32.266
					s71.374,11.309,71.374,32.266v119.22C327.374,330.021,290.6,341.33,256,341.33z M256,169.579
					c-16.714,0-32.336,2.578-43.989,7.261c-9.489,3.812-15.384,8.796-15.384,13.005v119.22c0,4.209,5.895,9.192,15.384,13.005
					c11.653,4.683,27.275,7.261,43.989,7.261s32.336-2.578,43.989-7.261c9.489-3.812,15.384-8.796,15.384-13.005v-119.22
					c0-4.209-5.895-9.192-15.384-13.005C288.336,172.157,272.714,169.579,256,169.579z"/>
			</g>
			<g>
				<path class="st2" d="M256,341.33c-34.6,0-71.374-11.309-71.374-32.266v-39.74c0-3.313,2.687-6,6-6c3.314,0,6,2.687,6,6
					c0,8.263,23.129,20.266,59.374,20.266c16.714,0,32.336-2.578,43.989-7.261c9.489-3.812,15.384-8.796,15.384-13.005
					c0-3.313,2.686-6,6-6c3.313,0,6,2.687,6,6v39.74C327.374,330.021,290.6,341.33,256,341.33z M196.626,287.815v21.249
					c0,8.263,23.129,20.266,59.374,20.266c16.714,0,32.336-2.578,43.989-7.261c9.489-3.812,15.384-8.796,15.384-13.005v-21.249
					c-13.653,9.032-36.969,13.774-59.374,13.774S210.279,296.848,196.626,287.815z"/>
			</g>
			<g>
				<path class="st2" d="M256,215.715c-36.713,0-65.752-11.239-70.617-27.331c-0.342-1.132-0.342-2.341,0-3.473
					c4.865-16.093,33.904-27.332,70.617-27.332s65.752,11.239,70.617,27.332c0.342,1.132,0.342,2.341,0,3.473
					C321.752,204.476,292.713,215.715,256,215.715z M197.664,186.647c2.32,3.81,8.41,7.726,16.87,10.76
					c11.343,4.067,26.07,6.308,41.466,6.308s30.123-2.24,41.466-6.308c8.459-3.034,14.549-6.95,16.87-10.76
					c-2.32-3.81-8.411-7.727-16.87-10.761c-11.343-4.067-26.069-6.308-41.466-6.308s-30.123,2.24-41.466,6.308
					C206.075,178.921,199.984,182.838,197.664,186.647z"/>
			</g>
			<g>
				<path class="st2" d="M256,261.85c-34.6,0-71.374-11.308-71.374-32.265v-39.74c0-20.957,36.773-32.266,71.374-32.266
					s71.374,11.309,71.374,32.266v39.74C327.374,250.542,290.6,261.85,256,261.85z M256,169.579
					c-16.714,0-32.336,2.578-43.989,7.261c-9.489,3.812-15.384,8.796-15.384,13.005v39.74c0,8.263,23.129,20.265,59.374,20.265
					c16.714,0,32.336-2.578,43.989-7.26c9.489-3.812,15.384-8.796,15.384-13.005v-39.74
					C315.374,181.582,292.244,169.579,256,169.579z"/>
			</g>
		</g>
	</g>
</g>
</svg>
