<?xml version="1.0" encoding="utf-8"?>
<!-- Generator: Adobe Illustrator 22.1.0, SVG Export Plug-In . SVG Version: 6.00 Build 0)  -->
<svg version="1.1" id="Icon_Set" xmlns="http://www.w3.org/2000/svg" xmlns:xlink="http://www.w3.org/1999/xlink" x="0px" y="0px"
	 viewBox="0 0 512 512" style="enable-background:new 0 0 512 512;" xml:space="preserve">
<style type="text/css">
	.st0{fill:#F0C48A;}
	.st1{fill:#D3E6F8;}
	.st2{fill:#4C4372;}
	.st3{fill:#FD919E;}
	.st4{fill:#E8677D;}
	.st5{fill:#FFFFFF;}
	.st6{fill:#A4CFF2;}
	.st7{fill:#7BABF1;}
</style>
<g id="Mobile_Network">
	<g>
		<g>
			<circle class="st0" cx="256" cy="256" r="207"/>
		</g>
	</g>
	<g>
		<g>
			<path class="st1" d="M336.206,414.394H175.794c-12.41,0-22.471-10.06-22.471-22.471V120.077c0-12.41,10.06-22.471,22.471-22.471
				h160.412c12.41,0,22.471,10.06,22.471,22.471v271.846C358.677,404.333,348.616,414.394,336.206,414.394z"/>
		</g>
		<g>
			<path class="st6" d="M336.206,97.606h-7.357v316.787h7.357c12.41,0,22.471-10.06,22.471-22.471V120.077
				C358.677,107.667,348.616,97.606,336.206,97.606z"/>
		</g>
		<g>
			<circle class="st7" cx="256" cy="386.251" r="13.24"/>
		</g>
		<g>
			<rect x="153.323" y="139.883" class="st5" width="205.353" height="218.255"/>
		</g>
		<g>
			<rect x="328.849" y="139.883" class="st1" width="29.828" height="218.255"/>
		</g>
		<g>
			<path class="st2" d="M336.206,420.394H175.794c-15.699,0-28.471-12.772-28.471-28.471V120.077
				c0-15.699,12.772-28.471,28.471-28.471h160.412c15.699,0,28.471,12.772,28.471,28.471v271.846
				C364.677,407.622,351.905,420.394,336.206,420.394z M175.794,103.606c-9.082,0-16.471,7.389-16.471,16.471v271.846
				c0,9.082,7.389,16.471,16.471,16.471h160.412c9.082,0,16.471-7.389,16.471-16.471V120.077c0-9.082-7.389-16.471-16.471-16.471
				H175.794z"/>
		</g>
		<g>
			<path class="st2" d="M358.677,364.139H153.323c-3.313,0-6-2.687-6-6V139.883c0-3.314,2.687-6,6-6h205.354c3.313,0,6,2.686,6,6
				v218.255C364.677,361.452,361.99,364.139,358.677,364.139z M159.323,352.139h193.354V145.883H159.323V352.139z"/>
		</g>
		<g>
			<path class="st2" d="M256,405.49c-10.609,0-19.24-8.631-19.24-19.24s8.631-19.24,19.24-19.24s19.24,8.631,19.24,19.24
				S266.609,405.49,256,405.49z M256,379.011c-3.992,0-7.24,3.248-7.24,7.24s3.248,7.24,7.24,7.24s7.24-3.248,7.24-7.24
				S259.992,379.011,256,379.011z"/>
		</g>
		<g>
			<g>
				<path class="st2" d="M284.594,125.496h-41.621c-3.313,0-6-2.687-6-6s2.687-6,6-6h41.621c3.313,0,6,2.687,6,6
					S287.908,125.496,284.594,125.496z"/>
			</g>
			<g>
				<path class="st2" d="M227.448,125.496h-0.042c-3.313,0-6-2.687-6-6s2.687-6,6-6s6.021,2.687,6.021,6
					S230.761,125.496,227.448,125.496z"/>
			</g>
		</g>
		<g>
			<circle class="st3" cx="256" cy="249.099" r="72.986"/>
		</g>
		<g>
			<path class="st2" d="M256,328.085c-43.553,0-78.986-35.433-78.986-78.986c0-43.553,35.433-78.986,78.986-78.986
				s78.986,35.433,78.986,78.986C334.986,292.652,299.553,328.085,256,328.085z M256,182.113c-36.937,0-66.986,30.05-66.986,66.986
				c0,36.936,30.05,66.986,66.986,66.986s66.986-30.05,66.986-66.986C322.986,212.163,292.937,182.113,256,182.113z"/>
		</g>
		<g>
			<g>
				<path class="st2" d="M292.859,257.97c-1.536,0-3.071-0.586-4.243-1.757c-17.984-17.985-47.249-17.985-65.233,0
					c-2.343,2.343-6.143,2.343-8.485,0c-2.343-2.343-2.343-6.142,0-8.485c22.664-22.664,59.54-22.664,82.204,0
					c2.343,2.343,2.343,6.142,0,8.485C295.931,257.384,294.395,257.97,292.859,257.97z"/>
			</g>
			<g>
				<path class="st2" d="M278.427,272.403c-1.536,0-3.071-0.586-4.243-1.757c-4.857-4.857-11.315-7.532-18.184-7.532
					s-13.327,2.675-18.184,7.532c-2.343,2.343-6.142,2.343-8.485,0c-2.343-2.343-2.343-6.142,0-8.485
					c7.124-7.124,16.595-11.047,26.669-11.047s19.546,3.923,26.669,11.047c2.343,2.343,2.343,6.142,0,8.485
					C281.498,271.817,279.962,272.403,278.427,272.403z"/>
			</g>
			<g>
				<circle class="st2" cx="256" cy="283.401" r="8.84"/>
			</g>
			<g>
				<path class="st2" d="M307.282,243.548c-1.536,0-3.071-0.586-4.243-1.757c-12.564-12.565-29.27-19.484-47.039-19.484
					s-34.475,6.919-47.039,19.484c-2.343,2.343-6.143,2.343-8.485,0c-2.343-2.343-2.343-6.142,0-8.485
					c30.616-30.616,80.433-30.616,111.049,0c2.343,2.343,2.343,6.142,0,8.485C310.353,242.962,308.817,243.548,307.282,243.548z"/>
			</g>
		</g>
	</g>
</g>
</svg>
