<?xml version="1.0" encoding="utf-8"?>
<!-- Generator: Adobe Illustrator 22.1.0, SVG Export Plug-In . SVG Version: 6.00 Build 0)  -->
<svg version="1.1" id="Icon_Set" xmlns="http://www.w3.org/2000/svg" xmlns:xlink="http://www.w3.org/1999/xlink" x="0px" y="0px"
	 viewBox="0 0 512 512" style="enable-background:new 0 0 512 512;" xml:space="preserve">
<style type="text/css">
	.st0{fill:#F0C48A;}
	.st1{fill:#D3E6F8;}
	.st2{fill:#4C4372;}
	.st3{fill:#FD919E;}
	.st4{fill:#E8677D;}
	.st5{fill:#FFFFFF;}
	.st6{fill:#A4CFF2;}
	.st7{fill:#7BABF1;}
</style>
<g id="Mobile_App_Server">
	<g>
		<g>
			<circle class="st0" cx="256" cy="256" r="207"/>
		</g>
	</g>
	<g>
		<g>
			<g>
				<path class="st1" d="M336.206,414.394H175.794c-12.41,0-22.471-10.06-22.471-22.471V120.077c0-12.41,10.06-22.471,22.471-22.471
					h160.412c12.41,0,22.471,10.06,22.471,22.471v271.846C358.677,404.333,348.616,414.394,336.206,414.394z"/>
			</g>
			<g>
				<path class="st6" d="M336.206,97.606h-7.357v316.787h7.357c12.41,0,22.471-10.06,22.471-22.471V120.077
					C358.677,107.667,348.616,97.606,336.206,97.606z"/>
			</g>
			<g>
				<circle class="st7" cx="256" cy="386.251" r="13.24"/>
			</g>
			<g>
				<rect x="153.323" y="139.883" class="st5" width="205.353" height="218.255"/>
			</g>
			<g>
				<rect x="328.849" y="139.883" class="st1" width="29.828" height="218.255"/>
			</g>
			<g>
				<path class="st2" d="M336.206,420.394H175.794c-15.699,0-28.471-12.771-28.471-28.471V120.077
					c0-15.699,12.771-28.471,28.471-28.471h160.412c15.699,0,28.471,12.771,28.471,28.471v271.846
					C364.677,407.622,351.905,420.394,336.206,420.394z M175.794,103.606c-9.082,0-16.471,7.389-16.471,16.471v271.846
					c0,9.082,7.389,16.471,16.471,16.471h160.412c9.082,0,16.471-7.389,16.471-16.471V120.077c0-9.082-7.389-16.471-16.471-16.471
					H175.794z"/>
			</g>
			<g>
				<path class="st2" d="M358.677,364.139H153.323c-3.313,0-6-2.687-6-6V139.884c0-3.313,2.687-6,6-6h205.354c3.313,0,6,2.687,6,6
					v218.255C364.677,361.452,361.99,364.139,358.677,364.139z M159.323,352.139h193.354V145.884H159.323V352.139z"/>
			</g>
			<g>
				<path class="st2" d="M256,405.49c-10.609,0-19.24-8.631-19.24-19.239c0-10.609,8.631-19.24,19.24-19.24s19.24,8.631,19.24,19.24
					C275.24,396.859,266.609,405.49,256,405.49z M256,379.011c-3.992,0-7.24,3.248-7.24,7.24s3.248,7.239,7.24,7.239
					s7.24-3.247,7.24-7.239S259.992,379.011,256,379.011z"/>
			</g>
			<g>
				<g>
					<path class="st2" d="M284.595,125.495h-41.622c-3.313,0-6-2.687-6-6s2.687-6,6-6h41.622c3.313,0,6,2.687,6,6
						S287.908,125.495,284.595,125.495z"/>
				</g>
				<g>
					<path class="st2" d="M227.447,125.495h-0.042c-3.313,0-6-2.687-6-6s2.687-6,6-6s6.021,2.687,6.021,6
						S230.761,125.495,227.447,125.495z"/>
				</g>
			</g>
		</g>
		<g>
			<g>
				<g>
					<rect x="200.394" y="308.691" class="st7" width="24.139" height="17.542"/>
				</g>
				<g>
					<rect x="287.467" y="308.691" class="st7" width="24.139" height="17.542"/>
				</g>
				<g>
					<path class="st2" d="M224.533,332.232h-24.139c-3.313,0-6-2.687-6-6V308.69c0-3.313,2.687-6,6-6h24.139c3.313,0,6,2.687,6,6
						v17.542C230.533,329.546,227.847,332.232,224.533,332.232z M206.395,320.232h12.139v-5.542h-12.139V320.232z"/>
				</g>
				<g>
					<path class="st2" d="M311.605,332.232h-24.139c-3.313,0-6-2.687-6-6V308.69c0-3.313,2.687-6,6-6h24.139c3.313,0,6,2.687,6,6
						v17.542C317.605,329.546,314.919,332.232,311.605,332.232z M293.467,320.232h12.139v-5.542h-12.139V320.232z"/>
				</g>
			</g>
			<g>
				<g>
					<path class="st1" d="M318.885,264.849H193.115c-4.182,0-7.573-3.39-7.573-7.573v-28.697c0-4.182,3.39-7.573,7.573-7.573
						h125.771c4.182,0,7.573,3.39,7.573,7.573v28.697C326.458,261.458,323.068,264.849,318.885,264.849z"/>
				</g>
				<g>
					<path class="st6" d="M318.885,221.007h-12.814v43.842h12.814c4.182,0,7.573-3.39,7.573-7.573v-28.697
						C326.458,224.397,323.068,221.007,318.885,221.007z"/>
				</g>
				<g>
					<path class="st2" d="M318.886,270.849H193.114c-7.483,0-13.572-6.089-13.572-13.572v-28.697
						c0-7.483,6.089-13.572,13.572-13.572h125.771c7.483,0,13.572,6.089,13.572,13.572v28.697
						C332.458,264.76,326.369,270.849,318.886,270.849z M193.114,227.007c-0.867,0-1.572,0.705-1.572,1.572v28.697
						c0,0.867,0.705,1.572,1.572,1.572h125.771c0.867,0,1.572-0.705,1.572-1.572v-28.697c0-0.867-0.705-1.572-1.572-1.572H193.114z"
						/>
				</g>
				<g>
					<circle class="st2" cx="209.546" cy="242.928" r="9.152"/>
				</g>
			</g>
			<g>
				<g>
					<path class="st3" d="M318.885,308.691H193.115c-4.182,0-7.573-3.39-7.573-7.573v-28.697c0-4.182,3.39-7.573,7.573-7.573
						h125.771c4.182,0,7.573,3.39,7.573,7.573v28.697C326.458,305.3,323.068,308.691,318.885,308.691z"/>
				</g>
				<g>
					<path class="st4" d="M318.885,264.849h-12.814v43.842h12.814c4.182,0,7.573-3.39,7.573-7.573v-28.697
						C326.458,268.239,323.068,264.849,318.885,264.849z"/>
				</g>
				<g>
					<path class="st2" d="M318.886,314.69H193.114c-7.483,0-13.572-6.089-13.572-13.572v-28.696c0-7.484,6.089-13.573,13.572-13.573
						h125.771c7.483,0,13.572,6.089,13.572,13.573v28.696C332.458,308.602,326.369,314.69,318.886,314.69z M193.114,270.849
						c-0.867,0-1.572,0.706-1.572,1.573v28.696c0,0.867,0.705,1.572,1.572,1.572h125.771c0.867,0,1.572-0.705,1.572-1.572v-28.696
						c0-0.867-0.705-1.573-1.572-1.573H193.114z"/>
				</g>
				<g>
					<circle class="st2" cx="209.546" cy="286.77" r="9.152"/>
				</g>
			</g>
			<g>
				<g>
					<path class="st3" d="M318.885,221.007H193.115c-4.182,0-7.573-3.39-7.573-7.573v-28.697c0-4.182,3.39-7.573,7.573-7.573
						h125.771c4.182,0,7.573,3.39,7.573,7.573v28.697C326.458,217.616,323.068,221.007,318.885,221.007z"/>
				</g>
				<g>
					<path class="st4" d="M318.885,177.165h-12.814v43.842h12.814c4.182,0,7.573-3.39,7.573-7.573v-28.697
						C326.458,180.555,323.068,177.165,318.885,177.165z"/>
				</g>
				<g>
					<path class="st2" d="M318.886,227.007H193.114c-7.483,0-13.572-6.089-13.572-13.573v-28.696
						c0-7.483,6.089-13.572,13.572-13.572h125.771c7.483,0,13.572,6.089,13.572,13.572v28.696
						C332.458,220.918,326.369,227.007,318.886,227.007z M193.114,183.165c-0.867,0-1.572,0.705-1.572,1.572v28.696
						c0,0.867,0.705,1.573,1.572,1.573h125.771c0.867,0,1.572-0.706,1.572-1.573v-28.696c0-0.867-0.705-1.572-1.572-1.572H193.114z"
						/>
				</g>
				<g>
					<circle class="st2" cx="209.546" cy="199.086" r="9.152"/>
				</g>
			</g>
			<g>
				<path class="st2" d="M301.605,205.086h-58.558c-3.313,0-6-2.687-6-6s2.687-6,6-6h58.558c3.313,0,6,2.687,6,6
					S304.919,205.086,301.605,205.086z"/>
			</g>
			<g>
				<path class="st2" d="M301.605,248.928h-58.558c-3.313,0-6-2.687-6-6s2.687-6,6-6h58.558c3.313,0,6,2.687,6,6
					S304.919,248.928,301.605,248.928z"/>
			</g>
			<g>
				<path class="st2" d="M301.605,292.77h-58.558c-3.313,0-6-2.687-6-6s2.687-6,6-6h58.558c3.313,0,6,2.687,6,6
					S304.919,292.77,301.605,292.77z"/>
			</g>
		</g>
	</g>
</g>
</svg>
