<?xml version="1.0" encoding="utf-8"?>
<!-- Generator: Adobe Illustrator 22.1.0, SVG Export Plug-In . SVG Version: 6.00 Build 0)  -->
<svg version="1.1" id="Icon_Set" xmlns="http://www.w3.org/2000/svg" xmlns:xlink="http://www.w3.org/1999/xlink" x="0px" y="0px"
	 viewBox="0 0 512 512" style="enable-background:new 0 0 512 512;" xml:space="preserve">
<style type="text/css">
	.st0{fill:#F0C48A;}
	.st1{fill:#D3E6F8;}
	.st2{fill:#4C4372;}
	.st3{fill:#FD919E;}
	.st4{fill:#E8677D;}
	.st5{fill:#FFFFFF;}
	.st6{fill:#A4CFF2;}
	.st7{fill:#7BABF1;}
</style>
<g id="Mobile_Optimization">
	<g>
		<g>
			<circle class="st0" cx="256" cy="256" r="207"/>
		</g>
	</g>
	<g>
		<g>
			<path class="st1" d="M336.206,414.394H175.794c-12.41,0-22.471-10.06-22.471-22.471V120.077c0-12.41,10.06-22.471,22.471-22.471
				h160.412c12.41,0,22.471,10.06,22.471,22.471v271.846C358.677,404.333,348.616,414.394,336.206,414.394z"/>
		</g>
		<g>
			<path class="st6" d="M336.206,97.606h-7.357v316.787h7.357c12.41,0,22.471-10.06,22.471-22.471V120.077
				C358.677,107.667,348.616,97.606,336.206,97.606z"/>
		</g>
		<g>
			<circle class="st7" cx="256" cy="386.251" r="13.24"/>
		</g>
		<g>
			<rect x="153.323" y="139.883" class="st5" width="205.353" height="218.255"/>
		</g>
		<g>
			<rect x="328.849" y="139.883" class="st1" width="29.828" height="218.255"/>
		</g>
		<g>
			<path class="st2" d="M336.206,420.394H175.794c-15.699,0-28.471-12.772-28.471-28.471V120.077
				c0-15.699,12.771-28.471,28.471-28.471h160.412c15.699,0,28.471,12.772,28.471,28.471v271.846
				C364.677,407.622,351.905,420.394,336.206,420.394z M175.794,103.606c-9.082,0-16.471,7.389-16.471,16.471v271.846
				c0,9.082,7.389,16.471,16.471,16.471h160.412c9.082,0,16.471-7.389,16.471-16.471V120.077c0-9.082-7.389-16.471-16.471-16.471
				H175.794z"/>
		</g>
		<g>
			<path class="st2" d="M358.677,364.138H153.323c-3.313,0-6-2.686-6-6V139.884c0-3.314,2.687-6,6-6h205.354c3.313,0,6,2.686,6,6
				v218.255C364.677,361.452,361.99,364.138,358.677,364.138z M159.323,352.138h193.354V145.884H159.323V352.138z"/>
		</g>
		<g>
			<path class="st2" d="M256,405.49c-10.609,0-19.24-8.631-19.24-19.24s8.631-19.24,19.24-19.24s19.24,8.631,19.24,19.24
				S266.609,405.49,256,405.49z M256,379.011c-3.992,0-7.24,3.248-7.24,7.24s3.248,7.24,7.24,7.24s7.24-3.248,7.24-7.24
				S259.992,379.011,256,379.011z"/>
		</g>
		<g>
			<g>
				<path class="st2" d="M284.595,125.495h-41.622c-3.313,0-6-2.686-6-6s2.687-6,6-6h41.622c3.313,0,6,2.686,6,6
					S287.908,125.495,284.595,125.495z"/>
			</g>
			<g>
				<path class="st2" d="M227.447,125.495h-0.042c-3.313,0-6-2.686-6-6s2.687-6,6-6s6.021,2.686,6.021,6
					S230.761,125.495,227.447,125.495z"/>
			</g>
		</g>
		<g>
			<g>
				<path class="st3" d="M325.83,257.159v-21.812h-21.85c-1.248-5.511-3.417-10.67-6.343-15.307l15.452-15.452l-15.424-15.424
					l-15.452,15.452c-4.638-2.926-9.796-5.095-15.307-6.343v-21.85h-21.812v21.85c-5.511,1.248-10.67,3.417-15.307,6.343
					l-15.452-15.452l-15.424,15.424l15.452,15.452c-2.926,4.638-5.095,9.796-6.343,15.307h-21.85v21.812h21.85
					c1.248,5.511,3.417,10.67,6.343,15.307l-15.452,15.452l15.424,15.424l15.452-15.452c4.638,2.926,9.796,5.095,15.307,6.343v21.85
					h21.812v-21.85c5.511-1.248,10.67-3.417,15.307-6.343l15.452,15.452l15.424-15.424l-15.452-15.452
					c2.926-4.638,5.095-9.796,6.343-15.307H325.83z M256,275.313c-16.049,0-29.06-13.01-29.06-29.059
					c0-16.049,13.01-29.06,29.06-29.06c16.049,0,29.06,13.01,29.06,29.06C285.06,262.302,272.049,275.313,256,275.313z"/>
			</g>
			<g>
				<path class="st2" d="M266.906,322.083h-21.812c-3.313,0-6-2.686-6-6v-17.274c-2.857-0.917-5.631-2.067-8.301-3.44
					l-12.215,12.216c-1.126,1.125-2.651,1.757-4.243,1.757c-1.591,0-3.117-0.632-4.242-1.757l-15.424-15.424
					c-2.344-2.343-2.344-6.142-0.001-8.485l12.216-12.216c-1.373-2.67-2.522-5.443-3.439-8.301H186.17c-3.313,0-6-2.686-6-6v-21.812
					c0-3.314,2.687-6,6-6h17.274c0.917-2.858,2.066-5.631,3.439-8.301l-12.216-12.216c-2.343-2.343-2.343-6.142,0.001-8.485
					l15.424-15.424c1.125-1.125,2.651-1.757,4.242-1.757l0,0c1.592,0,3.117,0.632,4.243,1.758l12.215,12.216
					c2.671-1.374,5.443-2.522,8.301-3.44v-17.274c0-3.314,2.687-6,6-6h21.812c3.313,0,6,2.686,6,6v17.274
					c2.857,0.917,5.631,2.066,8.301,3.44l12.215-12.216c1.126-1.125,2.651-1.758,4.243-1.758c1.591,0,3.117,0.632,4.242,1.757
					l15.424,15.424c2.344,2.343,2.344,6.142,0.001,8.485l-12.216,12.216c1.373,2.67,2.522,5.443,3.439,8.301h17.274
					c3.313,0,6,2.686,6,6v21.812c0,3.314-2.687,6-6,6h-17.274c-0.917,2.858-2.066,5.631-3.439,8.301l12.216,12.216
					c2.343,2.343,2.343,6.142-0.001,8.485l-15.424,15.424c-1.125,1.125-2.651,1.757-4.242,1.757l0,0
					c-1.592,0-3.117-0.632-4.243-1.757l-12.215-12.216c-2.67,1.373-5.443,2.522-8.301,3.44v17.274
					C272.906,319.397,270.22,322.083,266.906,322.083z M251.094,310.083h9.812v-15.85c0-2.803,1.941-5.233,4.675-5.852
					c4.771-1.08,9.29-2.953,13.432-5.566c2.368-1.496,5.461-1.151,7.444,0.832l11.208,11.209l6.938-6.938l-11.209-11.209
					c-1.981-1.982-2.327-5.073-0.831-7.444c2.612-4.141,4.484-8.66,5.565-13.431c0.619-2.734,3.049-4.675,5.852-4.675h15.85v-9.812
					h-15.85c-2.803,0-5.232-1.941-5.852-4.675c-1.081-4.771-2.953-9.29-5.565-13.431c-1.496-2.371-1.15-5.462,0.831-7.444
					l11.209-11.209l-6.938-6.938l-11.208,11.209c-1.983,1.983-5.076,2.327-7.444,0.832c-4.143-2.613-8.661-4.486-13.432-5.566
					c-2.733-0.619-4.675-3.049-4.675-5.852v-15.85h-9.812v15.85c0,2.803-1.941,5.233-4.675,5.852
					c-4.771,1.08-9.289,2.953-13.432,5.566c-2.369,1.495-5.462,1.151-7.444-0.832l-11.208-11.209l-6.938,6.938l11.209,11.209
					c1.981,1.982,2.327,5.073,0.831,7.444c-2.612,4.141-4.484,8.66-5.565,13.431c-0.619,2.734-3.049,4.675-5.852,4.675h-15.85v9.812
					h15.85c2.803,0,5.232,1.941,5.852,4.675c1.081,4.771,2.953,9.29,5.565,13.431c1.496,2.371,1.15,5.462-0.831,7.444
					l-11.209,11.209l6.938,6.938l11.208-11.209c1.982-1.983,5.075-2.328,7.444-0.832c4.142,2.613,8.661,4.486,13.432,5.566
					c2.733,0.619,4.675,3.049,4.675,5.852V310.083z M256,281.312c-19.332,0-35.06-15.728-35.06-35.059
					c0-19.332,15.728-35.06,35.06-35.06s35.06,15.728,35.06,35.06C291.06,265.585,275.332,281.312,256,281.312z M256,223.194
					c-12.715,0-23.06,10.344-23.06,23.06c0,12.715,10.345,23.059,23.06,23.059s23.06-10.344,23.06-23.059
					C279.06,233.538,268.715,223.194,256,223.194z"/>
			</g>
		</g>
	</g>
</g>
</svg>
