<?xml version="1.0" encoding="utf-8"?>
<!-- Generator: Adobe Illustrator 22.1.0, SVG Export Plug-In . SVG Version: 6.00 Build 0)  -->
<svg version="1.1" id="Icon_Set" xmlns="http://www.w3.org/2000/svg" xmlns:xlink="http://www.w3.org/1999/xlink" x="0px" y="0px"
	 viewBox="0 0 512 512" style="enable-background:new 0 0 512 512;" xml:space="preserve">
<style type="text/css">
	.st0{fill:#F0C48A;}
	.st1{fill:#D3E6F8;}
	.st2{fill:#4C4372;}
	.st3{fill:#FD919E;}
	.st4{fill:#E8677D;}
	.st5{fill:#FFFFFF;}
	.st6{fill:#A4CFF2;}
	.st7{fill:#7BABF1;}
</style>
<g id="Monitoring_Software">
	<g>
		<g>
			<circle class="st0" cx="256" cy="256" r="207"/>
		</g>
	</g>
	<g>
		<g>
			<g>
				<path class="st1" d="M373.554,320.54H138.446c-14.825,0-26.843-12.018-26.843-26.843V147.543
					c0-14.825,12.018-26.843,26.843-26.843h235.107c14.825,0,26.843,12.018,26.843,26.843v146.154
					C400.396,308.522,388.378,320.54,373.554,320.54z"/>
			</g>
			<g>
				<path class="st5" d="M373.554,120.701H138.446c-14.825,0-26.843,12.018-26.843,26.843v146.154h288.792V147.543
					C400.396,132.718,388.378,120.701,373.554,120.701z"/>
			</g>
			<g>
				<path class="st6" d="M373.554,120.701h-5.42v199.84h5.42c14.825,0,26.843-12.018,26.843-26.843V147.543
					C400.396,132.718,388.378,120.701,373.554,120.701z"/>
			</g>
			<g>
				<path class="st1" d="M373.554,120.701h-5.42v172.997h32.263V147.543C400.396,132.718,388.378,120.701,373.554,120.701z"/>
			</g>
			<g>
				<path class="st2" d="M373.554,326.54H138.446c-18.109,0-32.843-14.733-32.843-32.843V147.543
					c0-18.109,14.733-32.843,32.843-32.843h235.107c18.109,0,32.843,14.733,32.843,32.843v146.154
					C406.396,311.807,391.663,326.54,373.554,326.54z M138.446,126.7c-11.493,0-20.843,9.35-20.843,20.843v146.154
					c0,11.493,9.35,20.843,20.843,20.843h235.107c11.493,0,20.843-9.35,20.843-20.843V147.543c0-11.493-9.35-20.843-20.843-20.843
					H138.446z"/>
			</g>
			<g>
				<path class="st2" d="M400.396,299.697H111.604c-3.313,0-6-2.687-6-6V147.543c0-18.109,14.733-32.843,32.843-32.843h235.107
					c18.109,0,32.842,14.733,32.842,32.843v146.154C406.396,297.011,403.709,299.697,400.396,299.697z M117.604,287.697h276.792
					V147.543c0-11.493-9.35-20.843-20.842-20.843H138.446c-11.493,0-20.843,9.35-20.843,20.843V287.697z"/>
			</g>
			<g>
				<path class="st1" d="M308.577,391.299H203.423v-19.75c0-5.238,4.246-9.484,9.484-9.484h86.186c5.238,0,9.484,4.246,9.484,9.484
					V391.299z"/>
			</g>
			<g>
				<rect x="235.238" y="320.54" class="st6" width="41.525" height="41.525"/>
			</g>
			<g>
				<path class="st2" d="M276.762,368.065h-41.524c-3.313,0-6-2.687-6-6V320.54c0-3.313,2.687-6,6-6h41.524c3.313,0,6,2.687,6,6
					v41.525C282.762,365.379,280.076,368.065,276.762,368.065z M241.238,356.065h29.524V326.54h-29.524V356.065z"/>
			</g>
			<g>
				<path class="st2" d="M308.577,397.3H203.423c-3.313,0-6-2.687-6-6v-19.751c0-8.537,6.946-15.483,15.484-15.483h86.187
					c8.538,0,15.484,6.946,15.484,15.483V391.3C314.577,394.613,311.891,397.3,308.577,397.3z M209.423,385.3h93.154v-13.751
					c0-1.921-1.563-3.483-3.484-3.483h-86.187c-1.921,0-3.484,1.562-3.484,3.483V385.3z"/>
			</g>
		</g>
		<g>
			<g>
				<path class="st3" d="M256,264.795L256,264.795c-25.416,0-46.02-20.604-46.02-46.02v-28.07h92.04v28.07
					C302.02,244.191,281.416,264.795,256,264.795z"/>
			</g>
			<g>
				<path class="st4" d="M229.823,228.702l-9.903,18.622c8.429,10.639,21.453,17.471,36.08,17.471h0
					c14.627,0,27.651-6.833,36.08-17.471l-9.903-18.622C271.025,207.732,240.975,207.732,229.823,228.702z"/>
			</g>
			<g>
				<circle class="st2" cx="256" cy="240.461" r="9.196"/>
			</g>
			<g>
				<rect x="194.412" y="156.142" class="st3" width="123.177" height="34.562"/>
			</g>
			<g>
				<path class="st2" d="M317.588,196.704H194.412c-3.313,0-6-2.687-6-6v-34.562c0-3.313,2.687-6,6-6h123.177c3.313,0,6,2.687,6,6
					v34.562C323.588,194.018,320.902,196.704,317.588,196.704z M200.412,184.704h111.177v-22.562H200.412V184.704z"/>
			</g>
			<g>
				<path class="st2" d="M256,270.795c-15.976,0-30.841-7.196-40.783-19.744c-1.481-1.869-1.714-4.438-0.595-6.544l9.903-18.622l0,0
					c6.297-11.841,18.063-18.91,31.474-18.91s25.177,7.069,31.474,18.91l9.903,18.622c1.12,2.105,0.886,4.675-0.595,6.544
					C286.841,263.599,271.976,270.795,256,270.795z M227.153,246.501c7.531,7.856,17.847,12.294,28.847,12.294
					s21.315-4.438,28.847-12.294l-7.967-14.981c-4.177-7.855-11.983-12.545-20.879-12.545s-16.702,4.689-20.879,12.545l-5.297-2.817
					l5.297,2.817L227.153,246.501z"/>
			</g>
			<g>
				<path class="st2" d="M256,270.795c-28.684,0-52.02-23.336-52.02-52.02v-28.071c0-3.313,2.687-6,6-6h92.04c3.313,0,6,2.687,6,6
					v28.071C308.02,247.459,284.684,270.795,256,270.795z M215.98,196.704v22.071c0,22.066,17.953,40.02,40.02,40.02
					s40.02-17.953,40.02-40.02v-22.071H215.98z"/>
			</g>
		</g>
		<g>
			<g>
				<path class="st2" d="M181.217,270.795h-46.639c-3.313,0-6-2.687-6-6s2.687-6,6-6h46.639c3.313,0,6,2.687,6,6
					S184.531,270.795,181.217,270.795z"/>
			</g>
			<g>
				<path class="st2" d="M181.217,250.306h-23.319c-3.313,0-6-2.687-6-6s2.687-6,6-6h23.319c3.313,0,6,2.687,6,6
					S184.531,250.306,181.217,250.306z"/>
			</g>
			<g>
				<path class="st2" d="M340.432,270.795c-3.313,0-6-2.687-6-6v-15.138c0-3.313,2.687-6,6-6s6,2.687,6,6v15.138
					C346.432,268.108,343.746,270.795,340.432,270.795z"/>
			</g>
			<g>
				<path class="st2" d="M358.927,270.795c-3.313,0-6-2.687-6-6v-15.138c0-3.313,2.687-6,6-6s6,2.687,6,6v15.138
					C364.927,268.108,362.24,270.795,358.927,270.795z"/>
			</g>
			<g>
				<path class="st2" d="M377.422,270.795c-3.313,0-6-2.687-6-6v-15.138c0-3.313,2.687-6,6-6s6,2.687,6,6v15.138
					C383.422,268.108,380.735,270.795,377.422,270.795z"/>
			</g>
		</g>
	</g>
</g>
</svg>
