<?xml version="1.0" encoding="utf-8"?>
<!-- Generator: Adobe Illustrator 22.1.0, SVG Export Plug-In . SVG Version: 6.00 Build 0)  -->
<svg version="1.1" id="Icon_Set" xmlns="http://www.w3.org/2000/svg" xmlns:xlink="http://www.w3.org/1999/xlink" x="0px" y="0px"
	 viewBox="0 0 512 512" style="enable-background:new 0 0 512 512;" xml:space="preserve">
<style type="text/css">
	.st0{fill:#F0C48A;}
	.st1{fill:#D3E6F8;}
	.st2{fill:#4C4372;}
	.st3{fill:#FD919E;}
	.st4{fill:#E8677D;}
	.st5{fill:#FFFFFF;}
	.st6{fill:#A4CFF2;}
	.st7{fill:#7BABF1;}
</style>
<g id="Network_Security">
	<g>
		<g>
			<circle class="st0" cx="256" cy="256" r="207"/>
		</g>
	</g>
	<g>
		<g>
			<g>
				<circle class="st1" cx="256" cy="256" r="150.785"/>
			</g>
			<g>
				<path class="st6" d="M256,105.215c-5.313,0-10.561,0.278-15.732,0.814c75.883,7.867,135.054,72.007,135.054,149.971
					c0,77.963-59.171,142.104-135.054,149.971c5.171,0.536,10.419,0.815,15.732,0.815c83.276,0,150.785-67.509,150.785-150.785
					C406.785,172.724,339.276,105.215,256,105.215z"/>
			</g>
			<g>
				<path class="st2" d="M256,412.785c-22.529,0-43.368-16.862-58.677-47.481C182.675,336.008,174.607,297.19,174.607,256
					s8.067-80.008,22.715-109.305c15.309-30.618,36.148-47.481,58.677-47.481s43.368,16.862,58.677,47.481
					c14.648,29.297,22.715,68.115,22.715,109.305s-8.067,80.008-22.715,109.304C299.368,395.923,278.529,412.785,256,412.785z
					 M256,111.215c-17.747,0-34.774,14.507-47.944,40.847c-13.832,27.663-21.449,64.575-21.449,103.938s7.617,76.275,21.449,103.938
					c13.17,26.341,30.197,40.847,47.944,40.847s34.774-14.506,47.944-40.847c13.832-27.663,21.449-64.575,21.449-103.938
					s-7.617-76.275-21.449-103.938C290.774,125.721,273.747,111.215,256,111.215z"/>
			</g>
			<g>
				<path class="st2" d="M256,412.785c-3.313,0-6-2.687-6-6V105.215c0-3.314,2.687-6,6-6s6,2.686,6,6v301.571
					C262,410.099,259.313,412.785,256,412.785z"/>
			</g>
			<g>
				<path class="st2" d="M406.785,262h-301.57c-3.313,0-6-2.686-6-6s2.687-6,6-6h301.57c3.313,0,6,2.686,6,6
					S410.099,262,406.785,262z"/>
			</g>
			<g>
				<path class="st2" d="M256,195.177c-44.629,0-87.233-12.289-116.886-33.717c-1.37-0.99-2.258-2.511-2.448-4.19
					c-0.19-1.679,0.337-3.36,1.452-4.631C167.911,118.687,210.877,99.215,256,99.215s88.089,19.472,117.882,53.424
					c1.115,1.27,1.642,2.951,1.452,4.631c-0.189,1.679-1.078,3.2-2.448,4.19C343.233,182.887,300.629,195.177,256,195.177z
					 M151.738,155.553c27.317,17.617,64.863,27.624,104.262,27.624s76.945-10.007,104.262-27.624
					C333.021,127.294,295.4,111.215,256,111.215S178.979,127.294,151.738,155.553z"/>
			</g>
			<g>
				<path class="st2" d="M256,412.785c-45.123,0-88.089-19.473-117.882-53.424c-1.115-1.27-1.642-2.951-1.452-4.631
					c0.189-1.679,1.078-3.2,2.448-4.19c29.654-21.428,72.257-33.717,116.886-33.717s87.232,12.289,116.886,33.717
					c1.37,0.99,2.258,2.511,2.448,4.19c0.19,1.679-0.337,3.36-1.452,4.631C344.089,393.312,301.123,412.785,256,412.785z
					 M151.738,356.447C178.979,384.706,216.6,400.785,256,400.785s77.021-16.079,104.262-44.338
					C332.945,338.83,295.398,328.823,256,328.823S179.055,338.83,151.738,356.447z"/>
			</g>
			<g>
				<path class="st2" d="M256,412.785c-86.452,0-156.785-70.333-156.785-156.785S169.548,99.215,256,99.215
					S412.785,169.548,412.785,256S342.452,412.785,256,412.785z M256,111.215c-79.835,0-144.785,64.95-144.785,144.785
					c0,79.835,64.95,144.785,144.785,144.785S400.785,335.835,400.785,256C400.785,176.165,335.835,111.215,256,111.215z"/>
			</g>
		</g>
		<g>
			<g>
				<circle class="st5" cx="256" cy="256" r="100.529"/>
			</g>
			<g>
				<g>
					<path class="st3" d="M288.318,323.592h-64.636c-5.173,0-9.367-4.194-9.367-9.367v-64.636c0-5.173,4.194-9.367,9.367-9.367
						h64.636c5.173,0,9.367,4.194,9.367,9.367v64.636C297.685,319.398,293.491,323.592,288.318,323.592z"/>
				</g>
				<g>
					<path class="st2" d="M267.85,274.49c0-7.189-6.02-12.973-13.295-12.584c-6.453,0.345-11.69,5.701-11.903,12.159
						c-0.155,4.704,2.277,8.842,5.974,11.133v10.107c0,3.657,2.965,6.622,6.622,6.622h0c3.657,0,6.622-2.965,6.622-6.622v-10.107
						C265.454,282.976,267.85,279.018,267.85,274.49z"/>
				</g>
				<g>
					<path class="st2" d="M288.318,329.592h-64.636c-8.474,0-15.367-6.894-15.367-15.367v-64.636
						c0-8.473,6.894-15.367,15.367-15.367h64.636c8.474,0,15.367,6.894,15.367,15.367v64.636
						C303.685,322.698,296.792,329.592,288.318,329.592z M223.682,246.222c-1.856,0-3.367,1.51-3.367,3.367v64.636
						c0,1.857,1.511,3.367,3.367,3.367h64.636c1.856,0,3.367-1.511,3.367-3.367v-64.636c0-1.857-1.511-3.367-3.367-3.367H223.682z"
						/>
				</g>
				<g>
					<path class="st2" d="M286.813,246.222c-3.313,0-6-2.686-6-6v-20.249c0-14.097-11.469-25.565-25.565-25.565
						s-25.565,11.469-25.565,25.565v20.249c0,3.314-2.687,6-6,6s-6-2.686-6-6v-20.249c0-20.714,16.852-37.565,37.565-37.565
						s37.565,16.852,37.565,37.565v20.249C292.813,243.535,290.126,246.222,286.813,246.222z"/>
				</g>
			</g>
			<g>
				<path class="st2" d="M256,362.529c-58.74,0-106.529-47.789-106.529-106.529c0-58.74,47.789-106.529,106.529-106.529
					S362.529,197.26,362.529,256C362.529,314.74,314.74,362.529,256,362.529z M256,161.471c-52.124,0-94.529,42.406-94.529,94.529
					s42.406,94.529,94.529,94.529s94.529-42.406,94.529-94.529S308.124,161.471,256,161.471z"/>
			</g>
		</g>
	</g>
</g>
</svg>
