<?xml version="1.0" encoding="utf-8"?>
<!-- Generator: Adobe Illustrator 22.1.0, SVG Export Plug-In . SVG Version: 6.00 Build 0)  -->
<svg version="1.1" id="Icon_Set" xmlns="http://www.w3.org/2000/svg" xmlns:xlink="http://www.w3.org/1999/xlink" x="0px" y="0px"
	 viewBox="0 0 512 512" style="enable-background:new 0 0 512 512;" xml:space="preserve">
<style type="text/css">
	.st0{fill:#F0C48A;}
	.st1{fill:#D3E6F8;}
	.st2{fill:#4C4372;}
	.st3{fill:#FD919E;}
	.st4{fill:#E8677D;}
	.st5{fill:#FFFFFF;}
	.st6{fill:#A4CFF2;}
	.st7{fill:#7BABF1;}
</style>
<g id="Network_Hub">
	<g>
		<g>
			<circle class="st0" cx="256" cy="256" r="207"/>
		</g>
	</g>
	<g>
		<g>
			<g>
				<path class="st2" d="M297.683,198.093c-1.536,0-3.071-0.586-4.243-1.757c-20.645-20.645-54.236-20.645-74.881,0
					c-2.343,2.343-6.142,2.344-8.485,0c-2.343-2.343-2.343-6.142,0-8.485c25.323-25.323,66.528-25.323,91.852,0
					c2.343,2.343,2.343,6.142,0,8.485C300.754,197.507,299.219,198.093,297.683,198.093z"/>
			</g>
			<g>
				<path class="st2" d="M281.361,214.415c-1.536,0-3.071-0.586-4.243-1.757c-5.641-5.641-13.141-8.748-21.119-8.748
					s-15.478,3.106-21.119,8.748c-2.343,2.343-6.143,2.343-8.485,0c-2.343-2.343-2.343-6.142,0-8.485
					c7.908-7.908,18.421-12.262,29.604-12.262s21.696,4.354,29.604,12.262c2.343,2.343,2.343,6.142,0,8.485
					C284.433,213.829,282.897,214.415,281.361,214.415z"/>
			</g>
			<g>
				<circle class="st2" cx="256" cy="227.637" r="9.997"/>
			</g>
			<g>
				<path class="st2" d="M313.992,181.784c-1.536,0-3.071-0.586-4.243-1.757c-29.638-29.638-77.861-29.638-107.499,0
					c-2.343,2.343-6.143,2.343-8.485,0c-2.343-2.343-2.343-6.142,0-8.485c34.316-34.316,90.153-34.316,124.47,0
					c2.343,2.343,2.343,6.142,0,8.485C317.063,181.198,315.528,181.784,313.992,181.784z"/>
			</g>
		</g>
		<g>
			<g>
				<path class="st1" d="M429.149,360.237H82.851c-6.793,0-12.3-5.507-12.3-12.3V271c0-6.793,5.507-12.3,12.3-12.3h346.298
					c6.793,0,12.3,5.507,12.3,12.3v76.937C441.449,354.73,435.942,360.237,429.149,360.237z"/>
			</g>
			<g>
				<path class="st6" d="M429.149,258.7h-35.724v101.537h35.724c6.793,0,12.3-5.507,12.3-12.3V271
					C441.449,264.207,435.942,258.7,429.149,258.7z"/>
			</g>
			<g>
				<path class="st2" d="M429.149,366.237H82.851c-10.09,0-18.3-8.209-18.3-18.3V271c0-10.09,8.209-18.3,18.3-18.3h346.298
					c10.09,0,18.3,8.209,18.3,18.3v76.937C447.449,358.027,439.239,366.237,429.149,366.237z M82.851,264.7
					c-3.474,0-6.3,2.826-6.3,6.3v76.937c0,3.474,2.826,6.3,6.3,6.3h346.298c3.474,0,6.3-2.826,6.3-6.3V271
					c0-3.474-2.826-6.3-6.3-6.3H82.851z"/>
			</g>
			<g>
				<rect x="270.597" y="281.36" class="st3" width="143.513" height="54.671"/>
			</g>
			<g>
				<rect x="393.424" y="281.36" class="st4" width="20.685" height="54.671"/>
			</g>
			<g>
				<rect x="97.89" y="281.36" class="st5" width="143.513" height="54.671"/>
			</g>
			<g>
				<rect x="97.89" y="308.696" class="st5" width="143.513" height="27.336"/>
			</g>
			<g>
				<path class="st2" d="M414.11,342.031H270.597c-3.313,0-6-2.687-6-6V281.36c0-3.313,2.687-6,6-6H414.11c3.313,0,6,2.687,6,6
					v54.671C420.11,339.345,417.423,342.031,414.11,342.031z M276.597,330.031H408.11V287.36H276.597V330.031z"/>
			</g>
			<g>
				<path class="st2" d="M241.403,342.031H97.89c-3.313,0-6-2.687-6-6V281.36c0-3.313,2.687-6,6-6h143.513c3.313,0,6,2.687,6,6
					v54.671C247.403,339.345,244.716,342.031,241.403,342.031z M103.89,330.031h131.513V287.36H103.89V330.031z"/>
			</g>
			<g>
				<path class="st2" d="M241.403,342.031H97.89c-3.313,0-6-2.687-6-6v-27.335c0-3.313,2.687-6,6-6h143.513c3.313,0,6,2.687,6,6
					v27.335C247.403,339.345,244.716,342.031,241.403,342.031z M103.89,330.031h131.513v-15.335H103.89V330.031z"/>
			</g>
			<g>
				<g>
					<path class="st2" d="M97.89,342.031c-3.313,0-6-2.687-6-6V281.36c0-3.313,2.687-6,6-6s6,2.687,6,6v54.671
						C103.89,339.345,101.204,342.031,97.89,342.031z"/>
				</g>
				<g>
					<path class="st2" d="M133.768,342.031c-3.313,0-6-2.687-6-6V281.36c0-3.313,2.687-6,6-6s6,2.687,6,6v54.671
						C139.768,339.345,137.082,342.031,133.768,342.031z"/>
				</g>
				<g>
					<path class="st2" d="M169.646,342.031c-3.313,0-6-2.687-6-6V281.36c0-3.313,2.687-6,6-6s6,2.687,6,6v54.671
						C175.646,339.345,172.96,342.031,169.646,342.031z"/>
				</g>
				<g>
					<path class="st2" d="M205.524,342.031c-3.313,0-6-2.687-6-6V281.36c0-3.313,2.687-6,6-6s6,2.687,6,6v54.671
						C211.524,339.345,208.838,342.031,205.524,342.031z"/>
				</g>
				<g>
					<path class="st2" d="M241.403,342.031c-3.313,0-6-2.687-6-6V281.36c0-3.313,2.687-6,6-6s6,2.687,6,6v54.671
						C247.403,339.345,244.716,342.031,241.403,342.031z"/>
				</g>
			</g>
			<g>
				<circle class="st2" cx="342.354" cy="308.786" r="10.205"/>
			</g>
			<g>
				<g>
					<circle class="st2" cx="301.487" cy="308.786" r="10.205"/>
				</g>
				<g>
					<circle class="st2" cx="383.22" cy="308.786" r="10.205"/>
				</g>
			</g>
		</g>
	</g>
</g>
</svg>
