<?xml version="1.0" encoding="utf-8"?>
<!-- Generator: Adobe Illustrator 22.1.0, SVG Export Plug-In . SVG Version: 6.00 Build 0)  -->
<svg version="1.1" id="Icon_Set" xmlns="http://www.w3.org/2000/svg" xmlns:xlink="http://www.w3.org/1999/xlink" x="0px" y="0px"
	 viewBox="0 0 512 512" style="enable-background:new 0 0 512 512;" xml:space="preserve">
<style type="text/css">
	.st0{fill:#F0C48A;}
	.st1{fill:#D3E6F8;}
	.st2{fill:#4C4372;}
	.st3{fill:#FD919E;}
	.st4{fill:#E8677D;}
	.st5{fill:#FFFFFF;}
	.st6{fill:#A4CFF2;}
	.st7{fill:#7BABF1;}
</style>
<g id="Network_Server">
	<g>
		<g>
			<circle class="st0" cx="256" cy="256" r="207"/>
		</g>
	</g>
	<g>
		<g>
			<path class="st1" d="M370.401,341.282c33.761,0,61.13-27.369,61.13-61.13c0-33.711-27.289-61.046-60.982-61.126
				c-5.54-56.245-52.975-100.188-110.677-100.188c-49.427,0-91.315,32.245-105.798,76.843c-0.266-0.003-0.529-0.02-0.795-0.02
				c-40.212,0-72.81,32.598-72.81,72.81s32.598,72.81,72.81,72.81H370.401z"/>
		</g>
		<g>
			<path class="st2" d="M370.401,347.282H153.279c-43.456,0-78.81-35.354-78.81-78.81c0-42.284,33.47-76.896,75.309-78.733
				c16.873-46.173,60.58-76.9,110.094-76.9c29.282,0,57.317,10.856,78.941,30.568c20.182,18.397,33.224,43.037,37.078,69.843
				c34.444,2.807,61.64,31.772,61.64,66.903C437.531,317.167,407.417,347.282,370.401,347.282z M153.279,201.662
				c-36.839,0-66.81,29.971-66.81,66.81s29.971,66.81,66.81,66.81h217.122c30.398,0,55.13-24.731,55.13-55.13
				c0-30.324-24.672-55.054-54.997-55.126c-3.08-0.007-5.654-2.346-5.956-5.412c-2.546-25.848-14.566-49.763-33.849-67.34
				c-19.408-17.692-44.573-27.436-70.857-27.436c-45.748,0-85.971,29.214-100.091,72.696c-0.81,2.495-3.198,4.177-5.771,4.146
				c-0.171-0.002-0.341-0.007-0.511-0.013L153.279,201.662z"/>
		</g>
		<g>
			<path class="st3" d="M363.873,393.161H148.127c-7.174,0-12.99-5.816-12.99-12.99v-49.226c0-7.174,5.816-12.99,12.99-12.99
				h215.747c7.174,0,12.99,5.816,12.99,12.99v49.226C376.864,387.345,371.048,393.161,363.873,393.161z"/>
		</g>
		<g>
			<path class="st3" d="M363.873,317.955H148.127c-7.174,0-12.99-5.816-12.99-12.99v-49.226c0-7.174,5.816-12.99,12.99-12.99
				h215.747c7.174,0,12.99,5.816,12.99,12.99v49.226C376.864,312.139,371.048,317.955,363.873,317.955z"/>
		</g>
		<g>
			<path class="st4" d="M363.873,242.748h-21.981v75.206h21.981c7.174,0,12.99-5.816,12.99-12.99v-49.226
				C376.864,248.564,371.048,242.748,363.873,242.748z"/>
		</g>
		<g>
			<path class="st4" d="M363.873,317.955h-21.981v75.206h21.981c7.174,0,12.99-5.816,12.99-12.99v-49.226
				C376.864,323.771,371.048,317.955,363.873,317.955z"/>
		</g>
		<g>
			<path class="st2" d="M363.873,399.161H148.126c-10.471,0-18.99-8.519-18.99-18.99v-49.226c0-10.471,8.519-18.99,18.99-18.99
				h215.747c10.472,0,18.99,8.519,18.99,18.99v49.226C382.863,390.642,374.345,399.161,363.873,399.161z M148.126,323.955
				c-3.854,0-6.99,3.136-6.99,6.99v49.226c0,3.854,3.136,6.99,6.99,6.99h215.747c3.854,0,6.99-3.136,6.99-6.99v-49.226
				c0-3.854-3.136-6.99-6.99-6.99H148.126z"/>
		</g>
		<g>
			<path class="st2" d="M363.873,323.955H148.126c-10.471,0-18.99-8.519-18.99-18.99v-49.226c0-10.471,8.519-18.99,18.99-18.99
				h215.747c10.472,0,18.99,8.519,18.99,18.99v49.226C382.863,315.436,374.345,323.955,363.873,323.955z M148.126,248.748
				c-3.854,0-6.99,3.136-6.99,6.99v49.226c0,3.854,3.136,6.99,6.99,6.99h215.747c3.854,0,6.99-3.136,6.99-6.99v-49.226
				c0-3.854-3.136-6.99-6.99-6.99H148.126z"/>
		</g>
		<g>
			<circle class="st7" cx="176.313" cy="355.558" r="15.699"/>
		</g>
		<g>
			<circle class="st7" cx="176.313" cy="280.352" r="15.699"/>
		</g>
		<g>
			<path class="st5" d="M335.687,339.86H232.326c-8.67,0-15.699,7.028-15.699,15.699v0c0,8.67,7.028,15.699,15.699,15.699h103.361
				c8.67,0,15.699-7.028,15.699-15.699v0C351.385,346.888,344.357,339.86,335.687,339.86z"/>
		</g>
		<g>
			<path class="st5" d="M335.687,264.653H232.326c-8.67,0-15.699,7.028-15.699,15.699v0c0,8.67,7.028,15.699,15.699,15.699h103.361
				c8.67,0,15.699-7.028,15.699-15.699v0C351.385,271.682,344.357,264.653,335.687,264.653z"/>
		</g>
		<g>
			<path class="st2" d="M335.687,377.257h-103.36c-11.964,0-21.698-9.734-21.698-21.699s9.734-21.699,21.698-21.699h103.36
				c11.965,0,21.699,9.734,21.699,21.699S347.651,377.257,335.687,377.257z M232.326,345.86c-5.348,0-9.698,4.351-9.698,9.699
				s4.351,9.699,9.698,9.699h103.36c5.349,0,9.699-4.351,9.699-9.699s-4.351-9.699-9.699-9.699H232.326z"/>
		</g>
		<g>
			<path class="st2" d="M335.687,302.05h-103.36c-11.964,0-21.698-9.734-21.698-21.698s9.734-21.699,21.698-21.699h103.36
				c11.965,0,21.699,9.734,21.699,21.698S347.651,302.05,335.687,302.05z M232.326,270.653c-5.348,0-9.698,4.351-9.698,9.698
				c0,5.348,4.351,9.699,9.698,9.699h103.36c5.349,0,9.699-4.351,9.699-9.698c0-5.348-4.351-9.699-9.699-9.699H232.326z"/>
		</g>
		<g>
			<path class="st2" d="M176.313,377.257c-11.964,0-21.698-9.734-21.698-21.699s9.734-21.699,21.698-21.699
				c11.965,0,21.699,9.734,21.699,21.699S188.278,377.257,176.313,377.257z M176.313,345.86c-5.348,0-9.698,4.351-9.698,9.699
				s4.351,9.699,9.698,9.699s9.699-4.351,9.699-9.699S181.661,345.86,176.313,345.86z"/>
		</g>
		<g>
			<path class="st2" d="M176.313,302.05c-11.964,0-21.698-9.734-21.698-21.699s9.734-21.698,21.698-21.698
				c11.965,0,21.699,9.734,21.699,21.698S188.278,302.05,176.313,302.05z M176.313,270.653c-5.348,0-9.698,4.351-9.698,9.698
				s4.351,9.699,9.698,9.699s9.699-4.351,9.699-9.699S181.661,270.653,176.313,270.653z"/>
		</g>
	</g>
</g>
</svg>
