<?xml version="1.0" encoding="utf-8"?>
<!-- Generator: Adobe Illustrator 22.1.0, SVG Export Plug-In . SVG Version: 6.00 Build 0)  -->
<svg version="1.1" id="Icon_Set" xmlns="http://www.w3.org/2000/svg" xmlns:xlink="http://www.w3.org/1999/xlink" x="0px" y="0px"
	 viewBox="0 0 512 512" style="enable-background:new 0 0 512 512;" xml:space="preserve">
<style type="text/css">
	.st0{fill:#F0C48A;}
	.st1{fill:#D3E6F8;}
	.st2{fill:#4C4372;}
	.st3{fill:#FD919E;}
	.st4{fill:#E8677D;}
	.st5{fill:#FFFFFF;}
	.st6{fill:#A4CFF2;}
	.st7{fill:#7BABF1;}
</style>
<g id="Online_Database">
	<g>
		<g>
			<circle class="st0" cx="256" cy="256" r="207"/>
		</g>
	</g>
	<g>
		<g>
			<path class="st1" d="M357.557,273.594c29.971,0,54.266-24.296,54.266-54.266c0-29.926-24.225-54.192-54.135-54.263
				c-4.918-49.931-47.028-88.939-98.251-88.939c-43.878,0-81.063,28.624-93.92,68.216c-0.236-0.003-0.469-0.018-0.706-0.018
				c-35.697,0-64.636,28.938-64.636,64.635s28.938,64.635,64.636,64.635H357.557z"/>
		</g>
		<g>
			<path class="st2" d="M357.557,279.594H164.812c-38.949,0-70.636-31.688-70.636-70.636c0-37.746,29.761-68.672,67.05-70.546
				c15.186-41.021,54.122-68.287,98.211-68.287c26.163,0,51.211,9.699,70.532,27.312c17.9,16.316,29.513,38.127,33.051,61.873
				c30.668,2.774,54.803,28.66,54.803,60.018C417.824,252.559,390.788,279.594,357.557,279.594z M164.81,150.322
				c-32.33,0-58.633,26.304-58.633,58.636s26.304,58.636,58.636,58.636h192.745c26.614,0,48.267-21.652,48.267-48.267
				c0-26.55-21.6-48.2-48.149-48.264c-3.081-0.008-5.655-2.347-5.957-5.412c-2.244-22.779-12.838-43.856-29.832-59.347
				c-17.105-15.593-39.283-24.18-62.448-24.18c-40.319,0-75.77,25.747-88.213,64.069c-0.804,2.475-3.109,4.146-5.706,4.146
				c-0.025,0-0.05,0-0.075,0c-0.154-0.002-0.308-0.008-0.462-0.013L164.81,150.322z"/>
		</g>
		<g>
			<g>
				<path class="st3" d="M256,176.749c-54.473,0-98.631,17.741-98.631,39.628v179.872c0,21.885,44.159,39.628,98.631,39.628
					s98.631-17.742,98.631-39.628V216.376C354.631,194.49,310.473,176.749,256,176.749z"/>
			</g>
			<g>
				<path class="st4" d="M323.235,425.238c19.314-7.234,31.396-17.544,31.396-28.99V216.376c0-8.574-6.779-16.512-18.299-22.996
					h-13.097V425.238z"/>
			</g>
			<g>
				<path class="st3" d="M256,176.749c-54.473,0-98.631,17.741-98.631,39.628v59.957c0,21.886,44.159,39.628,98.631,39.628
					s98.631-17.741,98.631-39.628v-59.957C354.631,194.49,310.473,176.749,256,176.749z"/>
			</g>
			<g>
				<path class="st4" d="M323.235,305.323c19.314-7.234,31.396-17.544,31.396-28.99v-59.957c0-8.574-6.779-16.512-18.299-22.996
					h-13.097V305.323z"/>
			</g>
			<g>
				<path class="st3" d="M256,435.875c54.473,0,98.631-17.742,98.631-39.628V336.29c0,21.885-44.159,39.628-98.631,39.628
					s-98.631-17.742-98.631-39.628v59.957C157.369,418.133,201.527,435.875,256,435.875z"/>
			</g>
			<g>
				<path class="st4" d="M323.235,365.28v59.958c19.314-7.234,31.396-17.544,31.396-28.99V336.29
					C354.631,347.736,342.549,358.046,323.235,365.28z"/>
			</g>
			<g>
				<ellipse class="st7" cx="256" cy="211.551" rx="97.878" ry="34.803"/>
			</g>
			<g>
				<circle class="st2" cx="197.215" cy="272.073" r="12.299"/>
			</g>
			<g>
				<circle class="st2" cx="197.215" cy="337.178" r="12.299"/>
			</g>
			<g>
				<circle class="st2" cx="197.215" cy="397.758" r="12.299"/>
			</g>
			<g>
				<path class="st2" d="M256,441.875c-27.093,0-52.656-4.275-71.98-12.039c-21.056-8.46-32.651-20.388-32.651-33.588V216.376
					c0-13.2,11.596-25.129,32.651-33.589c19.323-7.764,44.886-12.039,71.98-12.039s52.657,4.275,71.98,12.039
					c21.056,8.46,32.651,20.389,32.651,33.589v179.872c0,13.2-11.596,25.128-32.651,33.588
					C308.656,437.6,283.093,441.875,256,441.875z M256,182.748c-54.589,0-92.631,17.723-92.631,33.628v179.872
					c0,15.905,38.042,33.627,92.631,33.627s92.631-17.722,92.631-33.627V216.376C348.631,200.471,310.589,182.748,256,182.748z"/>
			</g>
			<g>
				<path class="st2" d="M256,441.875c-27.093,0-52.656-4.275-71.98-12.039c-21.056-8.46-32.651-20.388-32.651-33.588V336.29
					c0-3.313,2.687-6,6-6s6,2.687,6,6c0,15.905,38.042,33.628,92.631,33.628s92.631-17.723,92.631-33.628c0-3.313,2.687-6,6-6
					s6,2.687,6,6v59.958c0,13.2-11.596,25.128-32.651,33.588C308.656,437.6,283.093,441.875,256,441.875z M163.369,358.151v38.097
					c0,15.905,38.042,33.627,92.631,33.627s92.631-17.722,92.631-33.627v-38.097c-5.266,4.373-12.197,8.33-20.651,11.728
					c-19.323,7.764-44.886,12.039-71.98,12.039s-52.657-4.275-71.98-12.039C175.565,366.481,168.635,362.524,163.369,358.151z"/>
			</g>
			<g>
				<path class="st2" d="M256,252.354c-24.917,0-48.94-3.693-67.643-10.4c-20.04-7.187-32.481-17.099-35.978-28.666
					c-0.342-1.132-0.342-2.341,0-3.473c3.497-11.567,15.938-21.479,35.978-28.666c18.703-6.708,42.726-10.401,67.643-10.401
					s48.94,3.693,67.643,10.401c20.04,7.187,32.481,17.099,35.978,28.666c0.342,1.132,0.342,2.341,0,3.473
					c-3.497,11.567-15.938,21.479-35.978,28.666C304.94,248.661,280.917,252.354,256,252.354z M164.532,211.552
					c3.244,6.977,13.236,13.856,27.876,19.106c17.436,6.253,40.02,9.696,63.592,9.696s46.156-3.443,63.592-9.696
					c14.64-5.25,24.632-12.13,27.876-19.106c-3.244-6.978-13.236-13.857-27.876-19.107c-17.437-6.253-40.021-9.696-63.592-9.696
					s-46.156,3.443-63.592,9.696C177.768,197.694,167.776,204.574,164.532,211.552z"/>
			</g>
			<g>
				<path class="st2" d="M256,321.96c-27.094,0-52.657-4.275-71.979-12.039c-21.056-8.459-32.652-20.388-32.652-33.588v-59.957
					c0-13.2,11.596-25.129,32.651-33.589c19.323-7.764,44.886-12.039,71.98-12.039s52.657,4.275,71.98,12.039
					c21.056,8.46,32.651,20.389,32.651,33.589v59.957c0,13.2-11.596,25.129-32.652,33.588
					C308.657,317.685,283.094,321.96,256,321.96z M256,182.748c-54.589,0-92.631,17.723-92.631,33.628v59.957
					c0,15.905,38.042,33.627,92.631,33.627s92.631-17.722,92.631-33.627v-59.957C348.631,200.471,310.589,182.748,256,182.748z"/>
			</g>
		</g>
	</g>
</g>
</svg>
