<?xml version="1.0" encoding="utf-8"?>
<!-- Generator: Adobe Illustrator 22.1.0, SVG Export Plug-In . SVG Version: 6.00 Build 0)  -->
<svg version="1.1" id="Icon_Set" xmlns="http://www.w3.org/2000/svg" xmlns:xlink="http://www.w3.org/1999/xlink" x="0px" y="0px"
	 viewBox="0 0 512 512" style="enable-background:new 0 0 512 512;" xml:space="preserve">
<style type="text/css">
	.st0{fill:#F0C48A;}
	.st1{fill:#D3E6F8;}
	.st2{fill:#4C4372;}
	.st3{fill:#FD919E;}
	.st4{fill:#E8677D;}
	.st5{fill:#FFFFFF;}
	.st6{fill:#A4CFF2;}
	.st7{fill:#7BABF1;}
</style>
<g id="Online_Support">
	<g>
		<g>
			<circle class="st0" cx="256" cy="256" r="207"/>
		</g>
	</g>
	<g>
		<g>
			<path class="st2" d="M333.229,405.763H256c-3.313,0-6-2.687-6-6s2.687-6,6-6h77.229c15.792,0,28.64-12.848,28.64-28.64v-48.176
				c0-3.313,2.687-6,6-6s6,2.687,6,6v48.176C373.868,387.532,355.638,405.763,333.229,405.763z"/>
		</g>
		<g>
			<path class="st3" d="M144.132,321.405h-22.95c-10.337,0-18.717-8.38-18.717-18.717v-30.863c0-10.337,8.38-18.717,18.717-18.717
				h22.95V321.405z"/>
		</g>
		<g>
			<path class="st3" d="M367.868,321.405h22.95c10.337,0,18.717-8.38,18.717-18.717v-30.863c0-10.337-8.38-18.717-18.717-18.717
				h-22.95V321.405z"/>
		</g>
		<g>
			<path class="st7" d="M271.801,420.443h-28.919c-11.421,0-20.68-9.259-20.68-20.68v0c0-11.421,9.259-20.68,20.68-20.68h28.919
				c11.421,0,20.68,9.259,20.68,20.68v0C292.482,411.184,283.223,420.443,271.801,420.443z"/>
		</g>
		<g>
			<path class="st1" d="M170.793,337.425h-6.184c-11.309,0-20.477-9.168-20.477-20.477v-59.381c0-11.309,9.168-20.477,20.477-20.477
				h6.184c11.309,0,20.477,9.168,20.477,20.477v59.381C191.271,328.257,182.103,337.425,170.793,337.425z"/>
		</g>
		<g>
			<path class="st1" d="M341.207,337.425h6.184c11.309,0,20.477-9.168,20.477-20.477v-59.381c0-11.309-9.168-20.477-20.477-20.477
				h-6.184c-11.309,0-20.477,9.168-20.477,20.477v59.381C320.729,328.257,329.897,337.425,341.207,337.425z"/>
		</g>
		<g>
			<path class="st2" d="M144.132,327.405h-22.95c-13.629,0-24.717-11.088-24.717-24.716v-30.863
				c0-13.628,11.088-24.716,24.717-24.716h22.95c3.313,0,6,2.687,6,6v68.296C150.132,324.718,147.445,327.405,144.132,327.405z
				 M121.182,259.109c-7.012,0-12.717,5.705-12.717,12.716v30.863c0,7.012,5.705,12.716,12.717,12.716h16.95v-56.296H121.182z"/>
		</g>
		<g>
			<path class="st2" d="M170.793,343.425h-6.184c-14.6,0-26.478-11.878-26.478-26.478v-59.381c0-14.6,11.878-26.478,26.478-26.478
				h6.184c14.6,0,26.478,11.878,26.478,26.478v59.381C197.271,331.547,185.393,343.425,170.793,343.425z M164.609,243.089
				c-7.983,0-14.478,6.495-14.478,14.478v59.381c0,7.983,6.494,14.478,14.478,14.478h6.184c7.983,0,14.478-6.495,14.478-14.478
				v-59.381c0-7.983-6.494-14.478-14.478-14.478H164.609z"/>
		</g>
		<g>
			<path class="st2" d="M390.818,327.405h-22.95c-3.313,0-6-2.687-6-6v-68.296c0-3.313,2.687-6,6-6h22.95
				c13.629,0,24.717,11.088,24.717,24.716v30.863C415.535,316.317,404.447,327.405,390.818,327.405z M373.868,315.405h16.95
				c7.012,0,12.717-5.705,12.717-12.716v-30.863c0-7.012-5.705-12.716-12.717-12.716h-16.95V315.405z"/>
		</g>
		<g>
			<path class="st2" d="M347.391,343.425h-6.184c-14.6,0-26.478-11.878-26.478-26.478v-59.381c0-14.6,11.878-26.478,26.478-26.478
				h6.184c14.6,0,26.478,11.878,26.478,26.478v59.381C373.868,331.547,361.99,343.425,347.391,343.425z M341.207,243.089
				c-7.983,0-14.478,6.495-14.478,14.478v59.381c0,7.983,6.494,14.478,14.478,14.478h6.184c7.983,0,14.478-6.495,14.478-14.478
				v-59.381c0-7.983-6.494-14.478-14.478-14.478H341.207z"/>
		</g>
		<g>
			<path class="st2" d="M271.801,426.443h-28.919c-14.711,0-26.68-11.969-26.68-26.68c0-14.712,11.969-26.681,26.68-26.681h28.919
				c14.712,0,26.681,11.969,26.681,26.681C298.481,414.474,286.513,426.443,271.801,426.443z M242.882,385.082
				c-8.095,0-14.68,6.586-14.68,14.681s6.585,14.68,14.68,14.68h28.919c8.095,0,14.681-6.585,14.681-14.68
				s-6.586-14.681-14.681-14.681H242.882z"/>
		</g>
		<g>
			<path class="st2" d="M367.868,263.566c-3.313,0-6-2.687-6-6v-54.141c0-58.376-47.492-105.868-105.868-105.868
				s-105.868,47.492-105.868,105.868v54.141c0,3.313-2.687,6-6,6s-6-2.687-6-6v-54.141c0-64.993,52.875-117.868,117.868-117.868
				s117.868,52.875,117.868,117.868v54.141C373.868,260.88,371.182,263.566,367.868,263.566z"/>
		</g>
	</g>
</g>
</svg>
