<?xml version="1.0" encoding="utf-8"?>
<!-- Generator: Adobe Illustrator 22.1.0, SVG Export Plug-In . SVG Version: 6.00 Build 0)  -->
<svg version="1.1" id="Icon_Set" xmlns="http://www.w3.org/2000/svg" xmlns:xlink="http://www.w3.org/1999/xlink" x="0px" y="0px"
	 viewBox="0 0 512 512" style="enable-background:new 0 0 512 512;" xml:space="preserve">
<style type="text/css">
	.st0{fill:#F0C48A;}
	.st1{fill:#D3E6F8;}
	.st2{fill:#4C4372;}
	.st3{fill:#FD919E;}
	.st4{fill:#E8677D;}
	.st5{fill:#FFFFFF;}
	.st6{fill:#A4CFF2;}
	.st7{fill:#7BABF1;}
</style>
<g id="Optimization">
	<g>
		<g>
			<circle class="st0" cx="256" cy="256" r="207"/>
		</g>
	</g>
	<g>
		<g>
			<g>
				<path class="st5" d="M386.618,383.123H125.382c-8.37,0-15.154-6.785-15.154-15.154V144.031c0-8.37,6.785-15.154,15.154-15.154
					h261.236c8.37,0,15.154,6.785,15.154,15.154v223.937C401.772,376.338,394.987,383.123,386.618,383.123z"/>
			</g>
			<g>
				<path class="st1" d="M386.618,128.877h-16.832v254.246h16.832c8.37,0,15.155-6.785,15.155-15.154V144.031
					C401.772,135.662,394.988,128.877,386.618,128.877z"/>
			</g>
			<g>
				<path class="st6" d="M386.618,128.877H125.382c-8.37,0-15.155,6.785-15.155,15.154v35.239h291.545v-35.239
					C401.772,135.662,394.988,128.877,386.618,128.877z"/>
			</g>
			<g>
				<path class="st7" d="M386.618,128.877h-16.832v50.393h31.987v-35.239C401.772,135.662,394.988,128.877,386.618,128.877z"/>
			</g>
			<g>
				<path class="st2" d="M386.618,389.123H125.382c-11.665,0-21.154-9.49-21.154-21.154V144.031c0-11.664,9.49-21.154,21.154-21.154
					h261.236c11.664,0,21.154,9.49,21.154,21.154v223.938C407.772,379.633,398.282,389.123,386.618,389.123z M125.382,134.877
					c-5.048,0-9.154,4.106-9.154,9.154v223.938c0,5.048,4.106,9.154,9.154,9.154h261.236c5.048,0,9.154-4.106,9.154-9.154V144.031
					c0-5.048-4.106-9.154-9.154-9.154H125.382z"/>
			</g>
			<g>
				<path class="st2" d="M401.772,185.271H110.228c-3.313,0-6-2.687-6-6v-35.239c0-11.664,9.49-21.154,21.155-21.154h261.236
					c11.664,0,21.154,9.49,21.154,21.154v35.239C407.772,182.584,405.086,185.271,401.772,185.271z M116.228,173.271h279.545
					v-29.239c0-5.048-4.106-9.154-9.154-9.154H125.382c-5.048,0-9.155,4.106-9.155,9.154V173.271z"/>
			</g>
			<g>
				<circle class="st2" cx="140.735" cy="153.986" r="8.644"/>
			</g>
			<g>
				<circle class="st2" cx="165.818" cy="153.986" r="8.644"/>
			</g>
			<g>
				<circle class="st2" cx="190.901" cy="153.986" r="8.644"/>
			</g>
		</g>
		<g>
			<g>
				<g>
					<path class="st1" d="M228.742,327.71l72.821-72.821c9.977,3.279,21.394,0.956,29.327-6.978
						c7.933-7.933,10.252-19.347,6.974-29.323l-8.996,8.996c-5.055,5.055-13.25,5.055-18.305,0c-5.055-5.055-5.055-13.25,0-18.305
						l8.996-8.996c-10.314-3.39-22.165-0.796-30.118,7.8c-7.243,7.829-9.295,18.843-6.163,28.48l-72.862,72.862
						c-9.636-3.132-20.649-1.081-28.478,6.161c-8.597,7.952-11.192,19.804-7.802,30.12l8.996-8.996
						c5.055-5.055,13.25-5.055,18.305,0c5.055,5.055,5.054,13.251,0,18.305l-8.996,8.996c9.976,3.278,21.39,0.959,29.323-6.974
						C229.698,349.104,232.022,337.687,228.742,327.71z"/>
				</g>
				<g>
					<path class="st2" d="M201.507,371.473c-3.649,0-7.336-0.577-10.939-1.761c-1.98-0.65-3.48-2.282-3.963-4.31
						c-0.483-2.026,0.12-4.159,1.594-5.633l8.996-8.996c2.708-2.708,2.708-7.113,0-9.821c-1.311-1.311-3.054-2.033-4.909-2.032
						c-1.854,0-3.599,0.722-4.91,2.033l-8.996,8.996c-1.474,1.473-3.606,2.076-5.634,1.594c-2.027-0.483-3.659-1.984-4.309-3.964
						c-4.237-12.895-0.536-27.182,9.429-36.397c8.275-7.653,19.773-10.735,30.748-8.438l67.985-67.983
						c-2.301-10.979,0.783-22.478,8.439-30.752c9.217-9.962,23.503-13.661,36.396-9.425c1.979,0.651,3.479,2.282,3.963,4.31
						c0.482,2.027-0.121,4.16-1.595,5.633l-8.996,8.996c-1.311,1.312-2.033,3.056-2.033,4.91s0.723,3.599,2.033,4.91
						c1.312,1.311,3.056,2.033,4.91,2.033s3.599-0.723,4.91-2.033l8.996-8.996c1.473-1.475,3.606-2.074,5.633-1.595
						c2.027,0.483,3.659,1.984,4.31,3.964c4.12,12.539,0.89,26.118-8.432,35.438c-8.42,8.422-20.315,11.871-31.775,9.427
						l-67.923,67.923c2.446,11.461-1.005,23.354-9.427,31.775C219.364,367.923,210.557,371.473,201.507,371.473z M192.284,326.92
						c5.06-0.001,9.817,1.97,13.396,5.548c7.31,7.311,7.385,19.158,0.225,26.562c4.315-0.86,8.363-2.98,11.617-6.234
						c6.105-6.105,8.22-14.999,5.521-23.211c-0.707-2.15-0.143-4.516,1.458-6.116l72.821-72.82c1.6-1.6,3.964-2.164,6.115-1.458
						c8.216,2.698,17.107,0.584,23.212-5.52c3.254-3.255,5.373-7.302,6.233-11.617c-3.551,3.436-8.213,5.323-13.166,5.323
						c-5.06,0-9.817-1.971-13.395-5.549c-3.578-3.577-5.549-8.335-5.549-13.395c0-4.934,1.873-9.579,5.283-13.125
						c-4.602,0.934-8.902,3.277-12.209,6.851c-5.564,6.015-7.427,14.655-4.861,22.552c0.697,2.146,0.132,4.502-1.464,6.097
						l-72.861,72.861c-1.596,1.596-3.954,2.162-6.097,1.464c-7.894-2.563-16.535-0.703-22.549,4.859
						c-3.574,3.307-5.918,7.608-6.852,12.211C182.706,328.793,187.351,326.92,192.284,326.92z"/>
				</g>
			</g>
			<g>
				<g>
					<g>
						
							<rect x="175.263" y="234.683" transform="matrix(0.7071 -0.7071 0.7071 0.7071 -126.9871 209.189)" class="st7" width="27.515" height="46.397"/>
					</g>
					<g>
						<polygon class="st7" points="262.589,207.739 210.461,259.867 187.035,236.44 220.899,202.576 253.299,198.449 						"/>
					</g>
				</g>
				<g>
					<path class="st3" d="M345.509,362.242L345.509,362.242c-4.804,4.804-12.593,4.804-17.397,0L218.098,252.229l17.397-17.397
						l110.013,110.013C350.313,349.649,350.313,357.438,345.509,362.242z"/>
				</g>
				<g>
					<g>
						<path class="st2" d="M195.696,290.013c-1.536,0-3.071-0.586-4.243-1.758l-32.808-32.808c-1.125-1.125-1.757-2.651-1.757-4.242
							c0-1.592,0.632-3.117,1.757-4.243l19.456-19.455c2.343-2.343,6.142-2.342,8.485,0.001l32.807,32.808
							c1.125,1.125,1.757,2.651,1.757,4.242c0,1.592-0.632,3.117-1.757,4.243l-19.456,19.455
							C198.767,289.427,197.231,290.013,195.696,290.013z M171.374,251.205l24.322,24.322l10.97-10.97l-24.322-24.322
							L171.374,251.205z"/>
					</g>
					<g>
						<path class="st2" d="M210.461,265.867L210.461,265.867c-1.591,0-3.118-0.632-4.243-1.758l-23.426-23.427
							c-2.343-2.343-2.343-6.142,0-8.484l33.864-33.864c0.94-0.94,2.166-1.542,3.484-1.71l32.4-4.127
							c1.844-0.232,3.688,0.396,5,1.71l9.29,9.29c2.344,2.343,2.344,6.142,0,8.484l-52.127,52.128
							C213.579,265.235,212.052,265.867,210.461,265.867z M195.52,236.44l14.941,14.941l43.643-43.643l-2.966-2.966l-27.446,3.495
							L195.52,236.44z"/>
					</g>
				</g>
				<g>
					<path class="st2" d="M336.811,371.837c-4.688,0-9.374-1.784-12.941-5.353L213.856,256.472c-2.343-2.343-2.343-6.142,0-8.484
						l17.397-17.397c1.125-1.126,2.651-1.758,4.243-1.758s3.117,0.632,4.243,1.758l110.013,110.014
						c7.136,7.135,7.136,18.746,0,25.881C346.184,370.053,341.497,371.837,336.811,371.837z M226.584,252.229L332.354,358
						c2.458,2.456,6.453,2.458,8.913,0c2.456-2.457,2.456-6.455,0-8.912L235.496,243.317L226.584,252.229z"/>
				</g>
			</g>
		</g>
	</g>
</g>
</svg>
