<?xml version="1.0" encoding="utf-8"?>
<!-- Generator: Adobe Illustrator 22.1.0, SVG Export Plug-In . SVG Version: 6.00 Build 0)  -->
<svg version="1.1" id="Icon_Set" xmlns="http://www.w3.org/2000/svg" xmlns:xlink="http://www.w3.org/1999/xlink" x="0px" y="0px"
	 viewBox="0 0 512 512" style="enable-background:new 0 0 512 512;" xml:space="preserve">
<style type="text/css">
	.st0{fill:#F0C48A;}
	.st1{fill:#D3E6F8;}
	.st2{fill:#4C4372;}
	.st3{fill:#FD919E;}
	.st4{fill:#E8677D;}
	.st5{fill:#FFFFFF;}
	.st6{fill:#A4CFF2;}
	.st7{fill:#7BABF1;}
</style>
<g id="Premium_Hosting">
	<g>
		<g>
			<circle class="st0" cx="256" cy="256" r="207"/>
		</g>
	</g>
	<g>
		<g>
			<g>
				<rect x="138.96" y="184.745" class="st7" width="169.296" height="115.806"/>
			</g>
			<g>
				<rect x="138.96" y="367.292" class="st7" width="36.746" height="26.704"/>
			</g>
			<g>
				<rect x="271.51" y="367.292" class="st7" width="36.746" height="26.704"/>
			</g>
			<g>
				<path class="st2" d="M308.256,306.551H138.96c-3.313,0-6-2.686-6-6V184.745c0-3.314,2.687-6,6-6h169.296c3.313,0,6,2.686,6,6
					v115.805C314.256,303.865,311.569,306.551,308.256,306.551z M144.96,294.551h157.296V190.745H144.96V294.551z"/>
			</g>
			<g>
				<path class="st2" d="M175.706,399.995H138.96c-3.313,0-6-2.686-6-6v-26.704c0-3.314,2.687-6,6-6h36.746c3.313,0,6,2.686,6,6
					v26.704C181.706,397.309,179.02,399.995,175.706,399.995z M144.96,387.995h24.746v-14.704H144.96V387.995z"/>
			</g>
			<g>
				<path class="st2" d="M308.256,399.995H271.51c-3.313,0-6-2.686-6-6v-26.704c0-3.314,2.687-6,6-6h36.746c3.313,0,6,2.686,6,6
					v26.704C314.256,397.309,311.569,399.995,308.256,399.995z M277.51,387.995h24.746v-14.704H277.51V387.995z"/>
			</g>
			<g>
				<g>
					<path class="st1" d="M319.338,276.018h-191.46c-6.367,0-11.528-5.161-11.528-11.528v-43.685
						c0-6.367,5.161-11.528,11.528-11.528h191.46c6.367,0,11.528,5.161,11.528,11.528v43.685
						C330.866,270.857,325.705,276.018,319.338,276.018z"/>
				</g>
				<g>
					<path class="st6" d="M319.338,209.278h-19.506v66.741h19.506c6.367,0,11.528-5.161,11.528-11.528v-43.685
						C330.866,214.439,325.705,209.278,319.338,209.278z"/>
				</g>
				<g>
					<path class="st2" d="M319.338,282.018h-191.46c-9.665,0-17.528-7.863-17.528-17.528v-43.685
						c0-9.665,7.863-17.528,17.528-17.528h191.46c9.665,0,17.528,7.863,17.528,17.528v43.685
						C336.866,274.155,329.003,282.018,319.338,282.018z M127.878,215.278c-3.049,0-5.528,2.48-5.528,5.528v43.685
						c0,3.048,2.479,5.528,5.528,5.528h191.46c3.048,0,5.528-2.48,5.528-5.528v-43.685c0-3.048-2.48-5.528-5.528-5.528H127.878z"/>
				</g>
				<g>
					<circle class="st3" cx="152.891" cy="242.648" r="13.931"/>
				</g>
				<g>
					<path class="st5" d="M294.325,228.717h-91.725c-7.694,0-13.931,6.237-13.931,13.931v0c0,7.694,6.237,13.931,13.931,13.931
						h91.725c7.694,0,13.931-6.237,13.931-13.931v0C308.256,234.954,302.019,228.717,294.325,228.717z"/>
				</g>
				<g>
					<path class="st2" d="M294.324,262.58H202.6c-10.99,0-19.932-8.941-19.932-19.931s8.941-19.931,19.932-19.931h91.725
						c10.99,0,19.932,8.941,19.932,19.931S305.314,262.58,294.324,262.58z M202.6,234.717c-4.373,0-7.932,3.558-7.932,7.931
						s3.559,7.931,7.932,7.931h91.725c4.373,0,7.932-3.558,7.932-7.931s-3.559-7.931-7.932-7.931H202.6z"/>
				</g>
				<g>
					<path class="st2" d="M152.892,262.58c-10.99,0-19.932-8.941-19.932-19.931s8.941-19.931,19.932-19.931
						s19.931,8.941,19.931,19.931S163.882,262.58,152.892,262.58z M152.892,234.717c-4.373,0-7.932,3.558-7.932,7.931
						s3.559,7.931,7.932,7.931s7.931-3.558,7.931-7.931S157.265,234.717,152.892,234.717z"/>
				</g>
			</g>
			<g>
				<g>
					<path class="st3" d="M319.338,367.292h-191.46c-6.367,0-11.528-5.161-11.528-11.528v-43.685
						c0-6.367,5.161-11.528,11.528-11.528h191.46c6.367,0,11.528,5.161,11.528,11.528v43.685
						C330.866,362.13,325.705,367.292,319.338,367.292z"/>
				</g>
				<g>
					<path class="st4" d="M319.338,300.551h-19.506v66.741h19.506c6.367,0,11.528-5.161,11.528-11.528v-43.685
						C330.866,305.712,325.705,300.551,319.338,300.551z"/>
				</g>
				<g>
					<path class="st2" d="M319.338,373.292h-191.46c-9.665,0-17.528-7.863-17.528-17.528v-43.685
						c0-9.665,7.863-17.528,17.528-17.528h191.46c9.665,0,17.528,7.863,17.528,17.528v43.685
						C336.866,365.428,329.003,373.292,319.338,373.292z M127.878,306.551c-3.049,0-5.528,2.48-5.528,5.528v43.685
						c0,3.048,2.479,5.528,5.528,5.528h191.46c3.048,0,5.528-2.48,5.528-5.528v-43.685c0-3.048-2.48-5.528-5.528-5.528H127.878z"/>
				</g>
				<g>
					<circle class="st7" cx="152.891" cy="333.921" r="13.931"/>
				</g>
				<g>
					<path class="st5" d="M294.325,319.99h-91.725c-7.694,0-13.931,6.237-13.931,13.931v0c0,7.694,6.237,13.931,13.931,13.931
						h91.725c7.694,0,13.931-6.237,13.931-13.931v0C308.256,326.227,302.019,319.99,294.325,319.99z"/>
				</g>
				<g>
					<path class="st2" d="M294.324,353.853H202.6c-10.99,0-19.932-8.941-19.932-19.931s8.941-19.931,19.932-19.931h91.725
						c10.99,0,19.932,8.941,19.932,19.931S305.314,353.853,294.324,353.853z M202.6,325.99c-4.373,0-7.932,3.558-7.932,7.931
						s3.559,7.931,7.932,7.931h91.725c4.373,0,7.932-3.558,7.932-7.931s-3.559-7.931-7.932-7.931H202.6z"/>
				</g>
				<g>
					<path class="st2" d="M152.892,353.853c-10.99,0-19.932-8.941-19.932-19.931s8.941-19.931,19.932-19.931
						s19.931,8.941,19.931,19.931S163.882,353.853,152.892,353.853z M152.892,325.99c-4.373,0-7.932,3.558-7.932,7.931
						s3.559,7.931,7.932,7.931s7.931-3.558,7.931-7.931S157.265,325.99,152.892,325.99z"/>
				</g>
			</g>
			<g>
				<g>
					<path class="st3" d="M319.338,184.745h-191.46c-6.367,0-11.528-5.161-11.528-11.528v-43.685
						c0-6.367,5.161-11.528,11.528-11.528h191.46c6.367,0,11.528,5.161,11.528,11.528v43.685
						C330.866,179.584,325.705,184.745,319.338,184.745z"/>
				</g>
				<g>
					<path class="st4" d="M319.338,118.005h-19.506v66.741h19.506c6.367,0,11.528-5.161,11.528-11.528v-43.685
						C330.866,123.166,325.705,118.005,319.338,118.005z"/>
				</g>
				<g>
					<path class="st2" d="M319.338,190.745h-191.46c-9.665,0-17.528-7.863-17.528-17.528v-43.685
						c0-9.665,7.863-17.528,17.528-17.528h191.46c9.665,0,17.528,7.863,17.528,17.528v43.685
						C336.866,182.882,329.003,190.745,319.338,190.745z M127.878,124.005c-3.049,0-5.528,2.48-5.528,5.528v43.685
						c0,3.048,2.479,5.528,5.528,5.528h191.46c3.048,0,5.528-2.48,5.528-5.528v-43.685c0-3.048-2.48-5.528-5.528-5.528H127.878z"/>
				</g>
				<g>
					<circle class="st7" cx="152.891" cy="151.375" r="13.931"/>
				</g>
				<g>
					<path class="st5" d="M294.325,137.444h-91.725c-7.694,0-13.931,6.237-13.931,13.931v0c0,7.694,6.237,13.931,13.931,13.931
						h91.725c7.694,0,13.931-6.237,13.931-13.931v0C308.256,143.681,302.019,137.444,294.325,137.444z"/>
				</g>
				<g>
					<path class="st2" d="M294.324,171.306H202.6c-10.99,0-19.932-8.941-19.932-19.931s8.941-19.931,19.932-19.931h91.725
						c10.99,0,19.932,8.941,19.932,19.931S305.314,171.306,294.324,171.306z M202.6,143.444c-4.373,0-7.932,3.558-7.932,7.931
						s3.559,7.931,7.932,7.931h91.725c4.373,0,7.932-3.558,7.932-7.931s-3.559-7.931-7.932-7.931H202.6z"/>
				</g>
				<g>
					<path class="st2" d="M152.892,171.306c-10.99,0-19.932-8.941-19.932-19.931s8.941-19.931,19.932-19.931
						s19.931,8.941,19.931,19.931S163.882,171.306,152.892,171.306z M152.892,143.444c-4.373,0-7.932,3.558-7.932,7.931
						s3.559,7.931,7.932,7.931s7.931-3.558,7.931-7.931S157.265,143.444,152.892,143.444z"/>
				</g>
			</g>
		</g>
		<g>
			<g>
				<polygon class="st6" points="354.295,319.99 328.814,298.946 303.332,319.99 303.332,221.426 354.295,221.426 				"/>
			</g>
			<g>
				<path class="st2" d="M354.296,325.99c-1.369,0-2.725-0.468-3.821-1.374l-21.661-17.888l-21.661,17.888
					c-1.79,1.479-4.274,1.792-6.377,0.802c-2.103-0.99-3.443-3.105-3.443-5.428v-98.564c0-3.314,2.687-6,6-6h50.963
					c3.313,0,6,2.686,6,6v98.564c0,2.323-1.341,4.438-3.443,5.428C356.037,325.802,355.163,325.99,354.296,325.99z M328.813,292.946
					c1.355,0,2.712,0.458,3.82,1.374l15.661,12.933v-79.827h-38.963v79.827l15.661-12.933
					C326.102,293.404,327.458,292.946,328.813,292.946z"/>
			</g>
			<g>
				<path class="st1" d="M338.576,120.679L338.576,120.679c11.121-6.506,25.38-0.6,28.643,11.864v0
					c1.781,6.801,7.092,12.112,13.892,13.892l0,0c12.464,3.263,18.37,17.522,11.864,28.643l0,0c-3.55,6.068-3.55,13.579,0,19.647
					l0,0c6.506,11.121,0.6,25.38-11.864,28.643l0,0c-6.801,1.781-12.112,7.092-13.892,13.892v0
					c-3.263,12.464-17.522,18.37-28.643,11.864l0,0c-6.068-3.55-13.579-3.55-19.647,0l0,0c-11.121,6.506-25.38,0.6-28.643-11.864v0
					c-1.781-6.801-7.092-12.112-13.892-13.892l0,0c-12.464-3.263-18.37-17.522-11.864-28.643l0,0c3.55-6.068,3.55-13.579,0-19.647
					l0,0c-6.506-11.121-0.6-25.38,11.864-28.643l0,0c6.801-1.781,12.112-7.092,13.892-13.892v0
					c3.263-12.464,17.522-18.37,28.643-11.864l0,0C324.997,124.229,332.508,124.229,338.576,120.679z"/>
			</g>
			<g>
				<path class="st2" d="M309.135,257.811c-3.296,0-6.605-0.65-9.77-1.96c-7.424-3.075-12.849-9.297-14.884-17.07
					c-1.229-4.697-4.911-8.378-9.607-9.608c-7.773-2.035-13.994-7.46-17.069-14.883c-3.075-7.424-2.512-15.659,1.546-22.594
					c2.451-4.19,2.451-9.397,0-13.587c-4.058-6.936-4.621-15.171-1.546-22.594c3.075-7.423,9.296-12.848,17.069-14.883
					c4.697-1.23,8.378-4.911,9.607-9.607c2.035-7.773,7.46-13.995,14.883-17.07c7.424-3.075,15.658-2.512,22.595,1.546
					c4.191,2.451,9.398,2.451,13.588,0l0,0c6.935-4.057,15.171-4.621,22.594-1.546c7.424,3.075,12.848,9.297,14.883,17.069
					c1.229,4.697,4.911,8.378,9.607,9.608c7.773,2.035,13.995,7.46,17.07,14.884c3.074,7.423,2.511,15.658-1.547,22.593
					c-2.451,4.19-2.451,9.397,0,13.587c4.058,6.935,4.621,15.17,1.547,22.593c-3.075,7.424-9.297,12.849-17.07,14.884
					c-4.696,1.229-8.378,4.911-9.607,9.608c-2.035,7.772-7.46,13.994-14.883,17.069c-7.422,3.075-15.658,2.511-22.594-1.546
					c-4.191-2.452-9.397-2.451-13.589,0C317.979,256.633,313.571,257.811,309.135,257.811z M309.121,124.005
					c-1.742,0-3.492,0.344-5.164,1.036c-3.924,1.625-6.791,4.914-7.866,9.022c-2.326,8.886-9.291,15.851-18.178,18.177
					c-4.108,1.075-7.396,3.943-9.022,7.866c-1.625,3.924-1.327,8.277,0.817,11.942c4.639,7.928,4.639,17.778,0,25.707
					c-2.145,3.666-2.442,8.019-0.817,11.942c1.626,3.924,4.914,6.791,9.022,7.866c8.887,2.327,15.852,9.292,18.178,18.177
					c1.075,4.108,3.942,7.397,7.866,9.022c3.922,1.625,8.275,1.328,11.941-0.817c7.93-4.638,17.779-4.638,25.707,0
					c3.665,2.144,8.018,2.443,11.942,0.817c3.924-1.625,6.791-4.914,7.866-9.022c2.328-8.886,9.293-15.851,18.178-18.177
					c4.108-1.076,7.397-3.943,9.022-7.867c1.625-3.924,1.327-8.276-0.817-11.941c-4.639-7.928-4.639-17.779,0-25.707
					c2.145-3.666,2.442-8.018,0.817-11.942c-1.625-3.924-4.914-6.792-9.022-7.867c-8.885-2.326-15.85-9.291-18.178-18.177
					c-1.075-4.109-3.942-7.397-7.865-9.023c-3.927-1.625-8.276-1.327-11.943,0.817l0,0c-7.929,4.638-17.779,4.637-25.706,0
					C313.796,124.627,311.466,124.005,309.121,124.005z M338.576,120.679h0.01H338.576z"/>
			</g>
			<g>
				<polygon class="st3" points="328.753,208.061 303.332,221.426 308.187,193.119 287.621,173.073 316.042,168.943 
					328.753,143.189 341.463,168.943 369.884,173.073 349.318,193.119 354.173,221.426 				"/>
			</g>
			<g>
				<path class="st2" d="M303.333,227.426c-1.244,0-2.482-0.386-3.527-1.146c-1.848-1.343-2.773-3.617-2.388-5.868l4.321-25.198
					l-18.307-17.844c-1.635-1.594-2.224-3.979-1.518-6.151c0.705-2.172,2.583-3.755,4.843-4.084l25.3-3.676l11.314-22.925
					c1.011-2.048,3.097-3.344,5.381-3.344l0,0c2.284,0,4.37,1.297,5.381,3.345l11.313,22.925l25.3,3.676
					c2.26,0.329,4.138,1.912,4.843,4.084c0.706,2.172,0.117,4.556-1.518,6.151l-18.307,17.844l4.321,25.198
					c0.386,2.251-0.54,4.526-2.388,5.868c-1.847,1.342-4.297,1.52-6.318,0.457l-22.628-11.897l-22.629,11.897
					C305.246,227.198,304.287,227.426,303.333,227.426z M300.515,177.262l11.86,11.56c1.414,1.378,2.059,3.365,1.726,5.311
					l-2.8,16.324l14.66-7.707c1.748-0.919,3.836-0.919,5.584,0l14.659,7.707l-2.8-16.324c-0.333-1.946,0.312-3.932,1.726-5.311
					l11.86-11.56l-16.391-2.382c-1.954-0.284-3.644-1.511-4.518-3.282l-7.329-14.852l-7.331,14.852
					c-0.873,1.771-2.562,2.998-4.517,3.282L300.515,177.262z"/>
			</g>
		</g>
	</g>
</g>
</svg>
