<?xml version="1.0" encoding="utf-8"?>
<!-- Generator: Adobe Illustrator 22.1.0, SVG Export Plug-In . SVG Version: 6.00 Build 0)  -->
<svg version="1.1" id="Icon_Set" xmlns="http://www.w3.org/2000/svg" xmlns:xlink="http://www.w3.org/1999/xlink" x="0px" y="0px"
	 viewBox="0 0 512 512" style="enable-background:new 0 0 512 512;" xml:space="preserve">
<style type="text/css">
	.st0{fill:#F0C48A;}
	.st1{fill:#D3E6F8;}
	.st2{fill:#4C4372;}
	.st3{fill:#FD919E;}
	.st4{fill:#E8677D;}
	.st5{fill:#FFFFFF;}
	.st6{fill:#A4CFF2;}
	.st7{fill:#7BABF1;}
</style>
<g id="Schedule_Service">
	<g>
		<g>
			<circle class="st0" cx="256" cy="256" r="207"/>
		</g>
	</g>
	<g>
		<g>
			<path class="st5" d="M360.816,406.203H151.184c-9.434,0-17.081-7.647-17.081-17.081V149.49c0-9.434,7.647-17.081,17.081-17.081
				h209.632c9.434,0,17.081,7.647,17.081,17.081v239.632C377.897,398.556,370.25,406.203,360.816,406.203z"/>
		</g>
		<g>
			<path class="st1" d="M360.816,132.41h-11.735v273.793h11.735c9.433,0,17.081-7.646,17.081-17.08V149.49
				C377.897,140.056,370.25,132.41,360.816,132.41z"/>
		</g>
		<g>
			<path class="st3" d="M134.103,190.854h243.794V149.49c0-9.434-7.647-17.08-17.081-17.08H151.184
				c-9.433,0-17.081,7.646-17.081,17.08V190.854z"/>
		</g>
		<g>
			<path class="st4" d="M360.816,132.41h-11.735v58.444h28.815V149.49C377.897,140.056,370.25,132.41,360.816,132.41z"/>
		</g>
		<g>
			<path class="st2" d="M360.816,412.203H151.184c-12.727,0-23.08-10.354-23.08-23.081V149.49c0-12.727,10.354-23.081,23.08-23.081
				h209.633c12.727,0,23.08,10.354,23.08,23.081v239.632C383.896,401.849,373.543,412.203,360.816,412.203z M151.184,138.409
				c-6.109,0-11.08,4.971-11.08,11.081v239.632c0,6.11,4.971,11.081,11.08,11.081h209.633c6.109,0,11.08-4.971,11.08-11.081V149.49
				c0-6.11-4.971-11.081-11.08-11.081H151.184z"/>
		</g>
		<g>
			<g>
				<path class="st1" d="M228.742,343.869l72.821-72.821c9.977,3.279,21.394,0.956,29.327-6.978
					c7.933-7.933,10.252-19.347,6.974-29.323l-8.996,8.996c-5.055,5.055-13.25,5.055-18.305,0c-5.055-5.055-5.055-13.25,0-18.305
					l8.996-8.996c-10.314-3.39-22.165-0.796-30.118,7.8c-7.243,7.829-9.295,18.843-6.163,28.48l-72.862,72.862
					c-9.636-3.132-20.649-1.081-28.478,6.16c-8.597,7.952-11.192,19.804-7.802,30.12l8.996-8.996c5.055-5.055,13.25-5.055,18.305,0
					c5.055,5.055,5.054,13.251,0,18.305l-8.996,8.996c9.976,3.278,21.39,0.959,29.323-6.974
					C229.698,365.263,232.022,353.846,228.742,343.869z"/>
			</g>
			<g>
				<path class="st2" d="M201.509,387.631c-3.649,0-7.338-0.577-10.94-1.761c-1.98-0.65-3.48-2.282-3.964-4.31
					c-0.482-2.027,0.121-4.159,1.595-5.633l8.995-8.995c1.312-1.312,2.033-3.056,2.033-4.911c0.001-1.854-0.722-3.599-2.032-4.91
					c-2.707-2.705-7.112-2.706-9.821,0.001l-8.996,8.996c-1.474,1.474-3.605,2.074-5.634,1.594
					c-2.027-0.483-3.658-1.984-4.309-3.964c-4.236-12.895-0.535-27.182,9.429-36.397c8.275-7.653,19.772-10.732,30.749-8.438
					l67.984-67.983c-2.301-10.979,0.783-22.478,8.439-30.752c9.217-9.962,23.503-13.664,36.395-9.426
					c1.98,0.65,3.48,2.282,3.964,4.31c0.482,2.027-0.121,4.16-1.595,5.633l-8.996,8.996c-2.707,2.708-2.707,7.113,0.001,9.821
					c2.707,2.707,7.11,2.707,9.819,0l8.996-8.996c1.473-1.474,3.606-2.074,5.633-1.595c2.027,0.483,3.659,1.983,4.31,3.964
					c4.121,12.539,0.89,26.118-8.432,35.438c-8.422,8.422-20.318,11.872-31.775,9.427l-67.923,67.923
					c2.446,11.461-1.006,23.354-9.428,31.775C219.364,384.081,210.559,387.631,201.509,387.631z M192.285,343.088
					c4.851,0,9.701,1.846,13.395,5.538c7.311,7.311,7.385,19.158,0.226,26.562c4.314-0.86,8.362-2.98,11.616-6.233
					c6.104-6.105,8.22-14.999,5.521-23.212c-0.707-2.15-0.143-4.515,1.458-6.115l72.82-72.82c1.6-1.6,3.965-2.165,6.115-1.458
					c8.216,2.698,17.107,0.583,23.212-5.521c3.254-3.254,5.373-7.302,6.233-11.616c-3.55,3.436-8.213,5.323-13.166,5.323
					c-5.06,0-9.817-1.971-13.395-5.549c-7.297-7.297-7.385-19.113-0.267-26.52c-4.602,0.934-8.902,3.277-12.208,6.851
					c-5.564,6.015-7.427,14.655-4.861,22.552c0.697,2.146,0.132,4.502-1.464,6.097l-72.861,72.861
					c-1.596,1.596-3.952,2.162-6.097,1.464c-7.894-2.564-16.534-0.703-22.55,4.859c-3.574,3.306-5.918,7.607-6.852,12.211
					C182.818,344.846,187.552,343.088,192.285,343.088z"/>
			</g>
		</g>
		<g>
			<path class="st2" d="M377.896,196.854H134.104c-3.313,0-6-2.687-6-6s2.687-6,6-6h243.793c3.313,0,6,2.687,6,6
				S381.21,196.854,377.896,196.854z"/>
		</g>
		<g>
			<g>
				<path class="st7" d="M197.601,105.797L197.601,105.797c-7.794,0-14.113,6.319-14.113,14.113v25
					c0,7.794,6.319,14.113,14.113,14.113h0c7.794,0,14.113-6.319,14.113-14.113v-25
					C211.714,112.115,205.395,105.797,197.601,105.797z"/>
			</g>
			<g>
				<path class="st7" d="M314.399,105.797L314.399,105.797c-7.794,0-14.113,6.319-14.113,14.113v25
					c0,7.794,6.319,14.113,14.113,14.113h0c7.794,0,14.113-6.319,14.113-14.113v-25
					C328.512,112.115,322.193,105.797,314.399,105.797z"/>
			</g>
		</g>
		<g>
			<g>
				<path class="st2" d="M197.601,165.022c-11.09,0-20.112-9.022-20.112-20.113v-25c0-11.09,9.022-20.112,20.112-20.112
					c11.091,0,20.113,9.022,20.113,20.112v25C217.714,156,208.691,165.022,197.601,165.022z M197.601,111.797
					c-4.473,0-8.112,3.64-8.112,8.112v25c0,4.474,3.64,8.113,8.112,8.113c4.474,0,8.113-3.64,8.113-8.113v-25
					C205.714,115.437,202.074,111.797,197.601,111.797z"/>
			</g>
			<g>
				<path class="st2" d="M314.399,165.022c-11.091,0-20.113-9.022-20.113-20.113v-25c0-11.09,9.022-20.112,20.113-20.112
					c11.09,0,20.112,9.022,20.112,20.112v25C334.512,156,325.489,165.022,314.399,165.022z M314.399,111.797
					c-4.474,0-8.113,3.64-8.113,8.112v25c0,4.474,3.64,8.113,8.113,8.113c4.473,0,8.112-3.64,8.112-8.113v-25
					C322.512,115.437,318.872,111.797,314.399,111.797z"/>
			</g>
		</g>
	</g>
</g>
</svg>
