<?xml version="1.0" encoding="utf-8"?>
<!-- Generator: Adobe Illustrator 22.1.0, SVG Export Plug-In . SVG Version: 6.00 Build 0)  -->
<svg version="1.1" id="Icon_Set" xmlns="http://www.w3.org/2000/svg" xmlns:xlink="http://www.w3.org/1999/xlink" x="0px" y="0px"
	 viewBox="0 0 512 512" style="enable-background:new 0 0 512 512;" xml:space="preserve">
<style type="text/css">
	.st0{fill:#F0C48A;}
	.st1{fill:#D3E6F8;}
	.st2{fill:#4C4372;}
	.st3{fill:#FD919E;}
	.st4{fill:#E8677D;}
	.st5{fill:#FFFFFF;}
	.st6{fill:#A4CFF2;}
	.st7{fill:#7BABF1;}
</style>
<g id="SEO">
	<g>
		<g>
			<circle class="st0" cx="256" cy="256" r="207"/>
		</g>
	</g>
	<g>
		<g>
			<path class="st6" d="M247.756,429.54L247.756,429.54c-13.59,0-24.607-11.017-24.607-24.607V261.374h49.214v143.559
				C272.363,418.523,261.346,429.54,247.756,429.54z"/>
		</g>
		<g>
			<path class="st2" d="M247.756,435.54c-16.877,0-30.607-13.73-30.607-30.607V261.374c0-3.313,2.687-6,6-6h49.214
				c3.313,0,6,2.687,6,6v143.559C278.362,421.81,264.632,435.54,247.756,435.54z M229.148,267.374v137.559
				c0,10.26,8.348,18.607,18.607,18.607s18.606-8.347,18.606-18.607V267.374H229.148z"/>
		</g>
		<g>
			<circle class="st1" cx="247.755" cy="200.316" r="117.856"/>
		</g>
		<g>
			<circle class="st5" cx="247.755" cy="200.316" r="84.98"/>
		</g>
		<g>
			<path class="st2" d="M247.756,324.173c-68.295,0-123.856-55.562-123.856-123.856S179.461,76.46,247.756,76.46
				s123.856,55.562,123.856,123.856S316.051,324.173,247.756,324.173z M247.756,88.46c-61.678,0-111.856,50.179-111.856,111.856
				s50.179,111.856,111.856,111.856s111.856-50.179,111.856-111.856S309.434,88.46,247.756,88.46z"/>
		</g>
		<g>
			<path class="st2" d="M247.756,291.296c-50.167,0-90.98-40.813-90.98-90.98s40.813-90.98,90.98-90.98
				c50.166,0,90.979,40.813,90.979,90.98S297.922,291.296,247.756,291.296z M247.756,121.336c-43.55,0-78.98,35.43-78.98,78.98
				s35.431,78.98,78.98,78.98s78.979-35.43,78.979-78.98S291.306,121.336,247.756,121.336z"/>
		</g>
		<g>
			<g>
				<path class="st3" d="M382.101,369.487v-22.231h-22.269c-1.272-5.617-3.483-10.874-6.465-15.601l15.748-15.748l-15.719-15.719
					l-15.748,15.748c-4.727-2.982-9.984-5.193-15.601-6.465v-22.269h-22.231v22.269c-5.617,1.272-10.874,3.483-15.601,6.465
					l-15.748-15.748l-15.719,15.719l15.748,15.748c-2.982,4.727-5.193,9.984-6.465,15.601h-22.269v22.231h22.269
					c1.272,5.617,3.483,10.874,6.465,15.601l-15.748,15.748l15.719,15.719l15.748-15.748c4.727,2.982,9.984,5.193,15.601,6.465
					v22.269h22.231v-22.269c5.617-1.272,10.874-3.483,15.601-6.465l15.748,15.748l15.719-15.719l-15.748-15.748
					c2.982-4.727,5.193-9.984,6.465-15.601H382.101z M310.932,387.988c-16.357,0-29.617-13.26-29.617-29.617
					c0-16.357,13.26-29.617,29.617-29.617c16.357,0,29.617,13.26,29.617,29.617C340.549,374.728,327.289,387.988,310.932,387.988z"
					/>
			</g>
			<g>
				<path class="st2" d="M322.048,435.54h-22.231c-3.313,0-6-2.686-6-6v-17.69c-2.961-0.946-5.833-2.136-8.597-3.562l-12.51,12.51
					c-1.125,1.125-2.651,1.757-4.242,1.757c-1.592,0-3.117-0.632-4.243-1.757l-15.719-15.719c-2.343-2.343-2.343-6.142,0-8.485
					l12.51-12.51c-1.427-2.764-2.617-5.636-3.562-8.597h-17.689c-3.313,0-6-2.687-6-6v-22.23c0-3.313,2.687-6,6-6h17.689
					c0.945-2.961,2.136-5.833,3.562-8.596l-12.51-12.51c-2.343-2.343-2.343-6.142,0-8.485l15.719-15.72
					c1.126-1.125,2.651-1.757,4.243-1.757c1.591,0,3.117,0.632,4.242,1.757l12.51,12.51c2.764-1.427,5.636-2.617,8.597-3.562
					v-17.689c0-3.313,2.687-6,6-6h22.231c3.313,0,6,2.687,6,6v17.689c2.961,0.946,5.833,2.136,8.597,3.562l12.51-12.51
					c1.125-1.125,2.651-1.757,4.242-1.757l0,0c1.592,0,3.117,0.632,4.243,1.757l15.719,15.72c2.343,2.343,2.343,6.142-0.001,8.485
					l-12.509,12.509c1.427,2.764,2.617,5.635,3.562,8.597h17.689c3.313,0,6,2.687,6,6v22.23c0,3.313-2.687,6-6,6h-17.689
					c-0.945,2.961-2.136,5.833-3.562,8.597l12.509,12.509c2.344,2.343,2.344,6.142,0.001,8.485l-15.719,15.719
					c-1.126,1.125-2.651,1.757-4.243,1.757c-1.591,0-3.117-0.632-4.242-1.757l-12.51-12.51c-2.764,1.426-5.636,2.617-8.597,3.562
					v17.69C328.048,432.854,325.361,435.54,322.048,435.54z M305.816,423.54h10.231v-16.269c0-2.803,1.94-5.232,4.675-5.852
					c4.875-1.104,9.492-3.018,13.725-5.688c2.369-1.495,5.462-1.151,7.443,0.832l11.506,11.505l7.233-7.234l-11.505-11.505
					c-1.982-1.982-2.328-5.073-0.832-7.444c2.67-4.232,4.584-8.85,5.688-13.724c0.618-2.734,3.048-4.675,5.852-4.675h16.269v-10.23
					h-16.269c-2.804,0-5.233-1.941-5.852-4.675c-1.104-4.874-3.018-9.491-5.688-13.724c-1.496-2.371-1.15-5.462,0.832-7.444
					l11.505-11.505l-7.233-7.234l-11.506,11.505c-1.981,1.982-5.074,2.327-7.443,0.832c-4.232-2.67-8.85-4.583-13.725-5.687
					c-2.733-0.619-4.675-3.049-4.675-5.852v-16.269h-10.231v16.269c0,2.803-1.941,5.233-4.675,5.852
					c-4.875,1.104-9.492,3.017-13.725,5.687c-2.37,1.495-5.462,1.15-7.443-0.832l-11.506-11.505l-7.233,7.234l11.505,11.505
					c1.981,1.982,2.327,5.073,0.832,7.444c-2.671,4.233-4.584,8.851-5.688,13.724c-0.618,2.734-3.048,4.675-5.852,4.675h-16.269
					v10.23h16.269c2.804,0,5.233,1.941,5.852,4.675c1.104,4.874,3.017,9.492,5.688,13.725c1.495,2.371,1.149,5.461-0.832,7.444
					l-11.505,11.505l7.233,7.234l11.506-11.505c1.981-1.983,5.073-2.327,7.443-0.832c4.232,2.67,8.85,4.583,13.725,5.688
					c2.734,0.619,4.675,3.048,4.675,5.852V423.54z M310.933,393.988c-19.64,0-35.617-15.978-35.617-35.617
					s15.978-35.617,35.617-35.617c19.639,0,35.616,15.978,35.616,35.617S330.571,393.988,310.933,393.988z M310.933,334.754
					c-13.022,0-23.617,10.594-23.617,23.617s10.595,23.617,23.617,23.617s23.616-10.594,23.616-23.617
					S323.955,334.754,310.933,334.754z"/>
			</g>
		</g>
	</g>
</g>
</svg>
