<?xml version="1.0" encoding="utf-8"?>
<!-- Generator: Adobe Illustrator 22.1.0, SVG Export Plug-In . SVG Version: 6.00 Build 0)  -->
<svg version="1.1" id="Icon_Set" xmlns="http://www.w3.org/2000/svg" xmlns:xlink="http://www.w3.org/1999/xlink" x="0px" y="0px"
	 viewBox="0 0 512 512" style="enable-background:new 0 0 512 512;" xml:space="preserve">
<style type="text/css">
	.st0{fill:#F0C48A;}
	.st1{fill:#D3E6F8;}
	.st2{fill:#4C4372;}
	.st3{fill:#FD919E;}
	.st4{fill:#E8677D;}
	.st5{fill:#FFFFFF;}
	.st6{fill:#A4CFF2;}
	.st7{fill:#7BABF1;}
</style>
<g id="SEO_Performance">
	<g>
		<g>
			<circle class="st0" cx="256" cy="256" r="207"/>
		</g>
	</g>
	<g>
		<g>
			<polygon class="st3" points="346.529,114.181 330.386,98.038 352.438,92.129 374.49,86.221 368.581,108.272 362.672,130.324 			
				"/>
		</g>
		<g>
			<g>
				<path class="st6" d="M234.627,425.779L234.627,425.779c-12.257,0-22.192-9.936-22.192-22.192V274.116h44.385v129.471
					C256.819,415.844,246.883,425.779,234.627,425.779z"/>
			</g>
			<g>
				<path class="st2" d="M234.627,431.779c-15.545,0-28.192-12.647-28.192-28.192V274.116c0-3.314,2.687-6,6-6h44.385
					c3.313,0,6,2.686,6,6v129.471C262.819,419.132,250.172,431.779,234.627,431.779z M218.435,280.116v123.471
					c0,8.929,7.264,16.192,16.192,16.192s16.192-7.264,16.192-16.192V280.116H218.435z"/>
			</g>
			<g>
				<circle class="st1" cx="234.627" cy="219.05" r="106.291"/>
			</g>
			<g>
				<circle class="st5" cx="234.627" cy="219.05" r="76.641"/>
			</g>
			<g>
				<path class="st2" d="M234.627,331.341c-61.917,0-112.291-50.374-112.291-112.291c0-61.917,50.374-112.291,112.291-112.291
					c61.917,0,112.291,50.374,112.291,112.291C346.917,280.967,296.544,331.341,234.627,331.341z M234.627,118.759
					c-55.301,0-100.291,44.99-100.291,100.291c0,55.3,44.99,100.291,100.291,100.291c55.3,0,100.291-44.99,100.291-100.291
					C334.917,163.75,289.927,118.759,234.627,118.759z"/>
			</g>
			<g>
				<path class="st2" d="M234.627,301.691c-45.568,0-82.641-37.072-82.641-82.641s37.072-82.641,82.641-82.641
					s82.641,37.072,82.641,82.641S280.195,301.691,234.627,301.691z M234.627,148.41c-38.951,0-70.641,31.689-70.641,70.641
					s31.689,70.641,70.641,70.641s70.641-31.689,70.641-70.641S273.578,148.41,234.627,148.41z"/>
			</g>
		</g>
		<g>
			<rect x="258.623" y="202.038" class="st3" width="41.68" height="57.73"/>
		</g>
		<g>
			<rect x="300.303" y="174.982" class="st3" width="41.68" height="84.786"/>
		</g>
		<g>
			<rect x="341.984" y="147.926" class="st3" width="41.68" height="111.843"/>
		</g>
		<g>
			<path class="st2" d="M300.303,265.768h-41.68c-3.313,0-6-2.687-6-6v-57.73c0-3.313,2.687-6,6-6h41.68c3.313,0,6,2.687,6,6v57.73
				C306.303,263.082,303.617,265.768,300.303,265.768z M264.623,253.768h29.68v-45.73h-29.68V253.768z"/>
		</g>
		<g>
			<path class="st2" d="M341.984,265.768h-41.681c-3.313,0-6-2.687-6-6v-84.786c0-3.313,2.687-6,6-6h41.681c3.313,0,6,2.687,6,6
				v84.786C347.984,263.082,345.297,265.768,341.984,265.768z M306.303,253.768h29.681v-72.786h-29.681V253.768z"/>
		</g>
		<g>
			<path class="st2" d="M383.664,265.768h-41.68c-3.313,0-6-2.687-6-6V147.926c0-3.313,2.687-6,6-6h41.68c3.313,0,6,2.687,6,6
				v111.842C389.664,263.082,386.978,265.768,383.664,265.768z M347.984,253.768h29.68v-99.842h-29.68V253.768z"/>
		</g>
		<g>
			<path class="st2" d="M362.672,136.324c-1.571,0-3.103-0.617-4.243-1.757l-16.143-16.143l0,0l-16.143-16.143
				c-1.516-1.516-2.108-3.725-1.553-5.795c0.555-2.071,2.172-3.688,4.243-4.243l44.104-11.817c2.072-0.555,4.28,0.037,5.795,1.553
				s2.108,3.725,1.553,5.796l-11.818,44.103c-0.555,2.071-2.172,3.688-4.243,4.243C363.711,136.257,363.19,136.324,362.672,136.324z
				 M350.771,109.938l8.794,8.794l6.438-24.027l-24.027,6.438L350.771,109.938z"/>
		</g>
		<g>
			<path class="st2" d="M276.566,190.144c-1.536,0-3.071-0.586-4.243-1.757c-2.343-2.343-2.343-6.142,0-8.485l69.963-69.963
				c2.343-2.343,6.143-2.343,8.485,0c2.343,2.343,2.343,6.142,0,8.485l-69.963,69.963
				C279.637,189.558,278.102,190.144,276.566,190.144z"/>
		</g>
	</g>
</g>
</svg>
