<?xml version="1.0" encoding="utf-8"?>
<!-- Generator: Adobe Illustrator 22.1.0, SVG Export Plug-In . SVG Version: 6.00 Build 0)  -->
<svg version="1.1" id="Icon_Set" xmlns="http://www.w3.org/2000/svg" xmlns:xlink="http://www.w3.org/1999/xlink" x="0px" y="0px"
	 viewBox="0 0 512 512" style="enable-background:new 0 0 512 512;" xml:space="preserve">
<style type="text/css">
	.st0{fill:#F0C48A;}
	.st1{fill:#D3E6F8;}
	.st2{fill:#4C4372;}
	.st3{fill:#FD919E;}
	.st4{fill:#E8677D;}
	.st5{fill:#FFFFFF;}
	.st6{fill:#A4CFF2;}
	.st7{fill:#7BABF1;}
</style>
<g id="Server_Cabinet">
	<g>
		<g>
			<circle class="st0" cx="256" cy="256" r="207"/>
		</g>
	</g>
	<g>
		<g>
			<path class="st3" d="M358.707,382.176H153.293c-10.225,0-18.513-8.289-18.513-18.513v-243.61
				c0-10.225,8.289-18.513,18.513-18.513h205.414c10.225,0,18.513,8.289,18.513,18.513v243.61
				C377.22,373.887,368.932,382.176,358.707,382.176z"/>
		</g>
		<g>
			<path class="st4" d="M358.707,101.539h-5.306v280.638h5.306c10.225,0,18.513-8.289,18.513-18.514v-243.61
				C377.22,109.828,368.932,101.539,358.707,101.539z"/>
		</g>
		<g>
			<g>
				<rect x="158.577" y="382.176" class="st4" width="33.277" height="28.286"/>
			</g>
			<g>
				<rect x="320.146" y="382.176" class="st4" width="33.277" height="28.286"/>
			</g>
		</g>
		<g>
			<g>
				<path class="st7" d="M344.217,186.711H167.783c-5.072,0-9.184-4.112-9.184-9.184v-34.803c0-5.072,4.112-9.184,9.184-9.184
					h176.433c5.072,0,9.184,4.112,9.184,9.184v34.803C353.401,182.599,349.289,186.711,344.217,186.711z"/>
			</g>
			<g>
				<path class="st2" d="M344.217,192.711H167.783c-8.373,0-15.185-6.812-15.185-15.185v-34.803c0-8.372,6.812-15.184,15.185-15.184
					h176.434c8.373,0,15.185,6.812,15.185,15.184v34.803C359.401,185.899,352.59,192.711,344.217,192.711z M167.783,139.54
					c-1.756,0-3.185,1.428-3.185,3.184v34.803c0,1.756,1.429,3.185,3.185,3.185h176.434c1.756,0,3.185-1.429,3.185-3.185v-34.803
					c0-1.756-1.429-3.184-3.185-3.184H167.783z"/>
			</g>
		</g>
		<g>
			<g>
				<path class="st7" d="M344.217,268.443H167.783c-5.072,0-9.184-4.112-9.184-9.184v-34.803c0-5.072,4.112-9.184,9.184-9.184
					h176.433c5.072,0,9.184,4.112,9.184,9.184v34.803C353.401,264.331,349.289,268.443,344.217,268.443z"/>
			</g>
			<g>
				<path class="st2" d="M344.217,274.443H167.783c-8.373,0-15.185-6.812-15.185-15.185v-34.803c0-8.373,6.812-15.185,15.185-15.185
					h176.434c8.373,0,15.185,6.812,15.185,15.185v34.803C359.401,267.632,352.59,274.443,344.217,274.443z M167.783,221.271
					c-1.756,0-3.185,1.429-3.185,3.185v34.803c0,1.756,1.429,3.185,3.185,3.185h176.434c1.756,0,3.185-1.429,3.185-3.185v-34.803
					c0-1.756-1.429-3.185-3.185-3.185H167.783z"/>
			</g>
		</g>
		<g>
			<path class="st2" d="M358.707,388.176H153.293c-13.517,0-24.514-10.997-24.514-24.514V120.053
				c0-13.517,10.997-24.514,24.514-24.514h205.414c13.517,0,24.514,10.997,24.514,24.514v243.609
				C383.221,377.179,372.224,388.176,358.707,388.176z M153.293,107.539c-6.9,0-12.514,5.613-12.514,12.514v243.609
				c0,6.9,5.613,12.514,12.514,12.514h205.414c6.9,0,12.514-5.613,12.514-12.514V120.053c0-6.9-5.613-12.514-12.514-12.514H153.293z
				"/>
		</g>
		<g>
			<g>
				<path class="st2" d="M191.854,416.461h-33.277c-3.313,0-6-2.687-6-6v-28.285c0-3.313,2.687-6,6-6h33.277c3.313,0,6,2.687,6,6
					v28.285C197.854,413.774,195.168,416.461,191.854,416.461z M164.577,404.461h21.277v-16.285h-21.277V404.461z"/>
			</g>
			<g>
				<path class="st2" d="M353.423,416.461h-33.277c-3.313,0-6-2.687-6-6v-28.285c0-3.313,2.687-6,6-6h33.277c3.313,0,6,2.687,6,6
					v28.285C359.423,413.774,356.736,416.461,353.423,416.461z M326.146,404.461h21.277v-16.285h-21.277V404.461z"/>
			</g>
		</g>
		<g>
			<g>
				<path class="st7" d="M344.217,350.175H167.783c-5.072,0-9.184-4.112-9.184-9.184v-34.803c0-5.072,4.112-9.184,9.184-9.184
					h176.433c5.072,0,9.184,4.112,9.184,9.184v34.803C353.401,346.063,349.289,350.175,344.217,350.175z"/>
			</g>
		</g>
		<g>
			<g>
				<path class="st2" d="M344.217,356.175H167.783c-8.373,0-15.185-6.812-15.185-15.184v-34.803c0-8.373,6.812-15.185,15.185-15.185
					h176.434c8.373,0,15.185,6.812,15.185,15.185v34.803C359.401,349.363,352.59,356.175,344.217,356.175z M167.783,303.004
					c-1.756,0-3.185,1.429-3.185,3.185v34.803c0,1.756,1.429,3.184,3.185,3.184h176.434c1.756,0,3.185-1.428,3.185-3.184v-34.803
					c0-1.756-1.429-3.185-3.185-3.185H167.783z"/>
			</g>
		</g>
	</g>
</g>
</svg>
