<?xml version="1.0" encoding="utf-8"?>
<!-- Generator: Adobe Illustrator 22.1.0, SVG Export Plug-In . SVG Version: 6.00 Build 0)  -->
<svg version="1.1" id="Icon_Set" xmlns="http://www.w3.org/2000/svg" xmlns:xlink="http://www.w3.org/1999/xlink" x="0px" y="0px"
	 viewBox="0 0 512 512" style="enable-background:new 0 0 512 512;" xml:space="preserve">
<style type="text/css">
	.st0{fill:#F0C48A;}
	.st1{fill:#D3E6F8;}
	.st2{fill:#4C4372;}
	.st3{fill:#FD919E;}
	.st4{fill:#E8677D;}
	.st5{fill:#FFFFFF;}
	.st6{fill:#A4CFF2;}
	.st7{fill:#7BABF1;}
</style>
<g id="Server_Client">
	<g>
		<g>
			<circle class="st0" cx="256" cy="256" r="207"/>
		</g>
	</g>
	<g>
		<g>
			<g>
				<rect x="134.381" y="187.453" class="st7" width="162.863" height="111.405"/>
			</g>
			<g>
				<rect x="134.381" y="363.063" class="st7" width="35.35" height="25.689"/>
			</g>
			<g>
				<rect x="261.894" y="363.063" class="st7" width="35.35" height="25.689"/>
			</g>
			<g>
				<path class="st2" d="M297.245,304.858H134.381c-3.313,0-6-2.687-6-6V187.453c0-3.313,2.687-6,6-6h162.863c3.313,0,6,2.687,6,6
					v111.405C303.245,302.172,300.558,304.858,297.245,304.858z M140.381,292.858h150.863v-99.405H140.381V292.858z"/>
			</g>
			<g>
				<path class="st2" d="M169.731,394.752h-35.35c-3.313,0-6-2.687-6-6v-25.689c0-3.313,2.687-6,6-6h35.35c3.313,0,6,2.687,6,6
					v25.689C175.731,392.065,173.045,394.752,169.731,394.752z M140.381,382.752h23.35v-13.689h-23.35V382.752z"/>
			</g>
			<g>
				<path class="st2" d="M297.245,394.752h-35.35c-3.313,0-6-2.687-6-6v-25.689c0-3.313,2.687-6,6-6h35.35c3.313,0,6,2.687,6,6
					v25.689C303.245,392.065,300.558,394.752,297.245,394.752z M267.895,382.752h23.35v-13.689h-23.35V382.752z"/>
			</g>
			<g>
				<g>
					<path class="st1" d="M307.906,275.258H123.72c-6.125,0-11.09-4.965-11.09-11.09v-42.025c0-6.125,4.965-11.09,11.09-11.09
						h184.185c6.125,0,11.09,4.965,11.09,11.09v42.025C318.996,270.293,314.03,275.258,307.906,275.258z"/>
				</g>
				<g>
					<path class="st6" d="M307.905,211.053H289.14v64.205h18.765c6.125,0,11.09-4.965,11.09-11.09v-42.025
						C318.995,216.018,314.03,211.053,307.905,211.053z"/>
				</g>
				<g>
					<path class="st2" d="M307.906,281.258H123.72c-9.423,0-17.09-7.666-17.09-17.09v-42.024c0-9.424,7.667-17.091,17.09-17.091
						h184.186c9.423,0,17.09,7.667,17.09,17.091v42.024C324.996,273.592,317.329,281.258,307.906,281.258z M123.72,217.053
						c-2.807,0-5.09,2.284-5.09,5.091v42.024c0,2.807,2.283,5.09,5.09,5.09h184.186c2.807,0,5.09-2.283,5.09-5.09v-42.024
						c0-2.807-2.283-5.091-5.09-5.091H123.72z"/>
				</g>
				<g>
					<circle class="st3" cx="147.783" cy="243.155" r="13.402"/>
				</g>
				<g>
					<path class="st5" d="M283.842,229.753h-88.24c-7.402,0-13.402,6-13.402,13.402v0c0,7.402,6,13.402,13.402,13.402h88.24
						c7.402,0,13.402-6,13.402-13.402v0C297.244,235.754,291.244,229.753,283.842,229.753z"/>
				</g>
				<g>
					<path class="st2" d="M283.842,262.558h-88.24c-10.699,0-19.402-8.704-19.402-19.402s8.704-19.401,19.402-19.401h88.24
						c10.699,0,19.402,8.703,19.402,19.401S294.541,262.558,283.842,262.558z M195.603,235.754c-4.082,0-7.402,3.32-7.402,7.401
						c0,4.082,3.321,7.402,7.402,7.402h88.24c4.082,0,7.402-3.32,7.402-7.402c0-4.081-3.321-7.401-7.402-7.401H195.603z"/>
				</g>
				<g>
					<path class="st2" d="M147.783,262.558c-10.698,0-19.402-8.704-19.402-19.402s8.704-19.401,19.402-19.401
						c10.699,0,19.402,8.703,19.402,19.401S158.482,262.558,147.783,262.558z M147.783,235.754c-4.082,0-7.402,3.32-7.402,7.401
						c0,4.082,3.32,7.402,7.402,7.402s7.402-3.32,7.402-7.402C155.186,239.074,151.865,235.754,147.783,235.754z"/>
				</g>
			</g>
			<g>
				<g>
					<path class="st3" d="M307.906,363.063H123.72c-6.125,0-11.09-4.965-11.09-11.09v-42.025c0-6.125,4.965-11.09,11.09-11.09
						h184.185c6.125,0,11.09,4.965,11.09,11.09v42.025C318.996,358.098,314.03,363.063,307.906,363.063z"/>
				</g>
				<g>
					<path class="st4" d="M307.905,298.858H289.14v64.205h18.765c6.125,0,11.09-4.965,11.09-11.09v-42.025
						C318.995,303.823,314.03,298.858,307.905,298.858z"/>
				</g>
				<g>
					<path class="st2" d="M307.906,369.062H123.72c-9.423,0-17.09-7.666-17.09-17.09v-42.024c0-9.424,7.667-17.09,17.09-17.09
						h184.186c9.423,0,17.09,7.666,17.09,17.09v42.024C324.996,361.396,317.329,369.062,307.906,369.062z M123.72,304.858
						c-2.807,0-5.09,2.283-5.09,5.09v42.024c0,2.807,2.283,5.09,5.09,5.09h184.186c2.807,0,5.09-2.283,5.09-5.09v-42.024
						c0-2.807-2.283-5.09-5.09-5.09H123.72z"/>
				</g>
				<g>
					<circle class="st7" cx="147.783" cy="330.96" r="13.402"/>
				</g>
				<g>
					<path class="st5" d="M283.842,317.558h-88.24c-7.402,0-13.402,6-13.402,13.402v0c0,7.402,6,13.402,13.402,13.402h88.24
						c7.402,0,13.402-6,13.402-13.402v0C297.244,323.559,291.244,317.558,283.842,317.558z"/>
				</g>
				<g>
					<path class="st2" d="M283.842,350.362h-88.24c-10.699,0-19.402-8.704-19.402-19.402s8.704-19.401,19.402-19.401h88.24
						c10.699,0,19.402,8.703,19.402,19.401S294.541,350.362,283.842,350.362z M195.603,323.559c-4.082,0-7.402,3.32-7.402,7.401
						c0,4.082,3.321,7.402,7.402,7.402h88.24c4.082,0,7.402-3.32,7.402-7.402c0-4.081-3.321-7.401-7.402-7.401H195.603z"/>
				</g>
				<g>
					<path class="st2" d="M147.783,350.362c-10.698,0-19.402-8.704-19.402-19.402s8.704-19.401,19.402-19.401
						c10.699,0,19.402,8.703,19.402,19.401S158.482,350.362,147.783,350.362z M147.783,323.559c-4.082,0-7.402,3.32-7.402,7.401
						c0,4.082,3.32,7.402,7.402,7.402s7.402-3.32,7.402-7.402C155.186,326.879,151.865,323.559,147.783,323.559z"/>
				</g>
			</g>
			<g>
				<g>
					<path class="st3" d="M307.906,187.453H123.72c-6.125,0-11.09-4.965-11.09-11.09v-42.025c0-6.125,4.965-11.09,11.09-11.09
						h184.185c6.125,0,11.09,4.965,11.09,11.09v42.025C318.996,182.488,314.03,187.453,307.906,187.453z"/>
				</g>
				<g>
					<path class="st4" d="M307.905,123.248H289.14v64.205h18.765c6.125,0,11.09-4.965,11.09-11.09v-42.025
						C318.995,128.213,314.03,123.248,307.905,123.248z"/>
				</g>
				<g>
					<path class="st2" d="M307.906,193.453H123.72c-9.423,0-17.09-7.666-17.09-17.09v-42.025c0-9.424,7.667-17.09,17.09-17.09
						h184.186c9.423,0,17.09,7.666,17.09,17.09v42.025C324.996,185.787,317.329,193.453,307.906,193.453z M123.72,129.248
						c-2.807,0-5.09,2.283-5.09,5.09v42.025c0,2.807,2.283,5.09,5.09,5.09h184.186c2.807,0,5.09-2.283,5.09-5.09v-42.025
						c0-2.807-2.283-5.09-5.09-5.09H123.72z"/>
				</g>
				<g>
					<circle class="st7" cx="147.783" cy="155.351" r="13.402"/>
				</g>
				<g>
					<path class="st5" d="M283.842,141.949h-88.24c-7.402,0-13.402,6-13.402,13.402v0c0,7.402,6,13.402,13.402,13.402h88.24
						c7.402,0,13.402-6,13.402-13.402v0C297.244,147.949,291.244,141.949,283.842,141.949z"/>
				</g>
				<g>
					<path class="st2" d="M283.842,174.753h-88.24c-10.699,0-19.402-8.704-19.402-19.402s8.704-19.402,19.402-19.402h88.24
						c10.699,0,19.402,8.704,19.402,19.402S294.541,174.753,283.842,174.753z M195.603,147.948c-4.082,0-7.402,3.32-7.402,7.402
						s3.321,7.402,7.402,7.402h88.24c4.082,0,7.402-3.32,7.402-7.402s-3.321-7.402-7.402-7.402H195.603z"/>
				</g>
				<g>
					<path class="st2" d="M147.783,174.753c-10.698,0-19.402-8.704-19.402-19.402s8.704-19.402,19.402-19.402
						c10.699,0,19.402,8.704,19.402,19.402S158.482,174.753,147.783,174.753z M147.783,147.948c-4.082,0-7.402,3.32-7.402,7.402
						s3.32,7.402,7.402,7.402s7.402-3.32,7.402-7.402S151.865,147.948,147.783,147.948z"/>
				</g>
			</g>
		</g>
		<g>
			<g>
				<path class="st1" d="M399.37,388.752H235.207v-49.996c0-17.533,14.213-31.745,31.745-31.745h100.672
					c17.533,0,31.745,14.213,31.745,31.745V388.752z"/>
			</g>
			<g>
				<path class="st2" d="M399.37,394.752H235.207c-3.313,0-6-2.687-6-6v-49.997c0-20.812,16.933-37.745,37.746-37.745h100.672
					c20.813,0,37.746,16.933,37.746,37.745v49.997C405.37,392.065,402.683,394.752,399.37,394.752z M241.207,382.752H393.37v-43.997
					c0-14.196-11.549-25.745-25.746-25.745H266.952c-14.196,0-25.746,11.549-25.746,25.745V382.752z"/>
			</g>
			<g>
				<path class="st5" d="M317.288,328.394L317.288,328.394c-10.842,0-19.63-8.789-19.63-19.63v-28.022h39.261v28.022
					C336.919,319.605,328.13,328.394,317.288,328.394z"/>
			</g>
			<g>
				<path class="st2" d="M317.288,334.395c-14.133,0-25.63-11.498-25.63-25.631v-28.021c0-3.313,2.687-6,6-6h39.261
					c3.313,0,6,2.687,6,6v28.021C342.918,322.896,331.421,334.395,317.288,334.395z M303.658,286.742v22.021
					c0,7.516,6.115,13.631,13.63,13.631s13.63-6.115,13.63-13.631v-22.021H303.658z"/>
			</g>
			<g>
				<g>
					<path class="st2" d="M270.944,394.752c-3.313,0-6-2.687-6-6v-33.164c0-3.313,2.687-6,6-6s6,2.687,6,6v33.164
						C276.944,392.065,274.257,394.752,270.944,394.752z"/>
				</g>
				<g>
					<path class="st2" d="M363.633,394.752c-3.313,0-6-2.687-6-6v-33.164c0-3.313,2.687-6,6-6s6,2.687,6,6v33.164
						C369.633,392.065,366.946,394.752,363.633,394.752z"/>
				</g>
			</g>
			<g>
				<path class="st5" d="M317.288,297.253L317.288,297.253c-23.806,0-43.105-19.299-43.105-43.105v-23.59
					c0-23.806,19.299-43.105,43.105-43.105h0c23.806,0,43.105,19.299,43.105,43.105v23.59
					C360.393,277.954,341.095,297.253,317.288,297.253z"/>
			</g>
			<g>
				<path class="st2" d="M317.288,303.253c-27.077,0-49.105-22.028-49.105-49.105v-23.59c0-27.076,22.028-49.104,49.105-49.104
					s49.105,22.028,49.105,49.104v23.59C366.394,281.225,344.365,303.253,317.288,303.253z M317.288,193.453
					c-20.46,0-37.105,16.645-37.105,37.104v23.59c0,20.46,16.645,37.105,37.105,37.105s37.105-16.646,37.105-37.105v-23.59
					C354.394,210.098,337.748,193.453,317.288,193.453z"/>
			</g>
		</g>
	</g>
</g>
</svg>
