<?xml version="1.0" encoding="utf-8"?>
<!-- Generator: Adobe Illustrator 22.1.0, SVG Export Plug-In . SVG Version: 6.00 Build 0)  -->
<svg version="1.1" id="Icon_Set" xmlns="http://www.w3.org/2000/svg" xmlns:xlink="http://www.w3.org/1999/xlink" x="0px" y="0px"
	 viewBox="0 0 512 512" style="enable-background:new 0 0 512 512;" xml:space="preserve">
<style type="text/css">
	.st0{fill:#F0C48A;}
	.st1{fill:#D3E6F8;}
	.st2{fill:#4C4372;}
	.st3{fill:#FD919E;}
	.st4{fill:#E8677D;}
	.st5{fill:#FFFFFF;}
	.st6{fill:#A4CFF2;}
	.st7{fill:#7BABF1;}
</style>
<g id="Server_Rack">
	<g>
		<g>
			<circle class="st0" cx="256" cy="256" r="207"/>
		</g>
	</g>
	<g>
		<g>
			<g>
				<path class="st1" d="M355.458,208.79H156.542c-9.234,0-16.719-7.485-16.719-16.719v-60.818c0-9.234,7.485-16.719,16.719-16.719
					h198.916c9.234,0,16.719,7.485,16.719,16.719v60.818C372.177,201.304,364.692,208.79,355.458,208.79z"/>
			</g>
			<g>
				<path class="st6" d="M355.458,114.534h-16.361v94.256h16.361c9.234,0,16.719-7.485,16.719-16.72v-60.817
					C372.177,122.02,364.692,114.534,355.458,114.534z"/>
			</g>
			<g>
				<path class="st2" d="M355.458,214.79H156.542c-12.527,0-22.719-10.191-22.719-22.719v-60.818
					c0-12.527,10.191-22.719,22.719-22.719h198.916c12.527,0,22.719,10.191,22.719,22.719v60.818
					C378.177,204.599,367.985,214.79,355.458,214.79z M156.542,120.534c-5.91,0-10.719,4.809-10.719,10.719v60.818
					c0,5.91,4.809,10.719,10.719,10.719h198.916c5.91,0,10.719-4.809,10.719-10.719v-60.818c0-5.91-4.809-10.719-10.719-10.719
					H156.542z"/>
			</g>
			<g>
				<g>
					<path class="st2" d="M165.475,187.439c-3.313,0-6-2.687-6-6v-42.979c0-3.313,2.687-6,6-6s6,2.687,6,6v42.979
						C171.475,184.753,168.788,187.439,165.475,187.439z"/>
				</g>
				<g>
					<path class="st2" d="M189.787,187.439c-3.313,0-6-2.687-6-6v-42.979c0-3.313,2.687-6,6-6s6,2.687,6,6v42.979
						C195.787,184.753,193.101,187.439,189.787,187.439z"/>
				</g>
				<g>
					<path class="st2" d="M214.1,187.439c-3.313,0-6-2.687-6-6v-42.979c0-3.313,2.687-6,6-6s6,2.687,6,6v42.979
						C220.1,184.753,217.413,187.439,214.1,187.439z"/>
				</g>
				<g>
					<g>
						<path class="st2" d="M331.163,187.439h-77.666c-3.313,0-6-2.687-6-6s2.687-6,6-6h77.666c3.313,0,6,2.687,6,6
							S334.477,187.439,331.163,187.439z"/>
					</g>
					<g>
						<g>
							<circle class="st2" cx="245.563" cy="151.723" r="7.429"/>
						</g>
						<g>
							<circle class="st2" cx="268.947" cy="151.723" r="7.429"/>
						</g>
						<g>
							<circle class="st2" cx="292.33" cy="151.723" r="7.429"/>
						</g>
						<g>
							<circle class="st2" cx="315.713" cy="151.723" r="7.429"/>
						</g>
						<g>
							<circle class="st2" cx="339.097" cy="151.723" r="7.429"/>
						</g>
					</g>
				</g>
			</g>
		</g>
		<g>
			<g>
				<path class="st3" d="M355.458,303.128H156.542c-9.234,0-16.719-7.485-16.719-16.719v-60.818c0-9.234,7.485-16.719,16.719-16.719
					h198.916c9.234,0,16.719,7.485,16.719,16.719v60.818C372.177,295.642,364.692,303.128,355.458,303.128z"/>
			</g>
			<g>
				<path class="st4" d="M355.458,208.872h-16.361v94.256h16.361c9.234,0,16.719-7.485,16.719-16.72v-60.817
					C372.177,216.358,364.692,208.872,355.458,208.872z"/>
			</g>
			<g>
				<path class="st2" d="M355.458,309.128H156.542c-12.527,0-22.719-10.191-22.719-22.719v-60.818
					c0-12.527,10.191-22.719,22.719-22.719h198.916c12.527,0,22.719,10.191,22.719,22.719v60.818
					C378.177,298.937,367.985,309.128,355.458,309.128z M156.542,214.872c-5.91,0-10.719,4.809-10.719,10.719v60.818
					c0,5.91,4.809,10.719,10.719,10.719h198.916c5.91,0,10.719-4.809,10.719-10.719v-60.818c0-5.91-4.809-10.719-10.719-10.719
					H156.542z"/>
			</g>
			<g>
				<g>
					<path class="st2" d="M165.475,281.777c-3.313,0-6-2.687-6-6v-42.979c0-3.313,2.687-6,6-6s6,2.687,6,6v42.979
						C171.475,279.091,168.788,281.777,165.475,281.777z"/>
				</g>
				<g>
					<path class="st2" d="M189.787,281.777c-3.313,0-6-2.687-6-6v-42.979c0-3.313,2.687-6,6-6s6,2.687,6,6v42.979
						C195.787,279.091,193.101,281.777,189.787,281.777z"/>
				</g>
				<g>
					<path class="st2" d="M214.1,281.777c-3.313,0-6-2.687-6-6v-42.979c0-3.313,2.687-6,6-6s6,2.687,6,6v42.979
						C220.1,279.091,217.413,281.777,214.1,281.777z"/>
				</g>
				<g>
					<g>
						<path class="st2" d="M331.163,281.777h-77.666c-3.313,0-6-2.687-6-6s2.687-6,6-6h77.666c3.313,0,6,2.687,6,6
							S334.477,281.777,331.163,281.777z"/>
					</g>
					<g>
						<g>
							<circle class="st2" cx="245.563" cy="246.061" r="7.429"/>
						</g>
						<g>
							<circle class="st2" cx="268.947" cy="246.061" r="7.429"/>
						</g>
						<g>
							<circle class="st2" cx="292.33" cy="246.061" r="7.429"/>
						</g>
						<g>
							<circle class="st2" cx="315.713" cy="246.061" r="7.429"/>
						</g>
						<g>
							<circle class="st2" cx="339.097" cy="246.061" r="7.429"/>
						</g>
					</g>
				</g>
			</g>
		</g>
		<g>
			<g>
				<path class="st1" d="M355.458,397.466H156.542c-9.234,0-16.719-7.485-16.719-16.719v-60.818c0-9.234,7.485-16.719,16.719-16.719
					h198.916c9.234,0,16.719,7.485,16.719,16.719v60.818C372.177,389.98,364.692,397.466,355.458,397.466z"/>
			</g>
			<g>
				<path class="st6" d="M355.458,303.21h-16.361v94.256h16.361c9.234,0,16.719-7.485,16.719-16.72v-60.817
					C372.177,310.695,364.692,303.21,355.458,303.21z"/>
			</g>
			<g>
				<path class="st2" d="M355.458,403.466H156.542c-12.527,0-22.719-10.191-22.719-22.719v-60.818
					c0-12.527,10.191-22.719,22.719-22.719h198.916c12.527,0,22.719,10.191,22.719,22.719v60.818
					C378.177,393.274,367.985,403.466,355.458,403.466z M156.542,309.21c-5.91,0-10.719,4.809-10.719,10.719v60.818
					c0,5.91,4.809,10.719,10.719,10.719h198.916c5.91,0,10.719-4.809,10.719-10.719v-60.818c0-5.91-4.809-10.719-10.719-10.719
					H156.542z"/>
			</g>
			<g>
				<g>
					<path class="st2" d="M165.475,376.115c-3.313,0-6-2.687-6-6v-42.979c0-3.313,2.687-6,6-6s6,2.687,6,6v42.979
						C171.475,373.429,168.788,376.115,165.475,376.115z"/>
				</g>
				<g>
					<path class="st2" d="M189.787,376.115c-3.313,0-6-2.687-6-6v-42.979c0-3.313,2.687-6,6-6s6,2.687,6,6v42.979
						C195.787,373.429,193.101,376.115,189.787,376.115z"/>
				</g>
				<g>
					<path class="st2" d="M214.1,376.115c-3.313,0-6-2.687-6-6v-42.979c0-3.313,2.687-6,6-6s6,2.687,6,6v42.979
						C220.1,373.429,217.413,376.115,214.1,376.115z"/>
				</g>
				<g>
					<g>
						<path class="st2" d="M331.163,376.115h-77.666c-3.313,0-6-2.687-6-6s2.687-6,6-6h77.666c3.313,0,6,2.687,6,6
							S334.477,376.115,331.163,376.115z"/>
					</g>
					<g>
						<g>
							<circle class="st2" cx="245.563" cy="340.399" r="7.429"/>
						</g>
						<g>
							<circle class="st2" cx="268.947" cy="340.399" r="7.429"/>
						</g>
						<g>
							<circle class="st2" cx="292.33" cy="340.399" r="7.429"/>
						</g>
						<g>
							<circle class="st2" cx="315.713" cy="340.399" r="7.429"/>
						</g>
						<g>
							<circle class="st2" cx="339.097" cy="340.399" r="7.429"/>
						</g>
					</g>
				</g>
			</g>
		</g>
	</g>
</g>
</svg>
