<?xml version="1.0" encoding="utf-8"?>
<!-- Generator: Adobe Illustrator 22.1.0, SVG Export Plug-In . SVG Version: 6.00 Build 0)  -->
<svg version="1.1" id="Icon_Set" xmlns="http://www.w3.org/2000/svg" xmlns:xlink="http://www.w3.org/1999/xlink" x="0px" y="0px"
	 viewBox="0 0 512 512" style="enable-background:new 0 0 512 512;" xml:space="preserve">
<style type="text/css">
	.st0{fill:#F0C48A;}
	.st1{fill:#D3E6F8;}
	.st2{fill:#4C4372;}
	.st3{fill:#FD919E;}
	.st4{fill:#E8677D;}
	.st5{fill:#FFFFFF;}
	.st6{fill:#A4CFF2;}
	.st7{fill:#7BABF1;}
</style>
<g id="Server_Protection">
	<g>
		<g>
			<circle class="st0" cx="256" cy="256" r="207"/>
		</g>
	</g>
	<g>
		<g>
			<g>
				<rect x="132.897" y="184.745" class="st7" width="169.296" height="115.806"/>
			</g>
			<g>
				<rect x="132.897" y="367.292" class="st7" width="36.746" height="26.704"/>
			</g>
			<g>
				<rect x="265.447" y="367.292" class="st7" width="36.746" height="26.704"/>
			</g>
			<g>
				<path class="st2" d="M302.193,306.551H132.897c-3.313,0-6-2.687-6-6V184.745c0-3.313,2.687-6,6-6h169.296c3.313,0,6,2.687,6,6
					v115.806C308.193,303.864,305.507,306.551,302.193,306.551z M138.897,294.551h157.296V190.745H138.897V294.551z"/>
			</g>
			<g>
				<path class="st2" d="M169.644,399.995h-36.746c-3.313,0-6-2.687-6-6v-26.704c0-3.313,2.687-6,6-6h36.746c3.313,0,6,2.687,6,6
					v26.704C175.644,397.309,172.957,399.995,169.644,399.995z M138.897,387.995h24.746v-14.704h-24.746V387.995z"/>
			</g>
			<g>
				<path class="st2" d="M302.193,399.995h-36.746c-3.313,0-6-2.687-6-6v-26.704c0-3.313,2.687-6,6-6h36.746c3.313,0,6,2.687,6,6
					v26.704C308.193,397.309,305.507,399.995,302.193,399.995z M271.447,387.995h24.746v-14.704h-24.746V387.995z"/>
			</g>
			<g>
				<g>
					<path class="st1" d="M313.275,276.018h-191.46c-6.367,0-11.528-5.161-11.528-11.528v-43.685
						c0-6.367,5.161-11.528,11.528-11.528h191.46c6.367,0,11.528,5.161,11.528,11.528v43.685
						C324.803,270.857,319.642,276.018,313.275,276.018z"/>
				</g>
				<g>
					<path class="st6" d="M313.275,209.278h-19.506v66.741h19.506c6.367,0,11.528-5.161,11.528-11.528v-43.685
						C324.803,214.439,319.642,209.278,313.275,209.278z"/>
				</g>
				<g>
					<path class="st2" d="M313.275,282.019h-191.46c-9.665,0-17.528-7.863-17.528-17.528v-43.685
						c0-9.665,7.863-17.528,17.528-17.528h191.46c9.665,0,17.528,7.863,17.528,17.528v43.685
						C330.804,274.155,322.94,282.019,313.275,282.019z M121.815,215.277c-3.049,0-5.528,2.48-5.528,5.528v43.685
						c0,3.048,2.479,5.528,5.528,5.528h191.46c3.048,0,5.528-2.48,5.528-5.528v-43.685c0-3.048-2.48-5.528-5.528-5.528H121.815z"/>
				</g>
				<g>
					<circle class="st3" cx="146.829" cy="242.648" r="13.931"/>
				</g>
				<g>
					<path class="st5" d="M288.262,228.717h-91.725c-7.694,0-13.931,6.237-13.931,13.931v0c0,7.694,6.237,13.931,13.931,13.931
						h91.725c7.694,0,13.931-6.237,13.931-13.931v0C302.193,234.954,295.956,228.717,288.262,228.717z"/>
				</g>
				<g>
					<path class="st2" d="M288.262,262.579h-91.726c-10.99,0-19.931-8.94-19.931-19.931s8.94-19.932,19.931-19.932h91.726
						c10.99,0,19.932,8.941,19.932,19.932S299.252,262.579,288.262,262.579z M196.536,234.717c-4.373,0-7.931,3.559-7.931,7.932
						s3.558,7.931,7.931,7.931h91.726c4.373,0,7.932-3.558,7.932-7.931s-3.559-7.932-7.932-7.932H196.536z"/>
				</g>
				<g>
					<path class="st2" d="M146.829,262.579c-10.99,0-19.932-8.94-19.932-19.931s8.941-19.932,19.932-19.932
						s19.931,8.941,19.931,19.932S157.819,262.579,146.829,262.579z M146.829,234.717c-4.373,0-7.932,3.559-7.932,7.932
						s3.559,7.931,7.932,7.931s7.931-3.558,7.931-7.931S151.202,234.717,146.829,234.717z"/>
				</g>
			</g>
			<g>
				<g>
					<path class="st3" d="M313.275,367.292h-191.46c-6.367,0-11.528-5.161-11.528-11.528v-43.685
						c0-6.367,5.161-11.528,11.528-11.528h191.46c6.367,0,11.528,5.161,11.528,11.528v43.685
						C324.803,362.13,319.642,367.292,313.275,367.292z"/>
				</g>
				<g>
					<path class="st4" d="M313.275,300.551h-19.506v66.741h19.506c6.367,0,11.528-5.161,11.528-11.528v-43.685
						C324.803,305.712,319.642,300.551,313.275,300.551z"/>
				</g>
				<g>
					<path class="st2" d="M313.275,373.291h-191.46c-9.665,0-17.528-7.862-17.528-17.527v-43.685
						c0-9.665,7.863-17.528,17.528-17.528h191.46c9.665,0,17.528,7.863,17.528,17.528v43.685
						C330.804,365.429,322.94,373.291,313.275,373.291z M121.815,306.551c-3.049,0-5.528,2.48-5.528,5.528v43.685
						c0,3.048,2.479,5.527,5.528,5.527h191.46c3.048,0,5.528-2.479,5.528-5.527v-43.685c0-3.048-2.48-5.528-5.528-5.528H121.815z"/>
				</g>
				<g>
					<circle class="st7" cx="146.829" cy="333.921" r="13.931"/>
				</g>
				<g>
					<path class="st5" d="M288.262,319.99h-91.725c-7.694,0-13.931,6.237-13.931,13.931v0c0,7.694,6.237,13.931,13.931,13.931
						h91.725c7.694,0,13.931-6.237,13.931-13.931v0C302.193,326.227,295.956,319.99,288.262,319.99z"/>
				</g>
				<g>
					<path class="st2" d="M288.262,353.853h-91.726c-10.99,0-19.931-8.941-19.931-19.932s8.94-19.931,19.931-19.931h91.726
						c10.99,0,19.932,8.94,19.932,19.931S299.252,353.853,288.262,353.853z M196.536,325.99c-4.373,0-7.931,3.558-7.931,7.931
						c0,4.374,3.558,7.932,7.931,7.932h91.726c4.373,0,7.932-3.558,7.932-7.932c0-4.373-3.559-7.931-7.932-7.931H196.536z"/>
				</g>
				<g>
					<path class="st2" d="M146.829,353.853c-10.99,0-19.932-8.941-19.932-19.932s8.941-19.931,19.932-19.931
						s19.931,8.94,19.931,19.931S157.819,353.853,146.829,353.853z M146.829,325.99c-4.373,0-7.932,3.558-7.932,7.931
						s3.559,7.932,7.932,7.932s7.931-3.559,7.931-7.932S151.202,325.99,146.829,325.99z"/>
				</g>
			</g>
			<g>
				<g>
					<path class="st3" d="M313.275,184.745h-191.46c-6.367,0-11.528-5.161-11.528-11.528v-43.685
						c0-6.367,5.161-11.528,11.528-11.528h191.46c6.367,0,11.528,5.161,11.528,11.528v43.685
						C324.803,179.584,319.642,184.745,313.275,184.745z"/>
				</g>
				<g>
					<path class="st4" d="M313.275,118.005h-19.506v66.741h19.506c6.367,0,11.528-5.161,11.528-11.528v-43.685
						C324.803,123.166,319.642,118.005,313.275,118.005z"/>
				</g>
				<g>
					<path class="st2" d="M313.275,190.745h-191.46c-9.665,0-17.528-7.862-17.528-17.527v-43.685
						c0-9.665,7.863-17.528,17.528-17.528h191.46c9.665,0,17.528,7.863,17.528,17.528v43.685
						C330.804,182.883,322.94,190.745,313.275,190.745z M121.815,124.005c-3.049,0-5.528,2.48-5.528,5.528v43.685
						c0,3.048,2.479,5.527,5.528,5.527h191.46c3.048,0,5.528-2.479,5.528-5.527v-43.685c0-3.048-2.48-5.528-5.528-5.528H121.815z"/>
				</g>
				<g>
					<circle class="st7" cx="146.829" cy="151.375" r="13.931"/>
				</g>
				<g>
					<path class="st5" d="M288.262,137.444h-91.725c-7.694,0-13.931,6.237-13.931,13.931v0c0,7.694,6.237,13.931,13.931,13.931
						h91.725c7.694,0,13.931-6.237,13.931-13.931v0C302.193,143.681,295.956,137.444,288.262,137.444z"/>
				</g>
				<g>
					<path class="st2" d="M288.262,171.307h-91.726c-10.99,0-19.931-8.941-19.931-19.932s8.94-19.932,19.931-19.932h91.726
						c10.99,0,19.932,8.941,19.932,19.932S299.252,171.307,288.262,171.307z M196.536,143.443c-4.373,0-7.931,3.559-7.931,7.932
						s3.558,7.932,7.931,7.932h91.726c4.373,0,7.932-3.559,7.932-7.932s-3.559-7.932-7.932-7.932H196.536z"/>
				</g>
				<g>
					<path class="st2" d="M146.829,171.307c-10.99,0-19.932-8.941-19.932-19.932s8.941-19.932,19.932-19.932
						s19.931,8.941,19.931,19.932S157.819,171.307,146.829,171.307z M146.829,143.443c-4.373,0-7.932,3.559-7.932,7.932
						s3.559,7.932,7.932,7.932s7.931-3.559,7.931-7.932S151.202,143.443,146.829,143.443z"/>
				</g>
			</g>
		</g>
		<g>
			<g>
				<g>
					<path class="st1" d="M325.637,348.713L325.637,348.713c48.044-37.914,76.076-95.745,76.076-156.947v-0.229l-74.845-28.25
						l-77.306,28.25v0.229C249.562,252.968,277.594,310.799,325.637,348.713L325.637,348.713z"/>
				</g>
				<g>
					<path class="st2" d="M325.638,354.713c-1.313,0-2.627-0.43-3.717-1.29c-24.28-19.161-44.245-44-57.737-71.833
						c-13.491-27.833-20.622-58.894-20.622-89.823v-0.229c0-2.52,1.574-4.771,3.94-5.636l77.307-28.251
						c1.35-0.493,2.833-0.485,4.179,0.022l74.845,28.251c2.335,0.882,3.881,3.117,3.881,5.613v0.229
						c0,30.93-7.131,61.99-20.622,89.823c-13.491,27.832-33.456,52.672-57.736,71.833
						C328.265,354.283,326.951,354.713,325.638,354.713z M255.603,195.719c0.579,27.814,7.249,55.611,19.38,80.637
						c12.01,24.775,29.468,47.034,50.655,64.638c21.187-17.604,38.646-39.862,50.654-64.638
						c12.138-25.04,18.809-52.854,19.381-80.685l-68.839-25.983L255.603,195.719z"/>
				</g>
			</g>
			<g>
				<circle class="st5" cx="326.868" cy="245.778" r="41.432"/>
			</g>
			<g>
				<path class="st2" d="M326.868,293.209c-26.154,0-47.432-21.277-47.432-47.432s21.277-47.432,47.432-47.432
					s47.432,21.277,47.432,47.432S353.022,293.209,326.868,293.209z M326.868,210.346c-19.537,0-35.432,15.895-35.432,35.432
					s15.895,35.432,35.432,35.432s35.432-15.895,35.432-35.432S346.405,210.346,326.868,210.346z"/>
			</g>
			<g>
				<path class="st2" d="M324.804,268.062c-1.591,0-3.117-0.632-4.242-1.758l-19.846-19.846c-2.344-2.343-2.344-6.142,0-8.484
					c2.342-2.344,6.143-2.344,8.484,0l15.604,15.603l23.293-23.294c2.344-2.344,6.144-2.343,8.485-0.001
					c2.344,2.344,2.344,6.143,0.001,8.485l-27.536,27.537C327.921,267.43,326.396,268.062,324.804,268.062z"/>
			</g>
		</g>
	</g>
</g>
</svg>
