<?xml version="1.0" encoding="utf-8"?>
<!-- Generator: Adobe Illustrator 22.1.0, SVG Export Plug-In . SVG Version: 6.00 Build 0)  -->
<svg version="1.1" id="Icon_Set" xmlns="http://www.w3.org/2000/svg" xmlns:xlink="http://www.w3.org/1999/xlink" x="0px" y="0px"
	 viewBox="0 0 512 512" style="enable-background:new 0 0 512 512;" xml:space="preserve">
<style type="text/css">
	.st0{fill:#F0C48A;}
	.st1{fill:#D3E6F8;}
	.st2{fill:#4C4372;}
	.st3{fill:#FD919E;}
	.st4{fill:#E8677D;}
	.st5{fill:#FFFFFF;}
	.st6{fill:#A4CFF2;}
	.st7{fill:#7BABF1;}
</style>
<g id="Servers">
	<g>
		<g>
			<circle class="st0" cx="256" cy="256" r="207"/>
		</g>
	</g>
	<g>
		<g>
			<g>
				<g>
					<path class="st3" d="M223.536,370.869H109.473c-3.504,0-6.344-2.84-6.344-6.344V190.338c0-3.504,2.84-6.344,6.344-6.344
						h114.063c3.504,0,6.344,2.84,6.344,6.344v174.187C229.88,368.028,227.04,370.869,223.536,370.869z"/>
				</g>
				<g>
					<circle class="st2" cx="166.505" cy="339.87" r="11.884"/>
				</g>
				<g>
					<path class="st4" d="M223.536,183.993h-16.154v186.875h16.154c3.504,0,6.344-2.84,6.344-6.344V190.338
						C229.88,186.834,227.04,183.993,223.536,183.993z"/>
				</g>
				<g>
					<rect x="121.59" y="207.59" class="st5" width="89.829" height="22.536"/>
				</g>
				<g>
					<rect x="121.59" y="253.194" class="st5" width="89.829" height="22.536"/>
				</g>
				<g>
					<rect x="188.126" y="207.59" class="st1" width="23.293" height="22.536"/>
				</g>
				<g>
					<rect x="188.126" y="253.194" class="st1" width="23.293" height="22.536"/>
				</g>
				<g>
					<path class="st2" d="M223.536,376.868H109.474c-6.807,0-12.345-5.537-12.345-12.344V190.338
						c0-6.807,5.538-12.345,12.345-12.345h114.062c6.807,0,12.344,5.538,12.344,12.345v174.187
						C235.88,371.331,230.343,376.868,223.536,376.868z M109.474,189.993c-0.19,0-0.345,0.154-0.345,0.345v174.187
						c0,0.189,0.154,0.344,0.345,0.344h114.062c0.189,0,0.344-0.154,0.344-0.344V190.338c0-0.19-0.154-0.345-0.344-0.345H109.474z"
						/>
				</g>
				<g>
					<path class="st2" d="M211.419,236.126H121.59c-3.313,0-6-2.687-6-6V207.59c0-3.313,2.687-6,6-6h89.829c3.313,0,6,2.687,6,6
						v22.536C217.419,233.439,214.732,236.126,211.419,236.126z M127.59,224.126h77.829V213.59H127.59V224.126z"/>
				</g>
				<g>
					<path class="st2" d="M211.419,281.73H121.59c-3.313,0-6-2.687-6-6v-22.536c0-3.313,2.687-6,6-6h89.829c3.313,0,6,2.687,6,6
						v22.536C217.419,279.044,214.732,281.73,211.419,281.73z M127.59,269.73h77.829v-10.536H127.59V269.73z"/>
				</g>
			</g>
			<g>
				<g>
					<path class="st3" d="M402.527,370.869H288.464c-3.504,0-6.344-2.84-6.344-6.344V190.338c0-3.504,2.84-6.344,6.344-6.344
						h114.063c3.504,0,6.344,2.84,6.344,6.344v174.187C408.871,368.028,406.031,370.869,402.527,370.869z"/>
				</g>
				<g>
					<circle class="st2" cx="345.495" cy="339.87" r="11.884"/>
				</g>
				<g>
					<path class="st4" d="M402.527,183.993h-16.154v186.875h16.154c3.504,0,6.344-2.84,6.344-6.344V190.338
						C408.871,186.834,406.031,183.993,402.527,183.993z"/>
				</g>
				<g>
					<rect x="300.581" y="207.59" class="st5" width="89.829" height="22.536"/>
				</g>
				<g>
					<rect x="300.581" y="253.194" class="st5" width="89.829" height="22.536"/>
				</g>
				<g>
					<rect x="367.117" y="207.59" class="st1" width="23.293" height="22.536"/>
				</g>
				<g>
					<rect x="367.117" y="253.194" class="st1" width="23.293" height="22.536"/>
				</g>
				<g>
					<path class="st2" d="M402.526,376.868H288.464c-6.807,0-12.344-5.537-12.344-12.344V190.338
						c0-6.807,5.537-12.345,12.344-12.345h114.062c6.807,0,12.345,5.538,12.345,12.345v174.187
						C414.871,371.331,409.333,376.868,402.526,376.868z M288.464,189.993c-0.189,0-0.344,0.154-0.344,0.345v174.187
						c0,0.189,0.154,0.344,0.344,0.344h114.062c0.19,0,0.345-0.154,0.345-0.344V190.338c0-0.19-0.154-0.345-0.345-0.345H288.464z"/>
				</g>
				<g>
					<path class="st2" d="M390.41,236.126h-89.829c-3.313,0-6-2.687-6-6V207.59c0-3.313,2.687-6,6-6h89.829c3.313,0,6,2.687,6,6
						v22.536C396.41,233.439,393.724,236.126,390.41,236.126z M306.581,224.126h77.829V213.59h-77.829V224.126z"/>
				</g>
				<g>
					<path class="st2" d="M390.41,281.73h-89.829c-3.313,0-6-2.687-6-6v-22.536c0-3.313,2.687-6,6-6h89.829c3.313,0,6,2.687,6,6
						v22.536C396.41,279.044,393.724,281.73,390.41,281.73z M306.581,269.73h77.829v-10.536h-77.829V269.73z"/>
				</g>
			</g>
		</g>
		<g>
			<g>
				<path class="st1" d="M326.112,370.869H185.888c-4.308,0-7.8-3.492-7.8-7.8V148.931c0-4.308,3.492-7.8,7.8-7.8h140.224
					c4.308,0,7.799,3.492,7.799,7.8v214.138C333.911,367.377,330.419,370.869,326.112,370.869z"/>
			</g>
			<g>
				<circle class="st2" cx="256" cy="332.761" r="14.61"/>
			</g>
			<g>
				<path class="st6" d="M326.112,141.131h-19.859v229.737h19.859c4.307,0,7.8-3.492,7.8-7.799V148.931
					C333.911,144.623,330.419,141.131,326.112,141.131z"/>
			</g>
			<g>
				<rect x="200.784" y="170.141" class="st5" width="110.432" height="27.705"/>
			</g>
			<g>
				<rect x="200.784" y="226.204" class="st5" width="110.432" height="27.705"/>
			</g>
			<g>
				<rect x="282.58" y="170.141" class="st1" width="28.636" height="27.705"/>
			</g>
			<g>
				<rect x="282.58" y="226.204" class="st1" width="28.636" height="27.705"/>
			</g>
			<g>
				<path class="st2" d="M326.112,376.868H185.888c-7.608,0-13.799-6.19-13.799-13.799V148.931c0-7.608,6.19-13.799,13.799-13.799
					h140.225c7.608,0,13.799,6.19,13.799,13.799v214.139C339.911,370.678,333.721,376.868,326.112,376.868z M185.888,147.132
					c-0.992,0-1.799,0.807-1.799,1.799v214.139c0,0.992,0.807,1.799,1.799,1.799h140.225c0.992,0,1.799-0.807,1.799-1.799V148.931
					c0-0.992-0.807-1.799-1.799-1.799H185.888z"/>
			</g>
			<g>
				<path class="st2" d="M311.216,203.846H200.784c-3.313,0-6-2.687-6-6v-27.705c0-3.313,2.687-6,6-6h110.432c3.313,0,6,2.687,6,6
					v27.705C317.216,201.159,314.529,203.846,311.216,203.846z M206.784,191.846h98.432v-15.705h-98.432V191.846z"/>
			</g>
			<g>
				<path class="st2" d="M311.216,259.909H200.784c-3.313,0-6-2.687-6-6v-27.705c0-3.313,2.687-6,6-6h110.432c3.313,0,6,2.687,6,6
					v27.705C317.216,257.223,314.529,259.909,311.216,259.909z M206.784,247.909h98.432v-15.705h-98.432V247.909z"/>
			</g>
		</g>
	</g>
</g>
</svg>
