<?xml version="1.0" encoding="utf-8"?>
<!-- Generator: Adobe Illustrator 22.1.0, SVG Export Plug-In . SVG Version: 6.00 Build 0)  -->
<svg version="1.1" id="Icon_Set" xmlns="http://www.w3.org/2000/svg" xmlns:xlink="http://www.w3.org/1999/xlink" x="0px" y="0px"
	 viewBox="0 0 512 512" style="enable-background:new 0 0 512 512;" xml:space="preserve">
<style type="text/css">
	.st0{fill:#F0C48A;}
	.st1{fill:#D3E6F8;}
	.st2{fill:#4C4372;}
	.st3{fill:#FD919E;}
	.st4{fill:#E8677D;}
	.st5{fill:#FFFFFF;}
	.st6{fill:#A4CFF2;}
	.st7{fill:#7BABF1;}
</style>
<g id="Server">
	<g>
		<g>
			<circle class="st0" cx="256" cy="256" r="207"/>
		</g>
	</g>
	<g>
		<g>
			<rect x="171.352" y="184.745" class="st7" width="169.296" height="115.806"/>
		</g>
		<g>
			<rect x="171.352" y="367.292" class="st7" width="36.746" height="26.704"/>
		</g>
		<g>
			<rect x="303.902" y="367.292" class="st7" width="36.746" height="26.704"/>
		</g>
		<g>
			<path class="st2" d="M340.648,306.551H171.352c-3.313,0-6-2.686-6-6V184.745c0-3.314,2.687-6,6-6h169.297c3.313,0,6,2.686,6,6
				v115.806C346.648,303.865,343.962,306.551,340.648,306.551z M177.352,294.551h157.297V190.745H177.352V294.551z"/>
		</g>
		<g>
			<path class="st2" d="M208.099,399.995h-36.747c-3.313,0-6-2.686-6-6v-26.704c0-3.314,2.687-6,6-6h36.747c3.313,0,6,2.686,6,6
				v26.704C214.099,397.309,211.412,399.995,208.099,399.995z M177.352,387.995h24.747v-14.704h-24.747V387.995z"/>
		</g>
		<g>
			<path class="st2" d="M340.648,399.995h-36.747c-3.313,0-6-2.686-6-6v-26.704c0-3.314,2.687-6,6-6h36.747c3.313,0,6,2.686,6,6
				v26.704C346.648,397.309,343.962,399.995,340.648,399.995z M309.901,387.995h24.747v-14.704h-24.747V387.995z"/>
		</g>
		<g>
			<g>
				<path class="st1" d="M351.73,276.018H160.27c-6.367,0-11.528-5.161-11.528-11.528v-43.685c0-6.367,5.161-11.528,11.528-11.528
					h191.46c6.367,0,11.528,5.161,11.528,11.528v43.685C363.258,270.857,358.097,276.018,351.73,276.018z"/>
			</g>
			<g>
				<path class="st6" d="M351.73,209.278h-19.506v66.741h19.506c6.367,0,11.528-5.161,11.528-11.528v-43.685
					C363.258,214.439,358.097,209.278,351.73,209.278z"/>
			</g>
			<g>
				<path class="st2" d="M351.73,282.018H160.27c-9.665,0-17.527-7.863-17.527-17.528v-43.685c0-9.665,7.862-17.528,17.527-17.528
					H351.73c9.665,0,17.527,7.863,17.527,17.528v43.685C369.258,274.155,361.396,282.018,351.73,282.018z M160.27,215.278
					c-3.048,0-5.527,2.48-5.527,5.528v43.685c0,3.048,2.479,5.528,5.527,5.528H351.73c3.048,0,5.527-2.48,5.527-5.528v-43.685
					c0-3.048-2.479-5.528-5.527-5.528H160.27z"/>
			</g>
			<g>
				<circle class="st3" cx="185.283" cy="242.648" r="13.931"/>
			</g>
			<g>
				<path class="st5" d="M326.717,228.717h-91.725c-7.694,0-13.931,6.237-13.931,13.931v0c0,7.694,6.237,13.931,13.931,13.931
					h91.725c7.694,0,13.931-6.237,13.931-13.931v0C340.648,234.954,334.411,228.717,326.717,228.717z"/>
			</g>
			<g>
				<path class="st2" d="M326.717,262.579h-91.726c-10.99,0-19.932-8.941-19.932-19.931c0-10.99,8.941-19.931,19.932-19.931h91.726
					c10.99,0,19.932,8.941,19.932,19.931C346.648,253.638,337.707,262.579,326.717,262.579z M234.991,234.717
					c-4.373,0-7.932,3.558-7.932,7.931s3.559,7.931,7.932,7.931h91.726c4.373,0,7.932-3.558,7.932-7.931
					c0-4.373-3.559-7.931-7.932-7.931H234.991z"/>
			</g>
			<g>
				<path class="st2" d="M185.283,262.579c-10.99,0-19.932-8.941-19.932-19.931c0-10.99,8.941-19.931,19.932-19.931
					s19.932,8.941,19.932,19.931C205.215,253.638,196.273,262.579,185.283,262.579z M185.283,234.717
					c-4.373,0-7.932,3.558-7.932,7.931c0,4.373,3.559,7.931,7.932,7.931s7.932-3.558,7.932-7.931
					C193.215,238.275,189.656,234.717,185.283,234.717z"/>
			</g>
		</g>
		<g>
			<g>
				<path class="st3" d="M351.73,367.292H160.27c-6.367,0-11.528-5.161-11.528-11.528v-43.685c0-6.367,5.161-11.528,11.528-11.528
					h191.46c6.367,0,11.528,5.161,11.528,11.528v43.685C363.258,362.13,358.097,367.292,351.73,367.292z"/>
			</g>
			<g>
				<path class="st4" d="M351.73,300.551h-19.506v66.741h19.506c6.367,0,11.528-5.161,11.528-11.528v-43.685
					C363.258,305.712,358.097,300.551,351.73,300.551z"/>
			</g>
			<g>
				<path class="st2" d="M351.73,373.292H160.27c-9.665,0-17.527-7.863-17.527-17.528v-43.685c0-9.665,7.862-17.528,17.527-17.528
					H351.73c9.665,0,17.527,7.863,17.527,17.528v43.685C369.258,365.428,361.396,373.292,351.73,373.292z M160.27,306.551
					c-3.048,0-5.527,2.48-5.527,5.528v43.685c0,3.048,2.479,5.528,5.527,5.528H351.73c3.048,0,5.527-2.48,5.527-5.528v-43.685
					c0-3.048-2.479-5.528-5.527-5.528H160.27z"/>
			</g>
			<g>
				<circle class="st7" cx="185.283" cy="333.921" r="13.931"/>
			</g>
			<g>
				<path class="st5" d="M326.717,319.99h-91.725c-7.694,0-13.931,6.237-13.931,13.931v0c0,7.694,6.237,13.931,13.931,13.931h91.725
					c7.694,0,13.931-6.237,13.931-13.931v0C340.648,326.227,334.411,319.99,326.717,319.99z"/>
			</g>
			<g>
				<path class="st2" d="M326.717,353.853h-91.726c-10.99,0-19.932-8.941-19.932-19.931c0-10.99,8.941-19.931,19.932-19.931h91.726
					c10.99,0,19.932,8.941,19.932,19.931C346.648,344.911,337.707,353.853,326.717,353.853z M234.991,325.99
					c-4.373,0-7.932,3.558-7.932,7.931s3.559,7.931,7.932,7.931h91.726c4.373,0,7.932-3.558,7.932-7.931
					c0-4.373-3.559-7.931-7.932-7.931H234.991z"/>
			</g>
			<g>
				<path class="st2" d="M185.283,353.853c-10.99,0-19.932-8.941-19.932-19.931c0-10.99,8.941-19.931,19.932-19.931
					s19.932,8.941,19.932,19.931C205.215,344.911,196.273,353.853,185.283,353.853z M185.283,325.99
					c-4.373,0-7.932,3.558-7.932,7.931c0,4.373,3.559,7.931,7.932,7.931s7.932-3.558,7.932-7.931
					C193.215,329.548,189.656,325.99,185.283,325.99z"/>
			</g>
		</g>
		<g>
			<g>
				<path class="st3" d="M351.73,184.745H160.27c-6.367,0-11.528-5.161-11.528-11.528v-43.685c0-6.367,5.161-11.528,11.528-11.528
					h191.46c6.367,0,11.528,5.161,11.528,11.528v43.685C363.258,179.584,358.097,184.745,351.73,184.745z"/>
			</g>
			<g>
				<path class="st4" d="M351.73,118.005h-19.506v66.741h19.506c6.367,0,11.528-5.161,11.528-11.528v-43.685
					C363.258,123.166,358.097,118.005,351.73,118.005z"/>
			</g>
			<g>
				<path class="st2" d="M351.73,190.745H160.27c-9.665,0-17.527-7.863-17.527-17.528v-43.685c0-9.665,7.862-17.528,17.527-17.528
					H351.73c9.665,0,17.527,7.863,17.527,17.528v43.685C369.258,182.882,361.396,190.745,351.73,190.745z M160.27,124.005
					c-3.048,0-5.527,2.48-5.527,5.528v43.685c0,3.048,2.479,5.528,5.527,5.528H351.73c3.048,0,5.527-2.48,5.527-5.528v-43.685
					c0-3.048-2.479-5.528-5.527-5.528H160.27z"/>
			</g>
			<g>
				<circle class="st7" cx="185.283" cy="151.375" r="13.931"/>
			</g>
			<g>
				<path class="st5" d="M326.717,137.444h-91.725c-7.694,0-13.931,6.237-13.931,13.931v0c0,7.694,6.237,13.931,13.931,13.931
					h91.725c7.694,0,13.931-6.237,13.931-13.931v0C340.648,143.681,334.411,137.444,326.717,137.444z"/>
			</g>
			<g>
				<path class="st2" d="M326.717,171.306h-91.726c-10.99,0-19.932-8.941-19.932-19.931c0-10.99,8.941-19.931,19.932-19.931h91.726
					c10.99,0,19.932,8.941,19.932,19.931C346.648,162.365,337.707,171.306,326.717,171.306z M234.991,143.444
					c-4.373,0-7.932,3.558-7.932,7.931c0,4.373,3.559,7.931,7.932,7.931h91.726c4.373,0,7.932-3.558,7.932-7.931
					c0-4.373-3.559-7.931-7.932-7.931H234.991z"/>
			</g>
			<g>
				<path class="st2" d="M185.283,171.306c-10.99,0-19.932-8.941-19.932-19.931c0-10.99,8.941-19.931,19.932-19.931
					s19.932,8.941,19.932,19.931C205.215,162.365,196.273,171.306,185.283,171.306z M185.283,143.444
					c-4.373,0-7.932,3.558-7.932,7.931c0,4.373,3.559,7.931,7.932,7.931s7.932-3.558,7.932-7.931
					C193.215,147.002,189.656,143.444,185.283,143.444z"/>
			</g>
		</g>
	</g>
</g>
</svg>
