<?xml version="1.0" encoding="utf-8"?>
<!-- Generator: Adobe Illustrator 22.1.0, SVG Export Plug-In . SVG Version: 6.00 Build 0)  -->
<svg version="1.1" id="Icon_Set" xmlns="http://www.w3.org/2000/svg" xmlns:xlink="http://www.w3.org/1999/xlink" x="0px" y="0px"
	 viewBox="0 0 512 512" style="enable-background:new 0 0 512 512;" xml:space="preserve">
<style type="text/css">
	.st0{fill:#F0C48A;}
	.st1{fill:#D3E6F8;}
	.st2{fill:#4C4372;}
	.st3{fill:#FD919E;}
	.st4{fill:#E8677D;}
	.st5{fill:#FFFFFF;}
	.st6{fill:#A4CFF2;}
	.st7{fill:#7BABF1;}
</style>
<g id="Server_Control">
	<g>
		<g>
			<circle class="st0" cx="256" cy="256" r="207"/>
		</g>
	</g>
	<g>
		<g>
			<g>
				<rect x="110.174" y="176.551" class="st7" width="160.091" height="109.509"/>
			</g>
			<g>
				<rect x="110.174" y="349.171" class="st7" width="34.748" height="25.252"/>
			</g>
			<g>
				<rect x="235.517" y="349.171" class="st7" width="34.748" height="25.252"/>
			</g>
			<g>
				<path class="st2" d="M270.266,292.06H110.174c-3.313,0-6-2.687-6-6V176.551c0-3.313,2.687-6,6-6h160.091c3.313,0,6,2.687,6,6
					V286.06C276.266,289.373,273.579,292.06,270.266,292.06z M116.174,280.06h148.091v-97.509H116.174V280.06z"/>
			</g>
			<g>
				<path class="st2" d="M144.923,380.423h-34.749c-3.313,0-6-2.687-6-6v-25.251c0-3.313,2.687-6,6-6h34.749c3.313,0,6,2.687,6,6
					v25.251C150.923,377.736,148.236,380.423,144.923,380.423z M116.174,368.423h22.749v-13.251h-22.749V368.423z"/>
			</g>
			<g>
				<path class="st2" d="M270.266,380.423h-34.749c-3.313,0-6-2.687-6-6v-25.251c0-3.313,2.687-6,6-6h34.749c3.313,0,6,2.687,6,6
					v25.251C276.266,377.736,273.579,380.423,270.266,380.423z M241.517,368.423h22.749v-13.251h-22.749V368.423z"/>
			</g>
			<g>
				<g>
					<path class="st1" d="M280.745,262.861H99.695c-6.021,0-10.901-4.881-10.901-10.901v-41.309c0-6.021,4.881-10.901,10.901-10.901
						h181.05c6.021,0,10.901,4.881,10.901,10.901v41.309C291.646,257.981,286.765,262.861,280.745,262.861z"/>
				</g>
				<g>
					<path class="st6" d="M280.745,199.75h-18.446v63.112h18.446c6.021,0,10.901-4.881,10.901-10.901v-41.309
						C291.646,204.63,286.765,199.75,280.745,199.75z"/>
				</g>
				<g>
					<path class="st2" d="M280.745,268.861H99.695c-9.319,0-16.901-7.582-16.901-16.901v-41.31c0-9.319,7.582-16.9,16.901-16.9
						h181.05c9.319,0,16.9,7.581,16.9,16.9v41.31C297.646,261.279,290.064,268.861,280.745,268.861z M99.695,205.75
						c-2.702,0-4.901,2.198-4.901,4.9v41.31c0,2.702,2.199,4.901,4.901,4.901h181.05c2.702,0,4.9-2.199,4.9-4.901v-41.31
						c0-2.702-2.198-4.9-4.9-4.9H99.695z"/>
				</g>
				<g>
					<circle class="st3" cx="123.348" cy="231.305" r="13.174"/>
				</g>
				<g>
					<path class="st5" d="M257.091,218.132h-86.738c-7.276,0-13.174,5.898-13.174,13.174v0c0,7.276,5.898,13.174,13.174,13.174
						h86.738c7.276,0,13.174-5.898,13.174-13.174v0C270.265,224.03,264.367,218.132,257.091,218.132z"/>
				</g>
				<g>
					<path class="st2" d="M257.092,250.479h-86.738c-10.572,0-19.174-8.602-19.174-19.174s8.602-19.174,19.174-19.174h86.738
						c10.572,0,19.174,8.602,19.174,19.174S267.664,250.479,257.092,250.479z M170.354,224.132c-3.956,0-7.174,3.218-7.174,7.174
						s3.218,7.174,7.174,7.174h86.738c3.956,0,7.174-3.218,7.174-7.174s-3.218-7.174-7.174-7.174H170.354z"/>
				</g>
				<g>
					<path class="st2" d="M123.348,250.479c-10.572,0-19.174-8.602-19.174-19.174s8.602-19.174,19.174-19.174
						c10.573,0,19.174,8.602,19.174,19.174S133.921,250.479,123.348,250.479z M123.348,224.132c-3.956,0-7.174,3.218-7.174,7.174
						s3.218,7.174,7.174,7.174c3.956,0,7.174-3.218,7.174-7.174S127.304,224.132,123.348,224.132z"/>
				</g>
			</g>
			<g>
				<g>
					<path class="st3" d="M280.745,349.171H99.695c-6.021,0-10.901-4.881-10.901-10.901v-41.309c0-6.021,4.881-10.901,10.901-10.901
						h181.05c6.021,0,10.901,4.881,10.901,10.901v41.309C291.646,344.291,286.765,349.171,280.745,349.171z"/>
				</g>
				<g>
					<path class="st4" d="M280.745,286.06h-18.446v63.112h18.446c6.021,0,10.901-4.881,10.901-10.901v-41.309
						C291.646,290.94,286.765,286.06,280.745,286.06z"/>
				</g>
				<g>
					<path class="st2" d="M280.745,355.172H99.695c-9.319,0-16.901-7.582-16.901-16.901v-41.31c0-9.319,7.582-16.901,16.901-16.901
						h181.05c9.319,0,16.9,7.582,16.9,16.901v41.31C297.646,347.59,290.064,355.172,280.745,355.172z M99.695,292.06
						c-2.702,0-4.901,2.199-4.901,4.901v41.31c0,2.703,2.199,4.901,4.901,4.901h181.05c2.702,0,4.9-2.198,4.9-4.901v-41.31
						c0-2.702-2.198-4.901-4.9-4.901H99.695z"/>
				</g>
				<g>
					<circle class="st7" cx="123.348" cy="317.616" r="13.174"/>
				</g>
				<g>
					<path class="st5" d="M257.091,304.442h-86.738c-7.276,0-13.174,5.898-13.174,13.174v0c0,7.276,5.898,13.174,13.174,13.174
						h86.738c7.276,0,13.174-5.898,13.174-13.174v0C270.265,310.34,264.367,304.442,257.091,304.442z"/>
				</g>
				<g>
					<path class="st2" d="M257.092,336.789h-86.738c-10.572,0-19.174-8.602-19.174-19.174s8.602-19.174,19.174-19.174h86.738
						c10.572,0,19.174,8.602,19.174,19.174S267.664,336.789,257.092,336.789z M170.354,310.441c-3.956,0-7.174,3.218-7.174,7.174
						s3.218,7.174,7.174,7.174h86.738c3.956,0,7.174-3.218,7.174-7.174s-3.218-7.174-7.174-7.174H170.354z"/>
				</g>
				<g>
					<path class="st2" d="M123.348,336.789c-10.572,0-19.174-8.602-19.174-19.174s8.602-19.174,19.174-19.174
						c10.573,0,19.174,8.602,19.174,19.174S133.921,336.789,123.348,336.789z M123.348,310.441c-3.956,0-7.174,3.218-7.174,7.174
						s3.218,7.174,7.174,7.174c3.956,0,7.174-3.218,7.174-7.174S127.304,310.441,123.348,310.441z"/>
				</g>
			</g>
			<g>
				<g>
					<path class="st3" d="M280.745,176.551H99.695c-6.021,0-10.901-4.881-10.901-10.901v-41.309c0-6.021,4.881-10.901,10.901-10.901
						h181.05c6.021,0,10.901,4.881,10.901,10.901v41.309C291.646,171.67,286.765,176.551,280.745,176.551z"/>
				</g>
				<g>
					<path class="st4" d="M280.745,113.439h-18.446v63.112h18.446c6.021,0,10.901-4.881,10.901-10.901v-41.309
						C291.646,118.32,286.765,113.439,280.745,113.439z"/>
				</g>
				<g>
					<path class="st2" d="M280.745,182.551H99.695c-9.319,0-16.901-7.582-16.901-16.901v-41.309c0-9.319,7.582-16.901,16.901-16.901
						h181.05c9.319,0,16.9,7.582,16.9,16.901v41.309C297.646,174.969,290.064,182.551,280.745,182.551z M99.695,119.439
						c-2.702,0-4.901,2.199-4.901,4.901v41.309c0,2.702,2.199,4.901,4.901,4.901h181.05c2.702,0,4.9-2.199,4.9-4.901v-41.309
						c0-2.702-2.198-4.901-4.9-4.901H99.695z"/>
				</g>
				<g>
					<circle class="st7" cx="123.348" cy="144.995" r="13.174"/>
				</g>
				<g>
					<path class="st5" d="M257.091,131.821h-86.738c-7.276,0-13.174,5.898-13.174,13.174v0c0,7.276,5.898,13.174,13.174,13.174
						h86.738c7.276,0,13.174-5.898,13.174-13.174v0C270.265,137.72,264.367,131.821,257.091,131.821z"/>
				</g>
				<g>
					<path class="st2" d="M257.092,164.169h-86.738c-10.572,0-19.174-8.602-19.174-19.174s8.602-19.174,19.174-19.174h86.738
						c10.572,0,19.174,8.602,19.174,19.174S267.664,164.169,257.092,164.169z M170.354,137.821c-3.956,0-7.174,3.218-7.174,7.174
						s3.218,7.174,7.174,7.174h86.738c3.956,0,7.174-3.218,7.174-7.174s-3.218-7.174-7.174-7.174H170.354z"/>
				</g>
				<g>
					<path class="st2" d="M123.348,164.169c-10.572,0-19.174-8.602-19.174-19.174s8.602-19.174,19.174-19.174
						c10.573,0,19.174,8.602,19.174,19.174S133.921,164.169,123.348,164.169z M123.348,137.821c-3.956,0-7.174,3.218-7.174,7.174
						s3.218,7.174,7.174,7.174c3.956,0,7.174-3.218,7.174-7.174S127.304,137.821,123.348,137.821z"/>
				</g>
			</g>
		</g>
		<g>
			<g>
				<path class="st1" d="M382.814,297.918L382.814,297.918c-22.308,0-40.393-18.084-40.393-40.393v-27.188
					c0-22.308,18.084-40.393,40.393-40.393h0c22.308,0,40.393,18.084,40.393,40.393v27.188
					C423.206,279.833,405.122,297.918,382.814,297.918z"/>
			</g>
			<g>
				<path class="st6" d="M382.814,189.945L382.814,189.945c-2.661,0-5.26,0.265-7.777,0.756
					c18.586,3.626,32.615,19.99,32.615,39.636v27.188c0,19.647-14.029,36.01-32.615,39.637c2.517,0.491,5.116,0.756,7.777,0.756l0,0
					c22.308,0,40.393-18.085,40.393-40.393v-27.188C423.206,208.029,405.122,189.945,382.814,189.945z"/>
			</g>
			<g>
				<path class="st2" d="M382.813,303.918c-25.581,0-46.393-20.812-46.393-46.393v-27.188c0-25.581,20.812-46.393,46.393-46.393
					s46.393,20.812,46.393,46.393v27.188C429.206,283.106,408.395,303.918,382.813,303.918z M382.813,195.944
					c-18.964,0-34.393,15.429-34.393,34.393v27.188c0,18.964,15.429,34.393,34.393,34.393s34.393-15.429,34.393-34.393v-27.188
					C417.206,211.373,401.777,195.944,382.813,195.944z"/>
			</g>
			<g>
				<path class="st2" d="M382.949,236.183L382.949,236.183c-4.155,0-7.523-3.368-7.523-7.523v-18.985
					c0-4.155,3.368-7.523,7.523-7.523l0,0c4.155,0,7.523,3.368,7.523,7.523v18.985C390.472,232.815,387.104,236.183,382.949,236.183
					z"/>
			</g>
		</g>
		<g>
			<path class="st2" d="M289.375,404.561h-68.009c-20.482,0-37.146-16.664-37.146-37.146v-18.242c0-3.313,2.686-6,6-6s6,2.687,6,6
				v18.242c0,13.866,11.281,25.146,25.146,25.146h68.009c13.866,0,25.146-11.28,25.146-25.146V144.586
				c0-20.482,16.663-37.146,37.146-37.146s37.146,16.664,37.146,37.146v45.358c0,3.313-2.687,6-6,6s-6-2.687-6-6v-45.358
				c0-13.866-11.28-25.146-25.146-25.146c-13.866,0-25.146,11.28-25.146,25.146v222.828
				C326.521,387.896,309.857,404.561,289.375,404.561z"/>
		</g>
	</g>
</g>
</svg>
