<?xml version="1.0" encoding="utf-8"?>
<!-- Generator: Adobe Illustrator 22.1.0, SVG Export Plug-In . SVG Version: 6.00 Build 0)  -->
<svg version="1.1" id="Icon_Set" xmlns="http://www.w3.org/2000/svg" xmlns:xlink="http://www.w3.org/1999/xlink" x="0px" y="0px"
	 viewBox="0 0 512 512" style="enable-background:new 0 0 512 512;" xml:space="preserve">
<style type="text/css">
	.st0{fill:#F0C48A;}
	.st1{fill:#D3E6F8;}
	.st2{fill:#4C4372;}
	.st3{fill:#FD919E;}
	.st4{fill:#E8677D;}
	.st5{fill:#FFFFFF;}
	.st6{fill:#A4CFF2;}
	.st7{fill:#7BABF1;}
</style>
<g id="Solution">
	<g>
		<g>
			<circle class="st0" cx="256" cy="256" r="207"/>
		</g>
	</g>
	<g>
		<g>
			<g>
				<path class="st5" d="M355.981,241.589c0-55.217-44.762-99.98-99.98-99.981c-55.229-0.001-99.9,44.6-99.982,99.829
					c-0.052,34.929,17.811,65.686,44.908,83.603c8.133,5.378,13.082,14.424,13.082,24.175v33.781
					c0,23.191,18.8,41.991,41.991,41.991h0c23.191,0,41.991-18.8,41.991-41.991v-33.782c0-9.671,4.817-18.735,12.896-24.051
					C338.049,307.29,355.981,276.536,355.981,241.589z"/>
			</g>
			<g>
				<path class="st1" d="M256.001,141.609c-3.698,0-7.347,0.206-10.94,0.596c50.08,5.441,89.061,47.858,89.061,99.385
					c0,34.947-17.932,65.7-45.094,83.574c-8.079,5.316-12.896,14.379-12.896,24.051v33.781c0,19.41-13.172,35.735-31.062,40.546
					c3.486,0.937,7.147,1.445,10.929,1.445h0c23.191,0,41.991-18.8,41.991-41.991v-33.781c0-9.671,4.817-18.735,12.896-24.051
					c27.162-17.874,45.094-48.627,45.094-83.574C355.981,186.372,311.219,141.609,256.001,141.609z"/>
			</g>
			<g>
				<path class="st1" d="M214.009,382.996c0,23.191,18.8,41.991,41.991,41.991h0c23.191,0,41.991-18.8,41.991-41.991v-33.781
					h-83.982V382.996z"/>
			</g>
			<g>
				<path class="st6" d="M276.133,382.996c0,19.41-13.172,35.735-31.062,40.546c0.001,0,0.002,0.001,0.004,0.001
					c0.36,0.097,0.723,0.186,1.087,0.274c0.196,0.048,0.393,0.092,0.59,0.137c0.5,0.113,1.004,0.216,1.51,0.311
					c0.32,0.059,0.64,0.119,0.962,0.172c0.277,0.045,0.555,0.085,0.834,0.125c0.409,0.058,0.82,0.11,1.233,0.157
					c0.184,0.021,0.366,0.044,0.55,0.063c0.577,0.057,1.158,0.099,1.742,0.132c0.173,0.01,0.346,0.018,0.52,0.026
					c0.629,0.028,1.261,0.048,1.897,0.048h0c23.191,0,41.991-18.8,41.991-41.991v-33.781h-21.858V382.996z"/>
			</g>
			<g>
				<path class="st3" d="M286.945,197.067c-4.609,4.609-6.263,11.049-4.974,16.977L256,188.073l-25.971,25.971
					c1.289-5.929-0.366-12.369-4.974-16.977c-7.203-7.203-18.881-7.203-26.084,0c-7.203,7.203-7.203,18.881,0,26.084
					c4.609,4.609,11.049,6.263,16.977,4.974l-25.971,25.971L212.9,277.02c0.404-4.096,2.174-8.082,5.311-11.219
					c7.203-7.203,18.881-7.203,26.084,0s7.203,18.881,0,26.084c-3.137,3.137-7.123,4.907-11.218,5.311L256,320.119l66.023-66.023
					l-25.971-25.971c5.928,1.289,12.368-0.366,16.977-4.974c7.203-7.203,7.203-18.881,0-26.084
					C305.826,189.864,294.148,189.864,286.945,197.067z"/>
			</g>
			<g>
				<path class="st2" d="M256,326.119c-1.536,0-3.071-0.586-4.243-1.757l-22.923-22.923c-1.64-1.641-2.188-4.079-1.407-6.263
					c0.781-2.185,2.751-3.723,5.059-3.951c2.892-0.286,5.509-1.525,7.567-3.584c4.851-4.852,4.851-12.746-0.001-17.599
					c-2.351-2.351-5.475-3.645-8.799-3.645c-3.324,0-6.449,1.294-8.799,3.645c-2.059,2.059-3.297,4.675-3.583,7.566
					c-0.228,2.308-1.766,4.278-3.951,5.06c-2.184,0.78-4.624,0.232-6.263-1.407l-22.924-22.924
					c-1.125-1.125-1.757-2.651-1.757-4.242c0-1.592,0.632-3.117,1.757-4.243l17.084-17.084c-2.979-1.21-5.734-3.02-8.091-5.376
					c-9.53-9.53-9.53-25.038,0-34.568c9.53-9.531,25.039-9.53,34.569-0.001c2.357,2.357,4.166,5.112,5.376,8.092l17.084-17.085
					c2.344-2.342,6.142-2.342,8.485,0l17.084,17.085c1.21-2.979,3.019-5.734,5.375-8.091c0,0,0-0.001,0-0.001
					c9.531-9.529,25.038-9.529,34.568,0c4.617,4.617,7.16,10.756,7.16,17.285c0,6.53-2.543,12.668-7.16,17.285
					c-2.356,2.356-5.111,4.165-8.09,5.375l17.084,17.085c2.343,2.343,2.343,6.142,0,8.484l-66.023,66.023
					C259.071,325.533,257.536,326.119,256,326.119z M244.039,299.673L256,311.634l57.538-57.538l-21.728-21.729
					c-1.883-1.882-2.299-4.78-1.023-7.117c1.276-2.338,3.942-3.552,6.541-2.988c4.17,0.905,8.453-0.349,11.459-3.354
					c2.351-2.351,3.645-5.476,3.645-8.8s-1.294-6.449-3.645-8.8c-4.852-4.85-12.746-4.85-17.599,0l0,0
					c-3.006,3.007-4.26,7.291-3.354,11.461c0.566,2.602-0.651,5.265-2.987,6.541c-2.337,1.275-5.235,0.856-7.118-1.023L256,196.559
					l-21.729,21.729c-1.883,1.88-4.781,2.297-7.118,1.023c-2.336-1.276-3.553-3.939-2.987-6.541
					c0.906-4.169-0.348-8.453-3.354-11.461c-4.851-4.851-12.746-4.852-17.598,0.001c-4.852,4.852-4.852,12.746,0,17.599
					c3.006,3.006,7.291,4.259,11.459,3.354c2.601-0.563,5.265,0.65,6.541,2.988c1.276,2.337,0.859,5.235-1.023,7.117l-21.729,21.729
					l11.961,11.961c0.997-1.625,2.185-3.138,3.546-4.499c4.616-4.616,10.754-7.159,17.284-7.159c6.529,0,12.667,2.543,17.284,7.16
					c9.531,9.53,9.531,25.038,0,34.568C247.177,297.488,245.664,298.677,244.039,299.673z"/>
			</g>
			<g>
				<path class="st2" d="M256,430.987c-26.462,0-47.991-21.528-47.991-47.991v-33.781c0-3.313,2.687-6,6-6h83.982
					c3.313,0,6,2.687,6,6v33.78C303.991,409.458,282.462,430.987,256,430.987z M220.009,355.215v27.781
					c0,19.846,16.146,35.991,35.991,35.991s35.991-16.146,35.991-35.992v-27.78H220.009z"/>
			</g>
			<g>
				<path class="st2" d="M256,430.987c-26.462,0-47.991-21.528-47.991-47.991v-33.781c0-7.701-3.884-14.868-10.391-19.17
					c-29.858-19.741-47.652-52.869-47.599-88.616c0.042-28.312,11.077-54.899,31.072-74.862
					c19.994-19.964,46.598-30.958,74.91-30.958c58.438,0.001,105.98,47.544,105.98,105.981c0,35.776-17.868,68.893-47.796,88.586
					c-6.383,4.2-10.193,11.317-10.193,19.038v33.782C303.991,409.459,282.462,430.987,256,430.987z M256.001,147.608
					c-51.745,0-93.905,42.096-93.982,93.838c-0.047,31.7,15.735,61.079,42.217,78.589c9.876,6.53,15.772,17.438,15.772,29.18v33.781
					c0,19.846,16.146,35.991,35.991,35.991s35.991-16.146,35.991-35.991v-33.782c0-11.771,5.831-22.636,15.597-29.062
					c26.545-17.467,42.393-46.836,42.393-78.562C349.981,189.77,307.822,147.609,256.001,147.608z"/>
			</g>
			<g>
				<path class="st2" d="M297.991,388.996h-83.982c-3.313,0-6-2.687-6-6s2.687-6,6-6h83.982c3.313,0,6,2.687,6,6
					S301.305,388.996,297.991,388.996z"/>
			</g>
		</g>
		<g>
			<g>
				<path class="st2" d="M256,118.066c-3.313,0-6-2.687-6-6V87.013c0-3.313,2.687-6,6-6s6,2.687,6,6v25.054
					C262,115.38,259.313,118.066,256,118.066z"/>
			</g>
		</g>
		<g>
			<g>
				<path class="st2" d="M377.079,168.219c-1.536,0-3.071-0.586-4.243-1.758c-2.343-2.343-2.343-6.142,0-8.485l17.715-17.715
					c2.343-2.342,6.142-2.343,8.485,0.001c2.343,2.343,2.343,6.142,0,8.485l-17.715,17.715
					C380.15,167.633,378.614,168.219,377.079,168.219z"/>
			</g>
		</g>
		<g>
			<g>
				<path class="st2" d="M134.921,168.219c-1.536,0-3.071-0.586-4.243-1.757l-17.715-17.715c-2.343-2.344-2.343-6.143,0-8.485
					c2.343-2.344,6.142-2.343,8.485-0.001l17.715,17.715c2.343,2.344,2.343,6.143,0,8.485
					C137.992,167.633,136.457,168.219,134.921,168.219z"/>
			</g>
		</g>
	</g>
</g>
</svg>
