<?xml version="1.0" encoding="utf-8"?>
<!-- Generator: Adobe Illustrator 22.1.0, SVG Export Plug-In . SVG Version: 6.00 Build 0)  -->
<svg version="1.1" id="Icon_Set" xmlns="http://www.w3.org/2000/svg" xmlns:xlink="http://www.w3.org/1999/xlink" x="0px" y="0px"
	 viewBox="0 0 512 512" style="enable-background:new 0 0 512 512;" xml:space="preserve">
<style type="text/css">
	.st0{fill:#F0C48A;}
	.st1{fill:#D3E6F8;}
	.st2{fill:#4C4372;}
	.st3{fill:#FD919E;}
	.st4{fill:#E8677D;}
	.st5{fill:#FFFFFF;}
	.st6{fill:#A4CFF2;}
	.st7{fill:#7BABF1;}
</style>
<g id="SQL_Databases">
	<g>
		<g>
			<circle class="st0" cx="256" cy="256" r="207"/>
		</g>
	</g>
	<g>
		<g>
			<path class="st6" d="M256,110.051c-61.362,0-111.105,19.985-111.105,44.639v202.62c0,24.653,49.744,44.639,111.105,44.639
				s111.105-19.986,111.105-44.639V154.69C367.105,130.036,317.362,110.051,256,110.051z"/>
		</g>
		<g>
			<path class="st7" d="M331.739,389.966c21.756-8.149,35.367-19.763,35.367-32.656V154.69c0-9.659-7.636-18.6-20.613-25.904
				h-14.754V389.966z"/>
		</g>
		<g>
			<path class="st1" d="M256,110.051c-61.362,0-111.105,19.985-111.105,44.639v67.54c0,24.654,49.744,44.639,111.105,44.639
				s111.105-19.985,111.105-44.639v-67.54C367.105,130.036,317.362,110.051,256,110.051z"/>
		</g>
		<g>
			<path class="st6" d="M331.739,254.886c21.756-8.149,35.367-19.763,35.367-32.656v-67.54c0-9.659-7.636-18.6-20.613-25.904
				h-14.754V254.886z"/>
		</g>
		<g>
			<path class="st1" d="M256,401.949c61.362,0,111.105-19.986,111.105-44.639v-67.54c0,24.653-49.743,44.639-111.105,44.639
				s-111.105-19.986-111.105-44.639v67.54C144.895,381.964,194.638,401.949,256,401.949z"/>
		</g>
		<g>
			<path class="st6" d="M331.739,322.426v67.541c21.756-8.149,35.367-19.763,35.367-32.656V289.77
				C367.105,302.663,353.495,314.277,331.739,322.426z"/>
		</g>
		<g>
			<ellipse class="st7" cx="256" cy="149.255" rx="110.256" ry="39.204"/>
		</g>
		<g>
			<circle class="st3" cx="189.78" cy="217.431" r="13.855"/>
		</g>
		<g>
			<circle class="st3" cx="189.78" cy="290.77" r="13.855"/>
		</g>
		<g>
			<circle class="st3" cx="189.78" cy="359.011" r="13.855"/>
		</g>
		<g>
			<path class="st2" d="M256,407.949c-30.426,0-59.121-4.797-80.801-13.507c-23.411-9.406-36.305-22.593-36.305-37.132V154.69
				c0-14.539,12.894-27.726,36.305-37.132c21.68-8.71,50.375-13.507,80.801-13.507s59.121,4.797,80.801,13.507
				c23.411,9.406,36.305,22.593,36.305,37.132v202.62c0,14.539-12.894,27.726-36.305,37.132
				C315.121,403.152,286.426,407.949,256,407.949z M256,116.051c-28.93,0-56.036,4.49-76.327,12.642
				c-18.289,7.348-28.778,16.824-28.778,25.998v202.62c0,18.276,43.165,38.639,105.105,38.639c28.93,0,56.036-4.49,76.327-12.642
				c18.289-7.348,28.778-16.824,28.778-25.997V154.69C361.105,136.414,317.94,116.051,256,116.051z"/>
		</g>
		<g>
			<path class="st2" d="M256,407.949c-30.426,0-59.121-4.797-80.801-13.507c-23.411-9.406-36.305-22.593-36.305-37.132v-67.54
				c0-3.314,2.687-6,6-6s6,2.686,6,6c0,18.276,43.165,38.639,105.105,38.639c28.93,0,56.036-4.49,76.327-12.642
				c9.363-3.762,16.941-8.248,21.915-12.972c4.554-4.326,6.863-8.708,6.863-13.025c0-3.314,2.687-6,6-6s6,2.686,6,6v67.54
				c0,14.539-12.894,27.726-36.305,37.132C315.121,403.152,286.426,407.949,256,407.949z M150.895,312.752v44.558
				c0,18.276,43.165,38.639,105.105,38.639c28.93,0,56.036-4.49,76.327-12.642c9.363-3.762,16.941-8.248,21.915-12.972
				c4.554-4.326,6.863-8.708,6.863-13.025v-44.558c-6,5.294-14.167,10.077-24.305,14.15c-21.68,8.71-50.375,13.507-80.801,13.507
				s-59.121-4.797-80.801-13.507C165.062,322.829,156.895,318.046,150.895,312.752z"/>
		</g>
		<g>
			<path class="st2" d="M256,194.459c-59.6,0-108.385-18.281-116-43.468c-0.343-1.132-0.343-2.34,0-3.473
				c7.615-25.187,56.4-43.468,116-43.468s108.385,18.281,116,43.468c0.343,1.132,0.343,2.34,0,3.473
				C364.385,176.179,315.6,194.459,256,194.459z M152.132,149.255c3.601,8.161,15.087,16.181,31.978,22.238
				c19.721,7.072,45.252,10.967,71.891,10.967s52.17-3.895,71.891-10.967c16.891-6.057,28.377-14.077,31.978-22.238
				c-3.601-8.16-15.087-16.181-31.978-22.237c-19.721-7.072-45.252-10.967-71.891-10.967s-52.17,3.895-71.891,10.967
				C167.219,133.074,155.732,141.095,152.132,149.255z"/>
		</g>
		<g>
			<path class="st2" d="M256,272.869c-30.426,0-59.121-4.797-80.801-13.507c-23.411-9.406-36.305-22.593-36.305-37.132v-67.54
				c0-14.539,12.894-27.726,36.305-37.132c21.68-8.71,50.375-13.507,80.801-13.507s59.121,4.797,80.801,13.507
				c23.411,9.406,36.305,22.593,36.305,37.132v67.54c0,14.539-12.894,27.726-36.305,37.132
				C315.121,268.072,286.426,272.869,256,272.869z M256,116.051c-28.93,0-56.036,4.49-76.327,12.642
				c-9.363,3.762-16.941,8.248-21.915,12.972c-4.554,4.326-6.863,8.709-6.863,13.026v67.54c0,18.276,43.165,38.639,105.105,38.639
				c28.93,0,56.036-4.49,76.327-12.642c9.363-3.762,16.941-8.248,21.915-12.972c4.554-4.326,6.863-8.709,6.863-13.026v-67.54
				C361.105,136.414,317.94,116.051,256,116.051z"/>
		</g>
		<g>
			<path class="st2" d="M189.78,237.286c-10.948,0-19.854-8.907-19.854-19.854c0-10.948,8.906-19.855,19.854-19.855
				s19.854,8.907,19.854,19.855C209.635,228.379,200.729,237.286,189.78,237.286z M189.78,209.576c-4.331,0-7.854,3.524-7.854,7.855
				s3.523,7.854,7.854,7.854s7.854-3.523,7.854-7.854S194.111,209.576,189.78,209.576z"/>
		</g>
		<g>
			<path class="st2" d="M189.78,310.625c-10.948,0-19.854-8.907-19.854-19.854c0-10.948,8.906-19.855,19.854-19.855
				s19.854,8.907,19.854,19.855C209.635,301.718,200.729,310.625,189.78,310.625z M189.78,282.915c-4.331,0-7.854,3.524-7.854,7.855
				s3.523,7.854,7.854,7.854s7.854-3.523,7.854-7.854S194.111,282.915,189.78,282.915z"/>
		</g>
		<g>
			<path class="st2" d="M189.78,378.866c-10.948,0-19.854-8.907-19.854-19.854s8.906-19.854,19.854-19.854
				s19.854,8.907,19.854,19.854S200.729,378.866,189.78,378.866z M189.78,351.157c-4.331,0-7.854,3.523-7.854,7.854
				s3.523,7.854,7.854,7.854s7.854-3.523,7.854-7.854S194.111,351.157,189.78,351.157z"/>
		</g>
	</g>
</g>
</svg>
