<?xml version="1.0" encoding="utf-8"?>
<!-- Generator: Adobe Illustrator 22.1.0, SVG Export Plug-In . SVG Version: 6.00 Build 0)  -->
<svg version="1.1" id="Icon_Set" xmlns="http://www.w3.org/2000/svg" xmlns:xlink="http://www.w3.org/1999/xlink" x="0px" y="0px"
	 viewBox="0 0 512 512" style="enable-background:new 0 0 512 512;" xml:space="preserve">
<style type="text/css">
	.st0{fill:#F0C48A;}
	.st1{fill:#D3E6F8;}
	.st2{fill:#4C4372;}
	.st3{fill:#FD919E;}
	.st4{fill:#E8677D;}
	.st5{fill:#FFFFFF;}
	.st6{fill:#A4CFF2;}
	.st7{fill:#7BABF1;}
</style>
<g id="System_Protection">
	<g>
		<g>
			<circle class="st0" cx="256" cy="256" r="207"/>
		</g>
	</g>
	<g>
		<g>
			<g>
				<path class="st1" d="M373.554,320.54H138.446c-14.825,0-26.843-12.018-26.843-26.843V147.543
					c0-14.825,12.018-26.843,26.843-26.843h235.107c14.825,0,26.843,12.018,26.843,26.843v146.154
					C400.396,308.522,388.378,320.54,373.554,320.54z"/>
			</g>
			<g>
				<path class="st5" d="M373.554,120.701H138.446c-14.825,0-26.843,12.018-26.843,26.843v146.154h288.792V147.543
					C400.396,132.718,388.378,120.701,373.554,120.701z"/>
			</g>
			<g>
				<path class="st6" d="M373.554,120.701h-5.42v199.84h5.42c14.825,0,26.843-12.018,26.843-26.843V147.543
					C400.396,132.718,388.378,120.701,373.554,120.701z"/>
			</g>
			<g>
				<path class="st1" d="M373.554,120.701h-5.42v172.997h32.263V147.543C400.396,132.718,388.378,120.701,373.554,120.701z"/>
			</g>
			<g>
				<path class="st2" d="M373.554,326.54H138.446c-18.109,0-32.843-14.733-32.843-32.843V147.543
					c0-18.109,14.733-32.842,32.843-32.842h235.107c18.109,0,32.843,14.733,32.843,32.842v146.154
					C406.396,311.807,391.663,326.54,373.554,326.54z M138.446,126.701c-11.493,0-20.843,9.35-20.843,20.842v146.154
					c0,11.493,9.35,20.843,20.843,20.843h235.107c11.493,0,20.843-9.35,20.843-20.843V147.543c0-11.493-9.35-20.842-20.843-20.842
					H138.446z"/>
			</g>
			<g>
				<path class="st2" d="M400.396,299.697H111.604c-3.313,0-6-2.687-6-6V147.543c0-18.109,14.733-32.842,32.843-32.842h235.107
					c18.109,0,32.842,14.733,32.842,32.842v146.154C406.396,297.011,403.709,299.697,400.396,299.697z M117.604,287.697h276.792
					V147.543c0-11.493-9.35-20.842-20.842-20.842H138.446c-11.493,0-20.843,9.35-20.843,20.842V287.697z"/>
			</g>
			<g>
				<path class="st1" d="M308.577,391.299H203.423v-19.75c0-5.238,4.246-9.484,9.484-9.484h86.186c5.238,0,9.484,4.246,9.484,9.484
					V391.299z"/>
			</g>
			<g>
				<rect x="235.238" y="320.54" class="st6" width="41.525" height="41.525"/>
			</g>
			<g>
				<path class="st2" d="M276.762,368.065h-41.524c-3.313,0-6-2.687-6-6V320.54c0-3.313,2.687-6,6-6h41.524c3.313,0,6,2.687,6,6
					v41.525C282.762,365.378,280.076,368.065,276.762,368.065z M241.238,356.065h29.524V326.54h-29.524V356.065z"/>
			</g>
			<g>
				<path class="st2" d="M308.577,397.299H203.423c-3.313,0-6-2.687-6-6v-19.75c0-8.538,6.946-15.484,15.484-15.484h86.187
					c8.538,0,15.484,6.946,15.484,15.484v19.75C314.577,394.613,311.891,397.299,308.577,397.299z M209.423,385.299h93.154v-13.75
					c0-1.921-1.563-3.484-3.484-3.484h-86.187c-1.921,0-3.484,1.563-3.484,3.484V385.299z"/>
			</g>
		</g>
		<g>
			<g>
				<circle class="st1" cx="256" cy="207.488" r="67.489"/>
			</g>
			<g>
				<g>
					<path class="st3" d="M277.696,252.866h-43.393c-3.473,0-6.289-2.816-6.289-6.289v-43.393c0-3.473,2.816-6.289,6.289-6.289
						h43.393c3.473,0,6.289,2.816,6.289,6.289v43.393C283.985,250.05,281.17,252.866,277.696,252.866z"/>
				</g>
				<g>
					<path class="st2" d="M263.955,219.901c0-4.827-4.042-8.709-8.925-8.448c-4.332,0.232-7.848,3.827-7.991,8.163
						c-0.104,3.158,1.529,5.936,4.01,7.474v6.785c0,2.455,1.99,4.445,4.445,4.445h0c2.455,0,4.445-1.99,4.445-4.445v-6.785
						C262.347,225.598,263.955,222.941,263.955,219.901z"/>
				</g>
				<g>
					<path class="st2" d="M277.696,258.866h-43.393c-6.776,0-12.289-5.513-12.289-12.289v-43.393
						c0-6.776,5.513-12.289,12.289-12.289h43.393c6.776,0,12.289,5.513,12.289,12.289v43.393
						C289.985,253.353,284.472,258.866,277.696,258.866z M234.304,202.896c-0.159,0-0.289,0.129-0.289,0.289v43.393
						c0,0.159,0.129,0.289,0.289,0.289h43.393c0.159,0,0.289-0.129,0.289-0.289v-43.393c0-0.159-0.129-0.289-0.289-0.289H234.304z"
						/>
				</g>
				<g>
					<path class="st2" d="M276.686,202.896c-3.313,0-6-2.687-6-6v-13.594c0-8.376-6.815-15.191-15.191-15.191
						s-15.191,6.814-15.191,15.191v13.594c0,3.313-2.687,6-6,6s-6-2.687-6-6v-13.594c0-14.993,12.198-27.191,27.191-27.191
						s27.191,12.198,27.191,27.191v13.594C282.686,200.209,280,202.896,276.686,202.896z"/>
				</g>
			</g>
			<g>
				<path class="st2" d="M256,280.978c-40.522,0-73.489-32.967-73.489-73.489c0-40.522,32.967-73.49,73.489-73.49
					s73.489,32.967,73.489,73.49C329.489,248.01,296.522,280.978,256,280.978z M256,145.999c-33.905,0-61.489,27.584-61.489,61.49
					c0,33.905,27.584,61.489,61.489,61.489s61.489-27.584,61.489-61.489C317.489,173.583,289.905,145.999,256,145.999z"/>
			</g>
		</g>
	</g>
</g>
</svg>
