<?xml version="1.0" encoding="utf-8"?>
<!-- Generator: Adobe Illustrator 22.1.0, SVG Export Plug-In . SVG Version: 6.00 Build 0)  -->
<svg version="1.1" id="Icon_Set" xmlns="http://www.w3.org/2000/svg" xmlns:xlink="http://www.w3.org/1999/xlink" x="0px" y="0px"
	 viewBox="0 0 512 512" style="enable-background:new 0 0 512 512;" xml:space="preserve">
<style type="text/css">
	.st0{fill:#F0C48A;}
	.st1{fill:#D3E6F8;}
	.st2{fill:#4C4372;}
	.st3{fill:#FD919E;}
	.st4{fill:#E8677D;}
	.st5{fill:#FFFFFF;}
	.st6{fill:#A4CFF2;}
	.st7{fill:#7BABF1;}
</style>
<g id="System_Preferences">
	<g>
		<g>
			<circle class="st0" cx="256" cy="256" r="207"/>
		</g>
	</g>
	<g>
		<g>
			<path class="st3" d="M427.332,203.086V179.56h-23.566c-1.346-5.944-3.686-11.508-6.841-16.51l16.666-16.666l-16.635-16.635
				l-16.666,16.666c-5.002-3.156-10.566-5.496-16.51-6.841v-23.566h-23.526v23.566c-5.944,1.346-11.508,3.686-16.51,6.841
				l-16.666-16.666l-16.635,16.635l16.666,16.666c-3.156,5.002-5.496,10.566-6.841,16.51H276.7v23.526h23.566
				c1.346,5.944,3.686,11.508,6.841,16.51l-16.666,16.666l16.635,16.635l16.666-16.666c5.002,3.156,10.566,5.496,16.51,6.841v23.566
				h23.526v-23.566c5.944-1.346,11.508-3.686,16.51-6.841l16.666,16.666l16.635-16.635l-16.666-16.666
				c3.156-5.002,5.496-10.566,6.841-16.51H427.332z M352.016,222.666c-17.31,0-31.343-14.033-31.343-31.342
				c0-17.31,14.032-31.343,31.343-31.343c17.31,0,31.342,14.033,31.342,31.343C383.358,208.633,369.326,222.666,352.016,222.666z"/>
		</g>
		<g>
			<path class="st7" d="M231.006,308.657l-26.287-26.286v-34.844c-4.311-1.4-8.907-2.167-13.684-2.167
				c-4.716,0-9.256,0.744-13.518,2.11v34.9l-26.401,26.401c4.025,8.377,10.61,15.291,18.741,19.729l21.262-21.262l21.201,21.201
				C220.437,323.98,227.004,317.049,231.006,308.657z"/>
		</g>
		<g>
			<path class="st6" d="M297.403,306.238v-33.225h-33.282c-1.901-8.395-5.205-16.253-9.662-23.317l23.537-23.537l-23.494-23.494
				l-23.537,23.537c-7.064-4.457-14.922-7.761-23.317-9.662v-33.282h-33.225v33.282c-8.395,1.901-16.252,5.205-23.317,9.662
				l-23.537-23.537l-23.494,23.494l23.537,23.537c-4.457,7.064-7.761,14.922-9.662,23.317H84.668v33.225h33.282
				c1.901,8.395,5.205,16.253,9.662,23.317l-23.537,23.537l23.494,23.494l23.537-23.537c7.064,4.457,14.922,7.761,23.317,9.662
				v33.282h33.225V362.71c8.395-1.901,16.253-5.205,23.317-9.662l23.537,23.537l23.494-23.494l-23.537-23.537
				c4.457-7.064,7.761-14.922,9.662-23.317H297.403z M191.035,333.89c-24.447,0-44.264-19.818-44.264-44.264
				c0-24.447,19.818-44.265,44.264-44.265c24.447,0,44.264,19.818,44.264,44.265C235.3,314.072,215.482,333.89,191.035,333.89z"/>
		</g>
		<g>
			<path class="st2" d="M169.855,334.502c-0.981,0-1.969-0.24-2.873-0.734c-9.189-5.017-16.744-12.971-21.274-22.397
				c-1.104-2.297-0.636-5.04,1.166-6.841l24.644-24.644v-32.415c0-2.608,1.685-4.918,4.169-5.714
				c9.984-3.199,20.897-3.182,30.887,0.064c2.472,0.803,4.146,3.107,4.146,5.706v32.358l24.529,24.529
				c1.797,1.797,2.267,4.532,1.173,6.826c-4.502,9.44-12.036,17.416-21.212,22.458c-2.339,1.285-5.246,0.871-7.132-1.016
				l-16.958-16.958L174.1,332.744C172.945,333.898,171.409,334.502,169.855,334.502z M158.541,309.833
				c2.704,4.323,6.276,8.107,10.44,11.059l17.895-17.895c2.343-2.343,6.143-2.343,8.485,0l17.824,17.824
				c4.155-2.965,7.716-6.761,10.407-11.093l-23.115-23.115c-1.125-1.125-1.757-2.651-1.757-4.243v-30.232
				c-4.994-1.023-10.211-1.033-15.202-0.035v30.268c0,1.591-0.632,3.117-1.757,4.243L158.541,309.833z"/>
		</g>
		<g>
			<path class="st2" d="M207.648,401.992h-33.225c-3.313,0-6-2.686-6-6v-28.636c-5.691-1.651-11.166-3.92-16.36-6.78l-20.251,20.251
				c-1.125,1.125-2.651,1.757-4.243,1.757s-3.117-0.632-4.243-1.757l-23.494-23.494c-2.343-2.343-2.343-6.142,0-8.485l20.251-20.251
				c-2.86-5.195-5.129-10.669-6.78-16.36H84.668c-3.314,0-6-2.686-6-6v-33.225c0-3.314,2.686-6,6-6h28.636
				c1.651-5.691,3.919-11.165,6.78-16.36l-20.251-20.251c-2.343-2.343-2.343-6.142,0-8.485l23.494-23.494
				c1.125-1.125,2.651-1.757,4.243-1.757s3.117,0.632,4.243,1.757l20.251,20.251c5.194-2.86,10.669-5.129,16.36-6.779v-28.636
				c0-3.314,2.687-6,6-6h33.225c3.313,0,6,2.686,6,6v28.636c5.691,1.651,11.166,3.919,16.36,6.779l20.251-20.251
				c1.125-1.125,2.651-1.757,4.243-1.757s3.118,0.632,4.243,1.757l23.494,23.494c2.343,2.343,2.343,6.142,0,8.485l-20.251,20.251
				c2.86,5.195,5.129,10.669,6.78,16.36h28.636c3.313,0,6,2.686,6,6v33.225c0,3.314-2.687,6-6,6h-28.636
				c-1.651,5.691-3.919,11.165-6.78,16.36l20.251,20.251c2.343,2.343,2.343,6.142,0,8.485l-23.494,23.494
				c-1.125,1.125-2.651,1.757-4.243,1.757s-3.118-0.632-4.243-1.757l-20.251-20.251c-5.194,2.86-10.669,5.129-16.36,6.78v28.636
				C213.648,399.306,210.961,401.992,207.648,401.992z M180.423,389.992h21.225V362.71c0-2.803,1.941-5.233,4.675-5.852
				c7.615-1.724,14.828-4.713,21.44-8.885c2.372-1.496,5.462-1.151,7.444,0.832l19.294,19.294l15.008-15.009l-19.294-19.294
				c-1.982-1.982-2.328-5.073-0.832-7.444c4.171-6.612,7.161-13.825,8.884-21.44c0.619-2.734,3.049-4.675,5.852-4.675h27.282
				v-21.225h-27.282c-2.803,0-5.233-1.941-5.852-4.675c-1.724-7.614-4.713-14.828-8.884-21.44c-1.496-2.371-1.151-5.462,0.832-7.444
				l19.294-19.294l-15.008-15.009l-19.294,19.294c-1.983,1.982-5.073,2.328-7.444,0.832c-6.612-4.171-13.825-7.161-21.44-8.884
				c-2.734-0.619-4.675-3.049-4.675-5.852v-27.282h-21.225v27.282c0,2.803-1.941,5.233-4.675,5.852
				c-7.614,1.724-14.828,4.713-21.44,8.884c-2.371,1.496-5.461,1.15-7.444-0.832l-19.294-19.294l-15.008,15.009l19.294,19.294
				c1.982,1.982,2.328,5.073,0.832,7.444c-4.171,6.612-7.161,13.825-8.884,21.44c-0.619,2.734-3.049,4.675-5.852,4.675H90.668
				v21.225h27.282c2.803,0,5.233,1.941,5.852,4.675c1.724,7.615,4.713,14.828,8.884,21.44c1.496,2.371,1.151,5.462-0.832,7.444
				l-19.294,19.294l15.008,15.009l19.294-19.294c1.982-1.982,5.072-2.328,7.444-0.832c6.612,4.172,13.825,7.161,21.44,8.885
				c2.734,0.619,4.675,3.049,4.675,5.852V389.992z M191.035,339.89c-27.716,0-50.264-22.549-50.264-50.264
				c0-27.716,22.548-50.265,50.264-50.265s50.265,22.549,50.265,50.265C241.3,317.341,218.751,339.89,191.035,339.89z
				 M191.035,251.361c-21.099,0-38.264,17.165-38.264,38.265c0,21.099,17.165,38.264,38.264,38.264s38.265-17.165,38.265-38.264
				C229.3,268.526,212.134,251.361,191.035,251.361z"/>
		</g>
		<g>
			<path class="st2" d="M363.779,272.639h-23.526c-3.313,0-6-2.686-6-6v-18.976c-3.282-1.033-6.461-2.35-9.513-3.942l-13.42,13.419
				c-2.343,2.343-6.142,2.343-8.485,0l-16.635-16.635c-2.343-2.343-2.343-6.142,0-8.485l13.419-13.419
				c-1.592-3.052-2.91-6.231-3.942-9.514H276.7c-3.313,0-6-2.686-6-6V179.56c0-3.314,2.687-6,6-6h18.976
				c1.032-3.282,2.35-6.461,3.942-9.514l-13.419-13.419c-2.343-2.343-2.343-6.142,0-8.485l16.635-16.635
				c2.343-2.343,6.142-2.343,8.485,0l13.42,13.42c3.052-1.592,6.231-2.91,9.513-3.942v-18.976c0-3.314,2.687-6,6-6h23.526
				c3.313,0,6,2.686,6,6v18.976c3.282,1.033,6.461,2.35,9.514,3.942l13.419-13.419c1.125-1.125,2.651-1.757,4.243-1.757
				s3.118,0.632,4.243,1.757l16.635,16.635c2.343,2.343,2.343,6.142,0,8.485l-13.419,13.419c1.592,3.052,2.91,6.231,3.942,9.514
				h18.977c3.313,0,6,2.686,6,6v23.526c0,3.314-2.687,6-6,6h-18.977c-1.032,3.282-2.35,6.461-3.942,9.514l13.419,13.419
				c2.343,2.343,2.343,6.142,0,8.485l-16.635,16.635c-1.125,1.125-2.651,1.757-4.243,1.757s-3.118-0.632-4.243-1.757l-13.419-13.419
				c-3.052,1.592-6.231,2.91-9.514,3.943v18.976C369.779,269.953,367.092,272.639,363.779,272.639z M346.253,260.639h11.526v-17.566
				c0-2.803,1.941-5.233,4.675-5.852c5.197-1.177,10.121-3.217,14.633-6.064c2.372-1.496,5.462-1.151,7.444,0.832l12.423,12.423
				l8.15-8.15l-12.423-12.423c-1.982-1.982-2.328-5.073-0.832-7.444c2.847-4.513,4.888-9.436,6.064-14.633
				c0.619-2.734,3.049-4.675,5.852-4.675h17.566V185.56h-17.566c-2.803,0-5.233-1.941-5.852-4.675
				c-1.176-5.197-3.217-10.12-6.064-14.633c-1.496-2.371-1.15-5.462,0.832-7.444l12.423-12.423l-8.15-8.15l-12.423,12.423
				c-1.983,1.982-5.074,2.328-7.444,0.832c-4.513-2.847-9.436-4.887-14.633-6.064c-2.734-0.619-4.675-3.049-4.675-5.852v-17.566
				h-11.526v17.566c0,2.803-1.941,5.233-4.675,5.852c-5.197,1.177-10.12,3.217-14.633,6.064c-2.371,1.496-5.461,1.151-7.444-0.832
				l-12.423-12.423l-8.15,8.15l12.423,12.423c1.982,1.982,2.328,5.073,0.832,7.444c-2.848,4.513-4.888,9.436-6.064,14.633
				c-0.619,2.734-3.049,4.675-5.852,4.675H282.7v11.526h17.566c2.803,0,5.233,1.941,5.852,4.675
				c1.176,5.197,3.217,10.12,6.064,14.633c1.496,2.371,1.15,5.462-0.832,7.444l-12.423,12.423l8.15,8.15l12.423-12.423
				c1.982-1.983,5.073-2.328,7.444-0.832c4.512,2.847,9.436,4.887,14.633,6.064c2.734,0.619,4.675,3.049,4.675,5.852V260.639z
				 M352.016,228.666c-20.591,0-37.343-16.752-37.343-37.342c0-20.591,16.752-37.343,37.343-37.343s37.342,16.752,37.342,37.343
				C389.358,211.914,372.607,228.666,352.016,228.666z M352.016,165.981c-13.974,0-25.343,11.369-25.343,25.343
				c0,13.974,11.369,25.342,25.343,25.342c13.974,0,25.342-11.369,25.342-25.342C377.358,177.35,365.99,165.981,352.016,165.981z"/>
		</g>
		<g>
			<circle class="st2" cx="191.035" cy="289.625" r="5.999"/>
		</g>
	</g>
</g>
</svg>
