<?xml version="1.0" encoding="utf-8"?>
<!-- Generator: Adobe Illustrator 22.1.0, SVG Export Plug-In . SVG Version: 6.00 Build 0)  -->
<svg version="1.1" id="Icon_Set" xmlns="http://www.w3.org/2000/svg" xmlns:xlink="http://www.w3.org/1999/xlink" x="0px" y="0px"
	 viewBox="0 0 512 512" style="enable-background:new 0 0 512 512;" xml:space="preserve">
<style type="text/css">
	.st0{fill:#F0C48A;}
	.st1{fill:#D3E6F8;}
	.st2{fill:#4C4372;}
	.st3{fill:#FD919E;}
	.st4{fill:#E8677D;}
	.st5{fill:#FFFFFF;}
	.st6{fill:#A4CFF2;}
	.st7{fill:#7BABF1;}
</style>
<g id="Tech_Support">
	<g>
		<g>
			<circle class="st0" cx="256" cy="256" r="207"/>
		</g>
	</g>
	<g>
		<g>
			<g>
				<path class="st2" d="M333.229,405.763H256c-3.313,0-6-2.687-6-6s2.687-6,6-6h77.229c15.792,0,28.64-12.848,28.64-28.64v-48.176
					c0-3.313,2.687-6,6-6s6,2.687,6,6v48.176C373.868,387.532,355.638,405.763,333.229,405.763z"/>
			</g>
			<g>
				<path class="st3" d="M144.132,321.405h-22.95c-10.337,0-18.717-8.38-18.717-18.717v-30.863c0-10.337,8.38-18.717,18.717-18.717
					h22.95V321.405z"/>
			</g>
			<g>
				<path class="st3" d="M367.868,321.405h22.95c10.337,0,18.717-8.38,18.717-18.717v-30.863c0-10.337-8.38-18.717-18.717-18.717
					h-22.95V321.405z"/>
			</g>
			<g>
				<path class="st7" d="M271.801,420.443h-28.919c-11.421,0-20.68-9.259-20.68-20.68v0c0-11.421,9.259-20.68,20.68-20.68h28.919
					c11.421,0,20.68,9.259,20.68,20.68v0C292.482,411.184,283.223,420.443,271.801,420.443z"/>
			</g>
			<g>
				<path class="st1" d="M170.793,337.425h-6.184c-11.309,0-20.477-9.168-20.477-20.477v-59.381
					c0-11.309,9.168-20.477,20.477-20.477h6.184c11.309,0,20.477,9.168,20.477,20.477v59.381
					C191.271,328.257,182.103,337.425,170.793,337.425z"/>
			</g>
			<g>
				<path class="st1" d="M341.207,337.425h6.184c11.309,0,20.477-9.168,20.477-20.477v-59.381c0-11.309-9.168-20.477-20.477-20.477
					h-6.184c-11.309,0-20.477,9.168-20.477,20.477v59.381C320.729,328.257,329.897,337.425,341.207,337.425z"/>
			</g>
			<g>
				<path class="st2" d="M144.132,327.405h-22.95c-13.629,0-24.717-11.088-24.717-24.717v-30.863
					c0-13.629,11.088-24.717,24.717-24.717h22.95c3.313,0,6,2.687,6,6v68.297C150.132,324.719,147.445,327.405,144.132,327.405z
					 M121.182,259.108c-7.012,0-12.717,5.705-12.717,12.717v30.863c0,7.012,5.705,12.717,12.717,12.717h16.95v-56.297H121.182z"/>
			</g>
			<g>
				<path class="st2" d="M170.793,343.425h-6.184c-14.6,0-26.478-11.878-26.478-26.478v-59.381c0-14.6,11.878-26.478,26.478-26.478
					h6.184c14.6,0,26.477,11.878,26.477,26.478v59.381C197.271,331.547,185.393,343.425,170.793,343.425z M164.609,243.089
					c-7.983,0-14.478,6.494-14.478,14.478v59.381c0,7.983,6.495,14.478,14.478,14.478h6.184c7.982,0,14.477-6.494,14.477-14.478
					v-59.381c0-7.983-6.495-14.478-14.477-14.478H164.609z"/>
			</g>
			<g>
				<path class="st2" d="M390.818,327.405h-22.95c-3.313,0-6-2.687-6-6v-68.297c0-3.313,2.687-6,6-6h22.95
					c13.629,0,24.717,11.088,24.717,24.717v30.863C415.535,316.317,404.447,327.405,390.818,327.405z M373.868,315.405h16.95
					c7.012,0,12.717-5.705,12.717-12.717v-30.863c0-7.012-5.705-12.717-12.717-12.717h-16.95V315.405z"/>
			</g>
			<g>
				<path class="st2" d="M347.391,343.425h-6.184c-14.6,0-26.478-11.878-26.478-26.478v-59.381c0-14.6,11.878-26.478,26.478-26.478
					h6.184c14.6,0,26.478,11.878,26.478,26.478v59.381C373.868,331.547,361.99,343.425,347.391,343.425z M341.207,243.089
					c-7.983,0-14.478,6.494-14.478,14.478v59.381c0,7.983,6.494,14.478,14.478,14.478h6.184c7.983,0,14.478-6.494,14.478-14.478
					v-59.381c0-7.983-6.494-14.478-14.478-14.478H341.207z"/>
			</g>
			<g>
				<path class="st2" d="M271.801,426.442h-28.919c-14.711,0-26.68-11.969-26.68-26.68c0-14.712,11.969-26.681,26.68-26.681h28.919
					c14.712,0,26.681,11.969,26.681,26.681C298.481,414.474,286.513,426.442,271.801,426.442z M242.882,385.082
					c-8.095,0-14.68,6.586-14.68,14.681s6.585,14.68,14.68,14.68h28.919c8.095,0,14.681-6.585,14.681-14.68
					s-6.586-14.681-14.681-14.681H242.882z"/>
			</g>
			<g>
				<path class="st2" d="M367.868,263.566c-3.313,0-6-2.687-6-6v-54.141c0-58.376-47.492-105.868-105.868-105.868
					S150.132,145.05,150.132,203.426v54.141c0,3.313-2.687,6-6,6s-6-2.687-6-6v-54.141c0-64.993,52.875-117.868,117.868-117.868
					c64.993,0,117.868,52.875,117.868,117.868v54.141C373.868,260.88,371.182,263.566,367.868,263.566z"/>
			</g>
		</g>
		<g>
			<g>
				<path class="st1" d="M269.827,293.954V183.943c10.014-5.059,16.882-15.438,16.882-27.423c0-11.985-6.87-22.358-16.882-27.417
					v13.591c0,7.636-6.19,13.827-13.827,13.827c-7.636,0-13.827-6.19-13.827-13.827v-13.591
					c-10.352,5.23-17.344,16.142-16.858,28.641c0.443,11.384,7.213,21.254,16.858,26.168v110.074
					c-9.644,4.913-16.414,14.781-16.858,26.165c-0.487,12.5,6.505,23.413,16.858,28.645v-13.59c0-7.636,6.19-13.827,13.827-13.827
					c7.636,0,13.827,6.191,13.827,13.827v13.59c10.012-5.059,16.882-15.433,16.882-27.417
					C286.708,309.393,279.84,299.013,269.827,293.954z"/>
			</g>
			<g>
				<path class="st2" d="M269.827,354.795c-1.093,0-2.183-0.298-3.144-0.89c-1.775-1.092-2.856-3.026-2.856-5.11v-13.59
					c0-4.315-3.512-7.827-7.827-7.827s-7.827,3.512-7.827,7.827v13.59c0,2.084-1.082,4.019-2.856,5.11
					c-1.774,1.094-3.989,1.186-5.85,0.245c-12.798-6.468-20.706-19.904-20.147-34.233c0.467-11.973,6.829-22.926,16.854-29.394
					V187.374c-10.026-6.469-16.388-17.423-16.854-29.396c-0.557-14.328,7.352-27.765,20.147-34.23
					c1.86-0.939,4.075-0.848,5.85,0.245c1.775,1.092,2.856,3.026,2.856,5.11v13.591c0,4.315,3.511,7.826,7.827,7.826
					s7.827-3.511,7.827-7.826v-13.591c0-2.084,1.081-4.019,2.856-5.11c1.774-1.094,3.99-1.186,5.85-0.245
					c12.445,6.29,20.176,18.847,20.176,32.772c0,12.656-6.382,24.182-16.882,30.9v103.058c10.5,6.718,16.882,18.243,16.882,30.9
					c0,13.926-7.73,26.482-20.176,32.772C271.681,354.581,270.753,354.795,269.827,354.795z M256,315.378
					c10.933,0,19.827,8.895,19.827,19.827v0.942c3.121-4.181,4.882-9.319,4.882-14.77c0-9.379-5.206-17.835-13.587-22.068
					c-2.021-1.021-3.295-3.092-3.295-5.355V183.943c0-2.264,1.273-4.334,3.294-5.355c8.382-4.234,13.588-12.69,13.588-22.068
					c0-5.45-1.761-10.589-4.882-14.77v0.943c0,10.933-8.895,19.826-19.827,19.826s-19.827-8.894-19.827-19.826v-0.886
					c-3.296,4.45-5.085,9.971-4.862,15.703c0.346,8.895,5.551,16.962,13.586,21.056c2.011,1.023,3.276,3.089,3.276,5.346v110.073
					c0,2.257-1.266,4.322-3.276,5.347c-8.034,4.092-13.239,12.159-13.586,21.052c-0.224,5.733,1.565,11.256,4.862,15.706v-0.885
					C236.173,324.272,245.067,315.378,256,315.378z"/>
			</g>
		</g>
	</g>
</g>
</svg>
