<?xml version="1.0" encoding="utf-8"?>
<!-- Generator: Adobe Illustrator 22.1.0, SVG Export Plug-In . SVG Version: 6.00 Build 0)  -->
<svg version="1.1" id="Icon_Set" xmlns="http://www.w3.org/2000/svg" xmlns:xlink="http://www.w3.org/1999/xlink" x="0px" y="0px"
	 viewBox="0 0 512 512" style="enable-background:new 0 0 512 512;" xml:space="preserve">
<style type="text/css">
	.st0{fill:#F0C48A;}
	.st1{fill:#D3E6F8;}
	.st2{fill:#4C4372;}
	.st3{fill:#FD919E;}
	.st4{fill:#E8677D;}
	.st5{fill:#FFFFFF;}
	.st6{fill:#A4CFF2;}
	.st7{fill:#7BABF1;}
</style>
<g id="Technical_Tools">
	<g>
		<g>
			<circle class="st0" cx="256" cy="256" r="207"/>
		</g>
	</g>
	<g>
		<g>
			<g>
				<path class="st1" d="M211.454,330.461l119.007-119.007c16.305,5.359,34.963,1.562,47.928-11.404
					c12.965-12.965,16.755-31.617,11.397-47.921l-14.702,14.702c-8.261,8.261-21.654,8.261-29.915,0
					c-8.261-8.261-8.261-21.654,0-29.915l14.702-14.702c-16.856-5.54-36.224-1.3-49.22,12.747
					c-11.836,12.794-15.19,30.795-10.071,46.544L181.505,300.58c-15.747-5.118-33.746-1.766-46.54,10.068
					c-14.05,12.995-18.29,32.365-12.751,49.223l14.701-14.701c8.261-8.261,21.655-8.261,29.915-0.001
					c8.261,8.261,8.26,21.655-0.001,29.915l-14.701,14.701c16.304,5.358,34.957,1.567,47.921-11.397
					C213.015,365.424,216.814,346.766,211.454,330.461z"/>
			</g>
			<g>
				<path class="st2" d="M166.938,398.171c-5.564,0.001-11.188-0.879-16.683-2.685c-1.98-0.65-3.48-2.282-3.963-4.31
					c-0.483-2.027,0.12-4.159,1.594-5.633l14.701-14.701c5.908-5.909,5.908-15.522,0-21.431c-2.862-2.861-6.667-4.438-10.715-4.438
					c-4.047,0-7.853,1.576-10.715,4.438l-14.701,14.701c-1.473,1.475-3.607,2.078-5.634,1.595c-2.027-0.483-3.659-1.984-4.309-3.964
					c-6.46-19.661-0.817-41.447,14.377-55.501c13.113-12.13,31.539-16.724,48.869-12.402L293.84,179.76
					c-4.324-17.332,0.275-35.76,12.406-48.873c14.055-15.191,35.84-20.83,55.498-14.373c1.98,0.65,3.48,2.282,3.963,4.31
					c0.483,2.027-0.12,4.159-1.594,5.633l-14.702,14.702c-2.862,2.862-4.438,6.668-4.438,10.715c0,4.048,1.576,7.854,4.438,10.716
					c2.862,2.861,6.667,4.438,10.714,4.438c4.048,0,7.853-1.576,10.715-4.438l14.702-14.702c1.474-1.474,3.609-2.073,5.633-1.595
					c2.027,0.483,3.659,1.983,4.31,3.964c6.283,19.119,1.357,39.825-12.854,54.037c-13.327,13.326-32.359,18.489-50.435,13.91
					L218.203,332.196c4.583,18.078-0.583,37.107-13.911,50.436C194.165,392.76,180.738,398.171,166.938,398.171z M164.318,386.082
					c11.575,0.731,23.023-3.469,31.489-11.936c10.999-10.998,14.81-27.02,9.947-41.812c-0.707-2.15-0.144-4.516,1.457-6.116
					l119.007-119.007c1.601-1.601,3.966-2.165,6.116-1.458c14.794,4.864,30.814,1.052,41.812-9.946
					c8.467-8.466,12.671-19.915,11.936-31.489l-6.755,6.755c-5.128,5.129-11.947,7.953-19.2,7.953s-14.071-2.824-19.2-7.953
					c-5.128-5.128-7.953-11.946-7.953-19.199s2.824-14.072,7.953-19.2l6.729-6.729c-12.095-0.71-24.151,3.959-32.6,13.091
					c-10.028,10.84-13.388,26.403-8.77,40.616c0.698,2.146,0.132,4.502-1.463,6.097L185.748,304.822
					c-1.596,1.597-3.951,2.162-6.097,1.464c-14.211-4.618-29.772-1.26-40.612,8.766c-9.134,8.449-13.808,20.509-13.094,32.604
					l6.728-6.728c10.587-10.586,27.814-10.588,38.401,0c10.586,10.586,10.586,27.812,0,38.399L164.318,386.082z"/>
			</g>
		</g>
		<g>
			<g>
				<g>
					
						<rect x="124.055" y="178.431" transform="matrix(0.7071 -0.7071 0.7071 0.7071 -110.0579 166.9833)" class="st7" width="44.966" height="75.824"/>
				</g>
				<g>
					<polygon class="st7" points="266.768,134.398 181.578,219.588 143.293,181.303 198.636,125.96 251.586,119.216 					"/>
				</g>
			</g>
			<g>
				<path class="st3" d="M402.28,386.895L402.28,386.895c-7.851,7.851-20.58,7.851-28.431,0L194.059,207.106l28.431-28.431
					L402.28,358.464C410.131,366.315,410.131,379.044,402.28,386.895z"/>
			</g>
			<g>
				<g>
					<path class="st2" d="M157.448,265.049c-1.591,0-3.117-0.632-4.243-1.758l-53.616-53.615c-2.343-2.343-2.343-6.142,0-8.484
						l31.795-31.796c1.125-1.126,2.651-1.758,4.243-1.758s3.117,0.632,4.243,1.758l53.616,53.615c2.343,2.343,2.343,6.142,0,8.484
						l-31.795,31.796C160.565,264.417,159.039,265.049,157.448,265.049z M112.317,205.434l45.13,45.13l23.31-23.311l-45.13-45.13
						L112.317,205.434z"/>
				</g>
				<g>
					<path class="st2" d="M181.578,225.588c-1.591,0-3.118-0.632-4.243-1.758l-38.285-38.285c-2.343-2.343-2.343-6.142,0-8.484
						l55.343-55.343c0.94-0.94,2.166-1.542,3.485-1.71l52.95-6.743c1.841-0.23,3.688,0.397,5,1.71l15.182,15.182
						c1.125,1.125,1.757,2.651,1.757,4.242c0,1.592-0.632,3.117-1.757,4.242l-85.19,85.189
						C184.695,224.956,183.169,225.588,181.578,225.588z M151.778,181.303l29.799,29.8l76.705-76.704l-8.858-8.857l-47.996,6.111
						L151.778,181.303z"/>
				</g>
			</g>
			<g>
				<path class="st2" d="M388.064,398.771c-6.685,0-13.37-2.545-18.458-7.633l-179.79-179.79c-1.125-1.125-1.757-2.651-1.757-4.242
					s0.632-3.117,1.757-4.242l28.432-28.432c2.343-2.344,6.143-2.344,8.485,0l179.789,179.789c10.177,10.178,10.177,26.738,0,36.916
					v0.001C401.434,396.227,394.749,398.771,388.064,398.771z M402.28,386.896h0.01H402.28z M202.544,207.106l175.547,175.547
					c5.499,5.499,14.446,5.498,19.946-0.001c5.499-5.499,5.499-14.446,0-19.946L222.491,187.16L202.544,207.106z"/>
			</g>
		</g>
	</g>
</g>
</svg>
