<?xml version="1.0" encoding="utf-8"?>
<!-- Generator: Adobe Illustrator 22.1.0, SVG Export Plug-In . SVG Version: 6.00 Build 0)  -->
<svg version="1.1" id="Icon_Set" xmlns="http://www.w3.org/2000/svg" xmlns:xlink="http://www.w3.org/1999/xlink" x="0px" y="0px"
	 viewBox="0 0 512 512" style="enable-background:new 0 0 512 512;" xml:space="preserve">
<style type="text/css">
	.st0{fill:#F0C48A;}
	.st1{fill:#D3E6F8;}
	.st2{fill:#4C4372;}
	.st3{fill:#FD919E;}
	.st4{fill:#E8677D;}
	.st5{fill:#FFFFFF;}
	.st6{fill:#A4CFF2;}
	.st7{fill:#7BABF1;}
</style>
<g id="Unlimited_Storage">
	<g>
		<g>
			<circle class="st0" cx="256" cy="256" r="207"/>
		</g>
	</g>
	<g>
		<g>
			<g>
				<path class="st1" d="M349.053,346.466c27.461,0,49.722-22.261,49.722-49.722c0-27.42-22.197-49.654-49.602-49.719
					c-4.506-45.749-43.09-81.491-90.024-81.491c-40.203,0-74.275,26.227-86.055,62.503c-0.216-0.002-0.43-0.016-0.647-0.016
					c-32.708,0-59.223,26.515-59.223,59.223s26.515,59.223,59.223,59.223H349.053z"/>
			</g>
			<g>
				<path class="st2" d="M349.053,352.466H172.448c-35.964,0-65.223-29.259-65.223-65.223c0-34.741,27.306-63.226,61.582-65.122
					c14.067-37.612,49.844-62.587,90.343-62.587c24.098,0,47.169,8.934,64.964,25.155c16.388,14.938,27.055,34.88,30.383,56.601
					c28.17,2.748,50.278,26.594,50.278,55.454C404.775,327.469,379.778,352.466,349.053,352.466z M172.439,234.021
					c-29.338,0-53.214,23.876-53.214,53.223s23.876,53.223,53.223,53.223h176.604c24.108,0,43.722-19.613,43.722-43.722
					c0-24.049-19.566-43.661-43.616-43.719c-3.081-0.008-5.655-2.347-5.957-5.412c-2.043-20.748-11.693-39.946-27.172-54.056
					c-15.58-14.202-35.781-22.023-56.88-22.023c-36.724,0-69.014,23.451-80.348,58.356c-0.803,2.474-3.109,4.146-5.706,4.146
					c-0.019,0-0.036,0-0.055,0c-0.156-0.002-0.31-0.007-0.465-0.013L172.439,234.021z"/>
			</g>
		</g>
		<g>
			<g>
				<path class="st2" d="M227.631,317.738c-18.951,0-34.369-15.418-34.369-34.369S208.68,249,227.631,249
					c7.066,0,13.855,2.129,19.635,6.158c2.718,1.895,3.386,5.635,1.491,8.353c-1.895,2.719-5.633,3.388-8.354,1.491
					c-3.756-2.618-8.173-4.002-12.772-4.002c-12.334,0-22.369,10.035-22.369,22.369s10.035,22.369,22.369,22.369
					S250,295.703,250,283.369c0-3.313,2.687-6,6-6s6,2.687,6,6C262,302.32,246.582,317.738,227.631,317.738z"/>
			</g>
			<g>
				<path class="st2" d="M284.369,317.738c-7.302,0-14.276-2.261-20.168-6.536c-2.682-1.946-3.278-5.698-1.332-8.381
					c1.946-2.681,5.698-3.278,8.38-1.332c3.83,2.78,8.367,4.249,13.12,4.249c12.334,0,22.369-10.035,22.369-22.369
					S296.704,261,284.369,261S262,271.035,262,283.369c0,3.313-2.687,6-6,6s-6-2.687-6-6C250,264.418,265.418,249,284.369,249
					s34.369,15.418,34.369,34.369S303.32,317.738,284.369,317.738z"/>
			</g>
		</g>
		<g>
			<g>
				<polygon class="st7" points="415.421,299.228 415.421,244.656 382.129,244.656 382.129,299.228 363.554,299.228 
					381.164,322.847 398.775,346.466 416.385,322.847 433.995,299.228 				"/>
			</g>
			<g>
				<path class="st2" d="M398.775,352.466c-1.895,0-3.678-0.895-4.81-2.414l-35.221-47.238c-1.357-1.819-1.571-4.248-0.553-6.276
					c1.018-2.029,3.093-3.31,5.363-3.31h12.574v-48.571c0-3.313,2.687-6,6-6h33.292c3.313,0,6,2.687,6,6v48.571h12.575
					c2.27,0,4.345,1.28,5.363,3.31c1.018,2.028,0.804,4.457-0.553,6.276l-35.221,47.238
					C402.453,351.571,400.669,352.466,398.775,352.466z M375.512,305.228l23.263,31.2l23.263-31.2h-6.617c-3.313,0-6-2.687-6-6
					v-48.571h-21.292v48.571c0,3.313-2.687,6-6,6H375.512z"/>
			</g>
		</g>
		<g>
			<g>
				<polygon class="st3" points="96.579,291.895 96.579,346.466 129.871,346.466 129.871,291.895 148.446,291.895 130.836,268.275 
					113.225,244.656 95.615,268.275 78.005,291.895 				"/>
			</g>
			<g>
				<path class="st2" d="M129.872,352.466H96.579c-3.313,0-6-2.687-6-6v-48.571H78.004c-2.27,0-4.345-1.28-5.363-3.31
					c-1.018-2.028-0.804-4.457,0.553-6.277l35.221-47.237c1.132-1.52,2.916-2.414,4.81-2.414s3.678,0.895,4.81,2.414l35.221,47.237
					c1.357,1.82,1.571,4.249,0.553,6.277c-1.018,2.029-3.093,3.31-5.363,3.31h-12.574v48.571
					C135.872,349.779,133.185,352.466,129.872,352.466z M102.579,340.466h21.292v-48.571c0-3.313,2.687-6,6-6h6.616l-23.263-31.2
					l-23.263,31.2h6.617c3.313,0,6,2.687,6,6V340.466z"/>
			</g>
		</g>
	</g>
</g>
</svg>
