<?xml version="1.0" encoding="utf-8"?>
<!-- Generator: Adobe Illustrator 22.1.0, SVG Export Plug-In . SVG Version: 6.00 Build 0)  -->
<svg version="1.1" id="Icon_Set" xmlns="http://www.w3.org/2000/svg" xmlns:xlink="http://www.w3.org/1999/xlink" x="0px" y="0px"
	 viewBox="0 0 512 512" style="enable-background:new 0 0 512 512;" xml:space="preserve">
<style type="text/css">
	.st0{fill:#F0C48A;}
	.st1{fill:#D3E6F8;}
	.st2{fill:#4C4372;}
	.st3{fill:#FD919E;}
	.st4{fill:#E8677D;}
	.st5{fill:#FFFFFF;}
	.st6{fill:#A4CFF2;}
	.st7{fill:#7BABF1;}
</style>
<g id="Unstructured_Information">
	<g>
		<g>
			<circle class="st0" cx="256" cy="256" r="207"/>
		</g>
	</g>
	<g>
		<g>
			<path class="st5" d="M285.746,119.086H166.204c-9.04,0-16.368,7.328-16.368,16.368v216.021c0,9.04,7.328,16.368,16.368,16.368
				h152.597c9.04,0,16.368-7.328,16.368-16.368V168.509L285.746,119.086z"/>
		</g>
		<g>
			<path class="st1" d="M310.457,367.843h8.344c9.04,0,16.368-7.328,16.368-16.368V168.509l-24.712-24.711V367.843z"/>
		</g>
		<g>
			<polygon class="st7" points="335.169,168.509 285.746,168.509 285.746,119.086 			"/>
		</g>
		<g>
			<path class="st2" d="M335.169,174.509h-49.423c-3.313,0-6-2.687-6-6v-49.423c0-2.427,1.462-4.615,3.704-5.543
				c2.239-0.927,4.822-0.417,6.538,1.301l49.423,49.423c1.717,1.716,2.229,4.297,1.301,6.539
				C339.783,173.047,337.596,174.509,335.169,174.509z M291.746,162.509h28.938l-28.938-28.938V162.509z"/>
		</g>
		<g>
			<path class="st2" d="M318.801,373.843H166.204c-12.334,0-22.368-10.034-22.368-22.368V135.454
				c0-12.334,10.034-22.368,22.368-22.368h119.542c1.591,0,3.117,0.632,4.242,1.757l49.424,49.423
				c1.125,1.125,1.757,2.651,1.757,4.243v182.966C341.169,363.809,331.135,373.843,318.801,373.843z M166.204,125.086
				c-5.717,0-10.368,4.651-10.368,10.368v216.021c0,5.717,4.651,10.368,10.368,10.368h152.597c5.717,0,10.368-4.651,10.368-10.368
				v-180.48l-45.908-45.909H166.204z"/>
		</g>
		<g>
			<path class="st2" d="M285.413,193.83h-85.821c-3.313,0-6-2.687-6-6s2.687-6,6-6h85.821c3.313,0,6,2.687,6,6
				S288.727,193.83,285.413,193.83z"/>
		</g>
		<g>
			<path class="st2" d="M302.852,228.048H182.153c-3.313,0-6-2.687-6-6s2.687-6,6-6h120.698c3.313,0,6,2.687,6,6
				S306.165,228.048,302.852,228.048z"/>
		</g>
		<g>
			<path class="st2" d="M302.852,262.267H182.153c-3.313,0-6-2.687-6-6s2.687-6,6-6h120.698c3.313,0,6,2.687,6,6
				S306.165,262.267,302.852,262.267z"/>
		</g>
		<g>
			<path class="st2" d="M302.852,296.484H182.153c-3.313,0-6-2.687-6-6s2.687-6,6-6h120.698c3.313,0,6,2.687,6,6
				S306.165,296.484,302.852,296.484z"/>
		</g>
		<g>
			<path class="st2" d="M302.852,330.703H182.153c-3.313,0-6-2.687-6-6s2.687-6,6-6h120.698c3.313,0,6,2.687,6,6
				S306.165,330.703,302.852,330.703z"/>
		</g>
		<g>
			<g>
				<path class="st3" d="M187.767,294.364h-75.862c-6.503,0-11.776-5.272-11.776-11.776v-53.535c0-6.503,5.272-11.776,11.776-11.776
					h75.862c6.503,0,11.776,5.272,11.776,11.776v53.535C199.543,289.092,194.271,294.364,187.767,294.364z"/>
			</g>
			<g>
				<path class="st2" d="M187.767,300.364h-75.862c-9.801,0-17.775-7.974-17.775-17.775v-53.536c0-9.801,7.974-17.775,17.775-17.775
					h75.862c9.801,0,17.775,7.974,17.775,17.775v53.536C205.542,292.39,197.568,300.364,187.767,300.364z M111.905,223.277
					c-3.185,0-5.775,2.591-5.775,5.775v53.536c0,3.185,2.591,5.775,5.775,5.775h75.862c3.185,0,5.775-2.591,5.775-5.775v-53.536
					c0-3.185-2.591-5.775-5.775-5.775H111.905z"/>
			</g>
			<g>
				<polygon class="st5" points="135.366,255.821 135.366,233.064 155.074,244.442 174.782,255.821 155.074,267.199 
					135.366,278.577 				"/>
			</g>
			<g>
				<path class="st2" d="M135.366,284.578c-1.036,0-2.072-0.268-3-0.804c-1.856-1.072-3-3.053-3-5.196v-45.514
					c0-2.144,1.144-4.125,3-5.196c1.856-1.071,4.144-1.071,6,0l39.416,22.757c1.856,1.072,3,3.053,3,5.196s-1.144,4.125-3,5.196
					l-39.416,22.757C137.438,284.31,136.402,284.578,135.366,284.578z M141.366,243.456v24.729l21.416-12.365L141.366,243.456z"/>
			</g>
		</g>
		<g>
			<g>
				<rect x="258.467" y="290.485" class="st5" width="153.403" height="102.429"/>
			</g>
			<g>
				<rect x="390.85" y="290.485" class="st1" width="21.021" height="102.429"/>
			</g>
			<g>
				<polygon class="st6" points="386.969,364.781 362.067,336.649 337.165,364.781 322.685,381.139 314.447,371.833 
					295.787,350.753 277.127,371.833 258.467,392.914 295.787,392.914 312.263,392.914 333.107,392.914 362.067,392.914 
					411.871,392.914 				"/>
			</g>
			<g>
				<circle class="st3" cx="321.381" cy="323.915" r="13.788"/>
			</g>
			<g>
				<path class="st2" d="M411.871,398.914H258.467c-3.313,0-6-2.687-6-6V290.484c0-3.314,2.687-6,6-6h153.404c3.313,0,6,2.686,6,6
					v102.429C417.871,396.227,415.185,398.914,411.871,398.914z M264.467,386.914h141.404v-90.429H264.467V386.914z"/>
			</g>
			<g>
				<path class="st2" d="M411.871,398.914H258.467c-2.36,0-4.501-1.384-5.471-3.536s-0.586-4.673,0.978-6.441l37.321-42.161
					c1.139-1.286,2.774-2.023,4.492-2.023s3.354,0.737,4.492,2.023l22.405,25.311l34.889-39.415c1.14-1.286,2.775-2.023,4.493-2.023
					s3.354,0.736,4.492,2.023l24.902,28.132c0.001,0,0.001,0,0.001,0l24.902,28.133c1.564,1.768,1.947,4.289,0.978,6.441
					C416.373,397.53,414.231,398.914,411.871,398.914z M324.312,386.914h74.234l-36.48-41.212l-34.89,39.415
					C326.407,385.986,325.409,386.605,324.312,386.914z M271.791,386.914h49.266c-1.097-0.309-2.095-0.928-2.865-1.798
					l-22.404-25.311L271.791,386.914z"/>
			</g>
			<g>
				<path class="st2" d="M321.381,343.703c-10.911,0-19.788-8.877-19.788-19.788s8.877-19.788,19.788-19.788
					s19.788,8.876,19.788,19.788S332.292,343.703,321.381,343.703z M321.381,316.127c-4.294,0-7.788,3.494-7.788,7.788
					c0,4.294,3.494,7.788,7.788,7.788s7.788-3.494,7.788-7.788C329.169,319.621,325.675,316.127,321.381,316.127z"/>
			</g>
		</g>
	</g>
</g>
</svg>
