<?xml version="1.0" encoding="utf-8"?>
<!-- Generator: Adobe Illustrator 22.1.0, SVG Export Plug-In . SVG Version: 6.00 Build 0)  -->
<svg version="1.1" id="Icon_Set" xmlns="http://www.w3.org/2000/svg" xmlns:xlink="http://www.w3.org/1999/xlink" x="0px" y="0px"
	 viewBox="0 0 512 512" style="enable-background:new 0 0 512 512;" xml:space="preserve">
<style type="text/css">
	.st0{fill:#F0C48A;}
	.st1{fill:#D3E6F8;}
	.st2{fill:#4C4372;}
	.st3{fill:#FD919E;}
	.st4{fill:#E8677D;}
	.st5{fill:#FFFFFF;}
	.st6{fill:#A4CFF2;}
	.st7{fill:#7BABF1;}
</style>
<g id="Upload">
	<g>
		<g>
			<circle class="st0" cx="256" cy="256" r="207"/>
		</g>
	</g>
	<g>
		<g>
			<g>
				<path class="st7" d="M199.794,150.348L188.7,122.863h-73.676c-12.254,0-22.187,9.934-22.187,22.187v133.498h282.786V172.536
					c0-12.254-9.934-22.187-22.187-22.187H199.794z"/>
			</g>
			<g>
				<path class="st2" d="M375.623,284.548H92.836c-3.313,0-6-2.687-6-6V145.05c0-15.543,12.645-28.188,28.188-28.188H188.7
					c2.447,0,4.648,1.485,5.564,3.754l9.579,23.732h149.593c15.543,0,28.188,12.645,28.188,28.188v106.012
					C381.623,281.861,378.937,284.548,375.623,284.548z M98.836,272.548h270.787V172.536c0-8.926-7.262-16.188-16.188-16.188
					H199.794c-2.447,0-4.648-1.485-5.564-3.754l-9.579-23.732h-69.627c-8.926,0-16.188,7.262-16.188,16.188V272.548z"/>
			</g>
			<g>
				<path class="st1" d="M353.435,364.211H115.024c-12.254,0-22.187-9.934-22.187-22.187V215.073
					c0-12.254,9.934-22.187,22.187-22.187h238.412c12.254,0,22.187,9.934,22.187,22.187v126.951
					C375.623,354.277,365.689,364.211,353.435,364.211z"/>
			</g>
			<g>
				<path class="st6" d="M353.435,192.885h-13.461v171.326h13.461c12.254,0,22.187-9.934,22.187-22.187V215.073
					C375.623,202.819,365.689,192.885,353.435,192.885z"/>
			</g>
			<g>
				<path class="st2" d="M353.436,370.211H115.024c-15.542,0-28.188-12.645-28.188-28.188V215.072
					c0-15.542,12.645-28.187,28.188-28.187h238.412c15.543,0,28.188,12.645,28.188,28.187v126.951
					C381.623,357.566,368.979,370.211,353.436,370.211z M115.024,198.886c-8.926,0-16.188,7.262-16.188,16.187v126.951
					c0,8.926,7.262,16.188,16.188,16.188h238.412c8.926,0,16.188-7.262,16.188-16.188V215.072c0-8.925-7.262-16.187-16.188-16.187
					H115.024z"/>
			</g>
		</g>
		<g>
			<g>
				<polygon class="st3" points="355.397,322.046 355.397,389.137 396.327,389.137 396.327,322.046 419.164,322.046 
					397.513,293.007 375.862,263.969 354.212,293.007 332.561,322.046 				"/>
			</g>
			<g>
				<path class="st2" d="M396.327,395.138h-40.93c-3.313,0-6-2.687-6-6v-61.092h-16.836c-2.27,0-4.345-1.28-5.362-3.31
					c-1.019-2.028-0.805-4.457,0.552-6.276l43.301-58.076c1.133-1.52,2.916-2.414,4.811-2.414s3.678,0.895,4.811,2.414
					l43.302,58.075c1.356,1.82,1.57,4.249,0.552,6.277c-1.018,2.029-3.093,3.31-5.362,3.31h-16.837v61.092
					C402.327,392.451,399.641,395.138,396.327,395.138z M361.397,383.138h28.93v-61.092c0-3.313,2.687-6,6-6h10.879l-31.344-42.038
					l-31.343,42.038h10.878c3.313,0,6,2.687,6,6V383.138z"/>
			</g>
		</g>
	</g>
</g>
</svg>
