<?xml version="1.0" encoding="utf-8"?>
<!-- Generator: Adobe Illustrator 22.1.0, SVG Export Plug-In . SVG Version: 6.00 Build 0)  -->
<svg version="1.1" id="Icon_Set" xmlns="http://www.w3.org/2000/svg" xmlns:xlink="http://www.w3.org/1999/xlink" x="0px" y="0px"
	 viewBox="0 0 512 512" style="enable-background:new 0 0 512 512;" xml:space="preserve">
<style type="text/css">
	.st0{fill:#F0C48A;}
	.st1{fill:#D3E6F8;}
	.st2{fill:#4C4372;}
	.st3{fill:#FD919E;}
	.st4{fill:#E8677D;}
	.st5{fill:#FFFFFF;}
	.st6{fill:#A4CFF2;}
	.st7{fill:#7BABF1;}
</style>
<g id="Web_Monitoring">
	<g>
		<g>
			<circle class="st0" cx="256" cy="256" r="207"/>
		</g>
	</g>
	<g>
		<g>
			<g>
				<path class="st5" d="M386.618,383.123H125.382c-8.37,0-15.154-6.785-15.154-15.154V144.031c0-8.37,6.785-15.154,15.154-15.154
					h261.236c8.37,0,15.154,6.785,15.154,15.154v223.937C401.772,376.338,394.987,383.123,386.618,383.123z"/>
			</g>
			<g>
				<path class="st1" d="M386.618,128.877h-16.832v254.246h16.832c8.37,0,15.155-6.785,15.155-15.154V144.031
					C401.772,135.662,394.988,128.877,386.618,128.877z"/>
			</g>
			<g>
				<path class="st6" d="M386.618,128.877H125.382c-8.37,0-15.155,6.785-15.155,15.154v35.239h291.545v-35.239
					C401.772,135.662,394.988,128.877,386.618,128.877z"/>
			</g>
			<g>
				<path class="st7" d="M386.618,128.877h-16.832v50.393h31.987v-35.239C401.772,135.662,394.988,128.877,386.618,128.877z"/>
			</g>
			<g>
				<path class="st2" d="M386.618,389.123H125.382c-11.664,0-21.154-9.49-21.154-21.154V144.031c0-11.664,9.49-21.154,21.154-21.154
					h261.236c11.664,0,21.154,9.49,21.154,21.154v223.938C407.772,379.633,398.282,389.123,386.618,389.123z M125.382,134.877
					c-5.048,0-9.154,4.106-9.154,9.154v223.938c0,5.048,4.106,9.154,9.154,9.154h261.236c5.048,0,9.154-4.106,9.154-9.154V144.031
					c0-5.048-4.106-9.154-9.154-9.154H125.382z"/>
			</g>
			<g>
				<path class="st2" d="M401.772,185.271H110.228c-3.313,0-6-2.687-6-6v-35.239c0-11.664,9.49-21.154,21.154-21.154h261.236
					c11.664,0,21.154,9.49,21.154,21.154v35.239C407.772,182.584,405.086,185.271,401.772,185.271z M116.228,173.271h279.545
					v-29.239c0-5.048-4.106-9.154-9.154-9.154H125.382c-5.048,0-9.154,4.106-9.154,9.154V173.271z"/>
			</g>
			<g>
				<circle class="st2" cx="140.735" cy="153.986" r="8.644"/>
			</g>
			<g>
				<circle class="st2" cx="165.818" cy="153.986" r="8.644"/>
			</g>
			<g>
				<circle class="st2" cx="190.901" cy="153.986" r="8.644"/>
			</g>
		</g>
		<g>
			<g>
				<circle class="st7" cx="256" cy="278.106" r="53.73"/>
			</g>
			<g>
				<circle class="st3" cx="256" cy="278.106" r="25.281"/>
			</g>
			<g>
				<path class="st2" d="M256,337.837c-40.377,0-78.034-21.736-98.275-56.726c-1.075-1.859-1.075-4.15,0-6.01
					c20.241-34.989,57.898-56.726,98.275-56.726s78.034,21.736,98.275,56.726c1.075,1.859,1.075,4.15,0,6.01
					C334.034,316.101,296.377,337.837,256,337.837z M169.92,278.106c18.48,29.529,51.143,47.73,86.08,47.73s67.6-18.201,86.08-47.73
					c-18.48-29.529-51.143-47.73-86.08-47.73S188.4,248.577,169.92,278.106z"/>
			</g>
			<g>
				<path class="st2" d="M256,337.837c-32.936,0-59.73-26.795-59.73-59.73s26.795-59.73,59.73-59.73s59.73,26.795,59.73,59.73
					S288.936,337.837,256,337.837z M256,230.376c-26.318,0-47.73,21.412-47.73,47.73s21.412,47.73,47.73,47.73
					s47.73-21.412,47.73-47.73S282.318,230.376,256,230.376z"/>
			</g>
			<g>
				<path class="st2" d="M256,309.387c-17.248,0-31.28-14.032-31.28-31.28c0-17.249,14.032-31.281,31.28-31.281
					s31.28,14.032,31.28,31.281C287.28,295.354,273.248,309.387,256,309.387z M256,258.825c-10.631,0-19.28,8.649-19.28,19.281
					c0,10.631,8.649,19.28,19.28,19.28s19.28-8.649,19.28-19.28C275.28,267.475,266.631,258.825,256,258.825z"/>
			</g>
		</g>
	</g>
</g>
</svg>
