<?xml version="1.0" encoding="utf-8"?>
<!-- Generator: Adobe Illustrator 22.1.0, SVG Export Plug-In . SVG Version: 6.00 Build 0)  -->
<svg version="1.1" id="Icon_Set" xmlns="http://www.w3.org/2000/svg" xmlns:xlink="http://www.w3.org/1999/xlink" x="0px" y="0px"
	 viewBox="0 0 512 512" style="enable-background:new 0 0 512 512;" xml:space="preserve">
<style type="text/css">
	.st0{fill:#F0C48A;}
	.st1{fill:#D3E6F8;}
	.st2{fill:#4C4372;}
	.st3{fill:#FD919E;}
	.st4{fill:#E8677D;}
	.st5{fill:#FFFFFF;}
	.st6{fill:#A4CFF2;}
	.st7{fill:#7BABF1;}
</style>
<g id="Web_Design">
	<g>
		<g>
			<circle class="st0" cx="256" cy="256" r="207"/>
		</g>
	</g>
	<g>
		<g>
			<g>
				<path class="st5" d="M386.618,383.123H125.382c-8.37,0-15.154-6.785-15.154-15.154V144.031c0-8.37,6.785-15.154,15.154-15.154
					h261.236c8.37,0,15.154,6.785,15.154,15.154v223.937C401.772,376.338,394.987,383.123,386.618,383.123z"/>
			</g>
			<g>
				<path class="st1" d="M386.618,128.877h-16.832v254.246h16.832c8.37,0,15.155-6.785,15.155-15.154V144.031
					C401.772,135.662,394.988,128.877,386.618,128.877z"/>
			</g>
			<g>
				<path class="st6" d="M386.618,128.877H125.382c-8.37,0-15.155,6.785-15.155,15.154v35.239h291.545v-35.239
					C401.772,135.662,394.988,128.877,386.618,128.877z"/>
			</g>
			<g>
				<path class="st7" d="M386.618,128.877h-16.832v50.393h31.987v-35.239C401.772,135.662,394.988,128.877,386.618,128.877z"/>
			</g>
			<g>
				<path class="st2" d="M386.618,389.123H125.382c-11.665,0-21.154-9.49-21.154-21.154V144.031c0-11.664,9.49-21.154,21.154-21.154
					h261.236c11.664,0,21.154,9.49,21.154,21.154v223.938C407.772,379.633,398.282,389.123,386.618,389.123z M125.382,134.877
					c-5.048,0-9.154,4.106-9.154,9.154v223.938c0,5.048,4.106,9.154,9.154,9.154h261.236c5.048,0,9.154-4.106,9.154-9.154V144.031
					c0-5.048-4.106-9.154-9.154-9.154H125.382z"/>
			</g>
			<g>
				<path class="st2" d="M401.772,185.271H110.228c-3.313,0-6-2.687-6-6v-35.239c0-11.664,9.49-21.154,21.155-21.154h261.236
					c11.664,0,21.154,9.49,21.154,21.154v35.239C407.772,182.584,405.086,185.271,401.772,185.271z M116.228,173.271h279.545
					v-29.239c0-5.048-4.106-9.154-9.154-9.154H125.382c-5.048,0-9.155,4.106-9.155,9.154V173.271z"/>
			</g>
			<g>
				<circle class="st2" cx="140.735" cy="153.986" r="8.644"/>
			</g>
			<g>
				<circle class="st2" cx="165.818" cy="153.986" r="8.644"/>
			</g>
			<g>
				<circle class="st2" cx="190.901" cy="153.986" r="8.644"/>
			</g>
		</g>
		<g>
			<g>
				<path class="st3" d="M225.442,332.001l-19.475-19.475l105.917-105.917c5.378-5.378,14.097-5.378,19.475,0l0,0
					c5.378,5.378,5.378,14.097,0,19.475L225.442,332.001z"/>
			</g>
			<g>
				<path class="st2" d="M225.442,338.001c-1.536,0-3.071-0.586-4.243-1.758l-19.475-19.475c-2.343-2.343-2.343-6.142,0-8.484
					l105.917-105.917c7.706-7.709,20.252-7.709,27.96,0c7.708,7.708,7.708,20.251,0.001,27.959L229.685,336.243
					C228.513,337.415,226.978,338.001,225.442,338.001z M214.453,312.526l10.989,10.989l101.675-101.674
					c3.028-3.03,3.028-7.96-0.001-10.99c-3.031-3.03-7.961-3.029-10.99,0L214.453,312.526z"/>
			</g>
			<g>
				<path class="st3" d="M222.541,315.427L222.541,315.427c11.787,11.787,6.394,31.913-9.707,36.227h0l-36.227,9.707l9.707-36.227
					l0,0C190.629,309.033,210.755,303.64,222.541,315.427L222.541,315.427z"/>
			</g>
			<g>
				<path class="st2" d="M176.608,367.36c-1.571,0-3.103-0.617-4.243-1.758c-1.516-1.516-2.108-3.725-1.553-5.795l9.707-36.227
					c2.587-9.657,9.898-16.967,19.555-19.555c9.657-2.589,19.641,0.089,26.71,7.158v-0.001c0,0.001,0,0.001,0,0.001
					c7.069,7.068,9.745,17.053,7.157,26.71c-2.587,9.656-9.897,16.967-19.554,19.555l-36.227,9.707
					C177.647,367.293,177.126,367.36,176.608,367.36z M207.301,315.07c-1.366,0-2.75,0.18-4.122,0.548
					c-5.466,1.464-9.604,5.603-11.069,11.068l-7.017,26.188l26.188-7.018c5.466-1.465,9.604-5.603,11.068-11.069
					c1.465-5.466-0.05-11.117-4.051-15.118v-0.001C215.302,316.673,211.378,315.07,207.301,315.07z"/>
			</g>
		</g>
	</g>
</g>
</svg>
