<?xml version="1.0" encoding="utf-8"?>
<!-- Generator: Adobe Illustrator 22.1.0, SVG Export Plug-In . SVG Version: 6.00 Build 0)  -->
<svg version="1.1" id="Icon_Set" xmlns="http://www.w3.org/2000/svg" xmlns:xlink="http://www.w3.org/1999/xlink" x="0px" y="0px"
	 viewBox="0 0 512 512" style="enable-background:new 0 0 512 512;" xml:space="preserve">
<style type="text/css">
	.st0{fill:#F0C48A;}
	.st1{fill:#D3E6F8;}
	.st2{fill:#4C4372;}
	.st3{fill:#FD919E;}
	.st4{fill:#E8677D;}
	.st5{fill:#FFFFFF;}
	.st6{fill:#A4CFF2;}
	.st7{fill:#7BABF1;}
</style>
<g id="Web_Browser">
	<g>
		<g>
			<circle class="st0" cx="256" cy="256" r="207"/>
		</g>
	</g>
	<g>
		<g>
			<g>
				<path class="st5" d="M386.618,378.123H125.382c-8.37,0-15.154-6.785-15.154-15.154V149.031c0-8.37,6.785-15.154,15.154-15.154
					h261.236c8.37,0,15.154,6.785,15.154,15.154v213.937C401.772,371.338,394.987,378.123,386.618,378.123z"/>
			</g>
			<g>
				<path class="st1" d="M386.618,133.877h-16.832v244.246h16.832c8.37,0,15.155-6.785,15.155-15.154V149.031
					C401.772,140.662,394.988,133.877,386.618,133.877z"/>
			</g>
			<g>
				<path class="st6" d="M386.618,133.877H125.382c-8.37,0-15.155,6.785-15.155,15.154v35.239h291.545v-35.239
					C401.772,140.662,394.988,133.877,386.618,133.877z"/>
			</g>
			<g>
				<path class="st7" d="M386.618,133.877h-16.832v50.393h31.987v-35.239C401.772,140.662,394.988,133.877,386.618,133.877z"/>
			</g>
			<g>
				<path class="st2" d="M386.618,384.123H125.382c-11.664,0-21.154-9.49-21.154-21.154V149.031c0-11.664,9.49-21.154,21.154-21.154
					h261.236c11.664,0,21.154,9.49,21.154,21.154v213.938C407.772,374.633,398.282,384.123,386.618,384.123z M125.382,139.877
					c-5.048,0-9.154,4.106-9.154,9.154v213.938c0,5.048,4.106,9.154,9.154,9.154h261.236c5.048,0,9.154-4.106,9.154-9.154V149.031
					c0-5.048-4.106-9.154-9.154-9.154H125.382z"/>
			</g>
			<g>
				<path class="st2" d="M401.772,190.271H110.228c-3.313,0-6-2.687-6-6v-35.239c0-11.664,9.49-21.154,21.154-21.154h261.236
					c11.664,0,21.154,9.49,21.154,21.154v35.239C407.772,187.584,405.086,190.271,401.772,190.271z M116.228,178.271h279.545
					v-29.239c0-5.048-4.106-9.154-9.154-9.154H125.382c-5.048,0-9.154,4.106-9.154,9.154V178.271z"/>
			</g>
			<g>
				<circle class="st2" cx="140.735" cy="158.986" r="8.644"/>
			</g>
			<g>
				<circle class="st2" cx="165.818" cy="158.986" r="8.644"/>
			</g>
			<g>
				<circle class="st2" cx="190.901" cy="158.986" r="8.644"/>
			</g>
		</g>
		<g>
			<g>
				<path class="st3" d="M332.632,317.264H179.368c-20.015,0-36.24-16.225-36.24-36.24v0c0-20.015,16.225-36.24,36.24-36.24h153.264
					c20.015,0,36.24,16.225,36.24,36.24v0C368.872,301.039,352.647,317.264,332.632,317.264z"/>
			</g>
			<g>
				<path class="st2" d="M225.682,268.42l-12.328,29.339c-0.051,0.151-0.151,0.353-0.252,0.452l-0.051,0.051
					c-0.051,0.102-0.15,0.201-0.252,0.303c0,0.1-0.05,0.1-0.05,0.15c-0.101,0.051-0.251,0.15-0.353,0.252h-0.05
					c-0.151,0.101-0.252,0.252-0.453,0.302h-0.05c0,0-0.051,0-0.051,0.05c-0.101,0-0.252,0.051-0.402,0.102
					c-0.051,0-0.102,0-0.102,0c-0.15,0.05-0.301,0.05-0.502,0.05c-0.152,0-0.303,0-0.453-0.05c-0.102,0-0.151,0-0.151,0
					c-0.151-0.051-0.251-0.102-0.353-0.102c-0.051-0.05-0.051-0.05-0.101-0.05c-0.201-0.05-0.353-0.201-0.452-0.302
					c-0.051,0-0.051,0-0.051,0c-0.15-0.102-0.252-0.201-0.353-0.252c-0.05-0.051-0.05-0.051-0.101-0.15
					c-0.051-0.102-0.15-0.201-0.201-0.303c-0.101,0-0.101-0.051-0.101-0.051c-0.101-0.1-0.151-0.301-0.202-0.452l-6.592-15.601
					l-6.592,15.601c-0.051,0.151-0.151,0.353-0.201,0.452c-0.051,0-0.051,0.051-0.051,0.051c-0.101,0.102-0.201,0.201-0.303,0.303
					c0,0.1-0.05,0.1-0.05,0.15c-0.101,0.051-0.201,0.15-0.302,0.252c-0.101,0-0.101,0-0.101,0c-0.151,0.101-0.302,0.252-0.403,0.302
					c-0.05,0-0.05,0-0.05,0s-0.05,0-0.05,0.05c-0.201,0-0.303,0.051-0.402,0.102c-0.051,0-0.102,0-0.151,0
					c-0.151,0.05-0.302,0.05-0.453,0.05s-0.353,0-0.503-0.05c-0.051,0-0.102,0-0.151,0c-0.151-0.051-0.251-0.102-0.353-0.102
					c-0.05-0.05-0.05-0.05-0.1-0.05c-0.152-0.05-0.354-0.201-0.453-0.302c-0.051,0-0.051,0-0.051,0
					c-0.15-0.102-0.201-0.201-0.352-0.252c-0.051-0.051-0.051-0.051-0.102-0.15c-0.101-0.102-0.15-0.201-0.252-0.303v-0.051
					c-0.1-0.1-0.15-0.301-0.251-0.452l-12.38-29.339c-0.553-1.358,0.051-3.02,1.51-3.572c1.359-0.604,3.02,0.05,3.573,1.459
					l9.863,23.3l6.491-15.449c0.453-1.107,1.51-1.712,2.617-1.712c1.057,0,2.113,0.604,2.617,1.712l6.492,15.449l9.812-23.3
					c0.604-1.409,2.215-2.063,3.674-1.459C225.632,265.4,226.286,267.062,225.682,268.42z"/>
				<path class="st2" d="M280.641,268.42l-12.33,29.339c-0.05,0.151-0.15,0.353-0.252,0.452l-0.05,0.051
					c-0.05,0.102-0.151,0.201-0.251,0.303c0,0.1-0.051,0.1-0.051,0.15c-0.101,0.051-0.252,0.15-0.352,0.252h-0.051
					c-0.151,0.101-0.252,0.252-0.453,0.302h-0.051c0,0-0.05,0-0.05,0.05c-0.101,0-0.251,0.051-0.403,0.102c-0.05,0-0.1,0-0.1,0
					c-0.151,0.05-0.303,0.05-0.504,0.05c-0.15,0-0.302,0-0.453-0.05c-0.1,0-0.15,0-0.15,0c-0.15-0.051-0.252-0.102-0.353-0.102
					c-0.05-0.05-0.05-0.05-0.101-0.05c-0.201-0.05-0.352-0.201-0.453-0.302c-0.05,0-0.05,0-0.05,0
					c-0.151-0.102-0.252-0.201-0.353-0.252c-0.051-0.051-0.051-0.051-0.101-0.15c-0.05-0.102-0.151-0.201-0.201-0.303
					c-0.101,0-0.101-0.051-0.101-0.051c-0.101-0.1-0.15-0.301-0.201-0.452l-6.593-15.601l-6.593,15.601
					c-0.05,0.151-0.15,0.353-0.201,0.452c-0.05,0-0.05,0.051-0.05,0.051c-0.101,0.102-0.201,0.201-0.302,0.303
					c0,0.1-0.051,0.1-0.051,0.15c-0.101,0.051-0.201,0.15-0.302,0.252c-0.101,0-0.101,0-0.101,0
					c-0.15,0.101-0.303,0.252-0.402,0.302c-0.051,0-0.051,0-0.051,0s-0.051,0-0.051,0.05c-0.201,0-0.301,0.051-0.402,0.102
					c-0.05,0-0.1,0-0.15,0c-0.151,0.05-0.303,0.05-0.453,0.05s-0.352,0-0.504-0.05c-0.05,0-0.1,0-0.15,0
					c-0.15-0.051-0.252-0.102-0.352-0.102c-0.051-0.05-0.051-0.05-0.102-0.05c-0.15-0.05-0.352-0.201-0.453-0.302
					c-0.05,0-0.05,0-0.05,0c-0.151-0.102-0.201-0.201-0.353-0.252c-0.051-0.051-0.051-0.051-0.101-0.15
					c-0.101-0.102-0.151-0.201-0.251-0.303v-0.051c-0.102-0.1-0.151-0.301-0.252-0.452l-12.38-29.339
					c-0.554-1.358,0.05-3.02,1.51-3.572c1.358-0.604,3.02,0.05,3.573,1.459l9.863,23.3l6.492-15.449
					c0.453-1.107,1.51-1.712,2.616-1.712c1.058,0,2.114,0.604,2.617,1.712l6.491,15.449l9.813-23.3
					c0.604-1.409,2.214-2.063,3.673-1.459C280.59,265.4,281.244,267.062,280.641,268.42z"/>
				<path class="st2" d="M335.598,268.42l-12.328,29.339c-0.051,0.151-0.151,0.353-0.252,0.452l-0.051,0.051
					c-0.051,0.102-0.15,0.201-0.252,0.303c0,0.1-0.05,0.1-0.05,0.15c-0.101,0.051-0.251,0.15-0.353,0.252h-0.05
					c-0.151,0.101-0.252,0.252-0.453,0.302h-0.05c0,0-0.051,0-0.051,0.05c-0.101,0-0.252,0.051-0.402,0.102
					c-0.051,0-0.102,0-0.102,0c-0.15,0.05-0.301,0.05-0.502,0.05c-0.152,0-0.303,0-0.453-0.05c-0.102,0-0.151,0-0.151,0
					c-0.151-0.051-0.251-0.102-0.353-0.102c-0.051-0.05-0.051-0.05-0.101-0.05c-0.201-0.05-0.353-0.201-0.452-0.302
					c-0.051,0-0.051,0-0.051,0c-0.15-0.102-0.252-0.201-0.353-0.252c-0.05-0.051-0.05-0.051-0.101-0.15
					c-0.051-0.102-0.15-0.201-0.201-0.303c-0.101,0-0.101-0.051-0.101-0.051c-0.101-0.1-0.151-0.301-0.202-0.452l-6.592-15.601
					l-6.592,15.601c-0.051,0.151-0.151,0.353-0.201,0.452c-0.051,0-0.051,0.051-0.051,0.051c-0.101,0.102-0.201,0.201-0.303,0.303
					c0,0.1-0.05,0.1-0.05,0.15c-0.101,0.051-0.201,0.15-0.302,0.252c-0.101,0-0.101,0-0.101,0c-0.151,0.101-0.302,0.252-0.403,0.302
					c-0.05,0-0.05,0-0.05,0s-0.05,0-0.05,0.05c-0.201,0-0.303,0.051-0.402,0.102c-0.051,0-0.102,0-0.151,0
					c-0.151,0.05-0.302,0.05-0.453,0.05s-0.353,0-0.503-0.05c-0.051,0-0.102,0-0.151,0c-0.151-0.051-0.251-0.102-0.353-0.102
					c-0.05-0.05-0.05-0.05-0.1-0.05c-0.152-0.05-0.354-0.201-0.453-0.302c-0.051,0-0.051,0-0.051,0
					c-0.15-0.102-0.201-0.201-0.352-0.252c-0.051-0.051-0.051-0.051-0.102-0.15c-0.101-0.102-0.15-0.201-0.252-0.303v-0.051
					c-0.1-0.1-0.15-0.301-0.251-0.452l-12.38-29.339c-0.553-1.358,0.051-3.02,1.51-3.572c1.359-0.604,3.02,0.05,3.573,1.459
					l9.863,23.3l6.491-15.449c0.453-1.107,1.51-1.712,2.617-1.712c1.057,0,2.113,0.604,2.617,1.712l6.492,15.449l9.812-23.3
					c0.604-1.409,2.215-2.063,3.674-1.459C335.548,265.4,336.202,267.062,335.598,268.42z"/>
			</g>
			<g>
				<path class="st2" d="M332.632,323.265H179.368c-23.291,0-42.24-18.949-42.24-42.24s18.949-42.24,42.24-42.24h153.264
					c23.291,0,42.24,18.949,42.24,42.24S355.923,323.265,332.632,323.265z M179.368,250.784c-16.675,0-30.24,13.565-30.24,30.24
					s13.565,30.24,30.24,30.24h153.264c16.675,0,30.24-13.565,30.24-30.24s-13.565-30.24-30.24-30.24H179.368z"/>
			</g>
		</g>
	</g>
</g>
</svg>
