<?xml version="1.0" encoding="utf-8"?>
<!-- Generator: Adobe Illustrator 22.1.0, SVG Export Plug-In . SVG Version: 6.00 Build 0)  -->
<svg version="1.1" id="Icon_Set" xmlns="http://www.w3.org/2000/svg" xmlns:xlink="http://www.w3.org/1999/xlink" x="0px" y="0px"
	 viewBox="0 0 512 512" style="enable-background:new 0 0 512 512;" xml:space="preserve">
<style type="text/css">
	.st0{fill:#F0C48A;}
	.st1{fill:#D3E6F8;}
	.st2{fill:#4C4372;}
	.st3{fill:#FD919E;}
	.st4{fill:#E8677D;}
	.st5{fill:#FFFFFF;}
	.st6{fill:#A4CFF2;}
	.st7{fill:#7BABF1;}
</style>
<g id="Website_Algorithm">
	<g>
		<g>
			<circle class="st0" cx="256" cy="256" r="207"/>
		</g>
	</g>
	<g>
		<g>
			<path class="st1" d="M373.554,320.54H138.446c-14.825,0-26.843-12.018-26.843-26.843V147.543
				c0-14.825,12.018-26.843,26.843-26.843h235.107c14.825,0,26.843,12.018,26.843,26.843v146.154
				C400.396,308.522,388.378,320.54,373.554,320.54z"/>
		</g>
		<g>
			<path class="st5" d="M373.554,120.701H138.446c-14.825,0-26.843,12.018-26.843,26.843v146.154h288.792V147.543
				C400.396,132.718,388.378,120.701,373.554,120.701z"/>
		</g>
		<g>
			<path class="st6" d="M373.554,120.701h-5.42v199.84h5.42c14.825,0,26.843-12.018,26.843-26.843V147.543
				C400.396,132.718,388.378,120.701,373.554,120.701z"/>
		</g>
		<g>
			<path class="st1" d="M373.554,120.701h-5.42v172.997h32.263V147.543C400.396,132.718,388.378,120.701,373.554,120.701z"/>
		</g>
		<g>
			<path class="st2" d="M373.554,326.54H138.446c-18.109,0-32.843-14.733-32.843-32.843V147.543
				c0-18.109,14.733-32.843,32.843-32.843h235.107c18.109,0,32.843,14.733,32.843,32.843v146.154
				C406.396,311.807,391.663,326.54,373.554,326.54z M138.446,126.701c-11.493,0-20.843,9.35-20.843,20.843v146.154
				c0,11.493,9.35,20.843,20.843,20.843h235.107c11.493,0,20.843-9.35,20.843-20.843V147.543c0-11.493-9.35-20.843-20.843-20.843
				H138.446z"/>
		</g>
		<g>
			<path class="st2" d="M400.396,299.697H111.604c-3.313,0-6-2.686-6-6V147.543c0-18.109,14.733-32.843,32.843-32.843h235.107
				c18.109,0,32.842,14.733,32.842,32.843v146.154C406.396,297.011,403.709,299.697,400.396,299.697z M117.604,287.697h276.792
				V147.543c0-11.493-9.35-20.843-20.842-20.843H138.446c-11.493,0-20.843,9.35-20.843,20.843V287.697z"/>
		</g>
		<g>
			<rect x="137.24" y="229.373" class="st3" width="62.947" height="42.765"/>
		</g>
		<g>
			<rect x="224.526" y="229.373" class="st3" width="62.947" height="42.765"/>
		</g>
		<g>
			<rect x="311.813" y="229.373" class="st3" width="62.947" height="42.765"/>
		</g>
		<g>
			<path class="st1" d="M308.577,391.299H203.423v-19.75c0-5.238,4.246-9.484,9.484-9.484h86.186c5.238,0,9.484,4.246,9.484,9.484
				V391.299z"/>
		</g>
		<g>
			<rect x="235.238" y="320.54" class="st6" width="41.525" height="41.525"/>
		</g>
		<g>
			<path class="st2" d="M276.762,368.065h-41.524c-3.313,0-6-2.686-6-6V320.54c0-3.314,2.687-6,6-6h41.524c3.313,0,6,2.686,6,6
				v41.525C282.762,365.379,280.076,368.065,276.762,368.065z M241.238,356.065h29.524V326.54h-29.524V356.065z"/>
		</g>
		<g>
			<path class="st2" d="M308.577,397.299H203.423c-3.313,0-6-2.686-6-6v-19.75c0-8.538,6.946-15.484,15.484-15.484h86.187
				c8.538,0,15.484,6.946,15.484,15.484v19.75C314.577,394.613,311.891,397.299,308.577,397.299z M209.423,385.299h93.154v-13.75
				c0-1.921-1.563-3.484-3.484-3.484h-86.187c-1.921,0-3.484,1.563-3.484,3.484V385.299z"/>
		</g>
		<g>
			<path class="st2" d="M200.187,278.138H137.24c-3.313,0-6-2.686-6-6v-42.765c0-3.314,2.687-6,6-6h62.947c3.313,0,6,2.686,6,6
				v42.765C206.187,275.452,203.5,278.138,200.187,278.138z M143.24,266.138h50.947v-30.765H143.24V266.138z"/>
		</g>
		<g>
			<path class="st2" d="M287.474,278.138h-62.947c-3.313,0-6-2.686-6-6v-42.765c0-3.314,2.687-6,6-6h62.947c3.313,0,6,2.686,6,6
				v42.765C293.474,275.452,290.787,278.138,287.474,278.138z M230.526,266.138h50.947v-30.765h-50.947V266.138z"/>
		</g>
		<g>
			<path class="st2" d="M374.76,278.138h-62.947c-3.313,0-6-2.686-6-6v-42.765c0-3.314,2.687-6,6-6h62.947c3.313,0,6,2.686,6,6
				v42.765C380.76,275.452,378.074,278.138,374.76,278.138z M317.813,266.138h50.947v-30.765h-50.947V266.138z"/>
		</g>
		<g>
			<path class="st2" d="M343.287,235.373c-3.313,0-6-2.686-6-6v-16.594H174.713v16.594c0,3.314-2.687,6-6,6s-6-2.686-6-6v-22.594
				c0-3.314,2.687-6,6-6h174.573c3.313,0,6,2.686,6,6v22.594C349.287,232.687,346.6,235.373,343.287,235.373z"/>
		</g>
		<g>
			<path class="st2" d="M256,235.373c-3.313,0-6-2.686-6-6v-43.526c0-3.314,2.687-6,6-6s6,2.686,6,6v43.526
				C262,232.687,259.313,235.373,256,235.373z"/>
		</g>
		<g>
			<circle class="st7" cx="256" cy="163.309" r="22.538"/>
		</g>
		<g>
			<path class="st2" d="M256,191.847c-15.736,0-28.538-12.802-28.538-28.538c0-15.736,12.802-28.538,28.538-28.538
				s28.538,12.802,28.538,28.538C284.538,179.045,271.736,191.847,256,191.847z M256,146.771c-9.119,0-16.538,7.419-16.538,16.538
				c0,9.119,7.419,16.538,16.538,16.538s16.538-7.419,16.538-16.538C272.538,154.19,265.119,146.771,256,146.771z"/>
		</g>
	</g>
</g>
</svg>
