<?xml version="1.0" encoding="utf-8"?>
<!-- Generator: Adobe Illustrator 22.1.0, SVG Export Plug-In . SVG Version: 6.00 Build 0)  -->
<svg version="1.1" id="Icon_Set" xmlns="http://www.w3.org/2000/svg" xmlns:xlink="http://www.w3.org/1999/xlink" x="0px" y="0px"
	 viewBox="0 0 512 512" style="enable-background:new 0 0 512 512;" xml:space="preserve">
<style type="text/css">
	.st0{fill:#F0C48A;}
	.st1{fill:#D3E6F8;}
	.st2{fill:#4C4372;}
	.st3{fill:#FD919E;}
	.st4{fill:#E8677D;}
	.st5{fill:#FFFFFF;}
	.st6{fill:#A4CFF2;}
	.st7{fill:#7BABF1;}
</style>
<g id="Wifi_And_Server">
	<g>
		<g>
			<circle class="st0" cx="256" cy="256" r="207"/>
		</g>
	</g>
	<g>
		<g>
			<g>
				<rect x="134.859" y="184.745" class="st7" width="169.296" height="115.806"/>
			</g>
			<g>
				<rect x="134.859" y="367.292" class="st7" width="36.746" height="26.704"/>
			</g>
			<g>
				<rect x="267.409" y="367.292" class="st7" width="36.746" height="26.704"/>
			</g>
			<g>
				<path class="st2" d="M304.155,306.551H134.859c-3.313,0-6-2.687-6-6V184.745c0-3.313,2.687-6,6-6h169.296c3.313,0,6,2.687,6,6
					v115.806C310.155,303.864,307.469,306.551,304.155,306.551z M140.859,294.551h157.296V190.745H140.859V294.551z"/>
			</g>
			<g>
				<path class="st2" d="M171.605,399.995h-36.746c-3.313,0-6-2.687-6-6v-26.704c0-3.313,2.687-6,6-6h36.746c3.313,0,6,2.687,6,6
					v26.704C177.605,397.309,174.919,399.995,171.605,399.995z M140.859,387.995h24.746v-14.704h-24.746V387.995z"/>
			</g>
			<g>
				<path class="st2" d="M304.155,399.995h-36.747c-3.313,0-6-2.687-6-6v-26.704c0-3.313,2.687-6,6-6h36.747c3.313,0,6,2.687,6,6
					v26.704C310.155,397.309,307.469,399.995,304.155,399.995z M273.408,387.995h24.747v-14.704h-24.747V387.995z"/>
			</g>
			<g>
				<g>
					<path class="st1" d="M315.237,276.018h-191.46c-6.367,0-11.528-5.161-11.528-11.528v-43.685
						c0-6.367,5.161-11.528,11.528-11.528h191.46c6.367,0,11.528,5.161,11.528,11.528v43.685
						C326.765,270.857,321.604,276.018,315.237,276.018z"/>
				</g>
				<g>
					<path class="st6" d="M315.237,209.278h-19.506v66.741h19.506c6.367,0,11.528-5.161,11.528-11.528v-43.685
						C326.765,214.439,321.604,209.278,315.237,209.278z"/>
				</g>
				<g>
					<path class="st2" d="M315.237,282.019H123.776c-9.665,0-17.527-7.863-17.527-17.528v-43.685
						c0-9.665,7.862-17.528,17.527-17.528h191.461c9.665,0,17.527,7.863,17.527,17.528v43.685
						C332.765,274.155,324.902,282.019,315.237,282.019z M123.776,215.277c-3.048,0-5.527,2.48-5.527,5.528v43.685
						c0,3.048,2.479,5.528,5.527,5.528h191.461c3.048,0,5.527-2.48,5.527-5.528v-43.685c0-3.048-2.479-5.528-5.527-5.528H123.776z"
						/>
				</g>
				<g>
					<circle class="st3" cx="148.79" cy="242.648" r="13.931"/>
				</g>
				<g>
					<path class="st5" d="M290.224,228.717h-91.725c-7.694,0-13.931,6.237-13.931,13.931v0c0,7.694,6.237,13.931,13.931,13.931
						h91.725c7.694,0,13.931-6.237,13.931-13.931v0C304.155,234.954,297.918,228.717,290.224,228.717z"/>
				</g>
				<g>
					<path class="st2" d="M290.224,262.579h-91.726c-10.99,0-19.932-8.94-19.932-19.931s8.941-19.932,19.932-19.932h91.726
						c10.99,0,19.932,8.941,19.932,19.932S301.214,262.579,290.224,262.579z M198.498,234.717c-4.373,0-7.932,3.559-7.932,7.932
						s3.559,7.931,7.932,7.931h91.726c4.373,0,7.932-3.558,7.932-7.931s-3.559-7.932-7.932-7.932H198.498z"/>
				</g>
				<g>
					<path class="st2" d="M148.79,262.579c-10.99,0-19.931-8.94-19.931-19.931s8.94-19.932,19.931-19.932
						s19.932,8.941,19.932,19.932S159.78,262.579,148.79,262.579z M148.79,234.717c-4.373,0-7.931,3.559-7.931,7.932
						s3.558,7.931,7.931,7.931s7.932-3.558,7.932-7.931S153.163,234.717,148.79,234.717z"/>
				</g>
			</g>
			<g>
				<g>
					<path class="st3" d="M315.237,367.292h-191.46c-6.367,0-11.528-5.161-11.528-11.528v-43.685
						c0-6.367,5.161-11.528,11.528-11.528h191.46c6.367,0,11.528,5.161,11.528,11.528v43.685
						C326.765,362.13,321.604,367.292,315.237,367.292z"/>
				</g>
				<g>
					<path class="st4" d="M315.237,300.551h-19.506v66.741h19.506c6.367,0,11.528-5.161,11.528-11.528v-43.685
						C326.765,305.712,321.604,300.551,315.237,300.551z"/>
				</g>
				<g>
					<path class="st2" d="M315.237,373.291H123.776c-9.665,0-17.527-7.862-17.527-17.527v-43.685
						c0-9.665,7.862-17.528,17.527-17.528h191.461c9.665,0,17.527,7.863,17.527,17.528v43.685
						C332.765,365.429,324.902,373.291,315.237,373.291z M123.776,306.551c-3.048,0-5.527,2.48-5.527,5.528v43.685
						c0,3.048,2.479,5.527,5.527,5.527h191.461c3.048,0,5.527-2.479,5.527-5.527v-43.685c0-3.048-2.479-5.528-5.527-5.528H123.776z"
						/>
				</g>
				<g>
					<circle class="st7" cx="148.79" cy="333.921" r="13.931"/>
				</g>
				<g>
					<path class="st5" d="M290.224,319.99h-91.725c-7.694,0-13.931,6.237-13.931,13.931v0c0,7.694,6.237,13.931,13.931,13.931
						h91.725c7.694,0,13.931-6.237,13.931-13.931v0C304.155,326.227,297.918,319.99,290.224,319.99z"/>
				</g>
				<g>
					<path class="st2" d="M290.224,353.853h-91.726c-10.99,0-19.932-8.941-19.932-19.932s8.941-19.931,19.932-19.931h91.726
						c10.99,0,19.932,8.94,19.932,19.931S301.214,353.853,290.224,353.853z M198.498,325.99c-4.373,0-7.932,3.558-7.932,7.931
						c0,4.374,3.559,7.932,7.932,7.932h91.726c4.373,0,7.932-3.558,7.932-7.932c0-4.373-3.559-7.931-7.932-7.931H198.498z"/>
				</g>
				<g>
					<path class="st2" d="M148.79,353.853c-10.99,0-19.931-8.941-19.931-19.932s8.94-19.931,19.931-19.931
						s19.932,8.94,19.932,19.931S159.78,353.853,148.79,353.853z M148.79,325.99c-4.373,0-7.931,3.558-7.931,7.931
						s3.558,7.932,7.931,7.932s7.932-3.559,7.932-7.932S153.163,325.99,148.79,325.99z"/>
				</g>
			</g>
			<g>
				<g>
					<path class="st3" d="M315.237,184.745h-191.46c-6.367,0-11.528-5.161-11.528-11.528v-43.685
						c0-6.367,5.161-11.528,11.528-11.528h191.46c6.367,0,11.528,5.161,11.528,11.528v43.685
						C326.765,179.584,321.604,184.745,315.237,184.745z"/>
				</g>
				<g>
					<path class="st4" d="M315.237,118.005h-19.506v66.741h19.506c6.367,0,11.528-5.161,11.528-11.528v-43.685
						C326.765,123.166,321.604,118.005,315.237,118.005z"/>
				</g>
				<g>
					<path class="st2" d="M315.237,190.745H123.776c-9.665,0-17.527-7.862-17.527-17.527v-43.685
						c0-9.665,7.862-17.528,17.527-17.528h191.461c9.665,0,17.527,7.863,17.527,17.528v43.685
						C332.765,182.883,324.902,190.745,315.237,190.745z M123.776,124.005c-3.048,0-5.527,2.48-5.527,5.528v43.685
						c0,3.048,2.479,5.527,5.527,5.527h191.461c3.048,0,5.527-2.479,5.527-5.527v-43.685c0-3.048-2.479-5.528-5.527-5.528H123.776z"
						/>
				</g>
				<g>
					<circle class="st7" cx="148.79" cy="151.375" r="13.931"/>
				</g>
				<g>
					<path class="st5" d="M290.224,137.444h-91.725c-7.694,0-13.931,6.237-13.931,13.931v0c0,7.694,6.237,13.931,13.931,13.931
						h91.725c7.694,0,13.931-6.237,13.931-13.931v0C304.155,143.681,297.918,137.444,290.224,137.444z"/>
				</g>
				<g>
					<path class="st2" d="M290.224,171.307h-91.726c-10.99,0-19.932-8.941-19.932-19.932s8.941-19.932,19.932-19.932h91.726
						c10.99,0,19.932,8.941,19.932,19.932S301.214,171.307,290.224,171.307z M198.498,143.443c-4.373,0-7.932,3.559-7.932,7.932
						s3.559,7.932,7.932,7.932h91.726c4.373,0,7.932-3.559,7.932-7.932s-3.559-7.932-7.932-7.932H198.498z"/>
				</g>
				<g>
					<path class="st2" d="M148.79,171.307c-10.99,0-19.931-8.941-19.931-19.932s8.94-19.932,19.931-19.932
						s19.932,8.941,19.932,19.932S159.78,171.307,148.79,171.307z M148.79,143.443c-4.373,0-7.931,3.559-7.931,7.932
						s3.558,7.932,7.931,7.932s7.932-3.559,7.932-7.932S153.163,143.443,148.79,143.443z"/>
				</g>
			</g>
		</g>
		<g>
			<g>
				<circle class="st3" cx="326.765" cy="256" r="72.986"/>
			</g>
			<g>
				<path class="st2" d="M326.765,334.986c-43.553,0-78.985-35.434-78.985-78.986s35.433-78.986,78.985-78.986
					s78.986,35.434,78.986,78.986S370.317,334.986,326.765,334.986z M326.765,189.014c-36.936,0-66.985,30.05-66.985,66.986
					s30.05,66.986,66.985,66.986c36.937,0,66.986-30.05,66.986-66.986S363.701,189.014,326.765,189.014z"/>
			</g>
			<g>
				<g>
					<path class="st2" d="M363.625,264.871c-1.535,0-3.071-0.586-4.242-1.757c-17.986-17.985-47.249-17.983-65.235,0
						c-2.343,2.343-6.143,2.342-8.485-0.001s-2.343-6.142,0.001-8.485c22.664-22.661,59.54-22.662,82.204,0
						c2.344,2.344,2.344,6.143,0.001,8.485C366.696,264.285,365.16,264.871,363.625,264.871z"/>
				</g>
				<g>
					<path class="st2" d="M304.339,279.305c-1.535,0-3.071-0.586-4.242-1.757c-2.344-2.344-2.344-6.143-0.001-8.485
						c7.124-7.124,16.596-11.048,26.67-11.048s19.545,3.924,26.669,11.048c2.344,2.343,2.344,6.142,0,8.484
						c-2.342,2.344-6.143,2.344-8.484,0c-4.858-4.857-11.316-7.532-18.185-7.532c-6.869,0-13.327,2.675-18.184,7.532
						C307.41,278.719,305.874,279.305,304.339,279.305z"/>
				</g>
				<g>
					<circle class="st2" cx="326.765" cy="290.302" r="8.84"/>
				</g>
				<g>
					<path class="st2" d="M378.047,250.449c-1.535,0-3.071-0.586-4.242-1.758c-25.938-25.938-68.143-25.937-94.079,0
						c-2.342,2.344-6.143,2.344-8.484,0c-2.344-2.343-2.344-6.142,0-8.484c30.615-30.615,80.433-30.617,111.048,0
						c2.344,2.343,2.344,6.142,0,8.484C381.118,249.863,379.582,250.449,378.047,250.449z"/>
				</g>
			</g>
		</g>
	</g>
</g>
</svg>
