<?xml version="1.0" encoding="utf-8"?>
<!-- Generator: Adobe Illustrator 22.1.0, SVG Export Plug-In . SVG Version: 6.00 Build 0)  -->
<svg version="1.1" id="Icon_Set" xmlns="http://www.w3.org/2000/svg" xmlns:xlink="http://www.w3.org/1999/xlink" x="0px" y="0px"
	 viewBox="0 0 512 512" style="enable-background:new 0 0 512 512;" xml:space="preserve">
<style type="text/css">
	.st0{fill:#F0C48A;}
	.st1{fill:#D3E6F8;}
	.st2{fill:#4C4372;}
	.st3{fill:#FD919E;}
	.st4{fill:#E8677D;}
	.st5{fill:#FFFFFF;}
	.st6{fill:#A4CFF2;}
	.st7{fill:#7BABF1;}
</style>
<g id="Wireless">
	<g>
		<g>
			<circle class="st0" cx="256" cy="256" r="207"/>
		</g>
	</g>
	<g>
		<g>
			<polygon class="st1" points="295.14,401.7 216.86,401.7 240.073,191.464 271.927,191.464 			"/>
		</g>
		<g>
			<polygon class="st6" points="295.14,401.7 268.763,401.7 256.857,191.464 271.927,191.464 			"/>
		</g>
		<g>
			<path class="st2" d="M295.141,407.7h-78.281c-1.706,0-3.331-0.727-4.47-1.997c-1.138-1.271-1.682-2.966-1.494-4.661
				l23.213-210.236c0.336-3.041,2.905-5.342,5.964-5.342h31.855c3.059,0,5.628,2.301,5.964,5.342l23.213,210.236
				c0.188,1.695-0.356,3.391-1.494,4.661C298.472,406.974,296.847,407.7,295.141,407.7z M223.559,395.7h64.883l-21.888-198.236
				h-21.107L223.559,395.7z"/>
		</g>
		<g>
			<g>
				<g>
					<path class="st2" d="M176.216,231.987c-1.536,0-3.071-0.586-4.243-1.758c-29.015-29.016-29.015-76.228,0-105.243
						c2.344-2.344,6.144-2.343,8.485-0.001c2.344,2.344,2.344,6.143,0.001,8.485c-24.337,24.338-24.337,63.937,0,88.274
						c2.343,2.343,2.343,6.142-0.001,8.485C179.287,231.401,177.751,231.987,176.216,231.987z"/>
				</g>
				<g>
					<path class="st2" d="M195.159,213.044c-1.535,0-3.071-0.586-4.242-1.758c-8.996-8.995-13.95-20.956-13.95-33.678
						s4.954-24.683,13.95-33.678c2.342-2.344,6.143-2.344,8.484,0c2.344,2.343,2.344,6.142,0,8.484
						c-6.729,6.729-10.435,15.677-10.435,25.193s3.706,18.464,10.435,25.193c2.344,2.343,2.344,6.142,0,8.484
						C198.23,212.458,196.694,213.044,195.159,213.044z"/>
				</g>
				<g>
					<path class="st2" d="M157.286,250.917c-1.536,0-3.071-0.586-4.243-1.758c-39.452-39.453-39.452-103.649,0.001-143.102
						c2.342-2.344,6.143-2.344,8.484,0c2.344,2.343,2.344,6.142,0,8.484c-34.773,34.774-34.773,91.357,0.001,126.133
						c2.343,2.343,2.343,6.142-0.001,8.485C160.357,250.331,158.821,250.917,157.286,250.917z"/>
				</g>
			</g>
			<g>
				<g>
					<path class="st2" d="M335.784,231.987c-1.535,0-3.071-0.586-4.242-1.757c-2.344-2.344-2.344-6.143-0.001-8.485
						c24.337-24.338,24.337-63.937,0-88.274c-2.343-2.343-2.343-6.142,0.001-8.485c2.343-2.342,6.143-2.343,8.485,0.001
						c29.015,29.016,29.015,76.228,0,105.243C338.855,231.401,337.319,231.987,335.784,231.987z"/>
				</g>
				<g>
					<path class="st2" d="M316.841,213.044c-1.535,0-3.071-0.586-4.242-1.758c-2.344-2.343-2.344-6.142,0-8.484
						c6.729-6.729,10.435-15.677,10.435-25.193s-3.706-18.464-10.435-25.193c-2.344-2.343-2.344-6.142,0-8.484
						c2.342-2.344,6.143-2.344,8.484,0c8.996,8.995,13.95,20.956,13.95,33.678s-4.954,24.683-13.95,33.678
						C319.912,212.458,318.376,213.044,316.841,213.044z"/>
				</g>
				<g>
					<path class="st2" d="M354.714,250.917c-1.535,0-3.071-0.586-4.242-1.757c-2.344-2.344-2.344-6.143-0.001-8.485
						c34.774-34.775,34.774-91.358,0.001-126.133c-2.344-2.343-2.344-6.142,0-8.484c2.342-2.344,6.143-2.344,8.484,0
						c39.453,39.452,39.453,103.648,0.001,143.102C357.785,250.331,356.249,250.917,354.714,250.917z"/>
				</g>
			</g>
		</g>
		<g>
			<circle class="st3" cx="256" cy="177.608" r="39.456"/>
		</g>
		<g>
			<path class="st4" d="M259.812,138.339c11.915,6.789,19.954,19.599,19.954,34.293c0,21.792-17.665,39.456-39.456,39.456
				c-1.286,0-2.557-0.067-3.812-0.187c5.753,3.279,12.406,5.162,19.502,5.162c21.791,0,39.456-17.665,39.456-39.456
				C295.456,157.104,279.814,140.257,259.812,138.339z"/>
		</g>
		<g>
			<path class="st2" d="M256,223.063c-25.064,0-45.456-20.391-45.456-45.455s20.392-45.456,45.456-45.456
				s45.456,20.392,45.456,45.456S281.064,223.063,256,223.063z M256,144.152c-18.447,0-33.456,15.009-33.456,33.456
				s15.009,33.455,33.456,33.455s33.456-15.008,33.456-33.455S274.447,144.152,256,144.152z"/>
		</g>
	</g>
</g>
</svg>
