<?xml version="1.0" encoding="utf-8"?>
<!-- Generator: Adobe Illustrator 22.1.0, SVG Export Plug-In . SVG Version: 6.00 Build 0)  -->
<svg version="1.1" id="Icon_Set" xmlns="http://www.w3.org/2000/svg" xmlns:xlink="http://www.w3.org/1999/xlink" x="0px" y="0px"
	 viewBox="0 0 512 512" style="enable-background:new 0 0 512 512;" xml:space="preserve">
<style type="text/css">
	.st0{fill:#F0C48A;}
	.st1{fill:#D3E6F8;}
	.st2{fill:#4C4372;}
	.st3{fill:#FD919E;}
	.st4{fill:#E8677D;}
	.st5{fill:#FFFFFF;}
	.st6{fill:#A4CFF2;}
	.st7{fill:#7BABF1;}
</style>
<g id="Wireless_Modem">
	<g>
		<g>
			<circle class="st0" cx="256" cy="256" r="207"/>
		</g>
	</g>
	<g>
		<g>
			<path class="st6" d="M402.412,343.968H109.588c-13.45,0-24.353-10.903-24.353-24.353v-39.047
				c0-13.45,10.903-24.353,24.353-24.353h292.824c13.45,0,24.353,10.903,24.353,24.353v39.047
				C426.765,333.065,415.862,343.968,402.412,343.968z"/>
		</g>
		<g>
			<path class="st7" d="M402.412,256.215h-20.401v87.753h20.401c13.45,0,24.353-10.903,24.353-24.353v-39.048
				C426.765,267.118,415.862,256.215,402.412,256.215z"/>
		</g>
		<g>
			<g>
				<path class="st3" d="M285.39,314.753L285.39,314.753c-8.097,0-14.661-6.564-14.661-14.661v0c0-8.097,6.564-14.661,14.661-14.661
					h0c8.097,0,14.661,6.564,14.661,14.661v0C300.051,308.189,293.487,314.753,285.39,314.753z"/>
			</g>
			<g>
				<path class="st3" d="M333.7,314.753L333.7,314.753c-8.097,0-14.661-6.564-14.661-14.661v0c0-8.097,6.564-14.661,14.661-14.661h0
					c8.097,0,14.661,6.564,14.661,14.661v0C348.361,308.189,341.797,314.753,333.7,314.753z"/>
			</g>
			<g>
				<path class="st3" d="M382.011,314.753L382.011,314.753c-8.097,0-14.661-6.564-14.661-14.661v0
					c0-8.097,6.564-14.661,14.661-14.661h0c8.097,0,14.661,6.564,14.661,14.661v0C396.672,308.189,390.108,314.753,382.011,314.753z
					"/>
			</g>
		</g>
		<g>
			<rect x="117.675" y="285.431" class="st5" width="127.97" height="29.322"/>
		</g>
		<g>
			<circle class="st7" cx="369.503" cy="173.272" r="15.947"/>
		</g>
		<g>
			<circle class="st7" cx="142.497" cy="173.272" r="15.947"/>
		</g>
		<g>
			<g>
				<rect x="115.328" y="343.968" class="st7" width="54.338" height="29.261"/>
			</g>
			<g>
				<rect x="342.334" y="343.968" class="st7" width="54.338" height="29.261"/>
			</g>
		</g>
		<g>
			<path class="st2" d="M402.412,349.968H109.588c-16.737,0-30.353-13.616-30.353-30.353v-39.048
				c0-16.737,13.616-30.353,30.353-30.353h292.824c16.737,0,30.353,13.616,30.353,30.353v39.048
				C432.765,336.352,419.149,349.968,402.412,349.968z M109.588,262.215c-10.12,0-18.353,8.233-18.353,18.353v39.048
				c0,10.12,8.233,18.353,18.353,18.353h292.824c10.12,0,18.353-8.233,18.353-18.353v-39.048c0-10.12-8.233-18.353-18.353-18.353
				H109.588z"/>
		</g>
		<g>
			<g>
				<path class="st2" d="M169.666,379.229h-54.337c-3.313,0-6-2.686-6-6v-29.261c0-3.314,2.687-6,6-6h54.337c3.313,0,6,2.686,6,6
					v29.261C175.666,376.543,172.979,379.229,169.666,379.229z M121.328,367.229h42.337v-17.261h-42.337V367.229z"/>
			</g>
			<g>
				<path class="st2" d="M396.672,379.229h-54.337c-3.313,0-6-2.686-6-6v-29.261c0-3.314,2.687-6,6-6h54.337c3.313,0,6,2.686,6,6
					v29.261C402.672,376.543,399.985,379.229,396.672,379.229z M348.334,367.229h42.337v-17.261h-42.337V367.229z"/>
			</g>
		</g>
		<g>
			<g>
				<path class="st2" d="M297.683,185.101c-1.536,0-3.071-0.586-4.243-1.757c-20.645-20.645-54.236-20.645-74.881,0
					c-2.343,2.343-6.142,2.343-8.485,0c-2.343-2.343-2.343-6.142,0-8.485c25.323-25.323,66.528-25.323,91.852,0
					c2.343,2.343,2.343,6.142,0,8.485C300.754,184.515,299.219,185.101,297.683,185.101z"/>
			</g>
			<g>
				<path class="st2" d="M281.361,201.422c-1.536,0-3.071-0.586-4.243-1.757c-11.645-11.645-30.593-11.645-42.237,0
					c-2.343,2.343-6.142,2.343-8.485,0c-2.343-2.343-2.343-6.142,0-8.485c16.324-16.323,42.884-16.323,59.208,0
					c2.343,2.343,2.343,6.142,0,8.485C284.433,200.837,282.897,201.422,281.361,201.422z"/>
			</g>
			<g>
				<circle class="st2" cx="256" cy="214.645" r="9.997"/>
			</g>
			<g>
				<path class="st2" d="M313.992,168.792c-1.536,0-3.071-0.586-4.243-1.757c-29.638-29.637-77.861-29.637-107.499,0
					c-2.343,2.343-6.142,2.343-8.485,0c-2.343-2.343-2.343-6.142,0-8.485c34.316-34.316,90.153-34.316,124.47,0
					c2.343,2.343,2.343,6.142,0,8.485C317.063,168.206,315.528,168.792,313.992,168.792z"/>
			</g>
		</g>
		<g>
			<path class="st2" d="M369.503,262.215c-3.313,0-6-2.686-6-6V190.17c0-3.314,2.687-6,6-6s6,2.686,6,6v66.045
				C375.503,259.529,372.817,262.215,369.503,262.215z"/>
		</g>
		<g>
			<path class="st2" d="M369.503,195.22c-12.102,0-21.947-9.845-21.947-21.947s9.846-21.947,21.947-21.947
				s21.947,9.845,21.947,21.947S381.605,195.22,369.503,195.22z M369.503,163.325c-5.485,0-9.947,4.462-9.947,9.947
				s4.462,9.947,9.947,9.947s9.947-4.462,9.947-9.947S374.988,163.325,369.503,163.325z"/>
		</g>
		<g>
			<path class="st2" d="M142.497,262.215c-3.313,0-6-2.686-6-6V190.17c0-3.314,2.687-6,6-6s6,2.686,6,6v66.045
				C148.497,259.529,145.81,262.215,142.497,262.215z"/>
		</g>
		<g>
			<path class="st2" d="M142.497,195.22c-12.102,0-21.947-9.845-21.947-21.947s9.846-21.947,21.947-21.947
				s21.947,9.845,21.947,21.947S154.598,195.22,142.497,195.22z M142.497,163.325c-5.485,0-9.947,4.462-9.947,9.947
				s4.462,9.947,9.947,9.947s9.947-4.462,9.947-9.947S147.981,163.325,142.497,163.325z"/>
		</g>
		<g>
			<path class="st2" d="M245.645,320.753h-127.97c-3.313,0-6-2.686-6-6v-29.322c0-3.314,2.687-6,6-6h127.97c3.313,0,6,2.686,6,6
				v29.322C251.645,318.066,248.958,320.753,245.645,320.753z M123.675,308.753h115.97v-17.322h-115.97V308.753z"/>
		</g>
		<g>
			<g>
				<path class="st2" d="M285.39,320.753c-11.393,0-20.661-9.269-20.661-20.661c0-11.393,9.269-20.661,20.661-20.661
					s20.661,9.269,20.661,20.661C306.051,311.484,296.782,320.753,285.39,320.753z M285.39,291.431
					c-4.776,0-8.661,3.885-8.661,8.661c0,4.776,3.885,8.661,8.661,8.661s8.661-3.885,8.661-8.661
					C294.051,295.316,290.166,291.431,285.39,291.431z"/>
			</g>
			<g>
				<path class="st2" d="M333.7,320.753c-11.393,0-20.661-9.269-20.661-20.661c0-11.393,9.269-20.661,20.661-20.661
					s20.661,9.269,20.661,20.661C354.361,311.484,345.093,320.753,333.7,320.753z M333.7,291.431c-4.776,0-8.661,3.885-8.661,8.661
					c0,4.776,3.885,8.661,8.661,8.661s8.661-3.885,8.661-8.661C342.361,295.316,338.476,291.431,333.7,291.431z"/>
			</g>
			<g>
				<path class="st2" d="M382.011,320.753c-11.393,0-20.661-9.269-20.661-20.661c0-11.393,9.269-20.661,20.661-20.661
					c11.393,0,20.661,9.269,20.661,20.661C402.672,311.484,393.403,320.753,382.011,320.753z M382.011,291.431
					c-4.776,0-8.661,3.885-8.661,8.661c0,4.776,3.885,8.661,8.661,8.661h0c4.775,0,8.661-3.885,8.661-8.661
					C390.672,295.316,386.787,291.431,382.011,291.431z"/>
			</g>
		</g>
	</g>
</g>
</svg>
