<?xml version="1.0" encoding="utf-8"?>
<!-- Generator: Adobe Illustrator 22.1.0, SVG Export Plug-In . SVG Version: 6.00 Build 0)  -->
<svg version="1.1" id="Icon_Set" xmlns="http://www.w3.org/2000/svg" xmlns:xlink="http://www.w3.org/1999/xlink" x="0px" y="0px"
	 viewBox="0 0 512 512" style="enable-background:new 0 0 512 512;" xml:space="preserve">
<style type="text/css">
	.st0{fill:#F0C48A;}
	.st1{fill:#D3E6F8;}
	.st2{fill:#4C4372;}
	.st3{fill:#FD919E;}
	.st4{fill:#E8677D;}
	.st5{fill:#FFFFFF;}
	.st6{fill:#A4CFF2;}
	.st7{fill:#7BABF1;}
</style>
<g id="Wireless_Database">
	<g>
		<g>
			<circle class="st0" cx="256" cy="256" r="207"/>
		</g>
	</g>
	<g>
		<g>
			<g>
				<path class="st6" d="M219.507,110.051c-61.362,0-111.105,19.985-111.105,44.639v202.62c0,24.653,49.744,44.639,111.105,44.639
					s111.105-19.986,111.105-44.639V154.69C330.612,130.036,280.869,110.051,219.507,110.051z"/>
			</g>
			<g>
				<path class="st7" d="M295.246,389.966c21.756-8.149,35.367-19.763,35.367-32.656V154.69c0-9.659-7.636-18.6-20.613-25.904
					h-14.754V389.966z"/>
			</g>
			<g>
				<path class="st1" d="M219.507,110.051c-61.362,0-111.105,19.985-111.105,44.639v67.54c0,24.654,49.744,44.639,111.105,44.639
					s111.105-19.985,111.105-44.639v-67.54C330.612,130.036,280.869,110.051,219.507,110.051z"/>
			</g>
			<g>
				<path class="st6" d="M295.246,254.886c21.756-8.149,35.367-19.763,35.367-32.656v-67.54c0-9.659-7.636-18.6-20.613-25.904
					h-14.754V254.886z"/>
			</g>
			<g>
				<path class="st1" d="M219.507,401.949c61.362,0,111.105-19.986,111.105-44.639v-67.54c0,24.653-49.743,44.639-111.105,44.639
					s-111.105-19.986-111.105-44.639v67.54C108.401,381.964,158.145,401.949,219.507,401.949z"/>
			</g>
			<g>
				<path class="st6" d="M295.246,322.426v67.541c21.756-8.149,35.367-19.763,35.367-32.656V289.77
					C330.612,302.663,317.002,314.277,295.246,322.426z"/>
			</g>
			<g>
				<ellipse class="st7" cx="219.507" cy="149.255" rx="110.256" ry="39.204"/>
			</g>
			<g>
				<circle class="st3" cx="153.287" cy="217.431" r="13.855"/>
			</g>
			<g>
				<circle class="st3" cx="153.287" cy="290.77" r="13.855"/>
			</g>
			<g>
				<circle class="st3" cx="153.287" cy="359.011" r="13.855"/>
			</g>
			<g>
				<path class="st2" d="M219.507,407.949c-30.426,0-59.121-4.797-80.8-13.507c-23.412-9.406-36.305-22.593-36.305-37.132V154.689
					c0-14.539,12.894-27.726,36.305-37.132c21.679-8.71,50.375-13.507,80.8-13.507s59.121,4.797,80.801,13.507
					c23.411,9.406,36.305,22.593,36.305,37.132v202.621c0,14.539-12.894,27.726-36.305,37.132
					C278.628,403.152,249.933,407.949,219.507,407.949z M219.507,116.051c-28.929,0-56.036,4.489-76.327,12.642
					c-18.289,7.349-28.779,16.824-28.779,25.997v202.621c0,18.275,43.165,38.639,105.105,38.639
					c28.929,0,56.036-4.489,76.327-12.642c18.289-7.349,28.778-16.824,28.778-25.997V154.689
					C324.612,136.414,281.447,116.051,219.507,116.051z"/>
			</g>
			<g>
				<path class="st2" d="M219.507,407.949c-30.426,0-59.121-4.797-80.8-13.507c-23.412-9.406-36.305-22.593-36.305-37.132V289.77
					c0-3.313,2.687-6,6-6s6,2.687,6,6c0,18.276,43.165,38.64,105.105,38.64c28.929,0,56.036-4.49,76.327-12.643
					c9.363-3.762,16.941-8.248,21.915-12.972c4.554-4.326,6.863-8.709,6.863-13.025c0-3.313,2.687-6,6-6s6,2.687,6,6v67.541
					c0,14.539-12.894,27.726-36.305,37.132C278.628,403.152,249.933,407.949,219.507,407.949z M114.401,312.752v44.559
					c0,18.275,43.165,38.639,105.105,38.639c28.929,0,56.036-4.489,76.327-12.642c9.363-3.763,16.941-8.248,21.915-12.972
					c4.554-4.326,6.863-8.709,6.863-13.025v-44.559c-6,5.294-14.167,10.076-24.305,14.149c-21.68,8.711-50.375,13.508-80.801,13.508
					c-30.425,0-59.121-4.797-80.8-13.508C128.568,322.828,120.402,318.046,114.401,312.752z"/>
			</g>
			<g>
				<path class="st2" d="M219.507,194.459c-59.601,0-108.385-18.281-116-43.468c-0.342-1.132-0.342-2.341,0-3.473
					c7.615-25.187,56.399-43.468,116-43.468c59.601,0,108.386,18.281,116,43.468c0.343,1.132,0.343,2.341,0,3.473
					C327.893,176.178,279.107,194.459,219.507,194.459z M115.64,149.255c3.6,8.16,15.086,16.181,31.976,22.237
					c19.721,7.072,45.252,10.967,71.891,10.967s52.17-3.895,71.892-10.967c16.89-6.057,28.376-14.077,31.977-22.237
					c-3.601-8.16-15.087-16.181-31.977-22.237c-19.722-7.072-45.253-10.967-71.892-10.967s-52.169,3.895-71.891,10.967
					C130.726,133.074,119.24,141.095,115.64,149.255z"/>
			</g>
			<g>
				<path class="st2" d="M219.507,272.869c-30.426,0-59.121-4.797-80.8-13.507c-23.412-9.406-36.305-22.594-36.305-37.133v-67.54
					c0-14.539,12.894-27.726,36.305-37.132c21.679-8.71,50.375-13.507,80.8-13.507s59.121,4.797,80.801,13.507
					c23.411,9.406,36.305,22.593,36.305,37.132v67.54c0,14.539-12.894,27.727-36.305,37.133
					C278.628,268.072,249.933,272.869,219.507,272.869z M219.507,116.051c-28.929,0-56.036,4.489-76.327,12.642
					c-9.364,3.763-16.942,8.248-21.916,12.972c-4.554,4.326-6.863,8.709-6.863,13.025v67.54c0,18.276,43.165,38.64,105.105,38.64
					c28.93,0,56.036-4.489,76.327-12.642c9.363-3.763,16.941-8.248,21.915-12.973c4.554-4.326,6.863-8.708,6.863-13.025v-67.54
					C324.612,136.414,281.447,116.051,219.507,116.051z"/>
			</g>
			<g>
				<path class="st2" d="M153.287,237.285c-10.948,0-19.854-8.906-19.854-19.854s8.907-19.854,19.854-19.854
					c10.948,0,19.855,8.906,19.855,19.854S164.235,237.285,153.287,237.285z M153.287,209.576c-4.331,0-7.854,3.523-7.854,7.854
					s3.523,7.854,7.854,7.854s7.855-3.523,7.855-7.854S157.618,209.576,153.287,209.576z"/>
			</g>
			<g>
				<path class="st2" d="M153.287,310.624c-10.948,0-19.854-8.906-19.854-19.854s8.907-19.854,19.854-19.854
					c10.948,0,19.855,8.906,19.855,19.854S164.235,310.624,153.287,310.624z M153.287,282.915c-4.331,0-7.854,3.523-7.854,7.854
					s3.523,7.854,7.854,7.854s7.855-3.523,7.855-7.854S157.618,282.915,153.287,282.915z"/>
			</g>
			<g>
				<path class="st2" d="M153.287,378.865c-10.948,0-19.854-8.906-19.854-19.854s8.907-19.854,19.854-19.854
					c10.948,0,19.855,8.906,19.855,19.854S164.235,378.865,153.287,378.865z M153.287,351.156c-4.331,0-7.854,3.523-7.854,7.854
					s3.523,7.854,7.854,7.854s7.855-3.523,7.855-7.854S157.618,351.156,153.287,351.156z"/>
			</g>
		</g>
		<g>
			<g>
				<circle class="st3" cx="330.612" cy="271" r="72.986"/>
			</g>
			<g>
				<path class="st2" d="M330.612,349.986c-43.553,0-78.986-35.434-78.986-78.986s35.434-78.986,78.986-78.986
					s78.986,35.434,78.986,78.986S374.165,349.986,330.612,349.986z M330.612,204.014c-36.937,0-66.986,30.05-66.986,66.986
					s30.05,66.986,66.986,66.986s66.986-30.05,66.986-66.986S367.549,204.014,330.612,204.014z"/>
			</g>
			<g>
				<g>
					<path class="st2" d="M367.472,279.871c-1.535,0-3.071-0.586-4.242-1.758c-17.984-17.983-47.248-17.986-65.234,0.001
						c-2.342,2.343-6.142,2.342-8.485-0.001c-2.343-2.343-2.343-6.142,0.001-8.485c22.664-22.664,59.543-22.661,82.203,0.001
						c2.344,2.343,2.344,6.142,0,8.484C370.543,279.285,369.007,279.871,367.472,279.871z"/>
				</g>
				<g>
					<path class="st2" d="M353.039,294.305c-1.536,0-3.071-0.586-4.243-1.758c-4.856-4.857-11.314-7.532-18.184-7.532
						s-13.327,2.675-18.184,7.532c-2.344,2.344-6.144,2.343-8.485,0.001c-2.344-2.344-2.344-6.143-0.001-8.485
						c7.124-7.124,16.596-11.048,26.67-11.048s19.546,3.924,26.67,11.048c2.343,2.343,2.343,6.142-0.001,8.485
						C356.11,293.719,354.574,294.305,353.039,294.305z"/>
				</g>
				<g>
					<circle class="st2" cx="330.612" cy="305.302" r="8.84"/>
				</g>
				<g>
					<path class="st2" d="M381.895,265.449c-1.535,0-3.071-0.586-4.242-1.758c-25.938-25.938-68.143-25.938-94.079,0
						c-2.342,2.344-6.143,2.344-8.484,0c-2.344-2.343-2.344-6.142,0-8.484c30.615-30.616,80.433-30.617,111.048,0
						c2.344,2.343,2.344,6.142,0,8.484C384.966,264.863,383.43,265.449,381.895,265.449z"/>
				</g>
			</g>
		</g>
	</g>
</g>
</svg>
