<?xml version="1.0" encoding="utf-8"?>
<!-- Generator: Adobe Illustrator 22.1.0, SVG Export Plug-In . SVG Version: 6.00 Build 0)  -->
<svg version="1.1" id="Icon_Set" xmlns="http://www.w3.org/2000/svg" xmlns:xlink="http://www.w3.org/1999/xlink" x="0px" y="0px"
	 viewBox="0 0 512 512" style="enable-background:new 0 0 512 512;" xml:space="preserve">
<style type="text/css">
	.st0{fill:#F0C48A;}
	.st1{fill:#D3E6F8;}
	.st2{fill:#4C4372;}
	.st3{fill:#FD919E;}
	.st4{fill:#E8677D;}
	.st5{fill:#FFFFFF;}
	.st6{fill:#A4CFF2;}
	.st7{fill:#7BABF1;}
</style>
<g id="Workstation">
	<g>
		<g>
			<circle class="st0" cx="256" cy="256" r="207"/>
		</g>
	</g>
	<g>
		<g>
			<g>
				<path class="st1" d="M327.092,311.825H123.733c-12.823,0-23.218-10.395-23.218-23.218V162.189
					c0-12.823,10.395-23.218,23.218-23.218h203.359c12.823,0,23.218,10.395,23.218,23.218v126.418
					C350.31,301.43,339.915,311.825,327.092,311.825z"/>
			</g>
			<g>
				<path class="st5" d="M327.092,138.971H123.733c-12.823,0-23.218,10.395-23.218,23.218v126.418H350.31V162.189
					C350.31,149.366,339.915,138.971,327.092,138.971z"/>
			</g>
			<g>
				<path class="st6" d="M327.092,138.971h-4.688v172.854h4.688c12.823,0,23.218-10.395,23.218-23.218V162.189
					C350.31,149.366,339.915,138.971,327.092,138.971z"/>
			</g>
			<g>
				<path class="st1" d="M327.092,138.971h-4.688v149.636h27.906V162.189C350.31,149.366,339.915,138.971,327.092,138.971z"/>
			</g>
			<g>
				<path class="st2" d="M327.092,317.825H123.733c-16.111,0-29.218-13.107-29.218-29.218V162.189
					c0-16.111,13.107-29.218,29.218-29.218h203.359c16.111,0,29.218,13.107,29.218,29.218v126.418
					C356.31,304.718,343.203,317.825,327.092,317.825z M123.733,144.971c-9.494,0-17.218,7.724-17.218,17.218v126.418
					c0,9.494,7.724,17.218,17.218,17.218h203.359c9.494,0,17.218-7.724,17.218-17.218V162.189c0-9.494-7.724-17.218-17.218-17.218
					H123.733z"/>
			</g>
			<g>
				<path class="st2" d="M350.31,294.607H100.516c-3.314,0-6-2.687-6-6V162.189c0-16.111,13.107-29.218,29.218-29.218h203.358
					c16.111,0,29.218,13.107,29.218,29.218v126.418C356.31,291.92,353.624,294.607,350.31,294.607z M106.516,282.607H344.31V162.189
					c0-9.494-7.724-17.218-17.218-17.218H123.733c-9.494,0-17.218,7.724-17.218,17.218V282.607z"/>
			</g>
			<g>
				<path class="st1" d="M270.89,373.029h-90.955v-17.083c0-4.531,3.673-8.203,8.203-8.203h74.548c4.531,0,8.203,3.673,8.203,8.203
					V373.029z"/>
			</g>
			<g>
				<rect x="207.454" y="311.825" class="st6" width="35.917" height="35.917"/>
			</g>
			<g>
				<path class="st2" d="M243.372,353.742h-35.917c-3.313,0-6-2.687-6-6v-35.917c0-3.313,2.687-6,6-6h35.917c3.313,0,6,2.687,6,6
					v35.917C249.372,351.056,246.685,353.742,243.372,353.742z M213.454,341.742h23.917v-23.917h-23.917V341.742z"/>
			</g>
			<g>
				<path class="st2" d="M270.89,379.029h-90.955c-3.313,0-6-2.687-6-6v-17.083c0-7.832,6.372-14.204,14.203-14.204h74.548
					c7.832,0,14.204,6.372,14.204,14.204v17.083C276.89,376.342,274.204,379.029,270.89,379.029z M185.936,367.029h78.955v-11.083
					c0-1.215-0.988-2.204-2.204-2.204h-74.548c-1.215,0-2.203,0.989-2.203,2.204V367.029z"/>
			</g>
		</g>
		<g>
			<g>
				<path class="st3" d="M405.361,373.029H295.259c-3.382,0-6.124-2.742-6.124-6.124V198.768c0-3.382,2.742-6.124,6.124-6.124
					h110.101c3.382,0,6.124,2.742,6.124,6.124v168.137C411.485,370.287,408.743,373.029,405.361,373.029z"/>
			</g>
			<g>
				<circle class="st2" cx="350.31" cy="343.107" r="11.472"/>
			</g>
			<g>
				<path class="st4" d="M405.361,192.644h-15.593v180.385h15.593c3.382,0,6.124-2.742,6.124-6.124V198.768
					C411.485,195.385,408.743,192.644,405.361,192.644z"/>
			</g>
			<g>
				<rect x="306.955" y="215.421" class="st5" width="86.709" height="21.754"/>
			</g>
			<g>
				<rect x="306.955" y="259.441" class="st5" width="86.709" height="21.754"/>
			</g>
			<g>
				<rect x="371.18" y="215.421" class="st1" width="22.484" height="21.754"/>
			</g>
			<g>
				<rect x="371.18" y="259.441" class="st1" width="22.484" height="21.754"/>
			</g>
			<g>
				<path class="st2" d="M405.36,379.029H295.259c-6.685,0-12.124-5.439-12.124-12.124V198.768c0-6.685,5.439-12.124,12.124-12.124
					H405.36c6.685,0,12.124,5.439,12.124,12.124v168.137C417.484,373.59,412.045,379.029,405.36,379.029z M295.259,198.644
					c-0.068,0-0.124,0.056-0.124,0.124v168.137c0,0.068,0.056,0.124,0.124,0.124H405.36c0.068,0,0.124-0.056,0.124-0.124V198.768
					c0-0.068-0.056-0.124-0.124-0.124H295.259z"/>
			</g>
			<g>
				<path class="st2" d="M393.665,243.174h-86.709c-3.313,0-6-2.687-6-6v-21.753c0-3.313,2.687-6,6-6h86.709c3.313,0,6,2.687,6,6
					v21.753C399.665,240.488,396.978,243.174,393.665,243.174z M312.956,231.174h74.709v-9.753h-74.709V231.174z"/>
			</g>
			<g>
				<path class="st2" d="M393.665,287.195h-86.709c-3.313,0-6-2.687-6-6v-21.753c0-3.313,2.687-6,6-6h86.709c3.313,0,6,2.687,6,6
					v21.753C399.665,284.508,396.978,287.195,393.665,287.195z M312.956,275.195h74.709v-9.753h-74.709V275.195z"/>
			</g>
		</g>
	</g>
</g>
</svg>
