<?xml version="1.0" encoding="utf-8"?>
<!-- Generator: Adobe Illustrator 22.1.0, SVG Export Plug-In . SVG Version: 6.00 Build 0)  -->
<svg version="1.1" id="Icon_Set" xmlns="http://www.w3.org/2000/svg" xmlns:xlink="http://www.w3.org/1999/xlink" x="0px" y="0px"
	 viewBox="0 0 512 512" style="enable-background:new 0 0 512 512;" xml:space="preserve">
<style type="text/css">
	.st0{fill:#F0C48A;}
	.st1{fill:#D3E6F8;}
	.st2{fill:#4C4372;}
	.st3{fill:#FD919E;}
	.st4{fill:#E8677D;}
	.st5{fill:#FFFFFF;}
	.st6{fill:#A4CFF2;}
	.st7{fill:#7BABF1;}
</style>
<g id="WWW">
	<g>
		<g>
			<circle class="st0" cx="256" cy="256" r="207"/>
		</g>
	</g>
	<g>
		<g>
			<path class="st1" d="M373.554,320.54H138.446c-14.825,0-26.843-12.018-26.843-26.843V147.543
				c0-14.825,12.018-26.843,26.843-26.843h235.107c14.825,0,26.843,12.018,26.843,26.843v146.154
				C400.396,308.522,388.378,320.54,373.554,320.54z"/>
		</g>
		<g>
			<path class="st5" d="M373.554,120.701H138.446c-14.825,0-26.843,12.018-26.843,26.843v146.154h288.792V147.543
				C400.396,132.718,388.378,120.701,373.554,120.701z"/>
		</g>
		<g>
			<path class="st6" d="M373.554,120.701h-5.42v199.84h5.42c14.825,0,26.843-12.018,26.843-26.843V147.543
				C400.396,132.718,388.378,120.701,373.554,120.701z"/>
		</g>
		<g>
			<path class="st1" d="M373.554,120.701h-5.42v172.997h32.263V147.543C400.396,132.718,388.378,120.701,373.554,120.701z"/>
		</g>
		<g>
			<path class="st2" d="M373.554,326.54H138.446c-18.109,0-32.843-14.733-32.843-32.843V147.543
				c0-18.109,14.733-32.842,32.843-32.842h235.107c18.109,0,32.843,14.733,32.843,32.842v146.154
				C406.396,311.807,391.663,326.54,373.554,326.54z M138.446,126.701c-11.493,0-20.843,9.35-20.843,20.842v146.154
				c0,11.493,9.35,20.843,20.843,20.843h235.107c11.493,0,20.843-9.35,20.843-20.843V147.543c0-11.493-9.35-20.842-20.843-20.842
				H138.446z"/>
		</g>
		<g>
			<path class="st2" d="M400.396,299.697H111.604c-3.313,0-6-2.687-6-6V147.543c0-18.109,14.733-32.842,32.843-32.842h235.107
				c18.109,0,32.842,14.733,32.842,32.842v146.154C406.396,297.011,403.709,299.697,400.396,299.697z M117.604,287.697h276.792
				V147.543c0-11.493-9.35-20.842-20.842-20.842H138.446c-11.493,0-20.843,9.35-20.843,20.842V287.697z"/>
		</g>
		<g>
			<path class="st1" d="M308.577,391.299H203.423v-19.75c0-5.238,4.246-9.484,9.484-9.484h86.186c5.238,0,9.484,4.246,9.484,9.484
				V391.299z"/>
		</g>
		<g>
			<rect x="235.238" y="320.54" class="st6" width="41.525" height="41.525"/>
		</g>
		<g>
			<path class="st2" d="M276.762,368.065h-41.524c-3.313,0-6-2.687-6-6V320.54c0-3.313,2.687-6,6-6h41.524c3.313,0,6,2.687,6,6
				v41.525C282.762,365.378,280.076,368.065,276.762,368.065z M241.238,356.065h29.524V326.54h-29.524V356.065z"/>
		</g>
		<g>
			<path class="st2" d="M308.577,397.299H203.423c-3.313,0-6-2.687-6-6v-19.75c0-8.538,6.946-15.484,15.484-15.484h86.187
				c8.538,0,15.484,6.946,15.484,15.484v19.75C314.577,394.613,311.891,397.299,308.577,397.299z M209.423,385.299h93.154v-13.75
				c0-1.921-1.563-3.484-3.484-3.484h-86.187c-1.921,0-3.484,1.563-3.484,3.484V385.299z"/>
		</g>
		<g>
			<path class="st3" d="M331.893,250.311H178.629c-20.015,0-36.24-16.225-36.24-36.24v0c0-20.015,16.225-36.24,36.24-36.24h153.264
				c20.015,0,36.24,16.225,36.24,36.24v0C368.133,234.086,351.908,250.311,331.893,250.311z"/>
		</g>
		<g>
			<path class="st2" d="M224.943,201.467l-12.329,29.339c-0.05,0.151-0.151,0.352-0.252,0.453l-0.05,0.05
				c-0.05,0.101-0.151,0.202-0.251,0.302c0,0.101-0.05,0.101-0.05,0.151c-0.101,0.05-0.251,0.151-0.352,0.251h-0.05
				c-0.151,0.101-0.252,0.252-0.453,0.302h-0.05c0,0-0.05,0-0.05,0.05c-0.101,0-0.251,0.05-0.403,0.101c-0.05,0-0.101,0-0.101,0
				c-0.151,0.05-0.302,0.05-0.503,0.05c-0.151,0-0.302,0-0.453-0.05c-0.101,0-0.151,0-0.151,0c-0.151-0.05-0.251-0.101-0.353-0.101
				c-0.05-0.05-0.05-0.05-0.101-0.05c-0.201-0.05-0.352-0.201-0.453-0.302c-0.05,0-0.05,0-0.05,0
				c-0.151-0.101-0.252-0.201-0.353-0.251c-0.05-0.05-0.05-0.05-0.101-0.151s-0.151-0.201-0.201-0.302
				c-0.101,0-0.101-0.05-0.101-0.05c-0.101-0.101-0.151-0.302-0.202-0.453l-6.592-15.601l-6.592,15.601
				c-0.05,0.151-0.151,0.352-0.201,0.453c-0.05,0-0.05,0.05-0.05,0.05c-0.101,0.101-0.201,0.202-0.302,0.302
				c0,0.101-0.05,0.101-0.05,0.151c-0.101,0.05-0.201,0.151-0.302,0.251c-0.101,0-0.101,0-0.101,0
				c-0.151,0.101-0.302,0.252-0.403,0.302c-0.05,0-0.05,0-0.05,0s-0.05,0-0.05,0.05c-0.201,0-0.302,0.05-0.402,0.101
				c-0.05,0-0.101,0-0.151,0c-0.151,0.05-0.302,0.05-0.453,0.05s-0.352,0-0.503-0.05c-0.05,0-0.101,0-0.151,0
				c-0.151-0.05-0.251-0.101-0.352-0.101c-0.05-0.05-0.05-0.05-0.101-0.05c-0.151-0.05-0.353-0.201-0.453-0.302
				c-0.05,0-0.05,0-0.05,0c-0.151-0.101-0.201-0.201-0.352-0.251c-0.051-0.05-0.051-0.05-0.101-0.151
				c-0.101-0.101-0.151-0.201-0.251-0.302v-0.05c-0.101-0.101-0.151-0.302-0.251-0.453l-12.38-29.339
				c-0.553-1.358,0.05-3.019,1.51-3.573c1.359-0.604,3.02,0.05,3.573,1.459l9.863,23.3l6.492-15.449
				c0.453-1.107,1.51-1.711,2.617-1.711c1.057,0,2.114,0.604,2.617,1.711l6.492,15.449l9.813-23.3
				c0.604-1.409,2.214-2.063,3.673-1.459C224.893,198.448,225.547,200.108,224.943,201.467z"/>
			<path class="st2" d="M279.901,201.467l-12.329,29.339c-0.05,0.151-0.151,0.352-0.252,0.453l-0.05,0.05
				c-0.05,0.101-0.151,0.202-0.251,0.302c0,0.101-0.05,0.101-0.05,0.151c-0.101,0.05-0.251,0.151-0.352,0.251h-0.05
				c-0.151,0.101-0.252,0.252-0.453,0.302h-0.05c0,0-0.05,0-0.05,0.05c-0.101,0-0.251,0.05-0.403,0.101c-0.05,0-0.101,0-0.101,0
				c-0.151,0.05-0.302,0.05-0.503,0.05c-0.151,0-0.302,0-0.453-0.05c-0.101,0-0.151,0-0.151,0c-0.151-0.05-0.251-0.101-0.353-0.101
				c-0.05-0.05-0.05-0.05-0.101-0.05c-0.201-0.05-0.352-0.201-0.453-0.302c-0.05,0-0.05,0-0.05,0
				c-0.151-0.101-0.252-0.201-0.353-0.251c-0.05-0.05-0.05-0.05-0.101-0.151s-0.151-0.201-0.201-0.302
				c-0.101,0-0.101-0.05-0.101-0.05c-0.101-0.101-0.151-0.302-0.202-0.453l-6.592-15.601l-6.592,15.601
				c-0.05,0.151-0.151,0.352-0.201,0.453c-0.05,0-0.05,0.05-0.05,0.05c-0.101,0.101-0.201,0.202-0.302,0.302
				c0,0.101-0.05,0.101-0.05,0.151c-0.101,0.05-0.201,0.151-0.302,0.251c-0.101,0-0.101,0-0.101,0
				c-0.151,0.101-0.302,0.252-0.403,0.302c-0.05,0-0.05,0-0.05,0s-0.05,0-0.05,0.05c-0.201,0-0.302,0.05-0.402,0.101
				c-0.05,0-0.101,0-0.151,0c-0.151,0.05-0.302,0.05-0.453,0.05s-0.352,0-0.503-0.05c-0.05,0-0.101,0-0.151,0
				c-0.151-0.05-0.251-0.101-0.352-0.101c-0.05-0.05-0.05-0.05-0.101-0.05c-0.151-0.05-0.353-0.201-0.453-0.302
				c-0.05,0-0.05,0-0.05,0c-0.151-0.101-0.201-0.201-0.352-0.251c-0.051-0.05-0.051-0.05-0.101-0.151
				c-0.101-0.101-0.151-0.201-0.251-0.302v-0.05c-0.101-0.101-0.151-0.302-0.251-0.453l-12.38-29.339
				c-0.553-1.358,0.05-3.019,1.51-3.573c1.359-0.604,3.02,0.05,3.573,1.459l9.863,23.3l6.492-15.449
				c0.453-1.107,1.51-1.711,2.617-1.711c1.057,0,2.114,0.604,2.617,1.711l6.492,15.449l9.813-23.3
				c0.604-1.409,2.214-2.063,3.673-1.459C279.851,198.448,280.505,200.108,279.901,201.467z"/>
			<path class="st2" d="M334.859,201.467l-12.329,29.339c-0.05,0.151-0.151,0.352-0.252,0.453l-0.05,0.05
				c-0.05,0.101-0.151,0.202-0.251,0.302c0,0.101-0.05,0.101-0.05,0.151c-0.101,0.05-0.251,0.151-0.352,0.251h-0.05
				c-0.151,0.101-0.252,0.252-0.453,0.302h-0.05c0,0-0.05,0-0.05,0.05c-0.101,0-0.251,0.05-0.403,0.101c-0.05,0-0.101,0-0.101,0
				c-0.151,0.05-0.302,0.05-0.503,0.05c-0.151,0-0.302,0-0.453-0.05c-0.101,0-0.151,0-0.151,0c-0.151-0.05-0.251-0.101-0.353-0.101
				c-0.05-0.05-0.05-0.05-0.101-0.05c-0.201-0.05-0.352-0.201-0.453-0.302c-0.05,0-0.05,0-0.05,0
				c-0.151-0.101-0.252-0.201-0.353-0.251c-0.05-0.05-0.05-0.05-0.101-0.151s-0.151-0.201-0.201-0.302
				c-0.101,0-0.101-0.05-0.101-0.05c-0.101-0.101-0.151-0.302-0.202-0.453l-6.592-15.601l-6.592,15.601
				c-0.05,0.151-0.151,0.352-0.201,0.453c-0.05,0-0.05,0.05-0.05,0.05c-0.101,0.101-0.201,0.202-0.302,0.302
				c0,0.101-0.05,0.101-0.05,0.151c-0.101,0.05-0.201,0.151-0.302,0.251c-0.101,0-0.101,0-0.101,0
				c-0.151,0.101-0.302,0.252-0.403,0.302c-0.05,0-0.05,0-0.05,0s-0.05,0-0.05,0.05c-0.201,0-0.302,0.05-0.402,0.101
				c-0.05,0-0.101,0-0.151,0c-0.151,0.05-0.302,0.05-0.453,0.05s-0.352,0-0.503-0.05c-0.05,0-0.101,0-0.151,0
				c-0.151-0.05-0.251-0.101-0.352-0.101c-0.05-0.05-0.05-0.05-0.101-0.05c-0.151-0.05-0.353-0.201-0.453-0.302
				c-0.05,0-0.05,0-0.05,0c-0.151-0.101-0.201-0.201-0.352-0.251c-0.051-0.05-0.051-0.05-0.101-0.151
				c-0.101-0.101-0.151-0.201-0.251-0.302v-0.05c-0.101-0.101-0.151-0.302-0.251-0.453l-12.38-29.339
				c-0.553-1.358,0.05-3.019,1.51-3.573c1.359-0.604,3.02,0.05,3.573,1.459l9.863,23.3l6.492-15.449
				c0.453-1.107,1.51-1.711,2.617-1.711c1.057,0,2.114,0.604,2.617,1.711l6.492,15.449l9.813-23.3
				c0.604-1.409,2.214-2.063,3.673-1.459C334.809,198.448,335.463,200.108,334.859,201.467z"/>
		</g>
		<g>
			<path class="st2" d="M331.894,256.311H178.629c-23.291,0-42.24-18.949-42.24-42.24c0-23.292,18.949-42.24,42.24-42.24h153.265
				c23.291,0,42.24,18.949,42.24,42.24C374.133,237.362,355.185,256.311,331.894,256.311z M178.629,183.831
				c-16.674,0-30.24,13.566-30.24,30.24s13.565,30.24,30.24,30.24h153.265c16.674,0,30.24-13.565,30.24-30.24
				s-13.565-30.24-30.24-30.24H178.629z"/>
		</g>
	</g>
</g>
</svg>
