<?xml version="1.0" encoding="utf-8"?>
<!-- Generator: Adobe Illustrator 22.1.0, SVG Export Plug-In . SVG Version: 6.00 Build 0)  -->
<svg version="1.1" id="Icon_Set" xmlns="http://www.w3.org/2000/svg" xmlns:xlink="http://www.w3.org/1999/xlink" x="0px" y="0px"
	 viewBox="0 0 512 512" style="enable-background:new 0 0 512 512;" xml:space="preserve">
<style type="text/css">
	.st0{fill:#F0C48A;}
	.st1{fill:#D3E6F8;}
	.st2{fill:#4C4372;}
	.st3{fill:#FD919E;}
	.st4{fill:#E8677D;}
	.st5{fill:#FFFFFF;}
	.st6{fill:#A4CFF2;}
	.st7{fill:#7BABF1;}
</style>
<g id="ZIP_Files">
	<g>
		<g>
			<circle class="st0" cx="256" cy="256" r="207"/>
		</g>
	</g>
	<g>
		<g>
			<g>
				<path class="st7" d="M221.564,162.812l-11.094-27.486h-73.676c-12.254,0-22.187,9.934-22.187,22.187v133.498h282.786V184.999
					c0-12.254-9.934-22.187-22.187-22.187H221.564z"/>
			</g>
			<g>
				<path class="st2" d="M397.393,297.011H114.607c-3.313,0-6-2.686-6-6V157.513c0-15.542,12.645-28.188,28.188-28.188h73.676
					c2.447,0,4.648,1.485,5.564,3.754l9.579,23.731h149.593c15.542,0,28.188,12.645,28.188,28.188v106.012
					C403.393,294.325,400.707,297.011,397.393,297.011z M120.607,285.011h270.786V184.999c0-8.926-7.262-16.188-16.188-16.188
					H221.564c-2.447,0-4.648-1.485-5.564-3.754l-9.579-23.731h-69.627c-8.926,0-16.188,7.262-16.188,16.188V285.011z"/>
			</g>
			<g>
				<path class="st1" d="M375.206,376.674H136.794c-12.254,0-22.187-9.934-22.187-22.187V227.536
					c0-12.254,9.934-22.187,22.187-22.187h238.412c12.254,0,22.187,9.934,22.187,22.187v126.951
					C397.393,366.741,387.459,376.674,375.206,376.674z"/>
			</g>
			<g>
				<path class="st6" d="M375.206,205.348h-13.461v171.326h13.461c12.254,0,22.187-9.934,22.187-22.187V227.536
					C397.393,215.282,387.459,205.348,375.206,205.348z"/>
			</g>
			<g>
				<path class="st2" d="M375.206,382.674H136.794c-15.542,0-28.188-12.645-28.188-28.188V227.536
					c0-15.542,12.645-28.187,28.188-28.187h238.411c15.542,0,28.188,12.645,28.188,28.187v126.951
					C403.393,370.029,390.748,382.674,375.206,382.674z M136.794,211.349c-8.926,0-16.188,7.262-16.188,16.187v126.951
					c0,8.926,7.262,16.188,16.188,16.188h238.411c8.926,0,16.188-7.262,16.188-16.188V227.536c0-8.925-7.262-16.187-16.188-16.187
					H136.794z"/>
			</g>
		</g>
		<g>
			<g>
				<path class="st3" d="M315.282,340.751H196.718c-7.383,0-13.368-5.985-13.368-13.368v-68.477c0-7.383,5.985-13.368,13.368-13.368
					h118.564c7.383,0,13.368,5.985,13.368,13.368v68.477C328.65,334.766,322.665,340.751,315.282,340.751z"/>
			</g>
			<g>
				<path class="st2" d="M315.282,346.751H196.718c-10.679,0-19.368-8.688-19.368-19.368v-68.477
					c0-10.68,8.688-19.368,19.368-19.368h118.564c10.679,0,19.368,8.688,19.368,19.368v68.477
					C334.65,338.062,325.961,346.751,315.282,346.751z M196.718,251.538c-4.062,0-7.368,3.305-7.368,7.368v68.477
					c0,4.062,3.305,7.368,7.368,7.368h118.564c4.062,0,7.368-3.305,7.368-7.368v-68.477c0-4.063-3.305-7.368-7.368-7.368H196.718z"
					/>
			</g>
		</g>
		<g>
			<path class="st2" d="M246.867,279.316l-19.271,26.236h16.862c1.624,0,2.933,1.309,2.933,2.933c0,1.623-1.309,2.88-2.933,2.88
				h-22.57c-0.157,0-0.314,0-0.523-0.052c-0.053,0-0.105,0-0.157-0.053c-0.104,0-0.21-0.053-0.367-0.053
				c-0.052-0.052-0.104-0.052-0.156-0.157c-0.053,0-0.157-0.052-0.263-0.105c-0.104-0.052-0.156-0.052-0.209-0.104c0,0,0,0,0-0.053
				c-0.053,0-0.104-0.052-0.157-0.104c-0.053-0.052-0.157-0.157-0.209-0.262c-0.105-0.053-0.157-0.104-0.21-0.157
				c-0.053-0.052-0.104-0.157-0.157-0.209c-0.052-0.157-0.104-0.21-0.104-0.262c-0.053-0.105-0.157-0.157-0.157-0.262
				c-0.053-0.104-0.053-0.209-0.104-0.313c0-0.053-0.053-0.105-0.053-0.21c0-0.157-0.052-0.262-0.052-0.366c0-0.053,0-0.105,0-0.157
				c0,0,0,0,0-0.053c0-0.157,0-0.262,0.052-0.366c0-0.053,0-0.104,0-0.262c0.053-0.053,0.053-0.157,0.104-0.262
				c0-0.053,0.053-0.157,0.053-0.262c0.104-0.052,0.157-0.157,0.157-0.209c0.053-0.053,0.104-0.157,0.157-0.262c0,0,0,0,0.052,0
				l19.22-26.289h-16.915c-1.623,0-2.88-1.361-2.88-2.933c0-1.623,1.257-2.88,2.88-2.88h22.57h0.053c0.157,0,0.262,0,0.366,0
				c0.053,0,0.157,0.052,0.21,0.052c0.157,0,0.209,0.053,0.314,0.053c0.052,0.053,0.156,0.053,0.209,0.104
				c0.157,0,0.21,0.105,0.262,0.157c0.104,0.053,0.157,0.104,0.262,0.157c0,0,0,0,0.053,0c0.104,0.053,0.104,0.104,0.157,0.157
				c0.104,0.052,0.157,0.157,0.209,0.209c0.053,0.053,0.105,0.157,0.157,0.21c0.104,0.052,0.157,0.104,0.21,0.209
				c0.052,0.105,0.104,0.21,0.157,0.262c0,0.052,0.052,0.157,0.104,0.209c0,0.157,0.052,0.262,0.052,0.314
				c0.105,0.104,0.105,0.157,0.105,0.262c0.052,0.157,0.052,0.209,0.052,0.314c0,0.052,0,0.104,0,0.209c0,0.157,0,0.262,0,0.367
				c-0.052,0.105-0.052,0.157-0.052,0.209c0,0.157-0.105,0.209-0.105,0.314c-0.052,0.104-0.052,0.157-0.104,0.314
				c-0.052,0.052-0.052,0.105-0.104,0.157c-0.053,0.105-0.104,0.21-0.157,0.262C246.867,279.316,246.867,279.316,246.867,279.316z"
				/>
			<path class="st2" d="M256.027,277.588c0-1.623,1.257-2.88,2.88-2.88c1.571,0,2.933,1.257,2.933,2.88v30.897
				c0,1.623-1.361,2.88-2.933,2.88c-1.623,0-2.88-1.257-2.88-2.88V277.588z"/>
			<path class="st2" d="M283.885,297.121h-6.441v11.364c0,1.571-1.31,2.88-2.933,2.88c-1.571,0-2.88-1.309-2.88-2.88v-30.897
				c0-1.623,1.309-2.88,2.88-2.88h0.053h9.321c6.231,0,11.259,5.027,11.259,11.259C295.144,292.094,290.116,297.121,283.885,297.121
				z M277.443,291.309h6.441c3.037,0,5.394-2.409,5.446-5.342c-0.053-3.037-2.409-5.446-5.446-5.446h-6.441V291.309z"/>
		</g>
		<g>
			<path class="st2" d="M256,382.674c-3.313,0-6-2.687-6-6v-35.923c0-3.313,2.687-6,6-6s6,2.687,6,6v35.923
				C262,379.988,259.314,382.674,256,382.674z"/>
		</g>
		<g>
			<path class="st2" d="M256,251.538c-3.313,0-6-2.687-6-6v-40.189c0-3.313,2.687-6,6-6s6,2.687,6,6v40.189
				C262,248.852,259.314,251.538,256,251.538z"/>
		</g>
	</g>
</g>
</svg>
